<?xml version="1.0" encoding="utf-8"?>
<!-- Generator: Adobe Illustrator 18.1.1, SVG Export Plug-In . SVG Version: 6.00 Build 0)  -->
<svg version="1.0" id="Capa_1" xmlns="http://www.w3.org/2000/svg" xmlns:xlink="http://www.w3.org/1999/xlink" x="0px" y="0px"
	 viewBox="0 0 792 612" enable-background="new 0 0 792 612" xml:space="preserve">
<g>
	<path d="M208.3,337.4c-10.2,0-18-2.2-24.6-8.9l8.5-8.5c4.3,4.3,10,5.7,16.3,5.7c7.8,0,11.9-2.9,11.9-8.3c0-2.4-0.7-4.4-2.1-5.7
		c-1.3-1.2-2.8-1.9-6-2.4l-8.2-1.1c-5.8-0.9-10-2.7-13.1-5.6c-3.2-3.2-4.8-7.6-4.8-13.3c0-12,8.9-20.5,23.5-20.5
		c9.3,0,16,2.3,21.8,7.9l-8.3,8.2c-4.3-4.1-9.4-4.6-13.8-4.6c-7,0-10.4,3.9-10.4,8.5c0,1.7,0.6,3.5,2,4.8c1.3,1.2,3.5,2.3,6.3,2.7
		l8,1.1c6.2,0.9,10,2.6,12.9,5.2c3.6,3.4,5.2,8.3,5.2,14.3C233.3,330,222.4,337.4,208.3,337.4z"/>
	<path d="M245.7,336.8v-67.5h44.5V281h-31.3v15.8h26.6v11.8h-26.6V325h31.3v11.8H245.7z"/>
	<path d="M344.7,329.7c-5.4,5.6-11.8,7.7-19.1,7.7c-7.4,0-13.5-2.7-18.2-7.4c-6.8-6.8-6.6-15.3-6.6-26.9c0-11.7-0.2-20.1,6.6-26.9
		c4.7-4.7,10.6-7.4,18.2-7.4c15.6,0,23.6,10.2,25.4,21.6h-13.3c-1.5-6.4-5.4-9.9-12.1-9.9c-3.6,0-6.5,1.4-8.4,3.6
		c-2.6,2.8-3.2,6-3.2,19c0,13,0.7,16.2,3.2,19.1c1.9,2.2,4.8,3.5,8.4,3.5c4,0,7.2-1.4,9.4-3.8c2.2-2.5,3-5.5,3-9v-2.6h-12.4v-11
		h25.5v9.9C351.1,318.9,349.4,324.7,344.7,329.7z"/>
	<path d="M388.3,337.4c-13.8,0-24.8-9.4-24.8-23.7v-44.4h13.2v43.9c0,7.8,4.5,12.4,11.7,12.4c7.1,0,11.8-4.6,11.8-12.4v-43.9h13.1
		v44.4C413.1,328,402.1,337.4,388.3,337.4z"/>
	<path d="M463.6,336.8l-13.2-26.9H441v26.9h-13.2v-67.5h26.4c13.7,0,21.9,9.4,21.9,20.7c0,9.5-5.8,15.4-12.3,17.7l15.1,29.1H463.6z
		 M453.4,281H441v17.8h12.4c5.8,0,9.6-3.7,9.6-8.9S459.2,281,453.4,281z"/>
	<path d="M530.7,330c-4.7,4.7-10.5,7.4-18.2,7.4s-13.6-2.7-18.3-7.4c-6.8-6.8-6.6-15.3-6.6-26.9c0-11.7-0.2-20.1,6.6-26.9
		c4.7-4.7,10.6-7.4,18.3-7.4s13.5,2.7,18.2,7.4c6.8,6.8,6.7,15.3,6.7,26.9C537.4,314.7,537.5,323.1,530.7,330z M520.9,284.1
		c-1.9-2.2-4.8-3.6-8.4-3.6s-6.6,1.4-8.5,3.6c-2.6,2.8-3.2,6-3.2,19c0,13,0.7,16.1,3.2,19c1.9,2.2,4.9,3.6,8.5,3.6s6.5-1.4,8.4-3.6
		c2.6-2.8,3.3-6,3.3-19C524.2,290.1,523.5,286.9,520.9,284.1z"/>
	<path d="M569.4,337.4c-10.2,0-18-2.2-24.6-8.9l8.5-8.5c4.3,4.3,10,5.7,16.3,5.7c7.8,0,11.9-2.9,11.9-8.3c0-2.4-0.7-4.4-2.1-5.7
		c-1.3-1.2-2.8-1.9-6-2.4l-8.2-1.1c-5.8-0.9-10-2.7-13.1-5.6c-3.2-3.2-4.8-7.6-4.8-13.3c0-12,8.9-20.5,23.5-20.5
		c9.3,0,16,2.3,21.8,7.9l-8.3,8.2c-4.3-4.1-9.4-4.6-13.8-4.6c-7,0-10.4,3.9-10.4,8.5c0,1.7,0.6,3.5,2,4.8c1.3,1.2,3.5,2.3,6.3,2.7
		l8,1.1c6.2,0.9,10,2.6,12.9,5.2c3.6,3.4,5.2,8.3,5.2,14.3C594.4,330,583.5,337.4,569.4,337.4z"/>
</g>
</svg>
