<svg id="Capa_1" data-name="Capa 1" xmlns="http://www.w3.org/2000/svg" viewBox="0 0 141 117"><defs><style>.cls-1{fill:#d9eaff;}.cls-2{fill:#b5d6ff;}.cls-3{fill:#72a3e3;}.cls-4{fill:#1360c5;}.cls-5{fill:#0033a0;}.cls-6{fill:#00aec7;}.cls-7{fill:#4585d7;}.cls-8{fill:#ed904a;}.cls-9{fill:#183d6e;}.cls-10{fill:#95cfe8;}.cls-11{fill:#fff;}.cls-12{fill:#27456c;}.cls-13{fill:#375d8d;}.cls-14{fill:#c3e7f7;}.cls-15{fill:#6bacff;}</style></defs><path class="cls-1" d="M7.18,98.73c-3.45.81-7.63,2.67-7.14,5.66s4.89,3.81,8.38,4l27.27,1.67c33.21,2,67.4,5.78,99.09-2.81,2.64-.72,5.66-1.88,6.15-4.17.33-1.52-.62-3-1.85-4.18-4.9-4.5-14.28-3.14-21.52-3.61C95.9,93.92,80,96.73,60.74,95.38,42.69,94.11,24.76,94.63,7.18,98.73Z"/><rect class="cls-2" x="125.12" y="54.24" width="1.41" height="45.78"/><circle class="cls-2" cx="125.82" cy="42.33" r="12.74"/><path class="cls-2" d="M126.53,67.7c0-5.72,2.87-8,9.42-8.24,0,0,1.51,6.6-3.87,8.51A6.61,6.61,0,0,1,126.53,67.7Z"/><path class="cls-2" d="M125,67.7c0-5.72-2.87-8-9.42-8.24,0,0-1.51,6.6,3.87,8.51A6.61,6.61,0,0,0,125,67.7Z"/><path class="cls-2" d="M126.53,80.16c0-5.72,2.87-8,9.42-8.24,0,0,1.51,6.6-3.87,8.51A6.61,6.61,0,0,1,126.53,80.16Z"/><path class="cls-2" d="M125,80.16c0-5.72-2.87-8-9.42-8.24,0,0-1.51,6.6,3.87,8.51A6.61,6.61,0,0,0,125,80.16Z"/><path class="cls-2" d="M126.53,92.77c0-5.72,2.87-8,9.42-8.24,0,0,1.51,6.6-3.87,8.51A6.61,6.61,0,0,1,126.53,92.77Z"/><path class="cls-2" d="M125,92.77c0-5.72-2.87-8-9.42-8.24,0,0-1.51,6.6,3.87,8.51A6.61,6.61,0,0,0,125,92.77Z"/><rect class="cls-2" x="24.82" y="78.13" width="0.9" height="21.88"/><circle class="cls-2" cx="25.27" cy="70.54" r="8.11" transform="translate(-49.53 75.12) rotate(-73.79)"/><path class="cls-2" d="M25.72,86.71c0-3.65,1.83-5.08,6-5.25,0,0,1,4.2-2.46,5.42A4.2,4.2,0,0,1,25.72,86.71Z"/><path class="cls-2" d="M24.72,86.71c0-3.65-1.83-5.08-6-5.25,0,0-1,4.2,2.46,5.42A4.21,4.21,0,0,0,24.72,86.71Z"/><rect class="cls-2" x="92.65" y="72.59" width="1.13" height="27.43"/><circle class="cls-2" cx="93.22" cy="63.08" r="10.17"/><path class="cls-2" d="M93.78,83.34c0-4.57,2.3-6.38,7.52-6.58,0,0,1.21,5.27-3.09,6.79A5.27,5.27,0,0,1,93.78,83.34Z"/><path class="cls-2" d="M92.53,83.34c0-4.57-2.3-6.38-7.52-6.58,0,0-1.21,5.27,3.08,6.79A5.29,5.29,0,0,0,92.53,83.34Z"/><rect class="cls-2" x="56.93" y="65.5" width="1.42" height="34.52"/><circle class="cls-2" cx="57.64" cy="53.53" r="12.8"/><path class="cls-2" d="M58.35,79c0-5.74,2.89-8,9.47-8.27,0,0,1.52,6.63-3.89,8.54A6.64,6.64,0,0,1,58.35,79Z"/><path class="cls-2" d="M56.78,79c0-5.74-2.89-8-9.47-8.27,0,0-1.52,6.63,3.89,8.54A6.64,6.64,0,0,0,56.78,79Z"/><rect class="cls-3" x="74.34" y="38.08" width="1.91" height="61.94"/><circle class="cls-4" cx="75.3" cy="21.96" r="17.24"/><circle class="cls-5" cx="75.3" cy="21.96" r="13.13"/><path class="cls-6" d="M76.25,30.72h-1.9A4.77,4.77,0,0,1,69.58,26a1,1,0,0,1,1.92,0,2.86,2.86,0,0,0,2.85,2.85h1.9a2.86,2.86,0,1,0,0-5.71h-1.9a4.77,4.77,0,1,1,0-9.53h1.9A4.78,4.78,0,0,1,81,18.34a1,1,0,0,1-1.91,0,2.86,2.86,0,0,0-2.86-2.86h-1.9a2.86,2.86,0,0,0,0,5.71h1.9a4.77,4.77,0,1,1,0,9.53Z"/><path class="cls-6" d="M75.3,32.63a1,1,0,0,1-1-1V12.62a1,1,0,0,1,1.92,0V31.67A1,1,0,0,1,75.3,32.63Z"/><path class="cls-6" d="M87.81,25.34c-.25.74-.18,1.16-.38,1.51-.16,0,.18-.42,0-.3-.45.85-1.24,3.59-2.47,4.06a25.38,25.38,0,0,1-3.5,2.7c-.1-.13-.12-.12,0,0a17.65,17.65,0,0,1-7.56,1.06c-1.34-.1-6.45-2.18-6.54-2.1-2,1-4.7-8.21-5.12-9.75,0,0,0,.39,0,.16-.38,1.68.83,4.4,1.33,5.27.77,1.6.93,2.12,2.1,3,.22.29-.18.12-.18.14.71.77,1.63,2.29,2.71,2.28-.51-.2,0,.11-.29-.21,1.87-.13,4.54,2.38,6.84,2.08-.48.55-.28.1-.18.18,1.05-1,5.4-.25,7.69-1.68,2-1.23,2.81-3.63,4.48-4.69-.24.19-.25.31,0,.34,0-.1.34-.92.33-.91l-.13.25c0-.38.61-1.13.59-1.19a25.08,25.08,0,0,0,1-5.57c0,.15,0,.15,0,0A10.53,10.53,0,0,1,87.81,25.34Z"/><path class="cls-6" d="M62.88,18.6a7.49,7.49,0,0,0,.18-1.22c-.07.15,0,0,.15-.3.25,0-.24.43.1.32.42-.73,1.32-3.79,2.44-4,1.75-1.48,2.13-1.54,3.49-2.65.13.18.14.17,0-.05a18.69,18.69,0,0,1,12.65.39,1.84,1.84,0,0,0-.41,0c.6.14,1.31,1,1.8.53,1.26-.86,5,7.83,5.12,9.65,0,0,0-.3,0-.09.37-1.12-.58-3.69-1.06-4.37.28-.19.09-.4-.24-.91-.82-1.67-.86-2.2-2.11-2.95-.25-.36.24-.15.24-.2-.23-.26-1.28-1.59-1.4-1.37.14.17-1-1-1.32-.93.35,0,.12,0,.28.21-.76.18-3.93-1.95-5.38-1.83-.25-.52-.82-.34-1.52-.21.48-.73.31-.11.19-.24-.39.52-2.43-.21-2.74-.36-.85-2.29-9.17,6.64-9.51,6.8.26-.21.25-.33,0-.38,0,.14-.31,1-.27,1s.18-.37.12-.26c.06.4-.62,1.11-.58,1.21-.24,1.82-1,3.56-1,5.59,0-.14,0-.15,0,0A9.18,9.18,0,0,1,62.88,18.6Z"/><path class="cls-3" d="M76.26,56.29c0-7.74,3.89-10.8,12.74-11.14,0,0,2,8.92-5.23,11.5A8.93,8.93,0,0,1,76.26,56.29Z"/><path class="cls-3" d="M74.13,56.29c0-7.74-3.88-10.8-12.74-11.14,0,0-2,8.92,5.23,11.5A8.93,8.93,0,0,0,74.13,56.29Z"/><path class="cls-3" d="M76.26,73.15c0-7.74,3.89-10.8,12.74-11.15,0,0,2,8.93-5.23,11.51A8.93,8.93,0,0,1,76.26,73.15Z"/><path class="cls-3" d="M74.13,73.15c0-7.74-3.88-10.8-12.74-11.15,0,0-2,8.93,5.23,11.51A8.93,8.93,0,0,0,74.13,73.15Z"/><path class="cls-3" d="M76.26,90.21c0-7.74,3.89-10.79,12.74-11.14,0,0,2,8.92-5.23,11.5A8.93,8.93,0,0,1,76.26,90.21Z"/><path class="cls-3" d="M74.13,90.21c0-7.74-3.88-10.79-12.74-11.14,0,0-2,8.92,5.23,11.5A8.93,8.93,0,0,0,74.13,90.21Z"/><path class="cls-7" d="M77.61,55.62s.15-.39,0-.45,0,0,0,0c0,.12.07.1.08-.07.14.1-.1.1.08.18a11.13,11.13,0,0,0,1.91-2.14c.07.07.08.06,0,0A15.26,15.26,0,0,0,83,50.52a.77.77,0,0,0,0,.15c.14-.23.48-.24.32-.52,0,0,2.29-1.11,2.31-1.46,0,.4.37-.19.41-.25s.19,0,.19.1.13-.07.11-.16,0,0,0,0-.36-.19-.42.15a.82.82,0,0,0-.84.47q0-.13-.06-.06c-.11-.16-.12,0-.26.09-.57.26-.69.22-.92.63-.15,0-.06-.13-.08-.14a.56.56,0,0,1-.43.14c-.05.13,0,0,0,.18,0,0-.47.1-.51.21.12.09,0,0,.16.1-.24-.14-1.21.86-1.35,1.06-.19-.09-.26.09-.37.27-.1-.35-.49.35-.49.34s-.2-.07-.27-.08S78.12,54.41,78,54.4s-.07-.18-.07-.17-.15.29-.08.31.06-.1,0-.07,0,.1,0,.15c-.17-.07-1.24,1.22-1.4,1.4s.28.32.34.32c0-.17,0,0,0,0s.54-.43.44-.69C77.54,55.68,77.38,55.65,77.61,55.62Z"/><path class="cls-7" d="M77.21,72.56s.17-.38.08-.44,0,0,0,0c0,.12.06.1.08-.06.13.1-.1.09.07.18a11.31,11.31,0,0,0,2-2c.07.06.07.06,0,0a14,14,0,0,0,3.29-2.52.78.78,0,0,0,0,.16c.14-.23.48-.24.33-.52,0,0,2.28-1.09,2.29-1.44,0,.4.36-.19.41-.25s.18,0,.18.1c0-.07.14-.07.11-.16s-.05,0,0,0-.37-.18-.43.16a.84.84,0,0,0-.83.47q0-.13-.06-.06c-.11-.16-.11,0-.25.09-.57.26-.68.21-.92.61-.15.06,0-.12-.08-.13a.52.52,0,0,1-.43.13c-.05.14,0,0,0,.18-.27-.08-.09,0-.23.2,0,0-.25-.08-.28,0s0,0,.16.1c-.24-.13-1.22.84-1.36,1-.2-.09-.26.09-.38.27-.09-.36-.49.32-.5.31s-.19-.07-.26-.08-2.43,2.49-2.53,2.48-.06-.17-.06-.17-.17.28-.1.3.07-.09,0-.07a.11.11,0,0,0,0,.16c-.16-.08-1.3,1.14-1.47,1.3s.26.34.33.34c0-.17,0,0,0,0s.56-.4.47-.66C77.14,72.62,77,72.58,77.21,72.56Z"/><path class="cls-7" d="M74,72.14s-.32-.2-.4-.11.05,0,0,0c.12,0,.1,0,0-.07.12-.12.08.09.19-.06a5.89,5.89,0,0,0-1.92-1.59c.06-.08,0-.08,0,0a8.61,8.61,0,0,0-2.78-2.19l.14,0c-.25,0-.32-.33-.53-.1.32-.28-.48-.39-.46-.35s-1-.61-1.16-.69-.14-.34-.35-.14c.2-.19-.09-.12,0-.22-.25,0-.59,0-.59,0s0,0,0,0,.17.32.37.12a.76.76,0,0,0,.78.29c-.07.06-.08.09,0,.08-.07.15,0,.11.17.15.33.37.46.46.79.49.09.1-.09.09-.1.12s0,0,0,.07a.57.57,0,0,1,.22,0c0,.1,0,.18,0,.24s0,0,.15-.09c0,.27,0,.07.22.12,0,0,0,.25.06.25a1.89,1.89,0,0,0,.06-.18c-.06.23,1,.79,1.17.85,0,.21.37.24.13.29,0,0,.44.42.53.31s-.05.21,0,.26a19.67,19.67,0,0,1,1.79,1.16c.09.1.63.51.62.57s-.15.06-.17.07.24.14.27.06-.12.05.08-.06c0,0,.74,1.23.8,1.39s.42-.13.44-.17-.09,0,0,0-.13-.62-.44-.57C74.09,72.18,74,72.39,74,72.14Z"/><path class="cls-7" d="M73.43,55.64s-.37-.19-.43-.11,0,0,0,0c.13,0,.11-.05,0-.08.11-.12.09.11.18-.06A7,7,0,0,0,71,53.62c.05-.08,0-.08,0,0a9.41,9.41,0,0,0-3.31-2.28l.15,0c-.26,0-.38-.34-.58-.09.16-.16-1.41-.92-1.8-1.23-.06,0,0-.38-.33-.26.37-.14-.3-.26-.38-.28s0-.17,0-.2-.11-.1-.19,0,0,0,0,0,0,.4.29.32a.76.76,0,0,0,.72.57c-.08,0-.09.07,0,.07-.11.17,0,.1.17.2.45.41.44.53.89.58.11.11-.09.1-.09.13.15.16.17.07.27.33.14,0,0,0,.16-.09,0,.27,0,.07.26.12,0,0,0,.26.1.26s0,0,0-.19c0,.26,1.18.8,1.4.86,0,.21.16.21.35.26-.28.19.44.36.44.36s0,.21,0,.28a19.74,19.74,0,0,1,2.75,1.91s-.17.06-.17.07.27.15.29.08-.14,0,.08-.07a16,16,0,0,0,1.12,1.48c.1.06.39-.2.4-.26-.16-.07,0,0,0,0s-.29-.62-.57-.55C73.47,55.72,73.44,55.85,73.43,55.64Z"/><path class="cls-7" d="M77,89.86s.19-.39.1-.45,0,0,0,0c0,.12.06.1.08-.07.13.11-.11.1.07.19a10.85,10.85,0,0,0,2.06-2.11c.07.06.07.06,0,0a13.65,13.65,0,0,0,3.29-2.75,1,1,0,0,0,0,.16c.13-.23.48-.28.31-.55,0,0,2.25-1.31,2.23-1.68,0,.41.36-.24.4-.3s.36.06.29-.1c0,0,0,0,0,0s-.39-.14-.42.2a.92.92,0,0,0-.81.58c0-.1,0-.11-.06-.06-.12-.15-.12,0-.25.12-.56.35-.67.25-.89.71-.15.07-.07-.12-.1-.14-.19.15-.15.16-.42.18,0,.14,0,0,0,.18,0,0-.47.14-.5.24.12.09,0,0,.17.09-.25-.12-1.21.94-1.34,1.14-.2-.08-.26.11-.38.29-.1-.36-.49.37-.5.35s-.2-.07-.27-.07-2.43,2.61-2.56,2.6c0,0-.06-.18-.06-.18s-.18.29-.11.31.08-.1,0-.07a.1.1,0,0,0,0,.15c-.16-.07-1.35,1.17-1.54,1.33s.25.35.32.35c.06-.17,0,0,0,0s.59-.39.51-.66C76.92,89.91,76.78,89.88,77,89.86Z"/><path class="cls-7" d="M73.74,89.08s-.37-.2-.44-.12.06,0,0,0c.13,0,.11-.06,0-.09.11-.12.08.11.19,0a8.91,8.91,0,0,0-2-2.06c.06-.07.06-.07,0,0A8.09,8.09,0,0,0,68.15,84l.16,0c-.26-.05-.43-.36-.62-.1,0,0-2.1-1.45-2.44-1.21.34-.23-.39-.16-.46-.15s-.15-.33-.24-.18,0,0,0,0,.1.38.39.21a.92.92,0,0,0,.9.37c-.07.07-.08.09,0,.08-.07.18.08.09.22.17.53.33.52.46,1,.47.11.1-.09.1-.09.14.21.12.19.06.31.31.14,0,0,0,.15-.1,0,.28,0,.08.27.12,0,0,0,.26.12.25s0-.05,0-.18c0,.24,1.19.86,1.41,1,0,.21.15.23.35.31-.32.15.41.41.41.42s-.05.2,0,.27a20.23,20.23,0,0,1,1.92,1.62c.1.17.68.62.66.74l-.17.06c.1,0,.27.18.29.11s-.15,0,.09-.06c-.07.13,1,1.4,1.16,1.59s.38-.22.38-.28c-.16-.07,0,0,0,0s-.33-.61-.6-.55C73.79,89.17,73.74,89.3,73.74,89.08Z"/><path class="cls-8" d="M24.42,82.47a5.28,5.28,0,0,1,1.1,3c0,1.27-.16,1.43-.79,1.1s-.54-1.61-1.24-1.5-1.22,1.36-1.88,2.11a1.82,1.82,0,0,1-2.2.61c-.54-.37-.52-1,.12-2.08s1.82-3.42,2.55-3.73Z"/><path class="cls-9" d="M59.09,98.89s1.84,2.5,3.45,3.22,2.37.54,2.18,1.2-1.64.45-2.59.45-3.86-.64-4.21-.64l-.22.51a7,7,0,0,1-2.4-.19,10.54,10.54,0,0,1,.58-4Z"/><path class="cls-9" d="M17.62,98.14s-2.5,1.83-3.23,3.44-.54,2.37-1.2,2.18-.44-1.64-.44-2.59.63-3.86.63-4.2l-.51-.23a7.32,7.32,0,0,1,.19-2.4,13.25,13.25,0,0,1,4.56.59Z"/><path class="cls-4" d="M36.41,81.58c-2,2.29-5.82,11.73-6.48,14.76a40.15,40.15,0,0,0-12.14-1.89s-1.47,1.39-.32,4.68c0,0,5.41,2.3,10,3.77s8.27,2.3,12.5-5.25a57.74,57.74,0,0,0,5.74-15.44Z"/><path class="cls-4" d="M39.16,92.34c5,1.9,10.77-.46,16.47-3,0,0-1.31,7.49-.59,11.57,0,0,1.93.92,5-1.14,0,0,4.2-12.5,4-18.38S55.58,78.06,49,80.82l-5.47,1.39Z"/><path class="cls-10" d="M43,59A3.69,3.69,0,0,0,41,60.31a5,5,0,0,0-.55,1.5s-7.37,1.72-12,6.26-6.58,14-6.58,14a6.14,6.14,0,0,0,3.46.68s3.53-6.71,9.43-7.93,15.74-.21,19.95-1.5,9-3.9,9.42-17.29a13.1,13.1,0,0,1-3-1,11.22,11.22,0,0,1-4.73,6.06,9.93,9.93,0,0,1-7.73,1s-.74-.85-1.82-1.9S43,59,43,59Z"/><path class="cls-11" d="M58.22,58.59c.08-.09-.66,1.31-.81,1.21.23.1.23.2,0,.28.3-.21-.43.24-.39.23a.16.16,0,0,0,0-.24l.22-.09a1,1,0,0,1-.17-.18c-.62.35-.84,1-1.22,1a.8.8,0,0,1-.34.34l.12-.16c-1-.11-2.69,1.25-3.78,1a1.05,1.05,0,0,1-.48.16,8.87,8.87,0,0,1-2.58-.41,2.22,2.22,0,0,0-.84-1c.17-.11-.8-1.09-1.44-1.41.13.12-.14.16-.2.17a4.31,4.31,0,0,0-2.5-.93c-.32,0-1.14-.18-1.28.26-.41.25-1.29.34-1.69.8s-.47,1.22-1,1.75-3.16,1-3.86,1.31a21.26,21.26,0,0,0-5.85,3.46c.09-.15.18-.3.26-.46,0,0-.87,1.24-.77.67,0,0-.94.9-.86.74,0,0-.13.43,0,.56-.09-.29-.32.22-.4-.17-.26.46-1.55,1.69-1.59,2l-.19.3a6.65,6.65,0,0,1-1.15,2l-.09-.22c-.68,1.43-1.36,2.74-1.88,4.1,0,.3.17.41.11.59-.07-.12-.14-.13-.24,0,.15,0,0,.62,0,.66a.23.23,0,0,1-.1-.17.69.69,0,0,1-.05.47c-.06-.45-.2,0-.34.21,0-.09.09.66.09.67-.21-.61-.49.47-.56.42,0,.22,0,1.16,0,1.66-.09,0-.13,0-.13-.12a1.35,1.35,0,0,0-.3,1c.16,0-.54,0-.06.33.09-.73.87-.9.59-2l.38-.08c-.05-.18-.07-.9.2-1.12.14.11.67-1.51.73-1.89.38.17.06-.29.44-.74a.24.24,0,0,1-.34-.21c.21,0,.18,0,.24.13a1.65,1.65,0,0,0,.51-1.17,8.22,8.22,0,0,1,1-1.91.11.11,0,0,1,0,.16c.12-.15.41-.42.44-.56.05.29.19-.85.66-.95h-.24c.15-.18.82-1,.69-1.07.08,0,0,.34,0,.23s1-1.28,1-1a.76.76,0,0,1,.43-.34c.11.44-.15-.77.22-.52a.27.27,0,0,0,0,.26c.09-.14.13-.17.13-.07s.46-.53.38-.37a1.58,1.58,0,0,1,.13-.6s.85-.12,1-.38c-.12,0-.13-.09,0-.2l-.26.3c-.16-.28.59-.36-.12,0a10,10,0,0,1,2.26-1.74.26.26,0,0,1,0,.28c.73-.45,1.55-1.51,2.42-1.63.64.2.91-.28,1.65-.74a.13.13,0,0,0,0,.19c.27-.16.18-.34.22-.06.16.11,1.63-.79,1.8-.88-.39.86-.22.25-.14.27.31-.59,1.07-.17,1.58-.37a2.29,2.29,0,0,0,1.06-.67c.19-.2.26-.47.56-.73,0-.25,0-.29-.2-.12,0-.12.46-.51.35-.29,1.06-3.77,6.79,1.71,7.95,2.34a14.05,14.05,0,0,0,2.83,0,3.72,3.72,0,0,1,2.27-.61,1.67,1.67,0,0,1-.44.11.2.2,0,0,1,.12.27c.22-.17,1.2-.51,1.23-.67s-.45.13-.42.11c.25-.4,1.61-.66,1.64-.84,1-1.26,2.61-2.47,3.5-3.94.25-.42,1-1.31,1-1.69,0-.79-.51-.75-.68-.51s-.12.41-.08.56a.15.15,0,0,0-.21,0,.29.29,0,0,1,.2.16c-.07,0-.24.21-.24,0,.11,1-1.25,1.43-1.16,2.37a.38.38,0,0,1-.26-.26C59.25,58.36,58.07,58.62,58.22,58.59Z"/><path class="cls-9" d="M42.52,59a2.69,2.69,0,0,1-1.84-.41C40,58,40.2,57.43,38.74,56s-1.68-2.82-.21-3.9c0,0-.67-2.79.93-3.72s3.78-.38,5-1.76,1-2,2.07-1.81.69,2,.69,2a4.54,4.54,0,0,0,1.1-1.93c.34-1.2,2.09.61,2.17,2.15a5.31,5.31,0,0,1-3.33,4.71C44.91,52.73,42.52,59,42.52,59Z"/><path class="cls-8" d="M46.74,50.8C48.9,51.91,51,55,51.07,55.57s-1.37,1-1.37,1,.09,2.76-.56,3.47-3.88.15-5.17-.8-3.55-4.12-3.1-6.55S45.29,50.06,46.74,50.8Z"/><path class="cls-8" d="M42.86,57a.79.79,0,0,1-.77.93c-.89,0-2.3-1-2.28-1.87a1.21,1.21,0,0,1,1.82-.91Z"/><path class="cls-9" d="M43,52.68s1.34,2.9.27,3.54-2.15-1.28-2.15-1.28Z"/><path class="cls-9" d="M42.87,53.17a18.49,18.49,0,0,0,4.87-1.72l-.66-2.06-4.93.28-2,2.38.11,2.64.86.25Z"/><path class="cls-8" d="M46.91,59.71s-.38,1.82-.46,2.56a6.59,6.59,0,0,1-1.3,2.18,2.41,2.41,0,0,1-1.21-1,20,20,0,0,1-1.56-3.18l.18-2.6Z"/><path class="cls-8" d="M61.43,55.57a2.43,2.43,0,0,1-.07-2.08c.54-.88,1.21-.81,1.83-1.66s.73-1.26,1.07-1.14.63,1,.18,1.71-1.37.93.06,1.18a3,3,0,0,0,3.06-.87c1-.89,1.2-.74,1.37.34s-1.83,2.77-3.08,2.84S63.6,56,63.6,56Z"/><path class="cls-10" d="M52.72,66A43.26,43.26,0,0,1,51,77.09c-1.63,5-2.56,5.87-3.62,6.09s-10.77.22-11.74-.7S33.4,67.65,33.53,66.32Z"/><path class="cls-9" d="M46.57,65.07c-.06.44-.51,2.22-.81,2.26s-2.15.26-2.52-.18a6,6,0,0,1-.33-2.59C43,64.32,46.68,64.27,46.57,65.07Z"/><path class="cls-9" d="M45.69,66.81a27.61,27.61,0,0,1-1.14,8.78c-1.41,4.7-2.42,6.11-2.38,6s-3.92.63-3.92.63l-.94-3.45s5.11-6.87,6.36-12Z"/><path class="cls-7" d="M45.8,64.52c-.06,0,.14-.18.1-.3,0,0,0,0,0,0s0,.12.05,0c0,.14-.06,0,0,.18a10.93,10.93,0,0,0,1.19.49c-.06.08,0,.08,0,0,.9,1.74,2.19-.67,1.65-.78.4.12.09-.42,0-.38.19.17,0-.8,0-.89.18.1,0-.1,0-.08s0,0,.13-.11-.18-.05-.16-.05c.24,0,.08-.1.18-.11a2.15,2.15,0,0,0-.27-.14c.09-.08.06-.12.14-.12-.08,0,0-.1-.12-.06s0,0,0,0-.24.23,0,.27c-.09.09-.09.32-.14.46s.1.14.23.07c-.09,0-.11,0-.08,0-.18,0-.05,0,0,.15-.07.41-.2.33,0,.6,0,.09-.13,0-.17,0s0,0,0,0,.11.08.12.13-.17,0-.22,0c.1.09,0,0,.16.07a.4.4,0,0,1-.15,0s.13.1.16.15-.22,0-.09.13c0-.08,0,0,.09,0-.1,0-.29.63-.24.87-.1-.07-.1-.06,0,0l-.15-.07s0,.18,0,.16c-.18,0,0-.09-.06.05a.77.77,0,0,0,0-.15s.08.14,0,.16c0-.17-.11-.29-.2-.11-.06,0,0-.22,0-.24s-1.09-.62-1.19-.67a5.45,5.45,0,0,0-.53-.31s.09-.14.1-.15-.25,0-.23.11,0-.1,0,.11c0-.22-1,.16-1.13.21s.22.39.24.4,0-.05,0,0,0,0,0,0,0,0,0-.11a.18.18,0,0,0,.29-.17C45.79,64.56,45.6,64.39,45.8,64.52Z"/><path class="cls-7" d="M40,62.49c0-.05.12.28.24.27,0,0,0,0,0,0s-.11,0,0,.07c-.15,0,0-.09-.18-.07a7.13,7.13,0,0,0,.05,2.14.1.1,0,0,1,.11-.07c0,1,2.63-1.09,2.63-1-.07.39.46.06.44,0s.89.21,1,.26.08.3.26.12c-.18.17,0,.12,0,.21s.2-.08.31-.1,0,.13,0,.19c.1,0,.07.07.14,0s0,0,0,0,0-.37-.24-.18c-.07-.25-.28-.37-.59-.24.06-.07.07-.1,0-.08,0-.15,0-.12-.15-.11-.4-.22-.43-.31-.73-.14-.11-.06,0-.13,0-.16s0,0,0,0a.55.55,0,0,1-.17.11c0-.09,0-.18-.07-.22s0,0-.07.16c-.12-.24,0-.06-.21,0,0,0-.13-.21-.18-.15s0,0,.07.17c-.14-.32-1,.33-1.07.45-.1-.07-.07-.1-.14-.1s-.13.49-.14.11c0,0-.43.26-.33.37s-.2-.09-.23-.1c.14.13,0,.06,0,.06s0,.19-.14.3c.18-.5.11-.17,0-.17.13-.16.09-.08,0-.1.26-.14-.24-1.06-.07-1.15l.17.06c-.1-.07,0-.23-.14-.2s.1,0-.11,0a6.41,6.41,0,0,0,.22-1.28c0-.09-.45-.07-.47-.06s.1,0,0,0,.08.12.08.11-.19.37,0,.44C40,62.45,40.24,62.36,40,62.49Z"/><path class="cls-7" d="M63.77,56.89s-.07.15-.1.11,0,.09,0-.09c.09.07-1.54-.26-1.57-.17.08-.17-.43-.07-.49-.16s0-.13-.16,0,0-.06,0-.09,0,0,0,0-.1.09,0,0a0,0,0,0,1,0,0c0,.12.3.2.3.2s.11.13.23.06,0,.08.05.16,0,0,.1-.08,0,.11,0,.1,0,0,0-.09c0,.12.53.08.58.29,0,0,.79,0,.75.1,0-.1,0,0,.07,0s0,0,0-.11c0,.06.39.06.44.06s0-.23-.05-.24,0,.05,0,0,0,0,0,0,0,0,0,.06S63.73,56.89,63.77,56.89Z"/><path class="cls-4" d="M60.54,100.52s.07.06.18.08h0c-.08,0-.08,0,0,0s0,0-.13,0c.11,0,0,.06.08.07s0,0,0,0,0,0-.1,0,0,.07.08.08,0,0-.11,0,.06.05.06,0l-.1,0q0,.08.09.06c-.07,0-.07,0,0,0s-.08,0-.1,0,0,0,0,0,.07.1.08.1c-.14-.06,0,0,0,0s-.3.22-.19.29c-.06,0-.16.06,0,.19a.44.44,0,0,0-.13-.08h0s.1.13,0,0c0,0,0,.09.1.1s0,0,0,0,0,.07-.11,0c0,.16,0,0-.06.12l.08.08c-.11-.14,0,0,0,0s0,0,0,0-.05-.06,0,0,0-.05-.08-.05.07.08.07.09l-.1-.1s0,0,0,0a1,1,0,0,1,.09.16c-.09-.07,0,0-.1-.09s0,.07,0,0,.11.15,0,0c.06.08,0,0,.14.09s-.45-.58-.06-.09c.13.06.1.08,0,0s.07,0,0,0,.12,0,.09,0,0,.07,0,.05,0,0,0,0a.14.14,0,0,0-.12-.13c0,.06.07.07,0,0s.12.1.06,0,.07-.06.14,0,0,0,0,0-.08-.06,0,0a.27.27,0,0,0-.1-.11s.07.06.1.07h0s-.06,0-.07-.08l.15.08c-.09-.1.07.07-.1-.09l.09.06c-.05,0-.05-.06,0,0s-.09-.07-.09-.09a.34.34,0,0,0,.12,0c-.06-.05-.07-.06,0,0s0,0-.08,0c.14.08,0,0,.11,0s0-.09-.06-.09c.14.11,0,0,0,0s.12,0,0-.06.07,0,.1,0-.09-.11-.07-.09.07,0,0,0c.07,0,.09,0,.09,0h0s-.07-.07-.07-.07.08,0,0,0c.22.13,0,0,0,0s.23,0,.07,0l.17.06c-.1-.05-.06,0,0,0s0,0-.07-.16c.21.09.06-.13.07-.11a.2.2,0,0,0,.13,0c-.14.15-.11-.18,0-.06,0,0-.09-.08-.1-.08s.06,0,0,0,.08,0,0,0,0,0,.14,0c-.23-.11-.07,0-.05,0s.12,0,0,0c0,0,0,0-.07,0,.4.07-.1-.08.1,0-.14-.07.06-.22.06-.23a1.82,1.82,0,0,0-.35,0s.06,0,0,0,0,0,0,0,0,0,.08,0c-.15,0,.05.06-.13,0,.26.06-.22,0,.13.06C60.44,100.5,60.76,100.51,60.54,100.52Z"/><path class="cls-4" d="M61.39,101.14s.06.06.17.09,0,0,0,0-.08,0,0,0c-.1,0,0,0-.13,0,.15,0,0,0,.08.06-.06.07,0,0,0,0s-.08,0,0,0a.08.08,0,0,0-.09,0s.06,0,0,0,0,0,.07.06c-.06.06,0,0-.1,0s.06,0,.06,0-.09,0,0,0c-.14-.08.06.06-.07,0,.1,0,0,0,0,0s0,.06.08,0-.06,0,0,0-.08,0-.1,0h0s.08.08.09.08c-.15,0,0,0,0,0s-.12.08-.19.09c.1,0,0,.09.07.14-.11,0-.05,0,0,.06s-.08,0,.07.08l-.13,0s.06,0,0,0,.14.1,0,0a.15.15,0,0,0,.12.08c-.06,0,0,0,0,0s0,0-.06,0,.09,0,0,0c.07.13,0,0,0,.1s.1,0,.1.06-.06,0,0,0,0,0,0,0-.07,0,0,0-.07-.05-.09,0l.1.06-.13-.06s0,0,0,0l.14.1c-.1,0,0,0-.12,0s.06,0,0,0l0,0c.09.06.06,0,.16,0s-.78-.5-.09-.06c.16,0,.11,0,0,0,.08,0,.08,0,0,0s.12,0,.07,0,0,0,.06,0,0,0,0,0a.2.2,0,0,0-.15-.09q.09.06.06,0c.09,0,.08.07,0,0a.09.09,0,0,1,.13,0s0,0,0,0-.09,0,0,0a.35.35,0,0,0-.13-.08c.07,0,.08,0,.11,0h0s-.06,0-.09-.06l.16,0c-.12-.07.1.06-.12-.06a.23.23,0,0,1,.1,0c-.06,0-.06,0,0,0l-.12-.07s.11,0,.13,0-.09,0,0,0-.08,0-.09,0c.16.06,0,0,.11,0,0,0,0-.07-.09-.06.17.07,0,0,0,0s.11,0,0,0,.07,0,.1,0l-.09-.07c.08,0,.08,0,0,0s.1,0,.12,0l-.09-.06c.08,0,.08,0,0,0,.24.11,0,0,0,0s.21,0,.06,0l.17,0c-.09,0-.08,0,0,0-.11-.07,0,0-.09-.12l.12,0s-.07-.1-.07-.1a.17.17,0,0,0,.12,0c-.14.11-.12-.14,0-.05l-.1-.07s0,0,0,0h0c.07,0,.07,0,0,0s0,0,0,0l.12,0c-.22-.1-.07,0-.06,0s.14,0,0,0c0,0-.08,0-.08,0,.41.1-.1-.07.1,0-.14-.07.06-.14.07-.15a1.6,1.6,0,0,0-.35-.1c.05,0,.06,0,0,0s.06,0,0,0c.11.12-.09,0,.08,0-.09,0,0,0,0,0l-.1,0c.26.09-.22-.06.13.07C61.29,101.11,61.61,101.17,61.39,101.14Z"/><path class="cls-4" d="M62.1,102s0,0,.13.06,0,0,0,0,0,0,0,0l-.09,0c.11,0,0,0,.06,0s0,0,0,0-.05,0,0,0a.06.06,0,0,0-.07,0s0,0,0,0,0,0,0,0,0,0-.07,0,0,0,0,0-.07,0,0,0c-.11-.06,0,0-.05,0,.07,0,0,0,0,0s0,0,.06,0-.05,0,0,0-.05,0-.07,0,0,0,0,0,.06,0,.07,0,0,0,0,0,0,.05-.11,0,.09,0,0,0c.07,0,0,.06,0,.09s0,0,0,0-.05,0,0,.06l-.09,0s0,0,0,0,.09.07,0,0a.12.12,0,0,0,.08.06s0,0,0,0,0,0,0,0,.06,0,0,0,0,0,0,.07l.07,0c-.1-.08,0,0,0,0h0s0,0,0,0a.11.11,0,0,0-.06,0l.07,0-.09,0s0,0,0,0l.09.08-.08,0s0,0,0,0,.1.09,0,0,0,0,.11,0-.51-.41-.06,0c.11,0,.07,0,0,0s0,0,0,0,.08,0,0,0,0,0,.05,0h0s-.05-.06-.1-.07l0,0c.06,0,.06,0,0,0s0,0,.09,0,0,0,0,0-.06,0,0,0l-.08-.06s0,0,.07,0h0s0,0,0,0,.07,0,.1,0,.07.05-.07,0l.07,0c-.05,0-.05,0,0,0l-.08,0,.08,0s-.05,0,0,0-.05,0-.06,0,0,0,.08,0,0,0-.06,0c.12.06,0,0,0,0s.08,0,0,0,0,0,.07,0l-.06,0c.06,0,.05,0,0,0s.06,0,.06,0,0,0,0,0l-.06,0c.06,0,.06,0,0,0,.17.08,0,0,0,0s.16,0,0,0l.12,0c-.06,0,0,0,0,0s0,0-.06-.09l.08,0s0-.07,0-.07a.12.12,0,0,0,.08,0c-.09.09-.09-.1,0,0s-.06,0-.07,0h0s0,0,0,0,0,0,0,0,0,0,0,0l.09,0c-.16-.07,0,0,0,0s.1,0,0,0H62.3c.29.05-.07,0,.07,0-.1,0,0-.1,0-.11a1.38,1.38,0,0,0-.25,0h0c.08.08-.07,0,.06,0-.07,0,0,0,0,0h-.07c.18,0-.16,0,.09,0Z"/><path class="cls-4" d="M16.21,99.28s-.06.07-.08.18,0,0,0,0,0-.08,0,0c0-.09,0,0,0-.13,0,.11-.06,0-.07.08s0,0,0,0,0,0,0-.1-.07,0-.08.08,0,0,0-.11-.05.06,0,.07,0,0,0-.11-.07,0-.06.09,0-.07,0,0a.42.42,0,0,1,0-.1s0,0,0,0-.1.07-.1.08c.06-.14,0,0,0,0s-.21-.3-.29-.19c0-.06-.05-.16-.19,0a.91.91,0,0,0,.08-.12s0,0,0,0-.13.1,0,0c0,0-.08,0-.1.1s0,0,0,0-.07,0,0-.11c-.16,0-.05,0-.12-.06l-.08.08c.14-.11,0-.05,0,0s0,0,0,0,.06,0,0,0,.05,0,.05-.08-.08.07-.08.07l.09-.1s0,0,0,0a1,1,0,0,1-.16.09c.07-.09,0,0,.09-.1s-.07,0,0,0-.15.11,0,0c-.08.06,0,0-.09.14s.58-.45.09-.06c-.06.13-.08.1,0,0s0,.07,0,0,0,.12,0,.09-.07,0-.05,0,0,0,0,0a.14.14,0,0,0,.13-.12c-.06,0-.07.07,0,0s-.1.12,0,.06.06.07,0,.14,0,0,0,0,.06-.08,0,0a.27.27,0,0,0,.11-.1c0,.05-.06.07-.07.1s0,0,0,0,0-.06.08-.07-.06.1-.08.15-.07.07.09-.1a.7.7,0,0,1-.06.09c.05,0,.06,0,0,0s.07-.09.09-.09,0,.11,0,.12.06-.07,0,0,0-.05.05-.08c-.08.14.05,0,0,.12s.09,0,.09-.07c-.11.14,0,0,0,0s0,.12.06,0-.05.07,0,.1.11-.09.09-.07-.05.07,0,0,0,.08-.05.08a0,0,0,0,1,0,0s.07-.07.07-.07,0,.08,0,0c-.14.22,0,0,0,0s0,.22.05.06a1.77,1.77,0,0,1-.06.17c.05-.1,0-.06,0,0s0,0,.16-.07c-.09.21.13.06.11.07a.2.2,0,0,0,0,.13c-.15-.14.18-.11.06,0,0,0,.08-.09.08-.1s0,.06,0,0,0,.08,0,0,0,0,0,.14c.11-.22,0-.07,0,0s0,.12,0-.05c0,0,0,0,0-.07-.07.4.08-.1,0,.1.07-.14.22.06.23.06a1.82,1.82,0,0,0,.05-.35s0,.06,0,0,0,0,0,0,0,0,0,.08c0-.15-.06,0,0-.13-.06.26,0-.22-.06.13C16.23,99.18,16.22,99.5,16.21,99.28Z"/><path class="cls-4" d="M15.59,100.13s-.06.06-.09.17,0,0,0,0,0-.08,0,0c0-.1,0,0,0-.13,0,.15,0-.05-.06.08-.07-.06,0,0,0,0s0-.07,0,0a.08.08,0,0,0,0-.09s0,.06,0,0,0,0-.06.07c-.06-.06,0,0,0-.1s0,.06,0,.06,0-.09,0,0c.08-.14-.06.06,0-.07,0,.1,0,0,0,0s-.06,0-.05.08,0-.06,0,0,0-.08,0-.1,0,0,0,0-.08.08-.08.09c.05-.15,0,0,0,0s-.08-.12-.09-.19c0,.1-.09,0-.14.07.05-.11,0,0-.06,0s0-.08-.08.07c0-.11,0-.1,0-.13s0,.06,0,0-.1.14,0,0a.18.18,0,0,0-.08.12c0-.06,0,0,0,0s0,0,0-.06-.05.09,0,0c-.13.07,0,0-.1,0s-.05.1-.06.1,0-.06,0,0h0c0-.06,0-.07,0,0s.05-.06,0-.09a.88.88,0,0,0-.06.1l.06-.13s0,0,0,0,0,.05-.1.14c0-.1,0,0,.05-.12s-.05.06,0,0-.1.15,0,0c-.06.08,0,0,0,.15s.5-.78.06-.09c0,.16,0,.11,0,0s0,.08,0,0,0,.12,0,.07-.05,0,0,.06,0,0,0,0a.2.2,0,0,0,.09-.15q-.06.09,0,.06c0,.09-.07.08,0,0a.09.09,0,0,1,0,.13s0,0,0,0,0-.09,0,0a.35.35,0,0,0,.08-.13c0,.07,0,.08-.05.11s0,0,0,0,0,0,.06-.09,0,.1-.05.16c.07-.12-.06.1.06-.12a.23.23,0,0,1,0,.1c0-.06,0-.06,0,0l.07-.12s0,.11,0,.13,0-.09,0,0,0-.08,0-.09c-.06.16,0,0,0,.11,0,0,.07,0,.07-.08-.08.16,0,0,0,0s0,.11,0,0,0,.07,0,.1l.07-.09c0,.08,0,.08,0,0a.77.77,0,0,0,0,.12s.05-.08.06-.09,0,.08,0,0c-.11.24,0,0,0,0s0,.21,0,.06a.85.85,0,0,0,0,.17c0-.09,0-.08,0,0,.07-.11,0,0,.13-.09l0,.12s.1-.07.1-.07a.17.17,0,0,0,0,.12c-.11-.14.14-.12,0,0s.06-.09.07-.1,0,0,0,0,0,0,0,0,0,.07,0,0,0,0,0,0,0-.08,0,.12c.1-.22,0-.07,0-.06s0,.14,0,0c0,0,0-.08,0-.08-.09.41.07-.1,0,.1.07-.14.14.06.15.07a1.6,1.6,0,0,0,.1-.35s0,.06,0,0,0,.06,0,0c-.12.11.05-.09,0,.08,0-.09,0,0,0,0s0-.06,0-.1c-.09.26.06-.22-.07.13C15.62,100,15.56,100.35,15.59,100.13Z"/><path class="cls-4" d="M14.78,100.84s0,0-.06.13,0,0,0,0,0,0,0,0a.94.94,0,0,0,0-.09c0,.11,0,0,0,.06s0,0,0,0,0,0,0,0a.06.06,0,0,0,0-.07s0,0,0,0,0,0,0,.05,0,0,0-.07,0,0,0,0,0-.07,0,0c.06-.11,0,0,0-.05,0,.07,0,0,0,0s0,0,0,.06,0-.05,0,0,0-.05,0-.07,0,0,0,0-.06.06-.06.07,0,0,0,0-.05,0,0-.11,0,.09,0,0c0,.07-.06,0-.09,0s0,0-.05,0,0-.05-.06,0c0-.08,0-.07,0-.09s0,0,0,0-.07.09,0,0a.12.12,0,0,0-.06.08s0,0,0,0,0,0,0,0,0,.06,0,0,0,0-.07,0a.43.43,0,0,1,0,.07c.08-.1,0,0,0,0h0s0,0,0,0a.11.11,0,0,0,0-.06l0,.07a.41.41,0,0,0,0-.09s0,0,0,0l-.08.09c0-.07,0,0,0-.08s0,0,0,0-.09.1,0,0,0,0-.05.11.41-.51.05-.06c0,.11,0,.07,0,0s0,.05,0,0,0,.08,0,0,0,0,0,0h0s.06,0,.07-.1,0,.06,0,0-.05.06,0,0,0,0,0,.09,0,0,0,0,0-.06,0,0a.16.16,0,0,0,.06-.08s0,0,0,.07,0,0,0,0,0,0,.05-.05,0,.07,0,.1-.05.07,0-.07l0,.07s0,0,0,0a.35.35,0,0,1,0-.08s0,.07,0,.08,0,0,0,0,0,0,0-.06,0,0,0,.08,0,0,0-.06c-.06.12,0,0,0,0s0,.08,0,0,0,0,0,.07l.05-.06c0,.06,0,0,0,0s0,.06,0,.06,0,0,0,0,0,0,0-.06,0,.06,0,0c-.08.17,0,0,0,0s0,.16,0,0a.53.53,0,0,0,0,.12c0-.06,0,0,0,0s0,0,.09-.06,0,.06,0,.08.07,0,.07,0a.12.12,0,0,0,0,.08c-.09-.09.1-.09,0,0s0-.06,0-.07,0,0,0,0,0,0,0,0,0,0,0,0,0,0,0,0,0,0,0,.09c.06-.16,0,0,0,0s0,.1,0,0c0,0,0-.06,0-.06-.05.29.05-.07,0,.07,0-.1.1,0,.11,0a1.38,1.38,0,0,0,.05-.25s0,0,0,0,0,0,0,0,0-.07,0,.06c0-.07,0,0,0,0a.17.17,0,0,1,0-.07c-.05.18,0-.16,0,.09A.49.49,0,0,0,14.78,100.84Z"/><path class="cls-7" d="M33.72,67.78s0,.26.08.25,0,.07,0,.07c-.18,0-.15,1.68-.09,1.82s-.09,0,0,0c-.1.3-.19,3,.28,3a9.41,9.41,0,0,0,.26,2.21s0,.08,0,0,0,0,0,0c.11-.19-.08-.81-.13-.9.14,0,.07-.06.06-.19,0-.42.09-.47-.09-.71,0,0,.15-.19.21-.3s0,0-.14,0c.19-.14.05,0,0-.19.1,0,.16-.12,0-.17s0,0-.07.07c.2-.09,0-1-.12-1.1.13-.06.12,0,.16-.07s-.34-.34,0-.16c0,0,0-.47-.1-.46s.2-.09.23-.11A6.62,6.62,0,0,1,34,68.61s-.07-.2-.1-.18,0-.9-.08-1.34h0s0,.13,0,0A4.75,4.75,0,0,0,33.72,67.78Z"/><path class="cls-7" d="M52.4,67.33s.05.38.09.36,0,0,0,.1,0-.15-.08-.08a10.93,10.93,0,0,0-.11,2.75c-.09,0-.08,0,0,0-.16.47-.9,4.28-.59,4.39,0,0-.8,2.57-.94,3.19,0,0,0-.09,0,0a2.77,2.77,0,0,0,.42-1.26c.13,0,.11-.06.14-.24a1.42,1.42,0,0,0,.28-1c.07-.13.1,0,.12,0,.09-.18.05-.22.21-.38,0-.12,0,0-.11-.1s.26-.39.23-.48,0,0-.17,0c.27-.07.32-1.41.29-1.62.2-.06.12-.23.09-.44.29.19.13-.55.13-.55s.19-.08.25-.12,0-3.4.09-3.34-.09-.29-.1-.27a13.31,13.31,0,0,0-.17-2h0s0,.18,0,.07C52.42,66.74,52.41,67.14,52.4,67.33Z"/><path class="cls-7" d="M22,81.2c.1,0,2.17.54,2.2.31,0,.13.67-.05.94-.06h0s0,0,0,0,0,0,0,0-.46,0-.47,0a8.11,8.11,0,0,0-2.3-.34,4.13,4.13,0,0,0-.7,0h0s.06,0,0,0C21.83,81.17,21.94,81.18,22,81.2Z"/><path class="cls-7" d="M25.79,76s.39,0,.4-.08,0,0,0,0-.06.08.09,0c0,.13-.13-.06-.12.1a9.27,9.27,0,0,0,2.68.94c2.57,1.2,0-3.41-.26-3.32,0,0-1.48-3-1.76-2.94,0,0,0,0,0,0a4.42,4.42,0,0,0,.73,1.17c-.17.14-.05.13.06.29a1.68,1.68,0,0,0,.57.92c.05.14-.1,0-.11.06.06.2.15.39.27.42s.1.45.22.49c0-.11-.07,0,0-.11-.13.21.75,1.76.87,1.94-.1,0,.11.82.19.87s-.07,0-.05,0c0-.11-2.52-.57-2.63-.81,0,0,.13-.09.12-.08s-.31-.06-.3,0,.12-.07,0,.07c0-.48-1.83-.33-2-.5,0,0,.05.27,0,.26s0,0,0,0S25.74,75.94,25.79,76Z"/><path class="cls-7" d="M31,75.31s-.19-.2-.26-.16h0c.09,0,.08,0,0-.07.18-.09,0,.15.15,0A7,7,0,0,0,30,73.37c0-.06,0-.46-.23-.45.1,0,0-.12,0-.12s.14.08,0,0c.12.09.15.12.1,0a7.32,7.32,0,0,0,1.54.35c-.18.23,1.2.4,1,.9,0,0-.25.11-.1.27-.1-.12-.21.47-.22.46s0,0,0,0,.57-.56.34-.84c.2,0,.14-.1,0-.21-.31-.31-.3-.4-.62-.4-.06-.06,0-.36-.25-.24,0,0-.25-.22-.32-.18s0,0,0,.09c0-.26-1.25-.45-1.39-.42,0,0-.14-.2-.64-.22a.69.69,0,0,1,.13.11c-.12,0-.25-.21-.35-.15.54.31,1.19,2.43,1.2,2.43s.13.17.17.13-.1,0,.08,0a6,6,0,0,0,.36,1.24c.06.06.32-.07.34-.1s-.05,0,0,0,0-.46-.25-.47C31,75.4,31,75.44,31,75.31Z"/><path class="cls-7" d="M57,60.86s-.11.37,0,.4,0,0,0,0-.07-.07-.06.07c-.12,0,.08-.1-.07-.13a6,6,0,0,0-1,2.45,7.09,7.09,0,0,0-.7,2.39s-.06-.09-.09.11c0-.1,0-.71-.31-.67s.1-3.08.19-3,0,0,0,0-.53.78-.38,1.16c-.2,0-.13.06-.11.25-.09.51-.1.68.1,1,0,.11-.21.35,0,.46,0,0,0,.44.1.49s0,0,0-.1c-.3.31.67,1.53.69.2.16,0,.12-.2.12-.39,0,0,1.27-3.51,1.31-3.46s.06-.28,0-.28.06.12-.07,0c.17,0,.91-1.52,1.1-1.37,0,0-.22-.22-.15-.21-.07.17,0,0,0,0S56.92,60.88,57,60.86Z"/><path class="cls-12" d="M56.4,88.8s.07-.29,0-.36,0,0,0,0,.07.09,0,0c.12.09,0,.07.1.16A6,6,0,0,0,57.66,87c.08.05.08.05,0,0,.28-.18,2.06-2.34,1.68-2.62.31.27.27-.41.23-.39.06.19.45-.82.51-.93s.32,0,.15-.26c.16.2.13,0,.22,0s-.06-.2-.08-.31.14,0,.19,0,.07-.07,0-.14,0,0,0,0-.36,0-.2.24c-.26,0-.38.24-.31.56-.06-.07-.09-.08-.08,0s-.11,0-.14.12c-.3.34-.38.32-.34.66-.09.08-.1-.08-.13-.09s0,0-.06,0a.62.62,0,0,1,0,.2,1.59,1.59,0,0,0-.23,0c0,.13,0,0,.11.13-.27,0-.07,0-.07.19-.1,0-.22,0-.15.11,0-.06,0,0,.11,0-.21,0-.56.82-.59,1-.13,0-.09-.07-.17,0s.06.49-.08.14c0,0-.33.35-.21.43s-.21,0-.25,0a18.38,18.38,0,0,1-1.27,2l-.1-.15c.05.12-.09.21,0,.24s-.06-.09.07.08a7.5,7.5,0,0,0-1,.88c0,.1.31.33.34.33s-.07-.06,0,0,0-.14,0-.13.37-.18.28-.34C56.41,88.86,56.15,88.77,56.4,88.8Z"/><path class="cls-12" d="M56.68,83.82s.16-.29.08-.37,0,0,0,0c0,.11.05.1.07,0,.11.12-.08.07.06.18a7.55,7.55,0,0,0,1.69-1.35c.06.07.07.07,0,0,.23-.06.23,0,.35-.24,0,.05,0,.13,0,.18S59,82,59,82c0,.22-.12.18,0,0-.38.48.11-.09-.16.21,0,0,.24-.26,0,0a1.37,1.37,0,0,1,.17-.17,1.33,1.33,0,0,1-.26.27,1.16,1.16,0,0,1,.21-.16c-.13.13-.17.12,0,.09-.06,0,0,0-.1.06.14,0,0,0,.09,0-.15,0-.17.23-.22.41a.5.5,0,0,0,0-.13c0,.25-.27.31,0,.49-.3-.28-.31.45-.27.43s-.59.88-.69,1-.33,0-.21.26c-.11-.24-.14,0-.21-.05s0,.24,0,.35-.31,0-.21.11,0,0,0,0,.37.08.27-.22a.49.49,0,0,0,.45-.57c.05.08.07.09.08,0s0,0,.14,0a.77.77,0,0,1,0-.18c.37-.35.45-.34.45-.71.1-.08.1.09.13.09s0,0,.07,0a.59.59,0,0,1,0-.21c.1,0,.18,0,.24,0s0,0-.11-.14c.05,0,.14,0,.14,0s-.06-.18-.06-.25.25,0,.24-.07,0,0-.18,0c.35.07.6-1.31.64-1.24a1.66,1.66,0,0,0,.33-.3s-.17,0-.16,0c.33-.34-.15,0,.27-.29,0,.05-.05-.16-.19.09.18-.18.3-.37.46-.55-.2.17-.42.24-.59.47.06-.13.22-.27.25-.41-.08.11-.31.4-.2.15-.55.52-1.51,1-2,1.48,0,0-.61.44-.62.44a1.28,1.28,0,0,0-.05-.17c0,.12-.16.21-.08.25s0-.12.05.09c-.09-.07-1.14.69-1.27.78s.23.38.27.38-.06-.07,0,0,0-.06.07,0c.09-.12,0,0,0-.12.13.07.43-.14.38-.32C56.69,83.89,56.42,83.71,56.68,83.82Z"/><path class="cls-12" d="M59.57,88.49s0,.44.16.44,0,0,0,0-.11-.06,0,.1c-.17,0,0-.14-.16-.12s0,1.42-.26,1.53c-.28.76-.4.74-.44,1.39-.09,0-.09,0,0,0a16.4,16.4,0,0,0-1.67,4,.88.88,0,0,0,0-.15c0,.27-.31.46,0,.64,0,0-1.53,2.17-1.38,2.49-.07-.16-.5.64-.49.65s0,0,0,0,.42,0,.31-.36a.93.93,0,0,0,.54-.86c0,.08.08.09.08,0,.17.09.09-.06.18-.21.38-.56.51-.52.53-1,.11-.13.11.08.14.08.13-.21.09-.21.32-.35,0-.15,0,0-.11-.15.28-.07.08,0,.11-.3,0,0,.27-.06.25-.15s-.05,0-.19,0c.29,0,.68-1.4.71-1.65.21,0,.18-.22.2-.44.27.28.26-.57.28-.56s.21,0,.28-.07.84-3.56.95-3.61.15.13.14.13,0-.35-.07-.33,0,.12,0,.09,0-.11-.1-.13c.19,0,.52-1.74.59-2s-.4-.16-.46-.11,0,0,0,0-.28.67-.07.85C59.61,88.4,59.74,88.36,59.57,88.49Z"/><path class="cls-12" d="M30.6,97.48s.3.09.37,0,0,0,0,0-.09.07.05.06c-.1.12-.08-.06-.16.1a7.21,7.21,0,0,0,1.65,1.28c-.06.08,0,.08,0,0,.11.18,1.13,1,1.56.14.28-.57-1-1.53-.82-1.67-.21-.09-.25-.34-.47-.13.34-.26-.41-.38-.38-.32.18,0-.9-.49-1-.54a2.26,2.26,0,0,0-.16-.21c.05,0-.16.12-.14.11.17-.2-.08-.12,0-.22s-.2.11-.31.16c0-.11-.09-.13,0-.19s-.12,0-.14.07,0,0,0,0,.12.34.31.13c.12.24.37.3.68.22-.07.06-.07.09,0,.08-.06.15,0,.11.15.12.37.31.34.38.7.38.07.09-.1.1-.1.13s0,0,0,.06a.58.58,0,0,1,.2,0c0,.1-.06.17-.06.23s-.05,0,.15-.09c-.06.27,0,0,.18.11,0,0-.06.23,0,.23s0,0,.09-.16c-.07.14.61.86.74,1-.1.1-.11,0-.13.13a1.09,1.09,0,0,0,.24.17c-.34,0,0,0,0,0-.2,0-.23.09-.13.21s-.16-.19-.16-.19c.1.23-1.14-.59-1.29-.69l-.54-.48.15-.09c-.11,0-.22-.11-.25,0s.1,0-.08.08c.05-.1-.87-1-1-1s-.32.31-.33.34.06-.08,0,0,.07,0,0,.06c.13.07,0,0,.11,0,0,.14.21.39.37.3C30.53,97.51,30.66,97.21,30.6,97.48Z"/><path class="cls-12" d="M26.72,96.1s.28,0,.32-.12,0,0,0,0-.07.09.05,0c-.06.14-.08,0-.13.14a8.34,8.34,0,0,0,1.67.9c-.05.09-.05.09,0,0,.17.26,2.13,2.18,2.37,2-.35.22.3.38.3.34-.18,0,.6.72.68.83s-.09.31.16.25c-.25.05,0,.13-.11.18s.21,0,.32.08c-.06.09,0,.14-.11.16.09,0,0,.1.14,0s0,0,0,0,.2-.31-.1-.28c.07-.25,0-.46-.37-.53q.14,0,.06-.06c.12-.1,0-.1-.07-.18-.2-.42-.16-.49-.49-.56-.05-.11.11-.07.12-.1s0,0,0-.07a.53.53,0,0,1-.2,0c0-.1.09-.16.1-.21s.05,0-.16.06c.09-.25,0-.06-.16-.12.07-.08.06-.21-.07-.18,0,.07,0,0,0,.11.12-.21-.69-.74-.85-.79.05-.11.09-.08.07-.16s-.5,0-.14-.11c0,0-.32-.37-.41-.25-.08,0,.06-.21.07-.25S27.64,96,27.64,96l.13-.12c-.11.06-.23-.06-.24,0s.08-.07-.06.09c.05-.19-1.07-.59-1.24-.62s-.06.45-.05.47,0-.06,0,0,.05,0,0,0,0,0,.06-.11a.24.24,0,0,0,.39.09C26.68,96.1,26.64,95.9,26.72,96.1Z"/><path class="cls-4" d="M96.87,99.13a11.68,11.68,0,0,1-3.28,3.06c-1.53.7-2.26.52-2.08,1.15s1.57.42,2.47.42,3.67-.6,4-.6l.21.48a6.84,6.84,0,0,0,2.29-.18,10.15,10.15,0,0,0-.55-3.81Z"/><path class="cls-4" d="M122.2,99.13a11.53,11.53,0,0,1-3.28,3.06c-1.53.7-2.25.52-2.07,1.15s1.56.42,2.47.42,3.67-.6,4-.6l.21.48a6.79,6.79,0,0,0,2.28-.18,10.15,10.15,0,0,0-.55-3.81Z"/><path class="cls-9" d="M105,61.13s-3,3.74-5.85,16.24a107.45,107.45,0,0,0-2.76,21.94s.89.61,3.56.34c0,0,7.51-16.81,10.59-21.87S113,61.33,113,61.33Z"/><path class="cls-9" d="M106.62,61.92s1.23,10.54,5.33,18.87,9.37,18.93,9.37,18.93,2.73.82,4.5-.27c0,0-2.66-16.06-4.37-23.44a74.28,74.28,0,0,0-5.24-14.41Z"/><path class="cls-13" d="M108.17,70.52c0,.13.16.19.14.28s.28,1.63.37,1.74c-.09,0-.08,0,0,0,0,.31.54,2.89,1,2.77a8.2,8.2,0,0,0,.76,2s0,.06,0,0,0,0,0,0c.06-.2-.26-.75-.33-.81.13-.07.06-.08,0-.2-.09-.41,0-.46-.25-.65,0,0,.1-.21.13-.33s0,0-.14,0c.15-.17,0,0-.09-.16.09,0,.12-.16,0-.18s0,0-.06.08c.12-.08-.14-.81-.34-1,.11,0,.11,0,0,0,.11-.08.11,0,.14-.1a.74.74,0,0,0-.21-.18c.21,0,0-.41-.06-.37s.18-.14.2-.16a6.43,6.43,0,0,1-.74-2s-.12-.18-.14-.15-.26-.83-.42-1.23h0s0,.12,0,0C108.13,70.14,108.16,70.43,108.17,70.52Z"/><path class="cls-8" d="M127.43,61.6a5.29,5.29,0,0,0-1.1,3c0,1.26.16,1.43.8,1.1s.53-1.62,1.24-1.5,1.22,1.36,1.87,2.11a1.83,1.83,0,0,0,2.2.61c.54-.38.52-1-.11-2.09s-1.83-3.42-2.56-3.72Z"/><path class="cls-4" d="M108.82,38.1a3.69,3.69,0,0,1,2.07,1.34,4.61,4.61,0,0,1,.55,1.49s7.37,1.72,12,6.27,6.58,14,6.58,14a6.14,6.14,0,0,1-3.46.68s-3.53-6.72-9.43-7.94-15.74-.2-19.94-1.49-9-3.9-9.43-17.3a12.79,12.79,0,0,0,3-1,11.31,11.31,0,0,0,4.73,6.06,10,10,0,0,0,7.73,1s.75-.86,1.82-1.91S108.82,38.1,108.82,38.1Z"/><path class="cls-10" d="M101.71,53.12c3.4.19,7.62.1,11.32.35V41.38c-1-.31-1.59-.45-1.59-.45a4.61,4.61,0,0,0-.55-1.49,3.69,3.69,0,0,0-2.07-1.34s-2.7.19-3.78,1.24-1.82,1.91-1.82,1.91a8.12,8.12,0,0,1-1.51.29Z"/><path class="cls-4" d="M112.46,28.68a13.59,13.59,0,0,0,0-2.16c-.11-1-1.83-.86-1.42.81a14.85,14.85,0,0,0-3.13-2.21c-2.17-1.24-6.32-1.07-6.08,1.35a2.59,2.59,0,0,0,.63,1.45s-2,.31-.94,1.4a4.83,4.83,0,0,0,2.59,1.25L109,36.14l.34,1.94s2.21-1.33,3.88-2.18,1.27-5.26,0-6.1c0,0,1.49-.08,1.33-1S112.46,28.68,112.46,28.68Z"/><path class="cls-8" d="M104.94,38.83s.38,1.83.46,2.57a6.59,6.59,0,0,0,1.3,2.18,2.48,2.48,0,0,0,1.21-1,18.74,18.74,0,0,0,1.56-3.17l-.18-2.61Z"/><path class="cls-8" d="M105.12,29.93c-2.17,1.1-4.3,4.15-4.33,4.77s1.36.95,1.36.95-.09,2.76.56,3.47,3.88.15,5.17-.8,3.55-4.12,3.11-6.55S106.57,29.19,105.12,29.93Z"/><path class="cls-8" d="M109,36.14a.81.81,0,0,0,.78.94c.88,0,2.3-1,2.27-1.87a1.21,1.21,0,0,0-1.82-.91Z"/><path class="cls-4" d="M108.88,31.81s-1.35,2.9-.28,3.54,2.16-1.28,2.16-1.28Z"/><path class="cls-4" d="M109,32.3a29.45,29.45,0,0,0-4.88-1.73l.67-2.05,4.93.27,2,2.39-.11,2.63-.85.26Z"/><path class="cls-8" d="M90.42,34.69a2.41,2.41,0,0,0,.08-2.08c-.54-.88-1.22-.8-1.84-1.65s-.72-1.27-1.06-1.14-.64.95-.19,1.71,1.38.93-.06,1.17a3,3,0,0,1-3.06-.86c-1-.9-1.2-.74-1.37.34S84.76,34.94,86,35s2.24.06,2.24.06Z"/><path class="cls-10" d="M99.13,45.15a43.31,43.31,0,0,0,1.71,11.07c1.64,4.94,2.56,5.87,3.62,6.09s10.77.22,11.75-.71,2.25-14.83,2.11-16.15Z"/><path class="cls-9" d="M105.28,44.19c.07.45.51,2.22.81,2.27s2.16.25,2.53-.19a6,6,0,0,0,.32-2.59C108.89,43.45,105.18,43.39,105.28,44.19Z"/><path class="cls-9" d="M106.16,45.94a27.56,27.56,0,0,0,1.14,8.77c1.41,4.7,2.43,6.11,2.39,6s3.91.63,3.91.63l.94-3.45s-5.1-6.87-6.36-11.94Z"/><path class="cls-7" d="M106.29,43s-.28,0-.3.18c0,0,0-.05,0,0s.05-.1,0,0c0-.15.08,0,.09-.17-.4-.28-1.46.56-1.56.8-.06-.07-.06-.07,0,0a6.52,6.52,0,0,0-.77.43s0-.14-.09,0-.27-1-.49-.94c.4,0,0-.41-.05-.37.16.1,0-.75,0-.88.16.13,0-.09,0-.08s0,0,.16-.06-.15-.1-.13-.1c.2.12.11,0,.2,0a2.46,2.46,0,0,1-.16-.24c.11,0,.12-.05.18,0s-.07-.09,0,0-.17-.21,0-.06c0,0-.37,0-.13.2-.22.09-.31.27-.09.52-.08,0-.11,0-.08,0-.17,0-.09,0-.06.15-.06.41-.19.39.07.62,0,.1-.13,0-.17,0s0,0,0,.05a.42.42,0,0,1,.15.1c-.08.05-.17.06-.2.11s0,0,.17,0c0,0-.11.07-.14.06s.16.06.21.1c-.1,0-.19.13,0,.16,0-.06,0,0,.07-.07-.23.11.23.82.35.9-.1.12-.1.05-.1.15s.48,0,.15.15c0,0,.68.18.52-.11,0-.05.17.14.2.16-.11-.15.92-.82,1.08-.87s.22-.47.28-.43,0,.06.07,0,0,0,0,.17c0-.43,0-.09,0-.09s.1.07.05-.07,0,.05,0-.11c0,0,.82.39.9.45s.26-.38.26-.39,0,0,0,0-.06,0,0-.05,0,0-.1.07c0-.14-.23-.31-.35-.15C106.34,43,106.38,43.17,106.29,43Z"/><path class="cls-7" d="M111.14,41.66c0-.06.15.25.26.23,0,0,0,0,0,0s-.11,0,0,.06c-.15,0,0-.08-.18,0a8.34,8.34,0,0,0,.13,1.75c-.09-.07-.09-.07,0,0s-.13-.11-.14-.12,0,0,0,0l.09.2c-.08-.13-.1-.11,0,0-.07-.25-.06-.12-.06,0,.25-.38-2.16-1.77-2.17-1,.06-.43-.52,0-.45,0,.1-.17-.9.28-1,.33s-.28-.16-.27.1c0-.25-.13,0-.16-.14,0,.05-.08.19-.13.3-.08-.07-.14-.05-.14-.13,0,.09-.1,0-.07.14s0,0,0-.05.28.22.3-.07c.23.13.44,0,.6-.24,0,.09,0,.11,0,.07.06.16.07.06.18,0,.46,0,.45.05.69-.22.11,0,0,.14,0,.16s0,0,0,0,.07-.14.12-.16,0,.17.1.21,0,0,0-.17a.27.27,0,0,1,0,.14s.09-.16.14-.19.09.2.15.08c-.07.05-.07,0,0,0s-.07,0,0-.06a2.32,2.32,0,0,0,1,.35c-.08.1-.07.09,0,0,0,.13-.06.09,0,.16s.47-.06.14.09c0,0,.31.33.4.22s-.08.21-.08.24a4.57,4.57,0,0,0,.94.34c.65-.28-.07-1.84.08-1.92l.17,0c-.11,0-.07-.22-.16-.18s.11,0-.1,0a5.36,5.36,0,0,0,.08-1.31c-.06-.08-.45,0-.47,0s.09,0,0,0,.1.1.09.1-.14.38,0,.43C111.09,41.62,111.35,41.5,111.14,41.66Z"/><path class="cls-12" d="M88.06,37.11s.1-.11.1-.25c0,0,0,0,0,0s0,.11,0,0c0,.13,0,0,0,.18,0-.07.11,0,.09-.13s.08,0,.16.12c0,0,.11-.22.24,0,0,0,0-.1,0-.1s0,.14,0,0c0,.05.07.06.1.08s.08-.06,0-.13c0,.09,0,.09,0,0a.61.61,0,0,1,0,.13s0,0,0,0,.12-.19.12-.19.94.21.77-.32c0,.16.07.13.08.18s0-.21.08,0c0-.06,0-.12,0-.19,0,.09,0,0,0,0,.07.19,0-.1.12.1.12-.18,0-.05.19-.1,0,0,0-.15,0-.15,0,.23,0,0,0,0s0,0,0,0a.13.13,0,0,0,.08.13s0-.14,0-.15a.77.77,0,0,0,.07.16s0,0,0,0a2.3,2.3,0,0,0,0-.23c.07.13.06.05.09.15,0-.1,0-.1,0,0s0-.24,0-.06c0-.1-.06-.08-.13-.16s.15.76,0,.14c-.12-.12-.07-.17,0,0-.06-.08-.07-.08,0,0,0-.11-.12-.11-.13,0,0-.1,0-.09,0-.09s0,.14,0,.22c0-.1,0-.12,0-.08s-.06-.17-.07,0-.14,0-.18-.08,0,0,0,0,0,.11,0,0a.34.34,0,0,0,0,.2c-.06,0,0-.12,0-.15s0,0,0,0,0,.09,0,.15a.93.93,0,0,0-.09-.2c0,.17,0-.13,0,.16a.38.38,0,0,1,0-.12c0,.09,0,.1,0,0a.74.74,0,0,1,0,.17s-.1-.12-.1-.13,0,.11,0,0,0,.08,0,.12c-.09-.19-.07,0-.12-.1,0,0,0,.12,0,.14,0-.23,0,0,0,0s-.16-.07-.1,0,0-.12-.06-.13,0,.2,0,.15,0-.11,0,0c-.07,0-.08-.09,0-.11s0,0,0,0a1.15,1.15,0,0,1,0,.14c0-.12,0-.11,0,0-.06-.34,0,0,0,0s-.07-.21-.14-.16a.68.68,0,0,1,0,.14L89,36.31c0,.12,0,.1,0,0,0,.14-.06.06-.13.2-.06-.29-.2,0-.19,0a.3.3,0,0,0-.13-.12s-.1.15-.12.21,0-.08,0,0c0-.09,0-.09,0,0,0-.11,0,0,0-.2,0,.36,0,.1,0,.09s0-.14,0,.07c0-.05,0,0,0,.1-.06-.52-.08.14-.06-.12-.06.23-.31,0-.31,0a3,3,0,0,0-.11.46c.09-.05,0-.06,0,0s0,0,0,0c.14-.09,0,.06,0-.11,0,.2.1-.06.07.17.07-.35,0,.31.09-.17C88.05,37.23,88,36.83,88.06,37.11Z"/><path class="cls-12" d="M129.36,59.52s0,.13,0,.27c0,0,0,0,0,0s0-.1,0,0c0-.12,0-.05,0-.18.09.07-.09.06,0,.15a.21.21,0,0,1-.17-.08s-.08.11,0,.16c-.18,0,0,.07-.16-.08,0,0,0,.1,0,.1s0-.13,0,0c0-.07-.08,0-.1-.08s-.08.08,0,.14c0-.09,0-.09,0,0s0-.11-.05-.13,0,0,0,0-.1.19-.1.2-.83-.2-.78.26a.41.41,0,0,0,0-.19s-.06.2-.08,0c0,.07-.07.11,0,.19,0-.09,0,0,0,0,0-.19-.05.1-.09-.12-.15.15,0,0-.2,0s0,.15,0,.15c0-.23,0-.06,0,0s0,0,0,0,0-.08,0-.15,0,.14,0,.15a.55.55,0,0,0,0-.18c0,.06,0,0,0,0a2.35,2.35,0,0,0-.07.23c0-.15,0-.07,0-.18,0,.11,0,.11,0,0s0,.24,0,.05c0,.11,0,.1.07.2s.11-.76,0-.13c.07.14,0,.18,0,0,0,.1,0,.11,0,0,0,.12.09.14.12,0,0,.1,0,.08,0,.1a.18.18,0,0,0,0-.23c0,.1,0,.13,0,.08,0,.11,0,.18.06,0s.14,0,.15.13c0,0,0,0,.06,0,0-.13,0-.13,0,0a.28.28,0,0,0,0-.2c.06,0,0,.12,0,.16s0,0,0,0,0-.09,0-.14,0,.16.06.2c0-.15,0,.12,0-.16a.7.7,0,0,1,0,.14c0-.1,0-.11,0,0a.48.48,0,0,1,0-.17,1.07,1.07,0,0,0,.07.15c0-.1,0-.12,0-.05s0-.07,0-.13c0,.21.07,0,.11.13,0,0,.06-.12,0-.14,0,.23,0,0,0-.05s.16.08.11,0,0,.11,0,.13.06-.2.05-.15,0,.11,0,0c.06.06.06.1,0,.12s0,0,0,0,0-.13,0-.14,0,.11,0,0c0,.34,0,0,0,0s.17.24.12,0l.08.22c0-.12,0-.1,0,0,0-.15.07-.06.14-.21.08.3.22,0,.2,0s.14.09.16.1.08-.17.09-.24,0,.07,0,0q.06.12,0,0c0,.1,0,0,.08.18-.05-.35,0-.1,0-.09s.1.11,0-.07c0,0,0,0,0-.1.21.48,0-.16.1.09,0-.21.36-.11.36-.11a1.58,1.58,0,0,0-.19-.43c0,.06,0,.07,0,0s0,0,0,0c-.06.17,0-.11,0,.11-.1-.17-.05.09-.13-.12.11.32-.11-.26,0,.19C129.32,59.41,129.53,59.75,129.36,59.52Z"/><path class="cls-4" d="M104.16,40.23a65.8,65.8,0,0,0,3.66,26.38c.54,1.57-5.31,2.36-7,1s-3.32-19.31-1.66-26.12Z"/><path class="cls-4" d="M111.26,40.23l7.07,3.35s1.25,15.71,2.65,19.6c.55,1.53-6.21,4.91-8,3.93S108.24,45.86,111.26,40.23Z"/><path class="cls-11" d="M113.33,41.78c.18.07.68-.15,1-.19-.28,0,.29.3.22.21-.06.19-.25,0-.24,0l-.09.22c.23.19.3.06.44-.07.47-.07,1.28,1.34,2,1-.09,0,.85.42.82.32a22.35,22.35,0,0,1,1.88,1.25c-.21.25.74.4.87.44-.31.31.08,0,.05,0s1.09,1.4,1.56,1.12c.72.19,2.37,2.79,2.55,3,.83,1.17,1.19,1.8,2.18,3a2,2,0,0,0-.32-.11c.33.29.39.82.59.92s.13.07.06,0a.62.62,0,0,1,.38,0,1,1,0,0,1-.32.25c-.09,0,.86.73.44.94.27.09.21.17.31.34,0,0,.47,0,.1.31.16,0,.31.39.31.38.28.18,0,.29-.08.39a18.23,18.23,0,0,1,1.2,2.38c-.12-.09.05.31-.07.34a.22.22,0,0,1,.17.2c-.23-.13-.15,0-.2.23-.1-.13.49.27.37.23-.79-.29.28,1,.35,1.1-.1.12-.15.39-.29.34.1.11.09.35.27.35s0-.1-.09,0,.56-.69-.12-1.05l.3-.18c-.46-.27,0-.89-.54-1.61.42-.11-.09-.07,0-.47a.4.4,0,0,1-.39.08c.38-.16.44-.37.06-.72-.2-.48-.62-1.87-.45-2.07l-.16.13c-.11-.67.07-.06-.38-.48-.05-.27.3-.09.32-.12s-.34-.4-.45-.57a3.56,3.56,0,0,1,.27-.48c-.26-.17,0,.09-.39,0,0,0,0-.39.21-.15q-.1-.11,0-.09c.05-.23-.48-.25-.58-.36.21-.13.1-.55-.14-.61l.16.15c-.18.15,0-.09-.22.12.43-.61-.56-.91-.7-1.34.4,0-.82-1-.84-1.25.24-.47-.09-.5-.55-.8.45-.13-.06,0-.07,0,0-.27.08-.33.18-.17.06-.08-.8-.7-.83-.72.4-.1-.73-1-.84-1.7-.17-.06-.22,0-.17.16-.65-.06-2.75-2.25-3.46-2.78l-.14.2c0-.16-1-1-1-1a3,3,0,0,0-.4.2c-.36-1.11-1.83-.27-2.1-1.12,0,.11.25-.17.33-.23-.45.15-.33,0-.66-.21-.09.21-.08.17.11.25a.21.21,0,0,0-.31.12c0-.33-.23-.74-.62-.39-.06-.1,0-.15.07-.14a.38.38,0,0,0-.36,0c-.38-.58-2.76-1.36-3.27-1.57-.28,0-.5.71-.38.9.39,0,0,0,.06,0s.34.24.28.17c.39-.32.93.77,1.56.29a.65.65,0,0,1-.17.33C113.11,41.09,113.31,41.69,113.33,41.78Z"/><path class="cls-12" d="M113.76,43.53s.41.74.46.7,0,.09,0,.22-.12-.17-.11-.16l-.11,0c.09.69,1.17,2.22.86,3.05.11,1.53,0,1.44-1.06,2.11q-.09-.12,0,0c-.45.14-1.48.43-2.19.66a.43.43,0,0,0,.25,0,2.86,2.86,0,0,0-.69.12,3.85,3.85,0,0,0,1,0c-.3,0,1.29.29,1.1.24,3.15.07,2,2.11,1.65,4.44a1.05,1.05,0,0,0-.06-.24,6.41,6.41,0,0,1-.18,1,.44.44,0,0,0,.13.24c-.2-.17-.43,1.27-.45,1.37a3.19,3.19,0,0,1-.21,1.08l-.07-.09c-.12.79-.25,1.41-.38,2.14.12.48-.35.66-.07,1.19a8.57,8.57,0,0,0-.34,1.63c0-.05,0-.07,0-.07-.09-.21.64-2.35.58-3,.31,0,.15-.2.24-.58a15.18,15.18,0,0,0,.48-2.31c.08-.24.14.06.15,0,0-.23.39-1.2.3-1.21a.17.17,0,0,0,0,.13c0-.38.29-.79.18-1.13-.19.5.15-.18-.07.22a6.94,6.94,0,0,1,.26-1.38c-.39-.55,1.29-2.78.16-3.27.11,0,.38-.09.09,0a9.48,9.48,0,0,1-1.59-.68c-.15,0-.16,0,0,.11-.28.06-.21-.16-.54-.07.38-.08-.31,0,.1,0a.47.47,0,0,1-.17,0l.18,0a.65.65,0,0,1-.24,0c.93,0,2.22-.94,2.15-1.85,0-.67-.78-1.72-.6-2.34-.1,0,.24.15.2.13s-.27-.6-.29-.57a1.73,1.73,0,0,1,.06.18c-.2-.16-.16-.82-.21-.84a11.21,11.21,0,0,1-1.16-3.54s-.45,1.41.34,1.88a.19.19,0,0,1-.18,0C113.94,43,113.74,43.58,113.76,43.53Z"/><path class="cls-12" d="M101.1,42.9a3.49,3.49,0,0,0,0,.9c0-.13,0,.07-.1.21s0-.23,0-.21l-.12,0c-.37.76-.21,2.54-.93,3.27-.54,1.23-.18,2.94,1.16,2.64a1.46,1.46,0,0,0,1,.29c-.27.06-.16.07,0,.08-.16.58-1.87.77-2.11,1.92s.72,3.22,1.36,4.43a1.71,1.71,0,0,0-.2-.18,7.75,7.75,0,0,1,.48,1s.17.13.25.11c-.27,0,.53,1.35.57,1.42a3.89,3.89,0,0,1,.62,1l-.11,0c.48.67.9,1.24,1.39,1.85.46.24.29.72.9.88.05,0,.91,1.45,1.06,1.41a9.53,9.53,0,0,0-2-2.55c.21-.24-.06-.26-.29-.59s-.57-.91-.55-.87c-.11-.27-.28-.72-.47-.76-.16-.35-.15-.23-.35-.45s.15-.05.15-.07-.08,0,0-.17c-.16-.15-.48-1-.54-1a.14.14,0,0,0,.12.06c-.3-.32-.23-.8-.56-1.05.13.56,0-.26.08.22a6,6,0,0,1-.6-1.34c-.4-.18-.81-2.9-.89-3.32.17.33.2.33.08,0-.21-.48,1-1,1-1,.34-.47,1.52-.78,2.18-1.17-1.37-.23-3.2-.3-3.48-1.61a6.82,6.82,0,0,1,.63-2.52c-.11,0,.13.27.11.22s.09-.68.06-.66a1.47,1.47,0,0,1,0,.19c-.09-.26.31-.82.29-.87,0-.54.76-3.49,1.17-3.75,0,0-1.23.92-.87,1.82a.17.17,0,0,1-.16-.08C101.54,42.58,101,43,101.1,42.9Z"/><path class="cls-9" d="M120.89,100.52s-.07.06-.18.08h0c.07,0,.08,0,0,0,.1,0,0,0,.14,0-.12,0,0,.06-.09.07s0,0,0,0,0,0,.1,0,0,.07-.08.08,0,0,.11,0c0,0-.07.05-.07,0l.1,0c0,.05,0,.07-.08.06s.07,0,0,0,.09,0,.1,0,0,0,0,0-.08.1-.08.1,0,0,0,0,.3.22.19.29c.06,0,.17.06,0,.19a.65.65,0,0,1,.13-.08s0,0,0,0-.11.13,0,0,0,.09-.1.1,0,0,0,0,0,.07.11,0c0,.16,0,0,.06.12l-.07.08c.11-.14.05,0,0,0s0,0,0,0,0-.06,0,0,0-.05.08-.05-.07.08-.07.09l.1-.1s0,0,0,0a1.65,1.65,0,0,1-.09.16.59.59,0,0,0,.11-.09c0,.07,0,.07,0,0s-.11.15,0,0c-.05.08-.05,0-.13.09s.45-.58.06-.09c-.14.06-.1.08,0,0s-.08,0,0,0-.11,0-.08,0,0,.07,0,.05,0,0,0,0a.14.14,0,0,1,.11-.13c0,.06-.06.07,0,0s-.11.1,0,0-.07-.06-.14,0,0,0,0,0,.08-.06,0,0a.38.38,0,0,1,.11-.11c-.06,0-.07.06-.1.07h0s0,0,.06-.08l-.14.08c.08-.1-.07.07.1-.09l-.1.06c.06,0,.06-.06,0,0a.73.73,0,0,0,.1-.09.34.34,0,0,1-.12,0c.06-.05.07-.06,0,0s0,0,.08,0c-.15.08,0,0-.12,0s0-.09.07-.09c-.15.11,0,0,0,0s-.13,0-.05-.06-.06,0-.09,0,.09-.11.07-.09-.08,0,0,0c-.06,0-.09,0-.08,0h0s.07-.07.08-.07-.08,0,0,0c-.23.13,0,0,0,0s-.22,0-.07,0l-.17.06c.11-.05.07,0,0,0s0,0,.07-.16c-.22.09-.07-.13-.07-.11a.2.2,0,0,1-.13,0c.13.15.11-.18,0-.06,0,0,.09-.08.1-.08s-.07,0,0,0-.07,0,0,0,0,0-.15,0c.23-.11.07,0,.06,0s-.12,0,0,0c0,0,0,0,.08,0-.41.07.1-.08-.1,0,.14-.07-.07-.22-.07-.23a1.81,1.81,0,0,1,.36,0s-.06,0,0,0,0,0,0,0,.05,0-.09,0c.16,0,0,.06.13,0-.26.06.22,0-.13.06C121,100.5,120.67,100.51,120.89,100.52Z"/><path class="cls-9" d="M120,101.14s-.07.06-.18.09c0,0,0,0,0,0s.08,0,0,0c.09,0,0,0,.13,0-.15,0,0,0-.08.06.06.07,0,0,0,0s.07,0,0,0a.09.09,0,0,1,.1,0c-.06,0-.06,0,0,0s0,0-.07.06c.07.06,0,0,.11,0s-.07,0-.07,0,.1,0,0,0c.15-.08-.05.06.07,0-.1,0,0,0,0,0s0,.06-.09,0,.07,0,0,0,.08,0,.11,0h0s-.09.08-.09.08,0,0,0,0,.13.08.2.09c-.11,0,0,.09-.07.14.1,0,0,0,0,.06s.07,0-.08.08l.14,0c-.06,0-.06,0,0,0s-.13.1,0,0a.2.2,0,0,1-.13.08c.07,0,0,0,0,0,.14-.06,0,0,.07,0s-.09,0,0,0c-.08.13,0,0,0,.1s-.1,0-.1.06,0,0,0,0,0,0,0,0,.06,0,0,0,.06-.05.08,0l-.09.06.12-.06s0,0,0,0l-.14.1c.11,0,.06,0,.13,0s-.07,0,0,0l0,0c-.09.06,0,0-.15,0s.78-.5.09-.06c-.17,0-.11,0,0,0s-.08,0,0,0c-.08,0-.12,0-.06,0s0,0-.06,0,0,0,0,0a.2.2,0,0,1,.15-.09l-.06,0c-.09,0-.09.07,0,0s0-.05-.12,0,0,0,0,0,.09,0,0,0A.46.46,0,0,1,120,102c-.06,0-.07,0-.11,0h0s0,0,.09-.06l-.16,0c.11-.07-.1.06.11-.06l-.1,0c.07,0,.07,0,0,0L120,102s-.1,0-.12,0,.08,0,0,0,.08,0,.09,0c-.17.06,0,0-.11,0,0,0,0-.07.08-.06-.16.07,0,0,0,0s-.12,0,0,0-.07,0-.1,0l.09-.07c-.09,0-.08,0,0,0s-.11,0-.12,0,.08,0,.08-.06-.08,0,0,0c-.24.11,0,0,0,0s-.21,0-.05,0l-.17,0c.09,0,.08,0,0,0,.11-.07,0,0,.09-.12l-.11,0s.06-.1.07-.1a.19.19,0,0,1-.13,0c.14.11.13-.14,0-.05l.1-.07s0,0,0,0,0,0,0,0-.07,0,0,0,0,0,0,0,.07,0-.12,0c.22-.1.07,0,0,0s-.14,0,0,0c0,0,.08,0,.07,0-.4.1.1-.07-.09,0,.13-.07-.06-.14-.07-.15a1.34,1.34,0,0,1,.35-.1c-.06,0-.06,0,0,0s-.06,0,0,0c-.11.12.09,0-.09,0,.1,0,.06,0,0,0l.09,0c-.25.09.23-.06-.12.07C120.14,101.11,119.82,101.17,120,101.14Z"/><path class="cls-9" d="M119.32,102s0,0-.12.06h0c.06,0,.06,0,0,0s0,0,.1,0c-.11,0,0,0-.06,0s0,0,0,0,.06,0,0,0a0,0,0,0,1,.06,0s0,0,0,0,0,0,0,0,0,0,.08,0a.07.07,0,0,0,0,0s.07,0,0,0c.1-.06,0,0,0,0-.07,0,0,0,0,0s0,0-.06,0,0,0,0,0,0,0,.07,0,0,0,0,0-.06,0-.06,0,0,0,0,0,0,.05.11,0-.08,0,0,0c-.07,0,0,.06,0,.09s0,0,0,0,.06,0-.05.06l.1,0h0s-.09.07,0,0a.1.1,0,0,1-.08.06s0,0,0,0,0,0,.05,0-.06,0,0,0,0,0,0,.07l-.07,0c.1-.08,0,0,0,0s0,0,0,0,0,0,0,0a.11.11,0,0,1,.06,0l-.06,0,.08,0s0,0,0,0,0,0-.09.08l.09,0s0,0,0,0-.1.09,0,0,0,0-.1,0,.51-.41.06,0c-.12,0-.08,0,0,0s0,0,0,0-.08,0,0,0,0,0,0,0,0,0,0,0a.13.13,0,0,1,.1-.07s0,0,0,0,0,0,0,0,0,0-.09,0,0,0,0,0,.06,0,0,0l.09-.06s0,0-.08,0h0s0,0,.06,0-.07,0-.11,0-.07.05.08,0l-.07,0s0,0,0,0l.08,0-.09,0s.06,0,0,0,.05,0,.06,0,0,0-.08,0,0,0,.06,0c-.11.06,0,0,0,0s-.08,0,0,0,0,0-.07,0l.06,0c-.06,0-.06,0,0,0s-.06,0-.06,0a0,0,0,0,0,0,0s.06,0,.06,0-.06,0,0,0c-.16.08,0,0,0,0s-.15,0,0,0l-.12,0c.07,0,.06,0,0,0s0,0,.07-.09l-.09,0s0-.07,0-.07a.15.15,0,0,1-.09,0c.1.09.09-.1,0,0s.07,0,.07,0h0s0,0,0,0,0,0,0,0,0,0,0,0l-.08,0c.15-.07,0,0,0,0s-.1,0,0,0h.05c-.28.05.07,0-.07,0,.1,0,0-.1,0-.11a1.57,1.57,0,0,1,.25,0h0c-.09.08.06,0-.06,0,.06,0,0,0,0,0h.07c-.19,0,.16,0-.09,0Z"/><path class="cls-9" d="M95.63,100.08s-.07.07-.18.09,0,0,0,0,.08,0,0,0c.1,0,0,0,.13,0-.11,0,0,.06-.08.07s0,0,0,0,0,0,.11,0,0,.08-.09.09,0,0,.11,0-.06,0-.06,0,0,0,.1,0,0,.06-.08.06.06,0,0,0a.23.23,0,0,0,.1,0s0,0,0,0-.08.09-.09.1c.14-.06,0,0,0,0s.3.21.19.28c.06,0,.16.06,0,.19a.92.92,0,0,1,.13-.07s0,0,0,0-.1.13,0,0c0,0,0,.09-.1.11s0,0,0,0,0,.07.11,0c0,.15,0,0,.06.11s-.08.09-.07.09,0,0,0,0,0,0,0,0,.06,0,0,0,0-.06.08-.06-.07.09-.07.09l.1-.09s0,0,0,0l-.09.15c.09-.07,0,0,.11-.08s0,.07,0,0-.1.15,0,0c-.06.07,0,0-.13.08s.44-.58.06-.09c-.14.06-.1.09,0,0s-.07,0,0,0-.12,0-.08,0,0,.07-.05,0h0c0-.07,0-.11.11-.13s-.07.07,0,0-.12.1-.05,0-.08-.06-.14,0,0,0,0,0,.08,0,0,0a.27.27,0,0,1,.11-.1c-.06,0-.07.05-.1.07s0,0,0,0,0,0,.06-.08a.91.91,0,0,1-.14.07c.08-.09-.07.08.09-.08,0,0-.07,0-.09.06s.06-.06,0,0l.1-.09-.12,0s.07-.06,0,0,0,0,.08,0c-.15.08,0,0-.12,0s0-.09.07-.08c-.15.1,0,0,0,0s-.12,0,0-.05-.07.05-.1,0l.08-.09c-.08,0-.08,0,0,0-.06,0-.09,0-.08,0s0,0,0,0l.08-.07c-.08,0-.08,0,0,0-.22.14,0,0,0,0s-.22,0-.07,0l-.17,0c.11,0,.06,0,0,0s0,0,.07-.16c-.21.09-.06-.13-.06-.11s-.09,0-.14,0c.14.15.12-.17,0-.06s.08-.07.09-.08-.06,0,0,0-.07,0,0,0,0,0-.15,0c.23-.11.07,0,0,0s-.12,0,0,0l.08,0c-.41.07.09-.08-.1,0,.14-.08-.07-.23-.07-.23a1.92,1.92,0,0,1,.36-.06s-.07,0,0,0h0c-.07.09,0,0-.09,0,.15,0,0,0,.13,0-.26.06.22,0-.13.06C95.72,100.06,95.4,100.08,95.63,100.08Z"/><path class="cls-9" d="M94.78,100.71s-.07.06-.18.09,0,0,0,0,.08,0,0,0c.09,0,0,0,.12,0-.14,0,0,0-.08.07.07.07,0-.06,0,0s.07,0,0,0a.09.09,0,0,1,.1,0c-.06,0-.07,0,0,0s0,0-.07.06c.07.06,0,0,.11,0a.1.1,0,0,0-.07,0s.09,0,0,0c.15-.09,0,0,.07,0-.1,0,0,0,0,0s0,.07-.08.06.07,0,0,0,.08,0,.1,0,0,0,0,0-.09.07-.1.08c.15,0,0,0,0,0s.12.08.19.09c-.1,0,0,.09-.07.13.11,0,.05,0,0,.07s.08,0-.07.08l.14,0c-.06,0-.06,0,0,0s-.13.09,0,0a.23.23,0,0,1-.13.07c.06,0,0,0,0,0,.14-.06,0,0,.07,0s-.09.06,0,0c-.07.13,0,0,0,.09l-.1.06c.15-.1.06,0,0,0s0,0,0,0h0s.07,0,.09,0l-.09.06.12-.06s0,0,0,0a1.14,1.14,0,0,1-.14.11c.11,0,.06,0,.13-.05s-.07.05,0,0l0,0c-.09,0-.05,0-.15,0s.78-.5.08-.07c-.16,0-.1,0,0,0s-.08,0,0,0c-.08,0-.12,0-.06,0s-.06,0-.06,0,0,0,0,0a.16.16,0,0,1,.14-.09l-.05,0c-.09,0-.09.07,0,0s0,0-.12,0,0,0,0,0,.09,0,0,0l.13-.07c-.06,0-.08,0-.11,0h0s0,0,.08-.07a.94.94,0,0,1-.15.06c.11-.08-.1.06.11-.06l-.1,0c.07,0,.07,0,0,0s.1,0,.12-.06l-.12,0c.06,0,.08,0,0,0s.07,0,.08,0c-.16.06,0,0-.11,0,.06,0,0-.07.09-.06-.17.08,0,0,0,0s-.11,0,0,0-.08,0-.1,0l.08-.07h0l-.12,0,.08-.06c-.08,0-.08,0,0,0-.24.11,0,0,0,0s-.21,0,0,0l-.17,0c.09,0,.08,0,0,0,.11-.07,0,0,.09-.12l-.11,0s.06-.11.06-.11a.13.13,0,0,1-.12,0c.14.11.13-.15,0,0s.09-.06.1-.07h0s0,0,0,0-.07,0,0,0,0,0,0,0l-.13,0c.23-.1.07,0,.06,0s-.14,0,0,0l.08,0c-.4.09.1-.07-.1,0,.14-.07-.05-.15-.06-.16a1.81,1.81,0,0,1,.35-.09c-.06,0-.06,0,0,0s-.07,0,0,0c-.1.12.09,0-.08,0,.09,0,.06,0,0,0l.1,0c-.26.08.23-.06-.13.07C94.87,100.68,94.55,100.74,94.78,100.71Z"/><path class="cls-9" d="M94.06,101.52s0,0-.13,0h0s.06,0,0,0,0,0,.09,0c-.1,0,0,0-.05,0s0,0,0,0,.05,0,0,0a.08.08,0,0,1,.07,0s0,0,0,0,0,0,0,0,0,0,.07,0l0,0s.06,0,0,0c.11,0,0,0,0,0s0,0,0,0,0,0-.06,0h0s0,0,.07,0h0s-.06.06-.07.06,0,0,0,0,0,0,.11,0-.08,0,0,0c-.08,0,0,.07-.05.1s0,0,0,0,0,0,0,.06l.09,0s0,0,0,0-.09.07,0,0,0,0-.08.06,0,0,0,0,0,0,0,0-.06,0,0,0,0,0,0,.06-.06,0-.06,0,0,0,0,0,0,0,0,0,0,0,0,0,0,0,.06,0l-.06,0,.08,0s0,0,0,0l-.09.08.09,0h0s-.1.08,0,0,0,0-.1,0,.51-.4,0-.05c-.11,0-.07,0,0,0h0c-.06,0-.09,0,0,0s0,0,0,0,0,0,0,0a.11.11,0,0,1,.1-.07s-.06,0,0,0-.06.05,0,0,0,0-.09,0,0,0,0,0,.06,0,0,0a.15.15,0,0,1,.09-.06s-.06,0-.08,0,0,0,0,0,0,0,.06,0l-.11,0c.07-.06-.07,0,.08,0,0,0-.06,0-.07,0s0,0,0,0,.07,0,.08,0l-.09,0s.06,0,0,0,0,0,.06,0,0,0-.08,0,0,0,.06,0c-.11.06,0,0,0,0s-.08,0,0,0l-.07,0,0,0s0,0,0,0a0,0,0,0,0-.06,0h0l.06,0c-.06,0-.06,0,0,0-.17.09,0,0,0,0s-.15,0,0,0l-.12,0c.06,0,0,0,0,0s0,0,.06-.09l-.08,0s0-.08,0-.08,0,0-.09,0,.09-.1,0,0l.07,0s0,0,0,0h0s-.06,0,0,0,0,0,0,0l-.09,0c.16-.06,0,0,0,0s-.09,0,0,0h0c-.29,0,.07,0-.07,0,.1,0,0-.1,0-.11a.92.92,0,0,1,.25,0s0,0,0,0h0c-.08.08.07,0-.06,0,.07,0,0,0,0,0H94c-.18.05.17,0-.09,0C94.13,101.5,93.9,101.53,94.06,101.52Z"/><path class="cls-13" d="M119.14,81.29a3.17,3.17,0,0,0,.31.79c0-.1,0,0,0,.23-.06,0-.1-.21-.08-.18l-.08,0a9.65,9.65,0,0,0,.93,3.21c-1.38.46-1.88.29-2.83,1.56,0,0,3.3,0,3.53,0,0,0,0,0,0,0-.06.23-1.34,1.12-1.14,1.27.43.32,1.12,0,1.48.33s.6,1.27.84,1.75L122,90.1a7.45,7.45,0,0,1,.4,1,.45.45,0,0,0,.25.12c-.27,0,.29,1.34.32,1.44a2.84,2.84,0,0,1,.35,1.08l-.11,0a14,14,0,0,1,.52,2.15,1.18,1.18,0,0,1,.16.9c0-.15.06,0,.13.28s.05,1.5.17,1.69a12.48,12.48,0,0,0-.42-3.12c.24-.1,0-.26,0-.64,0-.2-.16-1.07-.15-1,0-.29,0-.77-.22-.85-.06-.43,0-.22-.22-.51s.16,0,.16,0-.07-.05,0-.16c-.13-.19-.28-1.12-.37-1.07a.18.18,0,0,0,.11.08c-.22-.3-.2-.86-.48-1.08.14.52,0-.23.07.23-1-.69-.53-2.67-2.36-2.51.22-.17.28-.2.2-.1.18-.09.31-.42.44-.6-.07.47,0,.12,0,.13.06-.33.52-.41.64-.72-1.45,0-2.15.1-3.7,0-.18-.91,2.65-1,3-.94-.11-.56-.84-1.4-.72-2-.1,0,.23.16.19.13s-.28-.59-.29-.57.08.25.06.18c-.2-.17-.19-.83-.22-.85a10.64,10.64,0,0,1-.77-3.73c0,.22,0,0,0,0C118.79,79.28,119.18,81,119.14,81.29Z"/><path class="cls-13" d="M105.69,81.53c-.18.35-.14.58-.25.75,0,0,0-.17,0-.14l0,0c-.32.53-.42,1.83-1,2.25a7.18,7.18,0,0,0-.92,2.08q-.14,0,0,0c-.07.11-.71,1-.53,1.24-.2,1.73-1.67,3.24-2.16,5l0-.2a5,5,0,0,1-.24.74.2.2,0,0,0,.09.2,20.53,20.53,0,0,0-.93,2.11,31.79,31.79,0,0,1-1.28,3.16,13.88,13.88,0,0,0,.9-2.18c.15,0,.14-.13.25-.39a6.49,6.49,0,0,0,.7-1.68c.09-.16.1.07.11.06a4.31,4.31,0,0,0,.38-.87c0,.07.34-.56.31-.73-.23.33.13-.1-.08.16-.18-.61,1.19-2.68,1.32-3.32.19.32,0,.15.06.11-.16-.3.55-1,.67-1.12s2-5.21,2-5.27c.17.07.14-.42.18-.45a1.28,1.28,0,0,0,0,.13c0-.18.25-.58.24-.61a15.82,15.82,0,0,1,1-2.65c0,.07,0,.07,0,0A8.69,8.69,0,0,1,105.69,81.53Z"/><path class="cls-14" d="M96.67,6.9a.64.64,0,0,0,0,.43A.89.89,0,0,0,96.67,6.9Z"/><path class="cls-14" d="M101.25,8.84l-.22,0a4.29,4.29,0,0,1-2.5-1.6c-.59-.94-1-2.07-1.55-2.75a.91.91,0,0,0-.13-.22.43.43,0,0,1,.05.12h0l-.05-.12h0l-.16-.4c0,.11.07.22.1.33l0,0,0,0,0,.1s0,0,0,0,0,.13.12.35,0,.18,0,.28a10,10,0,0,1-.27,1.5,1.74,1.74,0,0,1,0,.94v0c0,.23-.13.47-.14.57s-.18-.06-.18-.09c-.09.15.12.53,0,.66-.14-.23-1,1.74-1.1,2.06-.07.06-.06-.17-.09,0l-.09-.19c0,.09,0,.09-.07,0,.11.17-.92,1.14-1.05,1.33,3.48.07,4.48,1.72,5.36,4.2.06.28.12.52.17.7l.52-.15c-.05-.14-.13-.36-.23-.61h0c-.2-1.18-.47-1.79-.55-2.78,0-.19,0-.38,0-.56C100,11.94,99.73,9.54,101.25,8.84Zm-1.46,7,0,.11A.36.36,0,0,1,99.79,15.84Z"/><path class="cls-15" d="M49,32.45a.41.41,0,0,0,0,.22A.54.54,0,0,0,49,32.45Z"/><path class="cls-15" d="M51.26,33.43l-.11,0a2.25,2.25,0,0,1-1.25-.81c-.29-.47-.52-1-.77-1.37a.41.41,0,0,0-.07-.11l0,.06h0l0-.06h0C49,31.09,49,31,49,31a1.09,1.09,0,0,1,.05.17s0,0,0,0v0l0,.05,0,0s0,.07.06.18l0,.14a5.38,5.38,0,0,1-.14.75.82.82,0,0,1,0,.47h0c0,.12-.06.23-.07.28s-.09,0-.09,0,.06.27,0,.33c-.07-.12-.5.87-.55,1s0-.09,0,0a.93.93,0,0,0-.05-.1s0,0,0,0-.47.57-.53.66c1.74,0,2.24.86,2.68,2.1a3.46,3.46,0,0,0,.09.35l.26-.07-.12-.31h0c-.1-.59-.24-.9-.28-1.39,0-.1,0-.19,0-.28C50.65,35,50.5,33.77,51.26,33.43Zm-.73,3.49s0,0,0,.06S50.53,36.94,50.53,36.92Z"/><path class="cls-14" d="M47.18,27.35l.23-.09a2.27,2.27,0,0,1-2.2-.75c-.84-1.08-1-3-1.72-4.24,0-.18-.06-.34-.08-.49v.31l0,0h0l0,0v0s0,0,0-.06,0,.18,0,.66v.14c-.1.48-.29,1-.33,1.19a1.45,1.45,0,0,1,0,.86v0c0,.22-.1.44-.11.51s-.16,0-.16-.07.14.46.06.59c-.11-.16-1,1.49-1.1,1.74-.06,0-.1-.21-.18-.21.08.2-1,.52-1.33.76C40.86,28,43.45,30,43.44,30a5.63,5.63,0,0,1,1.23,2.4l0,.4h0l.36-.06h0c0-.21-.09-.42-.15-.63s0-.48,0-.55a1.34,1.34,0,0,1,0,.2C45.15,31.7,45.56,28.15,47.18,27.35Z"/><path class="cls-14" d="M40.15,28.3a.59.59,0,0,1,.11-.09A.2.2,0,0,0,40.15,28.3Z"/><path class="cls-14" d="M43.07,24.5a.74.74,0,0,0,0,.39A.82.82,0,0,0,43.07,24.5Z"/></svg>