<?xml version="1.0" encoding="utf-8"?>
<!-- Generator: Adobe Illustrator 24.1.2, SVG Export Plug-In . SVG Version: 6.00 Build 0)  -->
<svg version="1.1" id="Capa_1" focusable="false" xmlns="http://www.w3.org/2000/svg" xmlns:xlink="http://www.w3.org/1999/xlink"
	 x="0px" y="0px" viewBox="0 0 512 512" style="enable-background:new 0 0 512 512;" xml:space="preserve">
<style type="text/css">
	.st0{fill:#0033A0;}
</style>
<path class="st0" d="M8,256c0,137,111,248,248,248s248-111,248-248S393,8,256,8S8,119,8,256z M456,256c0,110.5-89.5,200-200,200
	S56,366.5,56,256S145.5,56,256,56S456,145.5,456,256z M348.5,264.5L225.7,387.3c-4.7,4.7-12.3,4.7-17,0l-22.6-22.6
	c-4.7-4.7-4.7-12.3,0-17l91.7-91.7l-91.7-91.7c-4.7-4.7-4.7-12.3,0-17l22.6-22.6c4.7-4.7,12.3-4.7,17,0l122.8,122.8
	C353.2,252.2,353.2,259.8,348.5,264.5z"/>
</svg>
