<svg xmlns="http://www.w3.org/2000/svg" width="399.883" height="399.384" viewBox="0 0 399.883 399.384"><defs><style>.a{fill:none;stroke:#f6f6f6;stroke-miterlimit:10;stroke-width:2.688px;}.b{fill:#00aec7;}</style></defs><g transform="translate(-1281.697 -1827.873)"><g transform="translate(742.943 927.745)"><path class="a" d="M550.138,1038.275v0A198.345,198.345,0,0,0,621.9,1260.13v0a198.35,198.35,0,0,0,233.172.31h0a198.347,198.347,0,0,0,72.349-221.664h0A198.347,198.347,0,0,0,738.961,901.472h0A198.346,198.346,0,0,0,550.138,1038.275Z" transform="translate(0 0)"/></g><path class="b" d="M168,192.5a6.5,6.5,0,1,1-6.5-6.5,6.5,6.5,0,0,1,6.5,6.5" transform="translate(1108.644 2270.356) rotate(-90)"/></g></svg>