<svg id="Component_37_1" data-name="Component 37 – 1" xmlns="http://www.w3.org/2000/svg" width="227.31" height="189.43" viewBox="0 0 227.31 189.43">
  <g id="Group_7120" data-name="Group 7120" transform="translate(-29.745 -30.957)" opacity="0.4">
    <path id="Path_3302" data-name="Path 3302" d="M196.192,200.652c.489-.2.977-.414,1.462-.626l.752-.329c.48-.212.957-.425,1.436-.643.261-.118.52-.238.78-.358q.695-.319,1.385-.644c.281-.134.561-.27.841-.4.437-.209.873-.419,1.307-.635.313-.154.622-.31.934-.466.4-.2.8-.4,1.2-.607.359-.183.717-.372,1.074-.56s.7-.364,1.05-.549c.437-.231.87-.469,1.3-.706l.819-.443q1.061-.587,2.111-1.188c12.505-7.154,24.25-16.107,32.672-27.8s13.286-26.379,11.283-40.656c-1.421-10.117-7.978-20.836-17.816-22.36a17.082,17.082,0,0,0-1.734-.171,52.1,52.1,0,0,0-7.256.6c-.511.05-1.022.087-1.534.119-.15.009-.3.013-.449.021-.363.018-.725.033-1.089.044-.176,0-.353.006-.531.008-.338,0-.676.006-1.013,0-.183,0-.365,0-.546-.008-.338-.009-.675-.018-1.013-.032-.177-.008-.353-.015-.528-.024-.353-.019-.7-.041-1.058-.066-.158-.012-.315-.02-.472-.033-.4-.031-.794-.069-1.191-.108-.11-.011-.222-.019-.334-.032-1.039-.109-2.08-.245-3.117-.4-.068-.01-.136-.022-.2-.033-.442-.068-.884-.138-1.326-.215-.134-.022-.269-.047-.4-.071q-.565-.1-1.131-.2l-.46-.088c-.362-.069-.723-.139-1.086-.213-.155-.03-.31-.061-.465-.094-.368-.075-.736-.152-1.1-.231-.144-.029-.285-.06-.429-.091-.395-.084-.792-.173-1.186-.259-.112-.026-.222-.052-.333-.075-.5-.112-.99-.223-1.486-.339l-.02,0-.065-.016a37.2,37.2,0,0,0,1.575-9.854c.012-12.973-9.837-23.72-19.914-31.883-12.261-9.93-27.63-18.59-43.089-15.436-7.817,1.6-14.742,6.092-20.928,11.146q-1.851,1.51-3.641,3.1a54.7,54.7,0,0,0-5.582-.137c-.13,0-.262,0-.394.008-.335.011-.67.027-1,.044-.21.012-.42.022-.629.037q-.438.027-.875.062l-.783.068c-.252.024-.5.047-.757.076-.327.035-.654.074-.981.115-.192.025-.383.045-.575.072q-1.6.219-3.183.53l-.333.071c-.419.085-.837.173-1.253.268-.147.034-.292.069-.438.1q-.573.135-1.142.282c-.157.041-.315.082-.471.125-.374.1-.746.207-1.118.314-.151.045-.3.088-.455.136-.391.117-.78.241-1.168.368-.128.041-.255.081-.383.124-.511.173-1.02.349-1.527.539C81.319,66.169,68.255,80.872,62.245,97.81s-5.319,35.836.052,52.978a87.537,87.537,0,0,0,14.19,27.669c15.3,19.636,40,30.815,64.842,32.349q1.347.081,2.692.127c.3.011.6.017.9.025q.916.024,1.833.033c.327,0,.655.006.981.006.7,0,1.407-.006,2.111-.019.18,0,.36,0,.541-.01q1.44-.036,2.875-.106a73,73,0,0,0,17.821,1.03c7.006-.469,14.26-2.047,19.658-6.539a23.9,23.9,0,0,0,3.787-4c.3-.125.607-.255.911-.38C195.688,200.864,195.94,200.761,196.192,200.652Z" fill="#d8e081"/>
  </g>
  <g id="Group_7121" data-name="Group 7121" transform="translate(-29.745 -30.957)" opacity="0.4">
    <path id="Path_3303" data-name="Path 3303" d="M217.869,58.717A20.6,20.6,0,0,1,229.193,56.8c11.223,1.207,12.915-14.786,1.841-16.83-6.024-1.114-12.243,2.66-15.8,7.3-4.616,6.025-5.724,13.275-7.345,20.479.773-3.435,6.23-7.06,9.08-8.573Q217.419,58.932,217.869,58.717Z" fill="#d8e081"/>
  </g>
  <g id="Group_7122" data-name="Group 7122" transform="translate(-29.745 -30.957)" opacity="0.4">
    <path id="Path_3304" data-name="Path 3304" d="M101.1,47.932c2.472-3.359,4.26-7.922,2.347-11.627-2.055-3.987-7.236-4.982-11.715-5.223-6.982-.377-14.17-.016-20.628,2.664s-12.118,8.01-13.752,14.81c-.942,3.913-.52,8.011-.094,12.013.72,6.738,5,48.533,13.922,26.365,3.2-7.946,3.1-13.778,9.525-20.537C87.051,59.722,95.556,55.459,101.1,47.932Z" fill="#d8e081"/>
  </g>
  <path id="Path_3305" data-name="Path 3305" d="M176.477,88.384c2.446.188,5.456,1.881,6.585,10.537s.565,13.174.565,13.174l-11.667-.378S170.4,88.1,174.847,88.336Z" transform="translate(-29.745 -30.957)" fill="#4a90be"/>
  <path id="Path_3306" data-name="Path 3306" d="M170.265,94.594l8.845.187s.941,13.551,3.765,16.936l-11.668.378S164.431,95.911,170.265,94.594Z" transform="translate(-29.745 -30.957)" fill="#6fa6de"/>
  <path id="Path_3307" data-name="Path 3307" d="M227.587,54.879c2.867.22,6.395,2.2,7.719,12.351s.662,15.438.662,15.438l-13.674-.44s-1.834-27.678,3.383-27.4Z" transform="translate(-29.745 -30.957)" fill="#00c4b3" opacity="0.5"/>
  <path id="Path_3308" data-name="Path 3308" d="M220.308,62.156l10.367.221s1.1,15.881,4.411,19.851l-13.677.44S213.471,63.7,220.308,62.156Z" transform="translate(-29.745 -30.957)" fill="#00c4b3"/>
  <path id="Path_3309" data-name="Path 3309" d="M145.485,53.758a13.279,13.279,0,0,0-13.3,11.418L113.3,198.462l112.524.663L223.674,61.489s1.2-6.5,3.767-6.445c4.557-.388-11.325-.5-11.325-.5Z" transform="translate(-29.745 -30.957)" fill="#00c4b3"/>
  <path id="Path_3310" data-name="Path 3310" d="M175.749,88.232c2.912.225,6.5,2.241,7.844,12.549s.673,15.689.673,15.689l-13.9-.449s-1.861-28.124,3.44-27.845Z" transform="translate(-29.745 -30.957)" fill="#87898c"/>
  <path id="Path_3311" data-name="Path 3311" d="M168.354,95.628l10.533.224s1.12,16.136,4.481,20.169l-13.894.449S161.4,97.2,168.354,95.628Z" transform="translate(-29.745 -30.957)" fill="#5d5d5d"/>
  <path id="Path_3312" data-name="Path 3312" d="M240.379,193.17l13.233-6.177-29.938-125.5Z" transform="translate(-29.745 -30.957)" fill="#00c4b3"/>
  <path id="Path_3313" data-name="Path 3313" d="M240.379,193.17,223.674,61.488l2.149,137.637Z" transform="translate(-29.745 -30.957)" fill="#00c4b3" opacity="0.5"/>
  <path id="Path_3314" data-name="Path 3314" d="M225.823,199.125,239.5,186.993h14.115Z" transform="translate(-29.745 -30.957)" fill="#00c4b3"/>
  <path id="Path_3315" data-name="Path 3315" d="M203.79,211.479c0,2.668-30.162,4.834-67.369,4.834s-67.371-2.166-67.371-4.834,30.165-4.84,67.371-4.84S203.79,208.8,203.79,211.479Z" transform="translate(-29.745 -30.957)" fill="#a0bcff" opacity="0.3"/>
  <path id="Path_3316" data-name="Path 3316" d="M106.425,87.426A11.334,11.334,0,0,0,95.076,97.17L78.959,210.9l96.011.563L173.138,94.023s1.021-5.544,3.215-5.5c3.886-.328-9.665-.428-9.665-.428Z" transform="translate(-29.745 -30.957)" fill="#e2e2e2"/>
  <path id="Path_3317" data-name="Path 3317" d="M187.392,206.379l11.29-5.27L173.138,94.024Z" transform="translate(-29.745 -30.957)" fill="#87898c"/>
  <path id="Path_3318" data-name="Path 3318" d="M187.392,206.379,173.138,94.024l1.832,117.435Z" transform="translate(-29.745 -30.957)" fill="#5d5d5d"/>
  <path id="Path_3319" data-name="Path 3319" d="M212.852,122.533a12.753,12.753,0,1,1-12.752-12.75A12.754,12.754,0,0,1,212.852,122.533Z" transform="translate(-29.745 -30.957)" fill="#fff" opacity="0.3"/>
  <path id="Path_3320" data-name="Path 3320" d="M225.852,160.539a8.751,8.751,0,1,1-8.751-8.751A8.75,8.75,0,0,1,225.852,160.539Z" transform="translate(-29.745 -30.957)" fill="#fff" opacity="0.3"/>
  <path id="Path_3321" data-name="Path 3321" d="M174.97,211.459l11.667-10.35h12.045Z" transform="translate(-29.745 -30.957)" fill="#5d5d5d"/>
  <g id="Group_7136" data-name="Group 7136" transform="translate(-29.745 -30.957)">
    <g id="Group_7124" data-name="Group 7124" opacity="0.4">
      <g id="Group_7123" data-name="Group 7123">
        <path id="Path_3322" data-name="Path 3322" d="M152.6,140.074a20.629,20.629,0,1,1-20.626-20.628A20.626,20.626,0,0,1,152.6,140.074Z" fill="#0cd6e5"/>
      </g>
    </g>
    <g id="Group_7129" data-name="Group 7129">
      <g id="Group_7126" data-name="Group 7126">
        <g id="Group_7125" data-name="Group 7125">
          <path id="Path_3323" data-name="Path 3323" d="M106.444,138.374h-1.615a3.738,3.738,0,0,1-3.9-3.544v-5.662a1.068,1.068,0,0,1,2.136,0v5.662a1.617,1.617,0,0,0,1.762,1.408h1.615a1.615,1.615,0,0,0,1.762-1.408v-5.662a1.068,1.068,0,0,1,2.135,0v5.662A3.737,3.737,0,0,1,106.444,138.374Z" fill="#0cd6e5"/>
        </g>
      </g>
      <g id="Group_7128" data-name="Group 7128">
        <g id="Group_7127" data-name="Group 7127">
          <path id="Path_3324" data-name="Path 3324" d="M105.636,154.3a1.071,1.071,0,0,1-1.069-1.07V129.168a1.069,1.069,0,0,1,2.137,0v24.063A1.071,1.071,0,0,1,105.636,154.3Z" fill="#0cd6e5"/>
        </g>
      </g>
    </g>
    <g id="Group_7134" data-name="Group 7134">
      <g id="Group_7131" data-name="Group 7131">
        <g id="Group_7130" data-name="Group 7130">
          <path id="Path_3325" data-name="Path 3325" d="M158.6,153.514a1.066,1.066,0,0,1-1.067-1.068V138.9a1.067,1.067,0,0,1,2.134,0v13.548A1.067,1.067,0,0,1,158.6,153.514Z" fill="#0cd6e5"/>
        </g>
      </g>
      <g id="Group_7133" data-name="Group 7133">
        <g id="Group_7132" data-name="Group 7132">
          <path id="Path_3326" data-name="Path 3326" d="M158.607,139.641c-2.512,0-4.48-2.9-4.48-6.6s1.968-6.594,4.48-6.594,4.483,2.9,4.483,6.594S161.121,139.641,158.607,139.641Z" fill="#0cd6e5"/>
        </g>
      </g>
    </g>
    <path id="Path_3327" data-name="Path 3327" d="M131.976,125.786a14.287,14.287,0,1,0,14.285,14.288A14.289,14.289,0,0,0,131.976,125.786Zm0,26.632a12.344,12.344,0,1,1,12.339-12.344A12.343,12.343,0,0,1,131.976,152.418Z" fill="#0cd6e5"/>
    <g id="Group_7135" data-name="Group 7135" style="mix-blend-mode: soft-light;isolation: isolate">
      <path id="Path_3328" data-name="Path 3328" d="M161.454,132.564c0,2.447-.637,4.428-1.423,4.428s-1.424-1.981-1.424-4.428.638-4.423,1.424-4.423S161.454,130.121,161.454,132.564Z" fill="#0cd6e5"/>
    </g>
  </g>
  <path id="Path_3329" data-name="Path 3329" d="M177.912,215.085c0,2.928-33.167,5.3-74.082,5.3s-74.085-2.374-74.085-5.3,33.169-5.306,74.085-5.306S177.912,212.156,177.912,215.085Z" transform="translate(-29.745 -30.957)" fill="#c8e7eb"/>
  <path id="Path_3330" data-name="Path 3330" d="M64.076,195.217s45.462-18.87,48.963-18.87,24.054,34.9,24.054,34.9,6.723.752,7.812,3.422L131.216,213.5a17.852,17.852,0,0,0-3.309-5.261c-6.695-7.514-12.81-9.671-16.982-16.427L78.71,205.4S60.652,201.9,64.076,195.217Z" transform="translate(-29.745 -30.957)" fill="#87898c"/>
  <path id="Path_3331" data-name="Path 3331" d="M130.472,211.867a2.48,2.48,0,0,0,1.3,2.311l12.937.973a.289.289,0,0,0,.271-.436c-1.238-2.122-4.712-2.925-6.59-3.266C135.638,213.155,130.472,211.867,130.472,211.867Z" transform="translate(-29.745 -30.957)" fill="#292c54"/>
  <path id="Path_3332" data-name="Path 3332" d="M53.4,190.992s-10.032,20.86,7.083,21.668,43.387.15,48.274.4,37.776,2.826,37.776,2.826l7.662-9.782a.253.253,0,0,0-.269-.4c-2.039.57-7.76,2.408-9.865,5.551l-32.019-8.623Z" transform="translate(-29.745 -30.957)" fill="#5d5d5d"/>
  <path id="Path_3333" data-name="Path 3333" d="M64.987,151.113c-.57-.012-6.92,5.068-6.92,5.068s8.438-7.638,8.05-15.316,3.085-5.074,6.629-2.753c2.107,1.38,1.575,6.641,2.294,9.13.549,1.9,2.167,4.291,1.867,6.332-.61,4.138-3.7-.566-5.756-1.635C68.911,150.779,67.088,151.147,64.987,151.113Z" transform="translate(-29.745 -30.957)" fill="#f9b973"/>
  <path id="Path_3334" data-name="Path 3334" d="M66.946,143.193c-3.718-3.872-6.889-11.557-5.582-16.875,1.334-5.445,4.977-6.663,10.043-4.255,4.978,2.371,13.932,15.209,6.3,18.483-1.941.831-4.281.47-6.012,1.8Z" transform="translate(-29.745 -30.957)" fill="#f9b973"/>
  <path id="Path_3335" data-name="Path 3335" d="M76.876,127.4l4.316,4.085-3.25,2.188Z" transform="translate(-29.745 -30.957)" fill="#f9b973"/>
  <path id="Path_3336" data-name="Path 3336" d="M66.638,146.328s6.037,3.018,9.056,6.289S77.748,159.43,77.748,164s-.043,5.723-1.8,11.26S71.391,194,71.391,194s-14.9,1.471-18.577.537S46.511,154.376,66.638,146.328Z" transform="translate(-29.745 -30.957)" fill="#e9ad3d"/>
  <path id="Path_3337" data-name="Path 3337" d="M70.6,129.631l-5.828,5.032,9.271,10.331,5.3-5.032Z" transform="translate(-29.745 -30.957)" fill="#393f67"/>
  <path id="Path_3338" data-name="Path 3338" d="M65.21,149.061c-4.231,3.261-2.637,9.351,3.165,22.377s11.359,13.421,12.949,12.627c11.921-9.535-6.371-37.446-3.311-39.6s-2.491-7.984-.794-6.887a3.386,3.386,0,0,0-1.325-1.854c-1.078-.747.313-3.712-5.034,2.118l7.285,35.1s-1.838-8.736-2.769-12.589C73.347,151.93,68.487,146.539,65.21,149.061Z" transform="translate(-29.745 -30.957)" fill="#ffcc8b"/>
  <path id="Path_3339" data-name="Path 3339" d="M68.08,130.368c-3.21-1.675-1.465,2.894-1.349,3.665a5.77,5.77,0,0,1-1.528,4.852c-3.274,3.886-5.845-.393-7.046-4-2.692-8.052,3.276-15.772,10.687-16.572a9.138,9.138,0,0,0,.356,2.735c2.93-1.222,8.551-6.753,9.327.052.555,4.857-6.434,5.054-8.836,8.143Z" transform="translate(-29.745 -30.957)" fill="#144998"/>
  <path id="Path_3340" data-name="Path 3340" d="M79.325,151.338c-3.17.9-4.869.561-5.61.264l4.43,21.338s-1.838-8.736-2.769-12.589c-2.029-8.421-6.889-13.812-10.166-11.29-4.231,3.261-2.637,9.351,3.165,22.377s11.359,13.421,12.949,12.627C89.915,177.192,82.813,160.778,79.325,151.338Z" transform="translate(-29.745 -30.957)" fill="#f7b759"/>
  <path id="Path_3341" data-name="Path 3341" d="M75.9,151.909a5.667,5.667,0,0,1-2.182-.307L75.9,162.119c1.994,7.53,4.013,14.37,4.013,14.37C81.92,166.691,78.492,157.255,75.9,151.909Z" transform="translate(-29.745 -30.957)" fill="#e0982f"/>
  <path id="Path_3342" data-name="Path 3342" d="M148.122,207.109a44.512,44.512,0,0,1-3.628,7.5,1.942,1.942,0,0,0-.165.282l2.416.193,7.6-10.074a.254.254,0,0,0,.017-.277.26.26,0,0,0-.248-.131,11.384,11.384,0,0,0-5.569,2.185C148.546,206.795,148.125,207.1,148.122,207.109Z" transform="translate(-29.745 -30.957)" fill="#020a36"/>
  <g id="Group_7143" data-name="Group 7143" transform="translate(-29.745 -30.957)">
    <g id="Group_7139" data-name="Group 7139">
      <g id="Group_7137" data-name="Group 7137">
        <path id="Path_3343" data-name="Path 3343" d="M215.868,198.856s11.616-.629,11.63-2.99c.011-1.837-7.1-.283-7.1-.283s7.774-2.255,11.366-4.1a6.3,6.3,0,0,0,2.144-1.536,2.271,2.271,0,0,0,.346-2.477c-.6-1.036-2.058-1.119-3.247-.975-4.786.576-8.15,3.136-12.458,5.3a39.3,39.3,0,0,0,8.588-5.957c2.416-2.158,5.227-4.184,6.837-7.071,1.01-1.807,1.411-4.479-.376-5.966-1.733-1.443-4.217-.769-6.118-.1a24.954,24.954,0,0,0-12.535,9.9,43.17,43.17,0,0,0,1.768-6.52c.168-.895.23-1.994-.508-2.523-.957-.686-2.234.231-2.979,1.142a22.522,22.522,0,0,0-4.027,7.492c.588-6.1,1.167-12.317-.158-18.3a9.655,9.655,0,0,0-1.576-3.856,4.184,4.184,0,0,0-3.61-1.759,5.479,5.479,0,0,0-3.287,2.069,18.18,18.18,0,0,0-.57,23.568,25.151,25.151,0,0,0-4.752-3.891c-.392-.245-.964-.457-1.257-.1a.932.932,0,0,0-.126.683c.267,2.9,2.213,5.332,4.072,7.571a18.811,18.811,0,0,0-15.5-6.411,2.239,2.239,0,0,0-1.847.814,1.917,1.917,0,0,0-.172,1.184c.31,2.907,2.875,5.016,5.4,6.5,2.123,1.244,4.358,2.285,6.588,3.323a18.194,18.194,0,0,0-3.854-.137,1.071,1.071,0,0,0-.8.3c-.339.439.138,1.039.587,1.363a17.136,17.136,0,0,0,11.249,3.161" fill="#e0ecb6"/>
      </g>
      <g id="Group_7138" data-name="Group 7138">
        <path id="Path_3344" data-name="Path 3344" d="M229.059,177.168c.141-.1.283.124.145.228a65.582,65.582,0,0,0-10.137,9.438,78.774,78.774,0,0,0-7.866,11.4.129.129,0,0,1-.228-.122c3.955-8.3,10.689-15.592,18.086-20.941Zm-16.719,3a44.1,44.1,0,0,0-2.969,18.144.115.115,0,0,0,.23-.009,55.664,55.664,0,0,1,3.049-18.018c.065-.175-.24-.292-.31-.117Zm-7.355-12.014a84.252,84.252,0,0,0,2.481,30.307c.045.162.275.081.245-.077a133.332,133.332,0,0,1-2.358-15.313,127.923,127.923,0,0,1-.192-14.9c.005-.1-.165-.119-.176-.018Zm-9.024,14.917c3,4.26,6.321,12.141,10.26,15.576a.163.163,0,0,0,.22-.24c-3.558-3.914-7.047-11.252-10.24-15.491-.107-.144-.346,0-.24.155Zm32.318,6.6c-5.949,2.682-12.08,5.838-17.121,10.031-.156.13,0,.4.177.276,5.55-3.685,10.919-7.311,17.02-10.063.15-.067.073-.312-.076-.244Zm-36.986-.736c4.332,2.588,8.963,8.109,13.685,9.914.148.056.27-.153.12-.226-4.577-2.237-9.253-7.39-13.68-9.923-.149-.084-.271.149-.125.235Z" fill="#a2d45e" stroke="#a2d45e" stroke-miterlimit="10" stroke-width="0.25"/>
      </g>
    </g>
    <g id="Group_7142" data-name="Group 7142">
      <g id="Group_7140" data-name="Group 7140">
        <rect id="Rectangle_3213" data-name="Rectangle 3213" width="25.345" height="21.195" transform="translate(196.762 198.164)" fill="#00b0c4"/>
      </g>
      <g id="Group_7141" data-name="Group 7141">
        <rect id="Rectangle_3214" data-name="Rectangle 3214" width="4.982" height="21.195" transform="translate(217.125 198.164)" fill="#079aa3"/>
      </g>
    </g>
  </g>
</svg>
