<svg xmlns="http://www.w3.org/2000/svg" width="24.106" height="27.589" viewBox="0 0 24.106 27.589"><defs><style>.a{fill:#05acc5;stroke:#707070;}.a,.b{stroke-width:2px;}.b{fill:none;stroke:#02339f;stroke-miterlimit:22.926;}</style></defs><g transform="translate(-2404.455 -1466.174)"><rect class="a" width="14.7" height="25.476" transform="translate(2406.488 1467.174)"/><line class="b" x2="24.106" transform="translate(2404.455 1492.763)"/><path class="b" d="M2415.383,1493.258v-25.476h14.747v25.476" transform="translate(-8.896 -0.495)"/><path class="b" d="M2496.454,1490.655h4.963v21.222" transform="translate(-74.889 -19.114)"/><path class="b" d="M2447.659,1582.711v-4.632h2.741v4.632" transform="translate(-35.169 -90.278)"/><path class="b" d="M2433.427,1485.323v-1.276m4.018,1.276v-1.276m4.018,1.276v-1.276m-8.035,5.719v-1.323m4.018,1.323v-1.323m4.018,1.323v-1.323m-8.035,5.766v-1.323m4.018,1.323v-1.323m4.018,1.323v-1.323m-8.035,5.766v-1.323m4.018,1.323v-1.323m4.018,1.323v-1.323m-8.035,5.766v-1.323m8.035,1.323v-1.323m5.908-12.005v-1.323m0,5.766v-1.323m0,5.766v-1.323m0,5.766v-1.323" transform="translate(-23.584 -13.735)"/></g></svg>