<svg id="Component_35_1" data-name="Component 35 – 1" xmlns="http://www.w3.org/2000/svg" xmlns:xlink="http://www.w3.org/1999/xlink" width="205.359" height="122.169" viewBox="0 0 205.359 122.169">
  <defs>
    <clipPath id="clip-path">
      <path id="Path_3053" data-name="Path 3053" d="M231.364,161.463c0,7.108-34.752,20.993-77.621,20.993s-77.621-13.885-77.621-20.993Z" fill="#d9e9eb"/>
    </clipPath>
  </defs>
  <g id="Group_7002" data-name="Group 7002" transform="translate(-55.933 -60.287)">
    <g id="Group_6894" data-name="Group 6894">
      <path id="Path_2901" data-name="Path 2901" d="M145.026,97.508c-41.858,0-75.314,2.886-75.314,7.013,0,0,10.167,6.732,75.314,6.732,68.354,0,75.324-6.732,75.324-6.732C220.35,100.394,186.889,97.508,145.026,97.508Z" fill="#5d5d5d"/>
      <path id="Path_2902" data-name="Path 2902" d="M213.076,104.144c0,3.026-30.227,4.825-68.05,4.825s-68.048-1.335-68.048-4.825c0-2.669,30.23-4.829,68.048-4.829S213.076,101.475,213.076,104.144Z" fill="#5d5d5d"/>
    </g>
    <path id="Path_2903" data-name="Path 2903" d="M84.4,114.229l60.641-52.712,60.641,52.712Z" fill="#303721"/>
    <g id="Group_6951" data-name="Group 6951">
      <g id="Group_6895" data-name="Group 6895">
        <path id="Path_2904" data-name="Path 2904" d="M140.564,61.19a5,5,0,0,0,5.611,8.269c2.139-1.344,2.65-4.788,1.135-7.2S142.7,59.844,140.564,61.19Z" fill="#9b9b5b"/>
        <path id="Path_2905" data-name="Path 2905" d="M141.22,61.508a4.209,4.209,0,0,0-.9,5.8,4.06,4.06,0,0,0,5.648,1.3c1.783-1.133,2.19-4.074.906-6.144A3.983,3.983,0,0,0,141.22,61.508Z" fill="#bbc484"/>
      </g>
      <g id="Group_6896" data-name="Group 6896">
        <path id="Path_2906" data-name="Path 2906" d="M129.177,93.415c2.21,1.4,2.721,4.555,1.142,7.044a5.052,5.052,0,0,1-6.982,1.5c-2.211-1.4-2.728-4.969-1.148-7.458S126.967,92.012,129.177,93.415Z" fill="#9b9b5b"/>
        <path id="Path_2907" data-name="Path 2907" d="M128.5,93.742c1.841,1.183,2.25,3.876.912,6.012a4.2,4.2,0,0,1-5.853,1.32c-1.843-1.18-2.252-4.228-.915-6.365S126.655,92.556,128.5,93.742Z" fill="#bbc484"/>
      </g>
      <g id="Group_6897" data-name="Group 6897">
        <path id="Path_2908" data-name="Path 2908" d="M149.509,62.6a4.982,4.982,0,0,1-.337,9.945c-2.516,0-4.775-2.628-4.778-5.465S146.992,62.6,149.509,62.6Z" fill="#9b9b5b"/>
        <path id="Path_2909" data-name="Path 2909" d="M149.125,63.213a4.2,4.2,0,0,1,3.844,4.412,4.046,4.046,0,0,1-4.072,4.089c-2.1-.009-4.009-2.272-4.027-4.7A3.967,3.967,0,0,1,149.125,63.213Z" fill="#bbc484"/>
      </g>
      <g id="Group_6898" data-name="Group 6898">
        <path id="Path_2910" data-name="Path 2910" d="M139.842,65.783c2.483.784,3.781,3.688,2.9,6.487a5.029,5.029,0,0,1-6.336,3.221c-2.483-.782-3.89-4.085-3.007-6.884S137.357,65,139.842,65.783Z" fill="#9b9b5b"/>
        <path id="Path_2911" data-name="Path 2911" d="M139.272,66.271c2.073.669,3.155,3.156,2.413,5.552a4.188,4.188,0,0,1-5.3,2.765c-2.074-.668-3.246-3.494-2.505-5.894S137.2,65.6,139.272,66.271Z" fill="#bbc484"/>
      </g>
      <g id="Group_6899" data-name="Group 6899">
        <path id="Path_2912" data-name="Path 2912" d="M95.653,99.443a4.9,4.9,0,0,0,7.962,5.7c1.511-1.961.813-5.3-1.4-7S97.164,97.481,95.653,99.443Z" fill="#9b9b5b"/>
        <path id="Path_2913" data-name="Path 2913" d="M96.365,99.515a4.123,4.123,0,0,0,1.14,5.639,3.977,3.977,0,0,0,5.629-.725c1.254-1.648.631-4.488-1.252-5.954A3.9,3.9,0,0,0,96.365,99.515Z" fill="#bbc484"/>
      </g>
      <g id="Group_6900" data-name="Group 6900">
        <path id="Path_2914" data-name="Path 2914" d="M190.193,102.153a4.931,4.931,0,0,0,9.052,3.884c1.063-2.253-.346-5.383-2.885-6.579S191.254,99.9,190.193,102.153Z" fill="#9b9b5b"/>
        <path id="Path_2915" data-name="Path 2915" d="M190.906,102.071a4.151,4.151,0,0,0,2.334,5.3,4.006,4.006,0,0,0,5.378-1.927c.877-1.889-.347-4.547-2.513-5.584A3.927,3.927,0,0,0,190.906,102.071Z" fill="#bbc484"/>
      </g>
      <g id="Group_6901" data-name="Group 6901">
        <path id="Path_2916" data-name="Path 2916" d="M126.57,82.309a4.827,4.827,0,0,1-8.117,5.2c-1.386-2.005-.532-5.255,1.729-6.816S125.185,80.3,126.57,82.309Z" fill="#9b9b5b"/>
        <path id="Path_2917" data-name="Path 2917" d="M125.866,82.342a4.061,4.061,0,0,1-1.4,5.49,3.92,3.92,0,0,1-5.5-1c-1.149-1.684-.395-4.446,1.531-5.794A3.84,3.84,0,0,1,125.866,82.342Z" fill="#bbc484"/>
      </g>
      <g id="Group_6902" data-name="Group 6902">
        <path id="Path_2918" data-name="Path 2918" d="M118.789,83.8a4.979,4.979,0,0,1-6.925,7.139c-1.865-1.686-1.772-5.15.13-7.252S116.924,82.117,118.789,83.8Z" fill="#9b9b5b"/>
        <path id="Path_2919" data-name="Path 2919" d="M118.092,84a4.193,4.193,0,0,1-.115,5.846,4.045,4.045,0,0,1-5.76.3c-1.552-1.419-1.444-4.373.172-6.179A3.963,3.963,0,0,1,118.092,84Z" fill="#bbc484"/>
      </g>
      <g id="Group_6903" data-name="Group 6903">
        <path id="Path_2920" data-name="Path 2920" d="M163.814,72.524a4.865,4.865,0,0,1-8.709,4.309c-1.166-2.163.052-5.321,2.492-6.634S162.649,70.361,163.814,72.524Z" fill="#9b9b5b"/>
        <path id="Path_2921" data-name="Path 2921" d="M163.106,72.479a4.092,4.092,0,0,1-2.015,5.344,3.95,3.95,0,0,1-5.4-1.61c-.964-1.814.1-4.5,2.177-5.633A3.872,3.872,0,0,1,163.106,72.479Z" fill="#bbc484"/>
      </g>
      <g id="Group_6904" data-name="Group 6904">
        <path id="Path_2922" data-name="Path 2922" d="M179.218,85.732a4.864,4.864,0,0,1-5.651,7.9c-2.046-1.359-2.461-4.718-.928-7.026S177.172,84.372,179.218,85.732Z" fill="#9b9b5b"/>
        <path id="Path_2923" data-name="Path 2923" d="M178.574,86.025a4.1,4.1,0,0,1,.74,5.663,3.951,3.951,0,0,1-5.522,1.123c-1.705-1.145-2.03-4.012-.732-5.994A3.872,3.872,0,0,1,178.574,86.025Z" fill="#bbc484"/>
      </g>
      <g id="Group_6905" data-name="Group 6905">
        <path id="Path_2924" data-name="Path 2924" d="M131.661,68.728c2.546.376,4.267,3.008,3.844,5.878a4.972,4.972,0,0,1-5.68,4.137c-2.547-.374-4.437-3.378-4.014-6.249S129.114,68.352,131.661,68.728Z" fill="#9b9b5b"/>
        <path id="Path_2925" data-name="Path 2925" d="M131.18,69.295c2.13.328,3.574,2.586,3.224,5.041a4.136,4.136,0,0,1-4.734,3.527c-2.126-.326-3.715-2.9-3.367-5.358S129.052,68.967,131.18,69.295Z" fill="#bbc484"/>
      </g>
      <g id="Group_6906" data-name="Group 6906">
        <path id="Path_2926" data-name="Path 2926" d="M131.923,77.481a4.827,4.827,0,0,1-8.381,4.767c-1.28-2.075-.255-5.274,2.087-6.716S130.646,75.4,131.923,77.481Z" fill="#9b9b5b"/>
        <path id="Path_2927" data-name="Path 2927" d="M131.222,77.477a4.066,4.066,0,0,1-1.694,5.411,3.923,3.923,0,0,1-5.442-1.286c-1.06-1.745-.158-4.462,1.836-5.708A3.845,3.845,0,0,1,131.222,77.477Z" fill="#bbc484"/>
        <path id="Path_2928" data-name="Path 2928" d="M130.263,77.792A2.239,2.239,0,0,1,126.376,80a2.407,2.407,0,0,1,.968-3.115A2.147,2.147,0,0,1,130.263,77.792Z" fill="#dce0ae"/>
      </g>
      <g id="Group_6907" data-name="Group 6907">
        <path id="Path_2929" data-name="Path 2929" d="M146.076,65.981a4.674,4.674,0,0,1-3.288,8.738c-2.237-.753-3.454-3.77-2.6-6.292S143.841,65.226,146.076,65.981Z" fill="#9b9b5b"/>
        <path id="Path_2930" data-name="Path 2930" d="M145.552,66.414a3.933,3.933,0,0,1,2.088,5.074,3.794,3.794,0,0,1-4.846,2.41c-1.869-.639-2.881-3.221-2.168-5.382A3.722,3.722,0,0,1,145.552,66.414Z" fill="#bbc484"/>
        <path id="Path_2931" data-name="Path 2931" d="M145.034,67.241a2.168,2.168,0,0,1-1.525,4.054,2.334,2.334,0,0,1-1.208-2.92A2.077,2.077,0,0,1,145.034,67.241Z" fill="#dce0ae"/>
      </g>
      <g id="Group_6908" data-name="Group 6908">
        <path id="Path_2932" data-name="Path 2932" d="M156.559,70.467a4.827,4.827,0,0,1-8.382,4.766c-1.28-2.075-.254-5.275,2.087-6.716S155.279,68.389,156.559,70.467Z" fill="#9b9b5b"/>
        <path id="Path_2933" data-name="Path 2933" d="M155.856,70.462a4.065,4.065,0,0,1-1.694,5.411,3.922,3.922,0,0,1-5.442-1.287c-1.059-1.742-.157-4.462,1.836-5.707A3.844,3.844,0,0,1,155.856,70.462Z" fill="#bbc484"/>
        <path id="Path_2934" data-name="Path 2934" d="M154.9,70.777a2.239,2.239,0,0,1-3.887,2.213,2.409,2.409,0,0,1,.968-3.117A2.147,2.147,0,0,1,154.9,70.777Z" fill="#dce0ae"/>
      </g>
      <g id="Group_6909" data-name="Group 6909">
        <path id="Path_2935" data-name="Path 2935" d="M114.576,92.568a5.024,5.024,0,0,1-8.387,5.512c-1.467-2.07-.616-5.463,1.718-7.115S113.109,90.5,114.576,92.568Z" fill="#9b9b5b"/>
        <path id="Path_2936" data-name="Path 2936" d="M113.846,92.612a4.228,4.228,0,0,1-1.4,5.731,4.078,4.078,0,0,1-5.737-.973c-1.219-1.738-.464-4.622,1.524-6.048A4,4,0,0,1,113.846,92.612Z" fill="#bbc484"/>
      </g>
      <g id="Group_6910" data-name="Group 6910">
        <path id="Path_2937" data-name="Path 2937" d="M170.032,76.157a4.769,4.769,0,0,1-6.1,7.318c-1.9-1.477-2.065-4.793-.4-6.938S168.13,74.679,170.032,76.157Z" fill="#9b9b5b"/>
        <path id="Path_2938" data-name="Path 2938" d="M169.382,76.4a4.016,4.016,0,0,1,.31,5.593,3.873,3.873,0,0,1-5.48.7c-1.586-1.246-1.7-4.074-.283-5.917A3.8,3.8,0,0,1,169.382,76.4Z" fill="#bbc484"/>
      </g>
      <g id="Group_6911" data-name="Group 6911">
        <path id="Path_2939" data-name="Path 2939" d="M151,74.589c2.489.839,3.741,3.794,2.795,6.6a5.076,5.076,0,0,1-6.454,3.124c-2.49-.838-3.845-4.2-2.9-7S148.508,73.748,151,74.589Z" fill="#9b9b5b"/>
        <path id="Path_2940" data-name="Path 2940" d="M150.412,75.07c2.077.716,3.12,3.245,2.323,5.647a4.219,4.219,0,0,1-5.392,2.682c-2.079-.71-3.206-3.584-2.411-5.99S148.333,74.353,150.412,75.07Z" fill="#bbc484"/>
        <path id="Path_2941" data-name="Path 2941" d="M149.837,75.99a2.414,2.414,0,0,1-1.7,4.513,2.6,2.6,0,0,1-1.346-3.25A2.313,2.313,0,0,1,149.837,75.99Z" fill="#dce0ae"/>
      </g>
      <g id="Group_6912" data-name="Group 6912">
        <path id="Path_2942" data-name="Path 2942" d="M125.749,84.108a4.982,4.982,0,0,0,.337,9.946c2.516,0,4.775-2.627,4.778-5.463S128.267,84.111,125.749,84.108Z" fill="#9b9b5b"/>
        <path id="Path_2943" data-name="Path 2943" d="M126.133,84.725a4.194,4.194,0,0,0-3.844,4.411,4.048,4.048,0,0,0,4.071,4.091c2.106-.01,4.01-2.272,4.028-4.7A3.967,3.967,0,0,0,126.133,84.725Z" fill="#bbc484"/>
        <path id="Path_2944" data-name="Path 2944" d="M126.372,85.736a2.312,2.312,0,0,0,.155,4.616,2.491,2.491,0,0,0,2.218-2.536A2.216,2.216,0,0,0,126.372,85.736Z" fill="#dce0ae"/>
      </g>
      <g id="Group_6913" data-name="Group 6913">
        <path id="Path_2945" data-name="Path 2945" d="M119.981,87.141a5.014,5.014,0,0,1-3.824,9.256c-2.375-.882-3.577-4.161-2.578-6.836S117.607,86.254,119.981,87.141Z" fill="#9b9b5b"/>
        <path id="Path_2946" data-name="Path 2946" d="M119.4,87.587A4.218,4.218,0,0,1,121.47,93.1a4.073,4.073,0,0,1-5.281,2.419c-1.981-.75-2.979-3.554-2.14-5.846A3.99,3.99,0,0,1,119.4,87.587Z" fill="#bbc484"/>
        <path id="Path_2947" data-name="Path 2947" d="M118.819,88.455a2.327,2.327,0,0,1-1.774,4.3,2.507,2.507,0,0,1-1.2-3.172A2.23,2.23,0,0,1,118.819,88.455Z" fill="#dce0ae"/>
      </g>
      <g id="Group_6914" data-name="Group 6914">
        <path id="Path_2948" data-name="Path 2948" d="M172.743,83.607a4.755,4.755,0,0,1-7.679,5.59c-1.483-1.892-.831-5.137,1.3-6.806S171.264,81.715,172.743,83.607Z" fill="#9b9b5b"/>
        <path id="Path_2949" data-name="Path 2949" d="M172.055,83.682a4,4,0,0,1-1.062,5.48,3.861,3.861,0,0,1-5.469-.66c-1.229-1.59-.646-4.349,1.168-5.787A3.785,3.785,0,0,1,172.055,83.682Z" fill="#bbc484"/>
      </g>
      <g id="Group_6915" data-name="Group 6915">
        <path id="Path_2950" data-name="Path 2950" d="M180.455,90.058a4.869,4.869,0,0,1-.494,9.714c-2.461-.036-4.625-2.647-4.58-5.419S177.995,90.018,180.455,90.058Z" fill="#9b9b5b"/>
        <path id="Path_2951" data-name="Path 2951" d="M180.07,90.654a4.1,4.1,0,0,1,3.683,4.375,3.956,3.956,0,0,1-4.049,3.93c-2.056-.045-3.88-2.287-3.855-4.657A3.876,3.876,0,0,1,180.07,90.654Z" fill="#bbc484"/>
        <path id="Path_2952" data-name="Path 2952" d="M179.819,91.639a2.259,2.259,0,0,1-.228,4.507,2.434,2.434,0,0,1-2.125-2.515A2.163,2.163,0,0,1,179.819,91.639Z" fill="#dce0ae"/>
      </g>
      <g id="Group_6916" data-name="Group 6916">
        <path id="Path_2953" data-name="Path 2953" d="M173.581,91.061c1.411,2.215.531,5.3-1.966,6.888a5.071,5.071,0,0,1-6.981-1.616c-1.41-2.214-.36-5.675,2.137-7.267S172.172,88.846,173.581,91.061Z" fill="#9b9b5b"/>
        <path id="Path_2954" data-name="Path 2954" d="M172.823,91.068c1.169,1.862.394,4.483-1.732,5.854a4.223,4.223,0,0,1-5.881-1.295c-1.17-1.859-.244-4.8,1.882-6.174S171.656,89.209,172.823,91.068Z" fill="#bbc484"/>
        <path id="Path_2955" data-name="Path 2955" d="M171.8,91.425a2.412,2.412,0,0,1-4.151,2.446,2.6,2.6,0,0,1,.992-3.373A2.315,2.315,0,0,1,171.8,91.425Z" fill="#dce0ae"/>
      </g>
      <g id="Group_6917" data-name="Group 6917">
        <path id="Path_2956" data-name="Path 2956" d="M174.519,95.455a4.719,4.719,0,0,1-1.718,9.269c-2.359-.352-4.1-3.136-3.706-5.792S172.161,95.1,174.519,95.455Z" fill="#9b9b5b"/>
        <path id="Path_2957" data-name="Path 2957" d="M174.073,95.978a3.971,3.971,0,0,1,2.977,4.674,3.833,3.833,0,0,1-4.391,3.256c-1.97-.305-3.434-2.692-3.109-4.968A3.758,3.758,0,0,1,174.073,95.978Z" fill="#bbc484"/>
        <path id="Path_2958" data-name="Path 2958" d="M174.017,98.3a2.189,2.189,0,0,1-.8,4.3,2.357,2.357,0,0,1-1.719-2.688A2.1,2.1,0,0,1,174.017,98.3Z" fill="#dce0ae"/>
      </g>
      <g id="Group_6918" data-name="Group 6918">
        <path id="Path_2959" data-name="Path 2959" d="M103.4,92.127a4.91,4.91,0,0,1,3.539,9.148c-2.28.977-5.346-.536-6.445-3.109S101.122,93.1,103.4,92.127Z" fill="#9b9b5b"/>
        <path id="Path_2960" data-name="Path 2960" d="M103.295,92.833a4.133,4.133,0,0,1,5.19,2.514,3.988,3.988,0,0,1-2.111,5.283c-1.913.806-4.514-.511-5.467-2.7A3.909,3.909,0,0,1,103.295,92.833Z" fill="#bbc484"/>
        <path id="Path_2961" data-name="Path 2961" d="M103.47,93.842a2.279,2.279,0,0,1,1.642,4.246,2.456,2.456,0,0,1-2.992-1.443A2.185,2.185,0,0,1,103.47,93.842Z" fill="#dce0ae"/>
      </g>
      <g id="Group_6919" data-name="Group 6919">
        <path id="Path_2962" data-name="Path 2962" d="M162.311,79.346a4.877,4.877,0,0,1-9.119,3.429c-.949-2.273.581-5.3,3.145-6.372S161.365,77.07,162.311,79.346Z" fill="#9b9b5b"/>
        <path id="Path_2963" data-name="Path 2963" d="M161.611,79.229a4.106,4.106,0,0,1-2.546,5.132,3.96,3.96,0,0,1-5.227-2.144c-.783-1.907.546-4.478,2.735-5.406A3.884,3.884,0,0,1,161.611,79.229Z" fill="#bbc484"/>
        <path id="Path_2964" data-name="Path 2964" d="M160.606,79.394a2.263,2.263,0,0,1-4.232,1.591,2.439,2.439,0,0,1,1.46-2.957A2.171,2.171,0,0,1,160.606,79.394Z" fill="#dce0ae"/>
      </g>
      <g id="Group_6920" data-name="Group 6920">
        <path id="Path_2965" data-name="Path 2965" d="M162.867,84.9a4.911,4.911,0,0,1-4.19,8.869c-2.279-.979-3.295-4.242-2.188-6.811S160.589,83.924,162.867,84.9Z" fill="#9b9b5b"/>
        <path id="Path_2966" data-name="Path 2966" d="M162.279,85.314a4.129,4.129,0,0,1,1.753,5.493,3.984,3.984,0,0,1-5.28,2.11c-1.9-.831-2.741-3.622-1.809-5.823A3.909,3.909,0,0,1,162.279,85.314Z" fill="#bbc484"/>
        <path id="Path_2967" data-name="Path 2967" d="M161.668,86.135a2.278,2.278,0,0,1-1.944,4.115,2.454,2.454,0,0,1-1.016-3.16A2.184,2.184,0,0,1,161.668,86.135Z" fill="#dce0ae"/>
      </g>
      <g id="Group_6921" data-name="Group 6921">
        <path id="Path_2968" data-name="Path 2968" d="M140.715,72.164c2.55.276,4.366,2.83,4.053,5.705a4.952,4.952,0,0,1-5.5,4.336c-2.551-.273-4.549-3.189-4.237-6.064S138.163,71.888,140.715,72.164Z" fill="#9b9b5b"/>
        <path id="Path_2969" data-name="Path 2969" d="M140.258,72.747c2.133.244,3.656,2.436,3.406,4.895a4.123,4.123,0,0,1-4.578,3.694c-2.133-.242-3.813-2.745-3.562-5.205S138.125,72.5,140.258,72.747Z" fill="#bbc484"/>
        <path id="Path_2970" data-name="Path 2970" d="M139.9,73.746a2.356,2.356,0,0,1-.669,4.658,2.536,2.536,0,0,1-1.965-2.815A2.256,2.256,0,0,1,139.9,73.746Z" fill="#dce0ae"/>
      </g>
      <g id="Group_6922" data-name="Group 6922">
        <path id="Path_2971" data-name="Path 2971" d="M133.619,78.114a4.9,4.9,0,0,1-.357,9.79c-2.478,0-4.7-2.6-4.691-5.391S131.142,78.109,133.619,78.114Z" fill="#9b9b5b"/>
        <path id="Path_2972" data-name="Path 2972" d="M133.24,78.721a4.125,4.125,0,0,1,3.772,4.351,3.983,3.983,0,0,1-4.02,4.016c-2.071-.015-3.94-2.246-3.95-4.635A3.9,3.9,0,0,1,133.24,78.721Z" fill="#bbc484"/>
        <path id="Path_2973" data-name="Path 2973" d="M133,79.716a2.275,2.275,0,0,1-.166,4.542,2.45,2.45,0,0,1-2.176-2.5A2.182,2.182,0,0,1,133,79.716Z" fill="#dce0ae"/>
      </g>
      <g id="Group_6923" data-name="Group 6923">
        <path id="Path_2974" data-name="Path 2974" d="M191.4,97.568a4.931,4.931,0,0,1-9.052,3.883c-1.062-2.253.344-5.384,2.885-6.578S190.339,95.315,191.4,97.568Z" fill="#9b9b5b"/>
        <path id="Path_2975" data-name="Path 2975" d="M190.686,97.485a4.15,4.15,0,0,1-2.336,5.3,4,4,0,0,1-5.376-1.926c-.877-1.889.347-4.546,2.513-5.583A3.926,3.926,0,0,1,190.686,97.485Z" fill="#bbc484"/>
        <path id="Path_2976" data-name="Path 2976" d="M189.678,97.694a2.288,2.288,0,0,1-4.2,1.8,2.464,2.464,0,0,1,1.339-3.053A2.194,2.194,0,0,1,189.678,97.694Z" fill="#dce0ae"/>
      </g>
      <g id="Group_6924" data-name="Group 6924">
        <path id="Path_2977" data-name="Path 2977" d="M143.967,81.421c2.5.818,3.78,3.764,2.857,6.583a5.078,5.078,0,0,1-6.431,3.187c-2.5-.816-3.888-4.165-2.967-6.986S141.465,80.6,143.967,81.421Z" fill="#9b9b5b"/>
        <path id="Path_2978" data-name="Path 2978" d="M143.384,81.908c2.088.7,3.153,3.219,2.38,5.633a4.229,4.229,0,0,1-5.375,2.737c-2.087-.695-3.243-3.56-2.47-5.976S141.3,81.21,143.384,81.908Z" fill="#bbc484"/>
        <path id="Path_2979" data-name="Path 2979" d="M142.817,82.836a2.416,2.416,0,0,1-1.658,4.533,2.6,2.6,0,0,1-1.377-3.241A2.318,2.318,0,0,1,142.817,82.836Z" fill="#dce0ae"/>
      </g>
      <g id="Group_6925" data-name="Group 6925">
        <path id="Path_2980" data-name="Path 2980" d="M135.376,87.353c2.54.426,4.21,3.091,3.728,5.954a4.972,4.972,0,0,1-5.759,4.023c-2.54-.425-4.371-3.464-3.891-6.327S132.838,86.928,135.376,87.353Z" fill="#9b9b5b"/>
        <path id="Path_2981" data-name="Path 2981" d="M134.886,87.909c2.121.371,3.521,2.656,3.124,5.105a4.14,4.14,0,0,1-4.8,3.433c-2.12-.367-3.658-2.973-3.261-5.423S132.764,87.54,134.886,87.909Z" fill="#bbc484"/>
        <path id="Path_2982" data-name="Path 2982" d="M134.472,88.891a2.365,2.365,0,0,1-.943,4.628,2.545,2.545,0,0,1-1.805-2.935A2.265,2.265,0,0,1,134.472,88.891Z" fill="#dce0ae"/>
      </g>
      <g id="Group_6926" data-name="Group 6926">
        <path id="Path_2983" data-name="Path 2983" d="M162.064,92.646a4.944,4.944,0,0,1-4.676,8.7c-2.24-1.1-3.091-4.437-1.845-6.961S159.824,91.542,162.064,92.646Z" fill="#9b9b5b"/>
        <path id="Path_2984" data-name="Path 2984" d="M161.451,93.026a4.163,4.163,0,0,1,1.479,5.615,4.015,4.015,0,0,1-5.422,1.845c-1.867-.933-2.566-3.783-1.513-5.947A3.934,3.934,0,0,1,161.451,93.026Z" fill="#bbc484"/>
        <path id="Path_2985" data-name="Path 2985" d="M160.892,94.952a2.293,2.293,0,0,1-2.168,4.035,2.469,2.469,0,0,1-.859-3.231A2.2,2.2,0,0,1,160.892,94.952Z" fill="#dce0ae"/>
      </g>
      <g id="Group_6927" data-name="Group 6927">
        <path id="Path_2986" data-name="Path 2986" d="M129.185,96.755a4.854,4.854,0,0,1-4.287,8.7c-2.235-1.007-3.186-4.248-2.05-6.766S126.949,95.748,129.185,96.755Z" fill="#9b9b5b"/>
        <path id="Path_2987" data-name="Path 2987" d="M128.6,97.149a4.082,4.082,0,0,1,1.643,5.455,3.94,3.94,0,0,1-5.253,2c-1.865-.851-2.65-3.623-1.693-5.784A3.864,3.864,0,0,1,128.6,97.149Z" fill="#bbc484"/>
        <path id="Path_2988" data-name="Path 2988" d="M127.979,97.951a2.252,2.252,0,0,1-1.988,4.034,2.425,2.425,0,0,1-.953-3.139A2.159,2.159,0,0,1,127.979,97.951Z" fill="#dce0ae"/>
      </g>
      <g id="Group_6928" data-name="Group 6928">
        <path id="Path_2989" data-name="Path 2989" d="M152.533,83.516c2.6.229,4.5,2.791,4.236,5.719a5.037,5.037,0,0,1-5.5,4.52c-2.6-.227-4.69-3.152-4.43-6.082S149.935,83.286,152.533,83.516Z" fill="#9b9b5b"/>
        <path id="Path_2990" data-name="Path 2990" d="M152.082,84.117c2.173.205,3.768,2.4,3.56,4.908a4.191,4.191,0,0,1-4.578,3.848c-2.174-.2-3.932-2.713-3.727-5.22S149.909,83.912,152.082,84.117Z" fill="#bbc484"/>
        <path id="Path_2991" data-name="Path 2991" d="M151.74,85.14a2.4,2.4,0,0,1-.585,4.749,2.579,2.579,0,0,1-2.056-2.82A2.3,2.3,0,0,1,151.74,85.14Z" fill="#dce0ae"/>
      </g>
      <g id="Group_6929" data-name="Group 6929">
        <path id="Path_2992" data-name="Path 2992" d="M154.764,92.924a4.712,4.712,0,0,1-7,6.288c-1.652-1.713-1.338-4.978.6-6.839S153.113,91.208,154.764,92.924Z" fill="#9b9b5b"/>
        <path id="Path_2993" data-name="Path 2993" d="M154.092,93.065a3.965,3.965,0,0,1-.49,5.511,3.822,3.822,0,0,1-5.455-.1c-1.374-1.439-1.08-4.22.562-5.822A3.753,3.753,0,0,1,154.092,93.065Z" fill="#bbc484"/>
        <path id="Path_2994" data-name="Path 2994" d="M152.6,94.813a2.186,2.186,0,0,1-3.25,2.916,2.351,2.351,0,0,1,.277-3.172A2.1,2.1,0,0,1,152.6,94.813Z" fill="#dce0ae"/>
      </g>
      <g id="Group_6930" data-name="Group 6930">
        <path id="Path_2995" data-name="Path 2995" d="M145.378,90.078a4.9,4.9,0,0,1-5.193,8.285c-2.141-1.238-2.762-4.59-1.365-7S143.239,88.838,145.378,90.078Z" fill="#9b9b5b"/>
        <path id="Path_2996" data-name="Path 2996" d="M144.748,90.412a4.119,4.119,0,0,1,1.088,5.644,3.972,3.972,0,0,1-5.477,1.465c-1.784-1.044-2.285-3.906-1.1-5.974A3.9,3.9,0,0,1,144.748,90.412Z" fill="#bbc484"/>
        <path id="Path_2997" data-name="Path 2997" d="M144.046,91.154A2.271,2.271,0,0,1,141.636,95,2.443,2.443,0,0,1,141,91.75,2.178,2.178,0,0,1,144.046,91.154Z" fill="#dce0ae"/>
      </g>
      <g id="Group_6931" data-name="Group 6931">
        <path id="Path_2998" data-name="Path 2998" d="M149.052,99.764a4.9,4.9,0,0,1-8.011,5.606c-1.486-1.974-.755-5.3,1.472-6.978S147.566,97.787,149.052,99.764Z" fill="#9b9b5b"/>
        <path id="Path_2999" data-name="Path 2999" d="M148.344,99.826a4.123,4.123,0,0,1-1.2,5.622,3.974,3.974,0,0,1-5.616-.783c-1.236-1.659-.584-4.489,1.312-5.935A3.9,3.9,0,0,1,148.344,99.826Z" fill="#bbc484"/>
        <path id="Path_3000" data-name="Path 3000" d="M147.407,100.236a2.272,2.272,0,0,1-3.718,2.6,2.445,2.445,0,0,1,.683-3.238A2.178,2.178,0,0,1,147.407,100.236Z" fill="#dce0ae"/>
      </g>
      <g id="Group_6932" data-name="Group 6932">
        <path id="Path_3001" data-name="Path 3001" d="M137.761,96.778c2.486.889,3.692,3.879,2.689,6.681a5.1,5.1,0,0,1-6.539,3.023c-2.486-.885-3.788-4.284-2.788-7.086S135.274,95.889,137.761,96.778Z" fill="#9b9b5b"/>
        <path id="Path_3002" data-name="Path 3002" d="M137.165,97.252c2.075.755,3.076,3.314,2.234,5.715a4.241,4.241,0,0,1-5.466,2.6c-2.077-.755-3.159-3.659-2.316-6.061S135.089,96.5,137.165,97.252Z" fill="#bbc484"/>
        <path id="Path_3003" data-name="Path 3003" d="M136.568,98.167a2.424,2.424,0,0,1-1.784,4.5,2.612,2.612,0,0,1-1.294-3.288A2.324,2.324,0,0,1,136.568,98.167Z" fill="#dce0ae"/>
      </g>
      <g id="Group_6933" data-name="Group 6933">
        <path id="Path_3004" data-name="Path 3004" d="M115.545,100.481A4.76,4.76,0,0,1,109.6,107.9c-1.928-1.437-2.152-4.744-.531-6.916S113.618,99.042,115.545,100.481Z" fill="#9b9b5b"/>
        <path id="Path_3005" data-name="Path 3005" d="M114.9,100.732a4.007,4.007,0,0,1,.418,5.575,3.865,3.865,0,0,1-5.456.8c-1.605-1.211-1.767-4.031-.394-5.9A3.791,3.791,0,0,1,114.9,100.732Z" fill="#bbc484"/>
      </g>
      <g id="Group_6934" data-name="Group 6934">
        <path id="Path_3006" data-name="Path 3006" d="M116.32,107.953a4.79,4.79,0,0,1-3.25,9c-2.3-.741-3.592-3.816-2.754-6.413S114.017,107.211,116.32,107.953Z" fill="#9b9b5b"/>
        <path id="Path_3007" data-name="Path 3007" d="M115.787,108.4a4.032,4.032,0,0,1,2.21,5.172,3.889,3.889,0,0,1-4.933,2.537c-1.923-.63-3-3.262-2.294-5.485A3.812,3.812,0,0,1,115.787,108.4Z" fill="#bbc484"/>
      </g>
      <g id="Group_6935" data-name="Group 6935">
        <path id="Path_3008" data-name="Path 3008" d="M95.724,101.669a4.925,4.925,0,0,1-1.663,9.7c-2.466-.335-4.326-3.215-3.947-5.995S93.261,101.331,95.724,101.669Z" fill="#9b9b5b"/>
        <path id="Path_3009" data-name="Path 3009" d="M95.267,102.22a4.145,4.145,0,0,1,3.172,4.837,4,4,0,0,1-4.536,3.459c-2.061-.291-3.624-2.762-3.314-5.141A3.922,3.922,0,0,1,95.267,102.22Z" fill="#bbc484"/>
        <path id="Path_3010" data-name="Path 3010" d="M94.9,103.18a2.285,2.285,0,0,1-.772,4.5,2.461,2.461,0,0,1-1.832-2.781A2.189,2.189,0,0,1,94.9,103.18Z" fill="#dce0ae"/>
      </g>
      <g id="Group_6936" data-name="Group 6936">
        <path id="Path_3011" data-name="Path 3011" d="M179.384,96.91c2.629.03,4.734,2.457,4.7,5.42A5.077,5.077,0,0,1,178.9,107.3c-2.63-.028-4.957-2.806-4.923-5.77S176.754,96.881,179.384,96.91Z" fill="#9b9b5b"/>
        <path id="Path_3012" data-name="Path 3012" d="M178.976,97.55c2.2.039,3.972,2.125,3.959,4.657a4.229,4.229,0,0,1-4.307,4.221c-2.2-.035-4.159-2.422-4.147-4.957S176.776,97.51,178.976,97.55Z" fill="#bbc484"/>
      </g>
      <g id="Group_6937" data-name="Group 6937">
        <path id="Path_3013" data-name="Path 3013" d="M126.758,106.828a4.85,4.85,0,0,1-8.49,4.666c-1.255-2.1-.179-5.3,2.194-6.716S125.5,104.721,126.758,106.828Z" fill="#9b9b5b"/>
        <path id="Path_3014" data-name="Path 3014" d="M126.051,106.814a4.083,4.083,0,0,1-1.779,5.41,3.94,3.94,0,0,1-5.448-1.371c-1.042-1.767-.1-4.486,1.927-5.708A3.861,3.861,0,0,1,126.051,106.814Z" fill="#bbc484"/>
        <path id="Path_3015" data-name="Path 3015" d="M125.085,107.115a2.25,2.25,0,0,1-3.939,2.166,2.425,2.425,0,0,1,1.019-3.117A2.157,2.157,0,0,1,125.085,107.115Z" fill="#dce0ae"/>
      </g>
      <g id="Group_6938" data-name="Group 6938">
        <path id="Path_3016" data-name="Path 3016" d="M191.009,102.974a4.984,4.984,0,0,1-2.047,9.743c-2.481-.43-4.254-3.414-3.767-6.209S188.528,102.541,191.009,102.974Z" fill="#9b9b5b"/>
        <path id="Path_3017" data-name="Path 3017" d="M190.524,103.515a4.2,4.2,0,0,1,3.027,5.01,4.048,4.048,0,0,1-4.718,3.328c-2.072-.372-3.56-2.929-3.158-5.324A3.968,3.968,0,0,1,190.524,103.515Z" fill="#bbc484"/>
        <path id="Path_3018" data-name="Path 3018" d="M190.114,104.472a2.311,2.311,0,0,1-.95,4.518,2.487,2.487,0,0,1-1.747-2.881A2.216,2.216,0,0,1,190.114,104.472Z" fill="#dce0ae"/>
      </g>
      <g id="Group_6939" data-name="Group 6939">
        <path id="Path_3019" data-name="Path 3019" d="M135.294,106.5a4.854,4.854,0,0,1-7.534,6.1c-1.609-1.85-1.115-5.193.971-7S133.688,104.649,135.294,106.5Z" fill="#9b9b5b"/>
        <path id="Path_3020" data-name="Path 3020" d="M134.6,106.611a4.084,4.084,0,0,1-.792,5.644,3.942,3.942,0,0,1-5.61-.386c-1.336-1.554-.885-4.4.888-5.961A3.863,3.863,0,0,1,134.6,106.611Z" fill="#bbc484"/>
      </g>
      <g id="Group_6940" data-name="Group 6940">
        <path id="Path_3021" data-name="Path 3021" d="M166.506,98.289a4.91,4.91,0,0,1-2.864,9.381c-2.4-.641-3.874-3.722-3.15-6.423S164.11,97.646,166.506,98.289Z" fill="#9b9b5b"/>
        <path id="Path_3022" data-name="Path 3022" d="M165.983,98.777a4.132,4.132,0,0,1,2.53,5.182,3.988,3.988,0,0,1-4.921,2.852c-2-.547-3.236-3.188-2.631-5.5A3.908,3.908,0,0,1,165.983,98.777Z" fill="#bbc484"/>
        <path id="Path_3023" data-name="Path 3023" d="M165.5,99.68a2.278,2.278,0,0,1-1.329,4.352,2.451,2.451,0,0,1-1.461-2.98A2.183,2.183,0,0,1,165.5,99.68Z" fill="#dce0ae"/>
      </g>
      <g id="Group_6941" data-name="Group 6941">
        <path id="Path_3024" data-name="Path 3024" d="M154.862,99.543A4.989,4.989,0,0,1,153.4,109.4c-2.505-.28-4.457-3.152-4.136-5.976S152.357,99.261,154.862,99.543Z" fill="#9b9b5b"/>
        <path id="Path_3025" data-name="Path 3025" d="M154.411,100.114a4.2,4.2,0,0,1,3.324,4.822,4.048,4.048,0,0,1-4.512,3.609c-2.094-.246-3.734-2.711-3.476-5.128A3.971,3.971,0,0,1,154.411,100.114Z" fill="#bbc484"/>
        <path id="Path_3026" data-name="Path 3026" d="M154.06,101.094a2.314,2.314,0,0,1-.679,4.572,2.491,2.491,0,0,1-1.919-2.772A2.219,2.219,0,0,1,154.06,101.094Z" fill="#dce0ae"/>
      </g>
      <g id="Group_6942" data-name="Group 6942">
        <path id="Path_3027" data-name="Path 3027" d="M109.528,101.693A4.921,4.921,0,0,1,105,110.418c-2.246-1.066-3.143-4.373-1.937-6.9S107.283,100.624,109.528,101.693Z" fill="#9b9b5b"/>
        <path id="Path_3028" data-name="Path 3028" d="M108.925,102.08a4.142,4.142,0,0,1,1.55,5.566,4,4,0,0,1-5.369,1.917c-1.873-.9-2.608-3.729-1.593-5.9A3.919,3.919,0,0,1,108.925,102.08Z" fill="#bbc484"/>
        <path id="Path_3029" data-name="Path 3029" d="M108.281,102.881a2.283,2.283,0,0,1-2.1,4.047,2.46,2.46,0,0,1-.9-3.2A2.19,2.19,0,0,1,108.281,102.881Z" fill="#dce0ae"/>
      </g>
      <g id="Group_6943" data-name="Group 6943">
        <path id="Path_3030" data-name="Path 3030" d="M148.232,106.136a4.762,4.762,0,0,1-.309,9.508c-2.4.006-4.568-2.506-4.574-5.219S145.827,106.14,148.232,106.136Z" fill="#9b9b5b"/>
        <path id="Path_3031" data-name="Path 3031" d="M147.867,106.725a4.009,4.009,0,0,1,3.679,4.213,3.869,3.869,0,0,1-3.887,3.915c-2.012-.007-3.834-2.167-3.854-4.487A3.792,3.792,0,0,1,147.867,106.725Z" fill="#bbc484"/>
      </g>
      <g id="Group_6944" data-name="Group 6944">
        <path id="Path_3032" data-name="Path 3032" d="M182.059,102.639a4.9,4.9,0,0,1-.359,9.79c-2.476,0-4.695-2.6-4.689-5.392S179.58,102.633,182.059,102.639Z" fill="#9b9b5b"/>
        <path id="Path_3033" data-name="Path 3033" d="M181.68,103.244a4.125,4.125,0,0,1,3.77,4.352,3.98,3.98,0,0,1-4.019,4.016c-2.072-.013-3.941-2.246-3.95-4.634A3.9,3.9,0,0,1,181.68,103.244Z" fill="#bbc484"/>
        <path id="Path_3034" data-name="Path 3034" d="M181.441,104.239a2.276,2.276,0,0,1-.166,4.544,2.454,2.454,0,0,1-2.176-2.5A2.181,2.181,0,0,1,181.441,104.239Z" fill="#dce0ae"/>
      </g>
      <g id="Group_6945" data-name="Group 6945">
        <path id="Path_3035" data-name="Path 3035" d="M143.213,107.01a4.936,4.936,0,0,1-6.646,7.284c-1.9-1.612-1.914-5.051-.092-7.191S141.314,105.393,143.213,107.01Z" fill="#9b9b5b"/>
        <path id="Path_3036" data-name="Path 3036" d="M142.528,107.228a4.154,4.154,0,0,1,.063,5.8,4.008,4.008,0,0,1-5.7.469c-1.581-1.358-1.564-4.29-.017-6.13A3.929,3.929,0,0,1,142.528,107.228Z" fill="#bbc484"/>
      </g>
      <g id="Group_6946" data-name="Group 6946">
        <path id="Path_3037" data-name="Path 3037" d="M171.925,108.756c1.851,1.76,1.744,4.879-.242,6.965a4.933,4.933,0,0,1-6.971.108c-1.852-1.76-1.67-5.276.316-7.363S170.075,107,171.925,108.756Z" fill="#9b9b5b"/>
        <path id="Path_3038" data-name="Path 3038" d="M171.212,108.94a4.257,4.257,0,0,1-.266,5.933,4.1,4.1,0,0,1-5.856.153c-1.541-1.479-1.355-4.475.33-6.27A4.026,4.026,0,0,1,171.212,108.94Z" fill="#bbc484"/>
      </g>
      <g id="Group_6947" data-name="Group 6947">
        <path id="Path_3039" data-name="Path 3039" d="M119.954,97.139c2.293,1.3,2.965,4.447,1.5,7.031a5.088,5.088,0,0,1-6.949,1.852c-2.295-1.3-2.992-4.862-1.525-7.448S117.661,95.838,119.954,97.139Z" fill="#9b9b5b"/>
        <path id="Path_3040" data-name="Path 3040" d="M119.284,97.5c1.914,1.1,2.459,3.789,1.22,6a4.238,4.238,0,0,1-5.823,1.621c-1.912-1.1-2.478-4.144-1.239-6.36S117.375,96.4,119.284,97.5Z" fill="#bbc484"/>
        <path id="Path_3041" data-name="Path 3041" d="M118.245,99.229a2.421,2.421,0,0,1-2.529,4.122,2.606,2.606,0,0,1-.708-3.456A2.321,2.321,0,0,1,118.245,99.229Z" fill="#dce0ae"/>
      </g>
      <g id="Group_6948" data-name="Group 6948">
        <path id="Path_3042" data-name="Path 3042" d="M104.9,107.748a4.893,4.893,0,0,1-5.892,7.8c-2.024-1.42-2.35-4.809-.749-7.088S102.883,106.327,104.9,107.748Z" fill="#9b9b5b"/>
        <path id="Path_3043" data-name="Path 3043" d="M104.249,108.027a4.119,4.119,0,0,1,.592,5.714,3.973,3.973,0,0,1-5.58.984c-1.686-1.2-1.936-4.09-.58-6.047A3.9,3.9,0,0,1,104.249,108.027Z" fill="#bbc484"/>
      </g>
      <g id="Group_6949" data-name="Group 6949">
        <path id="Path_3044" data-name="Path 3044" d="M174.505,104.586c2.606.344,4.4,3,4.015,5.94a5.08,5.08,0,0,1-5.734,4.314c-2.6-.345-4.584-3.381-4.195-6.319S171.9,104.242,174.505,104.586Z" fill="#9b9b5b"/>
        <path id="Path_3045" data-name="Path 3045" d="M174.022,105.172c2.179.3,3.69,2.583,3.372,5.1a4.225,4.225,0,0,1-4.779,3.673c-2.177-.3-3.839-2.9-3.523-5.417S171.845,104.869,174.022,105.172Z" fill="#bbc484"/>
      </g>
      <g id="Group_6950" data-name="Group 6950">
        <path id="Path_3046" data-name="Path 3046" d="M162.427,105.611a4.781,4.781,0,0,1-5.935,7.482c-1.944-1.434-2.186-4.753-.567-6.943S160.485,104.176,162.427,105.611Z" fill="#9b9b5b"/>
        <path id="Path_3047" data-name="Path 3047" d="M161.779,105.868a4.024,4.024,0,0,1,.449,5.6,3.883,3.883,0,0,1-5.476.833c-1.619-1.208-1.8-4.041-.425-5.922A3.8,3.8,0,0,1,161.779,105.868Z" fill="#bbc484"/>
      </g>
    </g>
    <g id="Group_6952" data-name="Group 6952">
      <path id="Path_3048" data-name="Path 3048" d="M217.345,105.715c-7.371,3.009-36.737,5.714-72.314,5.716s-64.944-2.707-72.315-5.716c-.985-.4-3-1.194-3-1.194,0,17.1,11.892,28.646,26.67,36.105h0c2.188,1.729,21.487,6.3,48.63,6.3s46.44-4.576,48.629-6.3h.038c14.778-7.459,26.67-19,26.67-36.105C220.35,104.521,218.329,105.315,217.345,105.715Z" fill="#46c4b9"/>
      <path id="Path_3049" data-name="Path 3049" d="M213.076,104.144c0,.5-1.611,1.014-3.934,1.481-9.394,1.906-34.422,3.344-64.108,3.344-31.195,0-57.262-1.589-65.433-3.635-1.526-.385-2.623-.715-2.623-1.19-.381-.749-7.087-.581-7.266.377,0,4.129,33.465,7.472,75.323,7.472s75.315-3.343,75.315-7.472C219.318,103.281,213.23,103.308,213.076,104.144Z" fill="#46c4b9"/>
    </g>
    <g id="Group_6957" data-name="Group 6957" opacity="0.7">
      <g id="Group_6956" data-name="Group 6956">
        <path id="Path_3050" data-name="Path 3050" d="M231.364,161.463c0,7.108-34.752,20.993-77.621,20.993s-77.621-13.885-77.621-20.993Z" fill="#d9e9eb"/>
        <g id="Group_6955" data-name="Group 6955" clip-path="url(#clip-path)">
          <g id="Group_6953" data-name="Group 6953">
            <path id="Path_3051" data-name="Path 3051" d="M231.364,171.843l-155.242.108V161.463H231.364Z" fill="#d9e9eb"/>
          </g>
          <g id="Group_6954" data-name="Group 6954">
            <path id="Path_3052" data-name="Path 3052" d="M76.122,171.951l155.242-.108v10.613H76.122Z" fill="#d9e9eb"/>
          </g>
        </g>
      </g>
    </g>
    <g id="Group_6958" data-name="Group 6958">
      <path id="Path_3054" data-name="Path 3054" d="M191.005,118.419c-39.062,0-70.281,2.694-70.281,6.547,0,0,9.488,6.279,70.281,6.279,63.784,0,70.287-6.279,70.287-6.279C261.292,121.113,230.068,118.419,191.005,118.419Z" fill="#5d5d5d"/>
      <path id="Path_3055" data-name="Path 3055" d="M254.505,124.611c0,2.825-28.207,4.5-63.5,4.5s-63.5-1.244-63.5-4.5c0-2.49,28.208-4.5,63.5-4.5S254.505,122.121,254.505,124.611Z" fill="#5d5d5d"/>
    </g>
    <path id="Path_3056" data-name="Path 3056" d="M134.427,134.024l56.587-49.188L247.6,134.024Z" fill="#655235"/>
    <g id="Group_6973" data-name="Group 6973">
      <g id="Group_6959" data-name="Group 6959">
        <path id="Path_3057" data-name="Path 3057" d="M199.954,86.245c-6.966-9.326-18.336-5.529-19.89,4.6a4.989,4.989,0,0,0,2.135,5.4c2.118,1.645,2.954,3.338,4.313,5.319,3.149,4.568,9.624,3.559,12.874-.806C201.5,97.921,204.028,91.7,199.954,86.245Z" fill="#998964"/>
        <path id="Path_3058" data-name="Path 3058" d="M199.3,86.69c-6.469-8.661-17.308-5.05-18.75,4.36-.364,2.371.572,3.657,2.26,4.932,1.967,1.531,2.745,3.1,4.006,4.942,2.926,4.242,9.637,2.066,11.957-1.184C200.489,97.416,203.089,91.756,199.3,86.69Z" fill="#dacfaa"/>
        <path id="Path_3059" data-name="Path 3059" d="M198.609,88.209c-4.443-7.818-9.872-1.734-10.642,2.4a14.666,14.666,0,0,0,1.586,8.94c2.085,3.3,6.128,1.781,8.6-1.158C199.756,96.478,201.208,92.783,198.609,88.209Z" fill="#e3ddba"/>
        <path id="Path_3060" data-name="Path 3060" d="M189.6,83.1c-.327-.832-3.051,1.077-4.74,3.729a10.19,10.19,0,0,0-1.609,4.464c-.06.671-.441,2.051.392,2.138.471.049.645-1.475,1.276-2.79a21.494,21.494,0,0,1,3.242-5.743C188.517,84.478,189.8,83.6,189.6,83.1Z" fill="#3f3d3e"/>
      </g>
      <g id="Group_6960" data-name="Group 6960">
        <path id="Path_3061" data-name="Path 3061" d="M241.261,133.5c.4-.406.7-.735,1.087-1.2,2.818-.755,2.055-5.283-1.194-7.328-2.977-1.874-6.5-3.036-9.081-5.315-3.213-2.839-2.36-5.3-6.425-7.153a3.779,3.779,0,0,0-4.7,2.2,5.234,5.234,0,0,0,.787,4.993,31.562,31.562,0,0,0,4.271,4.35,21.562,21.562,0,0,1,3.63,3.677c1.453,1.922,2.313,4.6,4.793,6.561C237.183,136.463,240.571,136.222,241.261,133.5Z" fill="#998964"/>
        <path id="Path_3062" data-name="Path 3062" d="M240.87,133.894c.141-.142.271-.27.391-.394.4-.406.7-.735,1.087-1.2.073-.087.149-.18.23-.279,2.188-2.667-.148-5.111-2.3-6.726-2.793-2.145-5.961-3.144-8.542-5.423-3.213-2.842-1.973-4.98-6.114-6.652-2.152-.868-3.641.9-4.163,2.2s.31,2.974,1.021,4.012a23.186,23.186,0,0,0,3.966,4.444,21.386,21.386,0,0,1,3.569,3.691c1.454,1.923,2.466,4.636,4.451,6.038C236.545,135.067,238.431,136.325,240.87,133.894Z" fill="#dacfaa"/>
        <path id="Path_3063" data-name="Path 3063" d="M241.261,133.5c.4-.406.7-.735,1.087-1.2-.574-.588-3.609-1.924-4.049-1.6C237.724,131.126,239.1,132.447,241.261,133.5Z" fill="#3f3d3e"/>
      </g>
      <g id="Group_6961" data-name="Group 6961">
        <path id="Path_3064" data-name="Path 3064" d="M220.481,110.605c2.035-3.9,3.349-6.2.659-10.1-2.671-4-7.2-5.454-12.857-1.994a17.649,17.649,0,0,0-8.363,13.416c-.328,5.655,1.831,8.8,6.067,9.909,2.505.676,7.511-.407,10.145-3.411C218.87,115.306,219.177,113.1,220.481,110.605Z" fill="#998964"/>
        <path id="Path_3065" data-name="Path 3065" d="M219.926,110.374c1.944-3.7,3.2-5.888.619-9.606-2.563-3.8-7.836-3.318-11.209-1.659-4.444,2.252-7.949,7.756-8.557,12.633-.641,4.6,1.229,8.236,5.285,9.3,2.4.649,7.191-.375,9.707-3.23C218.39,114.845,218.681,112.744,219.926,110.374Z" fill="#dacfaa"/>
      </g>
      <g id="Group_6962" data-name="Group 6962">
        <path id="Path_3066" data-name="Path 3066" d="M155.458,123.808c-.884-4.306-1.317-6.917-5.869-8.244-4.6-1.41-9.025.319-11.226,6.574a17.647,17.647,0,0,0,1.992,15.686c3.316,4.59,6.974,5.661,10.96,3.849,2.37-1.058,5.567-5.062,5.712-9.053C157.178,128.472,156.021,126.566,155.458,123.808Z" fill="#998964"/>
        <path id="Path_3067" data-name="Path 3067" d="M154.881,123.981c-.831-4.1-1.24-6.586-5.587-7.837-4.39-1.33-8.172,2.376-9.738,5.792-2.024,4.553-1.263,11.035,1.346,15.2,2.411,3.974,6.154,5.609,9.971,3.871,2.269-1.012,5.336-4.832,5.484-8.636C156.514,128.417,155.412,126.6,154.881,123.981Z" fill="#dacfaa"/>
      </g>
      <g id="Group_6963" data-name="Group 6963">
        <path id="Path_3068" data-name="Path 3068" d="M146.564,116.195c.273.5.5.883.829,1.387-.1,2.917,4.456,3.5,7.357.993,2.661-2.305,4.8-5.337,7.729-7.143,3.651-2.247,5.758-.715,8.711-4.065a3.777,3.777,0,0,0-.733-5.134,5.232,5.232,0,0,0-5.006-.7,31.481,31.481,0,0,0-5.4,2.82,21.618,21.618,0,0,1-4.571,2.4c-2.264.833-5.079.876-7.674,2.677C144.917,111.431,144.161,114.744,146.564,116.195Z" fill="#998964"/>
        <path id="Path_3069" data-name="Path 3069" d="M146.3,115.706c.1.177.181.338.264.489.273.5.5.883.829,1.387.061.1.128.2.2.3,1.915,2.868,4.932,1.344,7.1-.24,2.864-2.045,4.742-4.788,7.674-6.594,3.652-2.247,5.339-.439,8.143-3.912,1.456-1.807.2-3.747-.891-4.622s-2.934-.57-4.135-.192a23.112,23.112,0,0,0-5.4,2.5,21.447,21.447,0,0,1-4.57,2.341c-2.266.832-5.156,1.012-7.074,2.5C146.438,111.228,144.685,112.666,146.3,115.706Z" fill="#dacfaa"/>
        <path id="Path_3070" data-name="Path 3070" d="M146.564,116.195c.273.5.5.883.829,1.387.729-.375,2.89-2.891,2.71-3.406C149.865,113.5,148.2,114.429,146.564,116.195Z" fill="#3f3d3e"/>
      </g>
      <g id="Group_6964" data-name="Group 6964">
        <path id="Path_3071" data-name="Path 3071" d="M186.9,135.893c4.228-1.2,6.8-1.832,7.783-6.471,1.059-4.688-.995-8.975-7.4-10.7a17.65,17.65,0,0,0-15.491,3.161c-4.329,3.652-5.123,7.38-3.016,11.22,1.231,2.283,5.463,5.171,9.454,5.017C182.376,137.957,184.19,136.661,186.9,135.893Z" fill="#998964"/>
        <path id="Path_3072" data-name="Path 3072" d="M186.682,135.33c4.025-1.138,6.474-1.729,7.4-6.159,1-4.476-2.983-7.97-6.506-9.276-4.693-1.675-11.1-.432-15.056,2.482-3.782,2.7-5.133,6.558-3.112,10.234,1.179,2.186,5.22,4.958,9.022,4.822C182.38,137.291,184.106,136.058,186.682,135.33Z" fill="#dacfaa"/>
        <path id="Path_3073" data-name="Path 3073" d="M185.233,133.477c2.949-.832,4.742-1.267,5.419-4.512.729-3.279-2.185-5.84-4.766-6.8a12.862,12.862,0,0,0-11.03,1.818c-2.77,1.981-3.759,4.8-2.28,7.5a8.177,8.177,0,0,0,6.61,3.534C182.081,134.914,183.347,134.011,185.233,133.477Z" fill="#e3ddba"/>
      </g>
      <g id="Group_6965" data-name="Group 6965">
        <path id="Path_3074" data-name="Path 3074" d="M229.88,121.163c-2.31-2.063-7.25-.118-10.449,3.684-1.467,1.743-6.727,8.741-.91,12.479,2.863,1.841,7.035-2.526,9.925-6.079C230.573,128.705,233.189,124.119,229.88,121.163Z" fill="#998964"/>
        <path id="Path_3075" data-name="Path 3075" d="M229.356,121.818c-2.117-1.891-6.647-.108-9.579,3.376-1.342,1.6-6.163,8.011-.834,11.438,2.624,1.688,6.449-2.315,9.1-5.571C229.991,128.729,232.388,124.526,229.356,121.818Z" fill="#dacfaa"/>
        <path id="Path_3076" data-name="Path 3076" d="M228.446,122.884c-1.924-1.72-4.619.291-7.287,3.458-1.221,1.45-6.731,5.983-1.884,9.1,2.386,1.534,5.028-1.987,7.439-4.948C228.486,128.375,231.2,125.348,228.446,122.884Z" fill="#e3ddba"/>
        <path id="Path_3077" data-name="Path 3077" d="M227.017,124.447c-.282-.735-2.017.777-3.75,2.938a20.449,20.449,0,0,0-2.692,3.668c-.275.508-.5,2.008.29,1.858.773-.145,2.948-3.554,5.083-6.265C226.25,126.266,227.189,124.893,227.017,124.447Z" fill="#3f3d3e"/>
      </g>
      <g id="Group_6966" data-name="Group 6966">
        <path id="Path_3078" data-name="Path 3078" d="M227.12,109.116c-.445-.356-.8-.622-1.3-.962-1.034-2.727-5.461-1.518-7.172,1.919-1.57,3.152-2.374,6.771-4.383,9.568-2.5,3.478-5.038,2.876-6.475,7.105a3.78,3.78,0,0,0,2.655,4.457,5.231,5.231,0,0,0,4.888-1.284,31.426,31.426,0,0,0,3.9-4.683,21.709,21.709,0,0,1,3.294-3.978c1.768-1.641,4.352-2.762,6.053-5.424C230.474,112.88,229.9,109.53,227.12,109.116Z" fill="#998964"/>
        <path id="Path_3079" data-name="Path 3079" d="M227.55,109.468l-.43-.352c-.445-.356-.8-.622-1.3-.962-.1-.065-.194-.131-.3-.2-2.874-1.911-5.074.658-6.466,2.955-1.854,2.992-2.533,6.245-4.544,9.042-2.5,3.48-4.756,2.458-6.008,6.746-.648,2.229,1.263,3.533,2.6,3.923s2.928-.6,3.891-1.417a23.2,23.2,0,0,0,4.024-4.388,21.328,21.328,0,0,1,3.317-3.919c1.769-1.64,4.366-2.918,5.562-5.035C229.149,113.653,230.212,111.65,227.55,109.468Z" fill="#dacfaa"/>
        <path id="Path_3080" data-name="Path 3080" d="M227.12,109.116c-.444-.356-.8-.622-1.3-.962-.528.629-1.554,3.784-1.189,4.188C225.109,112.874,226.287,111.377,227.12,109.116Z" fill="#3f3d3e"/>
      </g>
      <g id="Group_6967" data-name="Group 6967">
        <path id="Path_3081" data-name="Path 3081" d="M192.21,118.061c9.666-6.485,19.131.872,17.234,10.944a4.986,4.986,0,0,1-3.807,4.389c-2.543.849-3.894,2.166-5.834,3.584-4.487,3.266-10.258.165-11.876-5.033C186.873,128.561,186.558,121.853,192.21,118.061Z" fill="#998964"/>
        <path id="Path_3082" data-name="Path 3082" d="M192.675,118.7c8.976-6.023,18,.981,16.24,10.336-.443,2.356-1.756,3.258-3.77,3.9-2.363.789-3.618,2.015-5.42,3.332-4.167,3.03-9.777-1.252-10.886-5.085C188,128.421,187.423,122.22,192.675,118.7Z" fill="#dacfaa"/>
        <path id="Path_3083" data-name="Path 3083" d="M192.827,120.361c6.787-5.9,9.887,1.64,9.24,5.8a14.659,14.659,0,0,1-4.462,7.9c-3.061,2.419-6.373-.352-7.724-3.944C189,127.779,188.856,123.814,192.827,120.361Z" fill="#e3ddba"/>
        <path id="Path_3084" data-name="Path 3084" d="M203.019,118.527c.584-.675,2.518,2.031,3.233,5.1a10.2,10.2,0,0,1,.035,4.744c-.165.652-.264,2.079-1.078,1.886-.461-.11-.122-1.607-.278-3.056a21.508,21.508,0,0,0-1.153-6.494C203.587,120.192,202.662,118.94,203.019,118.527Z" fill="#3f3d3e"/>
      </g>
      <g id="Group_6968" data-name="Group 6968">
        <path id="Path_3085" data-name="Path 3085" d="M212.633,93.522c.193.536.329.958.49,1.542,2.25,1.857-.323,5.657-4.126,6.168-3.489.469-7.177.064-10.472,1.067-4.1,1.246-4.345,3.84-8.813,3.837a3.779,3.779,0,0,1-3.363-3.947,5.229,5.229,0,0,1,2.79-4.215,31.122,31.122,0,0,1,5.692-2.185,21.7,21.7,0,0,0,4.826-1.837c2.124-1.145,4.02-3.228,7.086-3.981C210.151,89.133,213.134,90.761,212.633,93.522Z" fill="#998964"/>
        <path id="Path_3086" data-name="Path 3086" d="M212.439,93c.071.188.133.359.194.52.193.536.329.958.49,1.542.03.11.062.225.094.348.883,3.334-2.258,4.588-4.882,5.168-3.431.787-6.729.381-10.022,1.385-4.1,1.247-3.864,3.709-8.326,3.511-2.315-.1-2.938-2.332-2.873-3.728s1.517-2.576,2.594-3.226a23.166,23.166,0,0,1,5.453-2.394,21.515,21.515,0,0,0,4.779-1.878c2.124-1.146,4.172-3.191,6.557-3.643C208.993,90.138,211.23,89.778,212.439,93Z" fill="#dacfaa"/>
        <path id="Path_3087" data-name="Path 3087" d="M212.633,93.522c.192.536.329.958.49,1.542-.766.295-4.081.251-4.349-.226C208.428,94.214,210.223,93.58,212.633,93.522Z" fill="#3f3d3e"/>
      </g>
      <g id="Group_6969" data-name="Group 6969">
        <path id="Path_3088" data-name="Path 3088" d="M171.345,88.966c-5.123-.866-9.775,2.512-7.43,5.446-2.982,1.926-1.426,6.783,1.344,8.537,2.3,1.457,5.189,1.473,8.769.385a45.838,45.838,0,0,1,7.892-1.684c5.13-.494,7.628-4.726,5.347-9.761C185.031,86.948,177.188,84.706,171.345,88.966Z" fill="#998964"/>
        <path id="Path_3089" data-name="Path 3089" d="M171.34,89.51c-5.123-.867-8.6,2.061-7.425,4.9-2.332,2.848-.092,7.219,2.232,8.25,2.192.977,4.145,1.031,7.724-.056a43.721,43.721,0,0,1,7.6-1.791c5.129-.492,6.8-5.26,5.107-8.873C184.914,88.392,177.181,85.25,171.34,89.51Z" fill="#dacfaa"/>
        <path id="Path_3090" data-name="Path 3090" d="M173.451,90.612c-7.357-1.771-9.649,2.36-7.93,4.175,4.242,4.479,10.532,2.375,13.633,1.429,3.734-1.137,6.45-1.749,4.535-5.073C182.036,88.27,175.82,87.808,173.451,90.612Z" fill="#e3ddba"/>
        <path id="Path_3091" data-name="Path 3091" d="M163.915,94.412c-.792,1.481,2.129,5.184,5.09,5.437.042-1.063-2.238-2.08-3.387-3.206A15.984,15.984,0,0,1,163.915,94.412Z" fill="#3f3d3e"/>
      </g>
      <g id="Group_6970" data-name="Group 6970">
        <path id="Path_3092" data-name="Path 3092" d="M209.974,106.528c5.157.622,8.657,5.185,5.577,7.331,2.311,2.694-.557,6.911-3.712,7.805-2.623.743-5.394-.06-8.516-2.12a46.154,46.154,0,0,0-7.091-3.855c-4.779-1.929-5.973-6.695-2.356-10.878C197.422,100.709,205.579,100.786,209.974,106.528Z" fill="#998964"/>
        <path id="Path_3093" data-name="Path 3093" d="M209.824,107.053c5.157.622,7.661,4.416,5.727,6.806,1.43,3.391-1.962,6.948-4.483,7.279-2.379.312-4.266-.187-7.39-2.245a43.448,43.448,0,0,0-6.779-3.877c-4.778-1.928-5.03-6.976-2.379-9.959C197.125,102.125,205.431,101.31,209.824,107.053Z" fill="#dacfaa"/>
        <path id="Path_3094" data-name="Path 3094" d="M207.488,107.509c7.556.389,8.582,5,6.418,6.254-5.339,3.09-10.774-.711-13.479-2.5-3.255-2.152-5.688-3.508-2.909-6.153C199.919,102.825,206.009,104.148,207.488,107.509Z" fill="#e3ddba"/>
        <path id="Path_3095" data-name="Path 3095" d="M215.551,113.859c.339,1.646-3.512,4.367-6.424,3.769.262-1.029,2.738-1.359,4.159-2.114A15.8,15.8,0,0,0,215.551,113.859Z" fill="#3f3d3e"/>
      </g>
      <g id="Group_6971" data-name="Group 6971">
        <path id="Path_3096" data-name="Path 3096" d="M154.872,123.992c-3.174,4.111-2.379,9.808,1.313,9.119.3,3.535,5.316,4.449,8.165,2.829,2.37-1.348,3.741-3.887,4.464-7.558a46.162,46.162,0,0,1,2.226-7.757c1.977-4.76-.582-8.952-6.1-9.31C159.53,110.964,153.862,116.83,154.872,123.992Z" fill="#998964"/>
        <path id="Path_3097" data-name="Path 3097" d="M155.352,124.253c-3.176,4.113-2.227,8.557.833,8.858,1.414,3.4,6.326,3.474,8.332,1.91,1.89-1.476,2.859-3.171,3.583-6.842a43.649,43.649,0,0,1,1.992-7.551c1.977-4.758-1.443-8.478-5.427-8.682C160.748,111.747,154.339,117.094,155.352,124.253Z" fill="#dacfaa"/>
        <path id="Path_3098" data-name="Path 3098" d="M157.315,122.907c-5.023,5.658-2.456,9.626-.045,8.962,5.947-1.635,7.05-8.177,7.674-11.358.752-3.829,1.491-6.516-2.344-6.39C159.287,114.229,155.956,119.5,157.315,122.907Z" fill="#e3ddba"/>
        <path id="Path_3099" data-name="Path 3099" d="M156.185,133.111c.933,1.393,5.576.559,7.19-1.937-.917-.533-2.888,1-4.422,1.484A16.069,16.069,0,0,1,156.185,133.111Z" fill="#3f3d3e"/>
      </g>
      <g id="Group_6972" data-name="Group 6972">
        <path id="Path_3100" data-name="Path 3100" d="M173.587,103.884c-8.666,7.77-3.87,18.757,6.358,19.4a4.987,4.987,0,0,0,5.193-2.608c1.449-2.255,3.059-3.239,4.912-4.771,4.27-3.543,2.689-9.9-1.95-12.75C185.079,101.3,178.656,99.34,173.587,103.884Z" fill="#998964"/>
        <path id="Path_3101" data-name="Path 3101" d="M174.09,104.49c-8.05,7.216-3.486,17.689,6.014,18.287,2.394.153,3.59-.9,4.713-2.693,1.347-2.094,2.842-3.008,4.563-4.43,3.965-3.292,1.2-9.782-2.244-11.8C184.667,102.355,178.8,100.271,174.09,104.49Z" fill="#dacfaa"/>
        <path id="Path_3102" data-name="Path 3102" d="M175.666,105.049c-7.393,5.122-.848,9.985,3.341,10.386a14.676,14.676,0,0,0,8.762-2.378c3.1-2.369,1.229-6.263-1.918-8.458C183.8,103.168,179.989,102.053,175.666,105.049Z" fill="#e3ddba"/>
        <path id="Path_3103" data-name="Path 3103" d="M171.376,114.474c-.8.4,1.347,2.942,4.14,4.389a10.183,10.183,0,0,0,4.588,1.2c.673,0,2.082.255,2.1-.581.007-.474-1.528-.511-2.893-1.022a21.516,21.516,0,0,1-6.009-2.719C172.85,115.435,171.864,114.23,171.376,114.474Z" fill="#3f3d3e"/>
      </g>
    </g>
    <path id="Path_3104" data-name="Path 3104" d="M258.489,126.077c-6.879,2.808-34.281,5.332-67.48,5.335s-60.6-2.527-67.481-5.335c-.919-.374-2.8-1.111-2.8-1.111,0,15.958,11.1,26.729,24.887,33.688h0c2.044,1.615,20.051,5.883,45.379,5.884s43.336-4.269,45.379-5.884h.034c13.791-6.959,24.888-17.73,24.888-33.688C261.292,124.966,259.407,125.7,258.489,126.077Z" fill="#46c4b9"/>
    <path id="Path_3105" data-name="Path 3105" d="M254.505,124.611c0,.472-1.5.947-3.672,1.383-8.765,1.777-32.121,3.119-59.82,3.119-29.111,0-53.436-1.482-61.061-3.39-1.423-.359-2.447-.668-2.447-1.112-.356-.7-6.613-.541-6.781.355,0,3.851,31.229,6.97,70.289,6.97s70.279-3.119,70.279-6.97C260.33,123.807,254.648,123.833,254.505,124.611Z" fill="#46c4b9"/>
    <g id="Group_6975" data-name="Group 6975">
      <g id="Group_6974" data-name="Group 6974">
        <path id="Path_3106" data-name="Path 3106" d="M117.3,132.037c-31.4,0-56.5,2.165-56.5,5.262,0,0,7.628,5.05,56.5,5.05,51.281,0,56.511-5.05,56.511-5.05C173.815,134.2,148.712,132.037,117.3,132.037Z" fill="#5d5d5d"/>
        <path id="Path_3107" data-name="Path 3107" d="M168.358,137.016c0,2.27-22.677,3.619-51.052,3.619s-51.055-1-51.055-3.619c0-2,22.68-3.623,51.055-3.623S168.358,135.013,168.358,137.016Z" fill="#5d5d5d"/>
      </g>
    </g>
    <path id="Path_3108" data-name="Path 3108" d="M71.816,144.583l45.494-39.547,45.5,39.547Z" fill="#552720"/>
    <g id="Group_7000" data-name="Group 7000">
      <g id="Group_6976" data-name="Group 6976">
        <path id="Path_3109" data-name="Path 3109" d="M129.446,113.456a3.563,3.563,0,0,0-5.066-.714c-2.852,2.006-4.789,3.367-6.646,4.674-2.94,2.066-3.191,4.035-2.02,5.7,1.11,1.577,3.14,1.663,5.43.262,1.255-.771,5.878-3.95,6.618-4.654C129.7,116.881,130.772,115.342,129.446,113.456Z" fill="#984c39"/>
        <path id="Path_3110" data-name="Path 3110" d="M129.153,113.644a3.368,3.368,0,0,0-4.722-.495l-6.371,4.481c-2.9,2.041-2.973,3.993-2.074,5.271,1.078,1.534,3.051,1.341,5.238-.012,1.2-.743,5.631-3.8,6.345-4.461C129.444,116.684,130.225,115.165,129.153,113.644Z" fill="#de7f6d"/>
      </g>
      <g id="Group_6977" data-name="Group 6977">
        <path id="Path_3111" data-name="Path 3111" d="M117.636,109.565c-1.929-.773-4.542-1.225-5.134-3.523-.692-3.086,2.8-3.769,5.163-3.472,7.086.887,12.805,7.553,9.065,10.627-2.909,2.4-5.723-.311-6.969-2.15A4.72,4.72,0,0,0,117.636,109.565Z" fill="#984c39"/>
        <path id="Path_3112" data-name="Path 3112" d="M117.979,109.393c-1.836-.739-4.677-1.446-5.106-3.24-.7-2.932,2.659-3.588,4.911-3.307,6.746.844,12.19,7.19,8.629,10.117-2.77,2.277-5.364-.464-6.552-2.215A4.054,4.054,0,0,0,117.979,109.393Z" fill="#de7f6d"/>
        <path id="Path_3113" data-name="Path 3113" d="M119.317,105.583c-2.181.2-4.743.016-5.121-.965-.767-2,5.319-1.331,8.41.476,3.637,2.126,5.211,6.769,3.082,7.517-1.236.432-1.992-1.2-2.332-3.877A4.024,4.024,0,0,0,119.317,105.583Z" fill="#ed9a91"/>
        <path id="Path_3114" data-name="Path 3114" d="M120.217,107.853a1.6,1.6,0,0,1,.566,2.176c-.337-1.3-1.946-1.954-3.2-2.109A2.072,2.072,0,0,1,120.217,107.853Z" fill="#fffdff"/>
      </g>
      <g id="Group_6978" data-name="Group 6978">
        <path id="Path_3115" data-name="Path 3115" d="M90.555,135.975a3.566,3.566,0,0,0-4.859-1.611c-3.164,1.466-5.314,2.461-7.373,3.413-3.26,1.51-3.859,3.4-3.006,5.249.811,1.752,2.794,2.2,5.3,1.227,1.372-.534,6.489-2.838,7.342-3.4C90.192,139.389,91.522,138.065,90.555,135.975Z" fill="#984c39"/>
        <path id="Path_3116" data-name="Path 3116" d="M90.233,136.1a3.372,3.372,0,0,0-4.56-1.328l-7.068,3.272c-3.221,1.49-3.636,3.4-2.981,4.818.786,1.7,2.763,1.863,5.156.922,1.315-.517,6.217-2.73,7.039-3.258C89.976,139.146,91.014,137.792,90.233,136.1Z" fill="#de7f6d"/>
      </g>
      <g id="Group_6979" data-name="Group 6979">
        <path id="Path_3117" data-name="Path 3117" d="M113.8,123.964a3.565,3.565,0,0,0,1.654-4.844l-3.341-7.406c-1.479-3.274-3.365-3.891-5.219-3.053-1.759.793-2.225,2.772-1.278,5.282.52,1.379,2.776,6.516,3.328,7.375C110.385,123.568,111.7,124.911,113.8,123.964Z" fill="#984c39"/>
        <path id="Path_3118" data-name="Path 3118" d="M113.669,123.641a3.371,3.371,0,0,0,1.371-4.548c-.99-2.2-1.766-3.912-3.2-7.1-1.459-3.235-3.363-3.669-4.789-3.026-1.707.769-1.891,2.745-.972,5.147.506,1.32,2.671,6.242,3.192,7.071C110.629,123.353,111.973,124.4,113.669,123.641Z" fill="#de7f6d"/>
      </g>
      <g id="Group_6980" data-name="Group 6980">
        <path id="Path_3119" data-name="Path 3119" d="M137.574,128.495a3.5,3.5,0,0,0,1.158-4.979c-1.828-2.967-2.837-5.122-4.047-7.041-2.121-3.372-4.3-3.519-5.919-2.282-1.4,1.067-1.684,2.83-.494,5.236.655,1.319,3.576,6.112,4.21,6.913C134.141,128.439,136.04,129.38,137.574,128.495Z" fill="#984c39"/>
        <path id="Path_3120" data-name="Path 3120" d="M137.388,128.2c1.176-.676,2.071-2.477.907-4.656-1.134-2.124-2.725-4.907-3.88-6.751-2.025-3.237-4.011-3.44-5.443-2.321-1.237.963-1.448,2.618-.295,4.919.632,1.26,3.423,5.86,4.024,6.633C134.268,128.048,136.02,128.99,137.388,128.2Z" fill="#de7f6d"/>
        <path id="Path_3121" data-name="Path 3121" d="M132.73,123.834c.947,3.33,2.861,3.8,3.847,3.328,1.408-.67,1.1-3.06-.857-5.094a19.979,19.979,0,0,1-3.135-5.136c-.68-1.637-2.193-2.3-3.372-1.454-.43.309-.771,2.756.77,4.149A9.956,9.956,0,0,1,132.73,123.834Z" fill="#ed9a91"/>
        <path id="Path_3122" data-name="Path 3122" d="M132.587,120.385c-.272,1,1.215,3.151,1.9,3.3C134.9,122.466,133.272,120.222,132.587,120.385Z" fill="#fffdff"/>
      </g>
      <g id="Group_6981" data-name="Group 6981">
        <path id="Path_3123" data-name="Path 3123" d="M97.549,134.141a3.564,3.564,0,0,0-4.305-2.772c-3.427.626-5.758,1.054-7.99,1.459-3.534.648-4.587,2.33-4.221,4.333.347,1.9,2.156,2.825,4.822,2.513,1.461-.176,6.991-1.129,7.958-1.457C96.345,137.355,97.962,136.4,97.549,134.141Z" fill="#984c39"/>
        <path id="Path_3124" data-name="Path 3124" d="M97.2,134.186a3.372,3.372,0,0,0-4.083-2.428c-2.37.435-4.224.775-7.661,1.4-3.49.638-4.371,2.381-4.09,3.919.336,1.843,2.209,2.5,4.762,2.181,1.4-.172,6.7-1.091,7.631-1.394C96.194,137.068,97.54,136.016,97.2,134.186Z" fill="#de7f6d"/>
      </g>
      <g id="Group_6982" data-name="Group 6982">
        <path id="Path_3125" data-name="Path 3125" d="M145.126,134.776a3.567,3.567,0,0,0,2.376,4.535c3.292,1.145,5.53,1.923,7.672,2.67,3.394,1.181,5.14.236,5.809-1.686.634-1.822-.482-3.522-2.956-4.564-1.357-.569-6.636-2.468-7.641-2.658C147.76,132.573,145.882,132.6,145.126,134.776Z" fill="#984c39"/>
        <path id="Path_3126" data-name="Path 3126" d="M145.447,134.908a3.372,3.372,0,0,0,2.357,4.125c2.273.79,4.054,1.407,7.355,2.559,3.351,1.165,4.977.082,5.491-1.394.616-1.768-.691-3.26-3.067-4.246-1.3-.542-6.367-2.356-7.324-2.548C147.747,132.9,146.06,133.15,145.447,134.908Z" fill="#de7f6d"/>
      </g>
      <g id="Group_6983" data-name="Group 6983">
        <path id="Path_3127" data-name="Path 3127" d="M105.728,112.568A3.5,3.5,0,0,0,101,114.509c-1.359,3.208-2.53,5.282-3.394,7.379-1.52,3.682-.375,5.545,1.569,6.148,1.677.517,3.282-.268,4.554-2.633.7-1.3,2.911-6.455,3.2-7.436C107.671,115.4,107.337,113.308,105.728,112.568Z" fill="#984c39"/>
        <path id="Path_3128" data-name="Path 3128" d="M105.6,112.891c-1.233-.565-3.221-.252-4.322,1.958-1.073,2.155-2.421,5.064-3.255,7.074-1.466,3.525-.479,5.261,1.261,5.78,1.5.449,2.971-.338,4.178-2.607.664-1.246,2.8-6.188,3.078-7.122C107.278,115.522,107.032,113.55,105.6,112.891Z" fill="#de7f6d"/>
        <path id="Path_3129" data-name="Path 3129" d="M104.735,119.219c2.165-2.7,1.435-4.53.485-5.064-1.363-.761-3.132.878-3.656,3.65a20.109,20.109,0,0,1-2.373,5.531c-.939,1.5-.6,3.118.771,3.589.5.171,2.691-.969,2.934-3.031A9.937,9.937,0,0,1,104.735,119.219Z" fill="#ed9a91"/>
        <path id="Path_3130" data-name="Path 3130" d="M102,121.333c.973-.356,1.866-2.815,1.588-3.46C102.364,118.245,101.476,120.868,102,121.333Z" fill="#fffdff"/>
      </g>
      <g id="Group_6984" data-name="Group 6984">
        <path id="Path_3131" data-name="Path 3131" d="M133.211,135.634a3.567,3.567,0,0,0-1.466-4.906l-7.02-4.087c-3.106-1.808-5-1.216-6.025.543-.97,1.668-.2,3.548,2.03,5.043,1.224.82,6.042,3.691,6.991,4.072C130.205,137.291,132.052,137.622,133.211,135.634Z" fill="#984c39"/>
        <path id="Path_3132" data-name="Path 3132" d="M132.919,135.443a3.369,3.369,0,0,0-1.523-4.5l-6.731-3.919c-3.066-1.785-4.871-1.035-5.656.317-.942,1.618.055,3.333,2.2,4.756,1.177.779,5.8,3.53,6.7,3.9C130.277,136.976,131.984,137.05,132.919,135.443Z" fill="#de7f6d"/>
      </g>
      <g id="Group_6985" data-name="Group 6985">
        <path id="Path_3133" data-name="Path 3133" d="M127.947,129.307c1.367,1.566,2.655,3.885,5.018,3.684,3.144-.362,2.638-3.88,1.579-6.017-3.172-6.4-11.352-9.6-13.022-5.058-1.3,3.537,2.18,5.3,4.327,5.872A4.71,4.71,0,0,1,127.947,129.307Z" fill="#984c39"/>
        <path id="Path_3134" data-name="Path 3134" d="M128,128.925c1.3,1.491,2.9,3.94,4.74,3.753,3-.306,2.512-3.692,1.5-5.727-3.018-6.09-10.8-9.137-12.393-4.813-1.238,3.366,2.205,4.913,4.249,5.458A4.058,4.058,0,0,1,128,128.925Z" fill="#de7f6d"/>
        <path id="Path_3135" data-name="Path 3135" d="M131.155,126.4c.529,2.127,1.546,4.484,2.6,4.518,2.14.066-.5-5.46-3.222-7.784-3.2-2.734-8.106-2.688-8.111-.431,0,1.31,1.787,1.485,4.428.923A4.027,4.027,0,0,1,131.155,126.4Z" fill="#ed9a91"/>
        <path id="Path_3136" data-name="Path 3136" d="M128.714,126.307a1.594,1.594,0,0,0-2.24.182c1.337-.112,2.486,1.192,3.046,2.322A2.071,2.071,0,0,0,128.714,126.307Z" fill="#fffdff"/>
      </g>
      <g id="Group_6986" data-name="Group 6986">
        <path id="Path_3137" data-name="Path 3137" d="M130.364,132.053a3.567,3.567,0,0,0-4.312-2.761c-3.426.64-5.755,1.071-7.985,1.486-3.534.658-4.582,2.341-4.211,4.344.354,1.9,2.165,2.818,4.83,2.5,1.462-.179,6.988-1.147,7.954-1.479C129.169,135.271,130.785,134.315,130.364,132.053Z" fill="#984c39"/>
        <path id="Path_3138" data-name="Path 3138" d="M130.02,132.1a3.369,3.369,0,0,0-4.091-2.413c-2.368.44-4.221.785-7.657,1.421-3.488.651-4.364,2.4-4.079,3.934.342,1.841,2.217,2.488,4.769,2.166,1.4-.177,6.7-1.107,7.626-1.416C129.019,134.984,130.36,133.928,130.02,132.1Z" fill="#de7f6d"/>
        <path id="Path_3139" data-name="Path 3139" d="M123.9,134.383c2.852-.53,3.535-1.213,3.408-1.9-.144-.769-1.569-.774-3.854-.35l-4.554.845c-1.339.25-2.166.737-2.034,1.447.125.672,1.02,1.073,3.238.659C121.12,134.9,122.588,134.625,123.9,134.383Z" fill="#ed9a91"/>
      </g>
      <g id="Group_6987" data-name="Group 6987">
        <path id="Path_3140" data-name="Path 3140" d="M91.138,135.658c-.766-1.935-1.172-4.575-3.586-5.1-3.248-.6-4.066,2.959-3.817,5.354.745,7.166,7.641,12.756,11,8.86,2.613-3.034-.171-5.8-2.084-7.006A4.441,4.441,0,0,1,91.138,135.658Z" fill="#984c39"/>
        <path id="Path_3141" data-name="Path 3141" d="M91.071,135.783c-.729-1.84-1.117-4.353-3.413-4.85-3.091-.577-3.87,2.816-3.634,5.094.708,6.821,7.274,12.143,10.467,8.436,2.487-2.889-.166-5.524-1.984-6.671A4.2,4.2,0,0,1,91.071,135.783Z" fill="#de7f6d"/>
        <path id="Path_3142" data-name="Path 3142" d="M87.947,137.209c-.157-1.469.192-4.166-1.106-4.378-2.644-.431-2.217,4.33-.316,7.372,2.236,3.58,5.827,6.171,7.009,3.631.267-.574-.224-2.226-2.623-2.762C88.757,140.592,88.137,138.987,87.947,137.209Z" fill="#ed9a91"/>
        <path id="Path_3143" data-name="Path 3143" d="M90.927,137.127a1.742,1.742,0,0,0,1.855.726,9.389,9.389,0,0,1-2.019-3.243A2.373,2.373,0,0,0,90.927,137.127Z" fill="#fffdff"/>
      </g>
      <g id="Group_6988" data-name="Group 6988">
        <path id="Path_3144" data-name="Path 3144" d="M138.189,133.324c.821,1.91,1.3,4.537,3.731,4.991,3.265.511,3.977-3.073,3.66-5.459-.949-7.143-8-12.534-11.245-8.541-2.524,3.1.338,5.793,2.284,6.944A4.422,4.422,0,0,1,138.189,133.324Z" fill="#984c39"/>
        <path id="Path_3145" data-name="Path 3145" d="M138.252,133.2c.781,1.819,1.241,4.32,3.552,4.752,3.107.486,3.786-2.927,3.484-5.2-.9-6.8-7.619-11.93-10.7-8.132-2.4,2.958.323,5.516,2.175,6.612A4.187,4.187,0,0,1,138.252,133.2Z" fill="#de7f6d"/>
        <path id="Path_3146" data-name="Path 3146" d="M141.334,131.682c.2,1.462-.074,4.168,1.232,4.344,2.654.356,2.091-4.393.1-7.38-2.338-3.511-6-6-7.108-3.428-.251.584.286,2.218,2.7,2.685C140.425,128.322,141.093,129.91,141.334,131.682Z" fill="#ed9a91"/>
        <path id="Path_3147" data-name="Path 3147" d="M138.357,131.85a1.745,1.745,0,0,0-1.876-.674,9.46,9.46,0,0,1,2.113,3.182A2.367,2.367,0,0,0,138.357,131.85Z" fill="#fffdff"/>
      </g>
      <g id="Group_6989" data-name="Group 6989">
        <path id="Path_3148" data-name="Path 3148" d="M110.262,142.377a3.5,3.5,0,0,0-2.346-4.543c-3.314-1.074-5.481-2.061-7.647-2.738-3.8-1.192-5.557.111-5.987,2.1-.37,1.717.555,3.248,3.02,4.307,1.355.58,6.683,2.337,7.687,2.535C107.611,144.56,109.666,144.044,110.262,142.377Z" fill="#984c39"/>
        <path id="Path_3149" data-name="Path 3149" d="M109.931,142.273c.454-1.278-.032-3.23-2.328-4.133-2.243-.881-5.258-1.97-7.332-2.625-3.641-1.153-5.284-.017-5.65,1.762-.315,1.537.6,2.931,2.964,3.936,1.3.551,6.406,2.242,7.365,2.443C107.454,144.18,109.4,143.761,109.931,142.273Z" fill="#de7f6d"/>
        <path id="Path_3150" data-name="Path 3150" d="M103.551,141.971c2.881,1.919,4.638,1.032,5.087.039.639-1.426-1.149-3.044-3.954-3.324a20.054,20.054,0,0,1-5.718-1.879c-1.576-.806-3.16-.329-3.509,1.08-.128.512,1.2,2.6,3.276,2.658A9.928,9.928,0,0,1,103.551,141.971Z" fill="#ed9a91"/>
        <path id="Path_3151" data-name="Path 3151" d="M101.206,139.433c.441.939,2.968,1.613,3.587,1.279C104.314,139.522,101.622,138.867,101.206,139.433Z" fill="#fffdff"/>
      </g>
      <g id="Group_6990" data-name="Group 6990">
        <path id="Path_3152" data-name="Path 3152" d="M118.6,127.908a3.5,3.5,0,0,0-3.624-3.606c-3.486-.007-5.849-.283-8.118-.266-3.984.03-5.257,1.809-5.055,3.835.172,1.745,1.519,2.92,4.192,3.174,1.467.138,7.079.177,8.093.058C116.739,130.8,118.54,129.678,118.6,127.908Z" fill="#984c39"/>
        <path id="Path_3153" data-name="Path 3153" d="M118.247,127.911c.043-1.356-1.018-3.065-3.48-3.223-2.406-.152-5.609-.264-7.786-.253-3.816.018-5.033,1.6-4.836,3.407.169,1.558,1.464,2.608,4.025,2.839,1.407.127,6.787.173,7.76.071C116.475,130.484,118.2,129.489,118.247,127.911Z" fill="#de7f6d"/>
        <path id="Path_3154" data-name="Path 3154" d="M112.082,129.572c3.33.949,4.732-.433,4.853-1.517.174-1.552-2.023-2.545-4.782-1.952a20.091,20.091,0,0,1-6.016-.038c-1.748-.284-3.109.654-3.011,2.1.037.527,1.938,2.1,3.934,1.527A9.975,9.975,0,0,1,112.082,129.572Z" fill="#ed9a91"/>
      </g>
      <g id="Group_6991" data-name="Group 6991">
        <path id="Path_3155" data-name="Path 3155" d="M147.8,141.529a3.567,3.567,0,0,0-3.248-3.958c-3.456-.454-5.8-.761-8.054-1.058-3.563-.468-5.079.809-5.345,2.829-.252,1.912,1.185,3.35,3.82,3.867,1.445.282,7,1.07,8.02,1.054C145.672,144.221,147.505,143.811,147.8,141.529Z" fill="#984c39"/>
        <path id="Path_3156" data-name="Path 3156" d="M147.462,141.467a3.371,3.371,0,0,0-3.144-3.561l-7.721-1.015c-3.518-.463-4.891.927-5.1,2.478-.244,1.857,1.338,3.051,3.864,3.536,1.387.265,6.713,1.015,7.691,1.011C145.617,143.9,147.22,143.311,147.462,141.467Z" fill="#de7f6d"/>
        <path id="Path_3157" data-name="Path 3157" d="M140.934,141.744c2.876.379,3.737-.058,3.828-.746.1-.777-1.253-1.224-3.558-1.527l-4.591-.6c-1.35-.177-2.287.029-2.382.745-.088.682.638,1.335,2.875,1.628Z" fill="#ed9a91"/>
      </g>
      <g id="Group_6992" data-name="Group 6992">
        <path id="Path_3158" data-name="Path 3158" d="M116.112,136.271c-2.077-.088-4.645-.752-6.127,1.1-1.9,2.527.994,4.586,3.273,5.289,6.822,2.111,14.778-1.61,12.638-5.95-1.668-3.381-5.344-2.073-7.238-.911A4.71,4.71,0,0,1,116.112,136.271Z" fill="#984c39"/>
        <path id="Path_3159" data-name="Path 3159" d="M116.353,136.571c-1.977-.085-4.857-.61-5.986.849-1.844,2.385.944,4.366,3.114,5.036,6.494,2.01,14.067-1.534,12.03-5.665-1.588-3.218-5.081-1.787-6.884-.681A4.056,4.056,0,0,1,116.353,136.571Z" fill="#de7f6d"/>
        <path id="Path_3160" data-name="Path 3160" d="M116,140.6c-1.9-1.082-4.316-1.968-5.064-1.23-1.523,1.507,4.3,3.4,7.86,3.029,4.189-.439,7.534-4.024,5.9-5.581-.947-.9-2.306.271-3.72,2.572A4.025,4.025,0,0,1,116,140.6Z" fill="#ed9a91"/>
        <path id="Path_3161" data-name="Path 3161" d="M117.759,138.894a1.6,1.6,0,0,0,1.412-1.75c-.842,1.047-2.578.983-3.783.608A2.07,2.07,0,0,0,117.759,138.894Z" fill="#fffdff"/>
      </g>
      <g id="Group_6993" data-name="Group 6993">
        <path id="Path_3162" data-name="Path 3162" d="M151.482,135.568c1.345,1.585,3.447,3.2,2.9,5.509-.827,3.056-4.231,2.03-6.186.665-5.853-4.089-7.8-12.654-3.061-13.629,3.691-.76,4.918,2.944,5.162,5.154A4.719,4.719,0,0,0,151.482,135.568Z" fill="#984c39"/>
        <path id="Path_3163" data-name="Path 3163" d="M151.1,135.561c1.279,1.507,3.462,3.459,3,5.249-.75,2.918-4.027,1.933-5.887.631-5.571-3.892-7.426-12.045-2.913-12.974,3.513-.722,4.53,2.914,4.763,5.015A4.06,4.06,0,0,0,151.1,135.561Z" fill="#de7f6d"/>
        <path id="Path_3164" data-name="Path 3164" d="M148.137,138.308c2.023.838,4.2,2.2,4.078,3.243-.252,2.126-5.324-1.3-7.216-4.345-2.225-3.578-1.451-8.419.782-8.086,1.294.191,1.2,1.989.254,4.515A4.025,4.025,0,0,0,148.137,138.308Z" fill="#ed9a91"/>
        <path id="Path_3165" data-name="Path 3165" d="M148.4,135.878a1.6,1.6,0,0,1,.516-2.188c-.31,1.306.808,2.636,1.843,3.358A2.072,2.072,0,0,1,148.4,135.878Z" fill="#fffdff"/>
      </g>
      <g id="Group_6994" data-name="Group 6994">
        <path id="Path_3166" data-name="Path 3166" d="M92.781,129.489c-1.649,1.265-3.371,3.282-5.646,2.618-3.011-.979-1.817-4.327-.355-6.211,4.377-5.641,13.03-7.16,13.765-2.377.575,3.726-3.188,4.765-5.4,4.9A4.719,4.719,0,0,0,92.781,129.489Z" fill="#984c39"/>
        <path id="Path_3167" data-name="Path 3167" d="M92.809,129.107c-1.571,1.2-3.628,3.286-5.392,2.737-2.877-.893-1.729-4.117-.339-5.909,4.168-5.371,12.4-6.816,13.1-2.263.546,3.545-3.136,4.379-5.247,4.507A4.042,4.042,0,0,0,92.809,129.107Z" fill="#de7f6d"/>
        <path id="Path_3168" data-name="Path 3168" d="M90.214,126.012c-.94,1.977-2.4,4.088-3.443,3.911-2.111-.359,1.569-5.253,4.7-6.989,3.681-2.045,8.478-1.03,8.035,1.184-.256,1.283-2.045,1.1-4.523.027A4.025,4.025,0,0,0,90.214,126.012Z" fill="#ed9a91"/>
        <path id="Path_3169" data-name="Path 3169" d="M92.627,126.4a1.6,1.6,0,0,1,2.159.624c-1.289-.376-2.674.673-3.445,1.673A2.071,2.071,0,0,1,92.627,126.4Z" fill="#fffdff"/>
      </g>
      <g id="Group_6995" data-name="Group 6995">
        <path id="Path_3170" data-name="Path 3170" d="M116.65,116.334c1.062,1.79,1.877,4.333,4.343,4.472,3.3.087,3.55-3.562,2.928-5.887-1.86-6.961-9.55-11.4-12.252-7.025-2.1,3.406,1.082,5.7,3.159,6.594A4.412,4.412,0,0,1,116.65,116.334Z" fill="#984c39"/>
        <path id="Path_3171" data-name="Path 3171" d="M116.7,116.2c1.009,1.7,1.786,4.124,4.133,4.255,3.144.082,3.378-3.39,2.788-5.6-1.771-6.625-9.091-10.85-11.661-6.687-2,3.243,1.028,5.43,3.006,6.277A4.178,4.178,0,0,1,116.7,116.2Z" fill="#de7f6d"/>
        <path id="Path_3172" data-name="Path 3172" d="M119.559,114.3c.385,1.425.463,4.143,1.781,4.149,2.676.012,1.508-4.625-.849-7.332-2.77-3.183-6.722-5.178-7.49-2.484-.174.61.57,2.162,3.023,2.315C118.226,111.086,119.091,112.575,119.559,114.3Z" fill="#ed9a91"/>
        <path id="Path_3173" data-name="Path 3173" d="M116.628,114.85a1.745,1.745,0,0,0-1.946-.426,9.459,9.459,0,0,1,2.5,2.884A2.368,2.368,0,0,0,116.628,114.85Z" fill="#fffdff"/>
      </g>
      <g id="Group_6996" data-name="Group 6996">
        <path id="Path_3174" data-name="Path 3174" d="M99.906,133.392c-1.975-.648-4.612-.93-5.348-3.185-.891-3.036,2.546-3.941,4.926-3.8,7.128.428,13.266,6.713,9.732,10.021-2.75,2.576-5.731.058-7.094-1.7A4.715,4.715,0,0,0,99.906,133.392Z" fill="#984c39"/>
        <path id="Path_3175" data-name="Path 3175" d="M100.237,133.2c-1.879-.617-4.759-1.14-5.3-2.9-.887-2.882,2.421-3.753,4.687-3.617,6.785.407,12.625,6.388,9.263,9.539-2.617,2.451-5.384-.116-6.681-1.786A4.053,4.053,0,0,0,100.237,133.2Z" fill="#de7f6d"/>
        <path id="Path_3176" data-name="Path 3176" d="M101.328,129.31c-2.163.34-4.732.321-5.173-.635-.895-1.946,5.221-1.671,8.423-.066,3.767,1.886,5.637,6.417,3.56,7.3-1.2.512-2.065-1.07-2.577-3.719A4.022,4.022,0,0,0,101.328,129.31Z" fill="#ed9a91"/>
        <path id="Path_3177" data-name="Path 3177" d="M102.372,131.518a1.6,1.6,0,0,1,.7,2.134c-.419-1.277-2.066-1.826-3.325-1.9A2.067,2.067,0,0,1,102.372,131.518Z" fill="#fffdff"/>
      </g>
      <g id="Group_6997" data-name="Group 6997">
        <path id="Path_3178" data-name="Path 3178" d="M110.717,117.748c-2.076-.09-4.645-.754-6.128,1.1-1.9,2.529.994,4.588,3.274,5.291,6.822,2.109,14.779-1.612,12.638-5.953-1.668-3.379-5.344-2.073-7.238-.911A4.708,4.708,0,0,1,110.717,117.748Z" fill="#984c39"/>
        <path id="Path_3179" data-name="Path 3179" d="M110.958,118.046c-1.977-.084-4.857-.61-5.987.85-1.842,2.383.947,4.366,3.116,5.036,6.492,2.008,14.067-1.534,12.028-5.665-1.587-3.217-5.082-1.789-6.884-.681A4.031,4.031,0,0,1,110.958,118.046Z" fill="#de7f6d"/>
        <path id="Path_3180" data-name="Path 3180" d="M110.608,122.07c-1.9-1.082-4.313-1.967-5.061-1.228-1.525,1.5,4.3,3.4,7.859,3.028,4.189-.438,7.533-4.024,5.9-5.583-.947-.9-2.308.274-3.721,2.574A4.028,4.028,0,0,1,110.608,122.07Z" fill="#ed9a91"/>
        <path id="Path_3181" data-name="Path 3181" d="M112.364,120.369a1.6,1.6,0,0,0,1.41-1.75c-.84,1.048-2.577.982-3.781.608A2.07,2.07,0,0,0,112.364,120.369Z" fill="#fffdff"/>
      </g>
      <g id="Group_6998" data-name="Group 6998">
        <path id="Path_3182" data-name="Path 3182" d="M139.1,132.026a3.5,3.5,0,0,0-5.077-.6c-2.746,2.144-4.778,3.386-6.553,4.8-3.116,2.481-3.02,4.665-1.612,6.135,1.214,1.27,3,1.36,5.258-.09,1.24-.795,5.68-4.227,6.406-4.946C139.427,135.445,140.151,133.452,139.1,132.026Z" fill="#984c39"/>
        <path id="Path_3183" data-name="Path 3183" d="M138.833,132.243c-.8-1.094-2.693-1.784-4.727-.387-1.987,1.364-4.578,3.251-6.283,4.6-2.993,2.37-2.974,4.366-1.705,5.667,1.1,1.121,2.762,1.147,4.92-.25,1.186-.769,5.447-4.052,6.151-4.732C139.025,135.361,139.768,133.516,138.833,132.243Z" fill="#de7f6d"/>
        <path id="Path_3184" data-name="Path 3184" d="M135.008,137.355c3.205-1.307,3.455-3.262,2.882-4.189-.821-1.328-3.163-.755-4.968,1.414a20.073,20.073,0,0,1-4.76,3.683c-1.55.854-2.041,2.434-1.07,3.51.354.393,2.824.46,4.037-1.223A9.944,9.944,0,0,1,135.008,137.355Z" fill="#ed9a91"/>
        <path id="Path_3185" data-name="Path 3185" d="M131.594,137.877c1.022.162,3-1.555,3.068-2.252C133.407,135.354,131.356,137.216,131.594,137.877Z" fill="#fffdff"/>
      </g>
      <g id="Group_6999" data-name="Group 6999">
        <path id="Path_3186" data-name="Path 3186" d="M111.73,128.561c-1.624,1.3-4.028,2.464-3.817,4.925.378,3.283,4.025,3.015,6.24,2.073,6.63-2.82,9.944-11.055,5.234-13.116-3.668-1.6-5.5,1.872-6.085,4.053A4.429,4.429,0,0,1,111.73,128.561Z" fill="#984c39"/>
        <path id="Path_3187" data-name="Path 3187" d="M111.87,128.588c-1.545,1.237-3.833,2.346-3.633,4.688.361,3.124,3.83,2.869,5.939,1.974,6.31-2.683,9.466-10.525,4.981-12.485-3.491-1.528-5.23,1.782-5.791,3.858A4.208,4.208,0,0,1,111.87,128.588Z" fill="#de7f6d"/>
        <path id="Path_3188" data-name="Path 3188" d="M114.15,131.153c-1.356.582-4.037,1.042-3.858,2.346.366,2.653,4.791.845,7.14-1.869,2.761-3.19,4.182-7.383,1.408-7.765-.628-.087-2.061.867-1.867,3.317C117.146,129.381,115.794,130.449,114.15,131.153Z" fill="#ed9a91"/>
        <path id="Path_3189" data-name="Path 3189" d="M113.2,128.33a1.748,1.748,0,0,0,.149-1.988,9.45,9.45,0,0,1-2.5,2.885A2.372,2.372,0,0,0,113.2,128.33Z" fill="#fffdff"/>
      </g>
    </g>
    <g id="Group_7001" data-name="Group 7001">
      <path id="Path_3190" data-name="Path 3190" d="M171.561,138.193c-5.531,2.258-27.562,4.288-54.254,4.288s-48.723-2.03-54.253-4.288c-.738-.3-2.254-.894-2.254-.894,0,12.831,8.923,21.492,20.01,27.086h0c1.642,1.3,16.121,4.73,36.484,4.73s34.841-3.432,36.484-4.73h.028c11.087-5.594,20.009-14.255,20.009-27.086C173.815,137.3,172.3,137.893,171.561,138.193Z" fill="#46c4b9"/>
      <path id="Path_3191" data-name="Path 3191" d="M168.358,137.016c0,.378-1.21.759-2.952,1.111-7.048,1.43-25.825,2.508-48.1,2.508-23.4,0-42.962-1.192-49.091-2.728-1.145-.288-1.969-.536-1.969-.891-.285-.562-5.316-.438-5.451.283,0,3.1,25.107,5.6,56.511,5.6s56.5-2.508,56.5-5.6C173.041,136.368,168.474,136.388,168.358,137.016Z" fill="#46c4b9"/>
    </g>
    <path id="Path_3192" data-name="Path 3192" d="M173.815,137.3s-.513,15.71-18.056,26.137" fill="none" stroke="#bdcecc" stroke-miterlimit="10" stroke-width="2"/>
  </g>
  <g id="Group_7019" data-name="Group 7019" transform="translate(-55.933 -60.287)">
    <g id="Group_7003" data-name="Group 7003">
      <path id="Path_3193" data-name="Path 3193" d="M63.576,130.885c-.248-.257-.48-.621-.336-.9.159-.312.651-.271,1.037-.158a7.533,7.533,0,0,1,4.707,4.239l-.023.116a9.254,9.254,0,0,1,5.914-.035c.443.141.95.389,1.053.811a.686.686,0,0,1-.354.74,1.992,1.992,0,0,1-.892.2,10.185,10.185,0,0,1-5.854-1.58l.1-.126,0,0C67.276,132.882,65.023,132.4,63.576,130.885Z" fill="#d8e081"/>
    </g>
    <g id="Group_7004" data-name="Group 7004">
      <path id="Path_3194" data-name="Path 3194" d="M60.881,135.69a1.2,1.2,0,0,1-.434-.587.642.642,0,0,1,.472-.711,1.909,1.909,0,0,1,1,.024,7.244,7.244,0,0,1,4.941,4.094l.011.21a9.344,9.344,0,0,1,6.236-1.175c.474.068,1.044.257,1.186.7a.656.656,0,0,1-.231.7,1.808,1.808,0,0,1-.726.312,10.983,10.983,0,0,1-6.525-.481l.017-.02q-2.116-1.032-4.232-2.055A8.278,8.278,0,0,1,60.881,135.69Z" fill="#d8e081"/>
    </g>
    <g id="Group_7005" data-name="Group 7005">
      <path id="Path_3195" data-name="Path 3195" d="M63.522,147.884a16.549,16.549,0,0,1-6.415-1.689c-.381-.185-.825-.472-.843-.864-.024-.427.466-.636.9-.685a6.037,6.037,0,0,1,3.535.92,19.389,19.389,0,0,1,3,2.313Z" fill="#d8e081"/>
    </g>
    <g id="Group_7006" data-name="Group 7006">
      <path id="Path_3196" data-name="Path 3196" d="M68.821,122.478c.218-.365.81-.308,1.263-.136a5.325,5.325,0,0,1,2.43,2.039,8.016,8.016,0,0,1,1.121,2.849l-.006.008a8.161,8.161,0,0,1,3.843-.113,2.209,2.209,0,0,1,.979.508.885.885,0,0,1,.267.948,1.052,1.052,0,0,1-.977.422,8.956,8.956,0,0,1-4.087-1.4l-.179-.226a21.2,21.2,0,0,1-4.211-3.633C68.932,123.37,68.6,122.854,68.821,122.478Z" fill="#d8e081"/>
    </g>
    <g id="Group_7007" data-name="Group 7007">
      <path id="Path_3197" data-name="Path 3197" d="M71.689,119.768a.8.8,0,0,1,.707-.361,2,2,0,0,1,.87.223,5.157,5.157,0,0,1,2.03,1.838,11.213,11.213,0,0,1,1.132,2.417l-.221-.114a31.319,31.319,0,0,1-3.691-2.379,2.976,2.976,0,0,1-.717-.726A.913.913,0,0,1,71.689,119.768Z" fill="#d8e081"/>
    </g>
    <g id="Group_7008" data-name="Group 7008">
      <path id="Path_3198" data-name="Path 3198" d="M59.436,140.947a3.136,3.136,0,0,1-1.2-.749c-.307-.357-.387-.927-.044-1.17a1.23,1.23,0,0,1,.95-.052,8.929,8.929,0,0,1,5.65,4.256Z" fill="#d8e081"/>
    </g>
    <g id="Group_7009" data-name="Group 7009">
      <path id="Path_3199" data-name="Path 3199" d="M76.319,123.869l.135.1a7.988,7.988,0,0,1,5.1.363,2.336,2.336,0,0,1,.773.458.81.81,0,0,1,.272.767c-.128.4-.685.47-1.149.434A9.276,9.276,0,0,1,76.319,123.869Z" fill="#d8e081"/>
    </g>
    <g id="Group_7010" data-name="Group 7010">
      <path id="Path_3200" data-name="Path 3200" d="M80.907,119.742a8.01,8.01,0,0,1,6.157-3.77,2.341,2.341,0,0,1,.854.034,1.076,1.076,0,0,1,.69.516c.228.474-.128.937-.5,1.23-1.877,1.457-4.561,1.7-7.106,1.9Z" fill="#d8e081"/>
    </g>
    <g id="Group_7011" data-name="Group 7011">
      <path id="Path_3201" data-name="Path 3201" d="M70.875,131.138a.44.44,0,0,0-.018-.058l.04.027-.012-.02a6.731,6.731,0,0,1,5.851-.392c.453.193.955.542.965,1,.012.492-.56.723-1.062.8a8.443,8.443,0,0,1-5.694-1.3l-.023-.041Z" fill="#d8e081"/>
    </g>
    <g id="Group_7012" data-name="Group 7012">
      <path id="Path_3202" data-name="Path 3202" d="M78.95,121.7l-.116-.161a13.108,13.108,0,0,1,2.886-.3,6.744,6.744,0,0,1,2.921.719,2.2,2.2,0,0,1,.745.562.854.854,0,0,1,.191.815c-.172.428-.776.474-1.285.423A11.1,11.1,0,0,1,78.95,121.7Z" fill="#d8e081"/>
    </g>
    <g id="Group_7013" data-name="Group 7013">
      <path id="Path_3203" data-name="Path 3203" d="M66.252,126.183a1.014,1.014,0,0,1,.863-.02,4.938,4.938,0,0,1,2.56,2.03,9.33,9.33,0,0,1,1.182,2.887,31.852,31.852,0,0,1-4.182-3.324,2.446,2.446,0,0,1-.576-.771A.677.677,0,0,1,66.252,126.183Z" fill="#d8e081"/>
    </g>
    <g id="Group_7014" data-name="Group 7014">
      <path id="Path_3204" data-name="Path 3204" d="M64.816,143.282a.362.362,0,0,0-.027-.05.286.286,0,0,0,.054.024l.032-.025a9.055,9.055,0,0,1,5.871-2.795,1.486,1.486,0,0,1,1.231.3.966.966,0,0,1-.014,1.244,3.489,3.489,0,0,1-2.217,1.046,22.829,22.829,0,0,1-4.839.365l0,0,.007.067c-.013-.024-.024-.047-.036-.071-.064,0-.123,0-.189,0Z" fill="#d8e081"/>
    </g>
    <g id="Group_7015" data-name="Group 7015">
      <path id="Path_3205" data-name="Path 3205" d="M63.716,147.853c.048,0,.093,0,.142,0-.055.076-.116.155-.169.233Z" fill="#d8e081"/>
    </g>
    <g id="Group_7016" data-name="Group 7016">
      <path id="Path_3206" data-name="Path 3206" d="M70.737,144.309a2.41,2.41,0,0,1,.915.193,1.109,1.109,0,0,1,.625.676.938.938,0,0,1-.23.8,3.787,3.787,0,0,1-1.947,1.074,20.531,20.531,0,0,1-6.242.8,9.391,9.391,0,0,1,2.775-2.538A7.316,7.316,0,0,1,70.737,144.309Z" fill="#d8e081"/>
    </g>
    <g id="Group_7017" data-name="Group 7017">
      <path id="Path_3207" data-name="Path 3207" d="M71.54,151.241a.793.793,0,0,1-.17.665,1.864,1.864,0,0,1-.556.429,10.362,10.362,0,0,1-3.974,1.184,30.389,30.389,0,0,1-4.2.118l.106.15a18.8,18.8,0,0,1-5.788-2.115,2.69,2.69,0,0,1-.815-.625.763.763,0,0,1-.11-.882,1.033,1.033,0,0,1,.928-.241,7.429,7.429,0,0,1,5.609,3.608l.013-.024a8.123,8.123,0,0,1,5.765-3.328,4.507,4.507,0,0,1,2.362.255A1.357,1.357,0,0,1,71.54,151.241Z" fill="#d8e081"/>
    </g>
    <g id="Group_7018" data-name="Group 7018">
      <path id="Path_3208" data-name="Path 3208" d="M63.1,156.563a45.849,45.849,0,0,1,18.864-36.056c.715-.52-.409-1.6-1.114-1.085A47.04,47.04,0,0,0,61.6,156.465C61.574,157.366,63.07,157.46,63.1,156.563Z" fill="#d8e081"/>
    </g>
  </g>
</svg>
