<svg id="Capa_1" data-name="Capa 1" xmlns="http://www.w3.org/2000/svg" viewBox="0 0 140.54 111.41"><defs><style>.cls-1{fill:#d9eaff;}.cls-2{fill:#cce2ff;}.cls-3{fill:#b5d6ff;}.cls-4{fill:#4585d7;}.cls-5{fill:#fff;}.cls-6{fill:#c3e7f7;}.cls-7{fill:#6bacff;}.cls-8{fill:#95cfe8;}.cls-9{fill:#1360c5;}.cls-10{fill:#0033a0;}.cls-11{fill:#00aec7;}.cls-12{fill:#183d6e;}.cls-13{fill:#3174cc;}.cls-14{fill:#27456c;}.cls-15{fill:#ed904a;}.cls-16{fill:#72a3e3;}.cls-17{fill:#b0e7ff;}.cls-18{fill:#ba682d;}</style></defs><path class="cls-1" d="M7.16,100.41c-3.44.8-7.61,2.66-7.12,5.63s4.88,3.8,8.36,4l27.18,1.67c33.1,2,67.17,5.76,98.76-2.8,2.63-.72,5.64-1.88,6.14-4.16.33-1.51-.62-3-1.86-4.17-4.88-4.49-14.23-3.13-21.45-3.59-21.58-1.39-37.44,1.41-56.62.06C42.55,95.8,24.68,96.32,7.16,100.41Z" transform="translate(0 -2.89)"/><rect class="cls-2" x="65.64" y="6.79" width="34.83" height="7.46"/><rect class="cls-2" x="68.28" y="14.3" width="34.83" height="7.46"/><rect class="cls-3" x="65.64" y="21.76" width="34.83" height="7.46"/><rect class="cls-3" x="66.6" y="36.74" width="34.83" height="7.46"/><path class="cls-4" d="M100.12,13.23a9.05,9.05,0,0,0,.26,1.27c0-.13,0-.05,0,.34-.09,0-.1-.34-.07-.29l-.12,0a7.1,7.1,0,0,0,.12,2.34c-.27-.32-1.94.15-2.21.06-5.73,0-11.94-.49-18.64,0l.36-.12c-.06,0-1.77.11-1.58.06-1.73.1-3.15,0-5,.13-.1.31-7,.06-6.86,0a36.72,36.72,0,0,0,4.71,0c.08.3.35.14,1,.14,1.41,0,3-.2,3.68.12.34,0,1.94,0,1.94,0a5.18,5.18,0,0,0,1.6,0c-.65.1.18.07-.35,0,1.64-.78,5.48.07,7.28-.11-.57.39-.18.1-.17.1,1.57-1,6,.1,8.28.05,2.06,0,4.45-.47,6.33,0-2.12,0,.07,0-.44.14,1.11-.2.23-.45.5-.94,0,0,0,.42,0,.3a4.24,4.24,0,0,1,0-1.36c-.24-1.08-.65-4.8-.09-5.78,0,.15-.07.15-.08,0C100.11,9.63,100.17,12.92,100.12,13.23Z" transform="translate(0 -2.89)"/><path class="cls-4" d="M98.56,10.31c0,.24.51.15,0,.23,0,0-.1,4.42.27,4.44-.18,0,0,2-.13,1.95.08.08,0,.09.1.1s0,0,0,0,0,0,.06,0c.26,0,.15-1,.15-1,.11-.4.16-.43,0-.65,0-.1.42-.47.23-.61-.48.08.28-3.64,0-3.7s-.07-.06,0-.17c-.2,0,0,0-.21,0a4.45,4.45,0,0,0,.15-1.15c0-.08-.47,0-.48,0s.08.06,0,0,0,0,0,0C98.72,10,98.56,10.21,98.56,10.31Z" transform="translate(0 -2.89)"/><path class="cls-4" d="M96.33,12.35s.31.14.23.2c-.3,0,.18-.08-.18,0,.09-.11-.15,3.1.26,3.11-.4,0,0,.33,0,.28-.21-.11,0,.79,0,.73-.14,0-.24.12,0,.32-.13,0-.09.06-.18,0q.15.07,0,0s.23.1,0,0c0,0,0,0,.05,0,.26,0,.15-.69.15-.69.11-.3.18-.28,0-.45.11-.21.23.19.07-.12.08,0,.17,0,.22-.06-.2-.1,0,.06-.22-.15,0,0,.19-.09.17-.1l-.18,0c.27-.05-.19-1,.26-1.2,0,0-.38-1.49,0-1.43-.21-.07-.07,0,0-.11-.19,0,0,0-.22,0,.09,0,.14-.72.16-.81s-.48,0-.49,0,.09.05,0,0,0,0,0,0C96.51,12.14,96.35,12.23,96.33,12.35Z" transform="translate(0 -2.89)"/><path class="cls-4" d="M68,20.8a9.05,9.05,0,0,0,.26,1.27c0-.13,0-.05,0,.34-.09,0-.1-.34-.06-.29l-.12,0A14.09,14.09,0,0,0,68.07,25a12.73,12.73,0,0,1,2.65-.07c5.73,0,11.94.48,18.64,0L89,25c.06,0,1.77-.11,1.58-.06,1.72-.1,3.15,0,5-.13.1-.31,7-.06,6.86-.05a38.79,38.79,0,0,0-4.72,0c-.07-.3-.35-.14-.94-.13-1.42,0-3.05.19-3.68-.13-.34,0-2,0-1.94,0a5.53,5.53,0,0,0-1.6,0c.65-.1-.19-.07.35,0-1.64.77-5.48-.08-7.28.1.56-.39.18-.09.17-.1-1.07.66-13.39.74-14.3,0,.23-.33-.25,0,0-.46,0,0,0,.42,0,.19a6.32,6.32,0,0,1,0-1.25c-.25-1.08-.66-4.8-.1-5.79,0,.16-.07.16-.08,0C68,17.2,68,20.49,68,20.8Z" transform="translate(0 -2.89)"/><path class="cls-4" d="M69.52,17.88c0,.24.51.15,0,.23,0,0-.1,4.42.26,4.44-.17,0,0,2-.12,1.95.08.08,0,.09.1.1s0,0,0,0,0,0,.06,0c.26,0,.15-1,.15-1,.11-.4.16-.43,0-.65,0-.1.42-.47.23-.61-.48.08.28-3.64,0-3.7s-.07-.06,0-.17c-.2,0,0,0-.21,0a4.45,4.45,0,0,0,.15-1.15c0-.08-.47,0-.48,0s.08.06,0,0,0,.05,0,0C69.68,17.53,69.52,17.78,69.52,17.88Z" transform="translate(0 -2.89)"/><path class="cls-4" d="M71.74,19.92s.32.14.23.2c-.29,0,.18-.08-.18,0,.09-.11-.15,3.1.26,3.11-.4,0,0,.33,0,.28-.21-.11,0,.79,0,.73-.14,0-.24.12,0,.32-.13,0-.09.06-.18,0q.16.07,0,0s.23.1,0,0a0,0,0,0,1,.06,0c.25,0,.15-.69.15-.69.1-.3.17-.28,0-.45.11-.21.23.19.07-.12.08,0,.17,0,.22-.06-.19-.1,0,.06-.21-.15,0,0,.19-.09.16-.1l-.18,0c.27-.05-.19-1,.26-1.2,0,0-.38-1.49,0-1.43-.21-.07-.07,0-.05-.12-.19,0,0,0-.21,0,.08,0,.13-.72.15-.81s-.48,0-.48,0,.08.05,0,0,0,0,0,0C71.93,19.71,71.76,19.8,71.74,19.92Z" transform="translate(0 -2.89)"/><rect class="cls-2" x="68.31" y="29.28" width="34.83" height="7.46"/><rect class="cls-2" x="65.64" y="44.2" width="34.83" height="7.46"/><rect class="cls-2" x="68.28" y="51.71" width="34.83" height="7.46"/><rect class="cls-2" x="65.64" y="59.17" width="34.83" height="7.46"/><rect class="cls-2" x="68.28" y="66.69" width="34.83" height="7.46"/><rect class="cls-2" x="66.6" y="74.15" width="34.83" height="7.46"/><rect class="cls-2" x="40.28" y="29" width="34.83" height="7.46" transform="translate(115.38 62.57) rotate(180)"/><rect class="cls-2" x="37.64" y="36.51" width="34.83" height="7.46" transform="translate(110.11 77.6) rotate(180)"/><rect class="cls-3" x="40.28" y="43.97" width="34.83" height="7.46" transform="translate(115.38 92.52) rotate(180)"/><rect class="cls-3" x="39.32" y="58.95" width="34.83" height="7.46" transform="translate(113.47 122.46) rotate(180)"/><path class="cls-4" d="M39.92,32.55a9.05,9.05,0,0,0,.26,1.27c0-.14,0-.06,0,.34-.09,0-.09-.34-.06-.29a.25.25,0,0,1-.12,0A14.17,14.17,0,0,0,40,36.71a13.54,13.54,0,0,1,2.65-.08c5.73,0,11.94.49,18.64,0l-.36.12c.06,0,1.77-.11,1.58-.06,1.72-.1,3.15,0,5-.13.1-.31,7-.06,6.86,0a36.72,36.72,0,0,0-4.71,0c-.08-.3-.35-.14-1-.14-1.41,0-3,.2-3.68-.12-.34,0-1.94,0-1.94,0a5.53,5.53,0,0,0-1.6,0c.65-.1-.18-.07.35,0-1.64.77-5.48-.08-7.28.1.56-.39.18-.1.17-.1-1.06.66-13.38.74-14.3,0,.23-.33-.25,0,0-.46,0,0,0,.42,0,.18a7.14,7.14,0,0,1,0-1.24c-.25-1.08-.65-4.8-.1-5.79,0,.16-.07.16-.07,0C39.92,29,40,32.24,39.92,32.55Z" transform="translate(0 -2.89)"/><path class="cls-4" d="M41.48,29.63c0,.24.51.15.05.23,0,0-.1,4.42.26,4.44-.18,0,0,2-.12,2,.08.07,0,.09.09.1s0,0,0,0,0,0,.05,0c.26,0,.15-1,.15-1,.11-.4.16-.43,0-.65,0-.1.42-.48.24-.61-.49.08.28-3.64,0-3.7s-.06-.06,0-.17c-.2,0,0,0-.22,0,.1,0,.14-1,.16-1.15s-.47,0-.49,0,.08.06,0,0,0,.06,0,.05C41.64,29.28,41.49,29.52,41.48,29.63Z" transform="translate(0 -2.89)"/><path class="cls-4" d="M43.71,31.67s.31.14.23.19c-.3,0,.18-.07-.19,0,.09-.11-.15,3.1.26,3.11-.39,0,0,.33,0,.28-.21-.11,0,.79,0,.73-.15,0-.25.11,0,.31-.13,0-.09.07-.18.05.11,0,.11,0,0,0s.24.1,0,0c0,0,0,0,.06,0,.26,0,.15-.69.15-.69.1-.31.17-.29,0-.45.12-.21.23.19.08-.12a1.91,1.91,0,0,0,.21-.06c-.19-.1,0,.05-.21-.15,0,0,.19-.09.16-.1a1.13,1.13,0,0,0-.18,0c.27,0-.19-1,.26-1.21,0,0-.38-1.49,0-1.42-.21-.07-.07,0,0-.12-.19,0,0,0-.21,0,.08,0,.14-.72.15-.81s-.47,0-.48,0,.08.05,0,0,0,0,0,0C43.89,31.46,43.72,31.55,43.71,31.67Z" transform="translate(0 -2.89)"/><path class="cls-4" d="M70.52,37.2c0,.24.51.15,0,.23,0,0-.1,4.42.26,4.44-.18,0,0,2-.12,2,.08.07,0,.09.09.1s0,0,0,0,0,0,0,0c.26,0,.15-1,.15-1,.11-.4.16-.43,0-.65,0-.1.42-.48.24-.61-.49.08.28-3.64,0-3.7s-.06-.06,0-.17c-.2,0,0,0-.22,0,.1,0,.14-1,.16-1.15s-.47,0-.49,0,.08.06,0,0,0,0,0,0C70.68,36.85,70.53,37.09,70.52,37.2Z" transform="translate(0 -2.89)"/><path class="cls-4" d="M68.29,39.23c0,.05.32.15.23.2-.29,0,.18-.07-.18,0,.09-.11-.15,3.1.26,3.11-.4,0,0,.33,0,.28-.21-.11,0,.79,0,.73-.14,0-.24.11,0,.31-.13,0-.09.07-.18.05.11,0,.11,0,0,0s.24.1,0,0c0,0,0,0,.06,0,.25,0,.15-.69.15-.69.1-.31.17-.29,0-.45.11-.21.23.19.07-.12a2.18,2.18,0,0,0,.22-.06c-.19-.1,0,0-.21-.16,0,0,.19-.08.16-.09a1.13,1.13,0,0,0-.18,0c.27,0-.19-1,.26-1.21,0,0-.38-1.49,0-1.42-.21-.07-.07,0,0-.12-.19,0,0,0-.21,0,.08,0,.13-.72.15-.81s-.48,0-.48,0,.08,0,0,0,0,0,0,0C68.48,39,68.31,39.12,68.29,39.23Z" transform="translate(0 -2.89)"/><rect class="cls-2" x="37.61" y="51.49" width="34.83" height="7.46" transform="translate(110.04 107.54) rotate(180)"/><path class="cls-4" d="M40.53,59.3a4.74,4.74,0,0,0,1-.26c-.14,0,0,0,.28,0,0,.21-.43-.06-.23.19,1.08.12,2.91-.66,4.1-.14,3.81.23,7.76.16,12.16.1,3.67,0,5.42-.27,8.32-.17.18-.65,5.44.51,5.72,0-.06-.05-.09,0-.07,0-.43.23-3-.26-3.88-.07-.06-.3-.27-.14-.78-.14a11.68,11.68,0,0,0-3,0c-.77-.06-1.92-.62-2.91-.14,0-.06.25.07.26.09-.87-.69-4.95-.09-6,0,.42-.36.18-.08.13-.1-.83.62-10.91.52-11.89,0,.24.09.32.05.24-.14-.09,0-.81.13-.78.15h.23c-.27.17-1.07,0-1.1,0-.73.21-4.15.53-4.77.1.12,0,.13.07,0,.08C37.57,59.31,40.27,59.27,40.53,59.3Z" transform="translate(0 -2.89)"/><path class="cls-4" d="M42.07,44.07l-1.74,0C40.91,44.07,41.51,44.09,42.07,44.07Z" transform="translate(0 -2.89)"/><path class="cls-4" d="M58,44.15l-.09.05S57.59,44.46,58,44.15Z" transform="translate(0 -2.89)"/><path class="cls-4" d="M72.31,40s0,.06,0,.08a.25.25,0,0,0,0,.08Z" transform="translate(0 -2.89)"/><path class="cls-4" d="M72.31,42c0,.26,0,.48,0,.7Z" transform="translate(0 -2.89)"/><path class="cls-4" d="M72.31,43.71c-.54-.13-2,.23-2.28.14-5.73,0-11.94-.48-18.64,0l.36-.11c-.06,0-1.77.11-1.58.06-1.72.1-3.15,0-5,.13a6.63,6.63,0,0,1-2.1.15c.11.16.39,0,.9,0,1.42,0,3-.19,3.68.13.34,0,1.94,0,1.94,0a7,7,0,0,0,1.35,0s.09,0,.09,0a.62.62,0,0,0,.16,0l-.17,0a.7.7,0,0,0-.18,0c1.64-.77,5.48.08,7.28-.1l-.08,0c1.64-.89,6,.14,8.19.1a37.7,37.7,0,0,1,6.09-.12Z" transform="translate(0 -2.89)"/><path class="cls-4" d="M72.31,44.22H71.9l.41,0Z" transform="translate(0 -2.89)"/><path class="cls-4" d="M71.9,44.21Z" transform="translate(0 -2.89)"/><path class="cls-4" d="M43,44a6.81,6.81,0,0,1-1,.09h1A.19.19,0,0,1,43,44Z" transform="translate(0 -2.89)"/><path class="cls-4" d="M38.3,44s.86,0,2,.07C39.53,44,38.79,43.94,38.3,44Z" transform="translate(0 -2.89)"/><rect class="cls-2" x="40.28" y="66.41" width="34.83" height="7.46" transform="translate(115.38 137.38) rotate(180)"/><rect class="cls-2" x="37.64" y="73.92" width="34.83" height="7.46" transform="translate(110.11 152.41) rotate(180)"/><rect class="cls-2" x="40.28" y="81.38" width="34.83" height="7.46" transform="translate(115.38 167.33) rotate(180)"/><rect class="cls-2" x="37.64" y="88.9" width="34.83" height="7.46" transform="translate(110.11 182.36) rotate(180)"/><rect class="cls-2" x="39.32" y="96.36" width="34.83" height="7.46" transform="translate(113.47 197.28) rotate(180)"/><path class="cls-5" d="M75.46,46.18a17.63,17.63,0,0,1-.26-1.88c0,.15,0,.14,0,0a.21.21,0,0,1,.08.17c0-.33.08-.56-.3-.6,0,.09.28,0,.32-.1a2,2,0,0,1,0,.43.36.36,0,0,1,.12-.08c0-.68-2.58-.36-2.58-.36-.27-.26-.3-3.82-.19-4.26-.9-3.89,1-1.64,2.09-2.48.57-.44,1.4-4.49.53-5.88-.31-2.9.17-2.4-3.26-2.42-4.1,0-7-.09-11.34.11l.52-.11c-.1,0-2.57.1-2.34.06-.94,0-2.89,0-3.75.08a20.55,20.55,0,0,1-2.55.05l.16-.09q-2,0-1.26.09c-.1.21-3.46-.05-3.71-.05a4.12,4.12,0,0,1-2.07,0c.32.07.1.12-.67.15-.53.18-3.49-.4-3.82-.06a39,39,0,0,0,7.1,0c.11.3.59.1,1.4.13l2.25.06a5.35,5.35,0,0,0,2,0,8.47,8.47,0,0,0,1.21.08,10.08,10.08,0,0,1,2.13.12s.67-.26.74-.13a.49.49,0,0,0-.24.08c1-.16,1.49.21,2.61-.09-.88-.07.3.08-.52,0,2.93-.93,7.83.1,10.77-.1-1,.49-.13.13-.25.1,1.5-.63,3.9.41,4.45.12-.46.34.07,6.52.11,7.25-.07,0-.09,0,0,0-.39-.3-2,0-2.68,0,0,1.83,0,5.76.11,6a8.5,8.5,0,0,0-.05,1.73c.1,0,0-.71,0-.69a1.29,1.29,0,0,0,1.72.65c1.63-.25,1.56,5.82,1,7.26,0-.39,0,.06.23,0C75.59,51.34,75.32,46.71,75.46,46.18Z" transform="translate(0 -2.89)"/><rect class="cls-2" x="98.16" y="29" width="34.83" height="7.46" transform="translate(231.15 62.57) rotate(180)"/><rect class="cls-2" x="95.53" y="36.51" width="34.83" height="7.46" transform="translate(225.88 77.6) rotate(180)"/><rect class="cls-3" x="98.16" y="43.97" width="34.83" height="7.46" transform="translate(231.15 92.52) rotate(180)"/><rect class="cls-3" x="97.2" y="58.95" width="34.83" height="7.46" transform="translate(229.24 122.46) rotate(180)"/><path class="cls-4" d="M97.81,32.55a6.87,6.87,0,0,0,.26,1.27c0-.14,0-.06,0,.34-.09,0-.1-.34-.07-.29a.25.25,0,0,1-.12,0,15,15,0,0,0,.06,2.83,13.57,13.57,0,0,1,2.65-.08c5.74,0,12,.49,18.64,0l-.35.12c.05,0,1.76-.11,1.58-.06,1.72-.1,3.14,0,5-.13.11-.31,7-.06,6.87,0a36.89,36.89,0,0,0-4.72,0c-.08-.3-.35-.14-1-.14-1.41,0-3,.2-3.67-.12-.34,0-1.95,0-1.94,0a5.59,5.59,0,0,0-1.61,0c.65-.1-.18-.07.36,0-1.65.77-5.48-.08-7.28.1.56-.39.18-.1.16-.1-1.06.66-13.38.74-14.29,0,.22-.33-.26,0,0-.46,0,0,0,.42,0,.18a6.44,6.44,0,0,1,0-1.24c-.24-1.08-.65-4.8-.09-5.79-.05.16-.07.16-.08,0C97.8,29,97.86,32.24,97.81,32.55Z" transform="translate(0 -2.89)"/><path class="cls-4" d="M130,40.12a9.05,9.05,0,0,0,.26,1.27c0-.14.05-.06,0,.34-.09,0-.09-.34-.06-.29H130a6.82,6.82,0,0,0,.12,2.34c-.28-.31-1.95.16-2.21.06-5.74,0-12-.48-18.64,0l.35-.11s-1.76.11-1.58.06c-1.72.1-3.14,0-5,.13-.11.31-7,.06-6.87,0a38.81,38.81,0,0,0,4.72,0c.08.3.35.14.95.13,1.41,0,3-.19,3.67.13.34,0,2,0,1.94,0a5.59,5.59,0,0,0,1.61,0c-.65.1.18.07-.36,0,1.65-.77,5.48.08,7.28-.1-.56.39-.18.09-.16.1,1.57-1,6,.09,8.28,0,2.06,0,4.45-.47,6.33,0-2.12,0,.07,0-.45.14,1.11-.2.23-.45.5-.94,0,0,0,.41,0,.29a4.18,4.18,0,0,1,0-1.35c-.25-1.08-.65-4.8-.1-5.79,0,.15-.07.16-.07,0C130,36.52,130,39.81,130,40.12Z" transform="translate(0 -2.89)"/><path class="cls-4" d="M128.4,37.2c0,.24.52.15,0,.23,0,0-.1,4.42.26,4.44-.18,0,0,2-.12,2,.08.07,0,.09.09.1s0,0,0,0,0,0,.06,0c.26,0,.15-1,.15-1,.11-.4.16-.43,0-.65,0-.1.42-.48.24-.61-.49.08.28-3.64.05-3.7s-.07-.06-.05-.17c-.2,0,0,0-.21,0a4.45,4.45,0,0,0,.15-1.15c0-.08-.47,0-.48,0s.08.06,0,0,0,0,0,0C128.56,36.85,128.41,37.09,128.4,37.2Z" transform="translate(0 -2.89)"/><path class="cls-4" d="M126.18,39.23c0,.05.31.15.23.2-.3,0,.18-.07-.19,0,.09-.11-.15,3.1.27,3.11-.4,0,0,.33,0,.28-.21-.11,0,.79,0,.73-.15,0-.25.11,0,.31-.12,0-.09.07-.18.05.11,0,.11,0,0,0s.24.1.06,0c0,0,0,0,0,0,.26,0,.15-.69.15-.69.1-.31.17-.29,0-.45.11-.21.22.19.07-.12a1.91,1.91,0,0,0,.21-.06c-.19-.1,0,0-.21-.16,0,0,.19-.08.17-.09a1.08,1.08,0,0,0-.19,0c.27,0-.19-1,.26-1.21,0,0-.38-1.49,0-1.42-.2-.07-.07,0,0-.12-.19,0,0,0-.21,0,.09,0,.14-.72.15-.81s-.47,0-.48,0,.09,0,0,0,0,0,0,0C126.36,39,126.2,39.12,126.18,39.23Z" transform="translate(0 -2.89)"/><rect class="cls-2" x="95.49" y="51.49" width="34.83" height="7.46" transform="translate(225.81 107.54) rotate(180)"/><rect class="cls-3" x="98.16" y="66.41" width="34.83" height="7.46" transform="translate(231.15 137.38) rotate(180)"/><rect class="cls-3" x="95.53" y="73.92" width="34.83" height="7.46" transform="translate(225.88 152.41) rotate(180)"/><rect class="cls-3" x="98.16" y="81.38" width="34.83" height="7.46" transform="translate(231.15 167.33) rotate(180)"/><rect class="cls-3" x="95.53" y="88.9" width="34.83" height="7.46" transform="translate(225.88 182.36) rotate(180)"/><rect class="cls-3" x="97.2" y="96.36" width="34.83" height="7.46" transform="translate(229.24 197.28) rotate(180)"/><path class="cls-6" d="M112.06,6.1a.83.83,0,0,0,0,.47A.83.83,0,0,0,112.06,6.1Z" transform="translate(0 -2.89)"/><path class="cls-6" d="M117,8.19l-.23.05a4.66,4.66,0,0,1-2.68-1.73c-.63-1-1.13-2.21-1.66-2.94a1.08,1.08,0,0,0-.14-.24.5.5,0,0,1,0,.13h0l0-.12h0c-.06-.15-.12-.29-.17-.43,0,.12.07.24.11.35l0,0,0,0,0,.1,0-.05s0,.13.12.37,0,.2,0,.3a9.35,9.35,0,0,1-.29,1.61,1.7,1.7,0,0,1,0,1v0c0,.25-.13.5-.14.61s-.19-.07-.19-.09c-.1.15.12.56,0,.7-.15-.25-1.08,1.87-1.17,2.2-.07.08-.07-.17-.1,0a1.21,1.21,0,0,1-.09-.2c0,.09,0,.1-.08,0,.12.18-1,1.22-1.13,1.42,3.73.07,4.8,1.85,5.75,4.51a6.44,6.44,0,0,0,.19.74l.55-.15c-.06-.16-.14-.39-.25-.66h.06c-.22-1.26-.51-1.92-.59-3,0-.2,0-.4,0-.6C115.67,11.51,115.34,8.94,117,8.19Zm-1.55,7.5a.5.5,0,0,1,0,.12A.19.19,0,0,1,115.42,15.69Z" transform="translate(0 -2.89)"/><path class="cls-7" d="M108.72,15.46a.49.49,0,0,0,0,.24A.39.39,0,0,0,108.72,15.46Z" transform="translate(0 -2.89)"/><path class="cls-7" d="M111.18,16.51l-.12,0a2.32,2.32,0,0,1-1.34-.86c-.31-.51-.56-1.11-.83-1.48a.41.41,0,0,0-.07-.11.16.16,0,0,1,0,.06h0l0-.07h0a1.8,1.8,0,0,1-.08-.21.84.84,0,0,1,.05.17h0l0,.06,0,0,.06.19,0,.15a3.94,3.94,0,0,1-.15.8.86.86,0,0,1,0,.51h0c0,.12-.06.24-.07.3s-.09,0-.09-.05.06.29,0,.36c-.07-.13-.54.93-.58,1.1s0-.09,0,0l0-.11c0,.05,0,.05,0,0s-.49.61-.56.71c1.87,0,2.4.93,2.88,2.25a2.14,2.14,0,0,0,.09.38l.28-.08a3.26,3.26,0,0,1-.13-.33h0c-.11-.63-.26-1-.3-1.49,0-.1,0-.2,0-.3C110.53,18.17,110.36,16.88,111.18,16.51Zm-.78,3.75s0,0,0,.06A.1.1,0,0,1,110.4,20.26Z" transform="translate(0 -2.89)"/><path class="cls-6" d="M57.11,15.87l.24-.1A2.45,2.45,0,0,1,55,15c-.9-1.16-1.09-3.21-1.84-4.54,0-.19-.06-.36-.09-.52v.33s0,0,0,0h0s0,0,0,0v0s0,0,0-.06c-.08-.19-.06.18,0,.7v.15c-.11.52-.31,1.09-.35,1.28a1.66,1.66,0,0,1,0,.92v0c0,.23-.1.47-.12.55s-.17,0-.17-.08c-.08.13.15.49.06.63-.11-.17-1,1.6-1.17,1.87-.07.05-.11-.23-.2-.22.09.21-1,.55-1.43.81.65-.23,3.43,1.91,3.41,1.89a6.07,6.07,0,0,1,1.33,2.57c0,.14,0,.29,0,.42h0l.39-.06h0a6.61,6.61,0,0,0-.16-.68c0-.26-.05-.51,0-.58a1.47,1.47,0,0,1,0,.21C54.92,20.53,55.37,16.73,57.11,15.87Z" transform="translate(0 -2.89)"/><path class="cls-6" d="M49.57,16.89a.57.57,0,0,1,.11-.1A.18.18,0,0,0,49.57,16.89Z" transform="translate(0 -2.89)"/><path class="cls-6" d="M52.7,12.81a.67.67,0,0,0,0,.42A.94.94,0,0,0,52.7,12.81Z" transform="translate(0 -2.89)"/><rect class="cls-8" x="11.57" y="31.33" width="43.28" height="6.16" rx="2.07"/><rect class="cls-8" x="11.57" y="96.19" width="43.28" height="6.16" rx="2.07"/><path class="cls-6" d="M51.51,56.2V40.38H14.9V56.2A11.29,11.29,0,0,0,26.2,67.49h0a2.24,2.24,0,0,1,2.23,2.24h0A2.23,2.23,0,0,1,26.2,72h0A11.29,11.29,0,0,0,14.9,83.26V99.08H51.51V83.26A11.29,11.29,0,0,0,40.22,72h0A2.24,2.24,0,0,1,38,69.73h0a2.24,2.24,0,0,1,2.24-2.24h0A11.29,11.29,0,0,0,51.51,56.2Z" transform="translate(0 -2.89)"/><path class="cls-6" d="M51.51,56.2V40.38H14.9V56.2A11.29,11.29,0,0,0,26.2,67.49h0a2.24,2.24,0,0,1,2.23,2.24h0A2.23,2.23,0,0,1,26.2,72h0A11.29,11.29,0,0,0,14.9,83.26V99.08H51.51V83.26A11.29,11.29,0,0,0,40.22,72h0A2.24,2.24,0,0,1,38,69.73h0a2.24,2.24,0,0,1,2.24-2.24h0A11.29,11.29,0,0,0,51.51,56.2Z" transform="translate(0 -2.89)"/><path class="cls-9" d="M26.16,63.9a5.83,5.83,0,0,1,5.78,4.85,1.19,1.19,0,0,0,1.18,1h0a1.36,1.36,0,0,0,1.33-1.11,5.84,5.84,0,0,1,5.76-4.72,7.72,7.72,0,0,0,7.67-7.78V54.9a1.12,1.12,0,0,0-1.12-1.11H19.61A1.11,1.11,0,0,0,18.5,54.9v1.21A7.72,7.72,0,0,0,26.16,63.9Z" transform="translate(0 -2.89)"/><path class="cls-9" d="M47.23,97.11h-28a2.15,2.15,0,0,1-1.47-3.73l14-13.07a2.16,2.16,0,0,1,2.94,0l14,13.07A2.15,2.15,0,0,1,47.23,97.11Z" transform="translate(0 -2.89)"/><path class="cls-5" d="M43.09,67.48c.08,0,1-.48.91-.55s0,0,.26-.06c.13.18-.41.08-.14.25,3.87-.93,6.68-5,7.48-9,1-4.84-.1-8.38,0-11.78-.61-.17.47-5.26,0-5.52-.05.06,0,.09,0,.08q0,.21-.06.06c-.42.21-.1,3.26,0,3.67-.28.06-.17.26-.14.75a8.57,8.57,0,0,0,0,2.93c-.07.73-.63,1.87-.15,2.8-.17,0,.1-.26.09-.25-.67.83-.07,4.76,0,5.75.68.83-2.9,9.1-5.62,9.14.25-.05.29-.13.13-.24-.07.09-.58.5-.57.5s.25-.16.19-.11c-.3.68-4.58,2-5.33,1.46.12,0,.12.06,0,.07C40.16,68,42.86,67.51,43.09,67.48Z" transform="translate(0 -2.89)"/><path class="cls-5" d="M51.86,96.26a3.84,3.84,0,0,0-.26-1c0,.14,0,0,0-.27.21-.06-.07.41.18.22.12-1-.65-2.83-.14-3.95.18-4.08,1.11-12.54-2.55-15.32A14.52,14.52,0,0,0,46,73.44c-.53.53-4.56-2.79-5.28-1.53.06,0,.09,0,.08,0s.16.05.06.06c.12.27,3.15.73,3.59.79-.06.28.17.24.62.43,1.27.7,1.43.93,2.46,1.55.52.56.85,1.69,1.76,2.13-.21,0-.08-.22-.08-.24,0,1,1.82,4.07,2.15,5.21-.12-.1.71,10,0,11.32.09-.24,0-.32-.14-.24,0,.09.13.79.15.76s0-.32,0-.22c.17.25,0,1,0,1.06.19.68.5,4,.09,4.59.05-.12.07-.13.08,0C51.88,99.12,51.83,96.52,51.86,96.26Z" transform="translate(0 -2.89)"/><path class="cls-5" d="M38,34.67s.73-.14.7-.31c0,.06,0,.07,0,0-.11.18,0,.19.19,0,0,.27-.26,0-.15.27,1.21.41,3.94-.26,5.33-.32,2.58-.13,5.34.8,7.71.24a2.2,2.2,0,0,0-.2.23c.51-.22,1,.17,1-.51-.16.89,1.32.06,1.24,0,.8-.56.77,4.17.91,4.56,0-.1,0-.12,0-.05.44-.31,0-2.36-.06-2.55.46,0,.26-.14.24-.53.14-1.21-.18-2-1.12-1.61-.38-.14.09-.28,0-.35-.31-.07-.21.09-.59.18-.13-.18-.14-.41-.26-.47-.22.21.1,0-.14.37-.08-.11-.14-.28-.11-.31s-.3.34-.44.41-.34-.43-.44-.34c.08.3.06.08.14.38-.18-.44-3.41,0-4,.12,0,0-7.8-.1-7.87-.19,0,.08.15-.31.15-.31s-.59.18-.53.28.15-.23,0,.19c-.19-.5-2.8.11-3.76.1.08,0,.09,0,0,0S38.21,34.75,38,34.67Z" transform="translate(0 -2.89)"/><path class="cls-5" d="M19.46,84c-1.58-.46-5,8.74-1.1,10S21.29,84.5,19.46,84Z" transform="translate(0 -2.89)"/><path class="cls-5" d="M19.46,51.8c-1.93-.08-2.52,5.29-2.25,6.53a7.32,7.32,0,0,0,6.27,5.36c1,0,1.25-.27.57-1.89s-2.48-3.11-3.21-5.12C20.25,55.09,21.5,51.89,19.46,51.8Z" transform="translate(0 -2.89)"/><path class="cls-5" d="M19.46,43.2c-1.76-1.42-3.9,4.37-1.1,5.25S21.09,44.5,19.46,43.2Z" transform="translate(0 -2.89)"/><circle class="cls-9" cx="74.36" cy="80.75" r="24"/><path class="cls-5" d="M51.31,77.42c.17-.57.28-1.87.61-2.17-.05.16,0,.16,0,0s-1,2.11.23-.55c0,0-.21.66-.17.49h.06c1.09-2.48,2.19-5.48,4.57-7.49a23.19,23.19,0,0,1,5.3-4.23c1.5-.87,4.55-1.6,5.73-2.69C74,58.37,81,60.23,86.75,63.28c-.2-.08-.4-.16-.6-.22,1,.45,1.63,1.07,2.37,1.46a22.71,22.71,0,0,1,3.08,2.63l.32.32a20.5,20.5,0,0,1,2,2.34l-.17-.12c.11.14.94,1.26.91,1.21.6.13,1.87,3.66,2,4s.71,1.84.64,1.64c.14,1,0-.22.17.71-.09-.38,0-.13.25.76a24.08,24.08,0,0,1,.65,4.55c0-1.23-.35-2.73-.62-4.54a24.64,24.64,0,0,1-1.24-3.86c-.2-.48-.52-1.09-.69-1.44-.47-.89-1-1.68-1.47-2.55a.37.37,0,0,1,.13.17c-.68-1.22-.72-.39-1.47-2.1l.06.18a13,13,0,0,0-.92-1.15,21.1,21.1,0,0,1-1.77-1.88s-.76-.32-.76-.51a1,1,0,0,0,.28.14c-.49-.36-1.1-.72-1.38-.9,0-.15-.88-.77-1.24-.91.89.61-.27-.26.53.35a33,33,0,0,1-3.43-1.84.19.19,0,0,1,.22,0,19.17,19.17,0,0,0-9.06-2.1c1-.08,1-.11.09-.08-3.27.22-4.72-.07-7.74.78A30.84,30.84,0,0,0,58,65.67c-1.89,1.78-2.6,3.46-4.15,5.21,1.45-2.28,0,0,.21-.5a14.44,14.44,0,0,1-.79,1.52l.07-.15c0,.12,0,0,.17-.29a22.06,22.06,0,0,1-1.1,2.13,29.7,29.7,0,0,0-2.09,10c0-.46,0-.09,0,0A27.45,27.45,0,0,1,51.31,77.42Z" transform="translate(0 -2.89)"/><circle class="cls-10" cx="74.36" cy="83.65" r="18.28" transform="translate(-20.12 140.76) rotate(-80.78)"/><path class="cls-11" d="M75.69,95.85H73a6.64,6.64,0,0,1-6.63-6.64,1.33,1.33,0,0,1,2.66,0,4,4,0,0,0,4,4h2.66a4,4,0,0,0,0-8H73A6.64,6.64,0,0,1,73,72h2.66a6.64,6.64,0,0,1,6.63,6.63,1.33,1.33,0,1,1-2.66,0,4,4,0,0,0-4-4H73a4,4,0,0,0,0,8h2.66a6.64,6.64,0,0,1,0,13.27Z" transform="translate(0 -2.89)"/><path class="cls-11" d="M74.36,98.5A1.32,1.32,0,0,1,73,97.17V70.65a1.33,1.33,0,1,1,2.66,0V97.17A1.33,1.33,0,0,1,74.36,98.5Z" transform="translate(0 -2.89)"/><path class="cls-11" d="M91.77,88.35a18.3,18.3,0,0,1-.52,2.11c-.22,0,.25-.59-.06-.42-.62,1.19-1.73,5-3.43,5.66a34.89,34.89,0,0,1-4.88,3.75c-.14-.18-.16-.16-.06,0A24.47,24.47,0,0,1,72.28,101c-1.86-.15-9-3-9.11-2.93-2.71,1.42-6.54-11.44-7.12-13.58,0,.06,0,.55,0,.23-.53,2.34,1.15,6.12,1.85,7.34,1.07,2.22,1.3,3,2.92,4.11.31.4-.25.17-.24.2,1,1.06,2.26,3.18,3.76,3.16-.71-.27,0,.16-.39-.28,2.6-.19,6.32,3.31,9.52,2.89-.67.77-.39.14-.24.25,1.45-1.43,7.51-.34,10.7-2.33,2.76-1.73,3.91-5.06,6.24-6.54-.34.27-.35.43,0,.48,0-.15.48-1.29.46-1.28s-.24.47-.18.35c0-.53.85-1.57.83-1.66.55-2.56,1.45-4.92,1.46-7.75,0,.21,0,.21,0,0A14.2,14.2,0,0,1,91.77,88.35Z" transform="translate(0 -2.89)"/><path class="cls-11" d="M57.06,79a10,10,0,0,0,.25-1.7c-.09.21,0-.06.21-.42.35.05-.33.6.14.45.58-1,1.84-5.27,3.4-5.62,2.44-2.06,3-2.15,4.86-3.7.18.26.2.24,0-.06,5.78-1.57,10.87-2,17.63.54a2.88,2.88,0,0,0-.59.07c.85.19,1.83,1.37,2.51.73,1.77-1.19,7,10.9,7.14,13.44,0,0,0-.41,0-.12.52-1.57-.81-5.14-1.47-6.09.38-.26.12-.55-.33-1.27-1.15-2.32-1.2-3.06-2.94-4.11-.35-.5.33-.21.33-.28-.32-.35-1.78-2.21-1.95-1.9.2.24-1.36-1.38-1.84-1.3.5.07.18,0,.39.3-1.06.24-5.47-2.72-7.49-2.55-.34-.72-1.13-.48-2.11-.29.66-1,.43-.16.25-.34-.54.72-3.38-.29-3.8-.49-1.19-3.2-12.78,9.24-13.25,9.46.36-.29.34-.46,0-.53,0,.2-.44,1.36-.38,1.34s.25-.51.17-.36c.08.55-.87,1.54-.81,1.67-.34,2.54-1.43,5-1.38,7.8,0-.21,0-.21,0,0A12.92,12.92,0,0,1,57.06,79Z" transform="translate(0 -2.89)"/><path class="cls-12" d="M101.3,101.53s-2.62,3.57-4.93,4.61-3.39.77-3.12,1.72,2.36.63,3.71.63,5.52-.9,6-.9l.32.72a10.3,10.3,0,0,0,3.44-.27,15.29,15.29,0,0,0-.83-5.72Z" transform="translate(0 -2.89)"/><path class="cls-9" d="M95,65.56s-.55,24.84,3.4,36.62a19.44,19.44,0,0,0,9.27.37l.89-23.43v-16Z" transform="translate(0 -2.89)"/><path class="cls-5" d="M94.58,68.66a5.68,5.68,0,0,0,.26,1.11c0-.14,0,0,0,.3-.17.05,0-.41-.19-.24-.12,1.18.7,3,.2,4.34,0,4.61-.6,13.3,1.09,17.32.25,1.44.47,2.71.8,4.3.77.09.52,5.72,1.42,5.9q0-.1-.06-.06c-.39-.4-.59-3.18-1-4,.26-.12.1-.32,0-.84-.2-1.16-.61-2.69-.41-3.18,0-.27-.21-1.69-.25-1.67a4.51,4.51,0,0,0-.18-1.38c.09.68.06-.27,0,.3-.85-1.21-.44-4.86-.71-6.3.4.43.1.17.11.13-1.68-2,.16-10.51-.52-12.29.27,0-.05-.81,0-.86a2.39,2.39,0,0,0,0,.24c-.18-.28,0-1.13,0-1.16-.23-.84-.57-4.33-.08-5.05,0,.13-.07.14-.08,0C94.57,65.51,94.65,68.38,94.58,68.66Z" transform="translate(0 -2.89)"/><path class="cls-12" d="M110.27,101.87s-2.62,3.57-4.92,4.61-3.39.77-3.12,1.72,2.35.63,3.7.63,5.52-.9,6-.9l.31.72a10.3,10.3,0,0,0,3.44-.27,15.29,15.29,0,0,0-.83-5.72Z" transform="translate(0 -2.89)"/><path class="cls-13" d="M109.42,102.33s-.09.36,0,.43,0-.06,0,0c-.14-.07,0,0-.18-.13,0,0-4.55,4.38-4.63,4.11s-2.76,1.07-2.61,1.16,0,.17.1.17,0,0,0,0,0-.07.06,0,.18-.2.12-.38c.26.14.59-.14.74-.37.12.3.1.12.27.07.56-.07.63,0,.88-.32.14,0,.78.23.92-.07-.1-.13,0,0-.14-.16.43.47,4.5-2.94,4.38-3.15s.13-.27,0-.3a10.09,10.09,0,0,1,1.09-1.26c0-.12-.36-.34-.4-.33s0,.07,0,0S109.36,102.47,109.42,102.33Z" transform="translate(0 -2.89)"/><path class="cls-9" d="M123.6,58.59c1.14,4.44-.38,20.53-2.92,28.13a142.66,142.66,0,0,0-4.1,15.83s-6.56,2-10.41,0c0,0-4-33.3-4-38.37Z" transform="translate(0 -2.89)"/><path class="cls-14" d="M106.54,99.24c0,.05-.48-1.16-.68-1.09,0,.31,0-.34,0-.31.2,0,.2.26.17.25l.25,0c.08-.75-1.36-3.64-.8-4.48,0-2.16.06-2.58-.47-4.19.21-.05.2-.07,0-.05a43.93,43.93,0,0,0-1.36-12.65,3.83,3.83,0,0,0,.28.29s-.43-1.61-.28-1.42c0-.1-.25-.22-.44-.23.54.11-.43-3.31,0-3.52-.36-1.7-.22-4.29-.8-4.71.24.18.07-2.33,0-2.35s-.05.11.09.08c.22.19-.71.74-.07,1.35-.5.73-.16,2.18.23,2.93-.64.13-.26.27-.22.89.14,1.82-.22,2.07.42,3.34,0,.43-.32,0-.36,0a2,2,0,0,1-.13,1.34c.2.29,0-.1.38.19-.07.11-.21,1.41.12,1.69,0-.64-.15.2,0-.33.42.31.5,4.27.82,5.18-.37.33-.11.79.11,1.41-.7-.33-.15-.25-.24-.13.59.31,0,2.18-.14,2.45-.32.11,2.16,10.87,1.26,10.42.16.15.32.92.42.82S105,96,105,96.13s.11.26.3.26c-.66.43.16,1.08-.16,1,.83,1.2.45,3.94.52,5,.11.26.92.21,1,0-.27-.4,0-.08,0-.07s0-2.14-.51-2.42C106.55,99.5,106.13,99.63,106.54,99.24Z" transform="translate(0 -2.89)"/><path class="cls-14" d="M114.5,63.92c0-.1.36.35.64.26-.1,0-.11,0,0,0-.24,0-.24,0,0,.1-.29.1-.08-.11-.4,0,0,0,.32.37.37.32A3.26,3.26,0,0,0,116.15,67c-.17.13-.16.13,0,0,0,.55,3.29,4.06,3.84,2.68-.16.33,0,.34-.08.43s.92.06.73-.23c-.41.39,1.41.2,1.59.21-.25.38.17,0,.15,0,0,.14,0,.11.13.33-.08,0,.16-.33.15-.31-.16.48.13.23.11.45.12-.11.2-.27.38-.49.07.27.16.21.11.39.11-.23.13-.23.07,0-.09.08.25-.51.08-.12,0,0-.22-.73-.45-.14-.15-.34,0-.43-.08-.14-.06-.24-.08-.07-.12,0,0-.23-.6-.43-.55-.39-.22,0-.3.17-.21.46q.12-.27,0-.18c0-.13,0-.06,0-.32,0,0-.1.15-.22.17-.7-.33-.55-.49-1.08-.13-.15-.13.1-.27.1-.34,0,.1,0,.07,0-.11,0,0-.16.21-.28.23a2.86,2.86,0,0,0,0-.49c-.23.21.13-.11-.18.32,0-.1,0-.26.05-.3s-.35.19-.12,0c.06,0-.2.31-.23.32a1.49,1.49,0,0,0-.08-.41c-.08.28,0,.12-.08.39.06-.35-.61-.63-.73-.24.1-.34-.4-.41-.4-.26.18-.48,0-.24-.33-.22.17-.2.16-.19-.05,0,0-.09.18-.28.14-.34s-.84.25-.2-.12c-.23-.22,0,.41-.33.1.25-.28.05-.78-.29-.41-.1,0,.25-.44.26-.46-.24.27-1.58-1.52-1.68-1.65a5.58,5.58,0,0,0-.37-.89,2.29,2.29,0,0,1,.38-.05c-.92,0-.23,0-.21-.07s.11-.26-.18-.08c0,0,.12,0-.23.06.08,0-.08-1.73-.06-1.89-.14-.12-1,0-1,0,.36.14,0,0,0,0s.07.09-.06.1c.33.35-.21-.18.26.06-.38.14.16.36-.31.41.78,0-.51.2.45.25C114.21,64,115.1,63.62,114.5,63.92Z" transform="translate(0 -2.89)"/><path class="cls-15" d="M79.14,58.59c-2,.61-6.09,1.41-6.09,3.08s.31,3.13.8,3.5,4.07.07,5.57-.24,2.56-2.16,2.93-3a30.09,30.09,0,0,0,1-3.38Z" transform="translate(0 -2.89)"/><path class="cls-15" d="M82.28,59.2l1,.74a5.86,5.86,0,0,0,.86,2.53c.74,1,2.4,1.72,1.36,2.15a3.16,3.16,0,0,1-4.13-2.34Z" transform="translate(0 -2.89)"/><path class="cls-8" d="M90,25.39C87,28.94,79,56.25,77.8,58.59c0,0,4.41,2,6.12,1.78,0,0,8.13-9.09,11-13s1-21.27,1-21.27Z" transform="translate(0 -2.89)"/><path class="cls-5" d="M87.94,27.69s-.17,1.15,0,1.19c.13-.25-.19.26-.17.24-.19-.05,0-.3,0-.28l-.23-.08c-.43.61-.49,3.56-1.3,4-.84,1.83-1.13,2.07-1.34,3.64q-.3-.06,0,.06a36.58,36.58,0,0,0-3.77,11.08,1.4,1.4,0,0,0-.13-.36s-.24,1.51-.29,1.3c0,.09.12.28.28.36s-2.85,6.37-2.32,7.23c-.11-.18-.93,1.93-.84,2s.09-.07,0-.09c-.11-.24.88-.38.55-1.12a3.08,3.08,0,0,0,.87-2.56c.6.13.31-.14.51-.67.56-1.58,1-1.66.88-3,.18-.36.26.13.31.11.21-.6.11-.67.61-1.07,0,0-.29-.51-.11-.48-.13.21.5-1,.39-1.28-.23.51.18-.09-.12.27-.4-.69,1.63-4.91,1.71-5.86.47.54,0,.27.15.2-.37-.49.85-1.82,1.07-2,.21,0,2.59-9.9,3.2-9.06-.07-.2.13-.89,0-.85,0,0-.1.33-.06.23a.24.24,0,0,0-.14-.34c.73-.06.35-.94.56-.7-.16-1.33,1.49-3.33,2.06-4,.07-.23-.48-.75-.71-.67-.26.41.08.1,0,.08s-1.29,1.59-1,2.15C88.21,27.45,88.29,27.47,87.94,27.69Z" transform="translate(0 -2.89)"/><path class="cls-8" d="M98.36,22.74C110.9,21,115.11,26.37,120.05,38a57.86,57.86,0,0,1,4.69,21.75s-12.29,9.51-31,7.48c0,0-4.32-23.88-5.5-31.08S86.3,24.38,98.36,22.74Z" transform="translate(0 -2.89)"/><path class="cls-4" d="M93.61,64.53s-.37-.92-.44-.88,0-.08,0-.26c.23-.09,0,.41.23.17,0-.9-1.12-2.57-.79-3.63-.52-3.51-1.1-7.16-1.85-11.26-.69-3.85-1.08-5-1.74-8.88a16.14,16.14,0,0,0-.65-3.22c0,.07,0,.08.06.06,0,.14,0,.16,0,.07-.39.25.41,3,.59,3.4-.29.1-.14.26,0,.72a7.71,7.71,0,0,0,.52,2.7c.05.64-.32,1.88.31,2.62-.19-.1,0-.22,0-.24-.49.76.72,4.54,1,5.31-.26-.18,2.2,9.42,1.73,10.52,0-.24,0-.3-.18-.19.06.08.26.71.28.67a1.08,1.08,0,0,1-.05-.2c.33.3,1.29,4.74,1,5.22,0-.13.05-.13.07,0C94.12,67.17,93.59,64.8,93.61,64.53Z" transform="translate(0 -2.89)"/><path class="cls-5" d="M88.35,31.93s-.43-1.47-.56-1.43c0,.34,0-.33.07-.39.21,0,.12.34.12.34h.24c.81-4.19,3.26-5.24,7-6.76.08.18.1.17.06,0,.32,0,2.89,0,3.16-.59,3.57-1.43,9.23.23,12.5,1.95a1.75,1.75,0,0,0-.46,0,12,12,0,0,1,1.52,1,.82.82,0,0,0,.51-.07c-.17.08,2.68,2.89,2.94,3.57h-.23c1.45,1.76,2.32,4.72,3.29,5.15a13.56,13.56,0,0,0,1.14,2.82c0-.12,0-.14-.11-.06-.3-.17-1.42-4.21-2.26-5,.51-.39,0-.47-.3-1.12-1.13-1.94-1.08-2.5-2.52-3.56-.27-.41.26-.15.26-.2-.31-.29-1.49-1.9-1.62-1.69a.3.3,0,0,0,.26,0c-.52-.22-1.27-1.21-1.79-1.21.53.2.06-.07.33.28a22.62,22.62,0,0,1-2.32-1.44c-.63.29-4.73-1.4-5.91-1.26.57-.62.32-.11.21-.2-.61.54-2.79.05-3.19-.12-.16-.41-8.33,1.9-9.5,2.17-1.16.54-3.15,3.33-3.27,2.85,0,.22-.37,1.31-.24,1.24a2.73,2.73,0,0,1,.09-.34c.1.29.4,8.28.27,8.47,0-.3.51.24.68-.31-.17-.56-.09-.05,0-.1s-.2-2.74-.65-3.1a.44.44,0,0,1,.37,0C87.79,32.75,88.38,31.89,88.35,31.93Z" transform="translate(0 -2.89)"/><path class="cls-15" d="M97.24,32c-2.21-3.65-5.87-5.72-10.22-3s-5.72,8.92-5,14.26a13.35,13.35,0,0,0,3.28,0s.61,2.9,5,3.21S102.58,40.76,97.24,32Z" transform="translate(0 -2.89)"/><path class="cls-5" d="M90.46,33c-1.87,0,2,4.28,4.68,5.44s4.94-.91,4.84-4.75-1.92-6.36-3.33-6.36a6.91,6.91,0,0,0-3,1,10.91,10.91,0,0,1,1.88,1.37C96.09,30.39,93,33,90.46,33Z" transform="translate(0 -2.89)"/><path class="cls-15" d="M93.32,40a1.69,1.69,0,0,0,1.82.26c1.11-.46.9-2.68.3-3.79s-2.38-1.36-2.88.63Z" transform="translate(0 -2.89)"/><path class="cls-2" d="M85.69,37.63a.56.56,0,0,1-.3-1c1.08-.69,6.57-4.14,8.34-3.83a3,3,0,0,1,2.44,2,.55.55,0,0,1-.38.69.56.56,0,0,1-.69-.38,1.93,1.93,0,0,0-1.57-1.21c-1-.18-5,2-7.54,3.67A.53.53,0,0,1,85.69,37.63Z" transform="translate(0 -2.89)"/><path class="cls-5" d="M85.74,36.14c-1.72.12.41,5.5,1.77,5S87.11,36,85.74,36.14Z" transform="translate(0 -2.89)"/><path class="cls-5" d="M85,34.19s-.2-.28-.12-.25c.26.21-.18-.1.14.14-.1,0,.47-.49.48-.5s0,.09,0,0,.21.17.19-.07c0,.13.88.33,1,.12-.2.32.16.22.16.09-.08.07,0,.07,0,0-.12.23.25.1.37.21-.22.14,0,.08,0,0s0,0,0,0-.08.08,0,0c-.08.06-.14.19.06,0a.44.44,0,0,0-.12.15s.06,0,0,0,.09,0,.24-.11c-.09.13,0,.09-.11.16.1-.06.1-.06,0,0s.23-.15.06,0c.07-.06.06-.13.09-.21s-.56.38-.14.07c0-.13.05-.23,0-.34s0,0-.17,0c-.11-.23,0-.28-.29-.15-.06-.21.28-.14,0-.11A1.19,1.19,0,0,0,87,33.3c-.06,0-.23.17,0,0a.7.7,0,0,1-.17.15.5.5,0,0,0,0-.2c-.05.13,0,.07-.07.19.06-.16-.17-.28-.23-.06.07-.3-.28-.06-.26-.07s0-.17,0-.18-.12.12-.15.14c.06-.23-.1,0-.22-.33,0,.14-1.12.5-1.14.48.23.45,0,.09,0,.1s-.08,0-.06,0,0,0,.16.16c-.09-.07-.44.33-.5.39s.47.25.46.25,0,0,0,0,0,0,0,0c0-.18.06.09-.1-.07.21.08,0-.13.2,0C84.67,34.08,85,34.18,85,34.19Z" transform="translate(0 -2.89)"/><path class="cls-8" d="M113.21,29.83c4.56,2.69,2.66,18.25-4.44,23.82s-11.53,6.72-11.53,6.72-1.69-2.92-3-3.42a25.23,25.23,0,0,0,8.06-13.43C104.21,34.9,106.75,26,113.21,29.83Z" transform="translate(0 -2.89)"/><path class="cls-16" d="M99.78,63.73c.69.68-.57,2.39-1.42,2.39s-3.7-2.28-4.89-2.39-1,46-1,47.3-3.14,2.32-3.14,0-.21-47.83,1-49.82S96.15,60.18,99.78,63.73Z" transform="translate(0 -2.89)"/><path class="cls-5" d="M89.37,111c-.05-2.53-.08-5-.12-7.58l-.06-7.58c0-5.06,0-10.11,0-15.17q.06-3.78.15-7.58c.07-2.52.13-5.05.29-7.58,0-.63.08-1.26.13-1.89s.12-1.27.23-1.9a2.81,2.81,0,0,1,.12-.48l.06-.13.07-.11.16-.2a2.06,2.06,0,0,1,.83-.54,4.11,4.11,0,0,1,1.93-.17,8.46,8.46,0,0,1,1.86.47,12.31,12.31,0,0,1,1.72.82,14,14,0,0,1,3,2.32,15.06,15.06,0,0,0-3-2.22A12,12,0,0,0,95,60.75a8.13,8.13,0,0,0-1.82-.41,4,4,0,0,0-1.82.18,1.81,1.81,0,0,0-.72.49,1.24,1.24,0,0,0-.14.18l-.06.09,0,.08a3.15,3.15,0,0,0-.11.44c-.09.61-.14,1.24-.19,1.87s-.07,1.26-.1,1.89c-.21,5-.28,10.1-.33,15.15s-.11,10.11-.15,15.16l-.07,7.58Z" transform="translate(0 -2.89)"/><path class="cls-15" d="M95.6,57.51s-3.36-1.23-5.14-.33-2.45,2-1.83,4.47,1.88,1.94,2.59,2.08,1-2.36,1.7-3,1.13,1.56,2.49.94a4.49,4.49,0,0,0,1.83-1.28Z" transform="translate(0 -2.89)"/><path class="cls-4" d="M114.73,32.64a8.43,8.43,0,0,0,.56,1c0-.21,0,.14,0,.32s-.16-.28-.12-.25l-.12,0c.12,1.1,1,3.3.35,4.59-.16,1.79-5.24,16.75-6.92,15.06,0,0-1.25,1.1-1.14.95a46.78,46.78,0,0,1-3.8,2.77c.21.78-5.75,2.63-5.8,2.94.08,0,.1,0,.06-.07.46-.49,3.14-1,4-1.8.22.25.36,0,.85-.31,1.13-.66,2.43-1.7,3-1.75a15.46,15.46,0,0,0,1.5-1.07,5,5,0,0,0,1.2-.92c-.25.36,0,0-.27.19.77-1.71,3.58-3.27,4.42-5.24.1.64,0,.22,0,.19-.18-1.91,2.32-4.77,2.81-7.29a22.81,22.81,0,0,0,.48-5.55c.3,0-.07-.88,0-.94l0,.27c-.21-.3-.07-1.23-.11-1.27-.7-1.63-1.84-3.44-2.49-4.8.1.12.09.15,0,.07C113,30.06,115.33,32.3,114.73,32.64Z" transform="translate(0 -2.89)"/><path class="cls-17" d="M97,55.31s.51-1.11.3-1.22c-.21.22.28-.21.24-.19.18.11,0,.31-.06.29a1.37,1.37,0,0,1,.21.15c.66-.52,1.33-3.45,2.26-3.78,1.19-1.67,1.48-2.11,1.75-3.68.21.06.21,0,0-.05,1.62-2.59,2.65-7.86,3.29-11.62a1.82,1.82,0,0,0,.13.37c0-.08.32-1.5.36-1.3,0-.1-.12-.31-.28-.4-1.28-1.06,5.17-4.66,5.39-4.9-.56.6,1.21.26,1.38.25.09.24.4.81.68.5,0-.11-.07-.1-.11,0-.33.13-.26-1-1.12-.58-.06-1.06-2.35-.14-2.65.2-.33-.57-.36-.16-.86.16-1.37,1.09-1.83,1.18-2,2.53-.27.33-.24-.2-.3-.19-.36.57-.27.65-.84,1,0,.36.06-.08.23.36-.12.06-.85,1.09-.68,1.48.23-.25-.1-.19.28-.19-.79.15-1.38,4-1.39,4.76-.47.16-.38.67-.37,1.29-.56-.53-.06-.28-.19-.2.44.47-.71,2-.92,2.16.44,0-1.7,6.31-2,6.88-.6.51-1.31,2.79-1.66,2,0,.23-.33.86-.19.86,0,0,.17-.3.11-.22a.26.26,0,0,0,.07.38c-.77-.14-.59.84-.74.54-.15,1.38-2.51,2.84-3.24,3.38-.14.23.37.88.6.86.16-.46.08,0,0-.07S96.48,56,96.33,55.4C96.82,55.48,96.46,55.31,97,55.31Z" transform="translate(0 -2.89)"/><path class="cls-18" d="M82.63,43.69s.16-.33.21-.24c0,.33-.07-.2,0,.2A4.26,4.26,0,0,0,84,43.53c.15.1,2,.26,1.88-.27,0,.42.34,0,.27-.06-.07.26.78-.17.69-.21.07.21.17,0,.23.16,0-.09,0-.15,0-.28.08.12.1.06.11.16,0-.12,0-.12,0,0s0-.27,0-.06c0-.05-.21-.31-.2,0-.19-.1-.26-.27-.37.12-.09-.26-.06-.19-.15-.12-.34,0-.3-.15-.42.15-.24-.08.15-.28-.13,0a1.56,1.56,0,0,0-.1-.22c-.06.23.07,0-.11.25,0,0-.11-.18-.12-.16s0,.06.06.19c-.06-.2-.59.05-.67.13-.09-.33-.3.18-.5-.3,0,0-1.45.42-1.37,0-.08.22,0,.07-.12.05,0,.2,0,0,0,.22,0-.08-.7-.18-.79-.2a1.66,1.66,0,0,0,0,.52s.06-.09,0,0,0,0,0,0c.16-.1-.06.06,0-.13C82.32,43.56,82.74,43.69,82.63,43.69Z" transform="translate(0 -2.89)"/><path class="cls-18" d="M93.49,40.56s.24-.26.24-.16c-.13.3,0-.21-.11.17.43,1.24,2.65-.87,2.28-1,.38.17.17-.27.07-.23.23.17.12-.7,0-.6.22,0,0-.15.21-.16a1.42,1.42,0,0,0-.26-.1c.14,0,.08-.07.19-.07-.12,0-.12,0,0,0s-.27-.05-.06,0c-.06,0-.35.12-.06.16-.21.22-.17.31-.14.43-.15.24-.21.17,0,.36-.19.16-.2-.24-.1.08l-.24,0c.06,0,.21.18,0,0a.65.65,0,0,1,.16.14h-.19l.19.06c-.16,0-.26.16-.08.25-.27-.13-.18.25-.18.24-.2-.14-.13,0-.13.08-.2-.32,0,0,0,0-.26-.35,0,.22-.33-.16.15.26-.79.21-.83.29s-.09,0,0-.24c-.27.37-.07.07-.08.06s0-.07,0-.05c-.08.18,0,0-.1.21,0-.11-.5-.37-.61-.41a1.83,1.83,0,0,0-.09.51s.06-.09,0,0,0,0,0,0c.15-.09-.07.06,0-.12,0,.21.13,0,0,.2C93.5,40.21,93.5,40.57,93.49,40.56Z" transform="translate(0 -2.89)"/><path class="cls-5" d="M58,56.06a.75.75,0,0,0,0,.47A1.06,1.06,0,0,0,58,56.06Z" transform="translate(0 -2.89)"/><path class="cls-5" d="M62.93,58.15l-.24.05A4.61,4.61,0,0,1,60,56.47c-.64-1-1.13-2.21-1.67-2.94a1.73,1.73,0,0,0-.13-.24s0,.08.05.13h0l-.06-.13h0c-.06-.15-.11-.29-.17-.43,0,.12.08.24.11.35l0,0,0,0,0,.1,0-.05s0,.13.13.37,0,.2.05.3A10.46,10.46,0,0,1,58,55.54a1.83,1.83,0,0,1,0,1v0c-.05.25-.13.5-.15.61s-.19-.07-.19-.09c-.1.16.13.57,0,.71-.15-.26-1.08,1.86-1.18,2.2-.07.07-.07-.18-.1,0l-.09-.2c0,.09,0,.1-.08,0,.12.18-1,1.22-1.12,1.42,3.73.08,4.8,1.85,5.75,4.51a6.73,6.73,0,0,0,.18.74l.56-.15-.25-.66s0,0,.06,0c-.22-1.26-.52-1.92-.6-3q0-.3,0-.6C61.63,61.47,61.3,58.9,62.93,58.15Zm-1.56,7.5,0,.13A.45.45,0,0,1,61.37,65.65Z" transform="translate(0 -2.89)"/><path class="cls-5" d="M65.88,60a.49.49,0,0,0,0,.24A.39.39,0,0,0,65.88,60Z" transform="translate(0 -2.89)"/><path class="cls-5" d="M68.34,61l-.12,0a2.32,2.32,0,0,1-1.34-.86c-.31-.51-.56-1.11-.83-1.48a.41.41,0,0,0-.07-.11l0,.06h0l0-.07h0l-.08-.21a.84.84,0,0,1,0,.17h0l0,.06,0,0,.06.19,0,.14a5,5,0,0,1-.14.81,1,1,0,0,1,0,.51h0c0,.12-.06.24-.07.3s-.09,0-.09,0,.06.29,0,.36c-.07-.13-.54.93-.58,1.1s0-.09-.05,0l0-.11s0,0,0,0-.49.61-.56.71c1.87,0,2.4.92,2.88,2.25,0,.15.06.28.09.38l.28-.08c0-.08-.08-.19-.13-.33s0,0,0,0c-.11-.63-.26-1-.3-1.49,0-.1,0-.2,0-.3C67.69,62.68,67.53,61.39,68.34,61Zm-.78,3.76s0,0,0,.06A.1.1,0,0,1,67.56,64.77Z" transform="translate(0 -2.89)"/></svg>