<svg id="Component_18_1" data-name="Component 18 – 1" xmlns="http://www.w3.org/2000/svg" width="232.353" height="213.404" viewBox="0 0 232.353 213.404">
  <g id="Group_5139" data-name="Group 5139" transform="translate(-38.521 -24.269)">
    <path id="Path_1774" data-name="Path 1774" d="M228.448,60.853c-2.34-3.176-4.031-7.494-2.221-11,1.945-3.77,6.845-4.711,11.081-4.939,6.6-.356,13.4-.016,19.513,2.52s11.461,7.577,13.007,14.008c.89,3.7.492,7.577.088,11.365-.679,6.371-4.725,45.906-13.168,24.937-3.025-7.516-2.931-13.033-9.01-19.425C241.733,72,233.689,67.973,228.448,60.853Z" fill="#ededed"/>
  </g>
  <path id="Path_1775" data-name="Path 1775" d="M235.573,211.9c6.726-5.1,19.879-15.09,21.716-30.167,2.353-19.3-16.435-25.779-21.913-51.669-5.861-27.705,12.449-35.441,4.059-54.753-9.206-21.184-40.812-33.922-64.928-34.7-15.458-.5-20.828,4.137-34.9,0-18.782-5.522-22.8-17.781-34.088-16.195-7.421,1.044-9.426,6.87-25.159,25.449C60.474,73.347,58.532,70.11,56.014,76.851,46.95,101.1,81.538,117.7,78.739,148.57c-2.506,27.613-31.83,32.495-29.219,48.584C54.743,229.337,179.337,254.591,235.573,211.9Z" transform="translate(-38.521 -24.269)" fill="#f7f7f7"/>
  <path id="Path_1776" data-name="Path 1776" d="M89.866,185.026c-4.457,5.324-5.133,12.5-5.66,18.134a78.773,78.773,0,0,0-7.642-12.113c.73-.551,4.939-6.007.954-15.493-.314-.784-1.027-1.077-1.289-.586-2.413,4.495-1.939,9.52-.835,14.6a80.463,80.463,0,0,0-9.447-9.885.581.581,0,0,0,.407-.419c1.184-4.081.161-8.145-3.516-11.589-.433-.4-1-.246-1.07.276a13.827,13.827,0,0,0,2.745,10.494c-1.8-1.522-3.342-2.715-5.221-4.073.137-.748-3.178-6.741-10.35-6.552a.565.565,0,0,0-.437.953A14.182,14.182,0,0,0,58.616,174.8a.642.642,0,0,0,.416-.072c1.963,1.4,4.442,3.387,5.03,3.913a9.866,9.866,0,0,0-10.083.631c-1.734,1.1,3.4,2.351,5.552,2.4,2.116.03,5.941-.888,6.144-1.638a80.58,80.58,0,0,1,9.381,9.821c-4.471-2.608-9.33-3.295-13.7-.863-.483.268-.328.86.293,1.109a32.9,32.9,0,0,0,3.155,1.131c5.741,1.835,11.007.687,11.417.1A77.787,77.787,0,0,1,84,203.754a20.8,20.8,0,0,0-9.349-3.255,17.034,17.034,0,0,0-8.279,1.62c-.607.289-.461.887.26,1.144,10.367,3.587,17.543,2.329,17.9,1.548a82.011,82.011,0,0,1,6.4,19.448c.52,2.692.526,2.422.7,2.393s.277.234-.229-2.515a78.57,78.57,0,0,0-6.6-19.8c.746.039,8.013-5.54,6.336-18.257C91.015,185.05,90.3,184.5,89.866,185.026Z" transform="translate(-38.521 -24.269)" fill="#daecb6"/>
  <path id="Path_1777" data-name="Path 1777" d="M105.293,198.727a17.536,17.536,0,0,0-9.964,6.591c.029-.746.25-5.917.123-8.115a9.234,9.234,0,0,0,4.248-2.127c1.815-1.6,3.945-5.443,2.565-5-3.2,1.02-5.231,3.223-6.846,6.062-.1-3.38-.326-5.544-.535-7.729a.47.47,0,0,0,.4-.029,6.684,6.684,0,0,0,3.929-6.161.388.388,0,0,0-.637-.293,7.776,7.776,0,0,0-3.826,5.419c-.3-2.277-.186-1.494-.533-3.712a.437.437,0,0,0,.178-.2,5.576,5.576,0,0,0-1.479-6.617.423.423,0,0,0-.689.209,6.286,6.286,0,0,0,1.458,6.529.408.408,0,0,0,.229.132c.227,1.447.365,2.276.516,3.579a5.778,5.778,0,0,0-1.924-2.387c-1.3-.945-4.119-1.8-3.731-.826a7.354,7.354,0,0,0,5.445,4.448.489.489,0,0,0,.36-.036c.193,2.016.424,4.129.533,7.7a10.455,10.455,0,0,0-2.7-3.473c-1.772-1.48-5.325-2.617-4.536-1.267a13.8,13.8,0,0,0,3.014,3.715,9.37,9.37,0,0,0,4.251,2.093c.1,3.2-.059,6.462-.132,8.328-3.719-6.005-11.348-7.478-9.993-5.808,3.964,4.894,9.217,6.87,9.952,6.479a111.463,111.463,0,0,1-1.325,11.572c-.541,3.615.831.832,1.645-11.728.33.172,3.3-.337,5.725-1.894a16.029,16.029,0,0,0,4.57-4.613C105.909,199.079,105.753,198.633,105.293,198.727Z" transform="translate(-38.521 -24.269)" fill="#fdedcd"/>
  <path id="Path_1778" data-name="Path 1778" d="M130.2,224.46c-2.383-20.427-18.236-28.59-23.965-19.5S101,218.5,101,218.5s.564-7.092-13.889-4.115S69.564,227.5,69.564,227.5l59.951-.785Z" transform="translate(-38.521 -24.269)" fill="#fff" opacity="0.6"/>
  <ellipse id="Ellipse_4" data-name="Ellipse 4" cx="111.383" cy="8.443" rx="111.383" ry="8.443" transform="translate(0 196.518)" fill="#d2ea8e"/>
  <g id="Group_5140" data-name="Group 5140" transform="translate(-38.521 -24.269)">
    <path id="Path_1779" data-name="Path 1779" d="M231.183,187.174c3.508,4.189,4.04,9.84,4.455,14.274a62.1,62.1,0,0,1,6.016-9.536c-.575-.434-3.888-4.728-.751-12.2.247-.617.808-.849,1.014-.462,1.9,3.539,1.527,7.495.658,11.489a63.349,63.349,0,0,1,7.437-7.781.458.458,0,0,1-.321-.33c-.932-3.213-.125-6.411,2.768-9.123.341-.311.79-.194.843.218a10.882,10.882,0,0,1-2.161,8.26c1.419-1.2,2.63-2.137,4.11-3.206-.108-.589,2.5-5.306,8.146-5.158a.445.445,0,0,1,.345.75,11.164,11.164,0,0,1-7.96,4.751.507.507,0,0,1-.327-.057c-1.545,1.106-3.5,2.666-3.959,3.08a7.766,7.766,0,0,1,7.937.5c1.365.863-2.674,1.851-4.37,1.888-1.667.024-4.677-.7-4.837-1.29a63.369,63.369,0,0,0-7.385,7.732c3.519-2.053,7.346-2.594,10.785-.68.38.211.258.677-.231.873a25.87,25.87,0,0,1-2.484.891c-4.519,1.444-8.664.541-8.987.08a61.076,61.076,0,0,0-6.127,9.777,16.378,16.378,0,0,1,7.359-2.563,13.42,13.42,0,0,1,6.518,1.276c.478.227.363.7-.2.9-8.161,2.824-13.811,1.833-14.089,1.219a64.512,64.512,0,0,0-5.034,15.31c-.41,2.119-.414,1.906-.55,1.883s-.218.184.18-1.98a61.843,61.843,0,0,1,5.195-15.583c-.587.03-6.308-4.361-4.987-14.372C230.278,187.191,230.839,186.761,231.183,187.174Z" fill="#daecb6"/>
    <path id="Path_1780" data-name="Path 1780" d="M219.038,197.958a13.8,13.8,0,0,1,7.844,5.189c-.024-.586-.2-4.658-.1-6.388a7.264,7.264,0,0,1-3.344-1.675c-1.428-1.256-3.106-4.284-2.019-3.938a9.451,9.451,0,0,1,5.39,4.772c.081-2.66.255-4.364.421-6.084a.373.373,0,0,1-.315-.023,5.262,5.262,0,0,1-3.093-4.85.306.306,0,0,1,.5-.231A6.128,6.128,0,0,1,227.339,189c.234-1.793.146-1.176.42-2.922a.334.334,0,0,1-.141-.159,4.39,4.39,0,0,1,1.164-5.209.333.333,0,0,1,.543.165,4.947,4.947,0,0,1-1.148,5.139.318.318,0,0,1-.18.1c-.179,1.139-.288,1.792-.406,2.818a4.544,4.544,0,0,1,1.514-1.879c1.024-.744,3.243-1.416,2.937-.651a5.79,5.79,0,0,1-4.286,3.5.378.378,0,0,1-.283-.029c-.153,1.587-.334,3.251-.42,6.059a8.226,8.226,0,0,1,2.122-2.735c1.4-1.165,4.192-2.06,3.571-1a10.857,10.857,0,0,1-2.372,2.925,7.367,7.367,0,0,1-3.348,1.647c-.077,2.518.047,5.087.1,6.557,2.928-4.727,8.933-5.887,7.866-4.572-3.121,3.851-7.256,5.408-7.834,5.1a87.616,87.616,0,0,0,1.043,9.11c.426,2.847-.654.655-1.295-9.233a8.869,8.869,0,0,1-4.506-1.49,12.6,12.6,0,0,1-3.6-3.632C218.554,198.235,218.677,197.885,219.038,197.958Z" fill="#fdedcd"/>
    <path id="Path_1781" data-name="Path 1781" d="M199.43,218.216c1.876-16.08,14.355-22.507,18.865-15.353s4.125,10.66,4.125,10.66-.443-5.582,10.934-3.239,13.811,10.322,13.811,10.322l-47.194-.618Z" fill="#fff" opacity="0.6"/>
  </g>
  <g id="Group_5142" data-name="Group 5142" transform="translate(-38.521 -24.269)">
    <path id="Path_1782" data-name="Path 1782" d="M171.151,69.421c.19,6.628,1.1,13.435-3.295,12.947-2.119-.235-11.535,1.177-14.125-10.829-1.4-6.481,2.172-12.005,6.592-12.005S170.916,61.182,171.151,69.421Z" fill="#f4b380"/>
    <path id="Path_1783" data-name="Path 1783" d="M162.677,139.335c19.3,5.18,40.333,15.537,44.57,22.129s19.7,48.021,20.166,54.142-.471,13.182-9.416,3.295-25.187-39.233-28.955-42.058-14.752-4.4-32.643-10.986-14.908-23.226-13.5-23.226S162.677,139.335,162.677,139.335Z" fill="#f8bf84"/>
    <path id="Path_1784" data-name="Path 1784" d="M153.731,72.952c-3.294,14.124-11.064,23.776-11.534,38.37s-2.825,32.486-.942,34.84,19.3,5.649,24.953,0,8.475-32.015,6.592-41.9-11.3-17.42-12.242-24.012A8.235,8.235,0,0,0,153.731,72.952Z" fill="#f4b380"/>
    <path id="Path_1785" data-name="Path 1785" d="M198.615,131.645c4.552,1.1,7.847-.784,8.318,0s.785.471,1.883,1.727,1.1,4.551.158,5.963-5.807,1.57-7.219.785a57.7,57.7,0,0,1-5.024-3.767Z" fill="#f4b380"/>
    <path id="Path_1786" data-name="Path 1786" d="M115.753,138.237c-.784,1.57-4.08,2.2-4.08,4.394s.157,6.277,2.668,6.748,5.964-.471,6.277-2.824a61.923,61.923,0,0,0,0-7.847Z" fill="#f4b380"/>
    <path id="Path_1787" data-name="Path 1787" d="M150.907,87.311c-11.535,6.827-25.424,27.307-27.777,31.074s-10.594,19.773-8.24,21.186,4.238,3.06,7.3.706,9.65-18.833,14.359-21.422,12.947-7.533,12.947-7.533Z" fill="#0075c9"/>
    <path id="Path_1788" data-name="Path 1788" d="M172.8,104.261c-1.053-5.531-4.463-10.322-7.428-14.627-.8-.115-1.742-.277-2.852-.518-3.177-.69-7.693-5.388-12.369-5.113-3.953,5.427-7.615,16.826-7.954,27.319-.471,14.6-2.825,32.486-.942,34.84s19.3,5.649,24.953,0S174.683,114.147,172.8,104.261Z" fill="#004987"/>
    <path id="Path_1789" data-name="Path 1789" d="M151.692,132.9c6.749.314,23.383,9.259,8.787,31.387S130.62,195.626,127.837,196.3c-11.612,2.825-35.624-13.5-44.568-17.734s-6.749-9.455.626-9.259c17.891,1.883,32.33,12.241,37.665,2.2C126.22,162.736,139.455,132.332,151.692,132.9Z" fill="#face9d"/>
    <path id="Path_1790" data-name="Path 1790" d="M153.72,89.116c-8.631-3.924-12.555,10.672-9.494,18.205,2.693,6.631,18.126,21.343,21.892,23.7s26.483,6.67,27.738,6.356,3.178-4.316,2.864-5.258S180.242,122.7,172.71,120.5C167.265,118.915,164.247,93.9,153.72,89.116Z" fill="#0075c9"/>
    <path id="Path_1791" data-name="Path 1791" d="M166.443,139.1c10.829,1.882,33.193,15.3,33.193,15.3s-8.475,17.42-12.242,21.893c-18.6-3.767-42.137-12.006-42.137-12.006Z" fill="#e4e4e4"/>
    <path id="Path_1792" data-name="Path 1792" d="M141.02,131.8c10.358-1.884,24.409,4.019,26.366,5.649a25.309,25.309,0,0,0,2.589,1.649,99.008,99.008,0,0,1-9.652,27.306c-7.3,13.418-20.48,23.776-20.48,23.776s-16.478-17.656-19.068-18.126S141.02,131.8,141.02,131.8Z" fill="#fff"/>
    <path id="Path_1793" data-name="Path 1793" d="M138.2,180.767a42.163,42.163,0,0,1,4.968,6.567c1.014-.917,2.207-2.036,3.506-3.327-2.652-3.044-9.723-10.917-14.594-14.069a66.684,66.684,0,0,0-8.9-5.068c-.531,1.118-1,2.14-1.385,3.045C128.087,170.31,136.068,178.746,138.2,180.767Z" fill="#0075c9"/>
    <path id="Path_1794" data-name="Path 1794" d="M180.845,174.839q1.23.294,2.451.571c2.25-3.1,8.855-16.469,12.013-23.51-.9-.51-1.921-1.077-3.026-1.682Z" fill="#0075c9"/>
    <path id="Path_1795" data-name="Path 1795" d="M112.843,175.5c-7.29-2.426-11.645-4.545-26.083-6.742-19.571-2.979-12.438,5.571-3.491,9.808,6.159,2.918,20.966,14.3,33,16.5A43.467,43.467,0,0,0,112.843,175.5Z" fill="#0075c9"/>
    <path id="Path_1796" data-name="Path 1796" d="M222.155,222.825c-3.06,1.177-3.06,7.3-1.412,8.71s4.944-.706,8.475-.47a38.6,38.6,0,0,0,15.065-2.355c5.65-2.118-8.239-4.473-12.241-5.414s-2.118-2.355-4-.942S222.155,222.825,222.155,222.825Z" fill="#f3ebe3"/>
    <path id="Path_1797" data-name="Path 1797" d="M221.764,222.2c-3.061,1.177-3.061,7.3-1.413,8.71s4.943-.706,8.474-.471a38.588,38.588,0,0,0,15.067-2.354c5.649-2.118-8.241-4.473-12.242-5.414s-2.118-2.353-4-.941S221.764,222.2,221.764,222.2Z" fill="#144998"/>
    <path id="Path_1798" data-name="Path 1798" d="M78.717,168.329c-.706-4-6.12-5.414-7.532-2.825s-8,10.123-11.536,11.77-8.945,5.179-2.354,5.179,20.009-7.3,20.009-7.3a4.475,4.475,0,0,1-.235-3.53A17.943,17.943,0,0,1,78.717,168.329Z" fill="#f3ebe3"/>
    <path id="Path_1799" data-name="Path 1799" d="M79.267,168.407c-.707-4-6.122-5.414-7.534-2.824s-8,10.122-11.535,11.77-8.945,5.179-2.353,5.179,20.009-7.3,20.009-7.3a4.474,4.474,0,0,1-.236-3.531A18.023,18.023,0,0,1,79.267,168.407Z" fill="#144998"/>
    <path id="Path_1800" data-name="Path 1800" d="M166.757,55.218c3.127-.833,3.609,2.511,4.865,3.924s3.609.784,4.552,2.353,1.412,3.767-.628,5.18-3.139,1.569-5.18.784-4.08.471-5.021,1.256-2.982-.314-4.08-.157.314,6.591.314,6.591-1.413,0-1.726-.628-2.668-4.551-2.825-3.766.47,3.924-2.511,6.277-3.61,2.983-4.4,1.1,1.412-4.395-.471-5.964-2.04-5.807.471-6.9.315-4.394,1.412-7.219,5.964-2.2,7.848-1.412S164.4,55.846,166.757,55.218Z" fill="#144998"/>
    <path id="Path_1801" data-name="Path 1801" d="M194.651,184.361c6.624,10.12,16.887,27.4,23.346,34.54,1.906,2.107,2.759,3.379,4,4.12,2.971,1.771,6.172,1.034,6.592-1.648.226-1.461-.83-4.1-1.178-5.767-1.648-7.886-8.141-26.252-14.191-41.087C209.976,177.6,202.985,183.276,194.651,184.361Z" fill="#0075c9"/>
    <g id="Group_5141" data-name="Group 5141">
      <path id="Path_1802" data-name="Path 1802" d="M198.066,130.782c1.1,0,2.9.785,2.589,1.021s-1.1,2.2-.785,2.432-.117,2.118-.588,2.825-.745-.118-1.058.549c-.171.363-.472.079-.472.079l-1.294-.275s.2-.353-.275-.471c-.314-.078.312-3.267.785-3.335.823-.118.683-.765.784-1.334A9.65,9.65,0,0,1,198.066,130.782Z" fill="#004fb4"/>
      <path id="Path_1803" data-name="Path 1803" d="M197.282,133.8c-.341-.085-.9,2.314-.824,2.668s2.039.706,2.354.588a4.681,4.681,0,0,0,.9-2.589C199.557,134.039,197.439,133.843,197.282,133.8Z" fill="#004fb4"/>
      <path id="Path_1804" data-name="Path 1804" d="M198.114,133.925c-.387.22-.881.5-1.308.734a6.393,6.393,0,0,0-.348,1.813c.025.118.271.235.588.336.818-.4,1.853-.917,2.5-1.244a2.427,2.427,0,0,0,.172-1.093C199.618,134.205,198.782,134.03,198.114,133.925Z" fill="#004fb4" style="mix-blend-mode: screen;isolation: isolate"/>
    </g>
    <line id="Line_6" data-name="Line 6" y1="70.71" x2="70.711" transform="translate(148.618 52.544)" fill="none"/>
  </g>
  <g id="Group_5143" data-name="Group 5143" transform="translate(-38.521 -24.269)">
    <path id="Path_1805" data-name="Path 1805" d="M270.873,213.945A16.949,16.949,0,1,1,253.923,197,16.95,16.95,0,0,1,270.873,213.945Z" fill="#87898c"/>
    <ellipse id="Ellipse_5" data-name="Ellipse 5" cx="10.95" cy="10.396" rx="10.95" ry="10.396" transform="translate(245.225 197.98)" fill="#fafafc" opacity="0.1"/>
  </g>
</svg>
