<svg xmlns="http://www.w3.org/2000/svg" width="26.63" height="27.965" viewBox="0 0 26.63 27.965"><defs><style>.a{fill:#00adc6;}.b{fill:#0033a0;}.c{fill:#fff;stroke:#0033a0;stroke-width:2px;}</style></defs><g transform="translate(-22.661 51.72)"><g transform="translate(22.661 -51.72)"><path class="a" d="M26.391,11.41,15,.688a2.342,2.342,0,0,0-3.317,0L.293,11.41A.935.935,0,0,0,.2,12.6l.473.652a.677.677,0,0,0,1.042.106l1.27-1.194v3.087H2.972V26.272a.8.8,0,0,0,.744.847H22.959a.8.8,0,0,0,.74-.847v-14.1l1.271,1.2a.677.677,0,0,0,1.042-.106l.474-.652a.933.933,0,0,0,.169-.621.891.891,0,0,0-.264-.575ZM21.47,24.577Z" transform="translate(-0.028 0.846)"/><g transform="translate(0 0)"><path class="b" d="M26.391,11.393,13.342-.862c0-.031-.7.615-1.659,1.533L.293,11.393A.935.935,0,0,0,.2,12.587l.473.652a.677.677,0,0,0,1.042.106l1.27-1.194v3.087H2.972L2.934,26.732c0,.469-.015.337,0,.368H23.667L23.7,12.15l1.271,1.2a.677.677,0,0,0,1.042-.106l.474-.652a.933.933,0,0,0,.169-.621.891.891,0,0,0-.264-.575Zm-4.912.454h-.01V24.56H16.3V16.932c0-.936.187-1.695-.63-1.695H11.053c-.817,0-.67.759-.67,1.695V24.56H5.191V10.284l.014-.013v-.212L13.342,2.4l8.137,7.66Z" transform="translate(-0.028 0.863)"/></g></g><path class="c" d="M35.281-24.4V-34.781h5.773v9.822H35.281" transform="translate(-2.192 -0.369)"/></g></svg>