<svg id="Component_40_1" data-name="Component 40 – 1" xmlns="http://www.w3.org/2000/svg" xmlns:xlink="http://www.w3.org/1999/xlink" width="296.976" height="171.264" viewBox="0 0 296.976 171.264">
  <defs>
    <linearGradient id="linear-gradient" x1="-0.058" y1="0.747" x2="1.016" y2="0.272" gradientUnits="objectBoundingBox">
      <stop offset="0" stop-color="#1f5b6b"/>
      <stop offset="0.291" stop-color="#2e5763"/>
      <stop offset="0.68" stop-color="#3d555b"/>
      <stop offset="1" stop-color="#435459"/>
    </linearGradient>
  </defs>
  <g id="Group_7578" data-name="Group 7578" transform="translate(1588.692 -376.873)">
    <path id="Path_4391" data-name="Path 4391" d="M-1399.668,537.3c.465-.194.927-.4,1.39-.6.239-.1.477-.209.715-.312q.684-.3,1.365-.614.372-.166.743-.338.658-.306,1.316-.615c.268-.127.535-.256.8-.384.416-.2.83-.4,1.243-.6.3-.146.592-.295.888-.442.38-.193.763-.383,1.144-.58.341-.172.682-.351,1.023-.531l1-.522c.415-.22.827-.447,1.241-.672l.778-.421q1.009-.558,2.009-1.129c11.893-6.8,23.064-15.32,31.074-26.445s12.637-25.09,10.732-38.668c-1.353-9.621-7.589-19.817-16.947-21.267A16.271,16.271,0,0,0-1360.8,443a49.574,49.574,0,0,0-6.9.571c-.487.048-.972.084-1.459.114-.142.009-.285.013-.428.02-.345.017-.69.032-1.034.041-.169,0-.337.006-.506.007-.321,0-.643.007-.964,0-.173,0-.347,0-.52-.007-.321-.007-.641-.016-.962-.03l-.5-.022c-.336-.019-.671-.039-1.007-.064-.151-.011-.3-.018-.449-.031q-.565-.045-1.132-.1c-.106-.011-.212-.018-.318-.03q-1.484-.156-2.965-.383c-.064-.009-.128-.019-.194-.031q-.63-.1-1.261-.2c-.129-.021-.256-.045-.384-.067-.359-.062-.718-.128-1.077-.193l-.437-.084q-.516-.1-1.033-.2-.22-.042-.443-.09c-.348-.07-.7-.143-1.047-.218-.135-.028-.271-.058-.407-.088-.377-.08-.754-.164-1.129-.246-.1-.024-.211-.049-.316-.071-.473-.106-.942-.213-1.414-.322l-.019,0-.062-.016a35.4,35.4,0,0,0,1.5-9.371c.012-12.34-9.356-22.561-18.941-30.324-11.662-9.446-26.278-17.681-40.981-14.681-7.435,1.525-14.022,5.794-19.905,10.6q-1.763,1.436-3.462,2.945a52.27,52.27,0,0,0-5.31-.131c-.125,0-.25,0-.376.008-.318.012-.636.027-.954.043-.2.012-.4.02-.6.033-.278.02-.555.038-.833.061-.248.019-.5.043-.745.064s-.479.045-.718.072c-.312.034-.623.071-.935.11-.182.024-.363.043-.545.068q-1.522.209-3.029.5c-.106.024-.21.045-.316.068-.4.081-.8.164-1.192.256l-.416.1q-.546.129-1.087.269c-.149.04-.3.079-.447.12-.357.1-.71.2-1.064.3-.144.043-.289.084-.432.129q-.558.168-1.112.35c-.121.039-.242.077-.364.118-.485.164-.971.332-1.452.511-16.036,5.926-28.462,19.91-34.178,36.02s-5.059,34.083.05,50.388a83.25,83.25,0,0,0,13.5,26.316c14.551,18.674,38.041,29.309,61.671,30.766q1.281.078,2.561.121c.284.011.567.016.852.024q.872.023,1.742.032c.313,0,.623.005.935.005q1,0,2.007-.018c.172,0,.342,0,.514-.01q1.368-.033,2.735-.1a69.408,69.408,0,0,0,16.949.979c6.664-.446,13.562-1.946,18.7-6.218a22.732,22.732,0,0,0,3.6-3.807c.29-.119.577-.242.866-.361C-1400.148,537.5-1399.909,537.4-1399.668,537.3Z" fill="#c8e7eb"/>
  </g>
  <g id="Group_7626" data-name="Group 7626" transform="translate(1588.692 -376.873)">
    <g id="Group_7611" data-name="Group 7611">
      <g id="Group_7580" data-name="Group 7580">
        <g id="Group_7579" data-name="Group 7579">
          <path id="Path_4392" data-name="Path 4392" d="M-1366.956,463.06c-.537-.545-1.027-1.341-.693-2.024.369-.767,1.458-.788,2.3-.608a14.211,14.211,0,0,1,10.163,8.814l-.058.272a19.846,19.846,0,0,1,13.086-1.434c.969.227,2.078.684,2.277,1.649a1.855,1.855,0,0,1-.827,1.809,4.673,4.673,0,0,1-1.983.672,19.929,19.929,0,0,1-12.855-2.339l.219-.318.007-.008C-1358.891,466.87-1363.845,466.26-1366.956,463.06Z" fill="#d8e081"/>
        </g>
      </g>
      <g id="Group_7582" data-name="Group 7582">
        <g id="Group_7581" data-name="Group 7581">
          <path id="Path_4393" data-name="Path 4393" d="M-1373.2,474.9a2.334,2.334,0,0,1-.927-1.265,1.742,1.742,0,0,1,1.088-1.774,4.081,4.081,0,0,1,2.2-.175,13.628,13.628,0,0,1,10.687,8.422l.008.49a21.544,21.544,0,0,1,13.867-4.179c1.043.047,2.3.357,2.582,1.357a1.752,1.752,0,0,1-.556,1.69,4.482,4.482,0,0,1-1.623.892,22.862,22.862,0,0,1-14.409.377l.049-.049q-4.627-1.919-9.248-3.82A15.492,15.492,0,0,1-1373.2,474.9Z" fill="#d8e081"/>
        </g>
      </g>
      <g id="Group_7584" data-name="Group 7584">
        <g id="Group_7583" data-name="Group 7583">
          <path id="Path_4394" data-name="Path 4394" d="M-1368.08,502.759a32.221,32.221,0,0,1-14.09-2.463c-.834-.345-1.793-.921-1.817-1.822-.026-.994,1.075-1.6,2.039-1.81a11.786,11.786,0,0,1,7.761,1.334,35.664,35.664,0,0,1,6.51,4.705Z" fill="#d8e081"/>
        </g>
      </g>
      <g id="Group_7586" data-name="Group 7586">
        <g id="Group_7585" data-name="Group 7585">
          <path id="Path_4395" data-name="Path 4395" d="M-1354.861,442.223c.508-.906,1.812-.909,2.8-.611a9.953,9.953,0,0,1,5.256,4.2,17.09,17.09,0,0,1,2.305,6.4l-.009.022c2.768-.877,5.657-1.686,8.507-1.151a4.145,4.145,0,0,1,2.138.959,1.968,1.968,0,0,1,.529,2.155,2.62,2.62,0,0,1-2.185,1.206c-3.1.357-6.117-1-8.955-2.32l-.383-.485a39.283,39.283,0,0,1-9.1-7.513C-1354.668,444.279-1355.384,443.156-1354.861,442.223Z" fill="#d8e081"/>
        </g>
      </g>
      <g id="Group_7588" data-name="Group 7588">
        <g id="Group_7587" data-name="Group 7587">
          <path id="Path_4396" data-name="Path 4396" d="M-1348.359,435.235a2.039,2.039,0,0,1,1.588-1.007,3.9,3.9,0,0,1,1.909.32,9.632,9.632,0,0,1,4.381,3.823,22.827,22.827,0,0,1,2.36,5.387l-.478-.218a57.921,57.921,0,0,1-8.022-4.706,5.647,5.647,0,0,1-1.546-1.527A2.166,2.166,0,0,1-1348.359,435.235Z" fill="#d8e081"/>
        </g>
      </g>
      <g id="Group_7590" data-name="Group 7590">
        <g id="Group_7589" data-name="Group 7589">
          <path id="Path_4397" data-name="Path 4397" d="M-1376.707,487.5a5.807,5.807,0,0,1-2.618-1.469,2,2,0,0,1-.035-2.722,2.684,2.684,0,0,1,2.109-.342,16.679,16.679,0,0,1,12.245,8.637Q-1370.859,489.557-1376.707,487.5Z" fill="#d8e081"/>
        </g>
      </g>
      <g id="Group_7592" data-name="Group 7592">
        <g id="Group_7591" data-name="Group 7591">
          <path id="Path_4398" data-name="Path 4398" d="M-1338.355,443.743l.287.195a16.671,16.671,0,0,1,11.275-.331,4.377,4.377,0,0,1,1.682.9,1.748,1.748,0,0,1,.554,1.724c-.3.974-1.538,1.26-2.56,1.282A17.6,17.6,0,0,1-1338.355,443.743Z" fill="#d8e081"/>
        </g>
      </g>
      <g id="Group_7594" data-name="Group 7594">
        <g id="Group_7593" data-name="Group 7593">
          <path id="Path_4399" data-name="Path 4399" d="M-1327.965,433.051a20.861,20.861,0,0,1,13.845-10.219,4.906,4.906,0,0,1,1.88-.119,2.012,2.012,0,0,1,1.5,1.049c.482,1.049-.334,2.213-1.187,2.985-4.236,3.835-10.189,5.03-15.83,6.074Z" fill="#d8e081"/>
        </g>
      </g>
      <g id="Group_7596" data-name="Group 7596">
        <g id="Group_7595" data-name="Group 7595">
          <path id="Path_4400" data-name="Path 4400" d="M-1350.825,461.969c-.013-.045-.026-.092-.037-.131l.08.053-.019-.041c3.757-2.555,8.658-3.792,12.965-2.268.992.352,2.08,1.051,2.074,2.108,0,1.146-1.285,1.82-2.4,2.1a16.673,16.673,0,0,1-12.519-1.724l-.049-.092Z" fill="#d8e081"/>
        </g>
      </g>
      <g id="Group_7598" data-name="Group 7598">
        <g id="Group_7597" data-name="Group 7597">
          <path id="Path_4401" data-name="Path 4401" d="M-1332.412,438.078l-.247-.348a29.33,29.33,0,0,1,6.4-1.363,13.293,13.293,0,0,1,6.42,1.014,4.071,4.071,0,0,1,1.614,1.14,1.92,1.92,0,0,1,.374,1.858c-.4,1.039-1.743,1.283-2.867,1.277A21.084,21.084,0,0,1-1332.412,438.078Z" fill="#d8e081"/>
        </g>
      </g>
      <g id="Group_7600" data-name="Group 7600">
        <g id="Group_7599" data-name="Group 7599">
          <path id="Path_4402" data-name="Path 4402" d="M-1360.756,451.465a2.188,2.188,0,0,1,1.907-.249,9.25,9.25,0,0,1,5.542,4.151,19.923,19.923,0,0,1,2.445,6.471,58.792,58.792,0,0,1-9.058-6.8,4.778,4.778,0,0,1-1.231-1.664A1.741,1.741,0,0,1-1360.756,451.465Z" fill="#d8e081"/>
        </g>
      </g>
      <g id="Group_7602" data-name="Group 7602">
        <g id="Group_7601" data-name="Group 7601">
          <path id="Path_4403" data-name="Path 4403" d="M-1364.946,491.715c-.018-.031-.035-.068-.06-.107a.611.611,0,0,0,.123.04l.07-.064a23,23,0,0,1,13.152-7.879,2.959,2.959,0,0,1,2.707.428,2.371,2.371,0,0,1-.107,2.908c-1.113,1.613-3.09,2.383-4.964,2.949a49.9,49.9,0,0,1-10.73,1.965l0,.008.011.152c-.023-.056-.05-.1-.076-.158a3.828,3.828,0,0,1-.416.041Z" fill="#d8e081"/>
        </g>
      </g>
      <g id="Group_7604" data-name="Group 7604">
        <g id="Group_7603" data-name="Group 7603">
          <path id="Path_4404" data-name="Path 4404" d="M-1367.648,502.646c.1-.013.206-.016.315-.032-.132.188-.265.384-.391.576Z" fill="#d8e081"/>
        </g>
      </g>
      <g id="Group_7606" data-name="Group 7606">
        <g id="Group_7605" data-name="Group 7605">
          <path id="Path_4405" data-name="Path 4405" d="M-1351.908,492.754a4.882,4.882,0,0,1,2.009.234,2.123,2.123,0,0,1,1.341,1.438,2.482,2.482,0,0,1-.552,1.92,9.839,9.839,0,0,1-4.375,2.96,46.354,46.354,0,0,1-13.848,3.308,25.6,25.6,0,0,1,6.282-6.567A17.23,17.23,0,0,1-1351.908,492.754Z" fill="#d8e081"/>
        </g>
      </g>
      <g id="Group_7608" data-name="Group 7608">
        <g id="Group_7607" data-name="Group 7607">
          <path id="Path_4406" data-name="Path 4406" d="M-1350.545,508.756a2.061,2.061,0,0,1-.414,1.59,5.04,5.04,0,0,1-1.252,1.127,25.072,25.072,0,0,1-8.866,3.686,66.847,66.847,0,0,1-9.3,1.238l.225.328a35.761,35.761,0,0,1-12.678-3.609,4.964,4.964,0,0,1-1.766-1.266,1.8,1.8,0,0,1-.195-2.04,2.473,2.473,0,0,1,2.071-.777,13.938,13.938,0,0,1,12.194,7.135l.027-.059a21.024,21.024,0,0,1,12.95-9.1,9.283,9.283,0,0,1,5.212.049A2.584,2.584,0,0,1-1350.545,508.756Z" fill="#d8e081"/>
        </g>
      </g>
      <g id="Group_7610" data-name="Group 7610">
        <g id="Group_7609" data-name="Group 7609">
          <path id="Path_4407" data-name="Path 4407" d="M-1369.528,523.12a125.876,125.876,0,0,1,43.861-88.528c1.607-1.379-.808-3.639-2.4-2.275a129.075,129.075,0,0,0-44.757,90.918C-1372.944,525.35-1369.644,525.225-1369.528,523.12Z" fill="#d8e081"/>
        </g>
      </g>
    </g>
    <g id="Group_7619" data-name="Group 7619">
      <g id="Group_7613" data-name="Group 7613">
        <g id="Group_7612" data-name="Group 7612">
          <path id="Path_4408" data-name="Path 4408" d="M-1370.813,525.058c.267.01.538.026.807.034-.136.206-.28.4-.429.593Z" fill="#00a3a1"/>
        </g>
      </g>
      <g id="Group_7616" data-name="Group 7616" opacity="0.4">
        <g id="Group_7615" data-name="Group 7615">
          <g id="Group_7614" data-name="Group 7614">
            <path id="Path_4409" data-name="Path 4409" d="M-1370.006,525.092c2.9-4.227,3.651-10.006,3.871-15.68.217-5.947-.053-12.1,1.361-17.611.322-1.242.838-2.565,2.016-2.906,1.444-.423,3.263.922,4.105,2.526a11.914,11.914,0,0,1,1.035,5.055A39.358,39.358,0,0,1-1346.2,478.07q1.293,4.3,2.582,8.615a35.483,35.483,0,0,1,11.643-13.328c1.471-1,3.516-1.837,5.232-.529,1.9,1.452,1.8,4.244,1.428,6.357,6.97-5.732,16.375-8.376,26.184-7.372,2.6.264,5.783,1.215,6.99,3.871,1.224,2.683-.424,5.193-2.07,6.978a92.093,92.093,0,0,1-16.241,14.006,13.866,13.866,0,0,1,5.911,2.047c1.812,1.3,3.191,3.785,2.529,5.606-.6,1.643-2.49,2.093-4.186,2.362q-9.764,1.593-19.8,2.285c2.3,1.325,5.066,3.52,4.705,5.93-.306,2.034-2.667,2.469-4.658,2.55-5.49.237-11.032.277-16.591.113,1.8.41,3.179,2.705,3.015,4.532a4.321,4.321,0,0,1-3.1,3.639,14.476,14.476,0,0,1-5.189.387Q-1358.9,525.6-1370.006,525.092Z" fill="#00abc4"/>
          </g>
        </g>
      </g>
      <g id="Group_7618" data-name="Group 7618">
        <g id="Group_7617" data-name="Group 7617">
          <path id="Path_4410" data-name="Path 4410" d="M-1306.512,477.877a230.537,230.537,0,0,0-28.329,17.322,62.934,62.934,0,0,1,3.8-9.916c.461-.953-1.1-1.468-1.559-.529a63.023,63.023,0,0,0-4.375,11.954h0q-8.685,6.35-16.762,13.487,2.117-7.863,4.233-15.737c.276-1.015-1.281-1.551-1.555-.527q-2.362,8.787-4.727,17.572a.786.786,0,0,0,.034.5c-3.135,2.836-6.22,5.728-9.2,8.738-.745.749.331,1.994,1.073,1.242,3.139-3.172,6.4-6.205,9.705-9.177a.875.875,0,0,0,.183.028q6.727-.447,13.448-.887c1.04-.069,1.151-1.711.1-1.639q-5.9.384-11.8.776c5.441-4.776,11.079-9.32,16.937-13.565a.813.813,0,0,0,.342.123,87.321,87.321,0,0,0,16.671.623c1.043-.058,1.154-1.7.1-1.637a87.745,87.745,0,0,1-15.18-.465,229.7,229.7,0,0,1,27.583-16.816A.822.822,0,0,0-1306.512,477.877Z" fill="#00aeb4"/>
        </g>
      </g>
    </g>
    <g id="Group_7625" data-name="Group 7625">
      <g id="Group_7622" data-name="Group 7622" opacity="0.4">
        <g id="Group_7621" data-name="Group 7621">
          <g id="Group_7620" data-name="Group 7620">
            <path id="Path_4411" data-name="Path 4411" d="M-1360.292,491.949c.08,2.567-1.636,4.444-3.287,6.166q-8.537,8.846-17.787,16.963l.256.457q-9.786-4.173-19.588-8.361a11.365,11.365,0,0,1-3.861-2.283c-1.725-1.76-2.229-5.1,1.744-6.193a7.591,7.591,0,0,1,2.216-.243l10.114.207c1.14.023,2.554-.116,2.783-1.392a1.922,1.922,0,0,0-.607-1.711,24.725,24.725,0,0,0-13.054-6.506,11.408,11.408,0,0,1-4.072-1.071c-1.636-.984-2.63-3.505-.241-4.759a4.231,4.231,0,0,1,1.665-.45,46.41,46.41,0,0,1,11.136.495c1.91.318,4.556.337,4.825-1.766a2.519,2.519,0,0,0-1.068-2.347,33.487,33.487,0,0,0-11.87-5.374,8.674,8.674,0,0,1-3.064-1.07c-1.232-.86-1.946-2.776-.194-3.877a3.462,3.462,0,0,1,2.228-.441l10.5,1.251c1.243.144,2.778.176,3.261-1.189a2.267,2.267,0,0,0-.88-2.57,39.264,39.264,0,0,0-13-5.94c-1.471-.372-3.055-.7-3.962-2.054a2.127,2.127,0,0,1-.128-2.282c.633-1.021,1.857-.972,2.919-.869l11.316,1.074a.754.754,0,0,0,.593-1.3,29.255,29.255,0,0,0-11.706-6.567,9.035,9.035,0,0,1-3.13-1.262c-1.259-.97-1.881-3.076.184-4.033a3.573,3.573,0,0,1,1.752-.3,61.278,61.278,0,0,1,10.455,1.541q-1.974-4.641-3.945-9.293c-.967-2.267-1.912-4.988-.2-7.008a4.372,4.372,0,0,1,4.746-1.142c2.858.966,4.3,3.809,4.85,6.62.306,1.561.412,3.219,1.557,4.446a2.476,2.476,0,0,0,2.2.818c1.4-.254,1.854-1.672,2.39-2.852.471-1.034,1.41-2.125,2.511-1.874a2.1,2.1,0,0,1,1.3,1.161c1,1.984.11,4.389-1.037,6.287-1.4,2.328-3.247,4.628-2.581,7.544a3.094,3.094,0,0,0,3.429,2.5c1.635-.281,2.314-1.908,3.2-3.183.888-1.257,2.725-2.321,3.843-.978a2.351,2.351,0,0,1,.466,1.436c.054,3.675-2.321,6.746-4.278,9.791a15.8,15.8,0,0,0-2.6,6.3,1.685,1.685,0,0,0,2.717,1.506l6.166-4.788c.686-.535,1.482-1.1,2.4-.638a1.749,1.749,0,0,1,.9,1.307,4.527,4.527,0,0,1-1.307,3.331q-4.173,5.553-8.348,11.089c-.965,1.287-1.987,2.88-1.141,4.392a2.925,2.925,0,0,0,3.431,1.221c2.729-.8,3.869-3.4,5.845-5.094,1.191-1.02,3.32-1.567,3.982.156a2.262,2.262,0,0,1-.417,2.225,76.288,76.288,0,0,1-9.682,9.757c-1.391,1.169-2.9,2.394-3.1,4.313a2.458,2.458,0,0,0,1.725,2.738c1.212.29,2.295-.585,3.2-1.4q2.119-1.9,4.235-3.818c1.443-1.3,3.252-2.706,5.171-1.855A3.4,3.4,0,0,1-1360.292,491.949Z" fill="#00abc4"/>
          </g>
        </g>
      </g>
      <g id="Group_7624" data-name="Group 7624">
        <g id="Group_7623" data-name="Group 7623">
          <path id="Path_4412" data-name="Path 4412" d="M-1382.077,513.5a131.179,131.179,0,0,0-11.611-86.535c-.482-.933-2.009-.329-1.524.614a129.781,129.781,0,0,1,11.51,85.7C-1383.921,514.318-1382.292,514.535-1382.077,513.5Z" fill="#00aeb4"/>
        </g>
      </g>
    </g>
  </g>
  <g id="Group_7627" data-name="Group 7627" transform="translate(1588.692 -376.873)">
    <path id="Path_4413" data-name="Path 4413" d="M-1413.768,394.893A19.6,19.6,0,0,1-1403,393.068c10.674,1.148,12.283-14.062,1.751-16.008-5.731-1.058-11.646,2.532-15.024,6.94-4.391,5.73-5.444,12.627-6.986,19.479.735-3.268,5.926-6.716,8.635-8.155Q-1414.2,395.1-1413.768,394.893Z" fill="#c8e7eb"/>
  </g>
  <g id="Group_7675" data-name="Group 7675" transform="translate(1588.692 -376.873)">
    <g id="Group_7660" data-name="Group 7660">
      <g id="Group_7629" data-name="Group 7629">
        <g id="Group_7628" data-name="Group 7628">
          <path id="Path_4414" data-name="Path 4414" d="M-1531.838,460.565c.405-.412.775-1.013.523-1.529-.279-.58-1.1-.6-1.74-.46a10.742,10.742,0,0,0-7.68,6.661l.044.2a15,15,0,0,0-9.888-1.084c-.732.172-1.57.517-1.72,1.247a1.4,1.4,0,0,0,.625,1.367,3.536,3.536,0,0,0,1.5.508,15.06,15.06,0,0,0,9.714-1.768l-.166-.24-.005-.006C-1537.933,463.444-1534.189,462.983-1531.838,460.565Z" fill="#d8e081"/>
        </g>
      </g>
      <g id="Group_7631" data-name="Group 7631">
        <g id="Group_7630" data-name="Group 7630">
          <path id="Path_4415" data-name="Path 4415" d="M-1527.119,469.51a1.766,1.766,0,0,0,.7-.956,1.315,1.315,0,0,0-.822-1.34,3.071,3.071,0,0,0-1.665-.133,10.3,10.3,0,0,0-8.076,6.364l-.006.37a16.281,16.281,0,0,0-10.478-3.157c-.788.035-1.735.27-1.951,1.026a1.321,1.321,0,0,0,.421,1.276,3.372,3.372,0,0,0,1.226.674,17.271,17.271,0,0,0,10.887.285l-.036-.037q3.5-1.449,6.988-2.886A11.7,11.7,0,0,0-1527.119,469.51Z" fill="#d8e081"/>
        </g>
      </g>
      <g id="Group_7633" data-name="Group 7633">
        <g id="Group_7632" data-name="Group 7632">
          <path id="Path_4416" data-name="Path 4416" d="M-1530.989,490.564a24.363,24.363,0,0,0,10.647-1.862c.631-.261,1.355-.7,1.373-1.377.019-.75-.812-1.205-1.541-1.367a8.9,8.9,0,0,0-5.864,1.008,26.846,26.846,0,0,0-4.919,3.556Z" fill="#d8e081"/>
        </g>
      </g>
      <g id="Group_7635" data-name="Group 7635">
        <g id="Group_7634" data-name="Group 7634">
          <path id="Path_4417" data-name="Path 4417" d="M-1540.978,444.82c-.384-.684-1.369-.687-2.119-.462a7.525,7.525,0,0,0-3.971,3.176,12.9,12.9,0,0,0-1.742,4.832l.007.017a13.348,13.348,0,0,0-6.428-.87,3.131,3.131,0,0,0-1.616.724,1.487,1.487,0,0,0-.4,1.629,1.979,1.979,0,0,0,1.65.911c2.344.27,4.623-.753,6.768-1.753l.289-.367a29.661,29.661,0,0,0,6.878-5.677C-1541.123,446.374-1540.582,445.525-1540.978,444.82Z" fill="#d8e081"/>
        </g>
      </g>
      <g id="Group_7637" data-name="Group 7637">
        <g id="Group_7636" data-name="Group 7636">
          <path id="Path_4418" data-name="Path 4418" d="M-1545.891,439.54a1.545,1.545,0,0,0-1.2-.762,2.951,2.951,0,0,0-1.443.243,7.264,7.264,0,0,0-3.31,2.888,17.262,17.262,0,0,0-1.783,4.071l.361-.165a43.9,43.9,0,0,0,6.063-3.556,4.274,4.274,0,0,0,1.167-1.154A1.633,1.633,0,0,0-1545.891,439.54Z" fill="#d8e081"/>
        </g>
      </g>
      <g id="Group_7639" data-name="Group 7639">
        <g id="Group_7638" data-name="Group 7638">
          <path id="Path_4419" data-name="Path 4419" d="M-1524.47,479.036a4.382,4.382,0,0,0,1.977-1.109,1.509,1.509,0,0,0,.028-2.058,2.035,2.035,0,0,0-1.594-.259,12.606,12.606,0,0,0-9.253,6.528Q-1528.89,480.589-1524.47,479.036Z" fill="#d8e081"/>
        </g>
      </g>
      <g id="Group_7641" data-name="Group 7641">
        <g id="Group_7640" data-name="Group 7640">
          <path id="Path_4420" data-name="Path 4420" d="M-1553.451,445.969l-.216.146a12.608,12.608,0,0,0-8.52-.249,3.309,3.309,0,0,0-1.271.676,1.319,1.319,0,0,0-.418,1.3c.227.736,1.162.952,1.933.969A13.3,13.3,0,0,0-1553.451,445.969Z" fill="#d8e081"/>
        </g>
      </g>
      <g id="Group_7643" data-name="Group 7643">
        <g id="Group_7642" data-name="Group 7642">
          <path id="Path_4421" data-name="Path 4421" d="M-1561.3,437.889a15.764,15.764,0,0,0-10.462-7.721,3.7,3.7,0,0,0-1.421-.091,1.525,1.525,0,0,0-1.132.793c-.363.793.253,1.672.9,2.256,3.2,2.9,7.7,3.8,11.962,4.59Z" fill="#d8e081"/>
        </g>
      </g>
      <g id="Group_7645" data-name="Group 7645">
        <g id="Group_7644" data-name="Group 7644">
          <path id="Path_4422" data-name="Path 4422" d="M-1544.028,459.741c.01-.034.02-.07.029-.1l-.061.04.015-.032c-2.839-1.93-6.543-2.865-9.8-1.712-.75.265-1.572.793-1.568,1.592,0,.866.971,1.375,1.81,1.588a12.6,12.6,0,0,0,9.46-1.3l.037-.07Z" fill="#d8e081"/>
        </g>
      </g>
      <g id="Group_7647" data-name="Group 7647">
        <g id="Group_7646" data-name="Group 7646">
          <path id="Path_4423" data-name="Path 4423" d="M-1557.942,441.689l.187-.264a22.185,22.185,0,0,0-4.838-1.029,10.032,10.032,0,0,0-4.851.765,3.065,3.065,0,0,0-1.219.861,1.453,1.453,0,0,0-.284,1.4c.306.785,1.318.97,2.167.965A15.934,15.934,0,0,0-1557.942,441.689Z" fill="#d8e081"/>
        </g>
      </g>
      <g id="Group_7649" data-name="Group 7649">
        <g id="Group_7648" data-name="Group 7648">
          <path id="Path_4424" data-name="Path 4424" d="M-1536.523,451.8a1.659,1.659,0,0,0-1.441-.189,6.993,6.993,0,0,0-4.188,3.137,15.052,15.052,0,0,0-1.847,4.89,44.511,44.511,0,0,0,6.844-5.137,3.63,3.63,0,0,0,.93-1.258A1.317,1.317,0,0,0-1536.523,451.8Z" fill="#d8e081"/>
        </g>
      </g>
      <g id="Group_7651" data-name="Group 7651">
        <g id="Group_7650" data-name="Group 7650">
          <path id="Path_4425" data-name="Path 4425" d="M-1533.358,482.218c.015-.024.028-.051.046-.08a.562.562,0,0,1-.093.03l-.052-.049a17.386,17.386,0,0,0-9.939-5.954,2.236,2.236,0,0,0-2.045.323,1.793,1.793,0,0,0,.08,2.2,6.707,6.707,0,0,0,3.751,2.229,37.69,37.69,0,0,0,8.109,1.484l0,.006-.008.116c.016-.043.037-.078.056-.12a3,3,0,0,0,.315.031Z" fill="#d8e081"/>
        </g>
      </g>
      <g id="Group_7653" data-name="Group 7653">
        <g id="Group_7652" data-name="Group 7652">
          <path id="Path_4426" data-name="Path 4426" d="M-1531.316,490.478c-.079-.01-.155-.012-.237-.024.1.142.2.29.295.436Z" fill="#d8e081"/>
        </g>
      </g>
      <g id="Group_7655" data-name="Group 7655">
        <g id="Group_7654" data-name="Group 7654">
          <path id="Path_4427" data-name="Path 4427" d="M-1543.209,483a3.694,3.694,0,0,0-1.519.178,1.605,1.605,0,0,0-1.013,1.086,1.881,1.881,0,0,0,.417,1.451,7.439,7.439,0,0,0,3.306,2.236,35.021,35.021,0,0,0,10.465,2.5,19.369,19.369,0,0,0-4.747-4.963A13.028,13.028,0,0,0-1543.209,483Z" fill="#d8e081"/>
        </g>
      </g>
      <g id="Group_7657" data-name="Group 7657">
        <g id="Group_7656" data-name="Group 7656">
          <path id="Path_4428" data-name="Path 4428" d="M-1544.239,495.1a1.557,1.557,0,0,0,.313,1.2,3.777,3.777,0,0,0,.946.851,18.921,18.921,0,0,0,6.7,2.787,50.547,50.547,0,0,0,7.027.934l-.171.248a27.026,27.026,0,0,0,9.581-2.726,3.769,3.769,0,0,0,1.334-.957,1.356,1.356,0,0,0,.147-1.541,1.866,1.866,0,0,0-1.565-.587,10.529,10.529,0,0,0-9.214,5.391l-.02-.045a15.894,15.894,0,0,0-9.786-6.875,7,7,0,0,0-3.938.038A1.95,1.95,0,0,0-1544.239,495.1Z" fill="#d8e081"/>
        </g>
      </g>
      <g id="Group_7659" data-name="Group 7659">
        <g id="Group_7658" data-name="Group 7658">
          <path id="Path_4429" data-name="Path 4429" d="M-1529.9,505.949a95.12,95.12,0,0,0-33.142-66.9c-1.215-1.042.61-2.75,1.815-1.719a97.533,97.533,0,0,1,33.821,68.7C-1527.314,507.634-1529.807,507.539-1529.9,505.949Z" fill="#d8e081"/>
        </g>
      </g>
    </g>
    <g id="Group_7668" data-name="Group 7668">
      <g id="Group_7662" data-name="Group 7662">
        <g id="Group_7661" data-name="Group 7661">
          <path id="Path_4430" data-name="Path 4430" d="M-1528.924,507.413c-.2.008-.406.02-.61.026.1.156.211.3.325.449Z" fill="#00a3a1"/>
        </g>
      </g>
      <g id="Group_7665" data-name="Group 7665" opacity="0.4">
        <g id="Group_7664" data-name="Group 7664">
          <g id="Group_7663" data-name="Group 7663">
            <path id="Path_4431" data-name="Path 4431" d="M-1529.534,507.439c-2.188-3.194-2.758-7.561-2.924-11.848-.164-4.494.04-9.143-1.03-13.308-.242-.938-.632-1.938-1.522-2.2-1.092-.319-2.467.7-3.1,1.909a9.045,9.045,0,0,0-.782,3.819,29.733,29.733,0,0,0-8.628-13.908q-.975,3.252-1.951,6.51a26.8,26.8,0,0,0-8.8-10.07c-1.111-.753-2.656-1.389-3.953-.4-1.437,1.1-1.357,3.207-1.079,4.8a26.713,26.713,0,0,0-19.785-5.571c-1.963.2-4.37.919-5.282,2.926-.925,2.027.32,3.923,1.564,5.273a69.591,69.591,0,0,0,12.271,10.583,10.471,10.471,0,0,0-4.465,1.547c-1.369.979-2.411,2.86-1.911,4.236.449,1.241,1.881,1.581,3.163,1.784q7.379,1.2,14.958,1.727c-1.737,1-3.828,2.66-3.555,4.481.231,1.536,2.016,1.866,3.519,1.927,4.149.179,8.336.209,12.538.086a3.419,3.419,0,0,0-2.279,3.424,3.264,3.264,0,0,0,2.341,2.75,10.971,10.971,0,0,0,3.921.293Q-1537.923,507.824-1529.534,507.439Z" fill="#00abc4"/>
          </g>
        </g>
      </g>
      <g id="Group_7667" data-name="Group 7667">
        <g id="Group_7666" data-name="Group 7666">
          <path id="Path_4432" data-name="Path 4432" d="M-1577.512,471.762a174.1,174.1,0,0,1,21.406,13.089,47.48,47.48,0,0,0-2.873-7.493c-.348-.72.831-1.109,1.178-.4a47.6,47.6,0,0,1,3.306,9.033h0q6.563,4.8,12.666,10.192-1.6-5.942-3.2-11.892c-.209-.767.968-1.172,1.175-.4q1.786,6.639,3.571,13.278a.583.583,0,0,1-.025.38c2.369,2.142,4.7,4.329,6.949,6.6.564.567-.25,1.508-.81.94-2.372-2.4-4.833-4.69-7.333-6.936a.631.631,0,0,1-.139.022q-5.084-.337-10.162-.67c-.786-.053-.869-1.293-.072-1.238q4.455.289,8.914.585c-4.111-3.608-8.372-7.042-12.8-10.25a.591.591,0,0,1-.258.092,65.923,65.923,0,0,1-12.6.472c-.788-.044-.871-1.284-.072-1.237a66.379,66.379,0,0,0,11.471-.352,173.72,173.72,0,0,0-20.843-12.707A.621.621,0,0,1-1577.512,471.762Z" fill="#00aeb4"/>
        </g>
      </g>
    </g>
    <g id="Group_7674" data-name="Group 7674">
      <g id="Group_7671" data-name="Group 7671" opacity="0.4">
        <g id="Group_7670" data-name="Group 7670">
          <g id="Group_7669" data-name="Group 7669">
            <path id="Path_4433" data-name="Path 4433" d="M-1536.873,482.4c-.061,1.938,1.235,3.357,2.483,4.659q6.45,6.683,13.44,12.817l-.193.346q7.395-3.154,14.8-6.319a8.571,8.571,0,0,0,2.918-1.725c1.3-1.329,1.684-3.857-1.318-4.679a5.728,5.728,0,0,0-1.674-.184l-7.643.157c-.861.017-1.93-.088-2.1-1.053a1.457,1.457,0,0,1,.459-1.293,18.691,18.691,0,0,1,9.864-4.916,8.605,8.605,0,0,0,3.077-.809c1.236-.744,1.987-2.648.183-3.6a3.215,3.215,0,0,0-1.259-.339,35.077,35.077,0,0,0-8.414.373c-1.444.24-3.444.256-3.647-1.334a1.9,1.9,0,0,1,.807-1.773,25.3,25.3,0,0,1,8.97-4.061,6.561,6.561,0,0,0,2.315-.81c.931-.649,1.471-2.1.146-2.928a2.608,2.608,0,0,0-1.683-.334l-7.936.945c-.939.109-2.1.134-2.464-.9a1.714,1.714,0,0,1,.666-1.943,29.649,29.649,0,0,1,9.821-4.488,4.594,4.594,0,0,0,2.994-1.553,1.609,1.609,0,0,0,.1-1.724c-.479-.772-1.4-.735-2.206-.657l-8.551.813a.57.57,0,0,1-.448-.984,22.1,22.1,0,0,1,8.845-4.961,6.837,6.837,0,0,0,2.365-.954c.952-.733,1.421-2.324-.138-3.047a2.689,2.689,0,0,0-1.324-.224,46.261,46.261,0,0,0-7.9,1.164q1.491-3.507,2.981-7.022c.731-1.713,1.445-3.769.15-5.3a3.306,3.306,0,0,0-3.587-.863c-2.159.731-3.249,2.878-3.664,5a6.313,6.313,0,0,1-1.177,3.359,1.869,1.869,0,0,1-1.665.619c-1.059-.193-1.4-1.264-1.806-2.155-.356-.782-1.066-1.606-1.9-1.416a1.581,1.581,0,0,0-.981.877c-.757,1.5-.083,3.316.784,4.75,1.055,1.759,2.453,3.5,1.95,5.7a2.338,2.338,0,0,1-2.592,1.887c-1.235-.212-1.748-1.441-2.415-2.4-.672-.949-2.059-1.754-2.9-.738a1.778,1.778,0,0,0-.353,1.084c-.04,2.777,1.754,5.1,3.234,7.4a11.935,11.935,0,0,1,1.961,4.763,1.273,1.273,0,0,1-2.053,1.138l-4.659-3.619c-.519-.4-1.12-.833-1.817-.482a1.322,1.322,0,0,0-.675.988,3.419,3.419,0,0,0,.987,2.517q3.155,4.2,6.309,8.38c.729.972,1.5,2.176.862,3.318a2.211,2.211,0,0,1-2.593.923c-2.062-.6-2.924-2.572-4.417-3.85-.9-.77-2.509-1.183-3.009.119a1.709,1.709,0,0,0,.316,1.68,57.57,57.57,0,0,0,7.315,7.373c1.052.884,2.193,1.81,2.347,3.26a1.856,1.856,0,0,1-1.3,2.068,2.862,2.862,0,0,1-2.418-1.056q-1.6-1.437-3.2-2.885c-1.091-.98-2.457-2.044-3.907-1.4A2.562,2.562,0,0,0-1536.873,482.4Z" fill="#00abc4"/>
          </g>
        </g>
      </g>
      <g id="Group_7673" data-name="Group 7673">
        <g id="Group_7672" data-name="Group 7672">
          <path id="Path_4434" data-name="Path 4434" d="M-1520.412,498.681a99.126,99.126,0,0,1,8.773-65.39c.365-.7,1.519-.249,1.152.464a98.067,98.067,0,0,0-8.7,64.76C-1519.019,499.3-1520.249,499.462-1520.412,498.681Z" fill="#00aeb4"/>
        </g>
      </g>
    </g>
  </g>
  <path id="Path_4435" data-name="Path 4435" d="M-1551.249,524.523c0,2.719,47.5,4.922,106.1,4.922s106.1-2.2,106.1-4.922-47.5-4.919-106.1-4.919S-1551.249,521.807-1551.249,524.523Z" transform="translate(1588.692 -376.873)" opacity="0.31" fill="url(#linear-gradient)"/>
  <g id="Group_7676" data-name="Group 7676" transform="translate(1588.692 -376.873)">
    <path id="Path_4436" data-name="Path 4436" d="M-1448.406,485.711c0-13.715-10.46-44.534-24.831-44.534-15.285,0-24.831,30.819-24.831,44.534a24.83,24.83,0,0,0,24.831,24.83A24.83,24.83,0,0,0-1448.406,485.711Z" fill="#f2b681"/>
    <path id="Path_4437" data-name="Path 4437" d="M-1448.406,485.711c0-9.743-5.282-28.109-13.492-37.935,4.626,7.686,7.814,16.489,7.085,25.4-.773,9.442-6.708,18.831-15.75,21.659a21.192,21.192,0,0,1-19.558-4.153,23.579,23.579,0,0,1-7.368-11.763,46.932,46.932,0,0,0-.579,6.793,24.83,24.83,0,0,0,24.831,24.83A24.83,24.83,0,0,0-1448.406,485.711Z" fill="#f2b681" opacity="0.64" style="mix-blend-mode: multiply;isolation: isolate"/>
    <path id="Path_4438" data-name="Path 4438" d="M-1491.292,481.277a14.206,14.206,0,0,1-.709-1.552,19.962,19.962,0,0,1-1.123-7.973,39.866,39.866,0,0,1,5.629-18.451c3.095-5.1,10.312-13.3,16.9-8.8,4.815,3.29,7.576,11.1,8.722,16.548a33.954,33.954,0,0,1-.774,17.7c-1.27,3.649-4.751,6.527-8.223,8.068-6.9,3.062-16.146,1.853-20.182-5.119C-1491.137,481.563-1491.215,481.42-1491.292,481.277Z" fill="#fff" opacity="0.26"/>
    <path id="Path_4439" data-name="Path 4439" d="M-1471.305,452.5a6.02,6.02,0,0,0-4.182-5.7c-2.338-.7-4.947.73-6.293,2.621a5.114,5.114,0,0,0-.955,3.674c.467,3.065,4.158,4.07,6.817,3.717C-1473.663,456.512-1471.427,454.924-1471.305,452.5Z" fill="#fff" opacity="0.56"/>
    <path id="Path_4440" data-name="Path 4440" d="M-1480.036,463.079c1.568-.345,2.8-2.075,1.655-3.654a2.614,2.614,0,0,0-4.418-.025,2.6,2.6,0,0,0,.974,3.406A2.452,2.452,0,0,0-1480.036,463.079Z" fill="#fff" opacity="0.56"/>
  </g>
  <g id="Group_7677" data-name="Group 7677" transform="translate(1588.692 -376.873)">
    <path id="Path_4441" data-name="Path 4441" d="M-1500,485.711c0-13.715-10.461-44.534-24.831-44.534-15.286,0-24.833,30.819-24.833,44.534a24.832,24.832,0,0,0,24.833,24.83A24.831,24.831,0,0,0-1500,485.711Z" fill="#f2b681"/>
    <path id="Path_4442" data-name="Path 4442" d="M-1500,485.711c0-9.743-5.283-28.109-13.493-37.935,4.626,7.686,7.814,16.489,7.084,25.4-.772,9.442-6.707,18.831-15.749,21.659a21.191,21.191,0,0,1-19.558-4.153,23.571,23.571,0,0,1-7.367-11.763,46.943,46.943,0,0,0-.581,6.793,24.832,24.832,0,0,0,24.833,24.83A24.831,24.831,0,0,0-1500,485.711Z" fill="#f2b681" opacity="0.64" style="mix-blend-mode: multiply;isolation: isolate"/>
    <path id="Path_4443" data-name="Path 4443" d="M-1542.884,481.277a14.047,14.047,0,0,1-.709-1.552,19.964,19.964,0,0,1-1.123-7.973,39.854,39.854,0,0,1,5.63-18.451c3.094-5.1,10.311-13.3,16.9-8.8,4.816,3.29,7.577,11.1,8.722,16.548a33.954,33.954,0,0,1-.774,17.7c-1.27,3.649-4.751,6.527-8.223,8.068-6.9,3.062-16.146,1.853-20.182-5.119C-1542.729,481.563-1542.807,481.42-1542.884,481.277Z" fill="#fff" opacity="0.26"/>
    <path id="Path_4444" data-name="Path 4444" d="M-1522.9,452.5a6.02,6.02,0,0,0-4.181-5.7c-2.338-.7-4.949.73-6.294,2.621a5.118,5.118,0,0,0-.955,3.674c.467,3.065,4.158,4.07,6.817,3.717C-1525.255,456.512-1523.02,454.924-1522.9,452.5Z" fill="#fff" opacity="0.56"/>
    <path id="Path_4445" data-name="Path 4445" d="M-1531.627,463.079c1.567-.345,2.8-2.075,1.654-3.654a2.614,2.614,0,0,0-4.418-.025,2.6,2.6,0,0,0,.975,3.406A2.451,2.451,0,0,0-1531.627,463.079Z" fill="#fff" opacity="0.56"/>
  </g>
  <g id="Group_7678" data-name="Group 7678" transform="translate(1588.692 -376.873)">
    <path id="Path_4446" data-name="Path 4446" d="M-1397.3,483.375c0-13.714-10.46-44.533-24.831-44.533-15.285,0-24.831,30.819-24.831,44.533a24.831,24.831,0,0,0,24.831,24.831A24.831,24.831,0,0,0-1397.3,483.375Z" fill="#f2b681"/>
    <path id="Path_4447" data-name="Path 4447" d="M-1397.3,483.375c0-9.742-5.282-28.108-13.492-37.935,4.626,7.687,7.814,16.489,7.084,25.4-.773,9.441-6.708,18.83-15.749,21.658a21.193,21.193,0,0,1-19.558-4.152,23.559,23.559,0,0,1-7.367-11.764,46.8,46.8,0,0,0-.58,6.793,24.831,24.831,0,0,0,24.831,24.831A24.831,24.831,0,0,0-1397.3,483.375Z" fill="#f2b681" opacity="0.64" style="mix-blend-mode: multiply;isolation: isolate"/>
    <path id="Path_4448" data-name="Path 4448" d="M-1440.182,478.941a14.206,14.206,0,0,1-.709-1.552,19.981,19.981,0,0,1-1.123-7.972,39.868,39.868,0,0,1,5.631-18.451c3.094-5.105,10.311-13.3,16.9-8.8,4.815,3.29,7.576,11.1,8.721,16.547a33.954,33.954,0,0,1-.772,17.7c-1.271,3.65-4.752,6.528-8.225,8.068-6.9,3.063-16.145,1.854-20.181-5.118C-1440.026,479.227-1440.1,479.086-1440.182,478.941Z" fill="#fff" opacity="0.26"/>
    <path id="Path_4449" data-name="Path 4449" d="M-1420.194,450.16a6.021,6.021,0,0,0-4.181-5.694c-2.339-.7-4.949.73-6.294,2.62a5.111,5.111,0,0,0-.954,3.675c.466,3.065,4.156,4.07,6.816,3.716C-1422.553,454.177-1420.317,452.589-1420.194,450.16Z" fill="#fff" opacity="0.56"/>
    <path id="Path_4450" data-name="Path 4450" d="M-1428.924,460.744c1.566-.345,2.8-2.075,1.654-3.654a2.614,2.614,0,0,0-4.418-.026,2.6,2.6,0,0,0,.975,3.407A2.45,2.45,0,0,0-1428.924,460.744Z" fill="#fff" opacity="0.56"/>
  </g>
  <g id="Group_7679" data-name="Group 7679" transform="translate(1588.692 -376.873)">
    <path id="Path_4451" data-name="Path 4451" d="M-1346.109,483.375c0-13.714-10.461-44.533-24.832-44.533-15.284,0-24.83,30.819-24.83,44.533a24.83,24.83,0,0,0,24.83,24.831A24.832,24.832,0,0,0-1346.109,483.375Z" fill="#f2b681"/>
    <path id="Path_4452" data-name="Path 4452" d="M-1346.109,483.375c0-9.742-5.283-28.108-13.493-37.935,4.627,7.687,7.815,16.489,7.085,25.4-.773,9.441-6.708,18.83-15.749,21.658a21.2,21.2,0,0,1-19.559-4.152,23.587,23.587,0,0,1-7.367-11.764,46.8,46.8,0,0,0-.58,6.793,24.831,24.831,0,0,0,24.831,24.831A24.832,24.832,0,0,0-1346.109,483.375Z" fill="#f2b681" opacity="0.64" style="mix-blend-mode: multiply;isolation: isolate"/>
    <path id="Path_4453" data-name="Path 4453" d="M-1389,478.941a14.025,14.025,0,0,1-.709-1.552,19.977,19.977,0,0,1-1.123-7.972,39.879,39.879,0,0,1,5.63-18.451c3.094-5.105,10.312-13.3,16.9-8.8,4.815,3.29,7.576,11.1,8.721,16.547a33.942,33.942,0,0,1-.773,17.7c-1.27,3.65-4.751,6.528-8.224,8.068-6.9,3.063-16.145,1.854-20.181-5.118C-1388.84,479.227-1388.918,479.086-1389,478.941Z" fill="#fff" opacity="0.26"/>
    <path id="Path_4454" data-name="Path 4454" d="M-1369.008,450.16a6.02,6.02,0,0,0-4.182-5.694c-2.339-.7-4.948.73-6.294,2.62a5.12,5.12,0,0,0-.954,3.675c.467,3.065,4.156,4.07,6.817,3.716C-1371.367,454.177-1369.131,452.589-1369.008,450.16Z" fill="#fff" opacity="0.56"/>
    <path id="Path_4455" data-name="Path 4455" d="M-1377.739,460.744c1.567-.345,2.8-2.075,1.655-3.654a2.614,2.614,0,0,0-4.418-.026,2.6,2.6,0,0,0,.974,3.407A2.451,2.451,0,0,0-1377.739,460.744Z" fill="#fff" opacity="0.56"/>
  </g>
  <path id="Path_4456" data-name="Path 4456" d="M-1337.5,487.494h-220.586a61.911,61.911,0,0,0,12.236,36.951l.153.206h195.807l.153-.206a61.9,61.9,0,0,0,12.237-36.951Z" transform="translate(1588.692 -376.873)" fill="#00b0c4"/>
  <path id="Path_4457" data-name="Path 4457" d="M-1558.089,487.088a61.855,61.855,0,0,0,2.27,16.441c15.97-11.275,38.272-10.55,56.889-3.918a26.361,26.361,0,0,0,5.289,1.527,24.037,24.037,0,0,0,7.629-.639c35.345-6.729,72.061-10.028,107.142-2.036,6.7,1.525,14.047,4.053,17.067,10.22,2.4,4.9,1.225,10.88-1.67,15.562h13.58l.153-.207a61.9,61.9,0,0,0,12.237-36.95Z" transform="translate(1588.692 -376.873)" fill="#c9a285" opacity="0.57" style="mix-blend-mode: multiply;isolation: isolate"/>
  <path id="Path_4458" data-name="Path 4458" d="M-1335.827,491.651h-223.329a2.9,2.9,0,0,1-2.894-2.893h0a2.9,2.9,0,0,1,2.894-2.895h223.329a2.9,2.9,0,0,1,2.894,2.895h0A2.9,2.9,0,0,1-1335.827,491.651Z" transform="translate(1588.692 -376.873)" fill="#5d5d5d"/>
  <path id="Path_4459" data-name="Path 4459" d="M-1393.088,502.321l.11.029c4.2,1.064,11.348,4.445,7.845,10-1.488,2.359-4.272,3.535-6.953,4.306-11.062,3.183-22.545,2.74-33.927,2.772-16.814.049-33.727.64-50.521-.341-4.766-.279-22.326-1.813-13.2-9.613,4.381-3.746,11.2-5.879,16.707-7.324,8.543-2.241,17.466-2.543,26.243-2.946C-1428.981,498.385-1410.5,497.93-1393.088,502.321Z" transform="translate(1588.692 -376.873)" fill="#fff" opacity="0.22"/>
</svg>
