<svg xmlns="http://www.w3.org/2000/svg" width="20" height="20" viewBox="0 0 20 20"><defs><style>.a{fill:#25d366;}.b{fill:#fff;}</style></defs><g transform="translate(-241 -2874)"><circle class="a" cx="10" cy="10" r="10" transform="translate(241 2874)"/><path class="b" d="M10.37,33.772A6.046,6.046,0,0,0,.858,41.066L0,44.2l3.2-.841a6.025,6.025,0,0,0,2.888.735h0A6.005,6.005,0,0,0,10.37,33.772ZM6.1,43.072a5.014,5.014,0,0,1-2.559-.7l-.182-.109-1.9.5.506-1.854-.12-.191a5.033,5.033,0,1,1,9.335-2.671A5.079,5.079,0,0,1,6.1,43.072ZM8.85,39.31c-.15-.076-.893-.441-1.032-.49s-.24-.076-.34.076-.389.49-.479.593-.177.114-.327.038a4.111,4.111,0,0,1-2.055-1.8c-.155-.267.155-.248.444-.825a.28.28,0,0,0-.014-.264c-.038-.076-.34-.819-.466-1.122s-.248-.253-.34-.259-.188-.005-.289-.005a.559.559,0,0,0-.4.188,1.7,1.7,0,0,0-.528,1.26,2.958,2.958,0,0,0,.615,1.563,6.748,6.748,0,0,0,2.581,2.281,2.955,2.955,0,0,0,1.813.378,1.547,1.547,0,0,0,1.018-.719,1.263,1.263,0,0,0,.087-.719C9.1,39.421,9,39.383,8.85,39.31Z" transform="translate(245.071 2845.629)"/></g></svg>