<svg id="Formas" xmlns="http://www.w3.org/2000/svg" viewBox="0 0 238.63 341"><defs><style>.cls-1{fill:#4ec3e0;}.cls-2{fill:#64ccc9;}.cls-3{fill:#74aad2;}.cls-4{fill:#00aec7;}.cls-5{fill:#00b2a0;}.cls-6{fill:#00a3e0;}.cls-7{fill:#002b52;}</style></defs><polygon class="cls-1" points="0 69.23 119.31 0 119.31 139.94 0 69.23"/><polygon class="cls-2" points="0 210.64 61.87 247.46 119.31 247.46 119.31 139.94 0 210.64"/><polygon class="cls-3" points="0 69.23 119.31 139.94 0 210.64 0 69.23"/><polygon class="cls-4" points="238.63 69.23 119.31 0 119.31 139.94 238.63 69.23"/><polygon class="cls-5" points="238.63 210.64 176.76 247.46 119.31 247.46 119.31 139.94 238.63 210.64"/><polygon class="cls-6" points="238.63 69.23 119.31 139.94 238.63 210.64 238.63 69.23"/><rect class="cls-4" x="61.87" y="247.46" width="57.45" height="66.29"/><rect class="cls-1" x="119.31" y="247.46" width="57.45" height="66.29"/><polygon class="cls-7" points="61.87 313.75 89.83 341 119.31 341 148.79 341 176.76 313.75 61.87 313.75"/></svg>