<svg id="Component_41_1" data-name="Component 41 – 1" xmlns="http://www.w3.org/2000/svg" width="233.277" height="194.901" viewBox="0 0 233.277 194.901">
  <g id="Group_7727" data-name="Group 7727" transform="translate(-32.483 -37.259)">
    <g id="Group_7712" data-name="Group 7712">
      <g id="Group_7681" data-name="Group 7681">
        <g id="Group_7680" data-name="Group 7680">
          <path id="Path_4460" data-name="Path 4460" d="M86.847,133.3c-.84-.414-1.728-1.138-1.618-2.062.122-1.037,1.372-1.5,2.422-1.63a17.4,17.4,0,0,1,15.3,6.11l.042.336a24.309,24.309,0,0,1,14.561-6.924c1.211-.127,2.677-.044,3.295.991a2.277,2.277,0,0,1-.229,2.428,5.723,5.723,0,0,1-2.022,1.574,24.43,24.43,0,0,1-15.812,2.467l.127-.456,0-.013C97.709,134.462,91.733,135.749,86.847,133.3Z" fill="#d8e081"/>
        </g>
      </g>
      <g id="Group_7683" data-name="Group 7683">
        <g id="Group_7682" data-name="Group 7682">
          <path id="Path_4461" data-name="Path 4461" d="M84.383,149.505a2.859,2.859,0,0,1-1.579-1.091,2.122,2.122,0,0,1,.543-2.487,4.977,4.977,0,0,1,2.479-1.091,16.688,16.688,0,0,1,15.749,5.443l.206.565a26.366,26.366,0,0,1,14.36-10.412c1.225-.366,2.8-.511,3.534.531a2.145,2.145,0,0,1,.034,2.178,5.459,5.459,0,0,1-1.52,1.683,27.98,27.98,0,0,1-16.512,6.233l.035-.075q-6.123-.357-12.233-.7A19.043,19.043,0,0,1,84.383,149.505Z" fill="#d8e081"/>
        </g>
      </g>
      <g id="Group_7685" data-name="Group 7685">
        <g id="Group_7684" data-name="Group 7684">
          <path id="Path_4462" data-name="Path 4462" d="M101.516,179.673a39.461,39.461,0,0,1-17.289,2.819c-1.1-.063-2.446-.342-2.835-1.376-.429-1.138.6-2.278,1.629-2.915a14.45,14.45,0,0,1,9.516-1.578,43.525,43.525,0,0,1,9.423,2.824Z" fill="#d8e081"/>
        </g>
      </g>
      <g id="Group_7687" data-name="Group 7687">
        <g id="Group_7686" data-name="Group 7686">
          <path id="Path_4463" data-name="Path 4463" d="M92.455,104.331c.224-1.252,1.73-1.781,3-1.835a12.2,12.2,0,0,1,7.77,2.748,20.917,20.917,0,0,1,5.239,6.47l0,.028c2.85-2.13,5.866-4.225,9.377-4.753a5.071,5.071,0,0,1,2.859.25,2.41,2.41,0,0,1,1.481,2.278,3.208,3.208,0,0,1-2.042,2.274c-3.444,1.661-7.478,1.309-11.3.92l-.638-.408a48.16,48.16,0,0,1-13.551-5.028C93.507,106.633,92.226,105.621,92.455,104.331Z" fill="#d8e081"/>
        </g>
      </g>
      <g id="Group_7689" data-name="Group 7689">
        <g id="Group_7688" data-name="Group 7688">
          <path id="Path_4464" data-name="Path 4464" d="M97.167,93.632A2.5,2.5,0,0,1,98.6,91.827a4.764,4.764,0,0,1,2.337-.4,11.783,11.783,0,0,1,6.607,2.657,28.171,28.171,0,0,1,4.895,5.282l-.641-.057A71.179,71.179,0,0,1,100.624,97.1a6.9,6.9,0,0,1-2.4-1.145A2.643,2.643,0,0,1,97.167,93.632Z" fill="#d8e081"/>
        </g>
      </g>
      <g id="Group_7691" data-name="Group 7691">
        <g id="Group_7690" data-name="Group 7690">
          <path id="Path_4465" data-name="Path 4465" d="M85.4,165.5a7.106,7.106,0,0,1-3.619-.643,2.446,2.446,0,0,1-1.137-3.136,3.3,3.3,0,0,1,2.3-1.245,20.434,20.434,0,0,1,17.642,5.068Q92.991,165.52,85.4,165.5Z" fill="#d8e081"/>
        </g>
      </g>
      <g id="Group_7693" data-name="Group 7693">
        <g id="Group_7692" data-name="Group 7692">
          <path id="Path_4466" data-name="Path 4466" d="M112.161,99.449l.409.109a20.44,20.44,0,0,1,12.91-4.916,5.334,5.334,0,0,1,2.306.358,2.136,2.136,0,0,1,1.332,1.77c.046,1.249-1.271,2.079-2.443,2.514A21.553,21.553,0,0,1,112.161,99.449Z" fill="#d8e081"/>
        </g>
      </g>
      <g id="Group_7695" data-name="Group 7695">
        <g id="Group_7694" data-name="Group 7694">
          <path id="Path_4467" data-name="Path 4467" d="M119.878,82.9a25.551,25.551,0,0,1,11.905-17.388,5.975,5.975,0,0,1,2.126-.9,2.471,2.471,0,0,1,2.155.611c.978,1.021.5,2.694-.172,3.932-3.359,6.14-9.764,9.918-15.869,13.393Z" fill="#d8e081"/>
        </g>
      </g>
      <g id="Group_7697" data-name="Group 7697">
        <g id="Group_7696" data-name="Group 7696">
          <path id="Path_4468" data-name="Path 4468" d="M105.067,125.548c-.033-.046-.066-.095-.1-.135l.114.026-.04-.038c3.318-4.467,8.492-7.87,14.086-7.838,1.288.007,2.83.379,3.247,1.6.456,1.325-.753,2.622-1.923,3.393a20.43,20.43,0,0,1-15.178,3.042l-.093-.086Z" fill="#d8e081"/>
        </g>
      </g>
      <g id="Group_7699" data-name="Group 7699">
        <g id="Group_7698" data-name="Group 7698">
          <path id="Path_4469" data-name="Path 4469" d="M116.757,90.5l-.426-.3a35.928,35.928,0,0,1,6.859-4.15,16.254,16.254,0,0,1,7.832-1.411,4.985,4.985,0,0,1,2.326.671,2.344,2.344,0,0,1,1.18,2c-.049,1.363-1.5,2.185-2.8,2.631A25.838,25.838,0,0,1,116.757,90.5Z" fill="#d8e081"/>
        </g>
      </g>
      <g id="Group_7701" data-name="Group 7701">
        <g id="Group_7700" data-name="Group 7700">
          <path id="Path_4470" data-name="Path 4470" d="M89.353,117.393a2.687,2.687,0,0,1,2.106-1.055,11.331,11.331,0,0,1,8.081,2.572,24.4,24.4,0,0,1,5.432,6.5,72.2,72.2,0,0,1-13.212-4.222,5.854,5.854,0,0,1-2.1-1.43A2.137,2.137,0,0,1,89.353,117.393Z" fill="#d8e081"/>
        </g>
      </g>
      <g id="Group_7703" data-name="Group 7703">
        <g id="Group_7702" data-name="Group 7702">
          <path id="Path_4471" data-name="Path 4471" d="M100.7,165.638c-.036-.029-.069-.065-.113-.1a.925.925,0,0,0,.158,0l.053-.1a28.171,28.171,0,0,1,12.047-14.406c1-.588,2.259-1.113,3.3-.594,1.16.584,1.39,2.168,1.047,3.407-.638,2.315-2.616,4-4.555,5.41a61.089,61.089,0,0,1-11.621,6.588l0,.012.073.171c-.049-.057-.1-.1-.149-.151-.155.078-.305.148-.466.213Z" fill="#d8e081"/>
        </g>
      </g>
      <g id="Group_7705" data-name="Group 7705">
        <g id="Group_7704" data-name="Group 7704">
          <path id="Path_4472" data-name="Path 4472" d="M101.971,179.368c.116-.055.231-.1.349-.162-.075.269-.151.55-.218.822Z" fill="#d8e081"/>
        </g>
      </g>
      <g id="Group_7707" data-name="Group 7707">
        <g id="Group_7706" data-name="Group 7706">
          <path id="Path_4473" data-name="Path 4473" d="M116.2,161.6a5.942,5.942,0,0,1,2.419-.537,2.6,2.6,0,0,1,2.128,1.124,3.04,3.04,0,0,1,.136,2.443,12.054,12.054,0,0,1-3.87,5.183,56.711,56.711,0,0,1-14.691,9.4,31.388,31.388,0,0,1,4.626-10.124A21.1,21.1,0,0,1,116.2,161.6Z" fill="#d8e081"/>
        </g>
      </g>
      <g id="Group_7709" data-name="Group 7709">
        <g id="Group_7708" data-name="Group 7708">
          <path id="Path_4474" data-name="Path 4474" d="M124.212,179.555a2.538,2.538,0,0,1,.161,2.008,6.2,6.2,0,0,1-1,1.808A30.667,30.667,0,0,1,114.6,191.2a81.843,81.843,0,0,1-10.257,5.172l.393.287a43.726,43.726,0,0,1-16.118.927,6.1,6.1,0,0,1-2.553-.753,2.2,2.2,0,0,1-1.045-2.281,3.034,3.034,0,0,1,2.082-1.733,17.07,17.07,0,0,1,16.977,3.35l.009-.079a25.737,25.737,0,0,1,11.319-15.735,11.363,11.363,0,0,1,6.049-2.039A3.165,3.165,0,0,1,124.212,179.555Z" fill="#d8e081"/>
        </g>
      </g>
      <g id="Group_7711" data-name="Group 7711">
        <g id="Group_7710" data-name="Group 7710">
          <path id="Path_4475" data-name="Path 4475" d="M108.032,203.808A154.16,154.16,0,0,1,123.156,83.76c1.305-2.242-2.4-3.885-3.694-1.664a158.072,158.072,0,0,0-15.2,123.174C104.977,207.762,108.745,206.289,108.032,203.808Z" fill="#d8e081"/>
        </g>
      </g>
    </g>
    <g id="Group_7720" data-name="Group 7720">
      <g id="Group_7714" data-name="Group 7714">
        <g id="Group_7713" data-name="Group 7713">
          <path id="Path_4476" data-name="Path 4476" d="M107.326,206.567c.312-.1.631-.187.944-.285-.072.295-.158.577-.257.859Z" fill="#00a3a1"/>
        </g>
      </g>
      <g id="Group_7717" data-name="Group 7717" opacity="0.4">
        <g id="Group_7716" data-name="Group 7716">
          <g id="Group_7715" data-name="Group 7715">
            <path id="Path_4477" data-name="Path 4477" d="M108.27,206.282c1.651-6.054.2-13.042-1.829-19.695-2.14-6.966-4.928-13.974-5.506-20.919-.132-1.566-.065-3.3,1.16-4.172,1.5-1.072,4.146-.247,5.764,1.27a14.581,14.581,0,0,1,3.232,5.43,48.235,48.235,0,0,1,5.8-25.885q3.227,4.459,6.454,8.928a43.411,43.411,0,0,1,8.107-20.1c1.3-1.744,3.326-3.539,5.839-2.717,2.784.915,3.784,4.184,4.208,6.778,5.756-9.434,15.573-16.276,27.321-19.061,3.112-.738,7.179-.919,9.644,1.666,2.5,2.613,1.6,6.178.412,8.9a112.581,112.581,0,0,1-13.151,22.735c2.462-.4,5.057-.782,7.66-.01s5.213,3.1,5.181,5.468c-.027,2.14-2.041,3.422-3.892,4.414q-10.656,5.774-21.98,10.606c3.193.611,7.276,2.037,7.827,4.97.465,2.474-2.091,3.928-4.361,4.821q-9.384,3.725-19.146,6.806c2.253-.253,4.765,1.849,5.31,4.03a5.289,5.289,0,0,1-2.12,5.455,17.746,17.746,0,0,1-5.845,2.537Q121.321,202.407,108.27,206.282Z" fill="#00abc4"/>
          </g>
        </g>
      </g>
      <g id="Group_7719" data-name="Group 7719">
        <g id="Group_7718" data-name="Group 7718">
          <path id="Path_4478" data-name="Path 4478" d="M162.726,126.125a282.138,282.138,0,0,0-25.8,31.433,76.869,76.869,0,0,1,.409-13c.15-1.288-1.863-1.256-2.016.014a77.122,77.122,0,0,0-.252,15.588l.005,0Q127.579,171,121.109,182.5q-.719-9.949-1.437-19.907c-.087-1.283-2.106-1.28-2.011.015q.8,11.116,1.6,22.229a.936.936,0,0,0,.241.566c-2.486,4.542-4.891,9.132-7.124,13.808-.56,1.165,1.186,2.176,1.741,1.006,2.355-4.932,4.9-9.752,7.533-14.521a1.114,1.114,0,0,0,.225-.04q7.6-3.222,15.2-6.434c1.176-.5.643-2.444-.547-1.936q-6.67,2.814-13.335,5.642c4.37-7.711,9.066-15.239,14.134-22.5a1.061,1.061,0,0,0,.443,0,107,107,0,0,0,19.539-5.986c1.181-.488.649-2.43-.549-1.931a107.785,107.785,0,0,1-17.746,5.568,281.42,281.42,0,0,1,25.141-30.548C165.053,126.6,163.619,125.188,162.726,126.125Z" fill="#00aeb4"/>
        </g>
      </g>
    </g>
    <g id="Group_7726" data-name="Group 7726">
      <g id="Group_7723" data-name="Group 7723" opacity="0.4">
        <g id="Group_7722" data-name="Group 7722">
          <g id="Group_7721" data-name="Group 7721">
            <path id="Path_4479" data-name="Path 4479" d="M106.177,164.037c1.125,2.936-.1,5.8-1.321,8.454Q98.539,186.158,91.1,199.268l.478.427q-13-.891-26.019-1.794a13.907,13.907,0,0,1-5.386-1.088c-2.7-1.339-4.633-5.008-.475-7.865a9.374,9.374,0,0,1,2.466-1.173l11.783-3.828c1.329-.43,2.909-1.161,2.659-2.732a2.354,2.354,0,0,0-1.389-1.733A30.3,30.3,0,0,0,57.5,177.206a13.889,13.889,0,0,1-5.141.4c-2.288-.481-4.452-3-2.194-5.409a5.212,5.212,0,0,1,1.745-1.188,56.813,56.813,0,0,1,13.08-3.908c2.338-.4,5.407-1.442,4.872-3.983a3.091,3.091,0,0,0-2.178-2.286,40.976,40.976,0,0,0-15.894-1.441,10.61,10.61,0,0,1-3.976-.007c-1.77-.5-3.366-2.426-1.784-4.4a4.249,4.249,0,0,1,2.4-1.408L61.085,150.8c1.5-.333,3.285-.914,3.293-2.687a2.772,2.772,0,0,0-2.051-2.619A48.034,48.034,0,0,0,44.9,143.848c-1.851.16-3.814.419-5.411-.783a2.607,2.607,0,0,1-1.065-2.587c.323-1.437,1.758-1.872,3.027-2.181l13.524-3.308a.924.924,0,0,0,.16-1.744,35.873,35.873,0,0,0-16.182-2.888,11.089,11.089,0,0,1-4.127-.2c-1.848-.616-3.414-2.8-1.41-4.739a4.332,4.332,0,0,1,1.906-1.046,74.8,74.8,0,0,1,12.714-2.425q-4.151-4.575-8.3-9.165c-2.032-2.232-4.219-5-3.049-8.025a5.356,5.356,0,0,1,5.032-3.231c3.692-.03,6.506,2.676,8.271,5.707.983,1.683,1.774,3.559,3.59,4.516a3.039,3.039,0,0,0,2.879.063c1.519-.86,1.473-2.683,1.617-4.263.129-1.385.776-3.023,2.152-3.176a2.557,2.557,0,0,1,1.968.819c1.958,1.891,1.893,5.034,1.329,7.69-.677,3.254-1.893,6.66.05,9.763a3.786,3.786,0,0,0,4.973,1.51c1.778-.981,1.908-3.138,2.417-4.967.522-1.81,2.22-3.781,4.051-2.677a2.885,2.885,0,0,1,1.117,1.473c1.54,4.23.03,8.738-1.01,13.048a19.367,19.367,0,0,0-.467,8.334,2.063,2.063,0,0,0,3.749.649L83.613,132c.579-.9,1.273-1.871,2.525-1.705a2.14,2.14,0,0,1,1.559,1.154c.75,1.432.282,2.955-.17,4.376q-2.594,8.1-5.2,16.188c-.6,1.876-1.139,4.129.446,5.539a3.587,3.587,0,0,0,4.461.032c2.836-2.023,3.106-5.494,4.713-8.246.967-1.657,3.209-3.147,4.669-1.419a2.768,2.768,0,0,1,.412,2.739,93.322,93.322,0,0,1-7.274,15.182c-1.141,1.911-2.394,3.936-1.858,6.239A3.011,3.011,0,0,0,91,174.55c1.518-.153,2.418-1.6,3.138-2.906q1.682-3.053,3.362-6.119c1.147-2.08,2.673-4.437,5.235-4.226A4.165,4.165,0,0,1,106.177,164.037Z" fill="#00abc4"/>
          </g>
        </g>
      </g>
      <g id="Group_7725" data-name="Group 7725">
        <g id="Group_7724" data-name="Group 7724">
          <path id="Path_4480" data-name="Path 4480" d="M89.645,197.73A160.64,160.64,0,0,0,41.4,102.3c-.933-.886-2.456.426-1.517,1.323a158.937,158.937,0,0,1,47.789,94.5C87.843,199.416,89.814,199.014,89.645,197.73Z" fill="#00aeb4"/>
        </g>
      </g>
    </g>
  </g>
  <g id="Group_7728" data-name="Group 7728" transform="translate(-32.483 -37.259)" opacity="0.4">
    <path id="Path_4481" data-name="Path 4481" d="M199.733,209.555c.531-.222,1.061-.45,1.586-.679.274-.119.545-.238.817-.358.519-.23,1.038-.461,1.557-.7.283-.127.565-.257.847-.387q.753-.347,1.5-.7c.3-.144.609-.293.912-.438.475-.228.947-.456,1.418-.69.34-.167.676-.336,1.014-.5.433-.219.87-.436,1.3-.661.389-.2.777-.4,1.164-.606s.762-.4,1.14-.6c.473-.251.944-.509,1.415-.765l.889-.482q1.15-.636,2.29-1.288c13.566-7.761,26.307-17.474,35.444-30.163s14.413-28.617,12.24-44.1c-1.542-10.975-8.655-22.6-19.328-24.257a18.462,18.462,0,0,0-1.881-.185,56.828,56.828,0,0,0-7.872.65c-.553.056-1.107.1-1.664.13-.162.011-.324.015-.486.024-.4.018-.787.036-1.182.048-.191,0-.382.006-.576.008-.366,0-.732.006-1.1,0-.2,0-.4,0-.592-.007-.367-.01-.733-.021-1.1-.036q-.288-.01-.573-.025c-.383-.021-.764-.045-1.148-.072-.171-.013-.341-.022-.511-.035q-.646-.054-1.292-.118c-.12-.012-.241-.021-.364-.035q-1.69-.179-3.38-.435c-.074-.01-.148-.024-.222-.035-.479-.075-.959-.151-1.438-.235-.146-.022-.292-.051-.439-.076-.409-.069-.818-.143-1.228-.219l-.5-.1c-.393-.075-.785-.151-1.178-.232-.168-.032-.337-.065-.505-.1q-.6-.122-1.2-.25c-.155-.032-.309-.065-.464-.1-.429-.09-.86-.188-1.288-.28-.121-.028-.241-.056-.361-.081-.538-.121-1.074-.243-1.612-.369h-.014c-.032-.009-.055-.013-.079-.019a40.3,40.3,0,0,0,1.709-10.691c.014-14.073-10.671-25.732-21.6-34.588-13.3-10.772-29.974-20.166-46.745-16.744-8.479,1.739-15.993,6.608-22.7,12.09q-2.008,1.64-3.95,3.361a59.089,59.089,0,0,0-6.055-.15c-.142,0-.285,0-.428.009q-.546.02-1.089.049c-.228.012-.455.023-.683.039-.316.02-.634.042-.949.067-.284.024-.566.049-.85.075s-.547.05-.821.081q-.531.058-1.064.125c-.207.028-.415.048-.623.079q-1.735.236-3.454.575l-.361.076c-.455.092-.908.188-1.359.291-.159.037-.317.074-.475.113-.415.1-.828.2-1.239.307-.171.045-.341.089-.511.136-.406.108-.809.224-1.213.341-.164.048-.33.1-.494.147-.424.127-.846.262-1.266.4-.14.045-.277.088-.415.135-.555.188-1.108.378-1.658.584C75.115,63.662,60.942,79.612,54.423,97.987s-5.771,38.876.056,57.473a94.987,94.987,0,0,0,15.394,30.017c16.6,21.3,43.391,33.429,70.343,35.092.974.06,1.947.1,2.921.138.324.013.647.019.971.028.663.016,1.327.03,1.989.035.355,0,.711.006,1.064.006.764,0,1.527-.006,2.29-.02.2,0,.391,0,.587-.011q1.562-.037,3.119-.114a79.175,79.175,0,0,0,19.333,1.116c7.6-.508,15.47-2.221,21.326-7.094a25.9,25.9,0,0,0,4.109-4.342c.33-.134.658-.275.987-.412C199.188,209.784,199.461,209.673,199.733,209.555Z" fill="#d8e081"/>
  </g>
  <g id="Group_7729" data-name="Group 7729" transform="translate(-32.483 -37.259)">
    <path id="Path_4482" data-name="Path 4482" d="M259.924,219.473c0,7.007-47.637,12.687-106.4,12.687s-106.4-5.68-106.4-12.687,47.637-12.689,106.4-12.689S259.924,212.466,259.924,219.473Z" fill="#c8e7eb"/>
  </g>
  <path id="Path_4483" data-name="Path 4483" d="M172.892,157.563l-124.38-.657,9.75,49.959a11.193,11.193,0,0,0,10.986,9.049H153.1a11.193,11.193,0,0,0,11.018-9.225Z" transform="translate(-32.483 -37.259)" fill="#b1d4fc" opacity="0.74"/>
  <path id="Path_4484" data-name="Path 4484" d="M158.53,199.193a3.562,3.562,0,0,1,.887,4.59,4.43,4.43,0,1,1-4.379,7.7c-.223,1.805-2.356,2.854-4.155,2.581a10.3,10.3,0,0,1-4.715-2.61,4.433,4.433,0,0,1-5.486,1.607c-1-.476-1.93-1.361-3.02-1.187a6.325,6.325,0,0,0-1.958,1.076,3.659,3.659,0,0,1-3.8-.174,1.968,1.968,0,0,0-1.15-.55c-.518.033-.844.546-1.156.96a5.166,5.166,0,0,1-8.2-.55,3.675,3.675,0,0,1-6.988-1.066,4.366,4.366,0,0,1-7.871.971,6.666,6.666,0,0,1-9.773.265,7.537,7.537,0,0,1-5.342,2.8c-2.07.012-4.209-1.572-4.269-3.641a8.576,8.576,0,0,1-4.9,2.6c-1.881.135-3.968-1.244-3.932-3.128a3.574,3.574,0,0,1-4.706,1.169,14.743,14.743,0,0,0-1.633-1.1c-1.053-.455-2.3-.1-3.394-.438a2.77,2.77,0,0,1,.2-5.348,14.578,14.578,0,0,1-4.038-4.533c-.881-1.838-.841-4.284.647-5.679a2.963,2.963,0,0,1-2.659-4.909,2.808,2.808,0,0,1-2.358-2.636,8.2,8.2,0,0,1,.815-3.729c-2.057.417-4.543-.131-5.518-1.99s.9-4.705,2.85-3.928a8.739,8.739,0,0,1-1.943-3.146,2.991,2.991,0,0,1,1.031-3.318,4.577,4.577,0,0,1-3.916-3.432,3.446,3.446,0,0,1,2.841-4.026c1.848-.142,3.529,2.053,2.689,3.705,1.655.141,3.085-1.065,4.641-1.651s3.93.048,3.821,1.707a10.344,10.344,0,0,1,4.424-.792,3.535,3.535,0,0,1,3.212,2.719,4.016,4.016,0,0,1,1.7-4.387,9.328,9.328,0,0,1,4.8-1.379,29.612,29.612,0,0,1,8.48.637,13.348,13.348,0,0,1,7.2,3.685c1.827,2.046,2.522,5.287,1.02,7.581a6.165,6.165,0,0,1,8.956.715,5.953,5.953,0,0,1,8.4,2.515c1.115-.139,1.2-1.679,1.4-2.785a4.382,4.382,0,0,1,8.176-1.254,6.539,6.539,0,0,1,6.635,1.274,4.615,4.615,0,0,1,1.794-5.366c1.784-.994,4.514.141,4.671,2.178a3.776,3.776,0,0,1,5.5,2.751,5.839,5.839,0,0,1,9.871-1.792c-1.333-1.88-.81-4.621.672-6.385a12.252,12.252,0,0,1,5.893-3.418,4.812,4.812,0,0,1,1.986-.306,3.043,3.043,0,0,1,2.468,3.1,4.228,4.228,0,0,1-2.332,3.441,7.359,7.359,0,0,1,1.973,3.862,3.143,3.143,0,0,1-2.113,3.425,2.782,2.782,0,0,1,1.02,3,8.14,8.14,0,0,1-1.62,2.94l-2.326,3.108c2.029.647,3.857,2.506,3.682,4.629s-3.148,3.641-4.618,2.1C158.667,195.7,158.64,197.451,158.53,199.193Z" transform="translate(-32.483 -37.259)" fill="#fff3e1"/>
  <path id="Path_4485" data-name="Path 4485" d="M163.005,178.67a2.282,2.282,0,0,1-1.649.269,4.8,4.8,0,0,1-5.36,5.467,8.357,8.357,0,0,1,.249,9.434,7.093,7.093,0,0,1-8.912,2.218,4.088,4.088,0,0,1-6.737,3.612c-1.975,2.2-4.808,3.9-7.747,3.592s-5.612-3.276-4.818-6.121c-.468,1.813-3.435,1.63-4.427.042s-.62-3.638-.213-5.466c-1.049,2.435-5.061,2.728-6.453.471-.756,2.886-5.192,3.859-7.086,1.556a3.77,3.77,0,0,1-6.172-.375c-1.166.15-1.6,1.652-1.442,2.819s.621,2.379.191,3.474a3.711,3.711,0,0,1-1.623,1.691A9.856,9.856,0,0,1,88.514,199.3a5.386,5.386,0,0,1-8.6-5.137,5.389,5.389,0,0,1-7.125-1.456c-1.422-2.28-.08-5.876,2.565-6.333a6.377,6.377,0,0,1-7.46-2c-1.941-.1-4-.238-5.584-1.361s-2.365-3.612-1.052-5.045a9.2,9.2,0,0,1-2.758.322.07.07,0,0,0,.014.016c-.044-.017-.084-.009-.127-.022-.281-.012-.561-.019-.839-.053a2.947,2.947,0,0,0-1.884,4c.975,1.86,3.461,2.408,5.518,1.991a8.2,8.2,0,0,0-.815,3.728,2.811,2.811,0,0,0,2.358,2.636,2.963,2.963,0,0,0,2.659,4.909c-1.488,1.394-1.528,3.84-.647,5.68a14.6,14.6,0,0,0,4.038,4.533,2.769,2.769,0,0,0-.2,5.347c1.1.338,2.341-.017,3.394.438a14.88,14.88,0,0,1,1.633,1.1,3.572,3.572,0,0,0,4.706-1.169c-.036,1.884,2.051,3.262,3.932,3.129a8.566,8.566,0,0,0,4.9-2.6c.06,2.071,2.2,3.653,4.269,3.642a7.539,7.539,0,0,0,5.342-2.806,6.665,6.665,0,0,0,9.773-.265,4.367,4.367,0,0,0,7.871-.969,3.675,3.675,0,0,0,6.988,1.065,5.167,5.167,0,0,0,8.2.551c.312-.414.638-.927,1.156-.961a1.975,1.975,0,0,1,1.15.551,3.652,3.652,0,0,0,3.8.172,6.325,6.325,0,0,1,1.958-1.076c1.09-.173,2.024.712,3.02,1.189a4.436,4.436,0,0,0,5.486-1.607,10.347,10.347,0,0,0,4.715,2.611c1.8.271,3.932-.778,4.155-2.582a4.43,4.43,0,1,0,4.379-7.7,3.559,3.559,0,0,0-.887-4.589c.11-1.742.137-3.491.079-5.237,1.47,1.541,4.441.024,4.618-2.1s-1.653-3.985-3.682-4.629l2.326-3.11a8.127,8.127,0,0,0,1.62-2.939A3.033,3.033,0,0,0,163.005,178.67Z" transform="translate(-32.483 -37.259)" fill="#fff3e1" style="mix-blend-mode: multiply;isolation: isolate"/>
  <path id="Path_4486" data-name="Path 4486" d="M139.875,180.369a2.208,2.208,0,0,0-1.833.549c-.668.857.224,2.059,1.126,2.665s2.026,1.366,1.872,2.442c-.163,1.139-1.623,1.524-2.772,1.457-.868-.049-2.012-.746-1.552-1.484a2.85,2.85,0,0,1-5.229-1.783,2.773,2.773,0,0,1-4.833-1.7,4.213,4.213,0,0,1-6.682.334,2.8,2.8,0,0,1-3.125,1.485c-.929-.235-1.96-.939-2.73-.367a1.534,1.534,0,0,0-.109,2.023,2.833,2.833,0,0,0,4.355.207,2.289,2.289,0,0,0,2.063,2.33,3.854,3.854,0,0,0,3.082-1.275,3.45,3.45,0,0,0,4.756,2.285,2.781,2.781,0,0,0,.021,3.1,5.458,5.458,0,0,0,2.586,1.967c2.258.943,5.38.812,6.557-1.333a3.92,3.92,0,0,0,6.625-2.791A4.522,4.522,0,0,0,150.6,184.5a3.592,3.592,0,0,0,2.928-4.029,6.121,6.121,0,0,0,3.714-1.576c.9-1.038.7-3.048-.636-3.376a2.317,2.317,0,0,0-1.432.2,4.738,4.738,0,0,0-2.64,2.984,3.048,3.048,0,0,0-4.163-.514,4.1,4.1,0,0,0-1.353,4.2,4.981,4.981,0,0,0-5.706-4.049C140.344,178.543,139.3,179.57,139.875,180.369Z" transform="translate(-32.483 -37.259)" fill="#fff" opacity="0.65"/>
  <path id="Path_4487" data-name="Path 4487" d="M98.637,184.064a4.3,4.3,0,0,1,5.093,4.094,6.482,6.482,0,0,0-6.928.516,4.437,4.437,0,0,0-7.343-3.641,8.209,8.209,0,0,0-13.792-6.571,6.7,6.7,0,0,1,3.66-7.909,8.527,8.527,0,0,1,8.908,1.584,11.852,11.852,0,0,1,3.724,8.521,4.447,4.447,0,0,1,6.678,3.406Z" transform="translate(-32.483 -37.259)" fill="#fff" opacity="0.65"/>
  <path id="Path_4488" data-name="Path 4488" d="M51.234,164.551l34.46,1.267s40.144,15.74,40.8,15.959c.465.156,31.743-9.943,44.633-13.592l2.42-13.554-124.38-.657Z" transform="translate(-32.483 -37.259)" fill="#00b0c4" opacity="0.2"/>
  <path id="Path_4489" data-name="Path 4489" d="M152.984,143.414H69.735l-28.3,13.162v4.936H181.282v-4.936Z" transform="translate(-32.483 -37.259)" fill="#d8e081"/>
  <path id="Path_4490" data-name="Path 4490" d="M41.438,156.535v4.936H181.282v-4.936l-.355-.165H41.791Z" transform="translate(-32.483 -37.259)" fill="#b9d36a" style="mix-blend-mode: multiply;isolation: isolate"/>
  <path id="Path_4491" data-name="Path 4491" d="M70.065,153.45,76.151,150H97.046s3.62-4.443,12.505-4.443,10.857,4.278,10.857,4.278H144.1l4.442,3.619S70.065,152.957,70.065,153.45Z" transform="translate(-32.483 -37.259)" fill="#fff"/>
  <path id="Path_4492" data-name="Path 4492" d="M114.322,150.16H102.393a.66.66,0,0,1-.658-.658h0a.66.66,0,0,1,.658-.658h11.929a.66.66,0,0,1,.657.658h0A.66.66,0,0,1,114.322,150.16Z" transform="translate(-32.483 -37.259)" fill="#db6252"/>
  <path id="Path_4493" data-name="Path 4493" d="M164.119,206.689l1.674-9.375c-1.6,3.227-3.079,6.678-5.6,9.075-4.274,4.064-10.767,4.414-16.665,4.511q-14.848.245-29.7.32c-12.9.067-25.973.019-38.45-3.265-5.237-1.377-10.5-3.429-14.3-7.291a40.107,40.107,0,0,1-5.595-8.033l2.778,14.234a11.193,11.193,0,0,0,10.986,9.049H153.1A11.193,11.193,0,0,0,164.119,206.689Z" transform="translate(-32.483 -37.259)" fill="#00b0c4" opacity="0.2"/>
  <path id="Path_4494" data-name="Path 4494" d="M227.215,54.6H181.148l-17.11,29.2,10.2,124.379h66.509l3.577-124.379Z" transform="translate(-32.483 -37.259)" fill="#f9f3ed"/>
  <path id="Path_4495" data-name="Path 4495" d="M164.038,83.807H244.53l-1.919,58.076-23.91-28.3-25.172,29.781H168.81Z" transform="translate(-32.483 -37.259)" fill="#c8e7eb"/>
  <g id="Group_7731" data-name="Group 7731" transform="translate(-32.483 -37.259)">
    <g id="Group_7730" data-name="Group 7730">
      <path id="Path_4496" data-name="Path 4496" d="M208.053,61.082c.919-2.274,5.515-2.56,10.264-.638s7.854,5.323,6.934,7.6c-.335.826-1.476,3.647-1.81,4.473-.921,2.275-5.517,2.56-10.265.638s-7.854-5.322-6.933-7.6C206.576,64.729,207.718,61.908,208.053,61.082Z" fill="#c8e7eb"/>
      <path id="Path_4497" data-name="Path 4497" d="M215.065,68.594C219.778,70.5,224.33,70.227,225.3,68c-.007.017,0,.038-.01.055-.335.826-1.475,3.648-1.81,4.475-.92,2.274-5.517,2.56-10.265.638s-7.854-5.322-6.934-7.6c.336-.826,1.476-3.648,1.811-4.474.007-.018.023-.03.031-.047C207.27,63.324,210.352,66.686,215.065,68.594Z" fill="#c8e7eb" opacity="0.53" style="mix-blend-mode: multiply;isolation: isolate"/>
      <path id="Path_4498" data-name="Path 4498" d="M217.571,61.975c-3.647-1.475-7.1-1.537-8.232-.254a1.55,1.55,0,0,1,.078-.5c.692-1.712,4.509-1.785,8.524-.16s6.708,4.33,6.015,6.042a1.55,1.55,0,0,1-.293.415C223.744,65.811,221.219,63.451,217.571,61.975Z" fill="#c8e7eb" opacity="0.53" style="mix-blend-mode: multiply;isolation: isolate"/>
    </g>
  </g>
  <path id="Path_4499" data-name="Path 4499" d="M228.3,60.456l.479-4.908H181.507l.726,4.908Z" transform="translate(-32.483 -37.259)" fill="#ddd4ce"/>
  <path id="Path_4500" data-name="Path 4500" d="M181.039,54.6l-17.111,29.2,10.2,124.379h20.113l-1-124.379Z" transform="translate(-32.483 -37.259)" fill="#d6cfc9" style="mix-blend-mode: multiply;isolation: isolate"/>
  <path id="Path_4501" data-name="Path 4501" d="M193.24,83.807,180.75,75.8l-16.822,8.008,17.111-29.2Z" transform="translate(-32.483 -37.259)" fill="#d6cfc9" opacity="0.57" style="mix-blend-mode: multiply;isolation: isolate"/>
  <path id="Path_4502" data-name="Path 4502" d="M181.039,54.6l-.289,21.2,12.49,8.008Z" transform="translate(-32.483 -37.259)" fill="#d6cfc9" opacity="0.57" style="mix-blend-mode: multiply;isolation: isolate"/>
  <g id="Group_7742" data-name="Group 7742" transform="translate(-32.483 -37.259)">
    <path id="Path_4503" data-name="Path 4503" d="M219.85,225.537s-4.042-6.838-12.228-6.838-9.717,6.611-9.717,6.611l-9.73-.1s-5.911-2.516-9.705-2.117-4.166,1.974-4.166,1.974l-4.22-4.569,17.97-9.784,22.762-1L221.6,217.9Z" fill="#e9ad3d"/>
    <path id="Path_4504" data-name="Path 4504" d="M228.188,162.593,195.842,155.8l-68.287,24.359,5.305,23.2a5.049,5.049,0,0,1,2.415-.635,5.191,5.191,0,1,1,0,10.382c-.068,0-.127-.031-.193-.033l2.656,11.613,36.566.377a7,7,0,0,1,13.871.143l9.73.1a7.911,7.911,0,0,1-.266-2.018c0-5.293,5.05-9.585,11.28-9.585S220.2,218,220.2,223.292a8.082,8.082,0,0,1-.351,2.245l14.726.151S248.952,184.956,228.188,162.593Z" fill="#e9ad3d"/>
    <path id="Path_4505" data-name="Path 4505" d="M195.642,155.8l-68.287,24.359.69,3.016a192.6,192.6,0,0,1,58.478-2.366c13.839,1.571,28.9,5.554,36.615,17.149,5.36,8.053,5.855,18.16,3.3,27.644l7.934.081s14.376-40.732-6.39-63.1Z" fill="#e9ad3d" style="mix-blend-mode: multiply;isolation: isolate"/>
    <path id="Path_4506" data-name="Path 4506" d="M234.576,225.688s14.376-40.732-6.388-63.1L195.842,155.8l-68.287,24.359.51,3.477,97.193-17.719S244.184,179,231.6,225.712Z" fill="#e9ad3d"/>
    <path id="Path_4507" data-name="Path 4507" d="M227.887,162.593,195.541,155.8l-68.285,24.359L228.082,162.82C228.014,162.746,227.957,162.667,227.887,162.593Z" fill="#e9ad3d" style="mix-blend-mode: multiply;isolation: isolate"/>
    <g id="Group_7732" data-name="Group 7732">
      <path id="Path_4508" data-name="Path 4508" d="M217.795,190.136c.324,3.512,2.822,6.155,5.58,5.9s4.728-3.31,4.4-6.825-2.822-6.155-5.579-5.9S217.47,186.621,217.795,190.136Z" fill="#e9ad3d" style="mix-blend-mode: multiply;isolation: isolate"/>
      <path id="Path_4509" data-name="Path 4509" d="M217.94,188.567a4.663,4.663,0,0,1,3.6-2.659c2.758-.254,5.256,2.389,5.581,5.9a8.037,8.037,0,0,1-.04,1.676,7.451,7.451,0,0,0,.8-4.165c-.325-3.513-2.823-6.156-5.58-5.9C220,183.633,218.264,185.81,217.94,188.567Z" fill="#e9ad3d" style="mix-blend-mode: multiply;isolation: isolate"/>
    </g>
    <g id="Group_7733" data-name="Group 7733">
      <path id="Path_4510" data-name="Path 4510" d="M177.182,199.986c.514,5.549,4.459,9.721,8.811,9.319s7.466-5.227,6.953-10.776-4.459-9.721-8.811-9.317S176.67,194.438,177.182,199.986Z" fill="#e9ad3d" style="mix-blend-mode: multiply;isolation: isolate"/>
      <path id="Path_4511" data-name="Path 4511" d="M177.411,197.512a7.362,7.362,0,0,1,5.689-4.2c4.352-.4,8.3,3.768,8.81,9.318a12.5,12.5,0,0,1-.062,2.646,11.737,11.737,0,0,0,1.263-6.578c-.512-5.547-4.458-9.72-8.809-9.316C180.664,189.719,177.925,193.156,177.411,197.512Z" fill="#e9ad3d" style="mix-blend-mode: multiply;isolation: isolate"/>
    </g>
    <g id="Group_7734" data-name="Group 7734">
      <path id="Path_4512" data-name="Path 4512" d="M138.619,189.514c.247,2.681,2.154,4.7,4.258,4.5s3.609-2.525,3.359-5.209-2.153-4.7-4.257-4.5S138.371,186.832,138.619,189.514Z" fill="#e9ad3d" style="mix-blend-mode: multiply;isolation: isolate"/>
      <path id="Path_4513" data-name="Path 4513" d="M138.729,188.317a3.556,3.556,0,0,1,2.749-2.03c2.1-.194,4.01,1.822,4.258,4.506a5.9,5.9,0,0,1-.03,1.278,5.663,5.663,0,0,0,.612-3.179c-.249-2.683-2.154-4.7-4.259-4.5C140.3,184.551,138.977,186.213,138.729,188.317Z" fill="#e9ad3d" style="mix-blend-mode: multiply;isolation: isolate"/>
    </g>
    <g id="Group_7735" data-name="Group 7735">
      <path id="Path_4514" data-name="Path 4514" d="M221.945,212.542c.248,2.682,2.156,4.7,4.259,4.5s3.609-2.526,3.361-5.209-2.155-4.7-4.258-4.5S221.7,209.859,221.945,212.542Z" fill="#e9ad3d" style="mix-blend-mode: multiply;isolation: isolate"/>
      <path id="Path_4515" data-name="Path 4515" d="M222.056,211.346a3.558,3.558,0,0,1,2.75-2.03c2.1-.193,4.01,1.821,4.258,4.5a6.05,6.05,0,0,1-.03,1.28,5.678,5.678,0,0,0,.611-3.181c-.248-2.681-2.155-4.7-4.258-4.5C223.629,207.578,222.3,209.241,222.056,211.346Z" fill="#e9ad3d" style="mix-blend-mode: multiply;isolation: isolate"/>
    </g>
    <g id="Group_7736" data-name="Group 7736">
      <path id="Path_4516" data-name="Path 4516" d="M147.213,201.811c.334,3.615,2.9,6.332,5.739,6.07s4.864-3.4,4.529-7.019-2.9-6.333-5.739-6.069S146.879,198.2,147.213,201.811Z" fill="#e9ad3d" style="mix-blend-mode: multiply;isolation: isolate"/>
      <path id="Path_4517" data-name="Path 4517" d="M147.361,200.2a4.8,4.8,0,0,1,3.706-2.734c2.835-.264,5.406,2.455,5.74,6.068a8.165,8.165,0,0,1-.04,1.725,7.667,7.667,0,0,0,.823-4.285c-.334-3.615-2.9-6.331-5.739-6.069C149.48,195.123,147.7,197.363,147.361,200.2Z" fill="#e9ad3d" style="mix-blend-mode: multiply;isolation: isolate"/>
    </g>
    <g id="Group_7737" data-name="Group 7737">
      <path id="Path_4518" data-name="Path 4518" d="M153.785,212.442a1.472,1.472,0,1,0,1.256-1.947A1.663,1.663,0,0,0,153.785,212.442Z" fill="#e9ad3d" style="mix-blend-mode: multiply;isolation: isolate"/>
      <path id="Path_4519" data-name="Path 4519" d="M153.826,212a1.331,1.331,0,0,1,1.028-.76,1.663,1.663,0,0,1,1.592,1.684,2.232,2.232,0,0,1-.012.478,2.116,2.116,0,0,0,.228-1.189,1.659,1.659,0,0,0-1.591-1.682A1.535,1.535,0,0,0,153.826,212Z" fill="#e9ad3d" style="mix-blend-mode: multiply;isolation: isolate"/>
    </g>
    <g id="Group_7738" data-name="Group 7738">
      <path id="Path_4520" data-name="Path 4520" d="M191.422,218.632a1.473,1.473,0,1,0,1.256-1.948A1.661,1.661,0,0,0,191.422,218.632Z" fill="#e9ad3d" style="mix-blend-mode: multiply;isolation: isolate"/>
      <path id="Path_4521" data-name="Path 4521" d="M191.464,218.184a1.329,1.329,0,0,1,1.028-.758,1.663,1.663,0,0,1,1.591,1.683,2.239,2.239,0,0,1-.012.479,2.125,2.125,0,0,0,.23-1.19,1.661,1.661,0,0,0-1.593-1.681A1.534,1.534,0,0,0,191.464,218.184Z" fill="#e9ad3d" style="mix-blend-mode: multiply;isolation: isolate"/>
    </g>
    <g id="Group_7739" data-name="Group 7739">
      <path id="Path_4522" data-name="Path 4522" d="M139.216,219.523c.153,1.659,1.333,2.906,2.634,2.785s2.231-1.562,2.078-3.22-1.332-2.906-2.633-2.785S139.063,217.865,139.216,219.523Z" fill="#e9ad3d" style="mix-blend-mode: multiply;isolation: isolate"/>
      <path id="Path_4523" data-name="Path 4523" d="M139.284,218.783a2.2,2.2,0,0,1,1.7-1.256c1.3-.119,2.48,1.127,2.634,2.787a3.766,3.766,0,0,1-.019.79,3.493,3.493,0,0,0,.377-1.965c-.153-1.659-1.332-2.907-2.632-2.786A2.539,2.539,0,0,0,139.284,218.783Z" fill="#e9ad3d" style="mix-blend-mode: multiply;isolation: isolate"/>
    </g>
    <g id="Group_7740" data-name="Group 7740">
      <path id="Path_4524" data-name="Path 4524" d="M170.261,190.138c.206,2.231,1.794,3.911,3.545,3.748s3.005-2.1,2.8-4.335-1.793-3.912-3.545-3.75S170.055,187.9,170.261,190.138Z" fill="#e9ad3d" style="mix-blend-mode: multiply;isolation: isolate"/>
      <path id="Path_4525" data-name="Path 4525" d="M170.354,189.141a2.962,2.962,0,0,1,2.289-1.69c1.751-.161,3.337,1.518,3.545,3.75a5.1,5.1,0,0,1-.025,1.066,4.732,4.732,0,0,0,.508-2.648c-.206-2.232-1.793-3.912-3.545-3.749A3.419,3.419,0,0,0,170.354,189.141Z" fill="#e9ad3d" style="mix-blend-mode: multiply;isolation: isolate"/>
    </g>
    <g id="Group_7741" data-name="Group 7741">
      <path id="Path_4526" data-name="Path 4526" d="M214.188,207.041c.207,2.234,1.793,3.912,3.545,3.751s3.005-2.1,2.8-4.337-1.8-3.912-3.546-3.748S213.98,204.809,214.188,207.041Z" fill="#e9ad3d" style="mix-blend-mode: multiply;isolation: isolate"/>
      <path id="Path_4527" data-name="Path 4527" d="M214.279,206.046a2.958,2.958,0,0,1,2.289-1.689c1.752-.164,3.339,1.516,3.545,3.748a5.1,5.1,0,0,1-.023,1.066,4.729,4.729,0,0,0,.508-2.647c-.206-2.233-1.793-3.911-3.545-3.75A3.422,3.422,0,0,0,214.279,206.046Z" fill="#e9ad3d" style="mix-blend-mode: multiply;isolation: isolate"/>
    </g>
    <path id="Path_4528" data-name="Path 4528" d="M207.323,181.425a3.061,3.061,0,1,0,2.763-3.368A3.078,3.078,0,0,0,207.323,181.425Z" fill="#e9ad3d" style="mix-blend-mode: multiply;isolation: isolate"/>
    <path id="Path_4529" data-name="Path 4529" d="M190.071,179.957a2.2,2.2,0,1,0,1.985-2.42A2.213,2.213,0,0,0,190.071,179.957Z" fill="#e9ad3d" style="mix-blend-mode: multiply;isolation: isolate"/>
    <path id="Path_4530" data-name="Path 4530" d="M175.7,209.108a2.2,2.2,0,1,0,1.985-2.419A2.214,2.214,0,0,0,175.7,209.108Z" fill="#e9ad3d" style="mix-blend-mode: multiply;isolation: isolate"/>
  </g>
</svg>
