<?xml version="1.0" encoding="utf-8"?>
<!-- Generator: Adobe Illustrator 24.2.1, SVG Export Plug-In . SVG Version: 6.00 Build 0)  -->
<svg version="1.1" id="Capa_1" xmlns="http://www.w3.org/2000/svg" xmlns:xlink="http://www.w3.org/1999/xlink" x="0px" y="0px"
	 viewBox="0 0 131.6 45.7" style="enable-background:new 0 0 131.6 45.7;" xml:space="preserve">
<style type="text/css">
	.st0{fill:#4EC3E0;}
	.st1{fill:#0033A0;}
</style>
<g transform="translate(52.5 18.214)">
	<g transform="translate(-52.5 -18.214)">
		<g transform="translate(94.586)">
			<path class="st0" d="M19.3,37.1c0.1-0.1,0-0.1-0.1-0.2c-2.5,1-8,2-11.5,2.5c-2.3,0.3-4.6,0.5-7,0.6l-0.6,0.1
				c-0.1,0-0.1,0-0.1,0.1c0,0.1,0,0.1,0.1,0.1c0.8,0.7,1.7,1.2,2.8,1.3c1.7,0.3,4.8-0.2,8.4-1.3C14,39.6,16.7,38.5,19.3,37.1z"/>
			<path class="st0" d="M19.6,38.6c-2,1.3-4.1,2.3-6.4,3.1c-2.8,1-5.6,1.7-8.6,2.2c-0.1,0-0.1,0.1-0.1,0.1c0,0,0,0.1,0,0.1
				c0.6,0.4,1.3,0.7,2,0.7c1.2,0.1,2.4,0,3.6-0.4c1.3-0.4,2.5-0.9,3.7-1.5c1.2-0.6,2.4-1.3,3.5-2c0.9-0.6,1.7-1.3,2.3-2.1
				C19.6,38.6,19.6,38.6,19.6,38.6z"/>
			<path class="st0" d="M6.6,10.3C7.3,11,8.1,11.5,9,11.8h0.1l21.6,5.7l4.2,1.2c0.1,0,0.1,0,0.1-0.1c0,0,0-0.1-0.1-0.1
				c-2.8-1.1-20.2-7.8-26.7-10.3l-2.8-1c-0.1,0-0.1,0-0.2,0c0,0,0,0.1,0,0.1c0.1,0.8,0.3,1.6,0.7,2.3C6.2,9.9,6.4,10.1,6.6,10.3z"/>
			<path class="st0" d="M7.3,3.7c0.3,0.4,0.8,0.8,1.3,1.1l0.6,0.4l1.5,0.8c0.9,0.4,13.9,6.5,15.8,7.5L32,16c0.1,0,0.1,0,0.1-0.1
				c-2.4-1.5-11.7-7.4-18.4-11.5L9,1.6L8.1,1L6.5,0C6.5,0,6.4,0,6.4,0c0,0-0.1,0-0.1,0.1c0,0.8,0.1,1.6,0.3,2.4
				C6.8,2.9,7,3.3,7.3,3.7L7.3,3.7z"/>
			<path class="st0" d="M19,41.5L19,41.5c-1.9,1.7-4.1,2.9-6.5,3.6c-0.1,0-0.1,0.1-0.1,0.1c0,0.1,0,0.1,0.1,0.1
				c0.2,0.1,1.4,0.8,3.9-0.4c1.3-0.7,2.2-1.9,2.7-3.3C19.1,41.6,19.1,41.5,19,41.5z"/>
			<path class="st0" d="M34.5,23.7L25.7,26L19,27.8c-0.4,0.1-0.2,0.3-0.2,0.3l0.5,0.9c0.4,0.7,1.3,1,2,0.6c0,0,0,0,0,0
				c0.1-0.1,12.7-5.3,13.3-5.7C34.7,23.8,34.6,23.7,34.5,23.7C34.6,23.7,34.6,23.7,34.5,23.7z"/>
			<path class="st0" d="M29,32.4L29,32.4c-1.7,1.4-4.3,3.6-6.9,5.8c-0.3,0.3-0.4,0.6-0.4,1c-0.2,0.6-0.3,1.2-0.6,1.7
				c-0.1,0.2,0,0.3,0.3,0.1C23.4,38.9,27.9,33.9,29,32.4C29.1,32.5,29,32.4,29,32.4z"/>
			<path class="st0" d="M37,20.3L7.5,15.1l-0.1,0.1c0,0.1,0,0.1,0,0.2c0.5,1.6,1.7,2.9,3.3,3.4l0.6,0.1l25.6,1.7
				C37,20.5,37,20.5,37,20.3C37,20.4,37,20.3,37,20.3z"/>
			<path class="st0" d="M35.8,21.9H23.2l-9.6,0.1L13.5,22c0,0,0,0.1,0,0.1c0.2,0.5,0.5,0.9,0.8,1.3c0.6,0.7,1.5,1.1,2.4,1.3h0.6
				l18.6-2.5C35.9,22.1,35.9,22,35.8,21.9C35.9,21.9,35.9,21.9,35.8,21.9z"/>
			<path class="st0" d="M33.1,26.1l-7,4.3c-1.5,0.9-3.4,2-4.4,2.6c-0.1,0.1-0.2,0.1-0.1,0.4c0,0.2,0.1,0.4,0.1,0.6
				c0.1,1.5,0.7,1.3,1.6,0.6l0.1-0.1c3-2.5,8.6-7.2,9.9-8.2C33.2,26.2,33.2,26.2,33.1,26.1C33.1,26.1,33.1,26.1,33.1,26.1z"/>
		</g>
		<g transform="translate(0 10.341)">
			<path class="st1" d="M77,0c-6,0-11.7,4.4-11.9,13.1C64.9,21,69,26.4,75.9,26.4c5.7,0,7.7-4,7.7-4c0.3,2.7,1.8,3.5,4.6,3.5V0H77z
				 M83.3,15.3c0,3.6-2,7-6.5,7c-4,0-6.9-2.7-6.7-9.1s3.2-8.9,7.1-8.9h6.1V15.3z"/>
			<path class="st1" d="M38.6,0v18c0,2.6-2.2,4-5,4s-5-1.3-5-4V4.5c0-3.8-2.4-4.5-4.5-4.5v19.1c0,4.8,4.3,7.2,9.4,7.2
				s9.7-2.4,9.7-7.2v-14C43.2,1.3,41.8,0,38.6,0z"/>
			<path class="st1" d="M13.3,11.6l-5.5-1.5C6.3,9.7,4.9,9,4.9,7.2s1.2-2.9,3.6-2.9h4.9c2.2,0,4.8-0.7,4.8-4.3H9C3.3,0,0,2.9,0,7
				s2.4,6,6.8,7.2l4.8,1.3c2,0.5,2.7,1.8,2.7,3.1c0,2-1.2,3.1-4.2,3.1l-9.3,0.1V26h9.5c5.7,0,9-3.1,9-7.1S17.6,12.8,13.3,11.6z"/>
			<path class="st1" d="M58.8,0c-5.6,0-9.5,3.3-9.5,9.9v16h4.5V9.8c0-3.4,1.9-5.5,5.4-5.5h1.3c4,0,4.6-2,4.6-4.3L58.8,0z"/>
		</g>
	</g>
</g>
</svg>
