<svg xmlns="http://www.w3.org/2000/svg" width="131.612" height="45.66" viewBox="0 0 131.612 45.66"><defs><style>.a{fill:#4ec3e0;}.b{fill:#fff;}</style></defs><g transform="translate(52.5 18.214)"><g transform="translate(-52.5 -18.214)"><g transform="translate(94.586)"><path class="a" d="M356.575,131.868c.056-.084,0-.14-.056-.168-2.524,1.01-8.049,2.019-11.5,2.524a69.655,69.655,0,0,1-6.955.617l-.645.056a.14.14,0,0,0-.14.112c-.028.056.028.084.056.112a5.4,5.4,0,0,0,2.776,1.318c1.683.252,4.767-.224,8.357-1.262A37.334,37.334,0,0,0,356.575,131.868Z" transform="translate(-337.273 -94.773)"/><path class="a" d="M368.426,137.6a27.315,27.315,0,0,1-6.366,3.057,51.351,51.351,0,0,1-8.553,2.216.168.168,0,0,0-.112.112.14.14,0,0,0,.028.112,3.729,3.729,0,0,0,1.963.729,10.012,10.012,0,0,0,3.562-.393,21.426,21.426,0,0,0,3.73-1.514,24.148,24.148,0,0,0,3.477-2.047,10.938,10.938,0,0,0,2.328-2.131C368.51,137.656,368.482,137.628,368.426,137.6Z" transform="translate(-348.871 -99.018)"/><path class="a" d="M357.528,28.741A5.609,5.609,0,0,0,360,30.227h.084l21.594,5.721,4.207,1.15c.084,0,.112-.028.112-.084a.112.112,0,0,0-.056-.084c-2.8-1.122-20.164-7.8-26.7-10.292L356.49,25.6c-.084,0-.14,0-.168.028a.14.14,0,0,0-.028.112,5.865,5.865,0,0,0,.729,2.328A4.262,4.262,0,0,0,357.528,28.741Z" transform="translate(-350.958 -18.428)"/><path class="a" d="M360.761,3.72a4.319,4.319,0,0,0,1.262,1.066l.645.365,1.542.785c.869.449,13.882,6.506,15.789,7.46l5.469,2.664c.084.028.14,0,.112-.112-2.412-1.514-11.723-7.376-18.369-11.47l-4.768-2.889-.869-.533L360,.046q-.126-.042-.168,0a.084.084,0,0,0-.056.084,6.337,6.337,0,0,0,.337,2.384,5.69,5.69,0,0,0,.645,1.206Z" transform="translate(-353.461 -0.025)"/><path class="a" d="M388.19,148h-.084a17.33,17.33,0,0,1-6.394,3.646.14.14,0,0,0-.112.112.168.168,0,0,0,.084.14c.168.084,1.43.757,3.87-.449a5.8,5.8,0,0,0,2.692-3.309C388.3,148.056,388.247,148,388.19,148Z" transform="translate(-369.169 -106.502)"/><path class="a" d="M419.833,84.5l-8.862,2.3-6.7,1.767c-.365.084-.224.252-.2.308l.533.869a1.481,1.481,0,0,0,2.019.589c.14-.056,12.7-5.3,13.265-5.665.084-.056.028-.112.028-.14S419.861,84.5,419.833,84.5Z" transform="translate(-385.303 -60.81)"/><path class="a" d="M420.337,115.6h-.084c-1.655,1.374-4.207,3.59-6.815,5.833a1.784,1.784,0,0,0-.449,1.01,14.4,14.4,0,0,1-.561,1.711c-.084.224.028.308.252.084,2.019-2.187,6.506-7.123,7.712-8.553C420.421,115.656,420.365,115.6,420.337,115.6Z" transform="translate(-391.331 -83.188)"/><path class="a" d="M393.154,59.116,363.707,53.9l-.14.056a.281.281,0,0,0,0,.168A5.048,5.048,0,0,0,366.9,57.49l.589.112,25.6,1.683c.056,0,.112-.028.112-.084A.084.084,0,0,0,393.154,59.116Z" transform="translate(-356.184 -38.791)"/><path class="a" d="M407.6,78H394.948l-9.591.056-.112.056a.084.084,0,0,0,0,.112,4.264,4.264,0,0,0,.785,1.262,3.842,3.842,0,0,0,2.384,1.262h.617L407.6,78.2a.1.1,0,0,0,0-.2Z" transform="translate(-371.776 -56.133)"/><path class="a" d="M425.608,93.2l-7.039,4.263c-1.514.925-3.393,1.963-4.375,2.58-.112.084-.2.056-.14.365a4.018,4.018,0,0,1,.084.645c.112,1.458.7,1.29,1.57.617l.112-.084c3.029-2.5,8.638-7.207,9.872-8.245A.1.1,0,0,0,425.608,93.2Z" transform="translate(-392.509 -67.07)"/></g><g transform="translate(0 10.341)"><path class="b" d="M244,36.9c-6.029,0-11.694,4.431-11.919,13.1-.224,7.852,3.87,13.349,10.8,13.349,5.693,0,7.684-3.954,7.684-3.954.337,2.664,1.767,3.477,4.627,3.477V36.9Zm6.282,15.284c0,3.59-2.047,7.011-6.534,7.011-4.01,0-6.871-2.692-6.675-9.142s3.169-8.946,7.123-8.946h6.086Z" transform="translate(-166.987 -36.9)"/><path class="b" d="M100.527,36.9V54.876c0,2.636-2.159,3.954-5.02,3.954s-4.992-1.318-4.992-3.954V41.415C90.515,37.573,88.1,36.9,86,36.9V56c0,4.824,4.347,7.179,9.395,7.179s9.731-2.356,9.731-7.179V42.032C105.1,38.246,103.668,36.9,100.527,36.9Z" transform="translate(-61.882 -36.9)"/><path class="b" d="M13.349,48.538,7.824,47C6.31,46.575,4.908,45.9,4.908,44.051s1.178-2.889,3.646-2.889h4.908c2.187,0,4.768-.729,4.768-4.263H8.974C3.281,36.928,0,39.817,0,43.939s2.44,6,6.787,7.179l4.824,1.29C13.6,52.941,14.3,54.2,14.3,55.465c0,1.963-1.234,3.113-4.235,3.141L.813,58.69v4.179h9.451c5.693,0,8.974-3.057,8.974-7.1S17.64,49.688,13.349,48.538Z" transform="translate(0 -36.9)"/><path class="b" d="M185.279,36.9c-5.609,0-9.479,3.253-9.479,9.928V62.841h4.515V46.687c0-3.449,1.851-5.5,5.356-5.5h1.346c3.954,0,4.6-2.047,4.6-4.263Z" transform="translate(-126.498 -36.9)"/></g></g></g></svg>