<svg xmlns="http://www.w3.org/2000/svg" xmlns:xlink="http://www.w3.org/1999/xlink" viewBox="0 0 192 144"><defs><style>.cls-1{fill:none;}.cls-2{isolation:isolate;}.cls-3{clip-path:url(#clip-path);}.cls-4{fill:#749bb2;}.cls-5{fill:#e27f4d;}.cls-6{fill:#e89870;}.cls-7{fill:#edf0f2;opacity:0.5;mix-blend-mode:overlay;}.cls-8{fill:#1a2833;}.cls-9{fill:#fff;}</style><clipPath id="clip-path"><rect class="cls-1" x="-0.4" y="0.14" width="191.99" height="144"/></clipPath></defs><g class="cls-2"><g id="Capa_1" data-name="Capa 1"><g class="cls-3"><path class="cls-4" d="M48.28,190.87l2.36-17.23q1.14.41,2.37.72l1.15,16.51h82.76l1.15-16.51c.82-.21,1.61-.45,2.38-.72l2.35,17.23h19.39L161.92,166c-.34-30-7.9-46.44-17.78-55.82-10.29-11-28.2-14.75-48.6-14.75s-38.31,3.74-48.6,14.75C37.06,119.58,29.5,136,29.16,166l-.27,24.85Z"/><path class="cls-5" d="M95.54,118.18h0a15.06,15.06,0,0,0,15.06-15.06V74.9H80.48v28.22A15.06,15.06,0,0,0,95.54,118.18Z"/><path class="cls-6" d="M71.75,44.47v25c0,13.32,10.9,30.27,24.21,30,12.91-.25,23.3-16.59,23.3-29.55V44.47A23.75,23.75,0,0,0,95.51,20.72h0A23.75,23.75,0,0,0,71.75,44.47Z"/><rect class="cls-7" x="6.1" y="10.08" width="44.78" height="7.76" rx="3.88"/><path class="cls-1" d="M95.51,20.72Z"/><path class="cls-8" d="M71.65,59.33a1.83,1.83,0,0,0,1.83-1.83V47.23a16.58,16.58,0,0,1,3.86-11.16,7.76,7.76,0,0,1,11.37-.53,9.5,9.5,0,0,0,13.67,0,7.74,7.74,0,0,1,11.36.53,16.54,16.54,0,0,1,3.87,11.16V57.5a1.83,1.83,0,0,0,1.83,1.83h.06a1.83,1.83,0,0,0,1.83-1.83V43.06A25.82,25.82,0,0,0,95.51,17.24h0A25.83,25.83,0,0,0,69.68,43.06V57.5a1.84,1.84,0,0,0,1.84,1.83Z"/><path class="cls-6" d="M123.54,62.29c0-5.39-3.07-9.77-6.86-9.77s-6.87,4.38-6.87,9.77,3.07,9.78,6.87,9.78,6.86-4.38,6.86-9.78"/><path class="cls-6" d="M81.2,62.29c0-5.39-3.07-9.77-6.86-9.77s-6.87,4.38-6.87,9.77,3.08,9.78,6.87,9.78,6.86-4.38,6.86-9.78"/><path class="cls-8" d="M110,78.39a8,8,0,0,1-9.62-.11h0a8,8,0,0,0-9.78,0,8,8,0,0,1-9.63.11l-11.31-9v.88c0,14.48,11.85,32.91,26.32,32.63,14-.26,25.33-18,25.33-32.12V69.38Z"/><path class="cls-9" d="M101.93,84.54a3.8,3.8,0,0,1-3.65,2.26H92.73a3.78,3.78,0,0,1-3.64-2.26Z"/></g></g></g></svg>