<svg id="Component_23_1" data-name="Component 23 – 1" xmlns="http://www.w3.org/2000/svg" width="219.628" height="224.665" viewBox="0 0 219.628 224.665">
  <path id="Path_2137" data-name="Path 2137" d="M46.631,2177.314c-9.44-15.386-12.546-49.573,10.995-81.046,7.544-10.086,18.446-17.317,15.7-32.981-4.338-24.757,20.913-45.5,53.063-35.3,18.987,6.025,24.657,22.838,45.1,16.089,16.548-5.464,38.917-9.91,53.776,4.111,10.654,10.052,11.251,20.722,8.487,38.057-1.767,11.08,6.538,18.126,12.151,24.48,11.855,13.419,17.679,36.64,9.48,62.362-10.71,33.6-51.728,48.847-90.581,49.062C114.267,2222.424,70.5,2216.215,46.631,2177.314Z" transform="translate(-39.579 -2024.285)" fill="#f7f7f7"/>
  <g id="Group_5793" data-name="Group 5793" transform="translate(-39.579 -2024.285)">
    <g id="Group_5778" data-name="Group 5778">
      <g id="Group_5747" data-name="Group 5747">
        <g id="Group_5746" data-name="Group 5746">
          <path id="Path_2138" data-name="Path 2138" d="M97.434,2206.381c.351-.145.731-.415.711-.792-.02-.424-.515-.645-.938-.728a7.082,7.082,0,0,0-6.375,2.062l-.026.137a9.882,9.882,0,0,0-5.718-3.207c-.489-.084-1.086-.09-1.365.312a.922.922,0,0,0,.026.991,2.348,2.348,0,0,0,.778.7,9.918,9.918,0,0,0,6.348,1.429l-.039-.187v0C92.994,2206.558,95.384,2207.242,97.434,2206.381Z" fill="#d8e081"/>
        </g>
      </g>
      <g id="Group_5749" data-name="Group 5749">
        <g id="Group_5748" data-name="Group 5748">
          <path id="Path_2139" data-name="Path 2139" d="M97.991,2213.023a1.152,1.152,0,0,0,.671-.4.864.864,0,0,0-.152-1.023,2.01,2.01,0,0,0-.977-.51A6.785,6.785,0,0,0,91,2212.87l-.1.223a10.729,10.729,0,0,0-5.542-4.615c-.489-.181-1.124-.284-1.449.119a.872.872,0,0,0-.074.883,2.247,2.247,0,0,0,.57.724,11.383,11.383,0,0,0,6.531,2.979l-.011-.032c1.662.014,3.325.034,4.981.049A7.643,7.643,0,0,0,97.991,2213.023Z" fill="#d8e081"/>
        </g>
      </g>
      <g id="Group_5751" data-name="Group 5751">
        <g id="Group_5750" data-name="Group 5750">
          <path id="Path_2140" data-name="Path 2140" d="M90.219,2224.8a16.06,16.06,0,0,0,6.937,1.614c.45,0,1-.072,1.188-.482.205-.45-.181-.94-.582-1.226a5.878,5.878,0,0,0-3.817-.9,17.743,17.743,0,0,0-3.9.889Z" fill="#d8e081"/>
        </g>
      </g>
      <g id="Group_5753" data-name="Group 5753">
        <g id="Group_5752" data-name="Group 5752">
          <path id="Path_2141" data-name="Path 2141" d="M95.946,2194.476c-.056-.514-.653-.771-1.166-.827a4.95,4.95,0,0,0-3.227.9,8.478,8.478,0,0,0-2.3,2.482v.012a8.812,8.812,0,0,0-3.675-2.184,2.071,2.071,0,0,0-1.168.024.983.983,0,0,0-.663.885,1.308,1.308,0,0,0,.768.978,8.551,8.551,0,0,0,4.556.68l.271-.149a19.557,19.557,0,0,0,5.635-1.67C95.458,2195.381,96,2195,95.946,2194.476Z" fill="#d8e081"/>
        </g>
      </g>
      <g id="Group_5755" data-name="Group 5755">
        <g id="Group_5754" data-name="Group 5754">
          <path id="Path_2142" data-name="Path 2142" d="M94.326,2190.006a1.017,1.017,0,0,0-.531-.771,1.931,1.931,0,0,0-.938-.224,4.784,4.784,0,0,0-2.752.9,11.459,11.459,0,0,0-2.131,2.01l.261-.006a28.81,28.81,0,0,0,4.6-.6,2.8,2.8,0,0,0,1.006-.4A1.076,1.076,0,0,0,94.326,2190.006Z" fill="#d8e081"/>
        </g>
      </g>
      <g id="Group_5757" data-name="Group 5757">
        <g id="Group_5756" data-name="Group 5756">
          <path id="Path_2143" data-name="Path 2143" d="M97.143,2219.485a2.89,2.89,0,0,0,1.486-.163.994.994,0,0,0,.546-1.241,1.342,1.342,0,0,0-.9-.568,8.307,8.307,0,0,0-7.295,1.576Z" fill="#d8e081"/>
        </g>
      </g>
      <g id="Group_5759" data-name="Group 5759">
        <g id="Group_5758" data-name="Group 5758">
          <path id="Path_2144" data-name="Path 2144" d="M88.084,2191.958l-.169.033a8.292,8.292,0,0,0-5.1-2.345,2.132,2.132,0,0,0-.946.082.871.871,0,0,0-.59.681c-.05.506.461.877.925,1.086A8.767,8.767,0,0,0,88.084,2191.958Z" fill="#d8e081"/>
        </g>
      </g>
      <g id="Group_5761" data-name="Group 5761">
        <g id="Group_5760" data-name="Group 5760">
          <path id="Path_2145" data-name="Path 2145" d="M85.4,2185.033a10.394,10.394,0,0,0-4.356-7.38,2.456,2.456,0,0,0-.84-.42,1.008,1.008,0,0,0-.891.189c-.423.388-.275,1.08-.035,1.6,1.195,2.583,3.691,4.29,6.074,5.866Z" fill="#d8e081"/>
        </g>
      </g>
      <g id="Group_5763" data-name="Group 5763">
        <g id="Group_5762" data-name="Group 5762">
          <path id="Path_2146" data-name="Path 2146" d="M90.252,2202.741a.607.607,0,0,1,.042-.052l-.048.007.018-.015a7.375,7.375,0,0,0-5.5-3.563c-.523-.033-1.158.076-1.363.562-.22.525.235,1.084.689,1.43a8.316,8.316,0,0,0,6.075,1.647l.041-.033Z" fill="#d8e081"/>
        </g>
      </g>
      <g id="Group_5765" data-name="Group 5765">
        <g id="Group_5764" data-name="Group 5764">
          <path id="Path_2147" data-name="Path 2147" d="M86.462,2188.2l.182-.112a14.669,14.669,0,0,0-2.669-1.87,6.621,6.621,0,0,0-3.141-.787,2.018,2.018,0,0,0-.962.209.956.956,0,0,0-.533.779c-.017.555.55.928,1.065,1.144A10.514,10.514,0,0,0,86.462,2188.2Z" fill="#d8e081"/>
        </g>
      </g>
      <g id="Group_5767" data-name="Group 5767">
        <g id="Group_5766" data-name="Group 5766">
          <path id="Path_2148" data-name="Path 2148" d="M96.85,2199.859a1.094,1.094,0,0,0-.827-.484,4.6,4.6,0,0,0-3.348.823,9.9,9.9,0,0,0-2.381,2.491,29.505,29.505,0,0,0,5.476-1.354,2.374,2.374,0,0,0,.887-.523A.87.87,0,0,0,96.85,2199.859Z" fill="#d8e081"/>
        </g>
      </g>
      <g id="Group_5769" data-name="Group 5769">
        <g id="Group_5768" data-name="Group 5768">
          <path id="Path_2149" data-name="Path 2149" d="M90.932,2219.126a.4.4,0,0,1,.048-.037.284.284,0,0,1-.064-.006l-.019-.043a11.446,11.446,0,0,0-4.5-6.173,1.468,1.468,0,0,0-1.322-.331,1.178,1.178,0,0,0-.518,1.354,4.421,4.421,0,0,0,1.7,2.319A24.915,24.915,0,0,0,90.8,2219.2v0l-.034.069c.021-.022.043-.038.064-.057.061.035.119.067.184.1Z" fill="#d8e081"/>
        </g>
      </g>
      <g id="Group_5771" data-name="Group 5771">
        <g id="Group_5770" data-name="Group 5770">
          <path id="Path_2150" data-name="Path 2150" d="M90.042,2224.661c-.045-.025-.091-.047-.138-.075.024.112.047.228.067.341Z" fill="#d8e081"/>
        </g>
      </g>
      <g id="Group_5773" data-name="Group 5773">
        <g id="Group_5772" data-name="Group 5772">
          <path id="Path_2151" data-name="Path 2151" d="M84.753,2217.064a2.392,2.392,0,0,0-.968-.284,1.049,1.049,0,0,0-.892.4,1.228,1.228,0,0,0-.121.988,4.883,4.883,0,0,0,1.428,2.208,23.044,23.044,0,0,0,5.7,4.213,12.748,12.748,0,0,0-1.6-4.233A8.573,8.573,0,0,0,84.753,2217.064Z" fill="#d8e081"/>
        </g>
      </g>
      <g id="Group_5775" data-name="Group 5775">
        <g id="Group_5774" data-name="Group 5774">
          <path id="Path_2152" data-name="Path 2152" d="M81.013,2224.132a1.031,1.031,0,0,0-.119.81,2.448,2.448,0,0,0,.354.761,12.437,12.437,0,0,0,3.346,3.415,33.275,33.275,0,0,0,4.02,2.378l-.166.107a17.8,17.8,0,0,0,6.514.814,2.467,2.467,0,0,0,1.056-.236.9.9,0,0,0,.486-.9c-.074-.373-.45-.6-.8-.76a6.945,6.945,0,0,0-6.979.9l0-.033a10.467,10.467,0,0,0-4.165-6.692,4.614,4.614,0,0,0-2.4-.992A1.286,1.286,0,0,0,81.013,2224.132Z" fill="#d8e081"/>
        </g>
      </g>
      <g id="Group_5777" data-name="Group 5777">
        <g id="Group_5776" data-name="Group 5776">
          <path id="Path_2153" data-name="Path 2153" d="M86.917,2234.413a62.686,62.686,0,0,0-2.866-49.12c-.469-.945,1.078-1.512,1.544-.575a64.279,64.279,0,0,1,2.812,50.39C88.049,2236.1,86.561,2235.4,86.917,2234.413Z" fill="#d8e081"/>
        </g>
      </g>
    </g>
    <g id="Group_5786" data-name="Group 5786">
      <g id="Group_5780" data-name="Group 5780">
        <g id="Group_5779" data-name="Group 5779">
          <path id="Path_2154" data-name="Path 2154" d="M87.129,2235.552l-.377-.141c.022.12.05.238.082.356Z" fill="#00a3a1"/>
        </g>
      </g>
      <g id="Group_5783" data-name="Group 5783" opacity="0.4">
        <g id="Group_5782" data-name="Group 5782">
          <g id="Group_5781" data-name="Group 5781">
            <path id="Path_2155" data-name="Path 2155" d="M86.752,2235.411c-.5-2.5.275-5.3,1.279-7.941,1.059-2.769,2.38-5.536,2.805-8.338a1.815,1.815,0,0,0-.357-1.725,2.067,2.067,0,0,0-2.374.359,5.917,5.917,0,0,0-1.458,2.116A19.631,19.631,0,0,0,85,2209.22l-2.861,3.447a17.654,17.654,0,0,0-2.743-8.377,2.2,2.2,0,0,0-2.295-1.261c-1.155.3-1.65,1.595-1.892,2.636a17.607,17.607,0,0,0-10.566-8.478c-1.242-.385-2.887-.569-3.958.414s-.818,2.463-.41,3.6a45.868,45.868,0,0,0,4.716,9.583,6.911,6.911,0,0,0-3.107-.213c-1.083.242-2.2,1.114-2.251,2.077-.047.87.734,1.444,1.46,1.9q4.164,2.631,8.628,4.9c-1.311.161-3.008.629-3.311,1.8-.256.991.741,1.65,1.638,2.075q3.707,1.766,7.585,3.283a2.255,2.255,0,0,0-2.266,1.49,2.152,2.152,0,0,0,.711,2.271,7.216,7.216,0,0,0,2.3,1.189Q81.563,2233.483,86.752,2235.411Z" fill="#00abc4"/>
          </g>
        </g>
      </g>
      <g id="Group_5785" data-name="Group 5785">
        <g id="Group_5784" data-name="Group 5784">
          <path id="Path_2156" data-name="Path 2156" d="M66.841,2201.4a114.56,114.56,0,0,1,9.612,13.456,31.3,31.3,0,0,0,.189-5.286c-.026-.525.79-.459.816.062a31.33,31.33,0,0,1-.321,6.33h0q2.745,4.6,5.056,9.446.563-4.019,1.125-8.038c.072-.519.889-.462.817.062q-.63,4.488-1.256,8.974a.39.39,0,0,1-.113.225c.884,1.91,1.735,3.837,2.513,5.8.2.488-.54.849-.734.36-.82-2.064-1.723-4.09-2.66-6.1a.322.322,0,0,1-.09-.023l-5.992-3.025c-.463-.234-.195-1.008.275-.77l5.256,2.652q-2.345-4.874-5.121-9.514a.419.419,0,0,1-.181-.011,43.658,43.658,0,0,1-7.764-2.96c-.466-.23-.2-1,.275-.77a43.649,43.649,0,0,0,7.05,2.743,114.444,114.444,0,0,0-9.37-13.078C65.884,2201.534,66.5,2201,66.841,2201.4Z" fill="#00aeb4"/>
        </g>
      </g>
    </g>
    <g id="Group_5792" data-name="Group 5792">
      <g id="Group_5789" data-name="Group 5789" opacity="0.4">
        <g id="Group_5788" data-name="Group 5788">
          <g id="Group_5787" data-name="Group 5787">
            <path id="Path_2157" data-name="Path 2157" d="M88.753,2218.327a4.394,4.394,0,0,0,.306,3.466q2.191,5.717,4.85,11.239l-.206.16q5.3-.007,10.608-.019a5.645,5.645,0,0,0,2.213-.294,1.737,1.737,0,0,0,.408-3.178,3.794,3.794,0,0,0-.97-.544l-4.677-1.874c-.526-.212-1.147-.55-1-1.18a.963.963,0,0,1,.613-.667,12.314,12.314,0,0,1,7.249-.44,5.659,5.659,0,0,0,2.075.3c.942-.133,1.888-1.094,1.038-2.135a2.143,2.143,0,0,0-.676-.529,23,23,0,0,0-5.2-1.942c-.937-.226-2.154-.732-1.868-1.749a1.261,1.261,0,0,1,.947-.868,16.7,16.7,0,0,1,6.487-.152,4.282,4.282,0,0,0,1.614.1c.731-.152,1.432-.892.843-1.738a1.725,1.725,0,0,0-.935-.637l-5.058-1.47c-.6-.176-1.307-.461-1.262-1.18a1.127,1.127,0,0,1,.9-1.008,19.563,19.563,0,0,1,7.114-.191,3.041,3.041,0,0,0,2.217-.17,1.061,1.061,0,0,0,.5-1.021c-.091-.592-.661-.807-1.168-.967l-5.4-1.71a.376.376,0,0,1-.017-.712,14.581,14.581,0,0,1,6.644-.731,4.487,4.487,0,0,0,1.681.03c.766-.2,1.461-1.043.7-1.884a1.771,1.771,0,0,0-.745-.476,30.425,30.425,0,0,0-5.093-1.331q1.809-1.742,3.618-3.491c.885-.852,1.848-1.914,1.456-3.174a2.179,2.179,0,0,0-1.954-1.447,4.055,4.055,0,0,0-3.51,2.09,4.172,4.172,0,0,1-1.58,1.734,1.236,1.236,0,0,1-1.171-.053c-.592-.39-.524-1.129-.539-1.773-.015-.566-.233-1.248-.786-1.348a1.043,1.043,0,0,0-.823.279,3.362,3.362,0,0,0-.748,3.084c.187,1.338.587,2.753-.286,3.96a1.54,1.54,0,0,1-2.059.478c-.695-.447-.688-1.326-.845-2.082s-.8-1.594-1.571-1.2a1.167,1.167,0,0,0-.493.566c-.741,1.675-.25,3.545.054,5.321a7.846,7.846,0,0,1-.037,3.4.839.839,0,0,1-1.539.161l-1.894-3.4c-.21-.378-.465-.794-.978-.759a.869.869,0,0,0-.663.424,2.255,2.255,0,0,0-.051,1.782q.833,3.357,1.668,6.709c.192.777.349,1.706-.332,2.235a1.459,1.459,0,0,1-1.811-.108c-1.094-.9-1.11-2.315-1.687-3.475-.347-.7-1.217-1.364-1.857-.7a1.131,1.131,0,0,0-.241,1.1,38.119,38.119,0,0,0,2.537,6.358,3.478,3.478,0,0,1,.585,2.582,1.224,1.224,0,0,1-1.325.918c-.611-.1-.937-.715-1.194-1.264q-.6-1.282-1.2-2.574c-.409-.875-.963-1.873-2.009-1.856A1.689,1.689,0,0,0,88.753,2218.327Z" fill="#00abc4"/>
          </g>
        </g>
      </g>
      <g id="Group_5791" data-name="Group 5791">
        <g id="Group_5790" data-name="Group 5790">
          <path id="Path_2158" data-name="Path 2158" d="M94.542,2232.448a65.327,65.327,0,0,1,22.173-37.406c.4-.334.985.24.58.578a64.631,64.631,0,0,0-21.964,37.043C95.229,2233.181,94.439,2232.964,94.542,2232.448Z" fill="#00aeb4"/>
        </g>
      </g>
    </g>
  </g>
  <path id="Path_2159" data-name="Path 2159" d="M77.229,2240.7c0,5.7,34.8,8.247,77.734,8.247S232.7,2246.4,232.7,2240.7s-34.4-11.7-77.333-11.7S77.229,2235.007,77.229,2240.7Z" transform="translate(-39.579 -2024.285)" fill="#eaeaea"/>
  <g id="Group_5841" data-name="Group 5841" transform="translate(-39.579 -2024.285)">
    <g id="Group_5826" data-name="Group 5826">
      <g id="Group_5795" data-name="Group 5795">
        <g id="Group_5794" data-name="Group 5794">
          <path id="Path_2160" data-name="Path 2160" d="M225.295,2208.144c.352-.145.731-.415.711-.792-.02-.424-.515-.645-.938-.728a7.081,7.081,0,0,0-6.375,2.062l-.026.136a9.894,9.894,0,0,0-5.718-3.207c-.489-.084-1.086-.09-1.365.313a.924.924,0,0,0,.026.991,2.326,2.326,0,0,0,.779.694,9.913,9.913,0,0,0,6.347,1.43l-.039-.188v0C220.855,2208.32,223.245,2209,225.295,2208.144Z" fill="#d8e081"/>
        </g>
      </g>
      <g id="Group_5797" data-name="Group 5797">
        <g id="Group_5796" data-name="Group 5796">
          <path id="Path_2161" data-name="Path 2161" d="M225.853,2214.786a1.156,1.156,0,0,0,.67-.4.864.864,0,0,0-.152-1.024,2.012,2.012,0,0,0-.976-.509,6.786,6.786,0,0,0-6.539,1.779l-.1.222a10.736,10.736,0,0,0-5.542-4.615c-.488-.18-1.123-.283-1.448.119a.87.87,0,0,0-.075.883,2.235,2.235,0,0,0,.571.725,11.376,11.376,0,0,0,6.53,2.978l-.011-.031q2.493.021,4.982.049A7.65,7.65,0,0,0,225.853,2214.786Z" fill="#d8e081"/>
        </g>
      </g>
      <g id="Group_5799" data-name="Group 5799">
        <g id="Group_5798" data-name="Group 5798">
          <path id="Path_2162" data-name="Path 2162" d="M218.08,2226.562a16.075,16.075,0,0,0,6.938,1.614c.45,0,1-.072,1.187-.483.205-.449-.181-.939-.582-1.225a5.875,5.875,0,0,0-3.816-.9,17.781,17.781,0,0,0-3.9.89Z" fill="#d8e081"/>
        </g>
      </g>
      <g id="Group_5801" data-name="Group 5801">
        <g id="Group_5800" data-name="Group 5800">
          <path id="Path_2163" data-name="Path 2163" d="M223.808,2196.238c-.057-.513-.654-.77-1.166-.826a4.959,4.959,0,0,0-3.228.9,8.51,8.51,0,0,0-2.3,2.483v.012a8.79,8.79,0,0,0-3.674-2.184,2.08,2.08,0,0,0-1.168.023.986.986,0,0,0-.664.885,1.307,1.307,0,0,0,.768.979,8.552,8.552,0,0,0,4.557.679l.27-.148a19.57,19.57,0,0,0,5.635-1.67C223.319,2197.144,223.866,2196.768,223.808,2196.238Z" fill="#d8e081"/>
        </g>
      </g>
      <g id="Group_5803" data-name="Group 5803">
        <g id="Group_5802" data-name="Group 5802">
          <path id="Path_2164" data-name="Path 2164" d="M222.188,2191.769a1.018,1.018,0,0,0-.532-.771,1.931,1.931,0,0,0-.937-.225,4.791,4.791,0,0,0-2.753.9,11.456,11.456,0,0,0-2.131,2.01l.262-.006a28.922,28.922,0,0,0,4.594-.6,2.8,2.8,0,0,0,1.006-.4A1.079,1.079,0,0,0,222.188,2191.769Z" fill="#d8e081"/>
        </g>
      </g>
      <g id="Group_5805" data-name="Group 5805">
        <g id="Group_5804" data-name="Group 5804">
          <path id="Path_2165" data-name="Path 2165" d="M225,2221.248a2.9,2.9,0,0,0,1.486-.163.994.994,0,0,0,.546-1.241,1.347,1.347,0,0,0-.9-.569,8.312,8.312,0,0,0-7.3,1.577Q221.925,2221.05,225,2221.248Z" fill="#d8e081"/>
        </g>
      </g>
      <g id="Group_5807" data-name="Group 5807">
        <g id="Group_5806" data-name="Group 5806">
          <path id="Path_2166" data-name="Path 2166" d="M215.945,2193.721l-.169.033a8.294,8.294,0,0,0-5.1-2.346,2.158,2.158,0,0,0-.946.082.871.871,0,0,0-.59.682c-.051.506.461.877.924,1.086A8.767,8.767,0,0,0,215.945,2193.721Z" fill="#d8e081"/>
        </g>
      </g>
      <g id="Group_5809" data-name="Group 5809">
        <g id="Group_5808" data-name="Group 5808">
          <path id="Path_2167" data-name="Path 2167" d="M213.265,2186.8a10.4,10.4,0,0,0-4.357-7.38,2.417,2.417,0,0,0-.84-.42,1,1,0,0,0-.89.189c-.424.387-.276,1.08-.035,1.6,1.194,2.582,3.69,4.289,6.073,5.865Z" fill="#d8e081"/>
        </g>
      </g>
      <g id="Group_5811" data-name="Group 5811">
        <g id="Group_5810" data-name="Group 5810">
          <path id="Path_2168" data-name="Path 2168" d="M218.113,2204.5c.014-.02.029-.037.042-.053l-.048.008.018-.016a7.373,7.373,0,0,0-5.5-3.562c-.522-.033-1.158.076-1.362.561-.221.526.234,1.084.688,1.431a8.317,8.317,0,0,0,6.075,1.647l.041-.034Z" fill="#d8e081"/>
        </g>
      </g>
      <g id="Group_5813" data-name="Group 5813">
        <g id="Group_5812" data-name="Group 5812">
          <path id="Path_2169" data-name="Path 2169" d="M214.323,2189.967l.182-.112a14.6,14.6,0,0,0-2.669-1.871,6.633,6.633,0,0,0-3.141-.787,2.044,2.044,0,0,0-.962.209.957.957,0,0,0-.533.78c-.016.554.55.927,1.066,1.144A10.52,10.52,0,0,0,214.323,2189.967Z" fill="#d8e081"/>
        </g>
      </g>
      <g id="Group_5815" data-name="Group 5815">
        <g id="Group_5814" data-name="Group 5814">
          <path id="Path_2170" data-name="Path 2170" d="M224.711,2201.622a1.089,1.089,0,0,0-.826-.484,4.6,4.6,0,0,0-3.349.823,9.9,9.9,0,0,0-2.381,2.49,29.464,29.464,0,0,0,5.476-1.353,2.371,2.371,0,0,0,.888-.524A.87.87,0,0,0,224.711,2201.622Z" fill="#d8e081"/>
        </g>
      </g>
      <g id="Group_5817" data-name="Group 5817">
        <g id="Group_5816" data-name="Group 5816">
          <path id="Path_2171" data-name="Path 2171" d="M218.793,2220.889a.381.381,0,0,1,.048-.037.271.271,0,0,1-.064-.006l-.019-.043a11.447,11.447,0,0,0-4.495-6.173,1.464,1.464,0,0,0-1.323-.331,1.176,1.176,0,0,0-.517,1.353,4.417,4.417,0,0,0,1.7,2.32,24.95,24.95,0,0,0,4.535,2.989v0l-.034.068c.022-.021.043-.037.064-.056.061.035.12.067.184.1Z" fill="#d8e081"/>
        </g>
      </g>
      <g id="Group_5819" data-name="Group 5819">
        <g id="Group_5818" data-name="Group 5818">
          <path id="Path_2172" data-name="Path 2172" d="M217.9,2226.424c-.045-.026-.09-.047-.137-.075.023.112.047.227.066.34Z" fill="#d8e081"/>
        </g>
      </g>
      <g id="Group_5821" data-name="Group 5821">
        <g id="Group_5820" data-name="Group 5820">
          <path id="Path_2173" data-name="Path 2173" d="M212.614,2218.826a2.4,2.4,0,0,0-.967-.283,1.051,1.051,0,0,0-.893.4,1.239,1.239,0,0,0-.121.989,4.883,4.883,0,0,0,1.428,2.208,23.062,23.062,0,0,0,5.705,4.213,12.746,12.746,0,0,0-1.6-4.234A8.569,8.569,0,0,0,212.614,2218.826Z" fill="#d8e081"/>
        </g>
      </g>
      <g id="Group_5823" data-name="Group 5823">
        <g id="Group_5822" data-name="Group 5822">
          <path id="Path_2174" data-name="Path 2174" d="M208.874,2225.9a1.031,1.031,0,0,0-.119.81,2.453,2.453,0,0,0,.354.761,12.471,12.471,0,0,0,3.346,3.415,33.362,33.362,0,0,0,4.021,2.378l-.166.106a17.787,17.787,0,0,0,6.513.815,2.461,2.461,0,0,0,1.056-.237.9.9,0,0,0,.486-.9c-.074-.373-.45-.606-.8-.76a6.942,6.942,0,0,0-6.979.9l0-.034a10.466,10.466,0,0,0-4.164-6.691,4.612,4.612,0,0,0-2.4-.992A1.285,1.285,0,0,0,208.874,2225.9Z" fill="#d8e081"/>
        </g>
      </g>
      <g id="Group_5825" data-name="Group 5825">
        <g id="Group_5824" data-name="Group 5824">
          <path id="Path_2175" data-name="Path 2175" d="M214.778,2236.176a62.686,62.686,0,0,0-2.866-49.12c-.469-.946,1.078-1.512,1.544-.576a64.286,64.286,0,0,1,2.813,50.391C215.91,2237.863,214.422,2237.163,214.778,2236.176Z" fill="#d8e081"/>
        </g>
      </g>
    </g>
    <g id="Group_5834" data-name="Group 5834">
      <g id="Group_5828" data-name="Group 5828">
        <g id="Group_5827" data-name="Group 5827">
          <path id="Path_2176" data-name="Path 2176" d="M214.99,2237.314l-.377-.14c.023.12.05.238.082.355Z" fill="#00a3a1"/>
        </g>
      </g>
      <g id="Group_5831" data-name="Group 5831" opacity="0.4">
        <g id="Group_5830" data-name="Group 5830">
          <g id="Group_5829" data-name="Group 5829">
            <path id="Path_2177" data-name="Path 2177" d="M214.613,2237.174c-.5-2.5.276-5.3,1.28-7.942,1.058-2.768,2.379-5.536,2.8-8.337a1.812,1.812,0,0,0-.357-1.725,2.066,2.066,0,0,0-2.373.358,5.932,5.932,0,0,0-1.459,2.117,19.634,19.634,0,0,0-1.651-10.663L210,2214.43a17.636,17.636,0,0,0-2.743-8.377,2.2,2.2,0,0,0-2.3-1.261c-1.154.3-1.649,1.595-1.892,2.636a17.606,17.606,0,0,0-10.566-8.479c-1.242-.385-2.887-.568-3.958.414s-.817,2.463-.41,3.6a45.834,45.834,0,0,0,4.717,9.583,6.9,6.9,0,0,0-3.108-.213c-1.083.241-2.2,1.113-2.251,2.077-.047.869.735,1.443,1.46,1.9q4.166,2.629,8.628,4.9c-1.31.161-3.008.629-3.31,1.8-.256.991.741,1.65,1.637,2.075q3.707,1.766,7.585,3.283a2.253,2.253,0,0,0-2.265,1.489,2.152,2.152,0,0,0,.711,2.272,7.209,7.209,0,0,0,2.3,1.188Z" fill="#00abc4"/>
          </g>
        </g>
      </g>
      <g id="Group_5833" data-name="Group 5833">
        <g id="Group_5832" data-name="Group 5832">
          <path id="Path_2178" data-name="Path 2178" d="M194.7,2203.167a114.579,114.579,0,0,1,9.612,13.456,31.2,31.2,0,0,0,.189-5.286c-.025-.525.79-.459.816.061a31.267,31.267,0,0,1-.321,6.331h0q2.745,4.6,5.057,9.446.563-4.018,1.125-8.038c.071-.519.888-.462.816.061q-.63,4.488-1.256,8.975a.373.373,0,0,1-.113.224c.885,1.911,1.735,3.837,2.514,5.8.195.489-.54.85-.735.361-.82-2.065-1.722-4.09-2.66-6.1a.422.422,0,0,1-.09-.023l-5.992-3.025c-.463-.234-.194-1.009.276-.77l5.255,2.652c-1.563-3.249-3.262-6.429-5.121-9.515a.417.417,0,0,1-.18-.01,43.733,43.733,0,0,1-7.765-2.96c-.466-.231-.2-1,.275-.77a43.7,43.7,0,0,0,7.05,2.742,114.492,114.492,0,0,0-9.37-13.078C193.745,2203.3,194.365,2202.762,194.7,2203.167Z" fill="#00aeb4"/>
        </g>
      </g>
    </g>
    <g id="Group_5840" data-name="Group 5840">
      <g id="Group_5837" data-name="Group 5837" opacity="0.4">
        <g id="Group_5836" data-name="Group 5836">
          <g id="Group_5835" data-name="Group 5835">
            <path id="Path_2179" data-name="Path 2179" d="M216.614,2220.09a4.393,4.393,0,0,0,.306,3.466q2.191,5.715,4.851,11.239l-.207.16q5.3-.009,10.608-.019a5.657,5.657,0,0,0,2.214-.294,1.737,1.737,0,0,0,.407-3.178,3.766,3.766,0,0,0-.97-.544l-4.676-1.874c-.527-.212-1.148-.55-1-1.181a.963.963,0,0,1,.612-.667,12.324,12.324,0,0,1,7.249-.439,5.682,5.682,0,0,0,2.075.3c.943-.133,1.889-1.094,1.038-2.135a2.118,2.118,0,0,0-.676-.529,22.982,22.982,0,0,0-5.2-1.942c-.936-.226-2.154-.732-1.868-1.749a1.262,1.262,0,0,1,.947-.868,16.691,16.691,0,0,1,6.488-.152,4.317,4.317,0,0,0,1.613.1c.731-.152,1.433-.893.844-1.738a1.72,1.72,0,0,0-.936-.637l-5.057-1.471c-.6-.175-1.308-.461-1.263-1.179a1.127,1.127,0,0,1,.9-1.008,19.563,19.563,0,0,1,7.114-.192,3.034,3.034,0,0,0,2.217-.169,1.06,1.06,0,0,0,.5-1.021c-.091-.593-.661-.808-1.168-.968l-5.4-1.71a.376.376,0,0,1-.018-.712,14.58,14.58,0,0,1,6.645-.73,4.506,4.506,0,0,0,1.68.03c.766-.2,1.461-1.044.7-1.885a1.762,1.762,0,0,0-.745-.475,30.462,30.462,0,0,0-5.092-1.331q1.809-1.741,3.618-3.491c.885-.852,1.847-1.915,1.456-3.174a2.182,2.182,0,0,0-1.954-1.448,4.061,4.061,0,0,0-3.511,2.09,4.156,4.156,0,0,1-1.58,1.735,1.235,1.235,0,0,1-1.171-.053c-.592-.391-.523-1.129-.539-1.774-.015-.565-.232-1.248-.786-1.347a1.04,1.04,0,0,0-.822.279,3.358,3.358,0,0,0-.749,3.084c.187,1.338.587,2.753-.286,3.96a1.54,1.54,0,0,1-2.058.478c-.695-.448-.689-1.327-.846-2.082s-.8-1.594-1.57-1.2a1.155,1.155,0,0,0-.493.567c-.742,1.674-.25,3.545.053,5.321a7.846,7.846,0,0,1-.037,3.4.839.839,0,0,1-1.539.161l-1.893-3.4c-.21-.379-.465-.794-.979-.76a.875.875,0,0,0-.663.425,2.257,2.257,0,0,0-.051,1.781q.832,3.359,1.668,6.709c.193.778.35,1.706-.332,2.236a1.456,1.456,0,0,1-1.81-.109c-1.1-.9-1.111-2.314-1.688-3.474-.347-.7-1.217-1.365-1.856-.7a1.127,1.127,0,0,0-.242,1.1,38.049,38.049,0,0,0,2.538,6.359,3.476,3.476,0,0,1,.584,2.582,1.224,1.224,0,0,1-1.325.918c-.611-.1-.937-.715-1.194-1.264q-.6-1.284-1.2-2.574c-.41-.875-.964-1.873-2.01-1.857A1.693,1.693,0,0,0,216.614,2220.09Z" fill="#00abc4"/>
          </g>
        </g>
      </g>
      <g id="Group_5839" data-name="Group 5839">
        <g id="Group_5838" data-name="Group 5838">
          <path id="Path_2180" data-name="Path 2180" d="M222.4,2234.211a65.329,65.329,0,0,1,22.173-37.406c.4-.334.985.24.58.578a64.631,64.631,0,0,0-21.964,37.043C223.09,2234.943,222.3,2234.727,222.4,2234.211Z" fill="#00aeb4"/>
        </g>
      </g>
    </g>
  </g>
  <rect id="Rectangle_3167" data-name="Rectangle 3167" width="101.218" height="109.223" transform="translate(62.668 100.044)" fill="#d8e081"/>
  <path id="Path_2181" data-name="Path 2181" d="M151.3,2182.466l-.617,5.976s6.539,3.489,10.732,2.3-5.871-2.205-4.125-7.26S151.3,2182.466,151.3,2182.466Z" transform="translate(-39.579 -2024.285)" fill="#b8906a"/>
  <path id="Path_2182" data-name="Path 2182" d="M144.96,2182.376l.613,5.977s-6.546,3.482-10.728,2.3,5.866-2.208,4.124-7.26S144.96,2182.376,144.96,2182.376Z" transform="translate(-39.579 -2024.285)" fill="#b8906a"/>
  <g id="Group_5842" data-name="Group 5842" transform="translate(-39.579 -2024.285)">
    <path id="Path_2183" data-name="Path 2183" d="M122.9,2111.87c-7.671,3.455-11.727-.377-10.805-9.447s10.038-33.322,14.339-41.533,10.274-6.914,10.274-6.914h23.415s5.981-1.291,10.276,6.914,12.951,32.462,13.876,41.533-3.592,12.9-11.267,9.447C168.1,2110.194,130.574,2108.414,122.9,2111.87Z" fill="#76bc21"/>
  </g>
  <g id="Group_5843" data-name="Group 5843" transform="translate(-39.579 -2024.285)">
    <path id="Path_2184" data-name="Path 2184" d="M158.006,2086.74l-5.17-4.079-.548-10.576,10.251.445.436,10.014Zm-4.763-4.293,4.757,3.747,4.54-3.836-.4-9.425-9.4-.4Z" fill="#58849b"/>
  </g>
  <g id="Group_5844" data-name="Group 5844" transform="translate(-39.579 -2024.285)">
    <path id="Path_2185" data-name="Path 2185" d="M162.337,2075.8l-9.512-.211.011-.424,9.509.209Z" fill="#58849b"/>
  </g>
  <path id="Path_2186" data-name="Path 2186" d="M133.535,2072.1s-8.728,27.744-9.564,28.31,6.081-1.133,9.438.845S127.367,2092.544,133.535,2072.1Z" transform="translate(-39.579 -2024.285)" fill="#495a7b" opacity="0.4"/>
  <path id="Path_2187" data-name="Path 2187" d="M164.771,2072.1s7.567,24.812,9.153,27.822c-5.045-2.111-10.93,4.8-8.644,1.2C168.23,2096.455,163.262,2084.73,164.771,2072.1Z" transform="translate(-39.579 -2024.285)" fill="#495a7b" opacity="0.4"/>
  <path id="Path_2188" data-name="Path 2188" d="M153.234,2056.108l-.323-8.1c-4.853-5.155-16.507,2.575-16.023,11.85,0,.062,0,.122.007.184,1.625,2.881,3.694,4.837,6.336,4.963C148.425,2065.253,151.431,2061.478,153.234,2056.108Z" transform="translate(-39.579 -2024.285)" fill="#495a7b" opacity="0.4"/>
  <path id="Path_2189" data-name="Path 2189" d="M132.081,2039.636s1.19,22.312,11.962,22.678,12.024-11.771,12.73-20.612c.786-9.9-.162-12.9-12.73-13.472C131.928,2027.679,132.081,2039.636,132.081,2039.636Z" transform="translate(-39.579 -2024.285)" fill="#ffcc8b"/>
  <path id="Path_2190" data-name="Path 2190" d="M150.182,2025.481a14.93,14.93,0,0,1,8.862,12.163c.443,5.269-3.285,10-3.391,15.207,0-2.984.264-10.519-3.734-11.247-3.6-.652-7,3.817-10.121,4.813-2.355.752-6.672,1.76-8.982.1,1.811,1.146.541,2.5-1.175,2.132-2.408-.516-1.894-3.521-1.762-5.312a25.771,25.771,0,0,1,5.481-14.506A12.171,12.171,0,0,1,150.182,2025.481Z" transform="translate(-39.579 -2024.285)" fill="#144998"/>
  <path id="Path_2191" data-name="Path 2191" d="M172.053,2104.456H124.688c-7.786-1.23-9.294,11.316-8.779,16.414.752,7.395,4.378,13.91,6.852,20.979,2.61,7.428,13.827,36.167,15.344,39.929,5.059.75,4.91.461,7.723-.255-.25-5.53-7.02-32.442-8.414-39.648-.873-4.534-3.166-11.666-1.549-16.426,1.433-4.19,4.2-1.524,12.576-1.307,8.391.22,11-2.883,12.432,1.307,1.617,4.76-.676,11.892-1.548,16.426-1.392,7.206-8.164,34.118-8.411,39.648,2.812.716,3.8.122,6.672.755.146-.6,7.574-14.259,8.781-17.977,2.442-7.511,5-15.024,7.613-22.452,2.474-7.069,6.1-13.584,6.85-20.979C181.347,2115.772,179.837,2103.226,172.053,2104.456Z" transform="translate(-39.579 -2024.285)" fill="#a2c7e2"/>
  <g id="Group_5845" data-name="Group 5845" transform="translate(-39.579 -2024.285)">
    <path id="Path_2192" data-name="Path 2192" d="M148.689,2119.114H128.263l-6.382-27.088a4.114,4.114,0,0,1,.677-3.363,3.624,3.624,0,0,1,2.909-1.506H171.92a3.633,3.633,0,0,1,2.911,1.506,4.154,4.154,0,0,1,.675,3.363l-6.381,27.088Z" fill="#00b0c4"/>
  </g>
  <g id="Group_5846" data-name="Group 5846" transform="translate(-39.579 -2024.285)">
    <path id="Path_2193" data-name="Path 2193" d="M153.393,2103.888c0,1.556-2.1,2.821-4.7,2.821s-4.691-1.265-4.691-2.821,2.1-2.821,4.691-2.821S153.393,2102.327,153.393,2103.888Z" fill="#4a5b7c"/>
  </g>
  <rect id="Rectangle_3168" data-name="Rectangle 3168" width="104.879" height="14.587" transform="translate(61.374 205.073)" fill="#d7dd58"/>
</svg>
