<svg xmlns="http://www.w3.org/2000/svg" xmlns:xlink="http://www.w3.org/1999/xlink" viewBox="0 0 192 144"><defs><style>.cls-1,.cls-7{fill:none;}.cls-2{isolation:isolate;}.cls-3{clip-path:url(#clip-path);}.cls-4,.cls-9{fill:#edf0f2;}.cls-5{fill:#8e5b2d;}.cls-6{fill:#1a2833;}.cls-7{stroke:#fff;stroke-linecap:round;stroke-linejoin:round;stroke-width:1.5px;}.cls-8{fill:#fff;}.cls-9{opacity:0.5;mix-blend-mode:overlay;}</style><clipPath id="clip-path"><rect class="cls-1" x="-0.43" y="0.05" width="191.99" height="144"/></clipPath></defs><g class="cls-2"><g id="Capa_1" data-name="Capa 1"><g class="cls-3"><path class="cls-4" d="M48.3,191l2.36-17.22c.77.26,1.56.5,2.38.71L54.19,191H137l1.15-16.51c.82-.21,1.61-.45,2.37-.71L142.83,191h19.39L162,166.12c-.34-30-7.9-46.44-17.78-55.82-10.29-11-28.21-14.75-48.6-14.75S57.25,99.28,47,110.3c-9.87,9.38-17.44,25.78-17.77,55.82L28.91,191Z"/><path class="cls-5" d="M95.57,118.27h0a15.06,15.06,0,0,0,15.06-15.06V75H80.5v28.21A15.07,15.07,0,0,0,95.57,118.27Z"/><path class="cls-5" d="M123.57,62.13c0-5.54-3.08-10-6.87-10s-6.86,4.49-6.86,10,3.07,10,6.86,10,6.87-4.49,6.87-10"/><path class="cls-5" d="M81.23,62.13c0-5.54-3.07-10-6.87-10s-6.86,4.49-6.86,10,3.07,10,6.86,10,6.87-4.49,6.87-10"/><path class="cls-5" d="M71.78,44.57v25c0,13.32,10.9,30.27,24.21,30C108.9,99.32,119.29,83,119.29,70V44.57A23.76,23.76,0,0,0,95.53,20.81h0A23.75,23.75,0,0,0,71.78,44.57Z"/><path class="cls-1" d="M95.53,20.81Z"/><path class="cls-6" d="M100.3,78.55h0a7.79,7.79,0,0,0-9.53,0,7.79,7.79,0,0,1-9.38.12l-9.52-7C72.91,84.55,83.36,99.8,96,99.56c12.39-.23,22.45-15.3,23.24-28l-9.55,7.08A7.79,7.79,0,0,1,100.3,78.55Z"/><circle class="cls-7" cx="106.9" cy="61.77" r="8.5" transform="translate(-3.25 6.01) rotate(-3.17)"/><circle class="cls-7" cx="84.17" cy="61.77" r="8.5" transform="translate(-5.11 115.89) rotate(-67.5)"/><line class="cls-7" x1="98.28" y1="59.25" x2="92.78" y2="59.25"/><path class="cls-8" d="M102,84.63a3.78,3.78,0,0,1-3.64,2.27H92.75a3.79,3.79,0,0,1-3.64-2.27Z"/><path class="cls-9" d="M47,16.42H10a3.89,3.89,0,0,1-3.88-3.89h0A3.88,3.88,0,0,1,10,8.65H47a3.88,3.88,0,0,1,3.88,3.88h0A3.89,3.89,0,0,1,47,16.42Z"/></g></g></g></svg>