<svg xmlns="http://www.w3.org/2000/svg" xmlns:xlink="http://www.w3.org/1999/xlink" viewBox="0 0 192 144"><defs><style>.cls-1{fill:none;}.cls-2{isolation:isolate;}.cls-3{clip-path:url(#clip-path);}.cls-4{fill:#2f3d90;}.cls-5{opacity:0.5;mix-blend-mode:overlay;}.cls-6{fill:#edf0f2;}.cls-7{fill:#814916;}.cls-8{fill:#8e5b2d;}.cls-9{fill:#f1bfa6;}</style><clipPath id="clip-path"><rect class="cls-1" x="0.18" y="-0.12" width="191.99" height="144"/></clipPath></defs><g class="cls-2"><g id="Capa_1" data-name="Capa 1"><g class="cls-3"><circle class="cls-4" cx="94.03" cy="42.8" r="56.91" transform="translate(-2.73 79.02) rotate(-45)"/><g class="cls-5"><path class="cls-6" d="M46.63,18.08h-37A3.88,3.88,0,0,1,5.72,14.2h0a3.89,3.89,0,0,1,3.89-3.88h37a3.88,3.88,0,0,1,3.88,3.88h0A3.88,3.88,0,0,1,46.63,18.08Z"/></g><path class="cls-6" d="M46.76,191.12l2.36-17.23c.76.26,1.56.5,2.38.71l1.15,16.52h82.76l1.14-16.52c.82-.21,1.62-.45,2.38-.71l2.36,17.23h19.39l-.28-24.85c-.33-30-7.9-46.44-17.77-55.82C132.34,99.43,114.42,95.7,94,95.7s-38.32,3.73-48.61,14.75c-9.87,9.38-17.44,25.78-17.77,55.82l-.28,24.85Z"/><path class="cls-7" d="M94,114.29h0a12.64,12.64,0,0,0,12.64-12.64V76.4H81.38v25.25A12.64,12.64,0,0,0,94,114.29Z"/><rect class="cls-8" x="71.59" y="23.81" width="44.87" height="64.59" rx="22.43"/><path class="cls-4" d="M122.7,28.31c-5-10.73-23.78-18.43-39.14-11.25S62.05,43.57,67.06,54.3Z"/><ellipse class="cls-8" cx="72.39" cy="64.99" rx="6.03" ry="7.88"/><path class="cls-8" d="M121.68,65c0-4.35-2.69-7.88-6-7.88s-6,3.53-6,7.88,2.7,7.88,6,7.88S121.68,69.34,121.68,65Z"/><path class="cls-9" d="M121.05,76.78c0,3.53-.87,6.39-2,6.39s-1.94-2.86-1.94-6.39.87-6.38,1.94-6.38S121.05,73.26,121.05,76.78Z"/><path class="cls-9" d="M70.89,76.78c0,3.53-.87,6.39-1.94,6.39s-2-2.86-2-6.39.87-6.38,2-6.38S70.89,73.26,70.89,76.78Z"/><path class="cls-6" d="M87.9,77.64a3.62,3.62,0,0,0,3.48,2.16h5.29a3.62,3.62,0,0,0,3.48-2.16Z"/></g></g></g></svg>