<svg xmlns="http://www.w3.org/2000/svg" xmlns:xlink="http://www.w3.org/1999/xlink" viewBox="0 0 192 144"><defs><style>.cls-1,.cls-8{fill:none;}.cls-2{isolation:isolate;}.cls-3{clip-path:url(#clip-path);}.cls-4{fill:#43509b;}.cls-5{fill:#eba582;}.cls-6{fill:#f1bfa6;}.cls-7,.cls-9{fill:#edf0f2;}.cls-8{stroke:#43509b;stroke-linecap:round;stroke-linejoin:round;stroke-width:1.5px;}.cls-9{opacity:0.5;mix-blend-mode:overlay;}</style><clipPath id="clip-path"><rect class="cls-1" x="-0.4" y="0.14" width="191.99" height="144"/></clipPath></defs><g class="cls-2"><g id="Capa_1" data-name="Capa 1"><g class="cls-3"><path class="cls-4" d="M48.31,190.87l2.36-17.23c.77.27,1.56.51,2.38.72l1.15,16.51H137l1.14-16.51c.82-.21,1.62-.45,2.38-.72l2.36,17.23h19.39L162,166c-.33-30-7.89-46.44-17.77-55.82-10.29-11-28.21-14.75-48.6-14.75S57.26,99.19,47,110.2C37.1,119.58,29.53,136,29.2,166l-.28,24.85Z"/><path class="cls-5" d="M95.58,118.18h0a15.06,15.06,0,0,0,15.06-15.06V74.9H80.51v28.22A15.07,15.07,0,0,0,95.58,118.18Z"/><path class="cls-6" d="M95.58,94.14h0a22.85,22.85,0,0,0,22.84-22.85V51.21c0-12.62-10.23-19.08-22.84-19.08h0c-12.62,0-22.85,6.46-22.85,19.08V71.29A22.85,22.85,0,0,0,95.58,94.14Z"/><path class="cls-7" d="M113.64,32.2a6.53,6.53,0,0,0,.12-1.88,9,9,0,0,0-5-7.43,8.71,8.71,0,0,0-5.68-.74,8.84,8.84,0,0,0-15.71-.07A7.75,7.75,0,0,0,86.3,22a8.92,8.92,0,0,0-8.93,8.92,5.32,5.32,0,0,0,.19,1.52,17.27,17.27,0,0,0-7.26,14V59a2.33,2.33,0,0,0,2.33,2.33h0A2.33,2.33,0,0,0,75,59V51.15c0-8.24,4.85-13.37,11.85-15.57a8.9,8.9,0,0,0,17.53,0c7,2.2,11.85,7.33,11.85,15.57V59a2.33,2.33,0,0,0,2.33,2.33h0A2.33,2.33,0,0,0,120.85,59V46.38A17.21,17.21,0,0,0,113.64,32.2Z"/><ellipse class="cls-6" cx="73.55" cy="64.63" rx="6.14" ry="8.02"/><path class="cls-6" d="M123.74,64.63c0-4.43-2.74-8-6.13-8s-6.14,3.59-6.14,8,2.75,8,6.14,8S123.74,69.07,123.74,64.63Z"/><circle class="cls-8" cx="106.61" cy="64.59" r="8.26"/><circle class="cls-8" cx="84.54" cy="64.59" r="8.26"/><line class="cls-8" x1="98.25" y1="62.14" x2="92.9" y2="62.14"/><path class="cls-7" d="M101.81,80.84A3.68,3.68,0,0,1,98.27,83H92.88a3.68,3.68,0,0,1-3.54-2.2Z"/><path class="cls-1" d="M95.54,20.72Z"/><path class="cls-9" d="M49.17,18.43h-37a3.88,3.88,0,0,1-3.88-3.88h0a3.88,3.88,0,0,1,3.88-3.88h37a3.88,3.88,0,0,1,3.88,3.88h0A3.88,3.88,0,0,1,49.17,18.43Z"/></g></g></g></svg>