<?xml version="1.0" encoding="utf-8"?>
<!-- Generator: Adobe Illustrator 24.3.0, SVG Export Plug-In . SVG Version: 6.00 Build 0)  -->
<svg version="1.1" id="Capa_1" xmlns="http://www.w3.org/2000/svg" xmlns:xlink="http://www.w3.org/1999/xlink" x="0px" y="0px"
	 viewBox="0 0 303.3 162.7" style="enable-background:new 0 0 303.3 162.7;" xml:space="preserve">
<style type="text/css">
	.st0{fill:#0033A0;}
	.st1{fill:#FFFFFF;}
	.st2{fill:#64CCC9;}
	.st3{fill:#00A594;}
	.st4{fill:#00274A;}
	.st5{fill:#F9FAFF;}
	.st6{fill:#00A0B7;}
</style>
<g transform="translate(-1585.332 -896.75)">
	<g transform="translate(1 -215)">
		<g transform="translate(1724.667 1111.75)">
			<path class="st0" d="M162.2,162.2H1.2l161-161V162.2z"/>
			<path class="st1" d="M161.7,2.4L2.4,161.7h159.3V2.4 M162.7,0v162.7H0L162.7,0z"/>
		</g>
		<g transform="translate(1584.332 1273.668) rotate(-45)">
			<path class="st2" d="M100.5,100.8L1.2,0.5h99.3V100.8z"/>
			<path class="st1" d="M2.4,1L100,99.6V1H2.4 M0,0h101v102.1L0,0z"/>
		</g>
		<g transform="translate(1797.917 1202.5) rotate(135)">
			<path class="st3" d="M100.5,99.8L1.2,0.5h99.3V99.8z"/>
			<path class="st1" d="M2.4,1L100,98.6V1H2.4 M0,0h101v101L0,0z"/>
		</g>
		<g transform="translate(1706.5 1112)">
			<path class="st4" d="M89.8,90.5H0.5V1.2L89.8,90.5z"/>
			<path class="st5" d="M1,2.4V90h87.6L1,2.4 M0,0l91,91H0V0z"/>
		</g>
		<g transform="translate(1710.4 1112)">
			<path class="st6" d="M86.8,90.3L-2.7,0.5h178.8L86.8,90.3z"/>
			<path class="st1" d="M-1.5,1l88.3,88.6L174.9,1H-1.5 M-3.9,0h181.2L86.8,91L-3.9,0z"/>
		</g>
	</g>
</g>
</svg>
