<svg id="Component_25_1" data-name="Component 25 – 1" xmlns="http://www.w3.org/2000/svg" width="275.801" height="205.248" viewBox="0 0 275.801 205.248">
  <g id="Group_5949" data-name="Group 5949" transform="translate(-32.497 -3116.592)">
    <g id="Group_5948" data-name="Group 5948">
      <path id="Path_2257" data-name="Path 2257" d="M210.637,3288.888c.53-.222,1.06-.449,1.586-.679l.816-.357c.52-.231,1.038-.462,1.558-.7q.423-.191.846-.387.753-.347,1.5-.7c.3-.144.61-.293.912-.438.475-.228.948-.456,1.418-.689.34-.167.676-.336,1.014-.5.434-.219.87-.436,1.3-.661.389-.2.777-.4,1.165-.606s.762-.4,1.139-.6c.473-.251.944-.508,1.416-.765l.888-.482q1.15-.636,2.29-1.288c13.567-7.761,26.308-17.473,35.444-30.163s14.414-28.617,12.241-44.1c-1.542-10.976-8.655-22.6-19.328-24.258a18.505,18.505,0,0,0-1.882-.185,56.673,56.673,0,0,0-7.871.651c-.554.055-1.108.095-1.664.129-.162.011-.325.015-.487.024-.394.018-.787.036-1.181.048-.192,0-.383.006-.576.007-.367,0-.733.007-1.1,0-.2,0-.4,0-.592-.008-.367-.01-.732-.021-1.1-.035-.192-.008-.382-.016-.573-.026-.383-.021-.763-.045-1.147-.072-.172-.013-.342-.022-.512-.035q-.646-.052-1.292-.117c-.12-.013-.241-.022-.363-.036q-1.69-.178-3.381-.435c-.073-.01-.148-.024-.222-.035-.478-.075-.959-.151-1.437-.235-.147-.022-.292-.05-.44-.076-.409-.069-.818-.143-1.227-.219l-.5-.095c-.394-.075-.785-.151-1.179-.232-.168-.032-.337-.065-.505-.1-.4-.081-.8-.164-1.194-.25-.155-.032-.31-.065-.465-.1-.429-.09-.859-.187-1.287-.28-.121-.028-.241-.056-.361-.081-.539-.121-1.075-.242-1.613-.368l-.021,0-.072-.017a40.3,40.3,0,0,0,1.709-10.691c.014-14.073-10.67-25.732-21.6-34.588-13.3-10.772-29.974-20.166-46.744-16.744-8.48,1.739-15.993,6.608-22.7,12.09q-2.009,1.64-3.951,3.361a59.34,59.34,0,0,0-6.054-.15c-.143.005-.285.005-.429.009-.363.013-.727.03-1.089.049-.227.012-.455.023-.683.039-.316.02-.633.042-.949.067-.284.024-.566.049-.849.075s-.548.05-.822.081q-.531.059-1.064.125c-.207.028-.415.049-.623.079q-1.734.235-3.453.575l-.362.076c-.455.092-.908.188-1.359.291-.159.037-.316.074-.475.114-.415.1-.828.2-1.239.306-.171.045-.341.089-.511.136-.406.108-.809.225-1.212.341-.164.049-.33.095-.495.147-.423.127-.845.262-1.266.4-.14.045-.277.087-.415.134-.555.188-1.108.378-1.657.584-18.291,6.759-32.464,22.709-38.984,41.084s-5.77,38.876.057,57.473a94.952,94.952,0,0,0,15.393,30.017c16.6,21.3,43.391,33.429,70.343,35.092.974.06,1.947.1,2.921.138.324.013.648.019.972.028.663.016,1.326.03,1.988.036.355,0,.711,0,1.064,0,.764,0,1.527,0,2.291-.02.2-.005.39-.005.586-.011q1.562-.037,3.12-.114a79.179,79.179,0,0,0,19.333,1.116c7.6-.508,15.469-2.221,21.326-7.094a25.926,25.926,0,0,0,4.108-4.341c.33-.135.658-.276.987-.413C210.091,3289.117,210.364,3289.006,210.637,3288.888Z" fill="#f7f7f7"/>
    </g>
  </g>
  <g id="Group_5997" data-name="Group 5997" transform="translate(-32.497 -3116.592)">
    <g id="Group_5982" data-name="Group 5982">
      <g id="Group_5951" data-name="Group 5951">
        <g id="Group_5950" data-name="Group 5950">
          <path id="Path_2258" data-name="Path 2258" d="M252.477,3234.889c-.394-.412-.752-1.009-.5-1.512.281-.567,1.09-.574,1.717-.434a10.571,10.571,0,0,1,7.48,6.648l-.046.2a14.763,14.763,0,0,1,9.745-.95c.717.179,1.538.528,1.676,1.248a1.376,1.376,0,0,1-.628,1.339,3.493,3.493,0,0,1-1.482.48,14.808,14.808,0,0,1-9.539-1.854l.167-.234,0-.006C258.441,3237.793,254.761,3237.293,252.477,3234.889Z" fill="#d8e081"/>
        </g>
      </g>
      <g id="Group_5953" data-name="Group 5953">
        <g id="Group_5952" data-name="Group 5952">
          <path id="Path_2259" data-name="Path 2259" d="M247.726,3243.634a1.742,1.742,0,0,1-.678-.95,1.294,1.294,0,0,1,.825-1.309,3.034,3.034,0,0,1,1.64-.109,10.128,10.128,0,0,1,7.871,6.357l0,.363a16.006,16.006,0,0,1,10.35-2.98c.775.043,1.7.285,1.906,1.033a1.3,1.3,0,0,1-.427,1.252,3.39,3.39,0,0,1-1.216.647,17.007,17.007,0,0,1-10.717.152l.035-.036q-3.424-1.47-6.844-2.926A11.5,11.5,0,0,1,247.726,3243.634Z" fill="#d8e081"/>
        </g>
      </g>
      <g id="Group_5955" data-name="Group 5955">
        <g id="Group_5954" data-name="Group 5954">
          <path id="Path_2260" data-name="Path 2260" d="M251.284,3264.4a23.936,23.936,0,0,1-10.455-1.957c-.619-.261-1.324-.7-1.336-1.37-.008-.738.815-1.177,1.535-1.329a8.771,8.771,0,0,1,5.758,1.063,26.522,26.522,0,0,1,4.8,3.558Z" fill="#d8e081"/>
        </g>
      </g>
      <g id="Group_5957" data-name="Group 5957">
        <g id="Group_5956" data-name="Group 5956">
          <path id="Path_2261" data-name="Path 2261" d="M261.656,3219.5c.387-.67,1.359-.661,2.092-.43a7.4,7.4,0,0,1,3.87,3.174,12.707,12.707,0,0,1,1.659,4.776l-.009.015a13.13,13.13,0,0,1,6.338-.779,3.071,3.071,0,0,1,1.583.73,1.467,1.467,0,0,1,.372,1.609,1.949,1.949,0,0,1-1.636.878c-2.309.238-4.539-.8-6.638-1.8l-.281-.365a29.167,29.167,0,0,1-6.7-5.67C261.782,3221.031,261.262,3220.19,261.656,3219.5Z" fill="#d8e081"/>
        </g>
      </g>
      <g id="Group_5959" data-name="Group 5959">
        <g id="Group_5958" data-name="Group 5958">
          <path id="Path_2262" data-name="Path 2262" d="M266.556,3214.361a1.528,1.528,0,0,1,1.189-.736,2.9,2.9,0,0,1,1.417.256,7.165,7.165,0,0,1,3.225,2.883,16.969,16.969,0,0,1,1.706,4.027l-.355-.166a42.647,42.647,0,0,1-5.923-3.574,4.2,4.2,0,0,1-1.137-1.149A1.612,1.612,0,0,1,266.556,3214.361Z" fill="#d8e081"/>
        </g>
      </g>
      <g id="Group_5961" data-name="Group 5961">
        <g id="Group_5960" data-name="Group 5960">
          <path id="Path_2263" data-name="Path 2263" d="M245.008,3252.98a4.363,4.363,0,0,1-1.935-1.115,1.487,1.487,0,0,1,0-2.029,2.012,2.012,0,0,1,1.571-.234,12.4,12.4,0,0,1,9.028,6.534Q249.338,3254.558,245.008,3252.98Z" fill="#d8e081"/>
        </g>
      </g>
      <g id="Group_5963" data-name="Group 5963">
        <g id="Group_5962" data-name="Group 5962">
          <path id="Path_2264" data-name="Path 2264" d="M273.916,3220.778l.214.147a12.423,12.423,0,0,1,8.388-.146,3.292,3.292,0,0,1,1.242.68,1.3,1.3,0,0,1,.4,1.289c-.232.722-1.154.922-1.915.932A13.117,13.117,0,0,1,273.916,3220.778Z" fill="#d8e081"/>
        </g>
      </g>
      <g id="Group_5965" data-name="Group 5965">
        <g id="Group_5964" data-name="Group 5964">
          <path id="Path_2265" data-name="Path 2265" d="M281.741,3212.92a15.525,15.525,0,0,1,10.388-7.477,3.709,3.709,0,0,1,1.4-.071,1.5,1.5,0,0,1,1.1.793c.349.786-.27,1.643-.91,2.21-3.187,2.814-7.622,3.652-11.828,4.375Z" fill="#d8e081"/>
        </g>
      </g>
      <g id="Group_5967" data-name="Group 5967">
        <g id="Group_5966" data-name="Group 5966">
          <path id="Path_2266" data-name="Path 2266" d="M264.483,3234.223a1.04,1.04,0,0,0-.029-.1l.061.04-.013-.03c2.816-1.866,6.472-2.742,9.661-1.572.734.274,1.538.8,1.523,1.587-.013.853-.971,1.341-1.8,1.543a12.431,12.431,0,0,1-9.3-1.4l-.034-.068Z" fill="#d8e081"/>
        </g>
      </g>
      <g id="Group_5969" data-name="Group 5969">
        <g id="Group_5968" data-name="Group 5968">
          <path id="Path_2267" data-name="Path 2267" d="M278.392,3216.619l-.184-.262a22.048,22.048,0,0,1,4.775-.957,9.9,9.9,0,0,1,4.766.815,3,3,0,0,1,1.189.859,1.424,1.424,0,0,1,.261,1.386c-.309.77-1.306.937-2.143.925A15.669,15.669,0,0,1,278.392,3216.619Z" fill="#d8e081"/>
        </g>
      </g>
      <g id="Group_5971" data-name="Group 5971">
        <g id="Group_5970" data-name="Group 5970">
          <path id="Path_2268" data-name="Path 2268" d="M257.192,3226.32a1.628,1.628,0,0,1,1.42-.167,6.867,6.867,0,0,1,4.082,3.134,14.852,14.852,0,0,1,1.76,4.835,43.614,43.614,0,0,1-6.673-5.136,3.57,3.57,0,0,1-.9-1.25A1.294,1.294,0,0,1,257.192,3226.32Z" fill="#d8e081"/>
        </g>
      </g>
      <g id="Group_5973" data-name="Group 5973">
        <g id="Group_5972" data-name="Group 5972">
          <path id="Path_2269" data-name="Path 2269" d="M253.716,3256.217c-.016-.026-.027-.055-.046-.081.032.01.06.024.091.032l.053-.049a17.119,17.119,0,0,1,9.853-5.742,2.2,2.2,0,0,1,2.006.342,1.759,1.759,0,0,1-.106,2.163,6.572,6.572,0,0,1-3.716,2.147,37.017,37.017,0,0,1-8,1.366v0l.005.117a1.1,1.1,0,0,0-.054-.12,2.2,2.2,0,0,1-.312.026Z" fill="#d8e081"/>
        </g>
      </g>
      <g id="Group_5975" data-name="Group 5975">
        <g id="Group_5974" data-name="Group 5974">
          <path id="Path_2270" data-name="Path 2270" d="M251.61,3264.32c.076-.008.151-.012.231-.022-.1.14-.2.284-.3.425Z" fill="#d8e081"/>
        </g>
      </g>
      <g id="Group_5977" data-name="Group 5977">
        <g id="Group_5976" data-name="Group 5976">
          <path id="Path_2271" data-name="Path 2271" d="M263.4,3257.1a3.574,3.574,0,0,1,1.494.193,1.581,1.581,0,0,1,.983,1.082,1.842,1.842,0,0,1-.429,1.422,7.328,7.328,0,0,1-3.281,2.162,34.429,34.429,0,0,1-10.328,2.335,19.12,19.12,0,0,1,4.73-4.827A12.824,12.824,0,0,1,263.4,3257.1Z" fill="#d8e081"/>
        </g>
      </g>
      <g id="Group_5979" data-name="Group 5979">
        <g id="Group_5978" data-name="Group 5978">
          <path id="Path_2272" data-name="Path 2272" d="M264.27,3269.016a1.525,1.525,0,0,1-.32,1.177,3.724,3.724,0,0,1-.942.829,18.633,18.633,0,0,1-6.627,2.66,49.151,49.151,0,0,1-6.925.839l.164.245a26.615,26.615,0,0,1-9.394-2.8,3.748,3.748,0,0,1-1.3-.959,1.339,1.339,0,0,1-.126-1.518,1.837,1.837,0,0,1,1.549-.559,10.364,10.364,0,0,1,9,5.415l.021-.042a15.621,15.621,0,0,1,9.712-6.652,6.892,6.892,0,0,1,3.874.083A1.919,1.919,0,0,1,264.27,3269.016Z" fill="#d8e081"/>
        </g>
      </g>
      <g id="Group_5981" data-name="Group 5981">
        <g id="Group_5980" data-name="Group 5980">
          <path id="Path_2273" data-name="Path 2273" d="M250.026,3279.527a93.6,93.6,0,0,1,33.41-65.439c1.207-1.014-.572-2.717-1.768-1.714a95.994,95.994,0,0,0-34.1,67.21C247.466,3281.154,249.92,3281.093,250.026,3279.527Z" fill="#d8e081"/>
        </g>
      </g>
    </g>
    <g id="Group_5990" data-name="Group 5990">
      <g id="Group_5984" data-name="Group 5984">
        <g id="Group_5983" data-name="Group 5983">
          <path id="Path_2274" data-name="Path 2274" d="M249.056,3280.957c.2.01.4.025.6.032-.1.154-.212.3-.324.441Z" fill="#00a3a1"/>
        </g>
      </g>
      <g id="Group_5987" data-name="Group 5987" opacity="0.4">
        <g id="Group_5986" data-name="Group 5986">
          <g id="Group_5985" data-name="Group 5985">
            <path id="Path_2275" data-name="Path 2275" d="M249.654,3280.989c2.19-3.118,2.8-7.406,3.019-11.622.215-4.422.067-9,1.17-13.088.25-.92.646-1.9,1.525-2.142,1.078-.3,2.418.715,3.029,1.915a8.83,8.83,0,0,1,.723,3.766,29.307,29.307,0,0,1,8.657-13.584q.924,3.215,1.845,6.43a26.375,26.375,0,0,1,8.777-9.807c1.1-.726,2.629-1.335,3.9-.346,1.4,1.1,1.3,3.173,1,4.741A26.276,26.276,0,0,1,302.837,3242c1.928.22,4.289.955,5.162,2.941.887,2-.361,3.858-1.6,5.172a68.546,68.546,0,0,1-12.2,10.27,10.29,10.29,0,0,1,4.377,1.573c1.337.981,2.34,2.845,1.831,4.194-.455,1.213-1.871,1.531-3.132,1.717q-7.279,1.1-14.744,1.522c1.7,1.007,3.736,2.664,3.446,4.452-.245,1.51-2.006,1.811-3.487,1.854-4.086.127-8.208.108-12.34-.062a3.365,3.365,0,0,1,2.2,3.4,3.211,3.211,0,0,1-2.333,2.68,10.8,10.8,0,0,1-3.866.24Z" fill="#00abc4"/>
          </g>
        </g>
      </g>
      <g id="Group_5989" data-name="Group 5989">
        <g id="Group_5988" data-name="Group 5988">
          <path id="Path_2276" data-name="Path 2276" d="M297.294,3246.447a171.258,171.258,0,0,0-21.223,12.628,46.959,46.959,0,0,1,2.918-7.341c.351-.7-.805-1.1-1.156-.406a46.667,46.667,0,0,0-3.358,8.85h0q-6.515,4.642-12.583,9.881,1.643-5.83,3.288-11.665c.214-.751-.941-1.165-1.155-.406q-1.833,6.513-3.67,13.024a.59.59,0,0,0,.02.375c-2.356,2.08-4.676,4.2-6.917,6.416-.562.549.228,1.486.787.935,2.363-2.332,4.813-4.56,7.3-6.74a.551.551,0,0,0,.139.022l10.009-.538c.773-.043.871-1.262.084-1.218q-4.387.234-8.78.469c4.088-3.5,8.325-6.83,12.718-9.934a.609.609,0,0,0,.251.094,65.053,65.053,0,0,0,12.393.613c.78-.033.874-1.253.086-1.218a65.047,65.047,0,0,1-11.285-.482,171.469,171.469,0,0,1,20.664-12.26A.61.61,0,0,0,297.294,3246.447Z" fill="#00aeb4"/>
        </g>
      </g>
    </g>
    <g id="Group_5996" data-name="Group 5996">
      <g id="Group_5993" data-name="Group 5993" opacity="0.4">
        <g id="Group_5992" data-name="Group 5992">
          <g id="Group_5991" data-name="Group 5991">
            <path id="Path_2277" data-name="Path 2277" d="M258.478,3264.609c.037,1.912-1.256,3.289-2.5,4.556q-6.427,6.5-13.379,12.456l.184.341q-7.237-3.187-14.489-6.392a8.492,8.492,0,0,1-2.852-1.732c-1.266-1.324-1.614-3.818,1.352-4.59a5.622,5.622,0,0,1,1.648-.16l7.521.242c.849.029,1.9-.062,2.083-1.01a1.443,1.443,0,0,0-.436-1.279,18.417,18.417,0,0,0-9.65-4.953,8.519,8.519,0,0,1-3.019-.833c-1.208-.747-1.923-2.63-.135-3.541a3.158,3.158,0,0,1,1.239-.32,34.536,34.536,0,0,1,8.279.468c1.417.253,3.384.292,3.6-1.27a1.886,1.886,0,0,0-.776-1.756,24.983,24.983,0,0,0-8.777-4.1,6.408,6.408,0,0,1-2.27-.824c-.908-.649-1.423-2.079-.11-2.883a2.589,2.589,0,0,1,1.661-.309l7.8,1.025c.925.117,2.065.159,2.438-.854a1.689,1.689,0,0,0-.633-1.92,29.157,29.157,0,0,0-9.616-4.534,4.528,4.528,0,0,1-2.926-1.562,1.585,1.585,0,0,1-.075-1.7c.481-.757,1.391-.708,2.181-.621l8.4.9a.562.562,0,0,0,.454-.962,21.783,21.783,0,0,0-8.649-4.989,6.777,6.777,0,0,1-2.315-.965c-.927-.734-1.371-2.305.174-3a2.642,2.642,0,0,1,1.3-.205,45.278,45.278,0,0,1,7.762,1.238q-1.427-3.468-2.851-6.943c-.7-1.7-1.379-3.729-.085-5.217a3.258,3.258,0,0,1,3.539-.807c2.116.745,3.165,2.873,3.546,4.969a6.242,6.242,0,0,0,1.119,3.319,1.833,1.833,0,0,0,1.632.628c1.045-.177,1.4-1.226,1.805-2.1.358-.766,1.065-1.569,1.883-1.371a1.577,1.577,0,0,1,.957.877c.724,1.482.039,3.263-.83,4.663-1.06,1.717-2.454,3.413-1.987,5.589a2.3,2.3,0,0,0,2.53,1.886c1.216-.192,1.733-1.4,2.4-2.338.675-.926,2.051-1.7,2.871-.69a1.756,1.756,0,0,1,.332,1.067c.006,2.736-1.787,5-3.267,7.247a11.678,11.678,0,0,0-1.988,4.664,1.251,1.251,0,0,0,2,1.144l4.63-3.508c.514-.388,1.113-.8,1.793-.453a1.3,1.3,0,0,1,.652.981,3.361,3.361,0,0,1-1,2.466q-3.151,4.094-6.307,8.172c-.729.95-1.5,2.125-.888,3.257a2.178,2.178,0,0,0,2.54.939c2.038-.571,2.909-2.5,4.393-3.74.9-.745,2.483-1.131,2.961.157a1.681,1.681,0,0,1-.328,1.647,56.84,56.84,0,0,1-7.29,7.171c-1.044.856-2.177,1.753-2.348,3.181a1.827,1.827,0,0,0,1.258,2.05,2.824,2.824,0,0,0,2.393-1.01q1.592-1.4,3.18-2.8c1.087-.949,2.445-1.983,3.863-1.332A2.524,2.524,0,0,1,258.478,3264.609Z" fill="#00abc4"/>
          </g>
        </g>
      </g>
      <g id="Group_5995" data-name="Group 5995">
        <g id="Group_5994" data-name="Group 5994">
          <path id="Path_2278" data-name="Path 2278" d="M242.086,3280.442a97.544,97.544,0,0,0-7.862-64.457c-.349-.7-1.489-.264-1.138.444a96.517,96.517,0,0,1,7.794,63.835C240.709,3281.033,241.916,3281.211,242.086,3280.442Z" fill="#00aeb4"/>
        </g>
      </g>
    </g>
  </g>
  <g id="Group_6004" data-name="Group 6004" transform="translate(-32.497 -3116.592)">
    <g id="Group_6000" data-name="Group 6000">
      <g id="Group_5998" data-name="Group 5998">
        <path id="Path_2279" data-name="Path 2279" d="M56.013,3258.782s7.7-.418,7.711-1.983c.006-1.218-4.7-.188-4.7-.188a58.825,58.825,0,0,0,7.536-2.717,4.211,4.211,0,0,0,1.422-1.02,1.506,1.506,0,0,0,.228-1.643c-.4-.686-1.363-.742-2.152-.645-3.174.382-5.4,2.079-8.26,3.513a26.028,26.028,0,0,0,5.693-3.951c1.6-1.43,3.467-2.773,4.535-4.688.668-1.2.934-2.969-.25-3.955-1.15-.957-2.8-.51-4.056-.066A16.539,16.539,0,0,0,55.4,3248a28.63,28.63,0,0,0,1.172-4.322c.111-.593.154-1.323-.337-1.673-.634-.455-1.481.153-1.974.757a14.88,14.88,0,0,0-2.67,4.967c.388-4.043.773-8.167-.106-12.131a6.389,6.389,0,0,0-1.045-2.557,2.774,2.774,0,0,0-2.392-1.166,3.636,3.636,0,0,0-2.18,1.371,12.057,12.057,0,0,0-.379,15.627,16.635,16.635,0,0,0-3.15-2.579c-.26-.163-.639-.3-.834-.067a.614.614,0,0,0-.083.453c.177,1.922,1.468,3.536,2.7,5.019a12.474,12.474,0,0,0-10.274-4.25,1.491,1.491,0,0,0-1.226.539,1.264,1.264,0,0,0-.113.785c.2,1.928,1.906,3.327,3.578,4.308,1.407.825,2.889,1.515,4.367,2.2a12.115,12.115,0,0,0-2.555-.091.707.707,0,0,0-.53.2c-.225.292.091.688.39.9a11.364,11.364,0,0,0,7.458,2.1" fill="#e0ecb6"/>
      </g>
      <g id="Group_5999" data-name="Group 5999">
        <path id="Path_2280" data-name="Path 2280" d="M64.758,3244.4c.094-.068.188.082.1.151a43.507,43.507,0,0,0-6.721,6.258,52.146,52.146,0,0,0-5.216,7.557.086.086,0,0,1-.151-.081A37.909,37.909,0,0,1,64.758,3244.4Zm-11.085,1.987a29.236,29.236,0,0,0-1.968,12.03.076.076,0,0,0,.152-.006,36.909,36.909,0,0,1,2.022-11.946c.043-.116-.159-.194-.206-.078Zm-4.876-7.965a55.866,55.866,0,0,0,1.644,20.094c.03.107.183.053.163-.051a88.6,88.6,0,0,1-1.563-10.152,85.028,85.028,0,0,1-.128-9.879c0-.068-.109-.08-.116-.012Zm-5.983,9.891c1.987,2.824,4.19,8.048,6.8,10.326a.108.108,0,0,0,.147-.159c-2.36-2.595-4.673-7.46-6.789-10.271-.072-.1-.23,0-.159.1Zm21.428,4.376a49.53,49.53,0,0,0-11.352,6.651c-.1.086,0,.262.117.182a79.934,79.934,0,0,1,11.285-6.671c.1-.044.048-.207-.05-.162Zm-24.523-.488c2.871,1.716,5.942,5.377,9.072,6.573.1.038.18-.1.08-.149-3.034-1.483-6.135-4.9-9.07-6.58-.1-.055-.18.1-.082.156Z" fill="#a2d45e" stroke="#a2d45e" stroke-miterlimit="10" stroke-width="0.25"/>
      </g>
    </g>
    <g id="Group_6003" data-name="Group 6003">
      <g id="Group_6001" data-name="Group 6001">
        <rect id="Rectangle_3170" data-name="Rectangle 3170" width="16.805" height="14.054" transform="translate(43.344 3258.322)" fill="#00b0c4"/>
      </g>
      <g id="Group_6002" data-name="Group 6002">
        <rect id="Rectangle_3171" data-name="Rectangle 3171" width="3.303" height="14.054" transform="translate(56.846 3258.322)" fill="#079aa3"/>
      </g>
    </g>
  </g>
  <rect id="Rectangle_3172" data-name="Rectangle 3172" width="228.043" height="30.659" transform="translate(13.215 174.589)" fill="#00b0c4" opacity="0.3"/>
  <path id="Path_2281" data-name="Path 2281" d="M118.727,3200.3c-9.575,2.368-8.723-9.16-28.395,2.579s-21.607,61.82-21.607,61.82,7.63,7.437,12.459,7.478c7.785.065,15.565,0,23.332.268,14.992.515,29.6,1.215,44.437,3.532,11.686,1.822,13.294-2.153,11.961-13.216-1.755-14.564-4.762-33.576-12.006-46.6-4.925-8.857-12.493-16.136-23.047-16.126-2.233,0-4.338-.373-6.547-.243a7.136,7.136,0,0,0-.323.771Z" transform="translate(-32.497 -3116.592)" fill="#76bc21"/>
  <path id="Path_2282" data-name="Path 2282" d="M140.355,3165.654c-3.269-7.972-5.9-27.039-25.919-18.262s-8.819,23.879-8.219,33.088c.416,6.432-3.283,16.986-10.472,20.579,5.154,7.248,15.957,14.763,27.058,11.158a12.784,12.784,0,0,0,8.783-10.552c.337-3.037-.843-2.41-2.463-4.784-1.219-1.787-.873-4.407-.749-6.39C144.418,3189.74,144.494,3175.748,140.355,3165.654Z" transform="translate(-32.497 -3116.592)" fill="#f9bb78"/>
  <g id="Group_6005" data-name="Group 6005" transform="translate(-32.497 -3116.592)">
    <path id="Path_2283" data-name="Path 2283" d="M118.554,3187.574c-.292-.359-.585-.726-.874-1.115A6.834,6.834,0,0,0,118.554,3187.574Z" fill="#bcb3c1" style="mix-blend-mode: multiply;isolation: isolate"/>
    <path id="Path_2284" data-name="Path 2284" d="M118.554,3187.574a29.192,29.192,0,0,0,9.64,7.879,17.382,17.382,0,0,1,.51-4.453C123.1,3191.459,119.947,3189.064,118.554,3187.574Z" fill="#bcb3c1" style="mix-blend-mode: multiply;isolation: isolate"/>
  </g>
  <path id="Path_2285" data-name="Path 2285" d="M102.113,3155.244c-3.263,6.227-1.157,15.027.81,21.332.875,2.806,2.9,7.479,6.256,5.666a15.792,15.792,0,0,0,3.628-3.724c-1.082-1.48-2.907-3.243-2.97-5.19-.081-2.487,1.36-2.712,3.1-1.353-4.691-10.588,15.714-5.394,20.07-6.694,6.46-1.926,10.584-11.705,1.205-12.271,5.992.053,5.387-4.889,1.394-7.267-8.771-5.22-27.154.323-32.679,8.165A11.821,11.821,0,0,0,102.113,3155.244Z" transform="translate(-32.497 -3116.592)" fill="#144998"/>
  <g id="Group_6020" data-name="Group 6020" transform="translate(-32.497 -3116.592)">
    <rect id="Rectangle_3173" data-name="Rectangle 3173" width="1.676" height="25.406" transform="matrix(0.986, -0.165, 0.165, 0.986, 137.281, 3217.634)" fill="#cacfff"/>
    <g id="Group_6006" data-name="Group 6006">
      <path id="Path_2286" data-name="Path 2286" d="M132.807,3234.625l.737-3.391,13.961-.777,1.266,3.28Z" fill="#292c54"/>
    </g>
    <g id="Group_6007" data-name="Group 6007">
      <path id="Path_2287" data-name="Path 2287" d="M131.493,3238.307l5.7,21.846.988-.085,9.046-.562.988-.084,2.392-22.762Z" fill="#fff"/>
    </g>
    <g id="Group_6008" data-name="Group 6008" opacity="0.25">
      <path id="Path_2288" data-name="Path 2288" d="M138.008,3253.541a1.465,1.465,0,0,1-1.717-1.166l-2.08-10.847a1.467,1.467,0,1,1,2.881-.553l2.081,10.847A1.47,1.47,0,0,1,138.008,3253.541Z" fill="#fff"/>
    </g>
    <g id="Group_6009" data-name="Group 6009" opacity="0.35">
      <path id="Path_2289" data-name="Path 2289" d="M137.246,3248.641a1.29,1.29,0,0,1-1.516-1.018l-.733-3.49a1.293,1.293,0,1,1,2.537-.5l.731,3.489A1.291,1.291,0,0,1,137.246,3248.641Z" fill="#fff"/>
    </g>
    <g id="Group_6010" data-name="Group 6010" style="mix-blend-mode: multiply;isolation: isolate">
      <path id="Path_2290" data-name="Path 2290" d="M132.807,3234.625l15.964-.888-.231-.6-15.6.868Z" fill="#cec0cb"/>
    </g>
    <g id="Group_6011" data-name="Group 6011">
      <path id="Path_2291" data-name="Path 2291" d="M152.779,3237.089l-23.588,1.313-.157-2.853a.911.911,0,0,1,.86-.963l21.764-1.212a.914.914,0,0,1,.963.862Z" fill="#292c54"/>
    </g>
    <g id="Group_6019" data-name="Group 6019" opacity="0.4">
      <g id="Group_6012" data-name="Group 6012">
        <path id="Path_2292" data-name="Path 2292" d="M142.1,3237.439l-.078-1.41a1.013,1.013,0,0,0-2.022.113l.077,1.41Z" fill="#fff"/>
      </g>
      <g id="Group_6013" data-name="Group 6013">
        <path id="Path_2293" data-name="Path 2293" d="M145.354,3237.26l-.078-1.41a1.013,1.013,0,1,0-2.022.111l.078,1.41Z" fill="#fff"/>
      </g>
      <g id="Group_6014" data-name="Group 6014">
        <path id="Path_2294" data-name="Path 2294" d="M151.852,3236.9l-.08-1.41a1.012,1.012,0,1,0-2.02.113l.078,1.41Z" fill="#fff"/>
      </g>
      <g id="Group_6015" data-name="Group 6015">
        <path id="Path_2295" data-name="Path 2295" d="M148.6,3237.079l-.079-1.41a1.011,1.011,0,1,0-2.019.112l.077,1.41Z" fill="#fff"/>
      </g>
      <g id="Group_6016" data-name="Group 6016">
        <path id="Path_2296" data-name="Path 2296" d="M138.854,3237.621l-.078-1.41a1.012,1.012,0,1,0-2.021.112l.079,1.409Z" fill="#fff"/>
      </g>
      <g id="Group_6017" data-name="Group 6017">
        <path id="Path_2297" data-name="Path 2297" d="M132.355,3237.981l-.078-1.409a1.012,1.012,0,1,0-2.02.113l.077,1.41Z" fill="#fff"/>
      </g>
      <g id="Group_6018" data-name="Group 6018">
        <path id="Path_2298" data-name="Path 2298" d="M135.606,3237.8l-.079-1.412a1.012,1.012,0,1,0-2.02.113l.077,1.41Z" fill="#fff"/>
      </g>
    </g>
  </g>
  <g id="Group_6035" data-name="Group 6035" transform="translate(-32.497 -3116.592)">
    <rect id="Rectangle_3174" data-name="Rectangle 3174" width="22.035" height="1.452" transform="translate(184.033 3255.894) rotate(-83.627)" fill="#cacfff"/>
    <g id="Group_6021" data-name="Group 6021">
      <path id="Path_2299" data-name="Path 2299" d="M192.6,3248.659l-.8-2.9-12.128-.012-.939,2.9Z" fill="#292c54"/>
    </g>
    <g id="Group_6022" data-name="Group 6022">
      <path id="Path_2300" data-name="Path 2300" d="M193.914,3251.785l-3.9,19.188-.859-.025-7.86-.06-.861-.025-3.147-19.6Z" fill="#fff"/>
    </g>
    <g id="Group_6023" data-name="Group 6023" opacity="0.25">
      <path id="Path_2301" data-name="Path 2301" d="M188.994,3265.285a1.272,1.272,0,0,0,1.432-1.091l1.286-9.492a1.272,1.272,0,0,0-2.521-.343l-1.288,9.493A1.275,1.275,0,0,0,188.994,3265.285Z" fill="#fff"/>
    </g>
    <g id="Group_6024" data-name="Group 6024" opacity="0.35">
      <path id="Path_2302" data-name="Path 2302" d="M189.422,3261.007a1.12,1.12,0,0,0,1.266-.954l.467-3.057a1.121,1.121,0,0,0-2.221-.311l-.467,3.059A1.121,1.121,0,0,0,189.422,3261.007Z" fill="#fff"/>
    </g>
    <g id="Group_6025" data-name="Group 6025" style="mix-blend-mode: multiply;isolation: isolate">
      <path id="Path_2303" data-name="Path 2303" d="M192.6,3248.659l-13.869-.013.172-.533,13.549.012Z" fill="#cec0cb"/>
    </g>
    <g id="Group_6026" data-name="Group 6026">
      <path id="Path_2304" data-name="Path 2304" d="M175.422,3251.737l20.489.021v-2.48a.791.791,0,0,0-.791-.793l-18.9-.016a.791.791,0,0,0-.793.791Z" fill="#292c54"/>
    </g>
    <g id="Group_6034" data-name="Group 6034" opacity="0.4">
      <g id="Group_6027" data-name="Group 6027">
        <path id="Path_2305" data-name="Path 2305" d="M184.686,3251.535v-1.225a.877.877,0,0,1,1.755,0v1.226Z" fill="#fff"/>
      </g>
      <g id="Group_6028" data-name="Group 6028">
        <path id="Path_2306" data-name="Path 2306" d="M181.861,3251.533v-1.224a.879.879,0,1,1,1.758,0l0,1.225Z" fill="#fff"/>
      </g>
      <g id="Group_6029" data-name="Group 6029">
        <path id="Path_2307" data-name="Path 2307" d="M176.218,3251.527V3250.3a.877.877,0,1,1,1.754,0v1.222Z" fill="#fff"/>
      </g>
      <g id="Group_6030" data-name="Group 6030">
        <path id="Path_2308" data-name="Path 2308" d="M179.039,3251.529l0-1.222a.877.877,0,1,1,1.754,0v1.226Z" fill="#fff"/>
      </g>
      <g id="Group_6031" data-name="Group 6031">
        <path id="Path_2309" data-name="Path 2309" d="M187.508,3251.539v-1.225a.878.878,0,0,1,1.756,0l0,1.225Z" fill="#fff"/>
      </g>
      <g id="Group_6032" data-name="Group 6032">
        <path id="Path_2310" data-name="Path 2310" d="M193.152,3251.543v-1.225a.878.878,0,1,1,1.755,0v1.223Z" fill="#fff"/>
      </g>
      <g id="Group_6033" data-name="Group 6033">
        <path id="Path_2311" data-name="Path 2311" d="M190.328,3251.541l0-1.224a.878.878,0,1,1,1.756,0v1.225Z" fill="#fff"/>
      </g>
    </g>
  </g>
  <path id="Path_2312" data-name="Path 2312" d="M110.275,3254.9c6.2-3.889,16.274-7.163,20.217-8.45a70.375,70.375,0,0,1,10.324-2.338c1.011-.183,8.086-1.607,8.7-.019s-12.072,3.979-12.072,3.979,13.647-2.169,14.185-.4c.557,1.835-13.282,3.525-13.282,3.525s13.177-2.153,13.45-.582-12.662,3.553-12.662,3.553,10.116-.547,10.431-.125-2.046.127-6.5,2.258-20.6,4.037-26.9,4.326S104.079,3258.787,110.275,3254.9Z" transform="translate(-32.497 -3116.592)" fill="#f9bb78"/>
  <path id="Path_2313" data-name="Path 2313" d="M83.73,3205.876c-6.837,2.563-31.21,55.819-20.407,62.421s48.618-7.2,58.822-6.6l-3-12.6s-24.61.6-29.411,2.4,8.383-14.374,5.993-30.594S88.531,3204.075,83.73,3205.876Z" transform="translate(-32.497 -3116.592)" fill="#61a60e"/>
  <path id="Path_2314" data-name="Path 2314" d="M220.884,3197.976c0,4.065-1.95,7.36-4.358,7.36s-4.356-3.295-4.356-7.36,1.951-7.363,4.356-7.363S220.884,3193.909,220.884,3197.976Z" transform="translate(-32.497 -3116.592)" fill="#292c54"/>
  <path id="Path_2315" data-name="Path 2315" d="M211.7,3176.539c-5.1,4.662-4.274,10.508.828,14.7-2.646,2.638-5.53,3.63-6.948,7.236a22.435,22.435,0,0,0-.95,10.681,8.01,8.01,0,0,0,6.486,6.938c2.526.551,8.8.545,9.321-2.766,1.145,8.422,10.76,9.756,17.213,5.8a21.673,21.673,0,0,0,8.057-9.842c1.276-3.051,1.727-7.857,2.14-11.115.458-3.6-.729-8.078-2.147-11.368q-2.721-6.309-5.175-12.958c-4.433-12.067-15.007-12.426-25.416-7.215Z" transform="translate(-32.497 -3116.592)" fill="#144998"/>
  <path id="Path_2316" data-name="Path 2316" d="M235.449,3194.094s-1.2,6.309,1.5,11.117,9.618,9.915,9.618,9.915-11.718,16.224-34.853,3.306c0,0,15.623-17.127,11.717-26.741C223.43,3191.691,229.139,3198.3,235.449,3194.094Z" transform="translate(-32.497 -3116.592)" fill="#ffcc8b"/>
  <path id="Path_2317" data-name="Path 2317" d="M223.43,3191.691c2.3,5.674-2.192,13.963-6.265,19.807,9.656-9.351,18.284-17.4,18.284-17.4C229.139,3198.3,223.43,3191.691,223.43,3191.691Z" transform="translate(-32.497 -3116.592)" fill="#bcb3c1" style="mix-blend-mode: multiply;isolation: isolate"/>
  <path id="Path_2318" data-name="Path 2318" d="M212.984,3172.864s3.273,26.575,14.135,25.577,16.8-18.926,14-29.693S222.018,3146.84,212.984,3172.864Z" transform="translate(-32.497 -3116.592)" fill="#ffcc8b"/>
  <path id="Path_2319" data-name="Path 2319" d="M225.806,3168.43c-1.239.259-1.628,1.64-2.4,2.81-2,3.022-4.579,5.453-8.227,6.219-2.58.541-6.448-.029-7.329-3-.505-1.7.447-2.64,1.1-4.059.4-.859,1.191-1.325,1.555-2.2.223-.535-.09-1.8.152-2.541,1.95-5.99,7.43-13.108,13.71-14.661,13.953-3.447,37.4,14.825,28.814,28.6,8.471,7.4,25.12,43.576,10.975,51.994s-20.441-14.737-23.3-21.746c-3.045-7.477.292-12.948,1.9-19.758-.242,1.023-4.012-1.528-4.333-1.983-.984-1.377-.888-3.3-.725-4.89.492-4.784,1.978-8.011-2.12-12.061-1.621-1.6-3.141-.955-5.128-1-1.748-.036-2.432-1.574-3.869-1.753A2.359,2.359,0,0,0,225.806,3168.43Z" transform="translate(-32.497 -3116.592)" fill="#144998"/>
  <path id="Path_2320" data-name="Path 2320" d="M238.205,3208.957c.443-.393,6.983,2.443,7.959,2.83,3.381,1.344,6.977,3.556,8.042,7.277,1.456,5.077-1.787,10.374-4.2,20.95s3.587,40.588,3.587,40.588-7.8-.469-14.3-1.247c-4.7-.564-9.51-.626-14.232-.931-1.505-.1-21.974-1.971-22.1-1.423,0,0,4.359-18.845.968-24.947s-10.841-11.615-2.027-25.853a96.145,96.145,0,0,1,14.329-14.023s-3.01,3.94.294,5.2S228.34,3218.1,238.205,3208.957Z" transform="translate(-32.497 -3116.592)" fill="#004987"/>
  <path id="Path_2321" data-name="Path 2321" d="M278.258,3282.533c1.24,7.44,4.465,28.28-5.491,29.795-4.565.7-9.316-8.52-15.276-7.988-7.246.647-7.513,6.525-16.2,3.644-5.969-1.979-9.09-7.561-16.21-6.569-7.932,1.1-9.177,6.95-18,4.321-6.068-1.805-11.556-7.9-18.007-7.9-7.193,0-9.063,6.371-14.585,8.792-8.563,3.755-15.2-3.4-23.227-5.394-9.364-2.324-14.374.945-22.306,4.946-8.494,4.283-10.652,2.211-20.01-.446-9.062-2.573-13.339-1.24-21.381,3.147-9.507,5.185-9.657,3.639-19.089-.424-10.254-4.416-10.553.879-19.128,3.623-16.486,5.274-8.526-41.536-8.526-41.536a48.811,48.811,0,0,1,18.038.3c15.586,3.189,34.516,0,50.432,0H213.207c16.662,0,33.461-.621,50.114,0,9.575.355,13.144,1.023,14.844,11.14C278.193,3282.161,278.225,3282.343,278.258,3282.533Z" transform="translate(-32.497 -3116.592)" fill="#00b0c4"/>
  <path id="Path_2322" data-name="Path 2322" d="M251.816,3216.016c-6.277-4.866-15.033,1.863-11.166,13.082s14.44,31.4,14.44,31.4l-26.259,2.683s-20.5,2.569-23.259,3.384a24.248,24.248,0,0,0-8.685,4.962c-4.459,3.832-9.337,11.883-8.655,12.806s7.227-8.453,7.933-7.967-7.143,10.042-5.47,11.116,4.648-6.734,7.4-8.871c-.695,3.665-2.769,10.018-1.47,10.658s3.282-7.038,4.149-8.709c-.158,2.814-.6,8.684.9,8.791s.642-5.611,1.509-8.154a11.25,11.25,0,0,1,4.479-5.761c3.2-2.212,6.918-3.276,10.642-4.116,12.375,1.21,40.809,3.37,48.608-1.4C276.968,3263.775,258.092,3220.881,251.816,3216.016Z" transform="translate(-32.497 -3116.592)" fill="#ffcc8b"/>
</svg>
