<svg id="Component_26_1" data-name="Component 26 – 1" xmlns="http://www.w3.org/2000/svg" width="236.495" height="213.194" viewBox="0 0 236.495 213.194">
  <path id="Path_2323" data-name="Path 2323" d="M54.978,189.749C46.661,174.383,43.834,140.3,64.356,109c6.578-10.029,16.1-17.2,13.653-32.824-3.878-24.69,18.175-45.288,46.368-35.022,16.651,6.065,21.67,22.841,39.555,16.178,14.477-5.4,34.056-9.758,47.117,4.264,9.362,10.052,9.919,20.689,7.552,37.959C217.087,110.6,224.383,117.645,229.32,124c10.427,13.41,15.6,36.574,8.5,62.186-9.277,33.458-45.158,48.523-79.191,48.618C114.362,234.919,76,228.6,54.978,189.749Z" transform="translate(-44.17 -31.502)" fill="#f7f7f7"/>
  <g id="Group_6042" data-name="Group 6042" transform="translate(-44.17 -31.502)">
    <g id="Group_6036" data-name="Group 6036">
      <path id="Path_2324" data-name="Path 2324" d="M133.011,136.7c2.189-2.769,6.337-4.435,10.069-4.789,5.463-.517,11.451.237,16.006-2.826,6.8-4.576,6.369-14.785,3.6-22.5s-7.182-15.494-5.759-23.566c2.079-11.787,18.809-17.782,27.9-10,5.755,4.928,8.352,13.695,15.506,16.192,6.954,2.428,14.115-2.43,20.11-6.712,9.175-6.554,22.634-8.42,31.761-.121,3.024,2.748,4.53,7.633,2.225,11.006-1.824,2.671-5.277,3.555-8.089,5.155s-5.261,5.241-3.41,7.9a6.18,6.18,0,0,0,2.8,1.965c6.282,2.642,13.38,2.251,20.067,3.568s13.823,5.426,14.769,12.174c.7,5-2.243,9.763-5.451,13.669-23.268,28.338-64.5,35.864-100.656,29.75-15.225-2.576-31.144-7.9-40.367-20.289a11.181,11.181,0,0,1-2.617-6.028A6.779,6.779,0,0,1,133.011,136.7Z" fill="#d2ea8e"/>
    </g>
    <g id="Group_6041" data-name="Group 6041">
      <g id="Group_6037" data-name="Group 6037">
        <path id="Path_2325" data-name="Path 2325" d="M201.744,225.009l2.892-125.142,6.335,125.142Z" fill="#a39383"/>
      </g>
      <g id="Group_6038" data-name="Group 6038">
        <path id="Path_2326" data-name="Path 2326" d="M204.636,159.841l16.292-28.061-15.989,33.752Z" fill="#a39383"/>
      </g>
      <g id="Group_6039" data-name="Group 6039">
        <path id="Path_2327" data-name="Path 2327" d="M204.636,145.692,190.152,111.3l13.836,42.2Z" fill="#a39383"/>
      </g>
      <g id="Group_6040" data-name="Group 6040">
        <path id="Path_2328" data-name="Path 2328" d="M204.41,167.431l-18.783-16.642,19.009,20.817Z" fill="#a39383"/>
      </g>
    </g>
  </g>
  <g id="Group_6049" data-name="Group 6049" transform="translate(-44.17 -31.502)">
    <g id="Group_6043" data-name="Group 6043">
      <path id="Path_2329" data-name="Path 2329" d="M278.1,188.8a7.327,7.327,0,0,0-4.882-2.322c-2.65-.251-5.554.115-7.761-1.371-3.3-2.218-3.09-7.168-1.744-10.91s3.482-7.511,2.793-11.426c-1.009-5.715-9.121-8.622-13.529-4.846-2.791,2.388-4.05,6.638-7.518,7.849-3.372,1.179-6.845-1.177-9.752-3.253-4.449-3.177-10.975-4.082-15.4-.059-1.466,1.332-2.2,3.7-1.079,5.337.885,1.3,2.559,1.722,3.922,2.5s2.55,2.541,1.655,3.829a3.011,3.011,0,0,1-1.358.952c-3.048,1.281-6.487,1.091-9.73,1.729s-6.7,2.631-7.162,5.9c-.339,2.428,1.088,4.734,2.642,6.628,11.283,13.741,31.277,17.39,48.808,14.425,7.383-1.248,15.1-3.831,19.575-9.836a5.446,5.446,0,0,0,1.27-2.924A3.283,3.283,0,0,0,278.1,188.8Z" fill="#d2ea8e"/>
    </g>
    <g id="Group_6048" data-name="Group 6048">
      <g id="Group_6044" data-name="Group 6044">
        <path id="Path_2330" data-name="Path 2330" d="M244.774,231.626l-1.4-60.68-3.073,60.68Z" fill="#a39383"/>
      </g>
      <g id="Group_6045" data-name="Group 6045">
        <path id="Path_2331" data-name="Path 2331" d="M243.373,200.026l-7.9-13.6,7.754,16.363Z" fill="#a39383"/>
      </g>
      <g id="Group_6046" data-name="Group 6046">
        <path id="Path_2332" data-name="Path 2332" d="M243.373,193.167l7.021-16.678-6.707,20.462Z" fill="#a39383"/>
      </g>
      <g id="Group_6047" data-name="Group 6047">
        <path id="Path_2333" data-name="Path 2333" d="M243.481,203.707l9.108-8.068-9.217,10.093Z" fill="#a39383"/>
      </g>
    </g>
  </g>
  <g id="Group_6056" data-name="Group 6056" transform="translate(-44.17 -31.502)">
    <g id="Group_6050" data-name="Group 6050">
      <path id="Path_2334" data-name="Path 2334" d="M110.971,167.37a6.368,6.368,0,0,0-4.246-2.018c-2.3-.218-4.83.1-6.75-1.193-2.869-1.93-2.687-6.234-1.517-9.488s3.028-6.533,2.43-9.937c-.878-4.969-7.933-7.5-11.765-4.213-2.428,2.076-3.523,5.772-6.539,6.826-2.933,1.023-5.952-1.026-8.48-2.83-3.87-2.764-9.545-3.549-13.394-.051-1.276,1.158-1.909,3.217-.939,4.64.77,1.126,2.226,1.5,3.411,2.175s2.217,2.209,1.439,3.329a2.619,2.619,0,0,1-1.18.829c-2.651,1.115-5.642.949-8.462,1.5s-5.831,2.289-6.229,5.135c-.295,2.112.947,4.117,2.3,5.764,9.812,11.95,27.2,15.123,42.446,12.545,6.42-1.086,13.134-3.332,17.023-8.555a4.721,4.721,0,0,0,1.1-2.542A2.865,2.865,0,0,0,110.971,167.37Z" fill="#d2ea8e"/>
    </g>
    <g id="Group_6055" data-name="Group 6055">
      <g id="Group_6051" data-name="Group 6051">
        <path id="Path_2335" data-name="Path 2335" d="M81.986,204.61l-1.218-52.769L78.1,204.61Z" fill="#a39383"/>
      </g>
      <g id="Group_6052" data-name="Group 6052">
        <path id="Path_2336" data-name="Path 2336" d="M80.768,177.13,73.9,165.3l6.743,14.231Z" fill="#a39383"/>
      </g>
      <g id="Group_6053" data-name="Group 6053">
        <path id="Path_2337" data-name="Path 2337" d="M80.768,171.165l6.106-14.5-5.833,17.795Z" fill="#a39383"/>
      </g>
      <g id="Group_6054" data-name="Group 6054">
        <path id="Path_2338" data-name="Path 2338" d="M80.861,180.331l7.922-7.017-8.016,8.776Z" fill="#a39383"/>
      </g>
    </g>
  </g>
  <g id="Group_6127" data-name="Group 6127" transform="translate(-44.17 -31.502)">
    <g id="Group_6058" data-name="Group 6058">
      <g id="Group_6057" data-name="Group 6057">
        <path id="Path_2339" data-name="Path 2339" d="M60.888,191.7a37.582,37.582,0,0,1,12.13-6.842c17.413-5.834,38.415,2.254,47.417,18.26,3.569,6.344,7.086,14.863,14.365,14.9,7.15.029,8.277-6.788,12.723-10.451,3.617-2.981,8.224-2.891,12.5-1.893,7.5,1.748,14.687,6.068,22.474,6.43,9.237.427,15.47-5.957,23.432-9.444a33.873,33.873,0,0,1,46.976,25.3c.228,1.318.307,2.861-.654,3.795a4.484,4.484,0,0,1-3.2.834q-98.542-.009-197.085.012c-1.591,0-3.361-.069-4.49-1.19A5.728,5.728,0,0,1,46.165,228C44.34,214.453,50.46,200.408,60.888,191.7Z" fill="#e0ecb6"/>
      </g>
    </g>
    <g id="Group_6071" data-name="Group 6071">
      <g id="Group_6061" data-name="Group 6061">
        <g id="Group_6060" data-name="Group 6060">
          <g id="Group_6059" data-name="Group 6059">
            <path id="Path_2340" data-name="Path 2340" d="M69.279,194.549c4.638,3.082,8.159,8.014,10.807,12.82a52.381,52.381,0,0,1,6.392,24.754,1.109,1.109,0,0,0,2.216,0A54.742,54.742,0,0,0,82,206.252c-2.847-5.152-6.64-10.32-11.6-13.615-1.191-.791-2.3,1.127-1.118,1.912Z" fill="#a2d45e"/>
          </g>
        </g>
      </g>
      <g id="Group_6064" data-name="Group 6064">
        <g id="Group_6063" data-name="Group 6063">
          <g id="Group_6062" data-name="Group 6062">
            <path id="Path_2341" data-name="Path 2341" d="M78.644,194.309c-.079-.534-.016-.084,0,.076.015.209.024.42.027.629,0,.273,0,.549-.016.822-.008.154-.02.309-.034.461-.007.074-.015.146-.024.221-.021.2.045-.286,0,.029a7.951,7.951,0,0,1-.212.98c-.043.153-.092.3-.148.45-.015.043-.032.084-.047.125-.045.111-.034.084.032-.08a1.245,1.245,0,0,0-.113.242,4.245,4.245,0,0,1-.235.4c-.024.039-.05.074-.074.11-.069.093-.052.072.054-.067a1.373,1.373,0,0,0-.172.2c-.045.047-.09.094-.138.139-.031.031-.064.059-.1.088-.089.074-.065.057.07-.051-.153.055-.308.207-.459.281a1.116,1.116,0,0,0-.4,1.516,1.138,1.138,0,0,0,1.517.4c2.271-1.149,2.773-4.108,2.71-6.4a9.9,9.9,0,0,0-.1-1.15,1.111,1.111,0,0,0-1.362-.774,1.143,1.143,0,0,0-.774,1.364Z" fill="#a2d45e"/>
          </g>
        </g>
      </g>
      <g id="Group_6067" data-name="Group 6067">
        <g id="Group_6066" data-name="Group 6066">
          <g id="Group_6065" data-name="Group 6065">
            <path id="Path_2342" data-name="Path 2342" d="M72.167,206.57a10.7,10.7,0,0,0,3.009,1.266,5.434,5.434,0,0,0,4.941-.76,1.111,1.111,0,0,0,0-1.568,1.143,1.143,0,0,0-1.567,0c.214-.17.015-.014-.037.021a2.776,2.776,0,0,1-.242.141c-.038.018-.278.1-.117.06s-.094.028-.127.038c-.093.027-.4.154-.5.115l.137-.018c-.052.006-.107.012-.157.016-.082.006-.16.01-.241.014-.16,0-.323,0-.484-.012-.081,0-.16-.014-.24-.022-.279-.023.246.045-.027,0a9.39,9.39,0,0,1-.981-.22c-.3-.086-.6-.192-.893-.3-.066-.025-.13-.053-.2-.078-.2-.08.222.1.018.006-.112-.053-.226-.1-.338-.153a7.38,7.38,0,0,1-.841-.451,1.12,1.12,0,0,0-1.517.4,1.133,1.133,0,0,0,.4,1.515Z" fill="#a2d45e"/>
          </g>
        </g>
      </g>
      <g id="Group_6070" data-name="Group 6070">
        <g id="Group_6069" data-name="Group 6069">
          <g id="Group_6068" data-name="Group 6068">
            <path id="Path_2343" data-name="Path 2343" d="M76.267,216.932c3.6,1.381,7.667,1.484,10.676-1.229a13.7,13.7,0,0,0,3.8-7.129,11.255,11.255,0,0,0,.374-2.377,1.109,1.109,0,0,0-2.216,0c0,.178-.033.356-.049.531.046-.458-.015.083-.035.208q-.054.313-.118.625a17.059,17.059,0,0,1-.942,3.1c.085-.2-.054.119-.083.186-.067.15-.141.3-.213.451-.144.287-.3.568-.464.846a7.474,7.474,0,0,1-1.056,1.443,6.164,6.164,0,0,1-3.15,1.934,10.2,10.2,0,0,1-5.933-.723,1.119,1.119,0,0,0-1.364.773,1.138,1.138,0,0,0,.776,1.366Z" fill="#a2d45e"/>
          </g>
        </g>
      </g>
    </g>
    <g id="Group_6074" data-name="Group 6074">
      <g id="Group_6073" data-name="Group 6073">
        <g id="Group_6072" data-name="Group 6072">
          <path id="Path_2344" data-name="Path 2344" d="M194.112,232.994c5.115-6.922,15.249-8.58,23.279-8.4,7.85.176,17.51,2.125,22.669,8.621.886,1.115,2.445-.461,1.567-1.569-5.614-7.066-16.228-9.179-24.761-9.279-8.8-.1-19.14,2.024-24.667,9.5-.848,1.149,1.073,2.256,1.913,1.119Z" fill="#a2d45e"/>
        </g>
      </g>
    </g>
    <g id="Group_6077" data-name="Group 6077">
      <g id="Group_6076" data-name="Group 6076">
        <g id="Group_6075" data-name="Group 6075">
          <path id="Path_2345" data-name="Path 2345" d="M196.855,220.285a7.79,7.79,0,0,0,1.09.076c.255.012.507.03.76.055l.189.024c.281.029-.2-.036-.014,0,.158.023.315.048.473.078a9.091,9.091,0,0,1,1.005.246c.163.049.326.105.485.164.076.029.151.062.227.09-.3-.112.009.008.09.045a6.868,6.868,0,0,1,1,.591c.222.157-.1-.1.041.032.075.07.155.131.229.2a5.831,5.831,0,0,1,.433.443c.034.041.068.084.1.121.168.194-.081-.127,0,0,.066.106.144.2.21.305a7.479,7.479,0,0,1,.369.682c.02.043.077.193-.006-.018.023.055.046.114.067.172.049.133.094.268.134.4a7.6,7.6,0,0,1,.213.94,1.119,1.119,0,0,0,1.365.775,1.135,1.135,0,0,0,.773-1.363,6.966,6.966,0,0,0-3.332-4.939,10.266,10.266,0,0,0-4.453-1.231c-.246-.017-.493-.027-.742-.035-.177-.006-.657-.084-.117.018a1.137,1.137,0,0,0-1.364.773,1.12,1.12,0,0,0,.776,1.363Z" fill="#a2d45e"/>
        </g>
      </g>
    </g>
    <g id="Group_6080" data-name="Group 6080">
      <g id="Group_6079" data-name="Group 6079">
        <g id="Group_6078" data-name="Group 6078">
          <path id="Path_2346" data-name="Path 2346" d="M201.011,215.2a6.406,6.406,0,0,0,.338.545c.1.166.189.334.271.508.049.1.162.443.046.088.036.111.086.219.122.33.076.23.091.5.179.721-.043-.108-.027-.243-.009-.042.006.067.011.131.013.194,0,.135,0,.264-.011.4-.012.213.054-.253,0-.027-.016.068-.026.133-.044.2s-.029.113-.048.168c-.011.035-.021.068-.033.1-.033.09-.033.09,0,0s.037-.086,0,0l-.049.1c-.036.069-.072.137-.114.2s-.088.133-.132.2-.029.043.049-.061c-.036.045-.073.088-.112.133a1.108,1.108,0,1,0,1.568,1.566,4.269,4.269,0,0,0,1.069-2.16,4.9,4.9,0,0,0-.14-2.113,7.219,7.219,0,0,0-.653-1.514c-.126-.22-.295-.429-.4-.658a1.115,1.115,0,0,0-1.518-.4,1.138,1.138,0,0,0-.4,1.515Z" fill="#a2d45e"/>
        </g>
      </g>
    </g>
    <g id="Group_6083" data-name="Group 6083">
      <g id="Group_6082" data-name="Group 6082">
        <g id="Group_6081" data-name="Group 6081">
          <path id="Path_2347" data-name="Path 2347" d="M202.583,221.09c-.246.162-.46.377-.69.562-.034.026-.066.051-.1.078.28-.238.152-.115.079-.064s-.173.127-.261.186a6.289,6.289,0,0,1-.591.355c-.1.053-.217.1-.318.152.276-.158.124-.052.04-.019q-.085.031-.174.06a3.941,3.941,0,0,1-.39.108c-.061.012-.125.019-.186.035-.088.016-.043.008.135-.018-.041.006-.085.008-.128.012a3.644,3.644,0,0,1-.392.008c-.065,0-.132-.016-.2-.018.311.01.116.014.027,0-.14-.032-.274-.077-.409-.118-.208-.064.211.1-.046-.021-.082-.041-.162-.084-.242-.131a1.107,1.107,0,1,0-1.118,1.912,4.242,4.242,0,0,0,2.251.594,5.222,5.222,0,0,0,2.057-.537,7.235,7.235,0,0,0,1.4-.9c.128-.1.255-.2.377-.308.146-.123.349-.246,0-.014a1.108,1.108,0,1,0-1.119-1.912Z" fill="#a2d45e"/>
        </g>
      </g>
    </g>
    <g id="Group_6096" data-name="Group 6096">
      <g id="Group_6086" data-name="Group 6086">
        <g id="Group_6085" data-name="Group 6085">
          <g id="Group_6084" data-name="Group 6084">
            <path id="Path_2348" data-name="Path 2348" d="M110.993,207.2c-.031,3.766-1.516,7.584-3.262,10.862a35.64,35.64,0,0,1-11.74,12.878c-1.182.787-.074,2.707,1.119,1.912a37.984,37.984,0,0,0,12.535-13.671c1.93-3.623,3.53-7.819,3.564-11.981a1.109,1.109,0,0,0-2.216,0Z" fill="#a2d45e"/>
          </g>
        </g>
      </g>
      <g id="Group_6089" data-name="Group 6089">
        <g id="Group_6088" data-name="Group 6088">
          <g id="Group_6087" data-name="Group 6087">
            <path id="Path_2349" data-name="Path 2349" d="M114.782,212.272c-.025.019-.051.041-.077.062-.187.154.189-.139.1-.072-.115.084-.227.168-.344.246a7.632,7.632,0,0,1-1.048.6c-.049.02-.1.042-.145.065.315-.154.147-.061.067-.029-.11.041-.222.08-.332.115s-.228.066-.341.092l-.16.031-.105.018.189-.028a.9.9,0,0,1-.347.02c-.06,0-.123,0-.185-.006-.191-.01.288.055.087.014-.1-.024-.206-.044-.305-.077-.035-.011-.067-.025-.1-.037l.166.07c-.055,0-.147-.074-.193-.1a1.109,1.109,0,1,0-1.118,1.916,4.145,4.145,0,0,0,3.8-.084,7.711,7.711,0,0,0,1.969-1.244,1.115,1.115,0,0,0,0-1.566,1.134,1.134,0,0,0-1.568,0Z" fill="#a2d45e"/>
          </g>
        </g>
      </g>
      <g id="Group_6092" data-name="Group 6092">
        <g id="Group_6091" data-name="Group 6091">
          <g id="Group_6090" data-name="Group 6090">
            <path id="Path_2350" data-name="Path 2350" d="M105.148,213.381a7.84,7.84,0,0,0,.229,1.685,5.75,5.75,0,0,0,1.194,2.491,3.294,3.294,0,0,0,1.479.957,1.118,1.118,0,0,0,1.364-.774,1.133,1.133,0,0,0-.775-1.363.488.488,0,0,0-.121-.043c-.013,0,.247.113.166.07a.592.592,0,0,1-.058-.027,1.74,1.74,0,0,1-.251-.145c-.148-.1.054.026.091.075a.882.882,0,0,0-.094-.08,2.154,2.154,0,0,1-.192-.19c-.029-.031-.054-.062-.081-.1-.121-.142.107.151.07.094-.05-.078-.1-.15-.154-.228a5.09,5.09,0,0,1-.254-.492c-.072-.155.1.265.045.107-.016-.041-.032-.08-.047-.117-.031-.088-.061-.174-.09-.26-.052-.168-.1-.338-.143-.51-.034-.152-.065-.305-.092-.457-.014-.072-.025-.144-.035-.219-.039-.24.037.325.006.067a4.96,4.96,0,0,1-.041-.545,1.108,1.108,0,1,0-2.216,0Z" fill="#a2d45e"/>
          </g>
        </g>
      </g>
      <g id="Group_6095" data-name="Group 6095">
        <g id="Group_6094" data-name="Group 6094">
          <g id="Group_6093" data-name="Group 6093">
            <path id="Path_2351" data-name="Path 2351" d="M100.718,219.732c.578,2.69,2.117,5.206,4.91,5.954a9.73,9.73,0,0,0,5.75-.469,8.084,8.084,0,0,0,1.585-.7c1.2-.764.091-2.684-1.116-1.913a3.434,3.434,0,0,1-.325.168c-.089.045-.183.084-.275.127-.228.106.078-.027.042-.015-.076.025-.15.06-.225.09a11.726,11.726,0,0,1-2.089.609c-.1.021-.21.035-.314.057-.26.047.139-.01-.066.009-.234.022-.464.049-.7.057-.211.01-.42.01-.629,0-.113,0-.226-.014-.338-.021l-.168-.02c.079.008.178.029.042.006-.226-.041-.45-.086-.67-.149-.112-.033-.221-.07-.329-.1-.042-.014-.082-.031-.123-.045-.127-.047.174.084-.018-.006a6.035,6.035,0,0,1-.627-.344c-.04-.027-.282-.195-.188-.126.056.042-.189-.159-.251-.215-.108-.1-.211-.207-.312-.317-.038-.041-.287-.349-.185-.213a6.04,6.04,0,0,1-.53-.853,8.614,8.614,0,0,1-.715-2.156,1.109,1.109,0,1,0-2.138.587Z" fill="#a2d45e"/>
          </g>
        </g>
      </g>
    </g>
    <g id="Group_6106" data-name="Group 6106">
      <g id="Group_6099" data-name="Group 6099">
        <g id="Group_6098" data-name="Group 6098">
          <g id="Group_6097" data-name="Group 6097">
            <path id="Path_2352" data-name="Path 2352" d="M171.587,214.66c-7.789.533-11.436,8.344-12.753,15.106q-.151.772-.265,1.552c-.035.241-.068.481-.1.723-.045.346.049-.273.006-.041-.262,1.4,1.875,1.992,2.137.59.025-.137.038-.277.056-.416.043-.315-.041.279.011-.067.055-.38.112-.759.179-1.138a32.344,32.344,0,0,1,.87-3.7,17.391,17.391,0,0,1,4.707-8.239,8.671,8.671,0,0,1,5.153-2.15c1.416-.1,1.426-2.312,0-2.215Z" fill="#a2d45e"/>
          </g>
        </g>
      </g>
      <g id="Group_6102" data-name="Group 6102">
        <g id="Group_6101" data-name="Group 6101">
          <g id="Group_6100" data-name="Group 6100">
            <path id="Path_2353" data-name="Path 2353" d="M161.792,212.176a5.076,5.076,0,0,0-1.146,5.129,7.127,7.127,0,0,0,.917,2.14,2.689,2.689,0,0,0,1.559,1.3,1.108,1.108,0,0,0,.589-2.137.338.338,0,0,1-.118-.031c.027.016.308.139.142.049s.086.039.1.084c-.005-.027-.108-.1-.132-.117-.053-.053-.131-.2-.2-.223.118.154.143.186.075.094a.683.683,0,0,0-.051-.069l-.114-.175c-.072-.116-.139-.237-.2-.358-.047-.092-.11-.345-.192-.4.066.156.076.178.031.068-.014-.035-.026-.068-.038-.1-.031-.08-.059-.16-.087-.242-.052-.155-.1-.311-.139-.469s-.076-.322-.1-.487c-.008-.05-.017-.1-.024-.15.005.047.012.094.019.141a.984.984,0,0,1-.031-.307c-.011-.152-.014-.307-.012-.461,0-.1.007-.2.016-.3q0-.039.006-.075c.014-.125.01-.1-.01.069a2.064,2.064,0,0,1,.118-.51c.01-.035.047-.2.072-.211-.062.139-.074.17-.039.094.014-.034.029-.067.046-.1a3.491,3.491,0,0,1,.273-.445c-.164.236-.02.037.023-.01.071-.076.147-.148.225-.219a1.113,1.113,0,0,0,0-1.566,1.136,1.136,0,0,0-1.567,0Z" fill="#a2d45e"/>
          </g>
        </g>
      </g>
      <g id="Group_6105" data-name="Group 6105">
        <g id="Group_6104" data-name="Group 6104">
          <g id="Group_6103" data-name="Group 6103">
            <path id="Path_2354" data-name="Path 2354" d="M161.27,227.537c.127,0-.383-.086-.115,0-.314-.1-.183-.082-.024,0,.2.1.4.209.6.309a7.024,7.024,0,0,0,1.935.662,7.68,7.68,0,0,0,6.23-2.135,1.115,1.115,0,0,0,0-1.566,1.131,1.131,0,0,0-1.566,0,8.48,8.48,0,0,1-1.469,1.008,3.96,3.96,0,0,1-1.153.453c-.108.029-.218.052-.328.076-.063.011-.4.045-.114.021-.186.016-.371.03-.558.03s-.347-.018-.522-.032c.321.026.034,0-.042-.009s-.166-.034-.249-.053a7.163,7.163,0,0,1-.83-.266c-.189-.068.258.121-.012-.008l-.153-.07c-.108-.053-.217-.107-.325-.162a2.854,2.854,0,0,0-1.3-.473,1.108,1.108,0,1,0,0,2.217Z" fill="#a2d45e"/>
          </g>
        </g>
      </g>
    </g>
    <g id="Group_6116" data-name="Group 6116">
      <g id="Group_6109" data-name="Group 6109">
        <g id="Group_6108" data-name="Group 6108">
          <g id="Group_6107" data-name="Group 6107">
            <path id="Path_2355" data-name="Path 2355" d="M62.3,214.645c-7.791.533-11.437,8.343-12.755,15.1-.1.516-.189,1.033-.265,1.555q-.051.357-.1.72c-.045.346.049-.273.007-.041-.263,1.4,1.873,1.993,2.136.59.025-.136.038-.277.056-.416.043-.314-.041.28.01-.068.055-.379.113-.758.18-1.137a32.958,32.958,0,0,1,.87-3.707,17.388,17.388,0,0,1,4.707-8.236,8.657,8.657,0,0,1,5.154-2.149c1.415-.1,1.425-2.314,0-2.216Z" fill="#a2d45e"/>
          </g>
        </g>
      </g>
      <g id="Group_6112" data-name="Group 6112">
        <g id="Group_6111" data-name="Group 6111">
          <g id="Group_6110" data-name="Group 6110">
            <path id="Path_2356" data-name="Path 2356" d="M52.5,212.16a5.077,5.077,0,0,0-1.146,5.131,7.2,7.2,0,0,0,.915,2.139,2.7,2.7,0,0,0,1.561,1.3,1.108,1.108,0,1,0,.588-2.136.359.359,0,0,1-.117-.032c.027.016.309.139.142.049s.086.039.1.084c-.005-.027-.109-.1-.13-.117-.056-.053-.133-.2-.2-.223q.177.233.074.094c-.015-.023-.032-.047-.048-.07q-.06-.085-.114-.174c-.074-.117-.141-.236-.2-.359-.047-.09-.111-.344-.19-.4.063.156.074.178.029.069-.014-.036-.027-.069-.038-.1-.031-.08-.06-.16-.087-.242-.052-.154-.1-.311-.139-.469s-.076-.322-.1-.486c-.011-.051-.02-.1-.026-.152.005.048.012.1.019.142a.981.981,0,0,1-.031-.306c-.011-.155-.014-.307-.013-.461,0-.1.008-.2.016-.305,0-.026.005-.051.007-.074.014-.125.01-.1-.01.068a2.034,2.034,0,0,1,.118-.508c.01-.039.047-.205.072-.213-.061.139-.074.17-.04.094.015-.033.029-.066.047-.1a3.871,3.871,0,0,1,.273-.447c-.164.238-.02.039.023-.008a2.906,2.906,0,0,1,.226-.218,1.114,1.114,0,0,0,0-1.567,1.137,1.137,0,0,0-1.568,0Z" fill="#a2d45e"/>
          </g>
        </g>
      </g>
      <g id="Group_6115" data-name="Group 6115">
        <g id="Group_6114" data-name="Group 6114">
          <g id="Group_6113" data-name="Group 6113">
            <path id="Path_2357" data-name="Path 2357" d="M51.98,227.52c.128,0-.382-.086-.114,0-.315-.1-.183-.082-.024,0,.2.1.4.208.6.308a7.158,7.158,0,0,0,1.934.664,7.687,7.687,0,0,0,6.231-2.135,1.119,1.119,0,0,0,0-1.57,1.134,1.134,0,0,0-1.567,0,8.284,8.284,0,0,1-1.468,1.01,4.028,4.028,0,0,1-1.153.453c-.109.029-.218.055-.328.076-.063.01-.4.045-.115.022-.185.015-.371.029-.557.029s-.347-.018-.52-.031c.319.025.032,0-.044-.01s-.166-.033-.25-.053a7.413,7.413,0,0,1-.83-.265c-.186-.069.259.121-.009-.008l-.155-.07-.325-.163a2.841,2.841,0,0,0-1.306-.472,1.108,1.108,0,1,0,0,2.215Z" fill="#a2d45e"/>
          </g>
        </g>
      </g>
    </g>
    <g id="Group_6126" data-name="Group 6126">
      <g id="Group_6119" data-name="Group 6119">
        <g id="Group_6118" data-name="Group 6118">
          <g id="Group_6117" data-name="Group 6117">
            <path id="Path_2358" data-name="Path 2358" d="M235.137,206.047c-7.791.533-11.436,8.344-12.755,15.1q-.15.774-.265,1.555c-.034.238-.065.479-.1.721-.047.346.048-.274.005-.041-.261,1.394,1.873,1.992,2.136.59.024-.137.038-.278.056-.416.043-.315-.042.279.01-.069.057-.379.115-.758.18-1.137a33.106,33.106,0,0,1,.869-3.706,17.406,17.406,0,0,1,4.709-8.237,8.656,8.656,0,0,1,5.153-2.148c1.414-.1,1.424-2.315,0-2.217Z" fill="#a2d45e"/>
          </g>
        </g>
      </g>
      <g id="Group_6122" data-name="Group 6122">
        <g id="Group_6121" data-name="Group 6121">
          <g id="Group_6120" data-name="Group 6120">
            <path id="Path_2359" data-name="Path 2359" d="M225.341,203.563a5.082,5.082,0,0,0-1.147,5.13,7.158,7.158,0,0,0,.916,2.139,2.7,2.7,0,0,0,1.561,1.3,1.136,1.136,0,0,0,1.364-.774,1.123,1.123,0,0,0-.776-1.363.383.383,0,0,1-.117-.031c.027.015.309.138.141.049s.087.039.1.084c-.005-.028-.109-.1-.13-.118-.054-.052-.133-.195-.2-.222.116.154.142.185.074.093a.731.731,0,0,1-.05-.07q-.06-.086-.114-.174c-.072-.117-.141-.236-.2-.359-.047-.09-.11-.344-.191-.4.066.156.075.177.03.068-.014-.035-.027-.068-.038-.1-.03-.079-.06-.161-.087-.243-.052-.154-.1-.31-.139-.469s-.076-.322-.1-.486c-.011-.051-.018-.1-.027-.152.007.049.013.1.02.142a1.009,1.009,0,0,1-.032-.306c-.01-.154-.013-.307-.01-.461,0-.1.007-.2.013-.3,0-.025.006-.051.009-.074.015-.125.011-.1-.012.068a2.086,2.086,0,0,1,.119-.507c.011-.04.046-.206.072-.213-.061.138-.074.169-.04.093l.047-.1a3.6,3.6,0,0,1,.273-.448c-.164.239-.02.04.023-.007a2.922,2.922,0,0,1,.226-.219,1.113,1.113,0,0,0,0-1.566,1.136,1.136,0,0,0-1.568,0Z" fill="#a2d45e"/>
          </g>
        </g>
      </g>
      <g id="Group_6125" data-name="Group 6125">
        <g id="Group_6124" data-name="Group 6124">
          <g id="Group_6123" data-name="Group 6123">
            <path id="Path_2360" data-name="Path 2360" d="M224.819,218.922c.127,0-.384-.086-.113,0-.317-.1-.184-.082-.026,0,.2.1.4.209.6.308a7.157,7.157,0,0,0,1.932.665,7.7,7.7,0,0,0,6.233-2.135,1.123,1.123,0,0,0,0-1.57,1.135,1.135,0,0,0-1.569,0,8.369,8.369,0,0,1-1.468,1.009,3.971,3.971,0,0,1-1.153.453c-.109.03-.218.055-.328.076-.061.01-.4.047-.114.022-.186.016-.372.029-.556.029s-.349-.017-.522-.031c.319.026.032,0-.043-.01s-.168-.033-.252-.052a7.367,7.367,0,0,1-.827-.266c-.188-.068.257.121-.011-.008l-.155-.07-.324-.162a2.855,2.855,0,0,0-1.306-.473,1.107,1.107,0,0,0,0,2.215Z" fill="#a2d45e"/>
          </g>
        </g>
      </g>
    </g>
  </g>
  <path id="Path_2361" data-name="Path 2361" d="M274.551,237.478c0,3.974-51.563,7.218-115.188,7.218S44.17,241.452,44.17,237.478c0-3.991,51.569-7.229,115.193-7.229S274.551,233.487,274.551,237.478Z" transform="translate(-44.17 -31.502)" fill="#a0bcff" opacity="0.3"/>
  <path id="Path_2362" data-name="Path 2362" d="M179.2,71.621s.424,9.942,1.579,11.852c1.5,2.491,4.656,1.009,5.357,4.195.442,1.988-.766,4.684-1.82,6.31-3.2,4.946-8.927,4.288-14.189,5.205-3.007.522-6.264-.82-7.241-3.957-.776-2.478-.061-6.773,1.686-8.794,1.053-1.218,2.99-1.525,4.187-2.621.017-.014,3.233-2.965,3.009-7.007S176.945,69.369,179.2,71.621Z" transform="translate(-44.17 -31.502)" fill="#ffcc8b"/>
  <path id="Path_2363" data-name="Path 2363" d="M180.309,78.644l-.184-4.033c-2.84-2.561-9.643,1.284-9.361,5.9,0,.031,0,.059.006.093a4.73,4.73,0,0,0,3.7,2.465C177.506,83.191,179.26,81.313,180.309,78.644Z" transform="translate(-44.17 -31.502)" fill="#ffcc8b" style="mix-blend-mode: multiply;isolation: isolate"/>
  <path id="Path_2364" data-name="Path 2364" d="M168.168,66.041s.633,13.549,6.385,13.774,6.419-7.15,6.793-12.52c.422-6.013-.086-7.833-6.793-8.181C168.084,58.779,168.168,66.041,168.168,66.041Z" transform="translate(-44.17 -31.502)" fill="#ffcc8b"/>
  <path id="Path_2365" data-name="Path 2365" d="M182.7,63.9c-.056.388-.156.811-.248,1.25,1.706-.039,1.661,2.709,1.107,3.68-.1.165-.717.68-.717.793-.005.35.675.312.587.869a1.584,1.584,0,0,1-1.979,1.119c-.605-.23-.477-.929-.561-1.477a4.6,4.6,0,0,0-1.653-2.937c-.713-.691-1.983-1.662-2.078-2.683-1.313,2.338-4.174,2.729-6.587,2.187-.34,1.41-.081,2.18-1.474,3-1.351.8-1.584.1-2.694-.646-.258-1.135,1.334-1.341,1.983-1.837-1.644-1.59-.985-5.123.575-6.8a8.211,8.211,0,0,1,6.939-2.684,6.824,6.824,0,0,1,3.871,1.578,3.427,3.427,0,0,1,1.541,2.674C182.685,62.16,182.841,62.913,182.7,63.9Z" transform="translate(-44.17 -31.502)" fill="#144998"/>
  <path id="Path_2366" data-name="Path 2366" d="M174.67,74.069s-3.041-1.52-5.574-.337c0,0-1.012,8.616,5.574,8.616,7.6,0,5.914-8.785,5.914-8.785A8.121,8.121,0,0,0,174.67,74.069Z" transform="translate(-44.17 -31.502)" fill="#144998"/>
  <path id="Path_2367" data-name="Path 2367" d="M95.075,64.1a9.862,9.862,0,0,0-2.757,6.921,8.956,8.956,0,0,0,.741,3.945c.5,1.146,1.636,2.306,1.9,3.448-1.639.112-3.027.142-4.389,1.478-4.313,4.241-4.516,14.25,1.57,16.889a4.494,4.494,0,0,0,3.335.231c-2.057-1.4-4.67,3.032-2.956,5.345,2.015,2.713,6.977,2.813,9.836,2.965,3.28.173,8.225.814,10.9-1.669,2.043-1.9,3.119-5.9,3.563-8.672.826,2.188,1.679,4.93,3.792,5.742,2.047.781,4.508-.581,5.661-2.558a6.432,6.432,0,0,0-.464-6.409c-.557-.845-3.838-5.36-4.752-4.956,4.1-1.817,4.11-6.914,3.268-11.653-2.517-14.175-19.88-21.232-29.072-11.231C95.188,63.979,95.133,64.043,95.075,64.1Z" transform="translate(-44.17 -31.502)" fill="#144998"/>
  <path id="Path_2368" data-name="Path 2368" d="M111.571,67.717c1,1.007.2,7.656.513,9.312.847,4.393,5.281,5.08,6.668,8.58.572,1.452-.2,3.719-.613,5.014-.909,2.895-2.765,7.075-6,7.879-1.724.43-4.292.41-6.189.666a12.1,12.1,0,0,1-7.165-.827c-4.476-2.223-5.564-6.979-3.924-11.475,1.162-3.184,3.058-2.969,5.306-4.913a10.948,10.948,0,0,0,3.318-8.6C103.244,68.941,109.123,65.266,111.571,67.717Z" transform="translate(-44.17 -31.502)" fill="#ffcc8b"/>
  <path id="Path_2369" data-name="Path 2369" d="M112.328,73.266l-.16-3.852c-2.451-2.45-8.969-1.317-8.722,3.094,0,.031,0,.771,0,.8.817,1.37,2.82,4.6,4.138,4.409C110.392,77.316,111.421,75.816,112.328,73.266Z" transform="translate(-44.17 -31.502)" fill="#ffcc8b" style="mix-blend-mode: multiply;isolation: isolate"/>
  <path id="Path_2370" data-name="Path 2370" d="M100.265,62.137s1.809,13.61,7.019,13.98,6.9-7.379,7.312-12.728c.459-5.994-.094-7.813-7.39-8.157C100.172,54.9,100.265,62.137,100.265,62.137Z" transform="translate(-44.17 -31.502)" fill="#ffcc8b"/>
  <path id="Path_2371" data-name="Path 2371" d="M116.066,60.237c-.059.424-.17.884-.268,1.361,1.854-.04,1.806,2.944,1.2,4-.1.177-.78.738-.783.863,0,.38.739.336.64.943a1.725,1.725,0,0,1-2.15,1.217c-.658-.248-.52-1.014-.613-1.6a5.02,5.02,0,0,0-1.8-3.2c-.77-.752-2.154-1.806-2.259-2.918-1.429,2.543-4.54,2.971-7.162,2.382-.371,1.532-.088,2.366-1.607,3.263-1.467.869-1.721.111-2.926-.7a3.48,3.48,0,0,1,1.36-3.124c-1.79-1.729-.279-4.442,1.424-6.261a8.92,8.92,0,0,1,7.545-2.923,7.441,7.441,0,0,1,4.207,1.719c.768.756,1.588,1.219,1.679,2.906C116.053,58.348,116.222,59.164,116.066,60.237Z" transform="translate(-44.17 -31.502)" fill="#144998"/>
  <path id="Path_2372" data-name="Path 2372" d="M101.079,81.051l-1.136,1.131s1.989,2.519,7.663,2.644a12.2,12.2,0,0,0,8.656-2.9l-1.561-1S106.611,85.707,101.079,81.051Z" transform="translate(-44.17 -31.502)" fill="#fff"/>
  <path id="Path_2373" data-name="Path 2373" d="M142.4,55.732c-1.1.179-2.117.153-2.564-.514a12.092,12.092,0,0,1-.651-2.821,44.061,44.061,0,0,0-2.283-7.935c-.652-1.415-2.588-3.751-2.237-4.414s1.447,1.415,1.853,2.274c-.451-1.085-2.129-4.151-1.383-4.288s2.183,2.45,2.112,3.663c-.423-1.853-1.328-5.636-.6-5.649s2.451,4.233,3.214,5.788c-.291-1.42-.953-2.949-.73-4.424,2.258,1.711,1.4,5.276,3.171,6.914.306-.912-.341-3.249.646-3.228s.955,7.023,1.345,7.877a8.716,8.716,0,0,1,.37,2.722c.184,1.4.922,1.873,1.1,3.3C145.027,55.058,143.662,55.527,142.4,55.732Z" transform="translate(-44.17 -31.502)" fill="#f9ba75"/>
  <path id="Path_2374" data-name="Path 2374" d="M122.652,70.688a7.49,7.49,0,0,1,.907-2.774c1.139-2.439,2.572-4.746,3.622-7.22,1.331-3.133,2.313-6.391,3.714-9.489.574-1.27,1.317-2.515,1.826-3.828.937-2.412.363-4.835.491-7.379.018-.4.912.864.94.926a5.687,5.687,0,0,1,.243,2.5c1.224-.719,1.193-2.4,1.78-3.541.676-1.317,1.774-4.129,2.323-4.051s-1.009,3.941-1.473,5.555a19.861,19.861,0,0,1,1.639-2.413c.506-.875,1.662-2.926,2.139-2.746s-1.58,4.475-2.126,6.161a25.108,25.108,0,0,1,3.257-3.6c.255,1.952-1.758,3.109-2.079,4.841a8.442,8.442,0,0,0,2.669-1.447c-1.217,3.315-4.539,4.918-6.122,8.087-2.443,4.882-3.492,10.581-5.084,15.835-.625,2.059-1.3,4.143-2.082,6.143-.32.815-.966,3.328-1.991,3.412-.493.039-1.039-.823-1.43-1.126a14.634,14.634,0,0,1-2.065-1.346A3.436,3.436,0,0,1,122.652,70.688Z" transform="translate(-44.17 -31.502)" fill="#ffcc8b"/>
  <path id="Path_2375" data-name="Path 2375" d="M158.909,227.488V236.6c-1.469.594-15.667,4.282-16.21,2.317-.785-2.859,4.8-2.91,6.418-3.426,1.8-.574,1.535-1.887,2.074-3.792.544-1.925-1.132-4.054-.365-5.877C151.989,223.065,157.327,226.451,158.909,227.488Z" transform="translate(-44.17 -31.502)" fill="#393f67"/>
  <path id="Path_2376" data-name="Path 2376" d="M117.969,103.434c.565-1.988,1.619-3.876,2.15-5.819a22.225,22.225,0,0,0,.716-4.185c.374-4.281,2.045-8.043,4.069-11.781,1.045-1.934,4.332-9.4,4.332-9.4s-2.7-1.525-2.4-.93c.7,1.4-2.268-2.1-3.464-3.06-1.77,6.145-4.325,12.749-10.811,15.389-7.215,2.939-11.471-.573-16.085-5.91-1.735-2.007-3.425-4.051-5.232-5.989-1.574-1.685-2.74-3.653-4.317-5.31-.624.6-5.831,3.15-5.593,3.9,1.177,3.271,3.881,7.069,5.715,10.205,1.682,2.885,4.744,6.08,5.253,9.312.283,1.817-.175,3.816.183,5.547a26.025,26.025,0,0,0,2.025,4.911c.709,1.578,1.893,3.574,2.185,5.247a8.588,8.588,0,0,1-.015,4.274c-.289,1.2-.475,2.8-.739,4.008-.342,1.545-2.046,3.128-.113,3.4,3.9.551,7.9.819,11.83,1.092,2.9.2,5.877.916,8.8.459,1.241-.2,3.228.926,3.15-.361a45.7,45.7,0,0,0-1.116-4.778C117.6,110.692,117.1,106.486,117.969,103.434Z" transform="translate(-44.17 -31.502)" fill="#f97fb5"/>
  <path id="Path_2377" data-name="Path 2377" d="M109.653,184.723s.629,46.377,2.55,50.266,11.376,6.637,11.856,5.814-4.1-4.178-5.23-6.343-2.544-2.833-2.026-8.517,5.64-51.054,5.64-51.054L109.7,183.963Z" transform="translate(-44.17 -31.502)" fill="#ffcc8b"/>
  <path id="Path_2378" data-name="Path 2378" d="M105.279,185.418s-4.561,47.486-6.32,49.65-8.287,6.736-10.627,5.961,3.133-4.843,4.492-6.863,2.817-2.528,2.9-8.228-1.674-38.152-1.674-38.152l13.1-2.761Z" transform="translate(-44.17 -31.502)" fill="#ffcc8b"/>
  <path id="Path_2379" data-name="Path 2379" d="M88.448,238.194c-2.067,1.769-4,3.571-2.259,4.064,2.769.774,10.491-3.8,12.575-5.961a12.8,12.8,0,0,0,1.257-3.7C94.283,238.951,89.174,238.321,88.448,238.194Z" transform="translate(-44.17 -31.502)" fill="#292c54"/>
  <path id="Path_2380" data-name="Path 2380" d="M125.145,241.571c.278-.461-1.081-1.684-2.551-3.064-1.543.152-5.772-.022-10.6-5.279a9.706,9.706,0,0,0,.6,2.53C114.619,239.64,124.638,242.4,125.145,241.571Z" transform="translate(-44.17 -31.502)" fill="#292c54"/>
  <path id="Path_2381" data-name="Path 2381" d="M86.787,66.038a8.016,8.016,0,0,1-.657-.954c-1.594-2.855-3.517-5.53-5.032-8.428-1.586-3.031-2.826-6.209-4.481-9.2-.676-1.226-1.528-2.409-2.144-3.684-1.128-2.342-.705-4.8-1.016-7.333-.047-.4-.878.93-.9.994a5.492,5.492,0,0,0-.078,2.515c-1.309-.622-1.394-2.306-2.077-3.4a44.8,44.8,0,0,0-2.67-3.871c-.053,1.76,1.309,3.86,1.9,5.437a19.128,19.128,0,0,0-1.854-2.287,7.178,7.178,0,0,0-1.982-2.244C65.949,35.35,67.318,37.6,68,39.236a25.316,25.316,0,0,0-3.6-3.351c-.13,1.962,2.021,2.968,2.474,4.676a8.853,8.853,0,0,1-2.848-1.246c1.483,3.215,5.008,4.572,6.86,7.62,2.851,4.693,4.327,10.3,6.325,15.43A26.275,26.275,0,0,0,80.755,69a10.924,10.924,0,0,1,1.783,2.525c1.781-1.16,3.025-3.475,5.1-4.19A6.527,6.527,0,0,0,86.787,66.038Z" transform="translate(-44.17 -31.502)" fill="#ffcc8b"/>
  <path id="Path_2382" data-name="Path 2382" d="M209.424,51.186c1.1.175,2.117.152,2.562-.518a11.965,11.965,0,0,0,.651-2.818,44.309,44.309,0,0,1,2.283-7.934c.654-1.416,2.59-3.752,2.239-4.416s-1.447,1.414-1.852,2.274c.45-1.086,2.127-4.151,1.382-4.288s-2.183,2.45-2.112,3.664c.421-1.856,1.328-5.638.605-5.648s-2.452,4.232-3.215,5.787c.292-1.423.951-2.949.729-4.424-2.257,1.709-1.4,5.276-3.171,6.914-.306-.914.342-3.25-.646-3.228s-.954,7.021-1.344,7.878a8.674,8.674,0,0,0-.371,2.72c-.183,1.4-.922,1.875-1.1,3.3C206.8,50.511,208.161,50.979,209.424,51.186Z" transform="translate(-44.17 -31.502)" fill="#f9ba75"/>
  <path id="Path_2383" data-name="Path 2383" d="M173.246,125.113a39.028,39.028,0,0,0,8.536-1.355,28.413,28.413,0,0,1,4.265-1.028c1.145-.086,1.953.444,2.714-.109a1.866,1.866,0,0,0,.219-.195c.5-.509.828-3.316.943-4.082.8-5.35,1.258-10.768,1.733-16.143.33-3.688-.347-7.062,1.978-10.232.993-1.352,7.919-11.383,11.789-18.378s7.122-24.929,6.875-25.655c-.163-.475-1.831-1.369-3.2-2.039-.722-.348-3.257-2.294-3.519-1.557-.5,1.423-2.452,9.418-4.446,17.4s-10.217,21.75-13.337,20.348a7.3,7.3,0,0,0-5.258-.586c-3.165,5.091-13.655,2.359-13.358.128a7.309,7.309,0,0,0-5.248.688c-3.09,1.463-11.578-12.144-13.729-20.085s-4.256-15.893-4.783-17.305c-.275-.733-2.772,1.262-3.488,1.625-1.357.695-3.008,1.621-3.164,2.1-.235.731,3.366,18.6,7.374,25.516s11.126,16.814,12.145,18.147c2.385,3.123,1.775,6.508,2.175,10.191.579,5.365,1.142,10.773,2.046,16.107.127.764.519,3.563,1.023,4.063a1.588,1.588,0,0,0,.225.19c.769.536,1.567-.007,2.717.056a28.942,28.942,0,0,1,4.285.944,38.93,38.93,0,0,0,8.553,1.19Z" transform="translate(-44.17 -31.502)" fill="#0075c9"/>
  <path id="Path_2384" data-name="Path 2384" d="M193.069,226.8c-.155,1.308,1.071,2.991,1.352,4.154.472,1.955-.037,3.975.358,5.87.6,2.885,1.768,3.109,4.733,3.739a40.364,40.364,0,0,0,11.166.954c.989-.08,4.023-.042,4.209-1.532.15-1.217-5.782-3-6.828-3.736-2.883-2.016-8.239-4.938-7.389-8.566,1.722-7.341-6.192-5.191-7.525-1.213A1.466,1.466,0,0,0,193.069,226.8Z" transform="translate(-44.17 -31.502)" fill="#393f67"/>
  <path id="Path_2385" data-name="Path 2385" d="M161.727,121.764c0,10.072-11.968,92.5-11.437,109.77,4.149.9,5.5-.2,9.365,1.305-.037-5.534,10.163-75.44,15.6-79.4,1.251,2.038,16.349,71.391,18.669,79.313,1.109-.242,14.2.907,12.215.083-6.989-2.9-13.782-104.311-17.036-111.394Z" transform="translate(-44.17 -31.502)" fill="#b8b8bc"/>
  <path id="Path_2386" data-name="Path 2386" d="M119.6,118.43c12.017,10.756-1.736,94.641-1.736,94.641L107.49,210.51l2.163-76.3-.809,17.536-5.68,61.329-9.02,1.484s-8.86-81.063,1.682-97.315" transform="translate(-44.17 -31.502)" fill="#003a5d"/>
  <path id="Path_2387" data-name="Path 2387" d="M93.891,122.146s17.744,1.858,28.044-.533" transform="translate(-44.17 -31.502)" fill="none" stroke="#fdfdff" stroke-miterlimit="10" stroke-width="1"/>
  <path id="Path_2388" data-name="Path 2388" d="M161.553,123.5" transform="translate(-44.17 -31.502)" fill="none" stroke="#fcfcfc" stroke-miterlimit="10" stroke-width="1"/>
  <path id="Path_2389" data-name="Path 2389" d="M189.53,125.119v-.961a11.387,11.387,0,0,0-.522-1.545l-27.38.319c0,.531-.046,1.273-.125,2.187H189.53Z" transform="translate(-44.17 -31.502)" fill="#fff"/>
  <path id="Path_2390" data-name="Path 2390" d="M186.228,124.176s13.663,103.114,15.516,106.073" transform="translate(-44.17 -31.502)" fill="#fff"/>
</svg>
