<svg id="Component_7_1" data-name="Component 7 – 1" xmlns="http://www.w3.org/2000/svg" xmlns:xlink="http://www.w3.org/1999/xlink" width="373.913" height="332.614" viewBox="0 0 373.913 332.614">
  <defs>
    <clipPath id="clip-path">
      <rect id="Rectangle_2971" data-name="Rectangle 2971" width="4.281" height="1.981" fill="none"/>
    </clipPath>
  </defs>
  <g id="Group_3176" data-name="Group 3176" transform="translate(10.924)">
    <g id="Group_3175" data-name="Group 3175">
      <path id="Path_109" data-name="Path 109" d="M1162.515,2050.5c.878-.361,1.756-.734,2.626-1.107l1.352-.585c.86-.376,1.718-.753,2.579-1.14.467-.208.935-.42,1.4-.632q1.244-.564,2.486-1.143c.5-.235,1.01-.476,1.51-.716.787-.372,1.569-.745,2.35-1.127.562-.273,1.117-.547,1.679-.823.717-.358,1.44-.711,2.159-1.078.646-.323,1.289-.656,1.932-.99s1.261-.647,1.886-.973c.784-.409,1.563-.833,2.344-1.249l1.472-.787q1.9-1.039,3.794-2.1c22.467-12.674,43.568-28.535,58.7-49.257s23.871-46.731,20.271-72.021c-2.553-17.923-14.334-36.913-32.01-39.612a31.282,31.282,0,0,0-3.117-.3c-4.362-.179-8.683.64-13.035,1.063-.917.089-1.835.155-2.757.211-.268.018-.537.024-.805.039-.653.029-1.3.059-1.957.077-.317.006-.634.009-.954.014-.607.006-1.215.01-1.821,0-.329,0-.655-.008-.979-.014-.61-.015-1.213-.033-1.821-.058-.318-.012-.634-.025-.949-.041-.634-.036-1.265-.074-1.9-.118-.285-.021-.567-.035-.847-.056q-1.072-.086-2.139-.193c-.2-.021-.4-.035-.6-.056-1.865-.2-3.736-.437-5.6-.711-.121-.018-.244-.039-.367-.059-.793-.121-1.589-.246-2.382-.382-.242-.036-.484-.084-.726-.125-.678-.112-1.357-.234-2.035-.358l-.823-.155c-.652-.121-1.3-.246-1.953-.379-.277-.053-.558-.106-.837-.168-.658-.131-1.321-.267-1.977-.408-.256-.052-.512-.1-.77-.161-.709-.149-1.424-.309-2.13-.46-.2-.045-.4-.091-.6-.132-.891-.2-1.78-.4-2.672-.6l-.035-.006c-.04-.011-.079-.019-.117-.027a65.037,65.037,0,0,0,2.829-17.459c.022-22.979-17.673-42.02-35.779-56.481-22.027-17.588-49.642-32.93-77.416-27.343-14.043,2.84-26.486,10.791-37.6,19.745q-3.325,2.675-6.542,5.487a99.157,99.157,0,0,0-10.027-.244c-.237.007-.473.007-.711.014-.6.021-1.2.049-1.8.08q-.564.027-1.131.064c-.525.032-1.049.068-1.571.109-.472.039-.939.08-1.409.121-.45.042-.907.084-1.359.132-.588.065-1.175.134-1.765.2-.341.047-.687.08-1.031.13q-2.872.384-5.719.938l-.6.124c-.754.15-1.5.3-2.253.476-.262.061-.523.12-.785.185-.687.159-1.371.329-2.053.5-.282.074-.564.145-.845.221-.675.177-1.34.369-2.009.558-.271.079-.547.155-.819.24-.7.206-1.4.428-2.1.65-.232.075-.458.146-.688.223-.919.3-1.833.615-2.744.954-30.292,11.036-53.766,37.082-64.563,67.089-10.777,30.005-9.558,63.483.094,93.849a154.249,154.249,0,0,0,25.493,49.017c27.487,34.786,71.862,54.591,116.5,57.306,1.612.1,3.225.17,4.837.226.537.02,1.072.029,1.61.045,1.1.026,2.2.047,3.293.058.587.006,1.177.009,1.762.009,1.266,0,2.528-.009,3.794-.033.325-.008.647-.008.97-.017q2.588-.064,5.167-.187a132.925,132.925,0,0,0,32.018,1.821c12.589-.83,25.621-3.625,35.32-11.584a42.387,42.387,0,0,0,6.8-7.091c.546-.218,1.09-.447,1.635-.672C1161.61,2050.869,1162.063,2050.688,1162.515,2050.5Z" transform="translate(-914.235 -1769.139)" fill="#f7f7f7"/>
    </g>
  </g>
  <g id="Group_3193" data-name="Group 3193" transform="translate(273.622 198.263)">
    <g id="Group_3177" data-name="Group 3177" transform="translate(17.254 26.281)">
      <path id="Path_110" data-name="Path 110" d="M1099.6,1919.6c-.491-.562-.935-1.345-.608-1.907.366-.637,1.386-.5,2.18-.225a15.733,15.733,0,0,1,9.367,9.328l-.062.235a19.335,19.335,0,0,1,12.33.547c.908.339,1.938.908,2.106,1.8a1.428,1.428,0,0,1-.814,1.506,4.18,4.18,0,0,1-1.879.328,21.308,21.308,0,0,1-12.034-3.9l.214-.253.006,0C1107.1,1924.143,1102.454,1922.9,1099.6,1919.6Z" transform="translate(-1098.876 -1917.236)" fill="#d8e081"/>
    </g>
    <g id="Group_3178" data-name="Group 3178" transform="translate(11 35.593)">
      <path id="Path_111" data-name="Path 111" d="M1095.607,1926.16a2.527,2.527,0,0,1-.841-1.269,1.337,1.337,0,0,1,1.057-1.43,3.952,3.952,0,0,1,2.073.15,15.113,15.113,0,0,1,9.869,9.047v.437a19.5,19.5,0,0,1,13.117-1.8c.983.191,2.15.643,2.4,1.578a1.369,1.369,0,0,1-.559,1.436,3.762,3.762,0,0,1-1.545.572,22.919,22.919,0,0,1-13.546-1.68l.04-.039q-4.305-2.372-8.606-4.723A17.363,17.363,0,0,1,1095.607,1926.16Z" transform="translate(-1094.752 -1923.377)" fill="#d8e081"/>
    </g>
    <g id="Group_3179" data-name="Group 3179" transform="translate(1.231 56.639)">
      <path id="Path_112" data-name="Path 112" d="M1103.168,1944.679a34.485,34.485,0,0,1-13.193-4.188c-.776-.428-1.671-1.069-1.668-1.891,0-.889,1.039-1.275,1.951-1.33a12.6,12.6,0,0,1,7.27,2.282,40.789,40.789,0,0,1,6.021,5.135Z" transform="translate(-1088.308 -1937.258)" fill="#d8e081"/>
    </g>
    <g id="Group_3180" data-name="Group 3180" transform="translate(29.597 11.164)">
      <path id="Path_113" data-name="Path 113" d="M1107.2,1907.774c.5-.741,1.72-.563,2.646-.155a11.131,11.131,0,0,1,4.852,4.5,16.73,16.73,0,0,1,2.039,6.056l-.014.015c2.622-.4,5.354-.717,8.019.165a4.581,4.581,0,0,1,1.989,1.16,1.848,1.848,0,0,1,.456,2,2.183,2.183,0,0,1-2.079.775c-2.925-.115-5.731-1.753-8.371-3.336l-.352-.491a44.371,44.371,0,0,1-8.4-8.009C1107.337,1909.643,1106.691,1908.535,1107.2,1907.774Z" transform="translate(-1107.016 -1907.266)" fill="#d8e081"/>
    </g>
    <g id="Group_3181" data-name="Group 3181" transform="translate(35.845 5.642)">
      <path id="Path_114" data-name="Path 114" d="M1111.329,1904.3a1.681,1.681,0,0,1,1.512-.679,4.162,4.162,0,0,1,1.789.556,10.761,10.761,0,0,1,4.039,4.039,23.124,23.124,0,0,1,2.107,5.159l-.449-.262a66.537,66.537,0,0,1-7.445-5.341,6.289,6.289,0,0,1-1.419-1.588A1.92,1.92,0,0,1,1111.329,1904.3Z" transform="translate(-1111.137 -1903.623)" fill="#d8e081"/>
    </g>
    <g id="Group_3182" data-name="Group 3182" transform="translate(5.379 44.843)">
      <path id="Path_115" data-name="Path 115" d="M1093.964,1933.815a6.635,6.635,0,0,1-2.43-1.684c-.6-.778-.711-1.973.029-2.446a2.575,2.575,0,0,1,1.986-.012,18.648,18.648,0,0,1,11.331,9.464Q1099.416,1936.472,1093.964,1933.815Z" transform="translate(-1091.044 -1929.478)" fill="#d8e081"/>
    </g>
    <g id="Group_3183" data-name="Group 3183" transform="translate(45.26 15.202)">
      <path id="Path_116" data-name="Path 116" d="M1117.347,1910.076l.27.217a16.638,16.638,0,0,1,10.6,1.289,4.88,4.88,0,0,1,1.563,1.031,1.7,1.7,0,0,1,.485,1.628c-.308.828-1.475.908-2.437.787A19.361,19.361,0,0,1,1117.347,1910.076Z" transform="translate(-1117.347 -1909.928)" fill="#d8e081"/>
    </g>
    <g id="Group_3184" data-name="Group 3184" transform="translate(55.251)">
      <path id="Path_117" data-name="Path 117" d="M1123.937,1907.131a16.715,16.715,0,0,1,13.223-7.214,4.9,4.9,0,0,1,1.775.159,2.244,2.244,0,0,1,1.383,1.146c.429,1.011-.364,1.941-1.18,2.511-4.059,2.84-9.682,3.076-15,3.219Z" transform="translate(-1123.937 -1899.902)" fill="#d8e081"/>
    </g>
    <g id="Group_3185" data-name="Group 3185" transform="translate(33.128 28.312)">
      <path id="Path_118" data-name="Path 118" d="M1109.375,1920.194a.688.688,0,0,0-.029-.121l.076.061-.021-.044a14.042,14.042,0,0,1,12.233-.209c.928.451,1.935,1.229,1.907,2.18-.026,1.025-1.243,1.448-2.294,1.551a17.632,17.632,0,0,1-11.731-3.308l-.046-.088Z" transform="translate(-1109.346 -1918.575)" fill="#d8e081"/>
    </g>
    <g id="Group_3186" data-name="Group 3186" transform="translate(50.741 10.386)">
      <path id="Path_119" data-name="Path 119" d="M1121.191,1907.473l-.229-.347a27.5,27.5,0,0,1,6.047-.315,14.072,14.072,0,0,1,6.012,1.8,4.585,4.585,0,0,1,1.494,1.252,1.767,1.767,0,0,1,.314,1.716c-.4.875-1.666.907-2.722.746A23.121,23.121,0,0,1,1121.191,1907.473Z" transform="translate(-1120.962 -1906.752)" fill="#d8e081"/>
    </g>
    <g id="Group_3187" data-name="Group 3187" transform="translate(23.538 18.941)">
      <path id="Path_120" data-name="Path 120" d="M1103.523,1912.577a2.116,2.116,0,0,1,1.8.049,10.319,10.319,0,0,1,5.126,4.5,19.576,19.576,0,0,1,2.164,6.139,66.543,66.543,0,0,1-8.373-7.363,5.154,5.154,0,0,1-1.117-1.666A1.412,1.412,0,0,1,1103.523,1912.577Z" transform="translate(-1103.021 -1912.395)" fill="#d8e081"/>
    </g>
    <g id="Group_3188" data-name="Group 3188" transform="translate(18.984 49.286)">
      <path id="Path_121" data-name="Path 121" d="M1100.3,1937.728a.837.837,0,0,0-.053-.1.879.879,0,0,0,.109.052l.071-.047a18.886,18.886,0,0,1,12.524-5.213,3.1,3.1,0,0,1,2.535.758,2.019,2.019,0,0,1-.159,2.593c-1.081,1.29-2.953,1.7-4.728,1.947a47.483,47.483,0,0,1-10.12.255l-.009,0,.011.139c-.024-.053-.049-.1-.071-.151a3.912,3.912,0,0,1-.393-.026Z" transform="translate(-1100.017 -1932.409)" fill="#d8e081"/>
    </g>
    <g id="Group_3189" data-name="Group 3189" transform="translate(16.418 64.018)">
      <path id="Path_122" data-name="Path 122" d="M1098.406,1942.125c.1,0,.192.016.294.014-.125.15-.256.312-.375.465Z" transform="translate(-1098.325 -1942.125)" fill="#d8e081"/>
    </g>
    <g id="Group_3190" data-name="Group 3190" transform="translate(16.793 57.277)">
      <path id="Path_123" data-name="Path 123" d="M1113.277,1937.763a5.076,5.076,0,0,1,1.885.5,2.31,2.31,0,0,1,1.233,1.473,1.954,1.954,0,0,1-.564,1.643,7.861,7.861,0,0,1-4.171,2.036,42.744,42.744,0,0,1-13.088,1.019,19.631,19.631,0,0,1,6.047-5A15.279,15.279,0,0,1,1113.277,1937.763Z" transform="translate(-1098.572 -1937.679)" fill="#d8e081"/>
    </g>
    <g id="Group_3191" data-name="Group 3191" transform="translate(0 67.577)">
      <path id="Path_124" data-name="Path 124" d="M1119.945,1948.787a1.659,1.659,0,0,1-.426,1.371,3.844,3.844,0,0,1-1.2.833,21.639,21.639,0,0,1-8.4,2.054,62.682,62.682,0,0,1-8.77-.192l.2.326a39.261,39.261,0,0,1-11.839-5.011,5.622,5.622,0,0,1-1.636-1.389,1.586,1.586,0,0,1-.135-1.848,2.157,2.157,0,0,1,1.959-.406,15.5,15.5,0,0,1,11.313,8.1l.03-.049a16.93,16.93,0,0,1,12.357-6.336,9.437,9.437,0,0,1,4.9.778A2.84,2.84,0,0,1,1119.945,1948.787Z" transform="translate(-1087.496 -1944.472)" fill="#d8e081"/>
    </g>
    <g id="Group_3192" data-name="Group 3192" transform="translate(11.195 6.315)">
      <path id="Path_125" data-name="Path 125" d="M1098,1979.854c2.517-30.486,18.123-56.809,43.066-73.168,1.545-1.01-.687-3.378-2.209-2.376-25.612,16.8-41.38,43.936-43.967,75.185C1094.728,1981.37,1097.835,1981.72,1098,1979.854Z" transform="translate(-1094.88 -1904.067)" fill="#d8e081"/>
    </g>
  </g>
  <g id="Group_3246" data-name="Group 3246" transform="translate(61.765 239.96)">
    <g id="Group_3226" data-name="Group 3226">
      <g id="Group_3195" data-name="Group 3195" transform="translate(2.872 16.577)">
        <g id="Group_3194" data-name="Group 3194">
          <path id="Path_126" data-name="Path 126" d="M958.411,1939.941c.22-.088.462-.256.449-.493-.012-.264-.325-.4-.593-.453a4.515,4.515,0,0,0-4.029,1.286l-.017.085a6.283,6.283,0,0,0-3.615-2c-.309-.053-.687-.056-.863.2a.572.572,0,0,0,.018.619,1.459,1.459,0,0,0,.491.434,6.348,6.348,0,0,0,4.012.89l-.026-.117v0C955.6,1940.052,957.114,1940.479,958.411,1939.941Z" transform="translate(-949.661 -1938.337)" fill="#d8e081"/>
        </g>
      </g>
      <g id="Group_3197" data-name="Group 3197" transform="translate(2.97 19.391)">
        <g id="Group_3196" data-name="Group 3196">
          <path id="Path_127" data-name="Path 127" d="M958.729,1943.124a.73.73,0,0,0,.424-.249.531.531,0,0,0-.1-.638,1.28,1.28,0,0,0-.616-.317,4.334,4.334,0,0,0-4.135,1.108l-.062.138a6.765,6.765,0,0,0-3.5-2.876c-.308-.111-.708-.174-.916.076a.536.536,0,0,0-.047.549,1.426,1.426,0,0,0,.361.454,7.25,7.25,0,0,0,4.127,1.854l-.006-.018,3.148.029A4.88,4.88,0,0,0,958.729,1943.124Z" transform="translate(-949.726 -1940.193)" fill="#d8e081"/>
        </g>
      </g>
      <g id="Group_3199" data-name="Group 3199" transform="translate(6.95 29.029)">
        <g id="Group_3198" data-name="Group 3198">
          <path id="Path_128" data-name="Path 128" d="M952.462,1947.181a10.3,10.3,0,0,0,4.385,1.007c.285,0,.634-.044.752-.3.127-.28-.115-.586-.37-.764a3.737,3.737,0,0,0-2.412-.561,11.322,11.322,0,0,0-2.465.553Z" transform="translate(-952.351 -1946.549)" fill="#d8e081"/>
        </g>
      </g>
      <g id="Group_3201" data-name="Group 3201" transform="translate(2.969 10.236)">
        <g id="Group_3200" data-name="Group 3200">
          <path id="Path_129" data-name="Path 129" d="M957.437,1934.683c-.036-.32-.413-.481-.738-.516a3.161,3.161,0,0,0-2.039.563,5.3,5.3,0,0,0-1.455,1.546v.008a5.592,5.592,0,0,0-2.323-1.361,1.326,1.326,0,0,0-.738.015.613.613,0,0,0-.418.552.82.82,0,0,0,.484.611,5.5,5.5,0,0,0,2.881.422l.171-.092a12.47,12.47,0,0,0,3.562-1.04C957.13,1935.247,957.474,1935.012,957.437,1934.683Z" transform="translate(-949.726 -1934.154)" fill="#d8e081"/>
        </g>
      </g>
      <g id="Group_3203" data-name="Group 3203" transform="translate(5.641 7.356)">
        <g id="Group_3202" data-name="Group 3202">
          <path id="Path_130" data-name="Path 130" d="M955.5,1932.876a.629.629,0,0,0-.335-.479,1.237,1.237,0,0,0-.593-.141,3.053,3.053,0,0,0-1.741.561,7.2,7.2,0,0,0-1.346,1.251l.165,0a18.258,18.258,0,0,0,2.905-.371,1.754,1.754,0,0,0,.635-.247A.666.666,0,0,0,955.5,1932.876Z" transform="translate(-951.488 -1932.255)" fill="#d8e081"/>
        </g>
      </g>
      <g id="Group_3205" data-name="Group 3205" transform="translate(7.541 24.953)">
        <g id="Group_3204" data-name="Group 3204">
          <path id="Path_131" data-name="Path 131" d="M956.637,1945.257a1.851,1.851,0,0,0,.939-.1.618.618,0,0,0,.346-.775.857.857,0,0,0-.569-.352,5.306,5.306,0,0,0-4.612.981Z" transform="translate(-952.741 -1943.861)" fill="#d8e081"/>
        </g>
      </g>
      <g id="Group_3207" data-name="Group 3207" transform="translate(1.406 7.745)">
        <g id="Group_3206" data-name="Group 3206">
          <path id="Path_132" data-name="Path 132" d="M953,1933.962l-.108.02a5.268,5.268,0,0,0-3.225-1.458,1.331,1.331,0,0,0-.6.048.546.546,0,0,0-.374.425c-.032.315.291.546.584.676A5.616,5.616,0,0,0,953,1933.962Z" transform="translate(-948.695 -1932.511)" fill="#d8e081"/>
        </g>
      </g>
      <g id="Group_3209" data-name="Group 3209">
        <g id="Group_3208" data-name="Group 3208">
          <path id="Path_133" data-name="Path 133" d="M951.785,1932.283a6.459,6.459,0,0,0-2.753-4.6,1.546,1.546,0,0,0-.532-.262.64.64,0,0,0-.562.117c-.268.243-.173.675-.021,1,.755,1.61,2.333,2.675,3.839,3.656Z" transform="translate(-947.767 -1927.403)" fill="#d8e081"/>
        </g>
      </g>
      <g id="Group_3211" data-name="Group 3211" transform="translate(2.714 13.654)">
        <g id="Group_3210" data-name="Group 3210">
          <path id="Path_134" data-name="Path 134" d="M953.926,1938.668l.017-.023-.023,0,.012-.01a4.663,4.663,0,0,0-3.477-2.22c-.331-.021-.732.047-.863.35-.138.326.149.675.435.89a5.315,5.315,0,0,0,3.841,1.026l.026-.02Z" transform="translate(-949.557 -1936.408)" fill="#d8e081"/>
        </g>
      </g>
      <g id="Group_3213" data-name="Group 3213" transform="translate(0.184 5.128)">
        <g id="Group_3212" data-name="Group 3212">
          <path id="Path_135" data-name="Path 135" d="M952.391,1932.513l.115-.07a9.273,9.273,0,0,0-1.686-1.166,4.251,4.251,0,0,0-1.986-.491,1.324,1.324,0,0,0-.608.13.6.6,0,0,0-.337.485c-.011.347.346.579.673.714A6.736,6.736,0,0,0,952.391,1932.513Z" transform="translate(-947.889 -1930.785)" fill="#d8e081"/>
        </g>
      </g>
      <g id="Group_3215" data-name="Group 3215" transform="translate(7.107 13.779)">
        <g id="Group_3214" data-name="Group 3214">
          <path id="Path_136" data-name="Path 136" d="M956.6,1936.832a.7.7,0,0,0-.523-.3,2.934,2.934,0,0,0-2.115.511,6.234,6.234,0,0,0-1.507,1.553,18.7,18.7,0,0,0,3.461-.843,1.518,1.518,0,0,0,.563-.328A.537.537,0,0,0,956.6,1936.832Z" transform="translate(-952.455 -1936.491)" fill="#d8e081"/>
        </g>
      </g>
      <g id="Group_3217" data-name="Group 3217" transform="translate(3.464 21.979)">
        <g id="Group_3216" data-name="Group 3216">
          <path id="Path_137" data-name="Path 137" d="M954.1,1946.045c.011-.006.02-.015.03-.023a.133.133,0,0,1-.041,0l-.012-.026a7.139,7.139,0,0,0-2.841-3.848.939.939,0,0,0-.834-.206.729.729,0,0,0-.327.843,2.738,2.738,0,0,0,1.075,1.447,15.7,15.7,0,0,0,2.865,1.863v0l-.02.042.041-.035a1.143,1.143,0,0,0,.115.062Z" transform="translate(-950.052 -1941.899)" fill="#d8e081"/>
        </g>
      </g>
      <g id="Group_3219" data-name="Group 3219" transform="translate(6.862 29.527)">
        <g id="Group_3218" data-name="Group 3218">
          <path id="Path_138" data-name="Path 138" d="M952.381,1946.925a.689.689,0,0,1-.088-.047c.015.07.029.143.042.214Z" transform="translate(-952.293 -1946.878)" fill="#d8e081"/>
        </g>
      </g>
      <g id="Group_3221" data-name="Group 3221" transform="translate(2.323 24.664)">
        <g id="Group_3220" data-name="Group 3220">
          <path id="Path_139" data-name="Path 139" d="M950.583,1943.845a1.554,1.554,0,0,0-.613-.174.667.667,0,0,0-.564.246.752.752,0,0,0-.076.616,3.036,3.036,0,0,0,.9,1.376,14.512,14.512,0,0,0,3.606,2.625,7.922,7.922,0,0,0-1.013-2.638A5.381,5.381,0,0,0,950.583,1943.845Z" transform="translate(-949.299 -1943.67)" fill="#d8e081"/>
        </g>
      </g>
      <g id="Group_3223" data-name="Group 3223" transform="translate(1.146 28.977)">
        <g id="Group_3222" data-name="Group 3222">
          <path id="Path_140" data-name="Path 140" d="M948.618,1946.781a.655.655,0,0,0-.076.506,1.53,1.53,0,0,0,.226.474,7.79,7.79,0,0,0,2.114,2.127,21.449,21.449,0,0,0,2.541,1.483l-.1.066a11.459,11.459,0,0,0,4.117.507,1.569,1.569,0,0,0,.669-.149.552.552,0,0,0,.306-.556c-.047-.233-.284-.377-.5-.475a4.444,4.444,0,0,0-4.412.56v-.021a6.515,6.515,0,0,0-2.631-4.171,2.94,2.94,0,0,0-1.516-.616A.824.824,0,0,0,948.618,1946.781Z" transform="translate(-948.523 -1946.515)" fill="#d8e081"/>
        </g>
      </g>
      <g id="Group_3225" data-name="Group 3225" transform="translate(3.107 4.383)">
        <g id="Group_3224" data-name="Group 3224">
          <path id="Path_141" data-name="Path 141" d="M951.683,1961.562a38.566,38.566,0,0,0-1.812-30.61c-.3-.588.682-.942.975-.359a39.548,39.548,0,0,1,1.779,31.4C952.4,1962.614,951.459,1962.177,951.683,1961.562Z" transform="translate(-949.817 -1930.294)" fill="#d8e081"/>
        </g>
      </g>
    </g>
    <g id="Group_3232" data-name="Group 3232" transform="translate(8.078 10.797)">
      <g id="Group_3229" data-name="Group 3229" opacity="0.4">
        <g id="Group_3228" data-name="Group 3228">
          <g id="Group_3227" data-name="Group 3227">
            <path id="Path_142" data-name="Path 142" d="M953.254,1949.241a2.706,2.706,0,0,0,.193,2.159q1.387,3.564,3.066,7l-.13.1q3.35,0,6.7-.012a3.667,3.667,0,0,0,1.4-.183,1.078,1.078,0,0,0,.258-1.982,2.53,2.53,0,0,0-.616-.338l-2.955-1.167c-.334-.132-.723-.343-.635-.735a.61.61,0,0,1,.388-.417,7.9,7.9,0,0,1,4.582-.273,3.644,3.644,0,0,0,1.312.19c.594-.085,1.193-.684.655-1.333a1.346,1.346,0,0,0-.428-.329,14.771,14.771,0,0,0-3.286-1.211c-.591-.139-1.362-.455-1.181-1.089a.79.79,0,0,1,.6-.54,10.686,10.686,0,0,1,4.1-.1,2.8,2.8,0,0,0,1.021.064c.462-.094.905-.555.532-1.081a1.062,1.062,0,0,0-.591-.4l-3.2-.919c-.378-.108-.825-.285-.8-.736a.711.711,0,0,1,.572-.627,12.513,12.513,0,0,1,4.5-.118,1.943,1.943,0,0,0,1.4-.106.655.655,0,0,0,.317-.635c-.058-.371-.418-.5-.738-.6l-3.411-1.066a.234.234,0,0,1-.011-.444,9.335,9.335,0,0,1,4.2-.455,2.923,2.923,0,0,0,1.063.02c.485-.126.923-.652.444-1.177a1.17,1.17,0,0,0-.472-.3,19.552,19.552,0,0,0-3.22-.829c.763-.723,1.525-1.451,2.288-2.176.56-.531,1.167-1.192.92-1.977a1.374,1.374,0,0,0-1.234-.9,2.568,2.568,0,0,0-2.22,1.3,2.619,2.619,0,0,1-1,1.079.791.791,0,0,1-.741-.033c-.373-.244-.329-.7-.34-1.105-.009-.352-.147-.778-.5-.839a.655.655,0,0,0-.52.173,2.068,2.068,0,0,0-.473,1.922,3.162,3.162,0,0,1-.18,2.468.983.983,0,0,1-1.3.3c-.44-.28-.435-.828-.537-1.3s-.5-.991-.992-.744a.735.735,0,0,0-.311.353,5.678,5.678,0,0,0,.035,3.317,4.829,4.829,0,0,1-.024,2.115.534.534,0,0,1-.973.1l-1.2-2.117c-.133-.236-.294-.494-.619-.473a.553.553,0,0,0-.418.266,1.381,1.381,0,0,0-.032,1.108q.525,2.092,1.054,4.182c.121.484.22,1.063-.209,1.394a.93.93,0,0,1-1.143-.067c-.694-.561-.7-1.443-1.068-2.165-.221-.437-.77-.85-1.175-.439a.7.7,0,0,0-.152.687,23.49,23.49,0,0,0,1.6,3.962,2.136,2.136,0,0,1,.37,1.61.771.771,0,0,1-.836.57c-.388-.062-.594-.446-.755-.787q-.38-.8-.757-1.6c-.259-.547-.611-1.167-1.27-1.157A1.066,1.066,0,0,0,953.254,1949.241Z" transform="translate(-953.095 -1934.524)" fill="#00abc4"/>
          </g>
        </g>
      </g>
      <g id="Group_3231" data-name="Group 3231" transform="translate(3.813 0.143)">
        <g id="Group_3230" data-name="Group 3230">
          <path id="Path_143" data-name="Path 143" d="M955.615,1957.991a40.6,40.6,0,0,1,14.016-23.309c.253-.211.622.148.365.358a40.17,40.17,0,0,0-13.881,23.086C956.05,1958.449,955.553,1958.314,955.615,1957.991Z" transform="translate(-955.609 -1934.619)" fill="#00aeb4"/>
        </g>
      </g>
    </g>
    <g id="Group_3237" data-name="Group 3237" transform="translate(13.643 20.566)" opacity="0.1" style="isolation: isolate">
      <g id="Group_3236" data-name="Group 3236">
        <g id="Group_3235" data-name="Group 3235" clip-path="url(#clip-path)">
          <g id="Group_3234" data-name="Group 3234" transform="translate(0 0)">
            <g id="Group_3233" data-name="Group 3233">
              <path id="Path_144" data-name="Path 144" d="M956.766,1940.968c.188.1.378.2.569.3v-.1h1.633v.905c.118.05.23.1.349.159v-1.065h1.633v1.741a.448.448,0,0,0,.1.035v-1.98Z" transform="translate(-956.766 -1940.968)" fill="#6c63ff"/>
            </g>
          </g>
        </g>
      </g>
    </g>
    <g id="Group_3239" data-name="Group 3239" transform="translate(0.001 35.082)">
      <g id="Group_3238" data-name="Group 3238">
        <path id="Path_145" data-name="Path 145" d="M965.148,1952.472l-.082,1.278-.112,1.813-.047.753-.114,1.812-.05.753-.112,1.813-1.293,20.552a3.507,3.507,0,0,1-3.522,3.266H953.1a3.506,3.506,0,0,1-3.524-3.28l-1.29-20.553-.114-1.813-.047-.752-.115-1.813-.047-.752-.112-1.813-.082-1.28a1.822,1.822,0,0,1,1.73-1.914h13.825a1.825,1.825,0,0,1,1.827,1.823c0,.036,0,.071,0,.108" transform="translate(-947.768 -1950.542)" fill="#00b0c4"/>
      </g>
    </g>
    <g id="Group_3241" data-name="Group 3241" transform="translate(0.084 38.29)">
      <g id="Group_3240" data-name="Group 3240">
        <path id="Path_146" data-name="Path 146" d="M965.038,1952.657l-.114,1.809H947.936l-.114-1.809Z" transform="translate(-947.822 -1952.657)" fill="#07a5ac"/>
      </g>
    </g>
    <g id="Group_3243" data-name="Group 3243" transform="translate(0.245 40.853)">
      <g id="Group_3242" data-name="Group 3242">
        <path id="Path_147" data-name="Path 147" d="M964.822,1954.347l-.111,1.808H948.043l-.114-1.808Z" transform="translate(-947.929 -1954.347)" fill="#07a5ac"/>
      </g>
    </g>
    <g id="Group_3245" data-name="Group 3245" transform="translate(0.405 43.414)">
      <g id="Group_3244" data-name="Group 3244">
        <path id="Path_148" data-name="Path 148" d="M964.606,1956.037l-.113,1.808H948.15l-.115-1.808Z" transform="translate(-948.034 -1956.037)" fill="#07a5ac"/>
      </g>
    </g>
  </g>
  <g id="Group_3317" data-name="Group 3317" transform="translate(77.428 239.597)">
    <g id="Group_3248" data-name="Group 3248">
      <g id="Group_3247" data-name="Group 3247">
        <path id="Path_149" data-name="Path 149" d="M977.725,1938.561a48.967,48.967,0,0,1,15.826-8.927c22.72-7.613,50.121,2.94,61.867,23.824,4.658,8.277,9.246,19.392,18.743,19.433,9.329.039,10.8-8.856,16.6-13.637,4.717-3.887,10.729-3.771,16.313-2.47,9.79,2.282,19.162,7.919,29.323,8.389,12.051.561,20.182-7.772,30.571-12.321a44.2,44.2,0,0,1,61.292,33.009c.3,1.721.4,3.734-.854,4.952-1.06,1.027-2.7,1.087-4.176,1.087q-128.568-.011-257.144.017c-2.076,0-4.383-.09-5.857-1.552a7.487,7.487,0,0,1-1.716-4.45C956.135,1968.242,964.12,1949.918,977.725,1938.561Z" transform="translate(-958.098 -1927.164)" fill="#e0ecb6"/>
      </g>
    </g>
    <g id="Group_3261" data-name="Group 3261" transform="translate(29.916 12.37)">
      <g id="Group_3251" data-name="Group 3251">
        <g id="Group_3250" data-name="Group 3250">
          <g id="Group_3249" data-name="Group 3249">
            <path id="Path_150" data-name="Path 150" d="M978.489,1938.063c6.051,4.019,10.644,10.454,14.1,16.725a68.359,68.359,0,0,1,8.339,32.3,1.447,1.447,0,0,0,2.893,0,71.438,71.438,0,0,0-8.733-33.755c-3.715-6.721-8.663-13.466-15.141-17.766-1.554-1.03-3,1.472-1.459,2.5Z" transform="translate(-977.829 -1935.322)" fill="#a2d45e"/>
          </g>
        </g>
      </g>
      <g id="Group_3254" data-name="Group 3254" transform="translate(10.086 0.593)">
        <g id="Group_3253" data-name="Group 3253">
          <g id="Group_3252" data-name="Group 3252">
            <path id="Path_151" data-name="Path 151" d="M987.274,1937.547c-.1-.7-.021-.109,0,.1.02.275.032.549.035.822q.009.536-.02,1.073c-.011.2-.027.4-.046.6-.009.1-.02.19-.03.286-.027.261.057-.371,0,.039a10.415,10.415,0,0,1-.276,1.278c-.056.2-.12.394-.192.587-.021.056-.042.109-.062.162-.059.146-.044.111.041-.1a1.652,1.652,0,0,0-.147.314,5.658,5.658,0,0,1-.3.521c-.033.05-.065.1-.1.142-.09.123-.068.094.071-.086a1.625,1.625,0,0,0-.224.258c-.061.061-.118.121-.181.181-.041.039-.083.078-.127.114-.117.1-.085.074.091-.067-.2.071-.4.271-.6.368a1.454,1.454,0,0,0-.515,1.977,1.483,1.483,0,0,0,1.977.52c2.964-1.5,3.619-5.358,3.536-8.356a12.506,12.506,0,0,0-.13-1.5,1.448,1.448,0,0,0-1.777-1.01,1.492,1.492,0,0,0-1.01,1.78Z" transform="translate(-984.481 -1935.713)" fill="#a2d45e"/>
          </g>
        </g>
      </g>
      <g id="Group_3257" data-name="Group 3257" transform="translate(3.725 15.733)">
        <g id="Group_3256" data-name="Group 3256">
          <g id="Group_3255" data-name="Group 3255">
            <path id="Path_152" data-name="Path 152" d="M980.988,1948.39a14,14,0,0,0,3.925,1.653,7.1,7.1,0,0,0,6.448-.993,1.449,1.449,0,0,0,0-2.045,1.5,1.5,0,0,0-2.047,0c.281-.223.021-.018-.047.027a3.431,3.431,0,0,1-.315.184c-.049.022-.362.138-.152.079l-.167.049c-.121.037-.52.2-.649.15.061-.006.118-.015.179-.022-.068.007-.139.017-.206.021-.106.008-.209.014-.315.018-.208,0-.42,0-.631-.017-.1,0-.209-.018-.312-.027-.364-.031.321.057-.036-.006a12.267,12.267,0,0,1-1.278-.287c-.393-.112-.782-.25-1.167-.4-.083-.032-.168-.068-.255-.1-.259-.1.29.134.024.009-.147-.07-.294-.13-.441-.2a9.927,9.927,0,0,1-1.1-.59,1.46,1.46,0,0,0-1.979.52,1.478,1.478,0,0,0,.519,1.977Z" transform="translate(-980.285 -1945.698)" fill="#a2d45e"/>
          </g>
        </g>
      </g>
      <g id="Group_3260" data-name="Group 3260" transform="translate(8.712 16.544)">
        <g id="Group_3259" data-name="Group 3259">
          <g id="Group_3258" data-name="Group 3258">
            <path id="Path_153" data-name="Path 153" d="M984.639,1961.632c4.7,1.8,10,1.936,13.929-1.6a17.885,17.885,0,0,0,4.955-9.3,14.711,14.711,0,0,0,.488-3.1,1.447,1.447,0,0,0-2.891,0c0,.232-.044.464-.064.693.059-.6-.021.108-.047.27-.045.273-.1.544-.153.816a22.35,22.35,0,0,1-1.23,4.039c.112-.262-.07.156-.108.241-.088.2-.183.4-.277.59-.188.375-.388.74-.606,1.1a9.7,9.7,0,0,1-1.378,1.883,8.031,8.031,0,0,1-4.109,2.523c-2.446.622-5.26.008-7.742-.943a1.457,1.457,0,0,0-1.779,1.01,1.481,1.481,0,0,0,1.011,1.78Z" transform="translate(-983.574 -1946.234)" fill="#a2d45e"/>
          </g>
        </g>
      </g>
    </g>
    <g id="Group_3264" data-name="Group 3264" transform="translate(190.677 51.406)">
      <g id="Group_3263" data-name="Group 3263">
        <g id="Group_3262" data-name="Group 3262">
          <path id="Path_154" data-name="Path 154" d="M1086.631,1974.932c6.671-9.03,19.9-11.194,30.371-10.954,10.243.229,22.848,2.771,29.579,11.247,1.155,1.457,3.188-.6,2.042-2.045-7.325-9.219-21.171-11.977-32.306-12.107-11.476-.134-24.973,2.641-32.184,12.4-1.107,1.5,1.4,2.943,2.5,1.46Z" transform="translate(-1083.858 -1961.068)" fill="#a2d45e"/>
        </g>
      </g>
    </g>
    <g id="Group_3267" data-name="Group 3267" transform="translate(195.97 45.834)">
      <g id="Group_3266" data-name="Group 3266">
        <g id="Group_3265" data-name="Group 3265">
          <path id="Path_155" data-name="Path 155" d="M1088.406,1960.248a10.2,10.2,0,0,0,1.425.1c.331.015.66.036.99.071l.246.03c.367.039-.261-.047-.018-.006.206.032.412.063.619.1a11.676,11.676,0,0,1,1.312.322c.212.064.426.136.632.212.1.039.2.083.3.118-.4-.144.012.009.117.058a9.277,9.277,0,0,1,1.306.771c.288.2-.135-.129.053.043.1.091.2.171.3.256a7.873,7.873,0,0,1,.565.578c.044.056.09.112.134.161.22.252-.106-.167,0,0,.088.136.19.262.275.4a9.475,9.475,0,0,1,.481.888c.027.056.1.253-.008-.021.03.071.06.147.088.223.065.174.123.348.174.526a9.776,9.776,0,0,1,.279,1.225,1.461,1.461,0,0,0,1.778,1.012,1.48,1.48,0,0,0,1.01-1.779,9.085,9.085,0,0,0-4.347-6.445,13.413,13.413,0,0,0-5.81-1.606c-.322-.021-.644-.035-.967-.044-.232-.009-.857-.109-.153.023a1.483,1.483,0,0,0-1.78,1.008,1.461,1.461,0,0,0,1.011,1.778Z" transform="translate(-1087.349 -1957.393)" fill="#a2d45e"/>
        </g>
      </g>
    </g>
    <g id="Group_3270" data-name="Group 3270" transform="translate(202.275 39.886)">
      <g id="Group_3269" data-name="Group 3269">
        <g id="Group_3268" data-name="Group 3268">
          <path id="Path_156" data-name="Path 156" d="M1091.683,1955.642c.115.249.3.475.44.711.127.217.249.435.356.663.064.129.211.578.059.114.047.144.112.287.159.432.1.3.118.652.234.939-.056-.139-.035-.315-.011-.053.008.088.014.171.015.253,0,.176-.006.343-.014.517-.015.277.07-.332.006-.036-.021.089-.035.174-.057.264-.018.073-.039.147-.062.22-.015.044-.029.088-.046.132-.042.117-.042.117.006,0s.048-.112,0,0c-.02.044-.042.086-.064.131a2.5,2.5,0,0,1-.149.262c-.055.091-.115.173-.173.259s-.038.056.065-.079c-.047.06-.094.115-.146.174a1.445,1.445,0,0,0,2.044,2.042,5.552,5.552,0,0,0,1.4-2.817,6.412,6.412,0,0,0-.182-2.756,9.368,9.368,0,0,0-.854-1.976c-.164-.29-.383-.561-.523-.86a1.456,1.456,0,0,0-1.982-.519,1.486,1.486,0,0,0-.517,1.977Z" transform="translate(-1091.507 -1953.47)" fill="#a2d45e"/>
        </g>
      </g>
    </g>
    <g id="Group_3273" data-name="Group 3273" transform="translate(197.328 49.534)">
      <g id="Group_3272" data-name="Group 3272">
        <g id="Group_3271" data-name="Group 3271">
          <path id="Path_157" data-name="Path 157" d="M1095.418,1960.039c-.32.211-.6.491-.9.732-.044.035-.086.067-.126.1.366-.311.2-.15.1-.085-.112.083-.224.165-.34.243a8.3,8.3,0,0,1-.77.464c-.137.069-.283.125-.414.2.359-.206.161-.068.052-.026-.076.029-.151.053-.227.081-.167.056-.337.1-.511.139-.077.014-.162.026-.241.045-.115.02-.056.01.176-.023-.055.008-.111.009-.167.015-.167.012-.338.015-.511.01-.085,0-.173-.021-.261-.023.406.012.153.018.035-.006-.181-.041-.356-.1-.532-.152-.27-.085.276.133-.061-.029-.106-.053-.209-.109-.315-.171a1.445,1.445,0,0,0-1.459,2.5,5.538,5.538,0,0,0,2.937.773,6.776,6.776,0,0,0,2.684-.7,9.472,9.472,0,0,0,1.821-1.172c.167-.134.332-.267.491-.4.191-.16.455-.321,0-.018a1.445,1.445,0,1,0-1.46-2.494Z" transform="translate(-1088.244 -1959.833)" fill="#a2d45e"/>
        </g>
      </g>
    </g>
    <g id="Group_3286" data-name="Group 3286" transform="translate(64.769 30.224)">
      <g id="Group_3276" data-name="Group 3276">
        <g id="Group_3275" data-name="Group 3275">
          <g id="Group_3274" data-name="Group 3274">
            <path id="Path_158" data-name="Path 158" d="M1021.048,1948.494c-.041,4.912-1.979,9.895-4.254,14.17a46.509,46.509,0,0,1-15.32,16.8c-1.542,1.027-.1,3.531,1.462,2.494a49.555,49.555,0,0,0,16.352-17.838c2.52-4.727,4.606-10.2,4.652-15.63a1.447,1.447,0,0,0-2.891,0Z" transform="translate(-1000.815 -1947.098)" fill="#a2d45e"/>
          </g>
        </g>
      </g>
      <g id="Group_3279" data-name="Group 3279" transform="translate(18.998 7.599)">
        <g id="Group_3278" data-name="Group 3278">
          <g id="Group_3277" data-name="Group 3277">
            <path id="Path_159" data-name="Path 159" d="M1019.525,1952.519c-.033.026-.067.053-.1.082-.245.2.246-.181.123-.094-.15.109-.3.22-.449.32a9.972,9.972,0,0,1-1.366.781c-.064.024-.129.053-.189.083.411-.2.193-.079.086-.038q-.216.079-.432.152c-.15.044-.3.085-.446.118-.071.015-.138.029-.209.041l-.136.024c.08-.014.162-.024.247-.036a1.2,1.2,0,0,1-.453.024c-.079,0-.161,0-.241-.006-.249-.013.376.071.114.018-.136-.032-.27-.058-.4-.1-.046-.015-.086-.032-.132-.047.074.029.146.061.218.091-.073,0-.193-.1-.253-.135a1.447,1.447,0,0,0-1.459,2.5,5.4,5.4,0,0,0,4.952-.109,10.1,10.1,0,0,0,2.57-1.624,1.454,1.454,0,0,0,0-2.044,1.481,1.481,0,0,0-2.045,0Z" transform="translate(-1013.346 -1952.109)" fill="#a2d45e"/>
          </g>
        </g>
      </g>
      <g id="Group_3282" data-name="Group 3282" transform="translate(12.606 8.007)">
        <g id="Group_3281" data-name="Group 3281">
          <g id="Group_3280" data-name="Group 3280">
            <path id="Path_160" data-name="Path 160" d="M1009.13,1953.828a10.326,10.326,0,0,0,.3,2.2,7.519,7.519,0,0,0,1.559,3.251,4.309,4.309,0,0,0,1.929,1.246,1.457,1.457,0,0,0,1.78-1.008,1.476,1.476,0,0,0-1.011-1.779.571.571,0,0,0-.158-.056c-.017,0,.321.149.217.091-.023-.011-.05-.02-.076-.035a2.241,2.241,0,0,1-.326-.189c-.194-.132.068.035.118.1a1.313,1.313,0,0,0-.123-.1,2.417,2.417,0,0,1-.25-.249c-.038-.04-.071-.08-.108-.124-.156-.187.141.2.092.121-.065-.1-.138-.2-.2-.3a7.147,7.147,0,0,1-.332-.643c-.091-.2.14.347.059.139-.02-.053-.041-.1-.061-.153-.041-.114-.079-.226-.117-.338-.068-.22-.132-.441-.187-.666-.044-.2-.086-.4-.121-.6-.018-.1-.032-.188-.044-.285-.052-.313.048.422.008.086a6.223,6.223,0,0,1-.055-.711,1.446,1.446,0,1,0-2.891,0Z" transform="translate(-1009.13 -1952.379)" fill="#a2d45e"/>
          </g>
        </g>
      </g>
      <g id="Group_3285" data-name="Group 3285" transform="translate(6.789 15.918)">
        <g id="Group_3284" data-name="Group 3284">
          <g id="Group_3283" data-name="Group 3283">
            <path id="Path_161" data-name="Path 161" d="M1005.331,1959.421c.755,3.509,2.763,6.793,6.406,7.767a12.7,12.7,0,0,0,7.5-.611,10.508,10.508,0,0,0,2.068-.91c1.566-1,.118-3.5-1.455-2.5-.135.082-.28.152-.423.22-.118.059-.24.109-.361.166-.3.138.1-.035.056-.02-.1.032-.2.079-.294.118a15.208,15.208,0,0,1-2.726.793c-.136.029-.275.047-.408.074-.34.062.18-.012-.088.014-.3.027-.6.063-.91.073-.274.014-.549.014-.822,0-.146,0-.294-.018-.441-.027l-.218-.027c.1.012.234.039.055.009-.294-.053-.588-.112-.873-.193-.146-.044-.29-.093-.429-.138-.056-.018-.109-.042-.162-.059-.165-.062.229.109-.023-.008a8.41,8.41,0,0,1-.819-.449c-.052-.036-.367-.255-.246-.167.074.056-.246-.2-.326-.279-.141-.132-.276-.271-.406-.414-.05-.053-.375-.455-.243-.278a7.935,7.935,0,0,1-.69-1.114,11.172,11.172,0,0,1-.934-2.813,1.447,1.447,0,0,0-2.79.768Z" transform="translate(-1005.293 -1957.596)" fill="#a2d45e"/>
          </g>
        </g>
      </g>
    </g>
    <g id="Group_3296" data-name="Group 3296" transform="translate(146.923 37.699)">
      <g id="Group_3289" data-name="Group 3289" transform="translate(0 3.648)">
        <g id="Group_3288" data-name="Group 3288">
          <g id="Group_3287" data-name="Group 3287">
            <path id="Path_162" data-name="Path 162" d="M1072.137,1954.437c-10.161.695-14.921,10.886-16.64,19.709q-.2,1.007-.344,2.024c-.045.315-.089.629-.132.944-.059.45.064-.358.008-.056-.343,1.823,2.445,2.6,2.79.77.03-.177.048-.361.071-.541.056-.412-.055.364.014-.086.073-.5.147-.991.235-1.486a42.2,42.2,0,0,1,1.134-4.835c1.177-3.958,2.994-7.968,6.142-10.748a11.32,11.32,0,0,1,6.723-2.807c1.848-.124,1.862-3.016,0-2.888Z" transform="translate(-1055 -1954.433)" fill="#a2d45e"/>
          </g>
        </g>
      </g>
      <g id="Group_3292" data-name="Group 3292" transform="translate(2.569)">
        <g id="Group_3291" data-name="Group 3291">
          <g id="Group_3290" data-name="Group 3290">
            <path id="Path_163" data-name="Path 163" d="M1058.483,1952.437c-1.883,1.668-2.085,4.393-1.5,6.693a9.292,9.292,0,0,0,1.2,2.793,3.519,3.519,0,0,0,2.035,1.7,1.447,1.447,0,0,0,.769-2.79.433.433,0,0,1-.155-.04c.036.018.4.181.185.064s.112.05.124.109c-.006-.036-.143-.124-.171-.155-.07-.068-.171-.255-.261-.29.155.2.186.242.1.123-.021-.032-.044-.061-.065-.089-.051-.077-.1-.152-.15-.229-.1-.152-.182-.308-.264-.467-.061-.12-.144-.452-.252-.527.088.2.1.233.041.089l-.05-.135c-.039-.1-.076-.209-.112-.317-.068-.2-.126-.4-.182-.609s-.1-.42-.136-.635c-.01-.067-.023-.132-.03-.2,0,.062.014.123.023.184a1.35,1.35,0,0,1-.039-.4c-.015-.2-.018-.4-.017-.6,0-.134.01-.266.021-.4,0-.033.008-.068.009-.1.016-.162.012-.133-.014.09a2.769,2.769,0,0,1,.153-.666c.012-.046.061-.265.1-.276-.083.184-.1.223-.052.123a1.125,1.125,0,0,1,.061-.129,4.256,4.256,0,0,1,.355-.581c-.214.308-.027.047.03-.014.092-.1.193-.194.294-.287a1.452,1.452,0,0,0,0-2.042,1.481,1.481,0,0,0-2.045,0Z" transform="translate(-1056.694 -1952.027)" fill="#a2d45e"/>
          </g>
        </g>
      </g>
      <g id="Group_3295" data-name="Group 3295" transform="translate(2.23 16.475)">
        <g id="Group_3294" data-name="Group 3294">
          <g id="Group_3293" data-name="Group 3293">
            <path id="Path_164" data-name="Path 164" d="M1057.917,1966.871c.165-.006-.5-.113-.15,0-.409-.133-.24-.107-.032,0,.262.133.52.271.784.4a9.149,9.149,0,0,0,2.525.865c3.075.514,5.825-.837,8.13-2.787a1.46,1.46,0,0,0,0-2.044,1.479,1.479,0,0,0-2.045,0,10.95,10.95,0,0,1-1.915,1.314,5.17,5.17,0,0,1-1.506.593c-.141.038-.283.068-.427.1-.082.017-.521.059-.149.03-.244.02-.485.038-.728.038-.227,0-.453-.022-.681-.041.417.032.042.006-.056-.012s-.217-.044-.326-.07a9.437,9.437,0,0,1-1.081-.346c-.247-.091.337.158-.017-.01-.065-.032-.135-.062-.2-.092-.14-.068-.282-.138-.423-.211a3.733,3.733,0,0,0-1.7-.618,1.447,1.447,0,0,0,0,2.894Z" transform="translate(-1056.471 -1962.894)" fill="#a2d45e"/>
          </g>
        </g>
      </g>
    </g>
    <g id="Group_3306" data-name="Group 3306" transform="translate(4.332 37.679)">
      <g id="Group_3299" data-name="Group 3299" transform="translate(0 3.648)">
        <g id="Group_3298" data-name="Group 3298">
          <g id="Group_3297" data-name="Group 3297">
            <path id="Path_165" data-name="Path 165" d="M978.091,1954.424c-10.165.695-14.922,10.886-16.64,19.708-.13.672-.247,1.348-.346,2.029-.044.311-.09.625-.132.94-.059.452.064-.356.011-.053-.344,1.819,2.443,2.6,2.787.769.03-.179.05-.362.073-.542.056-.409-.055.364.012-.088.071-.5.147-.99.237-1.484a42.566,42.566,0,0,1,1.133-4.835c1.177-3.96,3-7.965,6.142-10.747a11.3,11.3,0,0,1,6.724-2.8c1.847-.127,1.86-3.019,0-2.89Z" transform="translate(-960.955 -1954.42)" fill="#a2d45e"/>
          </g>
        </g>
      </g>
      <g id="Group_3302" data-name="Group 3302" transform="translate(2.567)">
        <g id="Group_3301" data-name="Group 3301">
          <g id="Group_3300" data-name="Group 3300">
            <path id="Path_166" data-name="Path 166" d="M964.436,1952.423c-1.883,1.671-2.085,4.394-1.494,6.7a9.323,9.323,0,0,0,1.193,2.79,3.523,3.523,0,0,0,2.036,1.7,1.447,1.447,0,1,0,.767-2.79.444.444,0,0,1-.153-.039c.036.021.4.182.187.063s.112.05.123.109c-.006-.035-.141-.125-.168-.152-.074-.07-.173-.258-.264-.292.155.2.186.242.1.124l-.062-.091c-.055-.074-.1-.152-.15-.229-.1-.151-.183-.308-.267-.467-.061-.118-.146-.45-.249-.526.083.2.1.232.039.089-.018-.047-.035-.089-.05-.135-.041-.1-.077-.209-.114-.317-.068-.2-.126-.4-.18-.611s-.1-.42-.135-.635a1.814,1.814,0,0,1-.033-.2c.008.065.015.126.024.187a1.312,1.312,0,0,1-.041-.4c-.015-.2-.018-.4-.017-.6,0-.132.011-.264.02-.4.006-.035.009-.067.012-.1.017-.162.011-.133-.015.09a2.837,2.837,0,0,1,.153-.663c.014-.052.062-.267.1-.276-.08.181-.1.22-.053.122.02-.044.038-.086.062-.131a4.674,4.674,0,0,1,.356-.584c-.214.311-.026.05.029-.011a4.094,4.094,0,0,1,.3-.285,1.453,1.453,0,0,0,0-2.044,1.486,1.486,0,0,0-2.047,0Z" transform="translate(-962.647 -1952.014)" fill="#a2d45e"/>
          </g>
        </g>
      </g>
      <g id="Group_3305" data-name="Group 3305" transform="translate(2.228 16.473)">
        <g id="Group_3304" data-name="Group 3304">
          <g id="Group_3303" data-name="Group 3303">
            <path id="Path_167" data-name="Path 167" d="M963.87,1966.854c.167,0-.5-.111-.148,0-.413-.133-.241-.106-.032,0,.262.134.52.273.784.4a9.369,9.369,0,0,0,2.523.867c3.076.512,5.827-.838,8.13-2.787a1.462,1.462,0,0,0,0-2.05,1.485,1.485,0,0,0-2.047,0,10.768,10.768,0,0,1-1.913,1.319,5.231,5.231,0,0,1-1.5.592c-.141.039-.285.071-.429.1-.08.012-.518.058-.15.027-.24.021-.484.04-.726.04-.227,0-.453-.024-.678-.043.414.033.041.006-.059-.012s-.217-.044-.326-.068a9.606,9.606,0,0,1-1.081-.347c-.244-.089.338.159-.013-.01-.068-.029-.137-.061-.2-.091l-.426-.211a3.694,3.694,0,0,0-1.7-.617,1.444,1.444,0,1,0,0,2.888Z" transform="translate(-962.424 -1962.879)" fill="#a2d45e"/>
          </g>
        </g>
      </g>
    </g>
    <g id="Group_3316" data-name="Group 3316" transform="translate(229.839 26.461)">
      <g id="Group_3309" data-name="Group 3309" transform="translate(0 3.646)">
        <g id="Group_3308" data-name="Group 3308">
          <g id="Group_3307" data-name="Group 3307">
            <path id="Path_168" data-name="Path 168" d="M1126.824,1947.024c-10.166.7-14.921,10.888-16.642,19.709-.13.673-.247,1.348-.346,2.029-.045.311-.085.625-.13.94-.06.452.065-.356.009-.055-.341,1.821,2.444,2.6,2.787.771.032-.177.049-.361.073-.542.055-.411-.055.364.012-.089.076-.494.15-.989.235-1.483a43.509,43.509,0,0,1,1.134-4.837c1.18-3.959,3-7.965,6.145-10.747a11.287,11.287,0,0,1,6.723-2.8c1.844-.125,1.859-3.019,0-2.893Z" transform="translate(-1109.687 -1947.02)" fill="#a2d45e"/>
          </g>
        </g>
      </g>
      <g id="Group_3312" data-name="Group 3312" transform="translate(2.568)">
        <g id="Group_3311" data-name="Group 3311">
          <g id="Group_3310" data-name="Group 3310">
            <path id="Path_169" data-name="Path 169" d="M1113.169,1945.025c-1.883,1.669-2.082,4.392-1.495,6.694a9.313,9.313,0,0,0,1.195,2.791,3.531,3.531,0,0,0,2.035,1.7,1.481,1.481,0,0,0,1.78-1.01,1.465,1.465,0,0,0-1.013-1.78.426.426,0,0,1-.152-.041c.035.021.4.182.185.064s.112.052.124.111c-.006-.036-.142-.124-.17-.153-.07-.07-.174-.256-.259-.291.15.2.187.243.1.123a.9.9,0,0,1-.065-.091c-.053-.074-.1-.15-.15-.228-.094-.153-.183-.308-.265-.468-.061-.118-.144-.45-.249-.525.085.2.1.232.038.088a1.358,1.358,0,0,1-.049-.135c-.039-.1-.079-.208-.114-.317-.068-.2-.126-.4-.182-.61s-.1-.42-.134-.635c-.015-.067-.024-.132-.036-.2.009.065.018.126.027.187a1.257,1.257,0,0,1-.042-.4c-.014-.2-.017-.4-.014-.6,0-.133.009-.265.017-.4.006-.033.009-.068.012-.1.02-.164.015-.134-.015.089a2.679,2.679,0,0,1,.155-.662c.015-.052.059-.269.094-.279-.079.183-.1.223-.053.123.021-.044.043-.085.062-.129a4.809,4.809,0,0,1,.358-.584c-.215.311-.029.05.027-.011a3.99,3.99,0,0,1,.3-.286,1.45,1.45,0,0,0,0-2.042,1.481,1.481,0,0,0-2.045,0Z" transform="translate(-1111.381 -1944.615)" fill="#a2d45e"/>
          </g>
        </g>
      </g>
      <g id="Group_3315" data-name="Group 3315" transform="translate(2.23 16.473)">
        <g id="Group_3314" data-name="Group 3314">
          <g id="Group_3313" data-name="Group 3313">
            <path id="Path_170" data-name="Path 170" d="M1112.6,1959.457c.165,0-.5-.114-.147,0-.414-.132-.24-.106-.035,0,.262.132.519.271.785.4a9.275,9.275,0,0,0,2.52.867c3.078.512,5.827-.835,8.133-2.785a1.466,1.466,0,0,0,0-2.05,1.484,1.484,0,0,0-2.047,0,10.719,10.719,0,0,1-1.915,1.318,5.273,5.273,0,0,1-1.5.593q-.214.057-.428.1c-.08.013-.521.06-.148.029-.243.02-.485.038-.726.038s-.455-.024-.681-.041c.416.032.041.006-.056-.012s-.218-.044-.329-.07a10.337,10.337,0,0,1-1.078-.345c-.247-.091.335.158-.015-.011l-.2-.092c-.144-.071-.284-.139-.423-.212a3.77,3.77,0,0,0-1.7-.617,1.446,1.446,0,0,0,0,2.891Z" transform="translate(-1111.158 -1955.48)" fill="#a2d45e"/>
          </g>
        </g>
      </g>
    </g>
  </g>
  <path id="Path_171" data-name="Path 171" d="M1271.178,1984.095c0,7.645-77.281,13.843-172.616,13.843s-172.613-6.2-172.613-13.843,77.282-13.84,172.613-13.84S1271.178,1976.447,1271.178,1984.095Z" transform="translate(-897.265 -1665.323)" fill="#a0bcff" opacity="0.3"/>
  <g id="Group_3332" data-name="Group 3332" transform="translate(153.896 33.1)">
    <g id="Group_3318" data-name="Group 3318" transform="translate(175.852 2.482)">
      <rect id="Rectangle_2972" data-name="Rectangle 2972" width="26.065" height="10.165" transform="translate(17.676 35.492) rotate(-79.332)" fill="#00b0c4"/>
      <path id="Path_172" data-name="Path 172" d="M1140.269,1825.5l-9.568-1.8,4.827-25.615,9.99,1.882Z" transform="translate(-1121.321 -1789.782)" fill="#00b0c4"/>
      <rect id="Rectangle_2973" data-name="Rectangle 2973" width="39.881" height="16.682" transform="translate(0 39.19) rotate(-79.319)" fill="#00b0c4"/>
    </g>
    <g id="Group_3331" data-name="Group 3331" transform="translate(0 0)">
      <path id="Path_173" data-name="Path 173" d="M1077.659,1875.519a12.255,12.255,0,0,1-9.517-5.231c-3.484-5.229-7.408-22.375-9.3-26.878s-5.375-24.7-4.938-26.876,2.761-4.359,4.649-5.522.873-4.794.581-9.006a19.626,19.626,0,0,1,.074-2.672c.108-.435-2.288-.655-2.781,2.995s-5.827,1.694-7.517,1.583-5.5.381-4.685,4.738,1.635,6.16,1.415,7.247a80.585,80.585,0,0,0,.112,13.784c.543,6.536,4.192,30.835,6.48,38.355s7.955,19.284,10.68,24.95a87.477,87.477,0,0,1,5.789,18.193c.858,4.362,7.067-5.116,8.377-8.931s2.177-17.107,2.177-17.868S1077.659,1875.519,1077.659,1875.519Z" transform="translate(-990.165 -1786.773)" fill="#ffcc8b"/>
      <path id="Path_174" data-name="Path 174" d="M1092.975,1852.733s-1.014,3.481-2.3,7.772-4.672,5.739-10.14,5.809-9.2-2.9-10.512-5.74a72.651,72.651,0,0,1-2.729-7.64s4.471.743,5.856-.059c.708-.411.805-2.882.729-5.182-.074-2.155-.3-4.164-.3-4.164l14.675.414s0,1.806.014,3.75c.008,1.495.027,3.066.059,3.951C1088.4,1853.676,1092.975,1852.733,1092.975,1852.733Z" transform="translate(-978.2 -1763.839)" fill="#ffbb71"/>
      <path id="Path_175" data-name="Path 175" d="M1102.117,1984.341c0,.241,0,.47,0,.7,0,1.838.045,3.283.129,3.981a7.951,7.951,0,0,1-.148,2.18c-.549,2.993-2.289,7.09-4.209,6.973-2.469-.143-3.635-2.759-3.342-5.668.055-.567.142-1.132.232-1.708a22.471,22.471,0,0,0,.4-5.006,1.372,1.372,0,0,1-.012-.175v-.02a18.093,18.093,0,0,0-.616-3.548c-1.307-4.794-6.248-19.469-6.829-24.408s.291-9.153-.872-11.042a15.325,15.325,0,0,1-1.254-3.868c-.552-2.436-.924-4.993-.924-4.993l14.964-3.054a40.376,40.376,0,0,0-.5,6.118c0,.443.024.881.064,1.292.293,3.052,1.6,5.52,2.908,9.734s2.323,12.206,1.161,17.58C1102.468,1973.068,1102.149,1979.707,1102.117,1984.341Z" transform="translate(-969.233 -1716.785)" fill="#ffcc8b"/>
      <path id="Path_176" data-name="Path 176" d="M1092.023,1969.306a44.994,44.994,0,0,0-2.224,11.581c-.14,4.934.148,11.345,4,12.044s6.374-.465,6.818-13.056-.482-11.5-1.7-12.007C1097.45,1967.262,1092.508,1967.613,1092.023,1969.306Z" transform="translate(-966.596 -1699.798)" fill="#2a4163"/>
      <path id="Path_177" data-name="Path 177" d="M1098.651,1974.393a3.9,3.9,0,0,1-3.8,2.546,3.415,3.415,0,0,1-3.516-2.949,22.467,22.467,0,0,0,.4-5.007c-.32-2.45,5.348-1.664,6.947-1.449-.017,2.164.032,3.892.124,4.679A7.96,7.96,0,0,1,1098.651,1974.393Z" transform="translate(-965.791 -1699.977)" fill="#ffcc8b"/>
      <path id="Path_178" data-name="Path 178" d="M1076.937,1937.737s-.371,2.54-.92,4.972a15.316,15.316,0,0,1-1.255,3.889c-1.165,1.889-.292,6.1-.873,11.042s-5.521,19.614-6.827,24.408a18.256,18.256,0,0,0-.619,3.548v.02a1.156,1.156,0,0,1-.01.175,22.566,22.566,0,0,0,.4,5.006c.091.576.177,1.142.234,1.708.291,2.908-.873,5.525-3.342,5.668-1.921.117-3.661-3.98-4.21-6.973a8.09,8.09,0,0,1-.15-2.18c.082-.7.13-2.144.13-3.981,0-.228,0-.456,0-.7-.03-4.634-.35-11.273-1.14-14.933-1.161-5.375-.147-13.367,1.16-17.58s2.614-6.682,2.906-9.734c.04-.4.061-.829.065-1.265a39.869,39.869,0,0,0-.5-6.145Z" transform="translate(-983.081 -1716.785)" fill="#ffcc8b"/>
      <path id="Path_179" data-name="Path 179" d="M1066.806,1969.306a44.986,44.986,0,0,1,2.224,11.581c.141,4.934-.149,11.345-4,12.044s-6.375-.465-6.82-13.056.482-11.5,1.7-12.007C1061.38,1967.262,1066.318,1967.613,1066.806,1969.306Z" transform="translate(-982.947 -1699.798)" fill="#2a4163"/>
      <path id="Path_180" data-name="Path 180" d="M1059,1974.393a3.892,3.892,0,0,0,3.8,2.546,3.414,3.414,0,0,0,3.515-2.949,22.553,22.553,0,0,1-.394-5.007c.318-2.45-5.348-1.664-6.947-1.449a46.52,46.52,0,0,1-.127,4.679A7.985,7.985,0,0,0,1059,1974.393Z" transform="translate(-982.572 -1699.977)" fill="#ffcc8b"/>
      <path id="Path_181" data-name="Path 181" d="M1064.78,1832.891s1.731,14.93,12.369,17.544-3.381-8.88-3.054-11.171-.108-5.61-.053-7.789S1064.78,1832.891,1064.78,1832.891Z" transform="translate(-979.497 -1770.423)" fill="#144998"/>
      <path id="Path_182" data-name="Path 182" d="M1092.133,1828.084s-.238,9.3,0,12.393c.328,4.224-7.3,14.381-12.258,11.276s1.854-15.211,2.18-18.76,2.214-6.162,4.511-6.488S1092.133,1828.084,1092.133,1828.084Z" transform="translate(-972.635 -1772.645)" fill="#144998"/>
      <path id="Path_183" data-name="Path 183" d="M1087.078,1875.519a12.249,12.249,0,0,0,9.514-5.231c3.487-5.229,7.41-22.375,9.3-26.878s5.375-24.7,4.94-26.876-2.763-4.359-4.65-5.522-.873-4.794-.58-9.006a19.587,19.587,0,0,0-.075-2.672c-.107-.435,2.288-.655,2.779,2.995s5.828,1.694,7.517,1.583,5.505.381,4.687,4.738-1.635,6.16-1.415,7.247a80.738,80.738,0,0,1-.112,13.784c-.543,6.536-4.192,30.835-6.48,38.355s-7.956,19.284-10.68,24.95a87.578,87.578,0,0,0-5.789,18.193c-.858,4.362-7.068-5.116-8.375-8.931s-2.179-17.107-2.179-17.868S1087.078,1875.519,1087.078,1875.519Z" transform="translate(-968.813 -1786.773)" fill="#ffcc8b"/>
      <path id="Path_184" data-name="Path 184" d="M1069.092,1834.409s.763,13.964,1.307,16.2,5.995,8.531,8.827,8.743,8.933-3.944,10.351-8.419.437-14.18.981-17.912-4.141-8-5.884-9.165-12.2,3.941-13.183,5.968S1069.092,1834.409,1069.092,1834.409Z" transform="translate(-977.271 -1774.083)" fill="#ffcc8b"/>
      <path id="Path_185" data-name="Path 185" d="M1086.84,1829.775s-7.519,9.371-16.67,10.351-5.45-2.834-5.013-5.176-1.634-5.555,3.161-7.519c3.565-1.457,3.7-4.632,4.794-5.611a11.54,11.54,0,0,1,12.313,0c5.23,3.487,8.607-.87,12.857,3.052s1.161,12.53-2.073,13.073S1086.84,1829.775,1086.84,1829.775Z" transform="translate(-979.874 -1775.969)" fill="#144998"/>
      <path id="Path_186" data-name="Path 186" d="M1180.886,1810.216a511.107,511.107,0,0,0-155.753,0q-.3-2.252-.591-4.493a515.052,515.052,0,0,1,156.932,0Q1181.183,1807.969,1180.886,1810.216Z" transform="translate(-1000.268 -1786.457)" fill="#00b0c4"/>
      <g id="Group_3319" data-name="Group 3319">
        <rect id="Rectangle_2974" data-name="Rectangle 2974" width="10.165" height="26.067" transform="translate(0 11.757) rotate(-10.669)" fill="#00b0c4"/>
        <path id="Path_187" data-name="Path 187" d="M1019.251,1823.858l9.566-1.8-4.827-25.612-9.989,1.882Z" transform="translate(-1005.708 -1788.145)" fill="#00b0c4"/>
        <rect id="Rectangle_2975" data-name="Rectangle 2975" width="16.682" height="39.88" transform="translate(8.711 3.089) rotate(-10.671)" fill="#00b0c4"/>
      </g>
      <path id="Path_188" data-name="Path 188" d="M1100.07,1801.107c.053-1.479.326-2.943,5.228-2.508s8.454,2.452,7.8,6.1-5.11,3.651-7.035,3.433c-1.654-.188-3.377-.253-4.738-2.4A7.365,7.365,0,0,1,1100.07,1801.107Z" transform="translate(-961.285 -1787.071)" fill="#ffb173"/>
      <path id="Path_189" data-name="Path 189" d="M1057.164,1801.107c-.053-1.479-.324-2.943-5.231-2.508s-8.451,2.452-7.793,6.1,5.108,3.651,7.033,3.433c1.655-.188,3.377-.253,4.74-2.4A7.4,7.4,0,0,0,1057.164,1801.107Z" transform="translate(-990.192 -1787.071)" fill="#ffb173"/>
      <path id="Path_190" data-name="Path 190" d="M1120.5,1954.921c-1.889,2.03-6.684,1.886-10.9,1.452s-15.4,2.467-17.433,2.032-2.906-35.737-2.906-35.737-3.63,35.158-5.956,35.737-9.878,1.747-13.8,0-10.607-.87-12.348-1.886,1.163-11.623,3.3-21.794c1.3-6.176,2-17.121,2.35-24.767.224-4.94.3-8.5.3-8.5s6.758-1.645,13.07-2.565c3.775-.546,7.4-.829,9.3-.34,4.443,1.142,19.095-.268,23.3,2.945a2.691,2.691,0,0,1,1.107,1.7c.192,1.183.9,4.26,1.883,8.355C1115.227,1926.051,1121.968,1953.332,1120.5,1954.921Z" transform="translate(-983.709 -1735.567)" fill="#b8b8bc"/>
      <path id="Path_191" data-name="Path 191" d="M1109.469,1936.4c-.12.007-.241.007-.371.007a32.955,32.955,0,0,1-5.079-.673c-.123-.024-.25-.043-.371-.073-1.627-.294-3.372-.63-5.078-.884-.126-.018-.249-.039-.372-.054a30.5,30.5,0,0,0-4.215-.355c-.284,0-.573-.009-.861-.026-.121,0-.244-.008-.37-.015a33.3,33.3,0,0,1-5.079-.754c-.123-.026-.249-.056-.371-.083-1.727-.39-3.439-.864-5.079-1.325l-.371-.109c-1.833-.516-3.557-1.011-5.082-1.337-.126-.027-.249-.053-.371-.074a15.714,15.714,0,0,0-2.1-.3,9.728,9.728,0,0,0-2.975.359c-.123.027-.244.057-.372.094a44.374,44.374,0,0,0-5.07,1.844c-.121.051-.246.1-.367.151a22.556,22.556,0,0,1-5.082,1.756,1.687,1.687,0,0,1-.37,0,.905.905,0,0,1-.365-.1c-1.043-.56-.4-8.1.324-15.825.121-1.292.244-2.588.358-3.859.353-3.831.655-7.42.7-9.9.147-8.209-.076-19.278-.076-19.278s2.435-1.706,4.342-6.729c.126-.324.249-.669.367-1.029a36.979,36.979,0,0,0,1.686-8.58,150.764,150.764,0,0,0,.649-19.9s1.2.086,2.653.161c.123,0,.249.014.37.017a24.862,24.862,0,0,0,4.462-.026c.306-.086.416.87.622,2.292v.012c.1.65.212,1.418.38,2.215v.012c.594,2.91,1.839,6.37,5.1,7.614.118.049.244.09.371.129a7.95,7.95,0,0,0,2.464.345,8.618,8.618,0,0,0,2.611-.408c.126-.041.253-.082.371-.13a9.3,9.3,0,0,0,5.06-5.372c.135-.314.256-.631.367-.948v-.008a20.78,20.78,0,0,0,1.108-5.762s1.959.106,3.953.129h.368a22.015,22.015,0,0,0,3.16-.129c1.888-.3-1.378,6.82,1.6,19.673.127.549.256,1.078.384,1.591v.02c.126.5.247.96.375,1.422v.021c1.989,7.344,4.08,10.815,5.114,12.2v.006c.147.2.273.347.376.462a4.163,4.163,0,0,0,.288.313s.362,46.69,1.307,49.939C1111.155,1936,1110.579,1936.346,1109.469,1936.4Z" transform="translate(-982.403 -1760.832)" fill="#a2d45e"/>
      <g id="Group_3330" data-name="Group 3330" transform="translate(77.617 88.683)">
        <g id="Group_3320" data-name="Group 3320" transform="translate(0 65.25)">
          <path id="Path_192" data-name="Path 192" d="M1060.135,1912.275a1.673,1.673,0,0,1-.37,0l-.041-15.922c.121-1.292.244-2.588.358-3.859Z" transform="translate(-1059.724 -1892.495)" fill="#61a60e"/>
        </g>
        <g id="Group_3321" data-name="Group 3321" transform="translate(5.323 28.317)">
          <path id="Path_193" data-name="Path 193" d="M1063.772,1922.942c-.121.052-.246.1-.367.152l-.17-53.928c.126-.324.249-.669.367-1.029Z" transform="translate(-1063.235 -1868.136)" fill="#61a60e"/>
        </g>
        <g id="Group_3322" data-name="Group 3322" transform="translate(10.679)">
          <path id="Path_194" data-name="Path 194" d="M1067.39,1930.645c-.123.027-.244.057-.371.094l-.252-81.279c.123,0,.249.014.37.017Z" transform="translate(-1066.767 -1849.46)" fill="#61a60e"/>
        </g>
        <g id="Group_3323" data-name="Group 3323" transform="translate(16.132 2.296)">
          <path id="Path_195" data-name="Path 195" d="M1070.979,1929.883c-.126-.027-.249-.053-.371-.074l-.244-78.835c.1.65.212,1.418.38,2.215v.012Z" transform="translate(-1070.364 -1850.974)" fill="#61a60e"/>
        </g>
        <g id="Group_3324" data-name="Group 3324" transform="translate(21.61 12.137)">
          <path id="Path_196" data-name="Path 196" d="M1074.568,1927.979l-.372-.109-.22-70.4c.118.049.244.09.371.129Z" transform="translate(-1073.977 -1857.465)" fill="#61a60e"/>
        </g>
        <g id="Group_3325" data-name="Group 3325" transform="translate(27.056 12.073)">
          <path id="Path_197" data-name="Path 197" d="M1078.165,1929.409c-.123-.026-.249-.056-.371-.083l-.224-71.772c.126-.041.253-.082.371-.13Z" transform="translate(-1077.569 -1857.423)" fill="#61a60e"/>
        </g>
        <g id="Group_3326" data-name="Group 3326" transform="translate(32.488 5.754)">
          <path id="Path_198" data-name="Path 198" d="M1081.765,1932.329c-.121,0-.244-.008-.37-.015l-.244-78.111c.135-.314.256-.631.367-.948Z" transform="translate(-1081.151 -1853.255)" fill="#61a60e"/>
        </g>
        <g id="Group_3327" data-name="Group 3327" transform="translate(37.915 0.114)">
          <path id="Path_199" data-name="Path 199" d="M1085.365,1934.684c-.126-.018-.249-.039-.371-.054l-.262-85.1h.369Z" transform="translate(-1084.731 -1849.535)" fill="#61a60e"/>
        </g>
        <g id="Group_3328" data-name="Group 3328" transform="translate(43.427 21.268)">
          <path id="Path_200" data-name="Path 200" d="M1088.938,1928.439c-.123-.024-.25-.043-.371-.073l-.2-64.879c.126.5.247.96.375,1.422v.021Z" transform="translate(-1088.366 -1863.487)" fill="#61a60e"/>
        </g>
        <g id="Group_3329" data-name="Group 3329" transform="translate(48.915 34.914)">
          <path id="Path_201" data-name="Path 201" d="M1092.52,1924.459c-.12.007-.241.007-.371.007l-.162-51.98c.147.2.273.347.376.462Z" transform="translate(-1091.986 -1872.487)" fill="#61a60e"/>
        </g>
      </g>
      <path id="Path_202" data-name="Path 202" d="M1091.387,1824.884c-.744-2.188-3.463-3.142-5.53-2.661a29.353,29.353,0,0,1-5.145.608l-.009-.417a28.991,28.991,0,0,0,5.056-.6c2.247-.523,5.2.531,6.022,2.932Z" transform="translate(-971.277 -1775.113)" fill="#895d9b"/>
      <path id="Path_203" data-name="Path 203" d="M1063.648,1833.3l-.23-.347s.623-.5,1.16-3.251c.576-2.957,1.374-3.434,1.465-3.48l.185.375-.093-.188.1.183c-.007,0-.717.453-1.249,3.189C1064.412,1832.718,1063.723,1833.246,1063.648,1833.3Z" transform="translate(-980.2 -1772.773)" fill="#895d9b"/>
    </g>
  </g>
  <g id="Group_3334" data-name="Group 3334" transform="translate(0 75.745)">
    <path id="Path_204" data-name="Path 204" d="M916.325,1928.715c1.1.641,51.334,9.259,53.81,8.894,1.469-.219,4.2-2.8,6.179-4.855,1.348-1.408,2.349-2.572,2.349-2.572L962.16,1919a3.253,3.253,0,0,1-2.277,2.062,3.146,3.146,0,0,1-.535.05c-2.107,0-8.67-3.7-13.678-4.08-4.166-.322-11.837,2.52-16.237,3.254s-11.276-1.01-11.276-1.01S915.224,1928.075,916.325,1928.715Z" transform="translate(-902.36 -1768.556)" fill="#ffba85"/>
    <path id="Path_205" data-name="Path 205" d="M990.584,1990.194a6.61,6.61,0,0,1-1.187-4.764c.276-3.117,14.3-51.705,14.151-54-.088-1.36-1.827-3.915-3.228-5.764-.957-1.269-1.756-2.21-1.756-2.21l-17.632,6.965s1.3.9,2.655,2.033c1.7,1.434,3.487,3.24,2.878,4.109-1.1,1.559-4.22,11.184-4.863,15.952s.919,10.724.46,16.5-3.848,14.115-3.848,14.115Z" transform="translate(-870.286 -1765.224)" fill="#ffba85"/>
    <path id="Path_206" data-name="Path 206" d="M985.021,1888.11c.55,3.208,5.47,10.954,7.854,11.6s10.848-3.437,15.429-6.094,12.195-7.693,13.661-7.6,6.051-.467,5.317-7.616-6.457-6.335-8.068-5.844c-2.508.764-3.022,5.079-3.387,6.454s-18.705,9.625-19.714,8.8c-.722-.59-.065-6.089.362-9.172.173-1.224.308-2.063.308-2.063H986.215s-.221,1.06-.482,2.57C985.264,1881.861,984.668,1886.045,985.021,1888.11Z" transform="translate(-866.827 -1791.662)" fill="#ffba88"/>
    <path id="Path_207" data-name="Path 207" d="M985.454,1877.667l10.744-.506c.173-1.224.308-2.064.308-2.064H985.936S985.715,1876.157,985.454,1877.667Z" transform="translate(-866.548 -1790.188)" fill="#895d9b"/>
    <path id="Path_208" data-name="Path 208" d="M922.481,1929.79s-4.477,5.149-6.107,7.1-4.508,6.529-5.335,7.093-5.079-1.583-3.754-8.518,4.235-5.655,4.988-10.315a16.949,16.949,0,0,1,4.157-8.75c.705-.543,8.01,2.766,8.5,3.057s-1.663,6-2.048,7.6A13.3,13.3,0,0,0,922.481,1929.79Z" transform="translate(-907.03 -1768.901)" fill="#2a4163"/>
    <path id="Path_209" data-name="Path 209" d="M991.185,1966.06s3.213,5.072,4.879,7.028,5.771,5.622,6.189,6.537-2.559,4.706-9.341,2.143-4.938-5.2-9.52-6.785a17.5,17.5,0,0,1-8.094-5.686c-.415-.795,4.315-7.371,4.7-7.8s5.774,2.731,7.32,3.4A24.893,24.893,0,0,0,991.185,1966.06Z" transform="translate(-871.804 -1745.61)" fill="#2a4163"/>
    <path id="Path_210" data-name="Path 210" d="M982.261,1847.287c1.284,1.01,6.467,5.226,7.382,6.418s11.554,2.385,10.362,0a13.3,13.3,0,0,1-.981-4.074c-.029-.253-.051-.5-.071-.743a8.625,8.625,0,0,1,.042-3.066c.275,0,4.1.362,3.618-.734-1.721-3.971-2.55-6.485-3.04-7.795a68.416,68.416,0,0,1-1.771-7.974s-11.735,2.293-14.575,2.934-3.3,3.668-3.668,6.234S980.98,1846.28,982.261,1847.287Z" transform="translate(-869.616 -1813.818)" fill="#ffba88"/>
    <path id="Path_211" data-name="Path 211" d="M992.035,1850.191a97.809,97.809,0,0,0-.734,10.542c.184,2.658-6.233,5.13-7.425,4.858s-7.7-6.533-8.3-7.692,2.338-4.273,3.712-11.468,1.961-7.2,2.311-7.563,3.372.456,6.215,5.868S992.035,1850.191,992.035,1850.191Z" transform="translate(-871.686 -1808.929)" fill="#ffba88"/>
    <path id="Path_212" data-name="Path 212" d="M1006.166,1834.047c-1.267,1.671-3.653,2.964-7.623,4s-6.539,5.991-6.967,8.007a7.121,7.121,0,0,0,.243,3.728l-2.077.426s1.71-9.349-1.772-9.839-3.487,3.73-3.271,5.013,1.07,3.971,1.986,4.826-1.844.705-4.153,3.545-1.245,5.655-2.264,6.174-3.727-2.016-4.4-6.3,1.675-4.888.564-8.191-4.412-8.494-1.662-14.422,8.92-8.372,12.894-8.005,8.28,3.33,11.734,1.958c2.343-.936,3.117-3.789,3.057-5.442s4.033,1.591,5.281,6.133A9.141,9.141,0,0,1,1006.166,1834.047Z" transform="translate(-872.616 -1819.096)" fill="#144998"/>
    <path id="Path_213" data-name="Path 213" d="M998.4,1845.576a4.821,4.821,0,0,1-4.08,1.755c-2.383-.365-4.82-1.586-6.538-7.149,0,0-5.805,1.21-6.112,3.6s1.954,6,4.828,7.156,7.334,2.444,10.084,3.971,4.386,1.667,4.976.734c.707-1.116-.245-3.194-1.164-5.393S998.4,1845.576,998.4,1845.576Z" transform="translate(-868.516 -1808.211)" fill="#144998"/>
    <path id="Path_214" data-name="Path 214" d="M944.616,1929.266l20.412,14.181,12.468-16.26s16.257,20.9,18.091,18.946c.761-.808,5.292-2.464,10.319-4.209,1.271-.443,2.568-.891,3.847-1.331,5.852-2.012,11.25-3.9,11.133-4.48-.241-1.227-20.044-33.5-20.044-33.5s-43.636-6.107-44.857-4.273S944.616,1929.266,944.616,1929.266Z" transform="translate(-887.629 -1778.365)" fill="#b8b8bc"/>
    <g id="Group_3333" data-name="Group 3333" transform="translate(73.794 129.372)">
      <path id="Path_215" data-name="Path 215" d="M971.638,1924l.274-.244c-.108-.123-10.879-12.334-12.418-14.234a23.941,23.941,0,0,1-3.458-5.1l-.335.153a24.3,24.3,0,0,0,3.51,5.173C960.753,1911.655,971.529,1923.873,971.638,1924Z" transform="translate(-955.701 -1904.423)" fill="#b8b8bc"/>
    </g>
    <path id="Path_216" data-name="Path 216" d="M962.554,1899.818l34.093,41.169c1.271-.443,2.568-.891,3.847-1.331-3.093-3.873-20.466-25.6-23.823-29.752-6.433-7.957-9.35-10.086-9.35-10.086Z" transform="translate(-878.369 -1777.428)" fill="#fffdf1"/>
    <path id="Path_217" data-name="Path 217" d="M947.132,1867.661a2.864,2.864,0,0,0,.106.585v0a34.631,34.631,0,0,0,2.02,4.935c.061.126.123.253.18.381.829,1.739,1.756,3.571,2.564,5.132.065.125.13.249.2.37,1.084,2.088,1.909,3.61,1.909,3.61l.485-.2.337-.135,3.354-1.36,1.075-.437h.006l.242-.1.343-.139,3.875-1.574s-.61,2.4-1.533,6.106c-.049.174-.09.356-.135.538a1.1,1.1,0,0,0-.029.112c-.059.229-.117.464-.18.705v0c-.484,1.95-1.042,4.183-1.628,6.57-.044.18-.09.361-.132.546-.206.823-.411,1.662-.62,2.518-.059.232-.114.469-.173.705-.338,1.382-.675,2.791-1.022,4.208-.039.18-.085.362-.129.541-.39,1.616-.773,3.229-1.148,4.811-.055.232-.109.459-.161.69v.006q-.243,1.01-.47,2c-.044.183-.088.364-.129.544v0c-.572,2.464-1.1,4.8-1.554,6.876-.053.23-.1.459-.147.677,0,.027-.01.05-.014.073-.041.191-.08.381-.121.564a43.484,43.484,0,0,0-1.218,7.223c.018.159.156.318.4.474a4.194,4.194,0,0,0,.379.2,24.221,24.221,0,0,0,5.149,1.23l.449.071h0c.323.053.655.1,1,.15.173.026.346.05.523.073,1.392.194,2.917.381,4.537.557.144.02.291.035.437.047.746.082,1.51.164,2.288.237.18.017.361.035.54.056,1.023.1,2.068.193,3.125.284.143.012.285.027.429.038,1.295.111,2.611.215,3.93.318.185.015.371.03.555.044.469.04.942.071,1.412.1.142.012.285.021.427.033,1.959.143,3.9.276,5.769.393.032,0,.062,0,.091,0,.144.008.287.017.429.029a.224.224,0,0,1,.036,0c2.051.127,4.006.24,5.795.341.142.009.285.014.424.021l1.486.082c.194.006.38.018.568.024,1.428.076,2.7.143,3.754.188.147.007.287.012.423.017,1.656.076,2.717.114,2.944.114.286,0,.666-1.222,1.092-3.233.039-.184.08-.375.117-.572v0c.278-1.366.572-3.037.873-4.9.033-.209.067-.42.1-.635.14-.872.277-1.78.42-2.715.03-.2.061-.409.091-.62v0c.25-1.7.5-3.477.752-5.277.024-.206.055-.415.083-.618q.18-1.365.361-2.725v0c.03-.216.061-.426.085-.638.232-1.745.452-3.47.658-5.109l.077-.614c.13-1.067.258-2.1.377-3.071.029-.218.055-.432.079-.646.221-1.813.412-3.411.561-4.682.026-.212.049-.414.07-.61.191-1.6.3-2.558.3-2.558h10.131s.158-1.873.376-4.442c.017-.222.038-.454.056-.69.052-.578.1-1.183.155-1.8.018-.2.032-.39.05-.593.2-2.353.418-4.885.6-6.985.02-.235.039-.461.062-.682.008-.148.024-.294.036-.437.018-.2.035-.4.049-.593.032-.291.056-.567.08-.826a23.79,23.79,0,0,0-.227-6.5c-.026-.155-.059-.308-.091-.458a8.936,8.936,0,0,0-2.114-4.4c-.165-.165-.367-.362-.6-.59-.092-.086-.191-.177-.291-.276-1.051-1-2.573-2.4-4.065-3.765-.1-.094-.2-.185-.3-.271-1.328-1.214-2.609-2.37-3.477-3.163-.246-.215-.453-.406-.626-.562-.056-.05-.109-.091-.153-.134s-.1-.1-.15-.135c-.132-.123-.2-.185-.2-.185s-.024.167-.082.439v0c-.038.19-.1.429-.176.705a6.439,6.439,0,0,1-2.65,3.795c-.1.061-.214.12-.325.173a4.6,4.6,0,0,1-1.856.431c-.187,0-.381,0-.582-.009a.084.084,0,0,0-.033,0,6.923,6.923,0,0,1-3.9-1.807c-.281-.244-.552-.5-.813-.771-.1-.1-.191-.2-.281-.3s-.179-.2-.268-.3a16.406,16.406,0,0,1-2.858-4.858h0c-.052-.146-.1-.283-.138-.417a4.349,4.349,0,0,1-.249-1.46,1.088,1.088,0,0,1,.017-.174c.033-.185-.074-.3-.3-.375-.755-.24-2.816.093-5.307.67-.121.029-.245.056-.37.088-.276.065-.553.132-.835.2s-.553.139-.835.214c-1.084.282-2.2.594-3.292.914-.123.035-.243.073-.359.1-1.812.538-3.525,1.084-4.853,1.548h0c-.118.038-.233.086-.349.12-.808.287-1.445.532-1.836.707-.461.21-1.428.709-2.729,1.4l-.073.038-.249.134c-.375.2-.778.417-1.2.646h0c-.97.528-2.057,1.119-3.211,1.753l-.323.176c-1.4.769-2.893,1.592-4.4,2.427-.108.058-.214.117-.318.176-1.483.822-2.967,1.65-4.391,2.444-.109.059-.217.123-.323.182-1.589.887-3.078,1.726-4.382,2.456-.106.063-.217.124-.318.185-1.437.808-2.615,1.478-3.377,1.921l-.012.009c-.482.276-.8.462-.908.537a.148.148,0,0,0-.055.065A.558.558,0,0,0,947.132,1867.661Z" transform="translate(-886.332 -1804.104)" fill="#0075c9"/>
    <path id="Path_218" data-name="Path 218" d="M952.474,1905.192c.981,1.965.593,4.911,1.469,6.027,2,2.555,4.953,2.091,8.433.764,4.016-1.53,5.211-5.463,3.619-7.419s-3.07-1.807-4.352-2.541-3.959-5.643-5.987-10.512c-2.341-5.607-6.3-13.629-5.381-14.913.787-1.1,6-1.954,7.463-2.171l.379-.056-5.913-12.624c-.036.012-.29.133-.708.344-2.749,1.365-12.618,6.518-13.414,9.068C937.166,1874.093,949.634,1900.354,952.474,1905.192Z" transform="translate(-891.026 -1797.08)" fill="#ffba88"/>
    <path id="Path_219" data-name="Path 219" d="M946.788,1862.182c1.219,2.311,5.008,10.049,6.13,12.293.24-.039.681-.1.681-.1l-5.913-12.624C947.649,1861.759,947.206,1861.974,946.788,1862.182Z" transform="translate(-886.508 -1797.08)" fill="#895d9b"/>
    <path id="Path_220" data-name="Path 220" d="M992.372,1824.172c1.75,0,3.011-.49,3.536-1.422a6.756,6.756,0,0,0,.7-2.6l-.314-.018a6.647,6.647,0,0,1-.662,2.465c-.537.954-2.368,1.7-5.9.952a35.7,35.7,0,0,0-7.538-1.052l.01.314a36.509,36.509,0,0,1,7.463,1.049A13.251,13.251,0,0,0,992.372,1824.172Z" transform="translate(-868.232 -1818.562)" fill="#895d9b"/>
    <path id="Path_221" data-name="Path 221" d="M991.962,1822.694a4.154,4.154,0,0,0,2.831-.931l-.217-.228a4.331,4.331,0,0,1-3.53.769,57.076,57.076,0,0,0-9-.523l.047.224a63.262,63.262,0,0,1,8.9.614A6.718,6.718,0,0,0,991.962,1822.694Z" transform="translate(-868.307 -1817.837)" fill="#895d9b"/>
  </g>
  <g id="Group_3387" data-name="Group 3387" transform="translate(333.897 241.093)">
    <g id="Group_3367" data-name="Group 3367">
      <g id="Group_3336" data-name="Group 3336" transform="translate(2.871 16.577)">
        <g id="Group_3335" data-name="Group 3335">
          <path id="Path_222" data-name="Path 222" d="M1137.893,1940.689c.221-.089.462-.257.449-.494-.012-.262-.325-.4-.591-.452a4.511,4.511,0,0,0-4.03,1.284l-.015.085a6.287,6.287,0,0,0-3.615-2c-.31-.053-.687-.056-.864.2a.575.575,0,0,0,.018.619,1.463,1.463,0,0,0,.491.434,6.351,6.351,0,0,0,4.012.89l-.026-.117v0C1135.088,1940.8,1136.6,1941.226,1137.893,1940.689Z" transform="translate(-1129.145 -1939.084)" fill="#d8e081"/>
        </g>
      </g>
      <g id="Group_3338" data-name="Group 3338" transform="translate(2.97 19.391)">
        <g id="Group_3337" data-name="Group 3337">
          <path id="Path_223" data-name="Path 223" d="M1138.213,1943.871a.729.729,0,0,0,.423-.249.533.533,0,0,0-.1-.638,1.289,1.289,0,0,0-.617-.317,4.33,4.33,0,0,0-4.133,1.109l-.062.138a6.774,6.774,0,0,0-3.5-2.876c-.308-.111-.708-.174-.914.076a.539.539,0,0,0-.048.549,1.41,1.41,0,0,0,.362.453,7.257,7.257,0,0,0,4.125,1.856l-.006-.02c1.051.009,2.1.021,3.149.029A4.869,4.869,0,0,0,1138.213,1943.871Z" transform="translate(-1129.21 -1940.94)" fill="#d8e081"/>
        </g>
      </g>
      <g id="Group_3340" data-name="Group 3340" transform="translate(6.949 29.029)">
        <g id="Group_3339" data-name="Group 3339">
          <path id="Path_224" data-name="Path 224" d="M1131.946,1947.928a10.272,10.272,0,0,0,4.383,1.007c.287,0,.634-.044.752-.3.127-.281-.115-.587-.37-.764a3.738,3.738,0,0,0-2.412-.561,11.329,11.329,0,0,0-2.465.553Z" transform="translate(-1131.834 -1947.296)" fill="#d8e081"/>
        </g>
      </g>
      <g id="Group_3342" data-name="Group 3342" transform="translate(2.968 10.236)">
        <g id="Group_3341" data-name="Group 3341">
          <path id="Path_225" data-name="Path 225" d="M1136.92,1935.43c-.035-.32-.411-.479-.737-.516a3.172,3.172,0,0,0-2.041.563,5.323,5.323,0,0,0-1.455,1.546v.008a5.586,5.586,0,0,0-2.323-1.362,1.324,1.324,0,0,0-.737.015.615.615,0,0,0-.42.552.819.819,0,0,0,.485.611,5.5,5.5,0,0,0,2.879.421l.172-.093a12.436,12.436,0,0,0,3.562-1.04C1136.613,1935.994,1136.958,1935.759,1136.92,1935.43Z" transform="translate(-1129.209 -1934.901)" fill="#d8e081"/>
        </g>
      </g>
      <g id="Group_3344" data-name="Group 3344" transform="translate(5.64 7.356)">
        <g id="Group_3343" data-name="Group 3343">
          <path id="Path_226" data-name="Path 226" d="M1134.986,1933.623a.626.626,0,0,0-.333-.479,1.233,1.233,0,0,0-.594-.141,3.045,3.045,0,0,0-1.739.561,7.255,7.255,0,0,0-1.348,1.251l.165,0a18.281,18.281,0,0,0,2.905-.371,1.749,1.749,0,0,0,.635-.247A.665.665,0,0,0,1134.986,1933.623Z" transform="translate(-1130.971 -1933.002)" fill="#d8e081"/>
        </g>
      </g>
      <g id="Group_3346" data-name="Group 3346" transform="translate(7.542 24.953)">
        <g id="Group_3345" data-name="Group 3345">
          <path id="Path_227" data-name="Path 227" d="M1136.12,1946a1.85,1.85,0,0,0,.939-.1.615.615,0,0,0,.346-.775.851.851,0,0,0-.567-.352,5.3,5.3,0,0,0-4.612.981Z" transform="translate(-1132.225 -1944.608)" fill="#d8e081"/>
        </g>
      </g>
      <g id="Group_3348" data-name="Group 3348" transform="translate(1.405 7.744)">
        <g id="Group_3347" data-name="Group 3347">
          <path id="Path_228" data-name="Path 228" d="M1132.484,1934.709l-.108.02a5.271,5.271,0,0,0-3.225-1.459,1.341,1.341,0,0,0-.6.048.55.55,0,0,0-.375.425c-.032.315.291.547.585.676A5.606,5.606,0,0,0,1132.484,1934.709Z" transform="translate(-1128.177 -1933.258)" fill="#d8e081"/>
        </g>
      </g>
      <g id="Group_3350" data-name="Group 3350">
        <g id="Group_3349" data-name="Group 3349">
          <path id="Path_229" data-name="Path 229" d="M1131.269,1933.03a6.459,6.459,0,0,0-2.755-4.6,1.52,1.52,0,0,0-.531-.262.638.638,0,0,0-.562.117c-.269.243-.174.675-.023,1,.755,1.61,2.333,2.675,3.839,3.657Z" transform="translate(-1127.251 -1928.151)" fill="#d8e081"/>
        </g>
      </g>
      <g id="Group_3352" data-name="Group 3352" transform="translate(2.714 13.653)">
        <g id="Group_3351" data-name="Group 3351">
          <path id="Path_230" data-name="Path 230" d="M1133.409,1939.415c.008-.011.018-.023.026-.032l-.032.006.012-.011a4.663,4.663,0,0,0-3.477-2.22c-.331-.021-.731.048-.861.35-.139.326.147.675.435.891a5.311,5.311,0,0,0,3.839,1.025l.027-.02Z" transform="translate(-1129.041 -1937.155)" fill="#d8e081"/>
        </g>
      </g>
      <g id="Group_3354" data-name="Group 3354" transform="translate(0.183 5.127)">
        <g id="Group_3353" data-name="Group 3353">
          <path id="Path_231" data-name="Path 231" d="M1131.873,1933.26l.115-.07a9.307,9.307,0,0,0-1.686-1.166,4.247,4.247,0,0,0-1.986-.491,1.328,1.328,0,0,0-.608.13.6.6,0,0,0-.337.487c-.009.346.347.578.675.713A6.728,6.728,0,0,0,1131.873,1933.26Z" transform="translate(-1127.372 -1931.532)" fill="#d8e081"/>
        </g>
      </g>
      <g id="Group_3356" data-name="Group 3356" transform="translate(7.108 13.779)">
        <g id="Group_3355" data-name="Group 3355">
          <path id="Path_232" data-name="Path 232" d="M1136.083,1937.579a.692.692,0,0,0-.523-.3,2.927,2.927,0,0,0-2.115.512,6.18,6.18,0,0,0-1.506,1.551,18.66,18.66,0,0,0,3.46-.843,1.49,1.49,0,0,0,.563-.328A.532.532,0,0,0,1136.083,1937.579Z" transform="translate(-1131.939 -1937.238)" fill="#d8e081"/>
        </g>
      </g>
      <g id="Group_3358" data-name="Group 3358" transform="translate(3.463 21.979)">
        <g id="Group_3357" data-name="Group 3357">
          <path id="Path_233" data-name="Path 233" d="M1133.582,1946.792l.02-.015-.029-.012-.012-.026a7.144,7.144,0,0,0-2.841-3.847.938.938,0,0,0-.835-.208.731.731,0,0,0-.328.843,2.743,2.743,0,0,0,1.075,1.447,15.69,15.69,0,0,0,2.867,1.863v0l-.021.042.041-.035a1.2,1.2,0,0,0,.117.062Z" transform="translate(-1129.535 -1942.646)" fill="#d8e081"/>
        </g>
      </g>
      <g id="Group_3360" data-name="Group 3360" transform="translate(6.862 29.527)">
        <g id="Group_3359" data-name="Group 3359">
          <path id="Path_234" data-name="Path 234" d="M1131.863,1947.672a.7.7,0,0,1-.086-.047c.014.07.027.142.041.214Z" transform="translate(-1131.777 -1947.625)" fill="#d8e081"/>
        </g>
      </g>
      <g id="Group_3362" data-name="Group 3362" transform="translate(2.323 24.664)">
        <g id="Group_3361" data-name="Group 3361">
          <path id="Path_235" data-name="Path 235" d="M1130.065,1944.592a1.554,1.554,0,0,0-.611-.174.665.665,0,0,0-.564.245.759.759,0,0,0-.077.616,3.026,3.026,0,0,0,.9,1.377,14.479,14.479,0,0,0,3.605,2.625,7.919,7.919,0,0,0-1.013-2.638A5.406,5.406,0,0,0,1130.065,1944.592Z" transform="translate(-1128.783 -1944.418)" fill="#d8e081"/>
        </g>
      </g>
      <g id="Group_3364" data-name="Group 3364" transform="translate(1.146 28.977)">
        <g id="Group_3363" data-name="Group 3363">
          <path id="Path_236" data-name="Path 236" d="M1128.1,1947.53a.639.639,0,0,0-.076.505,1.527,1.527,0,0,0,.224.474,7.779,7.779,0,0,0,2.115,2.127,21.16,21.16,0,0,0,2.541,1.483l-.106.067a11.464,11.464,0,0,0,4.117.506,1.56,1.56,0,0,0,.669-.149.555.555,0,0,0,.308-.556c-.048-.233-.285-.377-.5-.475a4.447,4.447,0,0,0-4.414.56v-.021a6.509,6.509,0,0,0-2.631-4.171,2.935,2.935,0,0,0-1.516-.615A.817.817,0,0,0,1128.1,1947.53Z" transform="translate(-1128.007 -1947.262)" fill="#d8e081"/>
        </g>
      </g>
      <g id="Group_3366" data-name="Group 3366" transform="translate(3.106 4.383)">
        <g id="Group_3365" data-name="Group 3365">
          <path id="Path_237" data-name="Path 237" d="M1131.168,1962.309a38.569,38.569,0,0,0-1.813-30.609c-.3-.59.682-.943.976-.361a39.554,39.554,0,0,1,1.778,31.4C1131.882,1963.361,1130.942,1962.924,1131.168,1962.309Z" transform="translate(-1129.3 -1931.042)" fill="#d8e081"/>
        </g>
      </g>
    </g>
    <g id="Group_3373" data-name="Group 3373" transform="translate(8.077 10.797)">
      <g id="Group_3370" data-name="Group 3370" opacity="0.4">
        <g id="Group_3369" data-name="Group 3369">
          <g id="Group_3368" data-name="Group 3368">
            <path id="Path_238" data-name="Path 238" d="M1132.739,1949.988a2.694,2.694,0,0,0,.193,2.159q1.385,3.564,3.064,7l-.13.1q3.35,0,6.7-.012a3.659,3.659,0,0,0,1.4-.183,1.078,1.078,0,0,0,.258-1.982,2.552,2.552,0,0,0-.614-.338l-2.955-1.167c-.333-.132-.725-.342-.635-.736a.609.609,0,0,1,.387-.417,7.9,7.9,0,0,1,4.582-.273,3.649,3.649,0,0,0,1.312.189c.6-.085,1.193-.682.656-1.333a1.364,1.364,0,0,0-.427-.329,14.793,14.793,0,0,0-3.286-1.211c-.593-.139-1.363-.455-1.183-1.089a.791.791,0,0,1,.6-.54,10.657,10.657,0,0,1,4.1-.094,2.792,2.792,0,0,0,1.02.062c.461-.094.9-.555.531-1.081a1.06,1.06,0,0,0-.59-.4l-3.2-.919c-.377-.108-.825-.285-.8-.736a.711.711,0,0,1,.572-.628,12.517,12.517,0,0,1,4.5-.118,1.948,1.948,0,0,0,1.4-.1.657.657,0,0,0,.317-.637c-.058-.37-.419-.5-.739-.6l-3.411-1.066a.234.234,0,0,1-.011-.445,9.342,9.342,0,0,1,4.2-.454,2.883,2.883,0,0,0,1.061.02c.485-.126.923-.652.444-1.175a1.146,1.146,0,0,0-.472-.3,19.5,19.5,0,0,0-3.22-.829c.762-.723,1.525-1.451,2.288-2.176.559-.531,1.169-1.192.922-1.977a1.377,1.377,0,0,0-1.236-.9,2.568,2.568,0,0,0-2.22,1.3,2.612,2.612,0,0,1-1,1.079.789.789,0,0,1-.74-.033c-.373-.244-.331-.7-.341-1.105-.009-.352-.146-.778-.5-.838a.655.655,0,0,0-.52.173,2.068,2.068,0,0,0-.471,1.923,3.174,3.174,0,0,1-.18,2.468.986.986,0,0,1-1.3.3c-.44-.279-.435-.828-.535-1.3s-.5-.993-.993-.746a.745.745,0,0,0-.311.354,5.69,5.69,0,0,0,.036,3.317,4.853,4.853,0,0,1-.026,2.115.532.532,0,0,1-.972.1l-1.2-2.117c-.133-.236-.3-.494-.62-.473a.555.555,0,0,0-.418.265,1.382,1.382,0,0,0-.032,1.108q.526,2.093,1.055,4.182c.121.485.218,1.063-.211,1.393a.93.93,0,0,1-1.143-.067c-.694-.561-.7-1.443-1.068-2.165-.22-.437-.77-.851-1.173-.44a.7.7,0,0,0-.153.687,23.519,23.519,0,0,0,1.6,3.962,2.142,2.142,0,0,1,.37,1.61.772.772,0,0,1-.837.57c-.388-.062-.593-.446-.755-.787q-.38-.8-.757-1.6c-.259-.547-.61-1.167-1.271-1.156A1.066,1.066,0,0,0,1132.739,1949.988Z" transform="translate(-1132.578 -1935.271)" fill="#00abc4"/>
          </g>
        </g>
      </g>
      <g id="Group_3372" data-name="Group 3372" transform="translate(3.812 0.143)">
        <g id="Group_3371" data-name="Group 3371">
          <path id="Path_239" data-name="Path 239" d="M1135.1,1958.738a40.608,40.608,0,0,1,14.016-23.308c.253-.211.622.149.366.358a40.186,40.186,0,0,0-13.881,23.086C1135.533,1959.2,1135.036,1959.061,1135.1,1958.738Z" transform="translate(-1135.092 -1935.366)" fill="#00aeb4"/>
        </g>
      </g>
    </g>
    <g id="Group_3378" data-name="Group 3378" transform="translate(13.643 20.566)" opacity="0.1" style="isolation: isolate">
      <g id="Group_3377" data-name="Group 3377">
        <g id="Group_3376" data-name="Group 3376" clip-path="url(#clip-path)">
          <g id="Group_3375" data-name="Group 3375" transform="translate(0 0)">
            <g id="Group_3374" data-name="Group 3374">
              <path id="Path_240" data-name="Path 240" d="M1136.249,1941.715c.188.1.377.2.568.3v-.1h1.633v.905c.12.05.232.1.349.159v-1.064h1.633v1.741a.45.45,0,0,0,.1.035v-1.98Z" transform="translate(-1136.249 -1941.715)" fill="#6c63ff"/>
            </g>
          </g>
        </g>
      </g>
    </g>
    <g id="Group_3380" data-name="Group 3380" transform="translate(0 35.082)">
      <g id="Group_3379" data-name="Group 3379">
        <path id="Path_241" data-name="Path 241" d="M1144.631,1953.218l-.082,1.28-.112,1.815-.047.752-.112,1.812-.05.754-.114,1.813-1.292,20.552a3.508,3.508,0,0,1-3.522,3.266h-6.713a3.5,3.5,0,0,1-3.524-3.279l-1.292-20.552-.112-1.815-.047-.752-.116-1.813-.047-.752-.112-1.813-.082-1.28a1.824,1.824,0,0,1,1.731-1.914h13.823a1.825,1.825,0,0,1,1.827,1.822c0,.037,0,.071,0,.106" transform="translate(-1127.251 -1951.289)" fill="#00b0c4"/>
      </g>
    </g>
    <g id="Group_3382" data-name="Group 3382" transform="translate(0.083 38.29)">
      <g id="Group_3381" data-name="Group 3381">
        <path id="Path_242" data-name="Path 242" d="M1144.521,1953.4l-.114,1.809H1127.42l-.114-1.809Z" transform="translate(-1127.306 -1953.404)" fill="#07a5ac"/>
      </g>
    </g>
    <g id="Group_3384" data-name="Group 3384" transform="translate(0.245 40.853)">
      <g id="Group_3383" data-name="Group 3383">
        <path id="Path_243" data-name="Path 243" d="M1144.305,1955.094l-.111,1.808h-16.668l-.114-1.808Z" transform="translate(-1127.412 -1955.094)" fill="#07a5ac"/>
      </g>
    </g>
    <g id="Group_3386" data-name="Group 3386" transform="translate(0.405 43.414)">
      <g id="Group_3385" data-name="Group 3385">
        <path id="Path_244" data-name="Path 244" d="M1144.089,1956.784l-.112,1.808h-16.344l-.115-1.808Z" transform="translate(-1127.518 -1956.784)" fill="#07a5ac"/>
      </g>
    </g>
  </g>
</svg>
