<svg xmlns="http://www.w3.org/2000/svg" xmlns:xlink="http://www.w3.org/1999/xlink" width="1920" height="996" viewBox="0 0 1920 996"><defs><style>.a{fill:#fcfcfc;}.b{fill:#ceecfd;}.at,.c,.ck,.ct{fill:none;}.c{stroke:#e8e8e8;}.d,.l{fill:#00307f;opacity:0.05;}.e{fill:#8cb532;}.f{fill:url(#a);}.g{fill:url(#b);}.h{fill:#abacac;}.ac,.i{fill:#fff;}.j{fill:#d0d3d3;}.k{fill:#ffca1e;}.au,.aw,.cg,.cm,.cr,.cs,.l,.r,.z{isolation:isolate;}.m{fill:#f28f0a;}.ah,.cp,.n,.v{fill:#009fba;}.o{fill:#9fcc47;}.p{fill:#f1eca8;}.q{fill:url(#c);}.r,.z{opacity:0.45;}.au,.aw,.cm,.cr,.cs,.r,.z{mix-blend-mode:multiply;}.r{fill:url(#d);}.s{fill:#9dd0d4;}.t{fill:#33b4da;}.u{fill:#ffe894;}.v{opacity:0.12;}.au,.w{fill:url(#f);}.x{fill:url(#g);}.y{opacity:0.41;}.aa{fill:#8ab2e0;}.ab{fill:url(#n);}.ac{opacity:0.29;}.ad,.cq,.cr{opacity:0.3;}.ae{fill:#e5e5e5;}.af{fill:url(#q);}.ag,.ah{opacity:0.18;}.ai{fill:#9cd7f4;}.aj{fill:#aedffa;}.ak{fill:#142351;}.al{fill:url(#r);}.am{fill:url(#s);}.an{fill:url(#t);}.ao{fill:#545454;}.ap{fill:url(#y);}.aq{fill:url(#z);}.ar{fill:url(#aa);}.as{fill:url(#ab);}.av{fill:url(#af);}.aw{fill:url(#ah);}.ax{fill:#953845;}.ay{fill:#812b38;}.az{fill:#f3996e;}.ba{fill:#e97b5e;}.bb{fill:#353434;}.bc{fill:#fef9fa;}.bd{fill:#ed755a;}.be{fill:#b3744e;}.bf{fill:#804d33;}.bg{fill:#ffae00;}.bh{fill:#181818;}.bi{fill:#686969;}.bj{fill:#7b7b7b;}.bk{fill:#1b1c1c;}.bl{fill:#0f0f0f;}.bm{fill:#9d9d9d;}.bn{fill:#128184;}.bo{fill:#2d2c2c;}.bp{fill:#3a3a3a;}.bq{fill:#878787;}.br{fill:#ebebeb;}.bs{fill:#f9ab78;}.bt{fill:url(#aq);}.bu{fill:url(#as);}.bv{fill:#f0f9ff;}.bw{fill:#bbe3f7;}.bx{fill:#ffb323;}.by{fill:#9dcde4;}.bz{fill:url(#aw);}.ca{fill:url(#ay);}.cb{fill:url(#az);}.cc{fill:#dbdbda;}.cd{fill:#161d2f;}.ce{fill:#62c0dd;}.cf{fill:url(#ba);}.ch{fill:#00539f;}.ci{fill:url(#bc);}.cj{fill:url(#bh);}.ck{stroke:#abacac;stroke-miterlimit:10;stroke-width:0.25px;}.cl{fill:#cbe7eb;}.cn,.cq,.cr,.cs{fill:#d1ebf6;}.co{fill:#bababa;}.cp{opacity:0.8;}.ct{stroke:#fff;}.cu{stroke:none;}</style><linearGradient id="a" y1="0.5" x2="1" y2="0.5" gradientUnits="objectBoundingBox"><stop offset="0" stop-color="#f1eca8"/><stop offset="0.999" stop-color="#8db640"/></linearGradient><radialGradient id="b" cx="0.248" cy="0.159" r="1.844" gradientTransform="matrix(-0.522, 0.125, 0.064, 0.966, 419.386, -46.932)" gradientUnits="objectBoundingBox"><stop offset="0" stop-color="#70a31c"/><stop offset="1" stop-color="#246a26"/></radialGradient><linearGradient id="c" x1="0" y1="0.5" x2="1" y2="0.5" xlink:href="#a"/><linearGradient id="d" x1="1.075" y1="-1.08" x2="1.075" y2="-0.065" gradientUnits="objectBoundingBox"><stop offset="0.366" stop-color="#81bb80"/><stop offset="0.989" stop-color="#1a7053"/></linearGradient><linearGradient id="f" x1="0" y1="0.5" x2="1" y2="0.5" xlink:href="#d"/><linearGradient id="g" x1="0" y1="0.5" x2="1" y2="0.5" xlink:href="#d"/><linearGradient id="n" y1="0.5" x2="1" y2="0.5" gradientUnits="objectBoundingBox"><stop offset="0" stop-color="#00539f"/><stop offset="1" stop-color="#00307a"/></linearGradient><linearGradient id="q" x1="0" x2="1" xlink:href="#n"/><linearGradient id="r" x1="-0.263" y1="-0.089" x2="0.322" y2="0.404" gradientUnits="objectBoundingBox"><stop offset="0" stop-color="#00539f"/><stop offset="0.168" stop-color="#004893"/><stop offset="1" stop-color="#00307a"/></linearGradient><linearGradient id="s" x1="-0.586" y1="0.5" x2="0.952" y2="0.5" gradientUnits="objectBoundingBox"><stop offset="0.234" stop-color="#00539f"/><stop offset="1" stop-color="#00307a"/></linearGradient><linearGradient id="t" y1="0.5" x2="1" y2="0.5" gradientUnits="objectBoundingBox"><stop offset="0" stop-color="#ffcd8d"/><stop offset="1" stop-color="#fbaa63"/></linearGradient><linearGradient id="y" x1="15.271" y1="1.375" x2="15.757" y2="1.375" xlink:href="#t"/><linearGradient id="z" x1="22.973" y1="3.708" x2="24.092" y2="3.708" xlink:href="#n"/><linearGradient id="aa" x1="10.197" y1="0.5" x2="11.197" y2="0.5" xlink:href="#t"/><linearGradient id="ab" x1="14.825" x2="15.825" xlink:href="#n"/><linearGradient id="af" x1="0" y1="0.5" x2="1" y2="0.5" xlink:href="#a"/><linearGradient id="ah" x1="0" y1="0.5" x2="1" y2="0.5" xlink:href="#d"/><linearGradient id="aq" x1="0.027" y1="0.725" x2="0.962" y2="0.128" xlink:href="#n"/><linearGradient id="as" x1="-44.001" y1="0.5" x2="-43.001" y2="0.5" xlink:href="#t"/><linearGradient id="aw" x1="-0.272" x2="0.728" xlink:href="#n"/><linearGradient id="ay" y1="0.5" x2="1" y2="0.5" gradientUnits="objectBoundingBox"><stop offset="0" stop-color="#ffcd8d"/><stop offset="0.024" stop-color="#fec888"/><stop offset="0.135" stop-color="#fcbb77"/><stop offset="0.272" stop-color="#fbb16b"/><stop offset="0.465" stop-color="#fbab64"/><stop offset="1" stop-color="#fbaa63"/></linearGradient><linearGradient id="az" x1="0.686" y1="0.022" x2="-0.027" y2="1.633" xlink:href="#t"/><linearGradient id="ba" x1="0.179" y1="0.5" x2="0.82" y2="0.5" xlink:href="#t"/><linearGradient id="bc" x1="-0.205" y1="0.5" x2="1.205" y2="0.5" xlink:href="#t"/><linearGradient id="bh" x1="0" y1="0.5" x2="1" y2="0.5" xlink:href="#t"/></defs><rect class="a" width="1920" height="374" transform="translate(0 622)"/><rect class="b" width="1920" height="622"/><line class="c" y2="44" transform="translate(1141.5 37.5)"/><g transform="translate(612.578 -86.128)"><path class="d" d="M259.512,416.732c68.03,0,41.977,11.166,41.977,11.166,53.556,0,83.23,13.4,48.489,13.4s34.741,15.631-7.961,15.631H221.877c-30.4,0-50.662-21.215-3.62-21.215s36.188-10.886,14.114-10.886" transform="translate(0 479.462)"/><path class="d" d="M295.233,378.039c-53.649,0-79.447,16.219-18.422,17.049s145.151,10.127,78.658,18.2c-42.925,5.21-30.784,13.1,59.311,11.856S596.814,411.5,560.342,402.4s-39.135-7.521-23.5-11.679S565.8,376.648,473.6,377.449,295.233,378.039,295.233,378.039Z" transform="translate(74.427 422.19)"/><path class="d" d="M786.753,359.8c122.006,0,79.867,20.959,99.124,27.574s49.709,19.918-26.029,19.431c-40.761-.26-19.355-27.033-85.109-11.4-67.556,16.061-87.833-3.569-135.216-2.8-180.131,2.926-265.576-23.651-124.991-29.878C677.33,355.519,786.753,359.8,786.753,359.8Z" transform="translate(369.86 394.72)"/><g transform="translate(1069.559 510.844)"><path class="e" d="M548.812,266.553c.066-.137.1-.317.253-.373a1.363,1.363,0,0,1,.248-.032.481.481,0,0,0,.381-.4,1.261,1.261,0,0,0-.076-.56c.1.329.7.295.889,0a1.053,1.053,0,0,0-.049-.99.375.375,0,0,1-.049-.214.513.513,0,0,1,.1-.172,1,1,0,0,0-.388-1.454.747.747,0,0,0,.233-.825,4.14,4.14,0,0,1,2.974-.518c.5.111.963.317,1.466.391.68.1,1.376-.047,2.061,0a4.012,4.012,0,0,1,3.336,2.574,5.956,5.956,0,0,1-.17,4.124,6.4,6.4,0,0,1-3.8,4.055,4.886,4.886,0,0,1-1.317.238,6.437,6.437,0,0,1-4.795-2.336,8.087,8.087,0,0,1-1.808-3.09A.917.917,0,0,0,548.812,266.553Z" transform="translate(-548.306 -258.282)"/><path class="f" d="M548.932,267.311c.071-.16.106-.366.268-.435a1.277,1.277,0,0,1,.258-.034.539.539,0,0,0,.4-.467,1.616,1.616,0,0,0-.081-.646c.106.383.732.341.931,0a1.327,1.327,0,0,0-.052-1.142.439.439,0,0,1-.049-.248.541.541,0,0,1,.1-.2,1.218,1.218,0,0,0-.408-1.68.918.918,0,0,0,.248-.951,3.989,3.989,0,0,1,3.112-.6c.518.128,1.01.366,1.535.452.712.115,1.442-.054,2.159,0a4.291,4.291,0,0,1,3.49,2.97,7.555,7.555,0,0,1-.177,4.763,7.147,7.147,0,0,1-3.977,4.679,4.645,4.645,0,0,1-1.378.277,6.533,6.533,0,0,1-5.018-2.7,9.563,9.563,0,0,1-1.894-3.564A.987.987,0,0,0,548.932,267.311Z" transform="translate(-548.163 -258.446)"/><path class="e" d="M552.243,261.261a.757.757,0,0,1-.671.408,2.229,2.229,0,0,1-.805-.167" transform="translate(-544.722 -257.785)"/><path class="g" d="M551.52,260.44a1.668,1.668,0,0,0-.312-.027,6.558,6.558,0,0,0-1.427.206c.238.182.449.4.68.582a4.036,4.036,0,0,0,2.1.867.58.58,0,0,0,.206-.005.228.228,0,0,0,.145-.1.287.287,0,0,0,.025-.192,1.5,1.5,0,0,0-.6-.9A1.9,1.9,0,0,0,551.52,260.44Z" transform="translate(-546.158 -259.02)"/><path class="e" d="M551.5,263.634a5.146,5.146,0,0,0-.779-3.788" transform="translate(-544.782 -259.846)"/></g><rect class="h" width="130.286" height="175.702" transform="translate(843.081 341.746)"/><rect class="i" width="116.07" height="161.769" transform="translate(850.265 354.522)"/><rect class="h" width="116.07" height="12.46" transform="translate(850.265 429.71)"/><rect class="j" width="147.86" height="15.693" transform="translate(833.677 514.248)"/><path class="k" d="M399.353,312.915s4.48-31.324,28.819-38.57l-2.778,54.7Z" transform="translate(304.342 272.112)"/><path class="k" d="M427.746,273.823S450.572,291.515,458,310.7l-25.184,15.327S426.479,278.991,427.746,273.823Z" transform="translate(345.446 271.352)"/><rect class="h" width="218.549" height="13.058" transform="translate(545.393 404.882)"/><rect class="l" width="201.019" height="13.058" transform="translate(555.284 417.002)"/><rect class="m" width="13.337" height="50.246" transform="translate(624.552 354.636)"/><rect class="k" width="8.718" height="2.728" transform="translate(626.862 388.257)"/><rect class="k" width="8.718" height="2.728" transform="translate(626.862 394.113)"/><rect class="n" width="10.757" height="32.96" transform="translate(638.958 371.922)"/><g transform="translate(650.101 353.946)"><rect class="o" width="10.757" height="51.625" transform="translate(0 0)"/><rect class="p" width="18.638" height="4.122" transform="translate(7.44 29.277) rotate(90)"/></g><g transform="translate(716.296 356.523)"><path class="q" d="M429.73,225.914s8.268-.447,8.278-2.127c.007-1.307-5.05-.2-5.05-.2a62.974,62.974,0,0,0,8.091-2.92,4.464,4.464,0,0,0,1.528-1.093,1.617,1.617,0,0,0,.246-1.761c-.432-.739-1.464-.8-2.314-.7-3.4.41-5.8,2.233-8.867,3.77a28.045,28.045,0,0,0,6.114-4.239c1.719-1.538,3.721-2.979,4.868-5.033.717-1.287,1-3.191-.27-4.249-1.233-1.027-3-.545-4.355-.071a17.771,17.771,0,0,0-8.921,7.049,30.936,30.936,0,0,0,1.258-4.642c.118-.634.162-1.417-.364-1.8-.68-.486-1.589.165-2.12.815a16,16,0,0,0-2.867,5.333c.418-4.343.83-8.769-.113-13.028a6.883,6.883,0,0,0-1.12-2.744,2.978,2.978,0,0,0-2.572-1.25,3.888,3.888,0,0,0-2.338,1.471,12.945,12.945,0,0,0-.408,16.779,17.8,17.8,0,0,0-3.382-2.771c-.278-.174-.685-.324-.894-.071a.661.661,0,0,0-.091.486c.192,2.066,1.574,3.795,2.9,5.389a13.4,13.4,0,0,0-11.033-4.564,1.594,1.594,0,0,0-1.314.58,1.371,1.371,0,0,0-.123.842c.221,2.071,2.046,3.571,3.842,4.625,1.513.887,3.1,1.626,4.691,2.365a12.818,12.818,0,0,0-2.744-.1.753.753,0,0,0-.57.214c-.241.312.1.739.418.97a12.2,12.2,0,0,0,8.007,2.25" transform="translate(-404.483 -197.018)"/><path class="r" d="M434.552,206.332c.1-.074.2.088.1.162a46.627,46.627,0,0,0-7.216,6.718,56.042,56.042,0,0,0-5.6,8.113.092.092,0,0,1-.162-.086,40.674,40.674,0,0,1,12.876-14.907Zm-11.9,2.132a31.358,31.358,0,0,0-2.115,12.915.081.081,0,0,0,.162,0,39.718,39.718,0,0,1,2.171-12.826c.047-.125-.172-.209-.219-.083Zm-5.237-8.553a60.008,60.008,0,0,0,1.766,21.576c.032.115.194.056.172-.056a95.443,95.443,0,0,1-1.678-10.9,91.5,91.5,0,0,1-.135-10.606c0-.071-.118-.083-.125-.012ZM410.99,210.53c2.134,3.033,4.5,8.644,7.3,11.09.113.1.255-.061.157-.172-2.535-2.785-5.018-8.01-7.29-11.028-.079-.1-.248,0-.172.111Zm23.005,4.7a53.223,53.223,0,0,0-12.185,7.14c-.113.093,0,.282.125.2a85.684,85.684,0,0,1,12.117-7.165c.106-.047.052-.221-.056-.172Zm-26.328-.523c3.085,1.84,6.381,5.772,9.741,7.057.106.039.194-.108.086-.162-3.257-1.592-6.585-5.259-9.737-7.062-.108-.061-.194.1-.091.167Z" transform="translate(-399.915 -192.873)"/><path class="s" d="M424.1,228.278H412.393l-3.169-19.7h18.043Z" transform="translate(-397.579 -180.177)"/><path class="t" d="M417.377,228.278h-3.545l3.18-19.7h3.545Z" transform="translate(-390.87 -180.177)"/></g><g transform="translate(659.114 362.205)"><path class="k" d="M407.353,242.008l-16.085-42.677L381.2,203.125l14.655,38.883Z" transform="translate(-381.203 -199.331)"/><path class="m" d="M395.59,224.394l-5.063-13.433-3.857,1.454,4.515,11.979Z" transform="translate(-373.241 -182.395)"/></g><ellipse class="u" cx="17.612" cy="12.151" rx="17.612" ry="12.151" transform="translate(428.156 263.203)"/><path class="v" d="M376.2,454.074c-4.8,8.6,4.576,8.6,4.576,8.6H607.461c8.8,0,4-8.6,4-8.6l-26.407-42.613c-4.8-7.2-10.4-4.795-10.4-4.795H409.407s-3.6-1.206-7.6,5.195Z" transform="translate(268.628 464.24)"/><rect class="d" width="90.38" height="13.737" rx="2.796" transform="translate(721.957 891.573)"/><g transform="translate(1043.677 858.644)"><g transform="translate(100.497 75.057)"><path class="q" d="M591.346,463.82s-13.151-15.344-.811-25.09c0,0,9.014-5.458,16.366-5.016,0,0-10.417,17.466-7.047,19.2s10.2-20.3,10.2-20.3,20.515-1.99,27.112,1.184c0,0-17.535,14.352-13.843,15.207s22.636-13.232,22.636-13.232,19.092,3.247,18.076,14.895-7.6,15.243-10.488,14.934-19.807-6.765-20.176-4.4,9.813,10.112,16.943,10.473c0,0-13.46,14.845-22.406,10.562s-9.712-11.075-15.288-13.622-10.338-2.542-8.034.056,12.394,5.121,15.585,10.763,6.05,9.447-3.205,8.054-24.3-8.167-24.963-15.921Z" transform="translate(-569.117 -432.002)"/><g transform="translate(0 18.894)"><path class="w" d="M657.885,439.784s-51.856-2-63.309,12.834A37.5,37.5,0,0,1,584.25,467.11l-1.214,3.311s8.985-9.476,12.2-10.048C595.236,460.372,590.208,442,657.885,439.784Z" transform="translate(-572.347 -439.694)"/><path class="x" d="M590.587,451.63s-11.132,8.231-11.9,22.939l2.019.182s3.554-15.209,9.98-21.156S590.587,451.63,590.587,451.63Z" transform="translate(-578.684 -424.214)"/></g></g><g transform="translate(0 33.398)"><path class="q" d="M614.51,469.219S635.432,457.5,625.668,441.6c0,0-7.811-9.763-16.179-12.274,0,0,4.463,23.71,0,24.268s-3.068-26.78-3.068-26.78-22.037-10.6-30.686-9.764c0,0,13.669,23.155,9.206,22.6s-19.807-23.99-19.807-23.99-22.595-4.185-26.22,9.2,2.23,20.087,5.578,20.922,24.828.558,24.27,3.348-15.064,7.253-23.155,4.743c0,0,8.926,22.037,20.645,20.922s15.342-8.368,22.6-8.928,12.554,1.4,8.926,3.348-15.9.641-21.757,5.62-10.6,8.049.277,10.282,30.406.837,34.311-7.531Z" transform="translate(-537.769 -415.042)"/><g class="y" transform="translate(11.466 14.008)"><path class="w" d="M542.437,420.745s58.581,18.969,65.274,40.169a44.514,44.514,0,0,0,5.581,20.365v4.185s-6.138-14.227-9.486-16.179C603.806,469.285,616.917,450.873,542.437,420.745Z" transform="translate(-542.437 -420.745)"/><path class="w" d="M572.943,446.934s9.034,13.718,3.883,30.418l-2.323-.624s2.255-18.392-2.471-27.645S572.943,446.934,572.943,446.934Z" transform="translate(-502.088 -386.4)"/></g></g><g transform="translate(91.896)"><path class="q" d="M593.314,472.863s-27.579-15.445-14.71-36.4c0,0,10.3-12.871,21.328-16.179,0,0-5.883,31.256,0,31.99s4.045-35.3,4.045-35.3S633.026,403,644.425,404.1c0,0-18.016,30.521-12.134,29.787S658.4,402.261,658.4,402.261s29.787-5.517,34.567,12.134-2.942,26.476-7.354,27.579-32.727.737-31.992,4.414,19.856,9.56,30.521,6.251c0,0-11.768,29.05-27.213,27.579s-20.225-11.031-29.784-11.768-16.548,1.84-11.768,4.414,20.961.843,28.684,7.408,13.974,10.611-.368,13.551-40.081,1.1-45.229-9.928Z" transform="translate(-575.182 -401.445)"/><g class="z" transform="translate(3.565 18.467)"><path class="w" d="M672.971,408.963s-77.222,25-86.047,52.951c0,0,.366,12.5-7.354,26.844v5.514s8.088-18.753,12.5-21.328C592.072,472.945,574.788,448.675,672.971,408.963Z" transform="translate(-572.357 -408.963)"/><path class="w" d="M583.846,443.485s-11.91,18.083-5.121,40.1l3.065-.823s-2.975-24.246,3.254-36.441S583.846,443.485,583.846,443.485Z" transform="translate(-576.633 -363.69)"/></g></g><path class="n" d="M614.213,509.237a54.025,54.025,0,0,0,54.025-54.022H560.191A54.022,54.022,0,0,0,614.213,509.237Z" transform="translate(-505.117 -323.142)"/><path class="l" d="M669.424,482.281H559.888a6.664,6.664,0,0,1,6.664-6.666H662.76a6.665,6.665,0,0,1,6.664,6.666Z" transform="translate(-505.558 -293.435)"/><rect class="aa" width="111.051" height="1.657" transform="translate(53.298 132.073)"/></g><g transform="translate(629.191 222.073)"><path class="ab" d="M16.238,0H65.987A16.238,16.238,0,0,1,82.225,16.238V63.533A16.238,16.238,0,0,1,65.987,79.771H16.239A16.239,16.239,0,0,1,0,63.532V16.238A16.238,16.238,0,0,1,16.238,0Z"/><path class="ac" d="M14.831,0H60.269A14.832,14.832,0,0,1,75.1,14.832v43.2A14.831,14.831,0,0,1,60.27,72.859H14.831A14.831,14.831,0,0,1,0,58.028v-43.2A14.831,14.831,0,0,1,14.831,0Z" transform="translate(3.562 3.456)"/><g class="ad" transform="translate(9.707 9.033)"><g transform="translate(29.702)"><circle class="i" cx="1.703" cy="1.703" r="1.703"/><path class="i" d="M390.787,148.151a1.7,1.7,0,1,1,.661,2.316A1.7,1.7,0,0,1,390.787,148.151Z" transform="translate(-377.044 -144.04)"/><path class="i" d="M395.917,151.6a1.7,1.7,0,1,1-.508,2.356A1.7,1.7,0,0,1,395.917,151.6Z" transform="translate(-370.399 -138.135)"/><circle class="i" cx="1.703" cy="1.703" r="1.703" transform="translate(29.647 27.944)"/><path class="i" d="M398.341,164.471a1.7,1.7,0,1,1-2.41,0A1.7,1.7,0,0,1,398.341,164.471Z" transform="translate(-369.968 -119.724)"/><circle class="i" cx="1.703" cy="1.703" r="1.703" transform="translate(14.769 54.971)"/><circle class="i" cx="1.703" cy="1.703" r="1.703" transform="translate(0 59.295)"/></g><g transform="translate(0 3.234)"><path class="i" d="M382.727,148.151a1.7,1.7,0,1,0-.661,2.316A1.7,1.7,0,0,0,382.727,148.151Z" transform="translate(-363.417 -147.274)"/><path class="i" d="M377.6,151.6a1.7,1.7,0,1,0,.508,2.356A1.7,1.7,0,0,0,377.6,151.6Z" transform="translate(-370.062 -141.369)"/><circle class="i" cx="1.703" cy="1.703" r="1.703" transform="translate(0 24.71)"/><path class="i" d="M375.174,164.471a1.7,1.7,0,1,0,2.41,0A1.7,1.7,0,0,0,375.174,164.471Z" transform="translate(-370.493 -122.957)"/><circle class="i" cx="1.703" cy="1.703" r="1.703" transform="translate(14.878 51.738)"/></g></g><g class="y" transform="translate(40.653 17.402)"><path class="i" d="M385.571,159.036a1.7,1.7,0,1,1,1.7,1.7A1.7,1.7,0,0,1,385.571,159.036Z" transform="translate(-385.571 -137.759)"/><g transform="translate(1.471)"><rect class="i" width="0.465" height="21.278"/></g><g transform="translate(1.058 11.845)"><rect class="i" width="14.341" height="1.395" transform="translate(0 8.854) rotate(-38.123)"/></g></g></g><rect class="h" width="130.286" height="175.702" transform="translate(384.045 341.86)"/><rect class="i" width="116.07" height="161.769" transform="translate(391.229 354.636)"/><rect class="h" width="125.365" height="10.692" transform="translate(386.506 429.824)"/><rect class="j" width="147.86" height="15.693" transform="translate(375.334 515.844)"/><g transform="translate(378.886 372.945)"><path class="n" d="M270.941,245.735l8.794,41.038h26.382l7.242-41.038Z" transform="translate(-261.543 -142.495)"/><path class="q" d="M287.685,306.943s-4.829-13.966,3.1-25,13.047-11.9,14.138-18.621c1.9-11.684-4.19-14.973-3.4-21.635,1.162-9.872,11.839-6.254,10.862-17.982-.776-9.312,4.817-26.358-11.94-17.545-15.022,7.9-18.967,30.607-21.3,52.59s1.422,48.194,1.422,48.194Z" transform="translate(-250.698 -203.704)"/><path class="q" d="M289.853,301.405s4.392-12.7-2.822-22.74-11.869-10.827-12.861-16.938c-1.724-10.623,3.812-13.615,3.1-19.674-1.059-8.98-10.768-5.689-9.881-16.356.707-8.469-4.38-23.973,10.861-15.958,13.662,7.187,17.25,27.839,19.367,47.833s-1.292,43.834-1.292,43.834Z" transform="translate(-267.115 -198.166)"/><g transform="translate(30.933 15.861)"><path class="ae" d="M281.8,297.8a.259.259,0,0,1-.248-.194,62.849,62.849,0,0,1-1.837-12.822c-.106-6.362,4.308-24.491,10.382-31.6,4.038-4.726,2.736-10.746,1.361-17.117a46.2,46.2,0,0,1-1.425-10.134c.13-9.574,7.005-15.651,7.074-15.71a.259.259,0,0,1,.339.391c-.069.059-6.769,5.991-6.895,15.327a45.677,45.677,0,0,0,1.412,10.017c1.4,6.5,2.731,12.642-1.474,17.565-6,7.022-10.363,24.955-10.257,31.253a62.468,62.468,0,0,0,1.818,12.7.258.258,0,0,1-.184.314A.207.207,0,0,1,281.8,297.8Z" transform="translate(-279.708 -210.161)"/></g><g transform="translate(4.398 14.826)"><path class="ae" d="M290.8,298.413h-.02a.262.262,0,0,1-.241-.278c.017-.231,1.56-23.1-.8-29.2-.5-1.3-1.25-2.773-2.041-4.33-2.734-5.387-6.136-12.092-4.394-20.129,1.348-6.222-1.943-10.682-4.844-14.619-1.845-2.5-3.439-4.664-3.439-6.831,0-6.04-5.993-12.785-6.055-12.854a.258.258,0,0,1,.386-.344c.251.28,6.187,6.963,6.187,13.2,0,2,1.545,4.095,3.336,6.524,2.822,3.824,6.332,8.587,4.935,15.035-1.7,7.86,1.653,14.472,4.347,19.785.8,1.572,1.55,3.056,2.063,4.379,2.4,6.209.9,28.48.838,29.426A.262.262,0,0,1,290.8,298.413Z" transform="translate(-268.905 -209.74)"/></g></g><path class="ae" d="M383.292,409.5" transform="translate(280.954 468.926)"/><g transform="translate(1082.004 472.903)"><g transform="translate(0 0.873)"><rect class="l" width="43.751" height="36.72" rx="1.015"/><g transform="translate(0.001 0.001)"><path class="af" d="M597.124,247.246v4.438h-43.75v-4.438a2.489,2.489,0,0,1,2.491-2.491H594.63A2.491,2.491,0,0,1,597.124,247.246Z" transform="translate(-553.373 -244.755)"/></g></g><g transform="translate(1.735 9.766)"><g transform="translate(0)"><g class="ag" transform="translate(0 0.001)"><rect class="n" width="4.986" height="4.986" rx="1.015"/></g><g class="ag" transform="translate(7.104 0.001)"><rect class="n" width="4.986" height="4.986" rx="1.015"/></g><g class="ag" transform="translate(14.207 0.001)"><rect class="n" width="4.986" height="4.986" rx="1.015"/></g><g class="ag" transform="translate(21.311 0.001)"><rect class="n" width="4.986" height="4.986" rx="1.015"/></g><path class="ah" d="M570.221,248.554a.236.236,0,0,1,.236.236v4.158a.236.236,0,0,1-.236.236h-4.158a.236.236,0,0,1-.236-.236V248.79a.236.236,0,0,1,.236-.236h4.158m0-.179h-4.158a.416.416,0,0,0-.415.415v4.158a.414.414,0,0,0,.415.413h4.158a.412.412,0,0,0,.413-.413V248.79a.414.414,0,0,0-.413-.415Z" transform="translate(-537.234 -248.375)"/><g class="ag" transform="translate(35.518 0.001)"><rect class="n" width="4.986" height="4.986" rx="1.015"/></g></g><g transform="translate(0 6.691)"><g class="ag" transform="translate(0 0)"><rect class="n" width="4.986" height="4.986" rx="1.015"/></g><g class="ag" transform="translate(7.104 0)"><rect class="n" width="4.986" height="4.986" rx="1.015"/></g><path class="ah" d="M564.437,251.278a.236.236,0,0,1,.236.236v4.158a.236.236,0,0,1-.236.236h-4.158a.236.236,0,0,1-.236-.236v-4.158a.236.236,0,0,1,.236-.236h4.158m0-.179h-4.158a.416.416,0,0,0-.415.415v4.158a.414.414,0,0,0,.415.413h4.158a.412.412,0,0,0,.413-.413v-4.158a.414.414,0,0,0-.413-.415Z" transform="translate(-545.656 -251.099)"/><g class="ag" transform="translate(21.311 0)"><rect class="n" width="4.986" height="4.986" rx="1.015"/></g><g class="ag" transform="translate(28.414 0)"><rect class="n" width="4.986" height="4.986" rx="1.015"/></g><g class="ag" transform="translate(35.518 0)"><rect class="n" width="4.986" height="4.986" rx="1.015"/></g></g><g transform="translate(0 13.381)"><g class="ag"><rect class="n" width="4.986" height="4.986" rx="1.015"/></g><g class="ag" transform="translate(7.104)"><rect class="n" width="4.986" height="4.986" rx="1.015"/></g><g class="ag" transform="translate(14.207)"><rect class="n" width="4.986" height="4.986" rx="1.015"/></g><g class="ag" transform="translate(21.311)"><rect class="n" width="4.986" height="4.986" rx="1.015"/></g><g class="ag" transform="translate(28.414)"><rect class="n" width="4.986" height="4.986" rx="1.015"/></g><rect class="ai" width="4.986" height="4.986" rx="1.015" transform="translate(35.518)"/></g><g transform="translate(0 20.071)"><path class="ah" d="M558.652,256.724a.237.237,0,0,1,.236.236v4.158a.237.237,0,0,1-.236.236h-4.158a.236.236,0,0,1-.236-.236V256.96a.236.236,0,0,1,.236-.236h4.158m0-.177h-4.158a.414.414,0,0,0-.415.413v4.158a.414.414,0,0,0,.415.413h4.158a.412.412,0,0,0,.413-.413V256.96a.412.412,0,0,0-.413-.413Z" transform="translate(-554.079 -256.546)"/><g class="ag" transform="translate(7.104)"><rect class="n" width="4.986" height="4.986" rx="1.015"/></g><g class="ag" transform="translate(14.207)"><rect class="n" width="4.986" height="4.986" rx="1.015"/></g><g class="ag" transform="translate(21.311)"><rect class="n" width="4.986" height="4.986" rx="1.015"/></g><rect class="ai" width="4.986" height="4.986" rx="1.015" transform="translate(28.415)"/><rect class="ai" width="4.986" height="4.986" rx="1.015" transform="translate(35.518)"/></g></g><g transform="translate(1.728 3.832)"><path class="aj" d="M555.889,246.865a.906.906,0,1,1-.906-.906A.906.906,0,0,1,555.889,246.865Z" transform="translate(-554.076 -245.959)"/><circle class="aj" cx="0.907" cy="0.907" r="0.907" transform="translate(7.721 0)"/><circle class="aj" cx="0.907" cy="0.907" r="0.907" transform="translate(15.443 0)"/><circle class="aj" cx="0.907" cy="0.907" r="0.907" transform="translate(23.098 0)"/><path class="aj" d="M568.463,246.865a.906.906,0,1,1-.906-.906A.906.906,0,0,1,568.463,246.865Z" transform="translate(-535.765 -245.959)"/><path class="aj" d="M571.607,246.865a.906.906,0,1,1-.906-.906A.906.906,0,0,1,571.607,246.865Z" transform="translate(-531.187 -245.959)"/></g><path class="ak" d="M554.73,249.619a.481.481,0,0,1-.481-.481V244.88a.481.481,0,1,1,.963,0v4.257A.479.479,0,0,1,554.73,249.619Z" transform="translate(-552.096 -244.399)"/><path class="ak" d="M557.876,249.619a.481.481,0,0,1-.484-.481V244.88a.483.483,0,0,1,.965,0v4.257A.481.481,0,0,1,557.876,249.619Z" transform="translate(-547.519 -244.399)"/><path class="ak" d="M561.017,249.619a.481.481,0,0,1-.481-.481V244.88a.481.481,0,1,1,.963,0v4.257A.479.479,0,0,1,561.017,249.619Z" transform="translate(-542.941 -244.399)"/><path class="ak" d="M564.117,249.619a.481.481,0,0,1-.482-.481V244.88a.481.481,0,1,1,.963,0v4.257A.48.48,0,0,1,564.117,249.619Z" transform="translate(-538.428 -244.399)"/><path class="ak" d="M567.3,249.619a.481.481,0,0,1-.481-.481V244.88a.481.481,0,0,1,.963,0v4.257A.479.479,0,0,1,567.3,249.619Z" transform="translate(-533.786 -244.399)"/><path class="ak" d="M570.449,249.619a.479.479,0,0,1-.482-.481V244.88a.481.481,0,1,1,.963,0v4.257A.481.481,0,0,1,570.449,249.619Z" transform="translate(-529.207 -244.399)"/></g><rect class="k" width="7.086" height="138.044" transform="translate(442.102 87.485)"/><path class="m" d="M276.692,196.919s7.725-38.8,34.911-39.287V143.687h16.779v13.944s29.765,2.233,35.023,39.287Z" transform="translate(125.719 81.843)"/><g transform="translate(861.899 428.089)"><g transform="translate(106.51 19.696)"><path class="al" d="M519.07,239.047c2.594-.585,4.48-3.043,7-4a19.1,19.1,0,0,1,8.661-.668c5.035.764,10.137,6.666,11.743,11.25,1.8,5.136,1.8,10.854,1.25,16.4-.248,2.478-.992,6.057-.332,8.587.732,2.79,2.823,3.52,4.92,5.153,4.409,3.434,4.976,9.1,3.667,14.244-.617,2.427-1.486,5.352-.933,8,.528,2.523,2.54,4.284,3.358,6.666,1.621,4.736,3.6,12.458.4,16.995-3.439,4.888-10.719,5.942-16.073,4.9-3.665-.717-15.047-6.241-14.325-10.906Z" transform="translate(-489.73 -234.173)"/><path class="am" d="M546.771,303.379c5.1.312,8.28-13.251,7.013-16.658-3.638-9.776,2.559-11.63,2.274-16.867-.351-6.5-5.615-21.062-5.615-21.062s-14.489,1.009-20,.285c-6.2-.82-13.158-.209-14.919,6.661-1.341,5.232-1.8,11.274-2.331,16.658-.575,5.809,1.132,14.686,5.593,18.417,3.937,3.294,10.768,4.163,13.654,7.9Z" transform="translate(-498.439 -212.884)"/><path class="an" d="M542.571,273.872c3.3,15.03-.137,18.908-13.858,18.908-12.22,0-16.125-4.026-13.193-19.824,1.368-.28,9.1-2.827,7.789-1.943a14.728,14.728,0,0,0,.351-12.475c-1.223-1.921,16.371-3.483,14.637.825s-1.41,11.674-1.41,11.674S541.4,273.705,542.571,273.872Z" transform="translate(-496.251 -201.503)"/><path class="an" d="M515.512,248.193l-.666,24.341c.845,11.51,15.558,19.272,21.644,19.3,4.343.015,10.557-10.67,10.876-17.316.31-6.433.774-22.551-2.476-25.2,0,0,.322-9.565-12.117-10.67S515.512,248.193,515.512,248.193Z" transform="translate(-495.881 -227.774)"/><path class="ab" d="M558.551,251.11c1.584,5.848.1,14.231.1,14.231s-.676-9.68-7.275-13.328c-7.032-3.883-19.8-6.477-17.579,2.852s-7.656,5.549-5.846,12.711c4.163,16.5-10.414,21.509-2.776,33.208,7.588,11.611-1.9,22.079-13.033,18.272-12.659-4.335,3.117-12.571-1-23.649-4.345-11.687,4.217-14.045,4.468-19.625.526-11.65-8.427-14.848,0-25.022,7.8-9.412,11.2-22.32,21.074-12.858C547.707,238.642,558.551,251.11,558.551,251.11Z" transform="translate(-507.125 -233.557)"/></g><g transform="translate(91.329 85.882)"><path class="j" d="M540.02,261.119s-2.582,4.745-7.283,4.971-25.144,18.152-30.347,49.579c0,0-6.4,8.373,7.727,13.77,0,0,8.818-8.943,11.1-8.6,0,0-3.81-5.711-.975-9.017s5.5-2.439,5.5-2.439l-3.421,28.9,49.972,9.012,15.892-24.764s11.068,4,12.711,2.385,5.5-2.439,7.035-6.411A15.212,15.212,0,0,0,609,311.43l-6.669-11.51-4.343-4.37s-10.132-23.486-23.619-26.92L562.445,267.3l-6.548,9.282Z" transform="translate(-500.944 -261.119)"/><path class="an" d="M542.221,298.471l11.65-18.785s.12-.447,4.114-2.181,6.88-5.976,7.973-9.535c1.137-3.7,4.519-8.413,6.234-4.2,1.555,3.824,3.834,2.446-1.444,9.587s-7.742,8.017-7.742,8.017-9.353,24.884-14.116,28.6Z" transform="translate(-440.836 -259.67)"/><path class="an" d="M504.679,294.031s12.76,8.255,23.553,7.882l9.029-7.17-21.482-9.309Z" transform="translate(-495.506 -225.711)"/><path class="i" d="M513.888,266.09l13.043,18.773,10.117-8.28,10.837,8.636,7.634-16.589L543.6,267.3l-6.548,9.282-15.877-15.465A20.915,20.915,0,0,1,513.888,266.09Z" transform="translate(-482.096 -261.119)"/></g><rect class="ao" width="41.091" height="11.718" rx="1.103" transform="translate(129.808 337.593)"/><path class="h" d="M692.418,296.615H580.394l-9.577,133.43c1.94,5.664,3.76,11.051,5.018,14.936L590.148,303.6h92.517l16.513,163.116h5.451Z" transform="translate(-307.864 -123.546)"/><g transform="translate(165.398 219.701)"><path class="ap" d="M533.461,416.062c6.013,19.871,17.135,19.623,17.135,19.623l1.646-.759c-.052-.054-.076-.083-.076-.083s-1.709-7.241-2.933-13.035c-.973-4.586,15.017-41.977,24.526-67.6,2.5-6.728,4.547-12.645,5.723-16.941,3.321-12.094,1.088-17.452-1.339-19.817A6.466,6.466,0,0,0,574.6,315.6l-17.94,20.318,2.911,4.488c-9.538,15.423-13.232,38.182-16.43,54.6s-7.246,19.119-7.246,19.119A16.8,16.8,0,0,0,533.461,416.062Z" transform="translate(-527.662 -315.6)"/><path class="aq" d="M536.9,356.5c6.015,19.869,17.135,19.623,17.135,19.623l1.648-.759c.806.825,7.357,7.708,6.914,12.694-.471,5.31-19.822-.047-22.079-6.064L537.9,371.366l-4.222,9.687-2.577-.788,1.518-13.026A13.646,13.646,0,0,1,536.9,356.5Z" transform="translate(-531.1 -256.038)"/></g><g transform="translate(216.259 209.55)"><path class="ar" d="M612.626,415.419s-5.617-4.436-10.007-8.059-19.719-62.784-27.827-81.741-16.639-13.389-16.639-13.389-1.837-.754-5.549,5.949,6.521,24.985,9.857,32.719c6.128,14.217,13.62,28.559,19.537,39.934,7.423,14.278,5.988,18.731,5.988,18.731a15.218,15.218,0,0,0-.761,3.714c17.636,9.972,25.464,2.333,25.464,2.333l.071-.177Z" transform="translate(-551.807 -311.467)"/><path class="as" d="M591.715,355.25l.071-.177c1.191.155,10.142,1.422,12.777,5.413,2.825,4.281-14.946,11.829-20.249,8.651l-8.331-6.433,2.621,9.818-2.412.951-6.651-10.714a13.062,13.062,0,0,1-3.289-9.842C583.887,362.889,591.715,355.25,591.715,355.25Z" transform="translate(-530.831 -251.107)"/></g><path class="at" d="M530.269,413.757h1.2V335.42h-.012a4.977,4.977,0,0,1-4.964-4.962v-3.8h-6.713l6.546,90.728h1.292v-.978A2.661,2.661,0,0,1,530.269,413.757Z" transform="translate(-382.189 -79.795)"/><path class="at" d="M521.226,293.9h1.041a3.659,3.659,0,0,1-.587-2.51l.663-5.379a78.3,78.3,0,0,1-7.369,9.439h4.7A1.555,1.555,0,0,1,521.226,293.9Z" transform="translate(-389.184 -138.987)"/><path class="at" d="M534.072,296.767a5.388,5.388,0,0,1-1.665,3c-1.017,4.161-2.272,8.152-2.272,8.152,29.46-.432,54.138-3.795,69.31,25.68,12.819,24.906,25.1,66.866,25.444,68.053a4.269,4.269,0,0,1,.027,2.635,10.773,10.773,0,0,1-2.842,2.746c1.923,5.49,5.082,14.538,7.985,23.01l9.577-133.43H534.1Z" transform="translate(-367.107 -123.546)"/><path class="q" d="M480.51,326.805c-5.458-30.9,3.861-68.718,3.9-68.858a.511.511,0,0,1,.992.241c-.034.14-9.353,37.951-3.869,68.617h.786a130.808,130.808,0,0,1,6.507-33.117c1.894-10.218,3.724-19.313,4.087-23.843.921-11.52-5.679-23-14.553-13.961-7.447,7.585-7.885,30.118-4.819,50.436a122.227,122.227,0,0,1,6.138,20.485Z" transform="translate(-452.128 -187.593)"/><path class="au" d="M481.221,255.269a.511.511,0,1,0-.992-.241c-.034.14-9.353,37.956-3.9,68.858h1.019C471.868,293.22,481.187,255.409,481.221,255.269Z" transform="translate(-447.951 -184.674)"/><g transform="translate(32.086 86.954)"><path class="q" d="M492.859,262.8c-4.5,2.385-8.405,9.262-11.426,17.894-2.078,11.2-4.227,23.745-4.608,33.118h.845a140.233,140.233,0,0,1,8.786-26.761c-.01-.012-1.818,6.612-1.813,6.627h0a128.873,128.873,0,0,0-6.121,20.134h3.947c2.982-6.625,6.863-13.964,10.358-20.478l-.012,0c.69-1.326,2.311-4.433,5.148-9.908.091-.172.221-.233.329-.349,1.15-2.225,2.066-4.1,2.626-5.472C504.566,268.658,502.208,257.848,492.859,262.8Z" transform="translate(-476.825 -261.555)"/><path class="av" d="M488.392,263.478a.425.425,0,1,1,.727.44c-.025.042-2.776,4.544-6.276,11.574" transform="translate(-468.061 -259.057)"/></g><path class="au" d="M481.351,285.3c3.5-7.032,10.8-21.34,10.83-21.382a.425.425,0,1,0-.727-.44c-.024.039-7.248,14.167-10.7,21.077.042.044-.047-.047,0,0C480.909,284.719,481.186,285.117,481.351,285.3Z" transform="translate(-439.037 -172.103)"/><path class="aw" d="M486.552,272.68c-.189-.238-.383-.481-.6-.744a140.236,140.236,0,0,0-8.786,26.761h.855A138.709,138.709,0,0,1,486.552,272.68Z" transform="translate(-444.238 -159.485)"/><path class="q" d="M467.933,271.392a.4.4,0,0,1,.648-.464c.054.074,11.751,16.329,18.871,35.259h2.3a139.5,139.5,0,0,1-4.583-20.485c-3.589-8.845-8.057-15.956-12.809-18.031-9.061-3.959-10.5,6.278-6.472,14.357,2.186,4.387,8.943,14.273,14.946,24.16h5.78C479.529,287.5,467.987,271.464,467.933,271.392Z" transform="translate(-463.762 -166.975)"/><path class="i" d="M478.616,294.976a122.228,122.228,0,0,0-6.138-20.485,139.5,139.5,0,0,0,4.583,20.485Z" transform="translate(-451.069 -155.764)"/><path class="au" d="M466.152,268.574a.4.4,0,0,0-.648.464c.054.071,11.6,16.11,18.682,34.8h.838C477.9,284.9,466.206,268.648,466.152,268.574Z" transform="translate(-461.333 -164.621)"/><path class="t" d="M495.2,289.621H470.18l-.765-2.945,3.639,14.017h19.274Z" transform="translate(-455.53 -138.02)"/><path class="ax" d="M469.415,286.675h0Z" transform="translate(-455.53 -138.02)"/><path class="s" d="M496.823,282.831H470.271a1.448,1.448,0,0,0-1.444,1.444v6.553a1.448,1.448,0,0,0,1.444,1.444h26.552a1.448,1.448,0,0,0,1.444-1.444v-6.553A1.448,1.448,0,0,0,496.823,282.831Z" transform="translate(-456.386 -143.619)"/><path class="ay" d="M480.678,286.675l-.765,2.945h0Z" transform="translate(-440.242 -138.02)"/><path class="h" d="M495.2,289.621l.765-2.945H469.415l.765,2.945Z" transform="translate(-455.53 -138.02)"/><path class="az" d="M487.664,268.853a2.28,2.28,0,0,1,.336.336A2.169,2.169,0,0,0,487.664,268.853Z" transform="translate(-428.955 -163.974)"/><path class="az" d="M483.587,274.621h0l-.415-.214C483.3,274.476,483.442,274.547,483.587,274.621Z" transform="translate(-435.496 -155.886)"/><path class="ba" d="M487.647,268.834l0,.007.054.039C487.676,268.866,487.667,268.849,487.647,268.834Z" transform="translate(-428.987 -164.002)"/><path class="ba" d="M483.267,274.457l-.155-.084,0,0C483.154,274.4,483.218,274.43,483.267,274.457Z" transform="translate(-435.591 -155.936)"/><rect class="bb" width="3.632" height="78.335" transform="translate(149.277 255.627)"/><path class="ao" d="M531.649,362.119h-6.027a2.661,2.661,0,0,0-2.653,2.653v.977H534.3v-.977A2.661,2.661,0,0,0,531.649,362.119Z" transform="translate(-377.542 -28.157)"/><g transform="translate(125.669 243.892)"><path class="bb" d="M539.789,325.449h-20.1l.216,2.972h6.713v3.8a4.977,4.977,0,0,0,4.964,4.962h3.655a4.977,4.977,0,0,0,4.964-4.962v-3.8h15.184a3.505,3.505,0,0,0,3.449-2.972Z" transform="translate(-507.986 -325.449)"/><path class="bb" d="M514.925,325.449a3.505,3.505,0,0,0,3.448,2.972h.14l-.3-2.972Z" transform="translate(-514.925 -325.449)"/></g><g transform="translate(116.207 238.122)"><path class="ao" d="M549.666,323.1H519.521l.125,1.734.29,4.036H562.6a5.9,5.9,0,0,0,5.875-5.77Z" transform="translate(-498.771 -323.1)"/><path class="ao" d="M523.234,323.1H511.073a5.9,5.9,0,0,0,5.875,5.77h6.873l-.405-3.979Z" transform="translate(-511.073 -323.1)"/></g><g transform="translate(94.529 224.235)"><path class="h" d="M534.672,317.446H509.191a6.944,6.944,0,1,0,0,13.888h26.9l-.612-6Z" transform="translate(-502.247 -317.446)"/><path class="h" d="M576.039,317.446H519.113l.568,7.884.435,6h50.81C574.258,323.154,576.444,317.446,576.039,317.446Z" transform="translate(-477.686 -317.446)"/></g><path class="i" d="M529.993,351.709c-.113.083-.233.167-.336.248C529.759,351.876,529.88,351.792,529.993,351.709Z" transform="translate(-367.805 -43.316)"/><path class="i" d="M529.39,352.15c.061-.059.152-.128.224-.192C529.542,352.022,529.451,352.091,529.39,352.15Z" transform="translate(-368.192 -42.954)"/><path class="i" d="M530.365,351.459c-.12.081-.241.16-.359.241C530.121,351.619,530.244,351.54,530.365,351.459Z" transform="translate(-367.295 -43.68)"/><path class="i" d="M565.311,351.706c.121-.083.248-.167.376-.251Q565.5,351.58,565.311,351.706Z" transform="translate(-315.882 -43.686)"/><path class="i" d="M564.961,351.96c.106-.081.229-.167.344-.253C565.189,351.793,565.067,351.879,564.961,351.96Z" transform="translate(-316.392 -43.319)"/><path class="i" d="M564.7,352.156c.061-.061.155-.135.229-.2C564.851,352.021,564.757,352.092,564.7,352.156Z" transform="translate(-316.778 -42.958)"/><path class="bc" d="M564.789,352.166c.133-.115.258-.231.422-.356C565.047,351.938,564.922,352.051,564.789,352.166Z" transform="translate(-316.642 -43.169)"/><path class="bc" d="M565.1,351.925c.167-.123.332-.243.516-.368C565.433,351.682,565.27,351.8,565.1,351.925Z" transform="translate(-316.188 -43.538)"/><path class="bc" d="M564.553,352.484a1.579,1.579,0,0,1,.351-.447A1.579,1.579,0,0,0,564.553,352.484Z" transform="translate(-316.986 -42.839)"/><path class="bc" d="M565.879,351.342c-.142.091-.278.184-.415.278.138-.091.278-.184.418-.275Z" transform="translate(-315.66 -43.851)"/><path class="az" d="M576.266,362.109h0Z" transform="translate(-299.993 -28.171)"/><path class="bd" d="M576.263,362.109h0Z" transform="translate(-300.034 -28.171)"/><path class="bd" d="M576.285,362.111l.472,0Z" transform="translate(-299.902 -28.173)"/><path class="be" d="M555.331,346.725l-.454.138Z" transform="translate(-331.078 -50.574)"/><path class="be" d="M554.979,346.805l-.312.093Z" transform="translate(-331.383 -50.458)"/><path class="be" d="M514.584,308.489l-.327-3.215A6.379,6.379,0,0,0,514.584,308.489Z" transform="translate(-390.345 -110.937)"/><path class="be" d="M558.169,345.965c-.408.135-.806.265-1.189.391C557.363,346.23,557.761,346.1,558.169,345.965Z" transform="translate(-328.014 -51.681)"/><path class="be" d="M555.71,346.625c-.189.059-.373.113-.54.165Z" transform="translate(-330.65 -50.72)"/><path class="be" d="M558.731,345.766c-.386.13-.761.255-1.13.378C557.969,346.021,558.345,345.9,558.731,345.766Z" transform="translate(-327.11 -51.971)"/><path class="be" d="M558.361,346.145c-.889.287-1.71.548-2.439.776C556.654,346.693,557.469,346.432,558.361,346.145Z" transform="translate(-329.555 -51.419)"/><path class="be" d="M554.655,346.867l-.12.037Z" transform="translate(-331.575 -50.367)"/><path class="be" d="M556.319,346.482c-.275.086-.54.169-.789.246C555.779,346.651,556.044,346.568,556.319,346.482Z" transform="translate(-330.124 -50.928)"/><path class="be" d="M533.34,345.924" transform="translate(-362.44 -51.741)"/><path class="be" d="M560.081,345.323c-.418.147-.828.29-1.236.432C559.253,345.613,559.663,345.47,560.081,345.323Z" transform="translate(-325.299 -52.616)"/><path class="be" d="M560.881,345.069c-.467.167-.928.334-1.385.5C559.953,345.4,560.415,345.236,560.881,345.069Z" transform="translate(-324.35 -52.986)"/><path class="be" d="M559.376,345.554c-.4.138-.784.27-1.167.4C558.592,345.824,558.98,345.692,559.376,345.554Z" transform="translate(-326.225 -52.279)"/><path class="be" d="M565.332,344.229c-1.727.69-3.471,1.351-5.168,1.97C561.861,345.58,563.605,344.922,565.332,344.229Z" transform="translate(-323.378 -54.209)"/><path class="be" d="M534.524,345.924h0l-2,5.08h0Z" transform="translate(-363.624 -51.741)"/><path class="be" d="M566.863,339.567c.2.577.83,2.356,1.727,4.922v0C567.691,341.915,567.064,340.139,566.863,339.567Z" transform="translate(-313.622 -60.998)"/><path class="be" d="M566.908,339.7l-.076-.219Z" transform="translate(-313.668 -61.127)"/><path class="be" d="M573.158,339.7l-.076-.219-10.542,6.681,1.963,3.9a57.171,57.171,0,0,0,10.383-5.443C573.989,342.052,573.362,340.274,573.158,339.7Z" transform="translate(-319.918 -61.127)"/><path class="k" d="M528.243,313.742l-1.454-14.283H509.281c-3.127,6.268-5.44,13.391-4.492,19.839,2.218,15.135,8.393,23.138,26.483,24.206l-2.7-26.547A6.379,6.379,0,0,1,528.243,313.742Z" transform="translate(-404.331 -119.405)"/><path class="k" d="M643.013,400.062c-.349-1.186-11.046-45.988-25.444-68.052-18.12-27.76-39.85-26.112-69.31-25.68,0,0,1.255-3.991,2.272-8.152-5.055,4.822-20.175,3.1-32.842-.469l.71,9.872,1.579,21.865,1.208,16.744h56.926c.405,0-1.781,5.708-5.114,13.888-8.25,20.247-23.555,55.722-24.174,57.889-.2.707,1.847,1.911,5.31,3.252l11.552,2.348c-.14.223-.292.459-.425.675-.079.128-.135.231-.211.356,13.084,3.321,30.953,5.735,41.368,1.845a3.888,3.888,0,0,0,1.415-2.933,43.139,43.139,0,0,0,.108-4.944l3.178-59.365.157-2.916s.081-.624.6-.489a13.479,13.479,0,0,1,.513,2.515c1.493,9.12,5.561,40.243,6.305,43.4.6,2.54,5.5,7.44,8.518,10.257.874-.351,1.746-.71,2.6-1.076l10.382-5.445a10.774,10.774,0,0,0,2.842-2.746A4.269,4.269,0,0,0,643.013,400.062Z" transform="translate(-385.231 -121.954)"/><path class="bf" d="M556.024,346.461l-.172.052Z" transform="translate(-329.657 -50.959)"/><path class="bf" d="M554.788,346.843l-.2.059Z" transform="translate(-331.503 -50.402)"/><path class="bf" d="M554.684,346.882l-.25.074Z" transform="translate(-331.723 -50.346)"/><path class="bf" d="M555.329,346.692l-.268.081Z" transform="translate(-330.809 -50.622)"/><path class="bf" d="M555,346.781l-.2.059Z" transform="translate(-331.198 -50.493)"/><path class="bf" d="M557.075,346.124l-.16.052Z" transform="translate(-328.109 -51.449)"/><path class="bf" d="M557.8,345.92l-.336.11Z" transform="translate(-327.31 -51.746)"/><path class="bf" d="M560.315,345.031l-.256.093Z" transform="translate(-323.529 -53.041)"/><path class="bf" d="M562.294,344.225h0l-.025.01Z" transform="translate(-320.313 -54.215)"/><path class="bf" d="M559.711,345.271l-.363.128Z" transform="translate(-324.566 -52.691)"/><path class="bf" d="M558.425,345.716l-.364.123Z" transform="translate(-326.44 -52.044)"/><path class="bf" d="M559.079,345.5l-.4.135Z" transform="translate(-325.533 -52.36)"/><path class="bf" d="M555.736,346.582l-.346.106Z" transform="translate(-330.33 -50.782)"/><path class="bg" d="M565.186,367.28c-.744-3.154-4.812-34.277-6.3-43.4a13.487,13.487,0,0,0-.513-2.515c-.518-.135-.6.489-.6.489l-.157,2.916-3.178,59.365.25-.074.12-.037.2-.059.312-.093.2-.059.454-.138.268-.081c.167-.052.351-.106.54-.165l.346-.106c.248-.076.513-.16.789-.246l.172-.052c.729-.228,1.55-.489,2.439-.776l.16-.052c.383-.125.781-.255,1.189-.391l.336-.11c.368-.123.744-.248,1.13-.378l.364-.123c.383-.128.771-.26,1.167-.4l.4-.135c.408-.142.818-.285,1.236-.432l.363-.128c.457-.162.919-.329,1.385-.5l.256-.093c1.7-.619,3.441-1.28,5.168-1.97l.027-.01C570.691,374.72,565.783,369.82,565.186,367.28Z" transform="translate(-331.723 -87.527)"/><path class="j" d="M553.519,297.164,522.662,294.5l-4.765,5.2c-3.908,9.137,26.211,5.811,26.211,5.811,3.471-.545,5.492-1.7,6.674-2.842-.015.064-.025.123-.042.184a5.512,5.512,0,0,0,1.476-2.3,3.537,3.537,0,0,0,.219-.857Z" transform="translate(-385.439 -126.628)"/><path class="bc" d="M529.247,352.485a1.666,1.666,0,0,1,.351-.449A1.666,1.666,0,0,0,529.247,352.485Z" transform="translate(-368.4 -42.84)"/><path class="bc" d="M529.911,351.81c-.167.128-.3.243-.43.364C529.614,352.056,529.744,351.938,529.911,351.81Z" transform="translate(-368.059 -43.169)"/><path class="bc" d="M530.152,351.629l.435-.285,0,0C530.437,351.438,530.3,351.534,530.152,351.629Z" transform="translate(-367.082 -43.851)"/><path class="bc" d="M530.316,351.557c-.187.125-.351.248-.523.373C529.965,351.805,530.129,351.682,530.316,351.557Z" transform="translate(-367.605 -43.538)"/><path class="i" d="M518.708,269.034l.015-.059Z" transform="translate(-383.747 -163.796)"/><path class="n" d="M544.464,268.47a.565.565,0,0,0,.629-.125l8.84-8.84h34.64a5.2,5.2,0,0,0,5.188-5.188V231.342a5.2,5.2,0,0,0-5.188-5.188h-39.28a5.2,5.2,0,0,0-5.188,5.188v36.593A.573.573,0,0,0,544.464,268.47Zm36.487-29.888a3.535,3.535,0,1,1-3.534,3.535A3.539,3.539,0,0,1,580.951,238.583Zm-12.018,0a3.535,3.535,0,1,1-3.534,3.535A3.54,3.54,0,0,1,568.933,238.583Zm-12.016,0a3.535,3.535,0,1,1-3.537,3.535A3.539,3.539,0,0,1,556.917,238.583Z" transform="translate(-346.763 -226.154)"/><path class="i" d="M551.418,238.283a3.535,3.535,0,1,0-3.537-3.535A3.541,3.541,0,0,0,551.418,238.283Z" transform="translate(-341.265 -218.785)"/><path class="i" d="M556.308,238.283a3.535,3.535,0,1,0-3.535-3.535A3.541,3.541,0,0,0,556.308,238.283Z" transform="translate(-334.139 -218.785)"/><path class="i" d="M561.2,238.283a3.535,3.535,0,1,0-3.534-3.535A3.541,3.541,0,0,0,561.2,238.283Z" transform="translate(-327.014 -218.785)"/><path class="i" d="M515.443,317.391l.012.135h4.323C518.256,317.526,516.823,317.475,515.443,317.391Z" transform="translate(-388.502 -93.291)"/><path class="h" d="M522.4,296.615H479.042l-12.274,170.1h5.48l16.6-163.116h75.49a76.131,76.131,0,0,1,3.962-6.986Z" transform="translate(-459.384 -123.546)"/><path class="h" d="M524.682,325.449h-8.419l.3,2.972H524.9Z" transform="translate(-387.308 -81.557)"/><path class="h" d="M524.739,324.834l-.125-1.734h-8.59l.182,1.791a3.608,3.608,0,0,1,.567-.057Z" transform="translate(-387.656 -84.978)"/><g transform="translate(104.95 173.069)"><path class="h" d="M524.717,326.659h-8.331l9.232,90.729h5.645Z" transform="translate(-492.079 -252.863)"/><path class="h" d="M524.631,323.806h-7.966a3.6,3.6,0,0,0-.567.057l.405,3.979h8.418Z" transform="translate(-492.498 -257.018)"/><path class="h" d="M525.017,325.331l-.567-7.884h-9l.8,7.884.612,6h8.589Z" transform="translate(-493.445 -266.28)"/><path class="h" d="M510.452,296.615a76.131,76.131,0,0,0-3.962,6.986H524l1.454,14.283.327,3.215,2.81,27.606c1.38.084,2.7-.923,4.227-.923h4.679l-1.208-16.744-1.579-21.865L534,296.615" transform="translate(-506.49 -296.615)"/></g><path class="bh" d="M574.793,296.177l-.077,1.076H686.74l-.077-1.076Z" transform="translate(-302.186 -124.184)"/><path class="bi" d="M847.026,302.779h2.685a5.2,5.2,0,0,0,0-10.4H576.848l-.892.223s1.285,1.415-.467,3.707c.027.054,3.962-.147,3.994-.093-.029-.052.093-3.257-3.227.061a1.083,1.083,0,0,1-.354-.061c-.069-.15,1.481-.228,1.454-.373-.01-.061-.162-.172-.167-.233-.01-.2,1.788-1.38,1.869-1.567.381-.9-2.557-.784-2.211-1.663H499.27l-.081.314H480.077l-.081-.314H469.847a5.2,5.2,0,1,0,0,10.4h12.284" transform="translate(-462.473 -129.71)"/><path class="bi" d="M517.61,296.615H657.876" transform="translate(-385.347 -123.546)"/><path class="bj" d="M518.508,290.487a3,3,0,0,1,.479,1.552c0,.061-.032.115-.037.177h66.78v-1.729Z" transform="translate(-384.039 -132.47)"/><path class="bj" d="M558.58,293.813a2.81,2.81,0,0,0-.174-3.449,1.524,1.524,0,0,1-.87.3h-11.66V292.4h10.108A3.1,3.1,0,0,1,558.58,293.813Z" transform="translate(-344.184 -132.649)"/><path class="bk" d="M550.659,292.255c-.074.034-.152.064-.229.093C550.509,292.319,550.582,292.289,550.659,292.255Z" transform="translate(-337.553 -129.895)"/><path class="bk" d="M550.944,291.983c-.025.025-.042.059-.069.084C550.9,292.042,550.919,292.008,550.944,291.983Z" transform="translate(-336.905 -130.291)"/><path class="bl" d="M509.528,292.291a2.964,2.964,0,0,1-.354-.523c-.01.017-.025.029-.037.047A3.149,3.149,0,0,0,509.528,292.291Z" transform="translate(-397.684 -130.605)"/><path class="bl" d="M510.189,292.6a3.07,3.07,0,0,1-.862-.585A3.107,3.107,0,0,0,510.189,292.6Z" transform="translate(-397.408 -130.242)"/><path class="bl" d="M510.849,292.512a3.046,3.046,0,0,1-1.078-.219A3.035,3.035,0,0,0,510.849,292.512Z" transform="translate(-396.762 -129.84)"/><path class="bl" d="M551.189,291.768a3.159,3.159,0,0,1-.238.354h.025a3.706,3.706,0,0,0,.25-.307C551.216,291.8,551.2,291.785,551.189,291.768Z" transform="translate(-336.794 -130.605)"/><path class="bl" d="M549.991,292.512a3.037,3.037,0,0,0,1.078-.219A3.037,3.037,0,0,1,549.991,292.512Z" transform="translate(-338.192 -129.84)"/><path class="bl" d="M550.523,292.412a3.23,3.23,0,0,0,.454-.265h-.061A3.237,3.237,0,0,1,550.523,292.412Z" transform="translate(-337.417 -130.053)"/><path class="bl" d="M551.155,292.017a3.3,3.3,0,0,1-.472.319h.061A3.227,3.227,0,0,0,551.155,292.017Z" transform="translate(-337.184 -130.242)"/><path class="bl" d="M550.9,292.086c.051-.057.1-.118.142-.174h-.025C550.977,291.966,550.952,292.035,550.9,292.086Z" transform="translate(-336.864 -130.395)"/><path class="bm" d="M597.394,294.116a2.824,2.824,0,0,0,2.171-.9c0-.037.044-.059.069-.083.049-.052.073-.12.118-.174a3.145,3.145,0,0,0,.238-.354,3.1,3.1,0,0,0-2.6-1.417H520.507a3.091,3.091,0,0,1-3.068,2.925h69.848" transform="translate(-385.595 -131.445)"/><path class="bn" d="M528.513,265.939a4.738,4.738,0,0,0-4.559,4.06l-2.766,22.479-2.068,16.788-.734,5.976-.663,5.379a3.659,3.659,0,0,0,.587,2.51h2.307a3.645,3.645,0,0,1-.587-2.51l1.162-9.439.759-6.177,1.962-15.946,1.982-16.091h0l.366-2.969a4.31,4.31,0,0,1,.324-1.137c.032-.079.064-.155.1-.231a4.673,4.673,0,0,1,.616-.965c.01-.015.017-.032.027-.044l.007,0a4.658,4.658,0,0,1,3.485-1.687Z" transform="translate(-385.225 -168.218)"/><path class="n" d="M584.349,304.593a.506.506,0,0,1,0-1.012h3.066L591.549,270a3.525,3.525,0,0,0-3.562-4.06H530.521l53.828,45.185Z" transform="translate(-366.545 -168.218)"/><path class="n" d="M521.618,267.626l31.111,26.115a8.97,8.97,0,0,1,4.556-5.3l-26.81-22.5H525.1A4.658,4.658,0,0,0,521.618,267.626Z" transform="translate(-379.51 -168.218)"/><path class="bo" d="M521.18,268.266a4.3,4.3,0,0,1,.324-1.137A4.3,4.3,0,0,0,521.18,268.266Z" transform="translate(-380.148 -166.485)"/><path class="n" d="M518.662,316.454a3.645,3.645,0,0,0,.587,2.51h65.036L524.527,268.8l-1.982,16.091" transform="translate(-383.858 -164.05)"/><path class="n" d="M545.361,296.569s1.793-15.361,19.5-11.873l-1.073,8.71s-.164,3.977-3.964,4.647a1.478,1.478,0,0,0-1.538-1.484Z" transform="translate(-344.934 -141.654)"/><path class="n" d="M523.8,273.649" transform="translate(-376.329 -156.99)"/><path class="n" d="M562.542,294.932l-19.424-16.3a8.976,8.976,0,0,1-4.687,5.188l22.241,18.67" transform="translate(-355.025 -149.74)"/><path class="bo" d="M521.353,267.607a4.611,4.611,0,0,1,.616-.965A4.678,4.678,0,0,0,521.353,267.607Z" transform="translate(-379.896 -167.194)"/><path class="bo" d="M524.46,274.147" transform="translate(-375.371 -156.265)"/><path class="bo" d="M524.579,274.216c-.184-.142-.383-.28-.577-.422C524.2,273.936,524.395,274.076,524.579,274.216Z" transform="translate(-376.038 -156.779)"/><path class="n" d="M555.91,291.308a4.789,4.789,0,0,0,3.272-2.272l-.268-.224H548.048l1.206,1.012h5.119A1.547,1.547,0,0,1,555.91,291.308Z" transform="translate(-341.021 -134.909)"/><path class="n" d="M554.558,288.342l.82-6.666h-2.942v6.532l.16.135Z" transform="translate(-334.632 -145.301)"/><path class="n" d="M552.23,281.77a.505.505,0,0,0,.506.506v-.506h3l.061-.506h-3.065A.505.505,0,0,0,552.23,281.77Z" transform="translate(-334.931 -145.901)"/><path class="n" d="M552.436,281.47v.506h2.942l.062-.506" transform="translate(-334.632 -145.601)"/><path class="bp" d="M521.631,266.624c-.01.012-.017.029-.027.044l.034-.039Z" transform="translate(-379.53 -167.22)"/><path class="bp" d="M521.031,270.562h0l.365-2.97Z" transform="translate(-380.364 -165.81)"/><path class="bp" d="M521.312,267.266c.032-.079.064-.157.1-.231C521.376,267.111,521.344,267.187,521.312,267.266Z" transform="translate(-379.955 -166.622)"/><path class="n" d="M591.557,311.765a.507.507,0,0,1,.506-.506v-.135l-53.828-45.185H525.224l26.81,22.5a8.287,8.287,0,0,1,3.726-.933,6.916,6.916,0,0,1,7.005,7.8,8.184,8.184,0,0,1-.412,1.8l20.455,17.336" transform="translate(-374.258 -168.218)"/><path class="n" d="M586.012,319.963l-22.241-18.67a8.277,8.277,0,0,1-3.505.82,6.915,6.915,0,0,1-7-7.8,8.38,8.38,0,0,1,.319-1.57l-31.111-26.115-.034.039a4.613,4.613,0,0,0-.616.965c-.037.074-.069.152-.1.231A4.31,4.31,0,0,0,521.4,269l-.363,2.969,59.758,50.164" transform="translate(-380.363 -167.217)"/><path class="bo" d="M509.371,292.069c-.029-.027-.049-.061-.074-.088C509.324,292.008,509.341,292.042,509.371,292.069Z" transform="translate(-397.452 -130.294)"/><path class="bo" d="M509.678,292.255c.076.034.15.064.228.093C509.83,292.319,509.752,292.289,509.678,292.255Z" transform="translate(-396.897 -129.895)"/><path class="bq" d="M532.432,291.407h-2.427a1.556,1.556,0,0,1-1.552-1.552h-16.4a3.06,3.06,0,0,0-2.528,1.4,3.027,3.027,0,0,0-.577,1.7,2.992,2.992,0,0,0,.508,1.594,2.958,2.958,0,0,0,.354.523c.025.027.044.061.074.088a3.07,3.07,0,0,0,.862.585c.074.034.152.064.228.093a3.048,3.048,0,0,0,1.078.219h17.756a3.091,3.091,0,0,0,3.068-2.925c.005-.061.037-.115.037-.177A3,3,0,0,0,532.432,291.407Z" transform="translate(-397.963 -133.39)"/><path class="bm" d="M586.824,289.224H518.44a1.551,1.551,0,1,0,0,3.1h81.309a1.634,1.634,0,0,0,1.552-1.552.544.544,0,0,0-.015-.066,1.547,1.547,0,0,0-1.538-1.483h-13.9" transform="translate(-386.398 -134.309)"/><path class="i" d="M519.332,246.464" transform="translate(-382.839 -196.578)"/><path class="br" d="M504.679,294.669S512.225,287.2,515.16,285c0,0,3.574,1.292,3.1,2.2s-6.671,11.023-8.673,10.515S504.679,294.669,504.679,294.669Z" transform="translate(-404.177 -140.466)"/></g><g transform="translate(650.163 467.126)"><path class="h" d="M406.447,345.066c1.543-17.415,7.062-21.728,7.062-21.728,1.181-.042,35.07-21.529,35.07-21.529s20.974,28.426,25.216,33.049l3.129,24.931-31.514,14.354H430.8S404.9,362.485,406.447,345.066Z" transform="translate(-335.586 -155.019)"/><path class="m" d="M403.885,389.068c1.221-17.916,12.384-45.4,12.384-45.4s-6.99-33.717-5.03-41.663,4.271-23.457,10.333-25.8c2.36-.909,5.585-2.233,5.585-2.233l14.6,8.756,14.332-9.668s3.063.882,6.16,1.862c2.088.658,6.116,19.439,8.12,28.458s-4.768,40.282-4.768,40.282,11.7,27.058,13.728,42.888C480.1,392.576,423.164,407.463,403.885,389.068Z" transform="translate(-339.221 -196.877)"/><path class="ab" d="M424.584,257.3c-1.84,3.991,3.618,44.615,12.426,53.9,8.7,9.172,8.265,42.64-12.549,44.085-10.3.715-11.726-12-20.9-16.142-10.51-4.748,2.289-14.239-6.4-25.673s8.45-23.275,5.133-32.064c-6.588-17.452,7.548-27.886,12.09-33.7,6.519-8.349,12.424-4.721,15.04-3.517S427.6,250.771,424.584,257.3Z" transform="translate(-352.63 -241.58)"/><path class="an" d="M439.5,507.777c-.079-1.228-.14-2.562-.189-3.935h0c-.548-17.27,7.383-171.8,7.383-171.8l-26.766,1.83,11.009,65.044-5.5,29.929,2.139,72.417c0,1.174-.017,2.311-.047,3.365-.017.641-1.9,5.517-1.9,9.233,0,4.814,2.338,8.327,3.144,22.028.356,6.052,19.8,2.886,22.239.3S440.568,524.1,439.5,507.777Z" transform="translate(-315.861 -110.987)"/><path class="h" d="M466.473,413.74c-19.375-10.761-42.144-34.451-51.824-40.764-4.994-3.252-17.1-.366-17.1-.366l75.222-24.759-27.923-27.989s-58.925,21.062-67.141,49.967c-1.26,4.424,5.551,13.423,8.761,15.668,24.351,17.009,73.25,37.215,73.25,37.215S469.475,415.4,466.473,413.74Z" transform="translate(-377.558 -128.728)"/><g transform="translate(61.795 271.061)"><path class="an" d="M449.879,407.108c.7,10.564-5.568,6.6-4.893-1.056-6.5-12.885-13.669-24.631-16.582-26.63-6.585-4.525-25.687-13.026-25.687-13.026l7.219-13.993s1.967,1.019,18.041,12.885a12,12,0,0,0,7.113,1.361c5.951-.612,11.638-1.253,12.885,6.5C449.53,382.836,449.747,405.1,449.879,407.108Z" transform="translate(-402.717 -352.403)"/></g><path class="m" d="M417.194,256.484c-3.011,6.531-4.957,12.053-7.57,10.844s-6.705-4.33-1.891-15.207c4.281-9.687,6.983-9.884,9.594-8.683S420.208,249.958,417.194,256.484Z" transform="translate(-336.866 -240.766)"/><path class="h" d="M428.266,491.9l-9.3-149.226s36.831-38.929,39.624-11.434S444.126,456.629,441.419,491.9Z" transform="translate(-317.255 -126.471)"/><path class="ab" d="M436.333,308.26c17.825-.042,22.389-18.279,22.971-28.087s5.141-18.721-.513-28.672c-4.468-7.857-28.608-12.053-40.42-7.7-8.59,3.166-11.962,20.065-11.441,29.934C407.787,290.049,424.666,308.292,436.333,308.26Z" transform="translate(-334.863 -242.047)"/><path class="an" d="M442.292,283.778c2.579,12.949-24.4,18.355-28.932.911,1.621-.337,8.926-2.965,7.376-1.916a17.441,17.441,0,0,0,.415-14.779c-1.449-2.27,19.392-4.124,17.338.978s-1.67,13.836-1.67,13.836S440.9,283.579,442.292,283.778Z" transform="translate(-325.423 -207.59)"/><path class="an" d="M413.251,248.983l-.791,28.834c1,13.635,18.432,22.826,25.638,22.855,5.146.024,12.5-12.633,12.885-20.507.366-7.619.916-26.709-2.935-29.851Z" transform="translate(-326.734 -231.946)"/><path class="bs" d="M420.185,261.354l-3.785,6.023s-1.123,1.739-3.834.282-4.652-10.6,1.258-10.859C417.888,256.623,420.185,261.354,420.185,261.354Z" transform="translate(-330.381 -220.57)"/><path class="bt" d="M454.034,251.452c1.879,6.922.123,16.852.123,16.852s-.9-4.9-4.24-7.833c-2.343-2.058-10.083,2.667-14.939.324-9.113-4.406-18.39,4.362-17.186,10.161,1.842,8.889.663,12.922.663,12.922s-3.913-2.685-5.158-9.842c-.924-5.278-3.264-12.2-2.952-18.753,0,0,15.678-11.154,28.728-10.277S454.034,251.452,454.034,251.452Z" transform="translate(-329.855 -237.807)"/></g><path class="an" d="M405.844,293.687s-9.562,31.074-6.573,39.442,18.525,0,18.525,0l28.686-17.862s3.586-6.042,2.987-21.581c0,0-3.586-6.575-5.976-2.392,0,0,2.39,8.965-1.793,13.148s-27.49,18.527-26.891,14.941,6.573-16.135,6.573-16.135Z" transform="translate(303.38 294.767)"/><path class="bu" d="M463.531,291.726s8.987,32.683,6,41.049-18.525,0-18.525,0l-28.686-17.862s-3.586-6.042-2.987-21.581c0,0,3.586-6.573,5.976-2.39,0,0-2.39,8.965,1.793,13.148s27.49,18.525,26.891,14.939-6-17.741-6-17.741Z" transform="translate(333.337 294.254)"/><g transform="translate(1103.305 552.991)"><g transform="translate(0 28.028)"><path class="bv" d="M562.272,293.1a4.465,4.465,0,0,1,4.461-4.461h31.931a.557.557,0,0,1,.484.833l-.84,1.474a4.336,4.336,0,0,0,0,4.306l.84,1.474a.559.559,0,0,1-.484.835H566.733a4.467,4.467,0,0,1-4.461-4.46Z" transform="translate(-561.714 -288.085)"/><path class="af" d="M598.994,296.222H567.063a2.788,2.788,0,1,1,0-5.576h31.931a1.115,1.115,0,1,0,0-2.23H567.063a5.018,5.018,0,1,0,0,10.036h31.931a1.115,1.115,0,1,0,0-2.23Z" transform="translate(-562.045 -288.416)"/><path class="bw" d="M566.187,292.235h20.964a1.115,1.115,0,1,0,0-2.23H566.187a1.115,1.115,0,0,0,0,2.23Z" transform="translate(-557.637 -286.102)"/></g><path class="s" d="M575.992,290.613H573.8a1.115,1.115,0,1,1,0-2.23h2.193a4.838,4.838,0,0,0,4.831-4.834v-1.486a1.861,1.861,0,0,0-1.857-1.859h-4.46a1.115,1.115,0,1,1,0-2.23h4.46a4.093,4.093,0,0,1,4.087,4.09v1.486A7.07,7.07,0,0,1,575.992,290.613Z" transform="translate(-546.552 -275.595)"/><g transform="translate(8.997)"><path class="s" d="M584.665,277H566.823a1.114,1.114,0,0,0-1.115,1.115v4.461a1.114,1.114,0,0,0,1.115,1.115h17.842a1.116,1.116,0,0,0,1.115-1.115V278.12A1.116,1.116,0,0,0,584.665,277Z" transform="translate(-565.708 -277.005)"/><path class="t" d="M575.744,279.275H565.708v4.564a11.471,11.471,0,0,0,5.765,9.935,1.122,1.122,0,0,0,.553.147h7.435a1.115,1.115,0,0,0,.553-.147,11.473,11.473,0,0,0,5.767-9.935v-4.564Z" transform="translate(-565.708 -273.699)"/></g><g transform="translate(0 17.992)"><path class="bv" d="M594.76,293.478H562.829a.559.559,0,0,1-.482-.28.553.553,0,0,1,0-.555l.842-1.474a4.336,4.336,0,0,0,0-4.306l-.842-1.474a.557.557,0,0,1,.484-.833H594.76a4.461,4.461,0,0,1,0,8.921Z" transform="translate(-561.714 -283.999)"/><path class="bx" d="M595.091,284.33H563.16a1.115,1.115,0,1,0,0,2.23h31.931a2.788,2.788,0,1,1,0,5.576H563.16a1.115,1.115,0,1,0,0,2.23h31.931a5.018,5.018,0,1,0,0-10.036Z" transform="translate(-562.045 -284.33)"/><path class="bw" d="M587.151,288.149H566.187a1.115,1.115,0,0,1,0-2.23h20.964a1.115,1.115,0,1,1,0,2.23Z" transform="translate(-557.637 -282.016)"/></g><g transform="translate(19.033 21.895)"><path class="by" d="M580.275,290.005H569.794v2.23h10.481a1.115,1.115,0,1,0,0-2.23Z" transform="translate(-569.794 -279.969)"/><path class="by" d="M581.39,287.034a1.114,1.114,0,0,0-1.115-1.115H569.794v2.23h10.481A1.116,1.116,0,0,0,581.39,287.034Z" transform="translate(-569.794 -285.919)"/></g></g><rect class="ac" width="18.638" height="4.122" transform="translate(646.398 382.534) rotate(90)"/><g transform="translate(433.182 383.435)"><path class="an" d="M350.315,260.57a6.648,6.648,0,0,1,9.422-6.873c5.986,2.817,12.6,6.742,14.6,11.021,3.915,8.371,12.527,44.792,11.856,58.331,0,0-7.322,1.953-12.541-.28s-22.784-57.918-22.784-57.918Z" transform="translate(-200.337 -142.327)"/><path class="an" d="M356.156,239.452s-15.727.567-21.576,7.538-12.868,56.781-16.766,66.991-8.577,46.067-8.577,47.44l6.313,1.24s17.486-37.006,19.038-45.146,20.554-48.55,20.411-51.35S356.156,239.452,356.156,239.452Z" transform="translate(-260.07 -162.135)"/><g transform="translate(113.708 5.195)"><path class="bz" d="M353.364,239.272c.278-.823.523-1.555.72-2.088,3.313-9.046,4.345-23.219-6.283-26.576-12.755-4.023-11.336,16.506-11.765,22.249-.494,6.634-1.4,9.2,1.621,15.27,1.13,2.279,2.363,4.348,5.057,3.989C345.7,251.715,352.021,243.221,353.364,239.272Z" transform="translate(-335.514 -210.089)"/></g><g transform="translate(101.874 40.155)"><path class="an" d="M353.723,225.277l-21.841-.955L330.7,255.253l21.85.955Z" transform="translate(-330.696 -224.322)"/></g><g transform="translate(102.028 40.155)"><path class="ca" d="M346.308,240.025a29.148,29.148,0,0,0,3.8-14.9l-18.321-.8-1.032,23.619C336.547,247.31,343.756,244.822,346.308,240.025Z" transform="translate(-330.758 -224.322)"/></g><path class="cb" d="M365.723,234.413c-.275-2.284-2.852-5.632-5.389-4.534a3.508,3.508,0,0,0-.319.2,27.873,27.873,0,0,0-4.036-11.11c-5.62-8.774-18.324-9.547-24.118-.761-5.278,8-6.322,21.057-2.739,30.123a22.191,22.191,0,0,0,7.622,10.233c4.468,3.1,8.84,1.351,12.942-1.683a28.669,28.669,0,0,0,9.393-13.649c.108-.356.172-.727.268-1.088a2.834,2.834,0,0,0,3.132-.238C364.854,240.494,366.062,237.186,365.723,234.413Z" transform="translate(-234.177 -202.123)"/><g transform="translate(57.29 72.493)"><path class="cc" d="M358.429,249.234l-9.4,55.636c-8.506-2.621-27.758-5.065-36.485-9.633,7.72-27.122,14.064-46.361,14.064-46.361s4.3-13.234,19.389-11.169C346,237.707,357.962,238.348,358.429,249.234Z" transform="translate(-312.544 -237.488)"/></g><g transform="translate(0 177.883)"><g transform="translate(112.445 33.145)"><path class="cd" d="M362.192,315.172a28.2,28.2,0,0,1-27.168-20.529.585.585,0,0,1,.405-.727.572.572,0,0,1,.722.4,27.1,27.1,0,0,0,26.987,19.662.594.594,0,0,1,.044,1.186C362.85,315.165,362.519,315.172,362.192,315.172Z" transform="translate(-334.999 -293.889)"/></g><g transform="translate(59.5)"><path class="ce" d="M403.956,332.966c1.619-6.317.174-22.949-.162-24.643L400.464,280.4H326.126l-7.8,30.167-4.883,22.4Z" transform="translate(-313.444 -280.395)"/></g><g transform="translate(50.304 30.168)"><path class="h" d="M309.754,383.125s-3.058,21.261,40.734-4.22c0,0,20.451-46.848,25-80.366l-51.731-4.753.022-1.11S308.686,356.436,309.754,383.125Z" transform="translate(-309.7 -292.677)"/></g><g transform="translate(0 85.425)"><g transform="translate(0 140.126)"><g transform="translate(27.761 0)"><g transform="translate(0)"><g transform="translate(0)"><rect class="cf" width="26.789" height="11.766" transform="translate(0 26.183) rotate(-77.786)"/></g></g></g><g transform="translate(0 14.089)"><g class="cg" transform="translate(0.418)"><path class="ab" d="M330.193,396.784l-40.8-8.828a6.673,6.673,0,0,1,5.495-4.905l12.524-1.034,12-4.058,3.606,2.807s.838.022-.4,1.813c0,0,4.846,2.147,7.46,1.614l.02,13.047" transform="translate(-289.39 -377.959)"/></g><g transform="translate(0 9.996)"><path class="ch" d="M330.034,392.749l-40.814-8.828.419-1.892,40.8,8.828Z" transform="translate(-289.22 -382.029)"/></g><g transform="translate(14.647 4.349)"><path class="i" d="M295.249,379.9a2.9,2.9,0,0,1,.884,1.348,5.183,5.183,0,0,1,.29,2.044c0,.13.194.167.287.187a.951.951,0,0,0,.165.022c.1.01.467.01.467-.174,0-.086-.091-.152-.147-.209a.306.306,0,0,0-.366,0c-.079.044-.167.079-.206.167.206-.037.405-.059.612-.078a1.694,1.694,0,0,0-.219-.089,1.754,1.754,0,0,0,.187.174c.054-1.142-.317-3.382-1.739-3.566-.1-.007-.415.054-.214.174Z" transform="translate(-295.183 -379.73)"/></g><g transform="translate(18.903 3.76)"><path class="i" d="M296.916,379.613a6.728,6.728,0,0,0,.432,1.653c.233.641.351,1.294.558,1.945.061.194.614.152.653-.044.2-1.226-.889-2.4-1.152-3.554-.039-.165-.5-.165-.491,0Z" transform="translate(-296.916 -379.49)"/></g><g transform="translate(22.098 2.974)"><path class="i" d="M298.225,379.3a8.744,8.744,0,0,1,.973,3.719c.012.339.963.26.838-.066a.551.551,0,0,0-.165-.27.271.271,0,0,0-.346-.034,1.285,1.285,0,0,0-.27.26c.27.044.533.066.793.11a6.75,6.75,0,0,0-1.4-3.77c-.071-.111-.494-.1-.42.052Z" transform="translate(-298.217 -379.17)"/></g><g transform="translate(26.054 1.31)"><path class="i" d="M299.829,378.629c.133.555.2,1.108.354,1.653a4.54,4.54,0,0,1,.341,2.021c-.044.292.636.219.757.167l.044-.034c.066-.022.13-.088.088-.152l-.066-.133c-.052-.086-.236-.074-.317-.044.042.022.091.037.143.059a1.805,1.805,0,0,1,.241.118,1.634,1.634,0,0,0,.047-.5,2.1,2.1,0,0,0-.061-.486,4.211,4.211,0,0,0-.233-.737c-.258-.656-.494-1.331-.8-1.972-.061-.13-.572-.13-.533.044Z" transform="translate(-299.827 -378.492)"/></g></g></g><g transform="translate(28.896)"><path class="h" d="M363.181,346.145c-1.9-22.435-29.374-30.971-29.374-30.971-10.306.108-11.972,25.555-11.972,25.555S295.566,443.954,302,461.494c0,0,6.34,7.288,16.1,6.467C318.1,467.962,362.454,378.619,363.181,346.145Z" transform="translate(-300.984 -315.174)"/></g></g><g transform="translate(97.905 20.085)"><path class="h" d="M376.427,381.238c-32.231,23.13-39.307,7.135-39.307,7.135-10.613-31.55-7.663-95.97-7.663-95.97s47.619-15.639,52.271,16.277C381.727,308.681,383.341,344.407,376.427,381.238Z" transform="translate(-329.08 -288.572)"/></g><g transform="translate(104.071 95.721)"><g transform="translate(19.543 125.423)"><g transform="translate(20.966 0)"><g transform="translate(0)"><g transform="translate(0)"><rect class="ci" width="11.773" height="26.784" transform="matrix(0.982, -0.188, 0.188, 0.982, 0, 2.218)"/></g></g></g><g transform="translate(0 16.355)"><g class="cg"><path class="ab" d="M380.584,390.171l-41.009,7.872a6.705,6.705,0,0,1,3.139-6.664l11.129-5.866,9.439-8.427,4.416,1.164s.774-.3.349,1.827c0,0,5.291.074,7.484-1.434l5.143,11.979" transform="translate(-339.546 -377.087)"/></g><g transform="translate(0.028 13.084)"><path class="ch" d="M380.939,384.328l-41.01,7.86-.371-1.9,41.01-7.873Z" transform="translate(-339.558 -382.414)"/></g><g transform="translate(10.952 10.054)"><path class="i" d="M344.15,381.425a2.628,2.628,0,0,1,1.484,1.054A5.7,5.7,0,0,1,346.5,384c.052.152.354.164.479.142.079-.022.162-.034.246-.064s.221-.088.16-.211c-.042-.086-.152-.13-.231-.182a.31.31,0,0,0-.339.022.335.335,0,0,0-.145.216c.118-.056.246-.12.363-.187a2.191,2.191,0,0,0-.263.022c.157.057.319.089.479.145a5.233,5.233,0,0,0-1.435-2.09,1.9,1.9,0,0,0-1.7-.587c-.174.044-.1.174.044.2Z" transform="translate(-344.005 -381.18)"/></g><g transform="translate(14.627 7.881)"><path class="i" d="M345.51,380.441a7.037,7.037,0,0,0,.955,1.231c.187.2.388.408.584.619.283.327.474.693.744,1.01.093.11.7.206.658-.042a2.914,2.914,0,0,0-1.007-1.4,12.961,12.961,0,0,1-1.459-1.479c-.088-.12-.555-.108-.476.066Z" transform="translate(-345.501 -380.296)"/></g><g transform="translate(17.254 5.908)"><path class="i" d="M346.606,379.642a8.522,8.522,0,0,1,2.336,2.982c.135.292.98.108.815-.111a1.217,1.217,0,0,0-.31-.3.253.253,0,0,0-.332.022.6.6,0,0,0-.174.282h.815a7.063,7.063,0,0,0-2.812-3c-.091-.052-.494.022-.339.133Z" transform="translate(-346.571 -379.492)"/></g><g transform="translate(20.242 2.821)"><path class="i" d="M347.806,378.384a13.274,13.274,0,0,0,1.073,1.447,3.55,3.55,0,0,1,.99,1.567c.069.26.788.327.867.052l.012-.032c.022-.057.022-.1-.034-.13a.459.459,0,0,0-.1-.108c-.057-.088-.3-.111-.366,0,.1.007.192.022.287.022.064.064.143.13.219.2a3.292,3.292,0,0,0-.82-1.457c-.528-.558-1.059-1.157-1.636-1.665-.1-.079-.621-.044-.5.108Z" transform="translate(-347.787 -378.235)"/></g></g></g><path class="h" d="M372.84,457.194c-17.646-11.255-41.25-120.11-41.25-120.11s4.866-18.64,19.038-17.682c0,0,20.438,2.739,25.115,25.827,0,0,17.422,72.818,11.679,110.457C387.423,455.685,380.366,459.448,372.84,457.194Z" transform="translate(-331.59 -319.366)"/></g></g><g transform="translate(61.721 64.741)"><path class="cc" d="M324.539,308.817c-.808,12.689-2.474,22.455-3.274,35.131-.467,7.482-7.482,29.266-6.88,43.262,0,0,25.452,19.989,94.781,5.807-.457-2.935-3.016-20.618-3.2-23.6q-.77-13.131-1.552-26.27c-.693-11.584.332-24.906-2.166-36.259l6.6-47.022c1.992-9.373-6.263-14.976-6.263-14.976l-26.115-9.953c-11.046,8.169-21.971-.607-21.971-.607l-20.46,7.84a20.99,20.99,0,0,0-9.547,17.171l.044,49.474" transform="translate(-314.348 -234.332)"/></g><g transform="translate(89.397)"><g transform="translate(0 9.87)"><path class="ab" d="M338.258,212.2c4.615-1.122,3.134,2.567,1.808,6.961l-6.448,2.859c-4.559,3.036-2.4,5.7-3.112,10.407-.287,1.928-1.024,3.807-1.422,5.689-1.228-1.977-3.242-11.387-3.3-13.635,0,0-1.616-9.759,5.057-11.78A29.629,29.629,0,0,1,338.258,212.2Z" transform="translate(-325.616 -211.992)"/></g><g transform="translate(1.193)"><path class="ab" d="M365.1,234.413c.152,1.282-.01,3.092.445,4.308-.523-1.412-2.638-3.849-4.674-1.71-.845.9-1.159,5.07-1.525,6.2-.5,1.5-.847.958-2.171,1.076-.477-4.306-.2-16.626-4.809-16.7-1.267-.022-2.989.845-4.249,1.12a41.242,41.242,0,0,1-9.479,1.108c-8.339-.133-12.443-4.264-12.534-12.539-.052-3.871,2.9-9.233,7.624-8.083,3.589.882,5.89,5.472,10.233,4.46,3.4-.793,6.094-5.807,9.658-5.676,2.692.1,1.425,1.653,2.414,3.306.749,1.25,3.056,1.513,4.281,1.773,2.616.567,7.324.815,6.691,4.817-.388,2.469-2.174,4.1-3.073,6.231C362.85,226.649,364.719,231.446,365.1,234.413Z" transform="translate(-326.102 -207.974)"/></g></g><g transform="translate(130.394 74.602)"><path class="cc" d="M388.6,283.643l-19.033-36.672s-3.365-6.173-7.7-7.926c0,0-21.372-6.875-19.444,22.5l15.845,38.04A89.108,89.108,0,0,0,388.6,283.643Z" transform="translate(-342.307 -238.346)"/></g><path class="an" d="M400.9,291.022s-25.582,9.759-60.745,5.47v-7.278s37.892-7.538,45.3-14.168C385.46,275.047,398.8,280.615,400.9,291.022Z" transform="translate(-215.043 -110.3)"/><g transform="translate(96.206 156.357)"><g transform="translate(0 0)"><g transform="translate(0.287 1.242)"><path class="m" d="M329.009,283.328c2.184-8.138,10.8-12.893,19.257-10.626a16.294,16.294,0,0,1,5.758,2.844l3.331,2.414-.408.521a15.013,15.013,0,0,1,2.672,13.055c-2.181,8.135-10.8,12.893-19.254,10.626q-.8-.214-1.547-.5l-.388.494-3.773-2.8,0,0A15.257,15.257,0,0,1,329.009,283.328Z" transform="translate(-328.504 -272.137)"/></g><ellipse class="k" cx="15.251" cy="15.845" rx="15.251" ry="15.845" transform="matrix(0.259, -0.966, 0.966, 0.259, 0, 29.461)"/><path class="m" d="M335.037,281a3.538,3.538,0,0,1,4.743-2.734c.963.354,26.439,16.3,26.439,16.3l-5.45,6.75-24.722-17.651A2.933,2.933,0,0,1,335.037,281Z" transform="translate(-318.727 -262.302)"/></g><path class="cj" d="M340.318,293.253c-.128-.388-7.6-6.106-4.222-12.679,1.547-3.014,4.534-2.832,6.067-1.461,1.167,1.046.734,3.959.3,5.239C341.743,286.477,340.318,293.253,340.318,293.253Z" transform="translate(-318.44 -262.119)"/><g transform="translate(19.695 14.854)"><path class="m" d="M336.956,289.853c2.373-8.85,11.751-14.025,20.947-11.559a17.772,17.772,0,0,1,6.263,3.095l3.623,2.628-.442.565a16.336,16.336,0,0,1,2.906,14.2c-2.373,8.85-11.751,14.025-20.947,11.559-.575-.155-1.137-.334-1.682-.54l-.42.538L343.1,307.3l0,0A16.593,16.593,0,0,1,336.956,289.853Z" transform="translate(-336.406 -277.679)"/><path class="k" d="M371.653,299.8c2.373-8.85-3.156-18.024-12.352-20.49s-18.574,2.709-20.947,11.559,3.156,18.024,12.352,20.49S369.28,308.651,371.653,299.8Z" transform="translate(-334.37 -276.196)"/><g transform="translate(14.992 13.048)"><path class="m" d="M342.688,286.944a5.5,5.5,0,0,1,6.8-3.753,5.78,5.78,0,0,1,2.034,1l1.177.855-.142.182a5.318,5.318,0,0,1,.943,4.613,5.5,5.5,0,0,1-6.8,3.751c-.187-.049-.368-.108-.548-.174l-.135.174-1.334-.987,0,0A5.387,5.387,0,0,1,342.688,286.944Z" transform="translate(-342.51 -282.991)"/></g><path class="u" d="M353.954,290.173a5.6,5.6,0,1,0-6.8,3.753A5.492,5.492,0,0,0,353.954,290.173Z" transform="translate(-326.857 -269.461)"/></g></g><g transform="translate(32.582 183.141)"><g transform="translate(17.045)"><path class="m" d="M340.912,295.341c-1.309-8.322-9.38-13.964-18.024-12.6a16.308,16.308,0,0,0-6.028,2.22l-3.566,2.051.349.56a15.013,15.013,0,0,0-4.038,12.7c1.312,8.322,9.38,13.964,18.024,12.6q.814-.129,1.592-.332l.334.533,4.048-2.383,0,0A15.252,15.252,0,0,0,340.912,295.341Z" transform="translate(-309.425 -282.536)"/></g><path class="k" d="M308.228,301.061c-1.309-8.319,4.637-16.167,13.283-17.528s16.712,4.281,18.024,12.6-4.637,16.169-13.283,17.53S309.537,309.383,308.228,301.061Z" transform="translate(-294.385 -281.378)"/><path class="m" d="M334.922,291.6a3.536,3.536,0,0,0-4.426-3.22c-.995.251-28.011,13.411-28.011,13.411l4.706,7.288,26.446-14.936A2.936,2.936,0,0,0,334.922,291.6Z" transform="translate(-302.485 -274.199)"/></g><path class="an" d="M308.925,298.2c.408-.059,8.882,4.028,13.222-1.953,1.99-2.741.479-5.325-1.435-6.072-1.459-.57-3.866,1.13-4.809,2.1C314.331,293.876,308.925,298.2,308.925,298.2Z" transform="translate(-260.524 -88.429)"/><g transform="translate(22.296 194.476)"><g transform="translate(3.68)"><path class="m" d="M334.049,301.079c-1.425-9.051-10.2-15.189-19.608-13.708a17.716,17.716,0,0,0-6.556,2.414L304,292.016l.381.609a16.336,16.336,0,0,0-4.394,13.814c1.425,9.051,10.2,15.189,19.608,13.708a17.305,17.305,0,0,0,1.732-.359l.361.58,4.4-2.591,0,0A16.593,16.593,0,0,0,334.049,301.079Z" transform="translate(-299.795 -287.15)"/></g><path class="k" d="M298.494,307.3c-1.425-9.051,5.045-17.587,14.45-19.068s18.181,4.657,19.606,13.708-5.043,17.589-14.448,19.07S299.918,316.356,298.494,307.3Z" transform="translate(-298.297 -285.892)"/><g transform="translate(11.763 12.659)"><path class="m" d="M314.205,296.826a5.494,5.494,0,0,0-6.364-4.451,5.789,5.789,0,0,0-2.13.784l-1.26.725.125.2a5.3,5.3,0,0,0-1.427,4.485,5.5,5.5,0,0,0,6.367,4.451,5.33,5.33,0,0,0,.563-.118l.115.189,1.43-.842h0A5.385,5.385,0,0,0,314.205,296.826Z" transform="translate(-303.086 -292.304)"/></g><path class="u" d="M302.664,298.846a5.6,5.6,0,1,1,6.364,4.451A5.491,5.491,0,0,1,302.664,298.846Z" transform="translate(-292.031 -279.236)"/></g></g><circle class="h" cx="2.091" cy="2.091" r="2.091" transform="translate(557.911 417.334)"/><path class="ck" d="M372.98,223.478s10.355,9.628,7.74,19.991-6.052,6.806-9.83,19.245S359.9,270.827,363,283.533c4.551,18.663-44.207,86.956-44.207,86.956" transform="translate(187.021 198.038)"/><path class="ck" d="M329.4,222.626s-6.585,14.025-2.854,21.094,9.167,9.361,11.289,22.737c2.5,15.8,14.688,24.2,12.087,35.819" transform="translate(196.649 196.797)"/><g transform="translate(229.288 597.23)"><path class="cl" d="M303.255,327.841h0a8.432,8.432,0,0,0-7.285-8.354V308.751a13.737,13.737,0,0,0-13.738-13.735H226.915a13.737,13.737,0,0,0-13.735,13.735v10.788a8.432,8.432,0,0,0-6.971,8.3h0a8.434,8.434,0,0,0,6.971,8.3V392.4a8.434,8.434,0,0,0-6.971,8.3h0a8.437,8.437,0,0,0,6.971,8.3v1.24a13.736,13.736,0,0,0,13.735,13.735h10.933a3.575,3.575,0,0,1,3.574,3.576v3.92h26.3v-3.92a3.576,3.576,0,0,1,3.574-3.576h10.933a13.737,13.737,0,0,0,13.738-13.735v-1.191a8.432,8.432,0,0,0,7.285-8.354h0a8.432,8.432,0,0,0-7.285-8.351V336.192A8.43,8.43,0,0,0,303.255,327.841Z" transform="translate(-206.209 -295.016)"/><rect class="h" width="43.555" height="17.543" rx="3.159" transform="translate(26.746 134.059)"/><g class="cm" transform="translate(6.97 41.127)"><path class="cn" d="M209.047,311.76l56.376.716-56.376.716Z" transform="translate(-209.047 -311.76)"/></g><g class="cm" transform="translate(33.38 23.042)"><path class="cn" d="M276.175,304.4l-56.376.716,56.376.716Z" transform="translate(-219.799 -304.397)"/></g><g class="cm" transform="translate(6.97 113.979)"><path class="cn" d="M209.047,341.42l56.376.716-56.376.716Z" transform="translate(-209.047 -341.42)"/></g><g class="cm" transform="translate(33.38 95.893)"><path class="cn" d="M276.175,334.057l-56.376.716,56.376.716Z" transform="translate(-219.799 -334.057)"/></g><rect class="j" width="93.545" height="187.09" rx="3.757" transform="translate(1.751 142.551)"/><path class="h" d="M10.147,0H46.209A10.147,10.147,0,0,1,56.355,10.147v50.13a0,0,0,0,1,0,0H0a0,0,0,0,1,0,0V10.147A10.147,10.147,0,0,1,10.147,0Z" transform="translate(20.346 166.001)"/><path class="co" d="M8.442,0h30a8.442,8.442,0,0,1,8.442,8.442V55.966a0,0,0,0,1,0,0H0a0,0,0,0,1,0,0V8.442A8.442,8.442,0,0,1,8.442,0Z" transform="translate(25.08 170.312)"/><rect class="h" width="68.568" height="3.978" rx="0.716" transform="translate(14.638 226.278)"/><g transform="translate(6.374 146.576)"><path class="co" d="M282.245,533.731H219.661A10.872,10.872,0,0,1,208.8,522.872V365.55a10.87,10.87,0,0,1,10.857-10.859h62.585A10.871,10.871,0,0,1,293.1,365.55V522.872A10.872,10.872,0,0,1,282.245,533.731ZM219.661,355.408a10.152,10.152,0,0,0-10.142,10.142V522.872a10.152,10.152,0,0,0,10.142,10.142h62.585a10.154,10.154,0,0,0,10.144-10.142V365.55a10.155,10.155,0,0,0-10.144-10.142Z" transform="translate(-208.804 -354.691)"/></g><g transform="translate(19.869 274.325)"><path class="co" d="M266.213,434.176H219.694a5.4,5.4,0,0,1-5.4-5.4V412.095a5.4,5.4,0,0,1,5.4-5.394h46.519a5.4,5.4,0,0,1,5.4,5.394V428.78A5.4,5.4,0,0,1,266.213,434.176Zm-46.519-26.522a4.446,4.446,0,0,0-4.441,4.441V428.78a4.446,4.446,0,0,0,4.441,4.441h46.519a4.446,4.446,0,0,0,4.441-4.441V412.095a4.446,4.446,0,0,0-4.441-4.441Z" transform="translate(-214.298 -406.701)"/></g><g transform="translate(32.084 185.824)"><path class="i" d="M224.983,381.6h-.413l1.076-9.749a1.064,1.064,0,0,0-1.059-1.181h-3.846a1.064,1.064,0,0,0-1.059,1.181l1.076,9.749h-.41a.8.8,0,0,0-.8.8v2.663a.8.8,0,0,0,.8.8h4.635a.8.8,0,0,0,.8-.8V382.4A.8.8,0,0,0,224.983,381.6Z" transform="translate(-218.862 -370.67)"/><rect class="m" width="7.67" height="1.63" rx="0.293" transform="translate(0 12.32)"/><path class="i" d="M235.246,381.6h-.41l1.076-9.749a1.066,1.066,0,0,0-1.061-1.181h-3.844a1.066,1.066,0,0,0-1.061,1.181l1.078,9.749h-.413a.8.8,0,0,0-.8.8v2.663a.8.8,0,0,0,.8.8h4.635a.8.8,0,0,0,.8-.8V382.4A.8.8,0,0,0,235.246,381.6Z" transform="translate(-203.917 -370.67)"/><rect class="cn" width="7.67" height="1.63" rx="0.293" transform="translate(25.21 12.32)"/></g><g transform="translate(52.086 206.116)"><path class="cp" d="M237.692,379.034h-9.773l3.36,19.954H240.1l3.36-19.954Z" transform="translate(-226.68 -378.783)"/><rect class="cn" width="18.02" height="2.131" rx="0.384"/><path class="cq" d="M230.124,381.076a6.172,6.172,0,0,0-1.842.28l2.024,12.018a6.151,6.151,0,0,0-.182-12.3Z" transform="translate(-226.151 -375.808)"/></g><path class="cr" d="M292.929,327.841h0a8.432,8.432,0,0,0-7.285-8.354V308.751a13.737,13.737,0,0,0-13.738-13.735h-9.8c-4.468,38.831-16.484,97.569-48.81,128.569a13.825,13.825,0,0,0,3.289.4h10.933a3.575,3.575,0,0,1,3.574,3.576v3.92h26.3v-3.92a3.576,3.576,0,0,1,3.574-3.576h10.933a13.737,13.737,0,0,0,13.738-13.735v-1.191a8.432,8.432,0,0,0,7.285-8.354h0a8.432,8.432,0,0,0-7.285-8.351V336.192A8.43,8.43,0,0,0,292.929,327.841Z" transform="translate(-195.883 -295.016)"/><ellipse class="cs" cx="41.397" cy="2.51" rx="41.397" ry="2.51" transform="translate(6.97 64.232)"/><path class="cr" d="M295.97,352.783V322.205c-.138,1.378-18.616,2.493-41.4,2.493-22.863,0-41.395-1.122-41.395-2.51v30.644a8.431,8.431,0,0,0,0,16.607v1.24a13.735,13.735,0,0,0,13.735,13.735h10.933a3.575,3.575,0,0,1,3.574,3.576v3.92h26.3v-3.92a3.576,3.576,0,0,1,3.574-3.576h10.933a13.735,13.735,0,0,0,13.738-13.735v-1.191a8.431,8.431,0,0,0,0-16.7Z" transform="translate(-206.209 -255.447)"/></g></g><g class="ct" transform="translate(346 217)"><rect class="cu" width="97" height="38"/><rect class="at" x="0.5" y="0.5" width="96" height="37"/></g><g class="ct" transform="translate(308 255)"><rect class="cu" width="97" height="38"/><rect class="at" x="0.5" y="0.5" width="96" height="37"/></g><g class="ct" transform="translate(754 146)"><rect class="cu" width="97" height="38"/><rect class="at" x="0.5" y="0.5" width="96" height="37"/></g><g class="ct" transform="translate(888 369)"><rect class="cu" width="97" height="38"/><rect class="at" x="0.5" y="0.5" width="96" height="37"/></g><g class="ct" transform="translate(1561 215)"><rect class="cu" width="97" height="38"/><rect class="at" x="0.5" y="0.5" width="96" height="37"/></g></svg>