<svg id="Capa_1" data-name="Capa 1" xmlns="http://www.w3.org/2000/svg" xmlns:xlink="http://www.w3.org/1999/xlink" viewBox="0 0 141 117"><defs><style>.cls-1,.cls-13{fill:none;}.cls-2{opacity:0.25;}.cls-3{fill:#d9eaff;}.cls-4{fill:#aee6ff;}.cls-5{fill:#8fd3f9;}.cls-6{fill:#0033a0;}.cls-20,.cls-7{fill:#f6f6f5;}.cls-7{stroke:#00aec7;stroke-width:5px;}.cls-13,.cls-7{stroke-linecap:round;stroke-linejoin:round;}.cls-8{fill:#b3e6ee;}.cls-9{fill:#fff;}.cls-10{fill:#e6e6e6;}.cls-11{fill:#19648e;}.cls-12{fill:#5cb6ff;}.cls-13{stroke:#0033a0;stroke-width:6px;}.cls-14{fill:#edb056;}.cls-15{fill:#ffd6a4;}.cls-16{clip-path:url(#clip-path);}.cls-17{fill:#9acc79;}.cls-18{fill:#bfe89e;}.cls-19{fill:#77d0f7;}.cls-21{fill:#97d5ff;}</style><clipPath id="clip-path"><polygon class="cls-1" points="104.11 38.72 38.09 38.72 40.32 33.95 40.78 32.97 43 28.22 43.46 27.25 45.38 23.15 45.61 22.66 46.03 21.76 46.35 21.07 47.98 17.6 62.59 17.6 62.59 29.95 79.6 29.95 79.6 17.6 94.22 17.6 96.06 21.53 96.17 21.76 96.62 22.73 97.03 23.61 98.73 27.25 99.19 28.22 101.42 32.97 101.87 33.95 104.11 38.72"/></clipPath></defs><g class="cls-2"><ellipse class="cls-3" cx="52.84" cy="76.87" rx="34.51" ry="34.47"/><ellipse class="cls-3" cx="89.57" cy="57.78" rx="34.51" ry="34.47"/></g><polygon class="cls-4" points="79.6 10.27 79.6 29.95 62.59 29.95 62.59 10.27 69.64 4.03 71.1 2.73 79.6 10.27"/><polygon class="cls-5" points="76.68 10.27 76.68 29.95 62.59 29.95 62.59 10.27 69.64 4.03 76.68 10.27"/><path class="cls-6" d="M79.6,30.68h-17a.73.73,0,0,1-.73-.73V10.27a.73.73,0,0,1,.25-.55l8.5-7.54a.74.74,0,0,1,1,0l8.51,7.54a.76.76,0,0,1,.24.55V30A.72.72,0,0,1,79.6,30.68ZM63.32,29.22H78.87V10.6L71.1,3.71,63.32,10.6Z"/><circle class="cls-7" cx="70.62" cy="12.23" r="2.14"/><rect class="cls-8" x="38.09" y="38.72" width="66.02" height="73.7"/><rect class="cls-9" x="38.09" y="38.72" width="61.4" height="73.7"/><path class="cls-6" d="M104.11,113.16h-66a.74.74,0,0,1-.74-.74V38.72a.74.74,0,0,1,.74-.73h66a.73.73,0,0,1,.73.73v73.7A.74.74,0,0,1,104.11,113.16Zm-65.29-1.47h64.56V39.45H38.82Z"/><rect class="cls-9" x="79.38" y="81.33" width="19.02" height="31.09"/><rect class="cls-10" x="79.38" y="81.33" width="16.92" height="31.09"/><path class="cls-6" d="M98.4,113h-19a.61.61,0,0,1-.61-.61V81.33a.62.62,0,0,1,.61-.61h19a.62.62,0,0,1,.61.61v31.09A.61.61,0,0,1,98.4,113ZM80,111.82h17.8V81.94H80Z"/><circle class="cls-11" cx="82.99" cy="97.18" r="1.35"/><polygon class="cls-8" points="104.11 38.72 38.09 38.72 40.32 33.95 40.78 32.97 43 28.22 43.46 27.25 45.38 23.15 45.61 22.66 46.03 21.76 46.35 21.07 47.98 17.6 62.59 17.6 62.59 29.95 79.6 29.95 79.6 17.6 94.22 17.6 96.06 21.53 96.17 21.76 96.62 22.73 97.03 23.61 98.73 27.25 99.19 28.22 101.42 32.97 101.87 33.95 104.11 38.72"/><polygon class="cls-12" points="99.48 38.72 38.09 38.72 40.32 33.95 40.78 32.97 43 28.22 43.46 27.25 45.38 23.15 45.61 22.66 46.03 21.76 46.35 21.07 47.98 17.6 61.95 17.6 61.95 29.95 80.22 29.95 80.22 17.6 89.59 17.6 91.43 21.53 91.54 21.76 91.99 22.73 92.4 23.61 94.11 27.25 94.56 28.22 96.79 32.97 97.24 33.95 99.48 38.72"/><path class="cls-6" d="M104.77,38.41l-.72-1.54-.46-1L97,21.75,96.64,21l-1.76-3.76a.73.73,0,0,0-.66-.41H79.6a.73.73,0,0,0-.73.73V29.22H63.32V17.6a.72.72,0,0,0-.73-.73H48a.72.72,0,0,0-.66.41l-1.86,4v0l0,.1h0L38.6,35.89l-.46,1-.72,1.54a.74.74,0,0,0,.67,1h66a.75.75,0,0,0,.62-.34A.73.73,0,0,0,104.77,38.41ZM39.24,38l.52-1.12.46-1,.91-2,.69-1.46.45-1,1.54-3.29.34-.73.12-.25.34-.73.77-1.64,1-2.08,0-.05.34-.73.11-.25.35-.73,1.26-2.7H61.86V30a.73.73,0,0,0,.73.73h17a.72.72,0,0,0,.73-.73V18.33H93.75L95,21l.34.73.11.25.35.73.24.51,1,2.08.56,1.18.34.73.11.25.34.73,1.54,3.29.46,1,.69,1.46.91,2,.46,1L103,38Z"/><line class="cls-13" x1="9.32" y1="112.43" x2="123.84" y2="112.43"/><path class="cls-6" d="M115.27,113.16a.74.74,0,0,1-.73-.74V77.51a6.27,6.27,0,0,1,6.27-6.27H122a6.27,6.27,0,0,1,6.27,6.27V85a.73.73,0,1,1-1.46,0V77.51A4.82,4.82,0,0,0,122,72.7h-1.17A4.82,4.82,0,0,0,116,77.51v34.91A.74.74,0,0,1,115.27,113.16Z"/><path class="cls-14" d="M131.14,81.05V84.7a3.65,3.65,0,0,1-6.9,1.67,3.61,3.61,0,0,1-.4-1.67V81.05Z"/><path class="cls-15" d="M128.83,81.05v1.79a3.66,3.66,0,0,1-4.59,3.53,3.61,3.61,0,0,1-.4-1.67V81.05Z"/><path class="cls-6" d="M127.49,89.08a4.39,4.39,0,0,1-4.38-4.38V81.05a.72.72,0,0,1,.73-.73h7.3a.72.72,0,0,1,.73.73V84.7A4.39,4.39,0,0,1,127.49,89.08Zm-2.92-7.3V84.7a2.92,2.92,0,0,0,5.84,0V81.78Z"/><g class="cls-16"><path class="cls-6" d="M112.47,29.08a.24.24,0,0,0-.33-.1L99.86,35.53l-8-2.45,6.71-3.58,5.32,1.61h.07a.25.25,0,0,0,.07-.48l-4.85-1.47,8.47-4.51a.24.24,0,0,0-.23-.43L98.49,29l-7.6-2.3,6.45-3.44,5.48,1.68h.07a.24.24,0,0,0,.07-.48l-5-1.53,5.18-2.76a.25.25,0,0,0,.1-.33.25.25,0,0,0-.33-.1l-5.6,3L90.08,20.5,98.49,16a.24.24,0,0,0-.23-.43L89.42,20.3l-7.13-2.18,6.59-3.53,6.71,2.05h.07a.25.25,0,0,0,.07-.48l-6.24-1.9,6.32-3.38a.24.24,0,0,0,.1-.33.25.25,0,0,0-.33-.1l-6.75,3.61-7-2.13,8.84-4.7a.25.25,0,0,0,.1-.33.24.24,0,0,0-.33-.1l-9.27,4.93L74,9.55l5.72-3a.26.26,0,0,0,.1-.33.24.24,0,0,0-.33-.1L73.36,9.35,44.91.67a.25.25,0,0,0-.31.16.24.24,0,0,0,.16.3l28,8.54-6.61,3.52L44.91,6.7a.25.25,0,0,0-.31.16.24.24,0,0,0,.16.3l20.77,6.35L59,17,44.9,12.73a.24.24,0,0,0-.3.16.24.24,0,0,0,.16.3l13.62,4.13-6.62,3.53-6.85-2.09a.25.25,0,0,0-.31.16.24.24,0,0,0,.16.3l6.39,2-6.69,3.56-6.93-2.1a.24.24,0,0,0-.14.46l6.46,2-7,3.72L32.66,27.5a.23.23,0,0,0-.3.16.25.25,0,0,0,.16.31l3.74,1.13L32.6,31.05a.24.24,0,0,0-.1.33.23.23,0,0,0,.21.13.27.27,0,0,0,.12,0l4.09-2.18,7.16,2.17-7.21,3.84-3.24-1a.24.24,0,0,0-.3.16.25.25,0,0,0,.16.31L44,38l-2.92,1.56a.24.24,0,0,0-.1.33.26.26,0,0,0,.22.13.2.2,0,0,0,.11,0l3.35-1.79,7.12,2.18-6.43,3.44a.24.24,0,0,0-.1.33.23.23,0,0,0,.21.13l.12,0,6.86-3.67,7.14,2.19-10,5.31a.25.25,0,0,0-.1.33.23.23,0,0,0,.22.13l.11,0L60.28,43l7.57,2.32-13.69,7.3a.24.24,0,0,0-.1.33.24.24,0,0,0,.21.13.27.27,0,0,0,.12,0l14.12-7.53,8,2.46L58.91,57.36a.24.24,0,0,0,.11.46.27.27,0,0,0,.12,0l18-9.62,25.29,7.75h.07a.25.25,0,0,0,.07-.48l-24.83-7.6,7.34-3.92,17.35,5.27h.07a.25.25,0,0,0,.07-.48L85.74,43.61l6.94-3.7,14.39,4.38h.07a.24.24,0,0,0,.07-.48L93.29,39.59l6.62-3.54,8.62,2.64h.07a.25.25,0,0,0,.08-.48l-8.16-2.49,11.85-6.32A.24.24,0,0,0,112.47,29.08Zm-14.59.22-6.71,3.58-7.58-2.32L90.28,27ZM73.93,22l-6.64,3.55-7.06-2.16,6.65-3.53Zm-6.44-2.47L74,16.1l7,2.14-6.48,3.47Zm7.64,8.92,7.19,2.2-6.64,3.54L68.49,32Zm-7.3,3.35-7.14-2.17,6.65-3.56,7.14,2.18Zm7.91-3.67,6.66-3.56,7.22,2.18-6.69,3.57Zm-.66-.2L68,25.79l6.64-3.55,7.15,2.17Zm-8.4-2.06L60,29.47l-7.09-2.16,6.68-3.55Zm-7.26,3.88-7,3.72-7.12-2.16,7-3.71Zm.66.2,7.14,2.18-6.94,3.71-7.15-2.17Zm7.8,2.38,7.19,2.18-7,3.71-7.17-2.18Zm7.85,2.38,7.59,2.31-6.95,3.71-7.6-2.31Zm.6-.32L83,30.89l7.58,2.31-6.63,3.54ZM96.68,23l-6.45,3.44L83,24.28l6.46-3.45Zm-7.87-2.4-6.46,3.45L75.2,21.91l6.48-3.46Zm-.58-6.24-6.6,3.53-7-2.14,6.61-3.52ZM73.41,9.87l7.17,2.19L74,15.58,66.8,13.39Zm-7.22,3.84,7.17,2.19-6.53,3.47L59.65,17.2ZM59,17.52l7.18,2.18-6.65,3.53-7.15-2.18Zm-7.23,3.85L59,23.56l-6.69,3.55-7.16-2.18ZM37.53,29l7-3.72,7.16,2.18-7,3.71Zm0,6.53,7.22-3.84,7.12,2.17-7.21,3.85ZM45.3,37.9,52.52,34l7.15,2.17-7.24,3.87Zm7.78,2.38,7.25-3.87,7.18,2.17-7.28,3.89Zm7.8,2.39,7.29-3.89,7.6,2.31L68.46,45Zm16.25,5-8-2.46,7.31-3.9,8,2.44Zm8-4.24L77,41l7-3.71,8,2.45Zm7.55-4-8-2.45,6.63-3.54,8,2.45Z"/></g><rect class="cls-17" x="60.41" y="29.95" width="21.38" height="2.73"/><path class="cls-6" d="M81.79,33.42H60.41a.73.73,0,0,1-.73-.73V30a.73.73,0,0,1,.73-.73H81.79a.73.73,0,0,1,.73.73v2.74A.73.73,0,0,1,81.79,33.42ZM61.14,32H81.05V30.68H61.14Z"/><path class="cls-18" d="M29.91,82.24V92a9.06,9.06,0,0,1-9.06,9.06,8.45,8.45,0,0,1-1.34-.1,9.05,9.05,0,0,1-7.72-9V82.24a9.05,9.05,0,0,1,7.72-9,8.45,8.45,0,0,1,1.34-.1,9,9,0,0,1,9.06,9.06Z"/><path class="cls-17" d="M27.23,82.24V92a9.05,9.05,0,0,1-7.72,9,9.05,9.05,0,0,1-7.72-9V82.24a9.05,9.05,0,0,1,7.72-9,9,9,0,0,1,7.72,9Z"/><path class="cls-6" d="M20.85,101.78A9.8,9.8,0,0,1,11.06,92V82.24a9.79,9.79,0,1,1,19.58,0V92A9.8,9.8,0,0,1,20.85,101.78Zm0-27.87a8.33,8.33,0,0,0-8.33,8.33V92a8.33,8.33,0,1,0,16.66,0V82.24A8.34,8.34,0,0,0,20.85,73.91Z"/><path class="cls-6" d="M20.85,111.87a.73.73,0,0,1-.73-.73V80.85a.73.73,0,1,1,1.46,0v30.29A.73.73,0,0,1,20.85,111.87Z"/><path class="cls-6" d="M20.85,87a.74.74,0,0,1-.48-.18L16,83A.74.74,0,0,1,16,82a.75.75,0,0,1,1-.07l4.32,3.79a.74.74,0,0,1,.07,1A.76.76,0,0,1,20.85,87Z"/><path class="cls-6" d="M21.12,94.3a.74.74,0,0,1-.48-.18.72.72,0,0,1-.07-1l3.78-4.32a.73.73,0,1,1,1.1,1l-3.78,4.32A.73.73,0,0,1,21.12,94.3Z"/><rect class="cls-19" x="47.53" y="100.21" width="16.85" height="2.25"/><rect class="cls-20" x="49.5" y="80.96" width="13.42" height="16.11"/><path class="cls-6" d="M62.92,97.68H49.5a.61.61,0,0,1-.61-.61V81a.61.61,0,0,1,.61-.61H62.92a.61.61,0,0,1,.61.61V97.07A.61.61,0,0,1,62.92,97.68ZM50.11,96.46h12.2V81.57H50.11Z"/><rect class="cls-12" x="49.5" y="85.05" width="13.42" height="12.02"/><rect class="cls-21" x="60.28" y="85.05" width="2.64" height="12.02"/><path class="cls-6" d="M62.92,97.68H49.5a.61.61,0,0,1-.61-.61v-12a.61.61,0,0,1,.61-.61H62.92a.61.61,0,0,1,.61.61v12A.61.61,0,0,1,62.92,97.68ZM50.11,96.46h12.2V85.66H50.11Z"/><path class="cls-6" d="M62.92,89.47H49.5a.61.61,0,1,1,0-1.22H62.92a.61.61,0,0,1,0,1.22Z"/><rect class="cls-20" x="47.26" y="97.07" width="17.91" height="3.13"/><rect class="cls-10" x="60.28" y="97.07" width="4.88" height="3.13"/><path class="cls-6" d="M65.16,100.82H47.26a.61.61,0,0,1-.61-.61V97.07a.61.61,0,0,1,.61-.61h17.9a.61.61,0,0,1,.61.61v3.14A.61.61,0,0,1,65.16,100.82ZM47.87,99.6H64.55V97.68H47.87Z"/><rect class="cls-19" x="47.53" y="68.78" width="16.85" height="2.25"/><rect class="cls-20" x="49.5" y="49.53" width="13.42" height="16.11"/><path class="cls-6" d="M62.92,66.25H49.5a.61.61,0,0,1-.61-.61V49.53a.61.61,0,0,1,.61-.61H62.92a.61.61,0,0,1,.61.61V65.64A.61.61,0,0,1,62.92,66.25ZM50.11,65h12.2V50.14H50.11Z"/><path class="cls-6" d="M62.92,56.25H49.5a.61.61,0,0,1-.61-.61A.61.61,0,0,1,49.5,55H62.92a.61.61,0,0,1,.61.61A.61.61,0,0,1,62.92,56.25Z"/><path class="cls-6" d="M56.21,62a.61.61,0,0,1-.61-.61V49.53a.61.61,0,0,1,1.22,0V61.41A.61.61,0,0,1,56.21,62Z"/><rect class="cls-12" x="49.5" y="61.41" width="13.42" height="4.23"/><rect class="cls-21" x="59.7" y="61.53" width="2.64" height="4.11"/><path class="cls-6" d="M62.92,66.25H49.5a.61.61,0,0,1-.61-.61V61.41a.61.61,0,0,1,.61-.61H62.92a.61.61,0,0,1,.61.61v4.23A.61.61,0,0,1,62.92,66.25ZM50.11,65h12.2V62H50.11Z"/><rect class="cls-20" x="47.26" y="65.64" width="17.91" height="3.13"/><rect class="cls-10" x="59.7" y="65.64" width="5.46" height="3.13"/><path class="cls-6" d="M65.16,69.39H47.26a.61.61,0,0,1-.61-.61V65.64a.61.61,0,0,1,.61-.61h17.9a.61.61,0,0,1,.61.61v3.14A.61.61,0,0,1,65.16,69.39ZM47.87,68.17H64.55V66.25H47.87Z"/><rect class="cls-19" x="75.19" y="68.87" width="16.85" height="2.25"/><rect class="cls-20" x="77.15" y="49.62" width="13.42" height="16.11"/><path class="cls-6" d="M90.58,66.34H77.15a.61.61,0,0,1-.61-.61V49.62a.61.61,0,0,1,.61-.61H90.58a.61.61,0,0,1,.6.61V65.73A.6.6,0,0,1,90.58,66.34ZM77.76,65.12H90V50.23H77.76Z"/><path class="cls-6" d="M90.58,56.34H77.15a.61.61,0,0,1-.61-.61.61.61,0,0,1,.61-.61H90.58a.6.6,0,0,1,.6.61A.61.61,0,0,1,90.58,56.34Z"/><path class="cls-6" d="M83.86,62.11a.61.61,0,0,1-.61-.61V49.62a.62.62,0,0,1,.61-.61.61.61,0,0,1,.61.61V61.5A.61.61,0,0,1,83.86,62.11Z"/><rect class="cls-12" x="77.15" y="61.5" width="13.42" height="4.23"/><rect class="cls-21" x="87.35" y="61.62" width="2.64" height="4.11"/><path class="cls-6" d="M90.58,66.34H77.15a.61.61,0,0,1-.61-.61V61.5a.61.61,0,0,1,.61-.61H90.58a.61.61,0,0,1,.6.61v4.23A.6.6,0,0,1,90.58,66.34ZM77.76,65.12H90v-3H77.76Z"/><rect class="cls-20" x="74.91" y="65.73" width="17.91" height="3.13"/><rect class="cls-10" x="87.35" y="65.73" width="5.46" height="3.13"/><path class="cls-6" d="M92.82,69.48H74.91a.61.61,0,0,1-.61-.61V65.73a.61.61,0,0,1,.61-.61H92.82a.62.62,0,0,1,.61.61v3.14A.62.62,0,0,1,92.82,69.48Zm-17.3-1.22H92.21V66.34H75.52Z"/></svg>