<?xml version="1.0" standalone="no"?>
<!DOCTYPE svg PUBLIC "-//W3C//DTD SVG 20010904//EN"
 "http://www.w3.org/TR/2001/REC-SVG-20010904/DTD/svg10.dtd">
<svg version="1.0" xmlns="http://www.w3.org/2000/svg"
 width="500.000000pt" height="500.000000pt" viewBox="0 0 500.000000 500.000000"
 preserveAspectRatio="xMidYMid meet">
<metadata>
Created by potrace 1.11, written by Peter Selinger 2001-2013
</metadata>
<g transform="translate(0.000000,500.000000) scale(0.100000,-0.100000)"
fill="#000000" stroke="none">
<path d="M1812 3794 c6 -81 31 -137 83 -183 45 -39 108 -71 615 -309 223 -105
498 -235 613 -290 114 -56 207 -98 207 -94 -1 10 -1205 760 -1478 919 l-45 27
5 -70z"/>
<path d="M1750 3417 c0 -7 7 -37 16 -66 20 -67 86 -141 153 -169 26 -12 212
-64 412 -117 648 -171 1153 -307 1161 -311 5 -3 8 -1 8 3 0 9 -1717 673 -1739
673 -6 0 -11 -6 -11 -13z"/>
<path d="M1870 2960 c0 -23 50 -107 82 -136 78 -74 40 -69 875 -124 790 -52
799 -53 792 -46 -2 3 -387 72 -854 155 -468 83 -860 153 -872 156 -13 3 -23 1
-23 -5z"/>
<path d="M2833 2563 c-332 -2 -603 -6 -603 -9 0 -17 34 -65 69 -97 77 -70 56
-70 680 18 517 72 662 99 516 93 -33 -2 -331 -4 -662 -5z"/>
<path d="M3410 2445 c-25 -7 -229 -61 -455 -120 -225 -58 -411 -108 -413 -110
-6 -5 28 -65 49 -86 41 -41 63 -33 639 213 129 55 239 105 245 109 13 13 -11
10 -65 -6z"/>
<path d="M3315 2272 c-33 -21 -168 -103 -300 -181 -350 -209 -313 -181 -305
-236 8 -55 21 -70 53 -62 19 5 341 267 583 474 61 53 48 55 -31 5z"/>
<path d="M2935 1769 l-200 -170 -28 -81 c-15 -45 -24 -84 -21 -87 3 -3 16 6
27 20 18 21 321 358 416 462 59 65 -8 15 -194 -144z"/>
<path d="M2549 1670 c-24 -14 -191 -56 -356 -89 -205 -41 -400 -68 -588 -81
-88 -7 -162 -14 -164 -16 -2 -2 4 -12 13 -23 25 -28 105 -60 168 -67 110 -13
376 40 608 121 118 42 340 143 340 156 0 11 -1 11 -21 -1z"/>
<path d="M2555 1558 c-173 -111 -521 -231 -817 -282 -47 -9 -48 -18 -3 -39 74
-35 201 -31 330 10 149 47 405 195 489 282 45 46 45 57 1 29z"/>
<path d="M2500 1363 c-69 -55 -162 -108 -251 -143 -85 -33 -89 -37 -53 -50 69
-27 219 24 285 96 33 37 86 131 78 138 -2 2 -29 -17 -59 -41z"/>
<path d="M1400 526 c0 -3 9 -10 20 -16 11 -6 20 -8 20 -6 0 3 -9 10 -20 16
-11 6 -20 8 -20 6z"/>
<path d="M3604 514 c-18 -14 -18 -15 4 -4 12 6 22 13 22 15 0 8 -5 6 -26 -11z"/>
<path d="M1580 430 c19 -11 40 -19 45 -19 6 0 -6 8 -25 19 -19 11 -39 19 -45
19 -5 0 6 -8 25 -19z"/>
<path d="M3430 430 c-19 -11 -30 -19 -25 -19 6 0 26 8 45 19 19 11 31 19 25
19 -5 0 -26 -8 -45 -19z"/>
<path d="M1660 396 c14 -7 36 -16 50 -20 14 -3 7 3 -15 13 -45 22 -73 27 -35
7z"/>
<path d="M3335 389 c-22 -10 -29 -16 -15 -13 28 7 80 33 65 33 -5 0 -28 -9
-50 -20z"/>
<path d="M1740 366 c0 -8 183 -63 290 -87 161 -35 297 -49 485 -49 188 0 324
14 485 49 103 23 294 80 288 86 -2 2 -46 -9 -97 -25 -219 -69 -425 -100 -671
-100 -190 0 -286 9 -450 41 -91 18 -257 63 -312 84 -10 4 -18 5 -18 1z"/>
</g>
</svg>
