<svg id="Capa_1" data-name="Capa 1" xmlns="http://www.w3.org/2000/svg" xmlns:xlink="http://www.w3.org/1999/xlink" viewBox="0 0 141 117"><defs><style>.cls-1{fill:#d9eaff;}.cls-2{fill:#606060;opacity:0.15;}.cls-3{fill:#0033a0;}.cls-10,.cls-4{fill:#fff;}.cls-5{opacity:0.5;}.cls-6{fill:#00aec7;}.cls-7{fill:url(#linear-gradient);}.cls-8{fill:#fcdb54;opacity:0.7;}.cls-9{fill:url(#linear-gradient-2);}.cls-10{opacity:0.35;}.cls-11{fill:url(#linear-gradient-3);}.cls-12{fill:url(#linear-gradient-4);}.cls-13{fill:url(#linear-gradient-5);}.cls-14{fill:url(#linear-gradient-6);}.cls-15{fill:url(#linear-gradient-7);}.cls-16{fill:url(#linear-gradient-8);}.cls-17{fill:url(#linear-gradient-9);}.cls-18{fill:url(#linear-gradient-10);}</style><linearGradient id="linear-gradient" x1="24.68" y1="-1443.36" x2="24.48" y2="-1425.85" gradientTransform="translate(-1362.64 70.25) rotate(90)" gradientUnits="userSpaceOnUse"><stop offset="0.26" stop-color="#fcd000"/><stop offset="1" stop-color="#ef5c07"/></linearGradient><linearGradient id="linear-gradient-2" x1="35.08" y1="-1424.03" x2="34.34" y2="-1435.5" gradientTransform="translate(-1358.74 69.43) rotate(90)" gradientUnits="userSpaceOnUse"><stop offset="0" stop-color="#fcd000"/><stop offset="1" stop-color="#ef5c07"/></linearGradient><linearGradient id="linear-gradient-3" x1="47.65" y1="100.6" x2="47.45" y2="118.11" gradientTransform="matrix(1, 0, 0, 1, 0, 0)" xlink:href="#linear-gradient"/><linearGradient id="linear-gradient-4" x1="58.05" y1="119.93" x2="57.31" y2="108.45" gradientTransform="matrix(1, 0, 0, 1, 0, 0)" xlink:href="#linear-gradient-2"/><linearGradient id="linear-gradient-5" x1="3237.64" y1="92.6" x2="3237.43" y2="110.12" gradientTransform="matrix(-1, 0, 0, 1, 3281.73, 0)" xlink:href="#linear-gradient"/><linearGradient id="linear-gradient-6" x1="3248.04" y1="111.93" x2="3247.3" y2="100.46" gradientTransform="matrix(-1, 0, 0, 1, 3281.73, 0)" xlink:href="#linear-gradient-2"/><linearGradient id="linear-gradient-7" x1="47.65" y1="84.61" x2="47.45" y2="102.12" gradientTransform="matrix(1, 0, 0, 1, 0, 0)" xlink:href="#linear-gradient"/><linearGradient id="linear-gradient-8" x1="58.05" y1="103.94" x2="57.31" y2="92.46" gradientTransform="matrix(1, 0, 0, 1, 0, 0)" xlink:href="#linear-gradient-2"/><linearGradient id="linear-gradient-9" x1="3237.64" y1="76.61" x2="3237.43" y2="94.13" gradientTransform="matrix(-1, 0, 0, 1, 3281.73, 0)" xlink:href="#linear-gradient"/><linearGradient id="linear-gradient-10" x1="3248.04" y1="95.94" x2="3247.3" y2="84.47" gradientTransform="matrix(-1, 0, 0, 1, 3281.73, 0)" xlink:href="#linear-gradient-2"/></defs><circle class="cls-1" cx="70.29" cy="57.73" r="53.05"/><ellipse class="cls-2" cx="68.77" cy="111.85" rx="49.73" ry="2.6"/><path class="cls-3" d="M101.73,2.62H50.33a9.6,9.6,0,0,0-9.59,9.58v91.06a9.6,9.6,0,0,0,9.59,9.59h51.4a9.6,9.6,0,0,0,9.59-9.59V12.2A9.6,9.6,0,0,0,101.73,2.62Zm6,100.64a6,6,0,0,1-6,6H50.33a6,6,0,0,1-6-6V12.2a6,6,0,0,1,6-6h51.4a6,6,0,0,1,6,6Z"/><rect class="cls-3" x="44.33" y="6.21" width="63.39" height="103.04" rx="5.99"/><rect class="cls-4" x="46.97" y="9.28" width="58.11" height="86.65" rx="1.9"/><g class="cls-5"><path class="cls-6" d="M76,46a15,15,0,1,1,15-15A15,15,0,0,1,76,46Zm0-27a12,12,0,1,0,12,12A12,12,0,0,0,76,19Z"/></g><g class="cls-5"><path class="cls-6" d="M76,39.82A8.82,8.82,0,1,1,84.76,31,8.82,8.82,0,0,1,76,39.82Zm0-14.64A5.83,5.83,0,1,0,81.77,31,5.83,5.83,0,0,0,76,25.18Z"/></g><path class="cls-6" d="M76,39.82a1.5,1.5,0,1,1,0-3,5.83,5.83,0,0,0,0-11.65,1.5,1.5,0,1,1,0-3,8.82,8.82,0,0,1,0,17.63Z"/><path class="cls-6" d="M76,46A15,15,0,1,1,76,16a1.5,1.5,0,0,1,0,3,12,12,0,1,0,0,24,1.5,1.5,0,0,1,0,3Z"/><circle class="cls-4" cx="76.03" cy="104.6" r="5.24"/><rect class="cls-6" x="59.59" y="60.74" width="6.62" height="20.3" rx="1.8"/><rect class="cls-6" x="87.09" y="60.74" width="6.62" height="20.3" rx="1.8"/><rect class="cls-6" x="73.35" y="54.75" width="6.62" height="26.29" rx="1.8"/><rect class="cls-7" x="68.42" y="76.34" width="7.99" height="36.99" rx="1.52" transform="translate(-31.79 36.72) rotate(-23.49)"/><rect class="cls-8" x="64.77" y="82.29" width="7.99" height="8.29" transform="translate(-28.75 34.57) rotate(-23.49)"/><rect class="cls-9" x="72.32" y="96.79" width="7.99" height="14.04" transform="translate(-35.05 39.01) rotate(-23.49)"/><rect class="cls-10" x="76.67" y="102.85" width="1.92" height="7.99" transform="translate(144.69 -6.94) rotate(66.51)"/><rect class="cls-10" x="76.03" y="100.25" width="0.96" height="7.99" transform="translate(141.63 -7.47) rotate(66.51)"/><rect class="cls-11" x="29.06" y="104.91" width="36.99" height="7.99" rx="1.52"/><rect class="cls-8" x="34.25" y="104.91" width="8.29" height="7.99"/><rect class="cls-12" x="50.32" y="104.91" width="14.04" height="7.99"/><rect class="cls-10" x="59.69" y="104.91" width="1.92" height="7.99"/><rect class="cls-10" x="57.34" y="104.91" width="0.96" height="7.99"/><rect class="cls-13" x="25.69" y="96.91" width="36.99" height="7.99" rx="1.52"/><rect class="cls-8" x="49.19" y="96.91" width="8.29" height="7.99"/><rect class="cls-14" x="27.38" y="96.91" width="14.04" height="7.99"/><rect class="cls-10" x="30.13" y="96.91" width="1.92" height="7.99" transform="translate(62.18 201.82) rotate(-180)"/><rect class="cls-10" x="33.44" y="96.91" width="0.96" height="7.99" transform="translate(67.84 201.82) rotate(-180)"/><rect class="cls-15" x="29.06" y="88.92" width="36.99" height="7.99" rx="1.52"/><rect class="cls-8" x="34.25" y="88.92" width="8.29" height="7.99"/><rect class="cls-16" x="50.32" y="88.92" width="14.04" height="7.99"/><rect class="cls-10" x="59.69" y="88.92" width="1.92" height="7.99"/><rect class="cls-10" x="57.34" y="88.92" width="0.96" height="7.99"/><rect class="cls-17" x="25.69" y="80.92" width="36.99" height="7.99" rx="1.52"/><rect class="cls-8" x="49.19" y="80.92" width="8.29" height="7.99"/><rect class="cls-18" x="27.38" y="80.92" width="14.04" height="7.99"/><rect class="cls-10" x="30.13" y="80.92" width="1.92" height="7.99" transform="translate(62.18 169.84) rotate(-180)"/><rect class="cls-10" x="33.44" y="80.92" width="0.96" height="7.99" transform="translate(67.84 169.84) rotate(-180)"/></svg>