<svg xmlns="http://www.w3.org/2000/svg" width="131.189" height="45.513" viewBox="0 0 131.189 45.513"><defs><style>.a{fill:#00aec7;}.b{fill:#0033a0;}</style></defs><g transform="translate(65.595 22.756)"><g transform="translate(-65.595 -22.756)"><g transform="translate(94.282)"><path class="a" d="M356.513,131.868c.056-.084,0-.14-.056-.168-2.516,1.006-8.023,2.013-11.461,2.516a69.432,69.432,0,0,1-6.933.615l-.643.056a.14.14,0,0,0-.14.112c-.028.056.028.084.056.112a5.386,5.386,0,0,0,2.767,1.314c1.677.252,4.752-.224,8.33-1.258A37.216,37.216,0,0,0,356.513,131.868Z" transform="translate(-337.273 -94.891)"/><path class="a" d="M368.378,137.6a27.228,27.228,0,0,1-6.346,3.047,51.185,51.185,0,0,1-8.526,2.208.168.168,0,0,0-.112.112.14.14,0,0,0,.028.112,3.718,3.718,0,0,0,1.957.727,9.979,9.979,0,0,0,3.55-.391,21.356,21.356,0,0,0,3.718-1.51,24.064,24.064,0,0,0,3.466-2.041,10.9,10.9,0,0,0,2.32-2.125C368.461,137.656,368.434,137.628,368.378,137.6Z" transform="translate(-348.886 -99.142)"/><path class="a" d="M357.524,28.731a5.591,5.591,0,0,0,2.46,1.482h.084l21.525,5.7,4.193,1.146c.084,0,.112-.028.112-.084a.112.112,0,0,0-.056-.084c-2.8-1.118-20.1-7.771-26.612-10.259L356.49,25.6c-.084,0-.14,0-.168.028a.14.14,0,0,0-.028.112,5.845,5.845,0,0,0,.727,2.32A4.249,4.249,0,0,0,357.524,28.731Z" transform="translate(-350.975 -18.451)"/><path class="a" d="M360.757,3.708a4.3,4.3,0,0,0,1.258,1.062l.643.363,1.537.783c.867.447,13.837,6.485,15.738,7.436l5.451,2.656c.084.028.14,0,.112-.112-2.4-1.51-11.685-7.352-18.31-11.433l-4.752-2.879-.867-.531L360,.046q-.126-.042-.168,0a.084.084,0,0,0-.056.084,6.317,6.317,0,0,0,.335,2.376,5.671,5.671,0,0,0,.643,1.2Z" transform="translate(-353.482 -0.025)"/><path class="a" d="M388.169,148h-.084a17.274,17.274,0,0,1-6.374,3.634.14.14,0,0,0-.112.112.168.168,0,0,0,.084.14c.168.084,1.426.755,3.858-.447a5.784,5.784,0,0,0,2.684-3.3C388.281,148.056,388.225,148,388.169,148Z" transform="translate(-369.209 -106.635)"/><path class="a" d="M419.782,84.5l-8.834,2.292-6.681,1.761c-.363.084-.224.252-.2.307l.531.867a1.476,1.476,0,0,0,2.013.587c.14-.056,12.663-5.283,13.222-5.647.084-.056.028-.112.028-.14S419.81,84.5,419.782,84.5Z" transform="translate(-385.363 -60.886)"/><path class="a" d="M420.311,115.6h-.084c-1.649,1.37-4.193,3.578-6.793,5.814a1.778,1.778,0,0,0-.447,1.006,14.359,14.359,0,0,1-.559,1.705c-.084.224.028.307.252.084,2.013-2.18,6.485-7.1,7.687-8.526C420.4,115.656,420.339,115.6,420.311,115.6Z" transform="translate(-391.399 -83.292)"/><path class="a" d="M393.058,59.1l-29.352-5.2-.14.056a.279.279,0,0,0,0,.168,5.032,5.032,0,0,0,3.327,3.355l.587.112L393,59.267c.056,0,.112-.028.112-.084A.084.084,0,0,0,393.058,59.1Z" transform="translate(-356.207 -38.84)"/><path class="a" d="M407.524,78H394.917l-9.56.056-.112.056a.084.084,0,0,0,0,.112,4.249,4.249,0,0,0,.783,1.258A3.83,3.83,0,0,0,388.4,80.74h.615L407.524,78.2a.1.1,0,0,0,0-.2Z" transform="translate(-371.819 -56.203)"/><path class="a" d="M425.571,93.2l-7.017,4.249c-1.51.922-3.382,1.957-4.361,2.572-.112.084-.2.056-.14.363a4.005,4.005,0,0,1,.084.643c.112,1.454.7,1.286,1.565.615l.112-.084c3.019-2.488,8.61-7.184,9.84-8.219A.1.1,0,0,0,425.571,93.2Z" transform="translate(-392.578 -67.154)"/></g><g transform="translate(0 10.308)"><path class="b" d="M243.958,36.9c-6.01,0-11.657,4.417-11.88,13.055-.224,7.827,3.858,13.306,10.762,13.306,5.675,0,7.659-3.942,7.659-3.942.335,2.656,1.761,3.466,4.612,3.466V36.9Zm6.262,15.235c0,3.578-2.041,6.989-6.513,6.989-4,0-6.849-2.684-6.653-9.113s3.159-8.917,7.1-8.917h6.066Z" transform="translate(-167.196 -36.9)"/><path class="b" d="M100.48,36.9V54.819c0,2.628-2.152,3.942-5,3.942S90.5,57.446,90.5,54.819V41.4c0-3.83-2.4-4.5-4.5-4.5V55.937c0,4.808,4.333,7.156,9.365,7.156s9.7-2.348,9.7-7.156V42.016C105.037,38.242,103.611,36.9,100.48,36.9Z" transform="translate(-61.959 -36.9)"/><path class="b" d="M13.306,48.5,7.8,46.964c-1.51-.419-2.907-1.09-2.907-2.935s1.174-2.879,3.634-2.879h4.892c2.18,0,4.752-.727,4.752-4.249H8.945C3.271,36.928,0,39.807,0,43.916S2.432,49.9,6.765,51.073l4.808,1.286c1.985.531,2.684,1.789,2.684,3.047,0,1.957-1.23,3.1-4.221,3.131L.811,58.62v4.165h9.421c5.675,0,8.945-3.047,8.945-7.072S17.583,49.647,13.306,48.5Z" transform="translate(0 -36.9)"/><path class="b" d="M185.249,36.9c-5.591,0-9.449,3.243-9.449,9.9V62.758h4.5v-16.1c0-3.438,1.845-5.479,5.339-5.479h1.342c3.942,0,4.584-2.041,4.584-4.249Z" transform="translate(-126.657 -36.9)"/></g></g></g></svg>