<svg id="Component_8_1" data-name="Component 8 – 1" xmlns="http://www.w3.org/2000/svg" xmlns:xlink="http://www.w3.org/1999/xlink" width="475" height="362.829" viewBox="0 0 475 362.829">
  <defs>
    <clipPath id="clip-path">
      <rect id="Rectangle_2977" data-name="Rectangle 2977" width="9.814" height="46.154" fill="none"/>
    </clipPath>
    <clipPath id="clip-path-2">
      <path id="Path_267" data-name="Path 267" d="M268.684,251.863l-8.276,5-29.379-43.681,8.278-5Z" transform="translate(-231.029 -208.18)" fill="none"/>
    </clipPath>
    <clipPath id="clip-path-3">
      <rect id="Rectangle_2978" data-name="Rectangle 2978" width="9.812" height="46.154" fill="none"/>
    </clipPath>
    <clipPath id="clip-path-4">
      <path id="Path_274" data-name="Path 274" d="M80.114,249.432l8.274,5,29.379-43.683-8.276-5Z" transform="translate(-80.114 -205.751)" fill="none"/>
    </clipPath>
    <clipPath id="clip-path-5">
      <path id="Path_280" data-name="Path 280" d="M423.343,232.686c0,7.058-77.42,20.844-172.922,20.844S77.5,239.744,77.5,232.686Z" transform="translate(-77.498 -232.686)" fill="#f7f7f7"/>
    </clipPath>
    <clipPath id="clip-path-6">
      <rect id="Rectangle_2979" data-name="Rectangle 2979" width="7.015" height="28.423" fill="none"/>
    </clipPath>
    <clipPath id="clip-path-7">
      <path id="Path_323" data-name="Path 323" d="M74.275,243.243l-5.914,3.082-21-26.905,5.917-3.078Z" transform="translate(-47.356 -216.342)" fill="none"/>
    </clipPath>
  </defs>
  <g id="Group_3404" data-name="Group 3404" transform="translate(0 209.917)">
    <g id="Group_3388" data-name="Group 3388" transform="translate(34.354 37.212)">
      <path id="Path_245" data-name="Path 245" d="M72.992,185.483c.672-.692,1.3-1.675.906-2.424-.428-.843-1.754-.734-2.8-.428a20.326,20.326,0,0,0-12.7,11.438l.064.309a24.99,24.99,0,0,0-15.956-.092c-1.2.381-2.56,1.051-2.837,2.188a1.85,1.85,0,0,0,.955,2,5.387,5.387,0,0,0,2.407.543,27.514,27.514,0,0,0,15.788-4.262l-.258-.341-.008-.006C63.011,190.871,69.089,189.566,72.992,185.483Z" transform="translate(-39.627 -182.406)" fill="#d8e081"/>
    </g>
    <g id="Group_3389" data-name="Group 3389" transform="translate(38.744 49.597)">
      <path id="Path_246" data-name="Path 246" d="M78.2,192.624a3.231,3.231,0,0,0,1.17-1.581,1.73,1.73,0,0,0-1.272-1.919,5.151,5.151,0,0,0-2.686.064,19.543,19.543,0,0,0-13.33,11.044l-.03.566a25.186,25.186,0,0,0-16.82-3.168c-1.279.183-2.817.692-3.2,1.883a1.778,1.778,0,0,0,.626,1.89,4.847,4.847,0,0,0,1.958.838,29.638,29.638,0,0,0,17.6-1.3l-.045-.055q5.708-2.779,11.417-5.541A22.153,22.153,0,0,0,78.2,192.624Z" transform="translate(-41.954 -188.97)" fill="#d8e081"/>
    </g>
    <g id="Group_3390" data-name="Group 3390" transform="translate(67.372 77.351)">
      <path id="Path_247" data-name="Path 247" d="M57.623,212.477a44.535,44.535,0,0,0,17.3-4.556c1.03-.5,2.226-1.275,2.277-2.332.064-1.149-1.26-1.715-2.436-1.845a16.273,16.273,0,0,0-9.535,2.479,52.216,52.216,0,0,0-8.1,6.241Z" transform="translate(-57.129 -203.682)" fill="#d8e081"/>
    </g>
    <g id="Group_3391" data-name="Group 3391" transform="translate(26.724 16.882)">
      <path id="Path_248" data-name="Path 248" d="M62.431,172.363c-.59-.989-2.185-.836-3.407-.372a14.39,14.39,0,0,0-6.556,5.5,21.671,21.671,0,0,0-3.024,7.688l.017.021c-3.36-.681-6.865-1.272-10.367-.3a5.937,5.937,0,0,0-2.643,1.37,2.39,2.39,0,0,0-.719,2.558c.428.872,1.583,1.124,2.635,1.138,3.783.036,7.512-1.894,11.023-3.769l.485-.613a57.206,57.206,0,0,0,11.363-9.8C62.133,174.766,63.04,173.376,62.431,172.363Z" transform="translate(-35.583 -171.629)" fill="#d8e081"/>
    </g>
    <g id="Group_3392" data-name="Group 3392" transform="translate(33.054 9.328)">
      <path id="Path_249" data-name="Path 249" d="M51.721,168.6a2.173,2.173,0,0,0-1.909-.973,5.394,5.394,0,0,0-2.345.6,13.925,13.925,0,0,0-5.477,4.958,29.98,29.98,0,0,0-3.052,6.522l.594-.306a85.091,85.091,0,0,0,9.955-6.42,8.113,8.113,0,0,0,1.937-1.956A2.477,2.477,0,0,0,51.721,168.6Z" transform="translate(-38.938 -167.625)" fill="#d8e081"/>
    </g>
    <g id="Group_3393" data-name="Group 3393" transform="translate(64.448 61.934)">
      <path id="Path_250" data-name="Path 250" d="M70.017,201.01a8.489,8.489,0,0,0,3.247-2.02c.83-.964,1.047-2.5.123-3.154a3.331,3.331,0,0,0-2.566-.145,24.1,24.1,0,0,0-15.241,11.485Q62.806,204.09,70.017,201.01Z" transform="translate(-55.579 -195.51)" fill="#d8e081"/>
    </g>
    <g id="Group_3394" data-name="Group 3394" transform="translate(16.33 20.916)">
      <path id="Path_251" data-name="Path 251" d="M47.087,174.216l-.364.26a21.534,21.534,0,0,0-13.768.979,6.329,6.329,0,0,0-2.088,1.234,2.192,2.192,0,0,0-.732,2.07c.345,1.089,1.847,1.268,3.1,1.172A25.035,25.035,0,0,0,47.087,174.216Z" transform="translate(-30.073 -173.768)" fill="#d8e081"/>
    </g>
    <g id="Group_3395" data-name="Group 3395" transform="translate(0 0)">
      <path id="Path_252" data-name="Path 252" d="M42.384,172.91a21.615,21.615,0,0,0-16.609-10.168,6.26,6.26,0,0,0-2.3.092,2.9,2.9,0,0,0-1.864,1.392c-.617,1.277.345,2.526,1.362,3.317,5.062,3.93,12.3,4.6,19.167,5.126Z" transform="translate(-21.417 -162.68)" fill="#d8e081"/>
    </g>
    <g id="Group_3396" data-name="Group 3396" transform="translate(29.616 38.441)">
      <path id="Path_253" data-name="Path 253" d="M55.531,185.587c.011-.055.03-.106.045-.155l-.1.074.03-.055a18.151,18.151,0,0,0-15.783-1.056c-1.222.519-2.575,1.462-2.6,2.688-.03,1.326,1.513,1.951,2.866,2.151a22.792,22.792,0,0,0,15.358-3.513l.066-.113Z" transform="translate(-37.116 -183.057)" fill="#d8e081"/>
    </g>
    <g id="Group_3397" data-name="Group 3397" transform="translate(8.26 14.274)">
      <path id="Path_254" data-name="Path 254" d="M43.783,171.491l.315-.434a35.6,35.6,0,0,0-7.786-.8,18.265,18.265,0,0,0-7.882,1.939,5.95,5.95,0,0,0-2.007,1.519,2.3,2.3,0,0,0-.515,2.2c.462,1.153,2.092,1.277,3.464,1.139A29.923,29.923,0,0,0,43.783,171.491Z" transform="translate(-25.796 -170.246)" fill="#d8e081"/>
    </g>
    <g id="Group_3398" data-name="Group 3398" transform="translate(48.076 27.321)">
      <path id="Path_255" data-name="Path 255" d="M59.324,177.448A2.734,2.734,0,0,0,57,177.393a13.337,13.337,0,0,0-6.9,5.478,25.287,25.287,0,0,0-3.192,7.786,86.1,86.1,0,0,0,11.285-8.965,6.648,6.648,0,0,0,1.553-2.081A1.823,1.823,0,0,0,59.324,177.448Z" transform="translate(-46.901 -177.163)" fill="#d8e081"/>
    </g>
    <g id="Group_3399" data-name="Group 3399" transform="translate(44.46 66.015)">
      <path id="Path_256" data-name="Path 256" d="M64.9,205.391c.026-.042.042-.085.075-.134a.662.662,0,0,1-.145.062l-.087-.066a24.426,24.426,0,0,0-15.837-7.54,4.014,4.014,0,0,0-3.32.817,2.607,2.607,0,0,0,.038,3.356c1.315,1.736,3.7,2.39,5.978,2.82a61.4,61.4,0,0,0,13.055.983l.009.008-.021.177c.034-.066.066-.125.1-.191.172.006.332,0,.507-.008Z" transform="translate(-44.984 -197.673)" fill="#d8e081"/>
    </g>
    <g id="Group_3400" data-name="Group 3400" transform="translate(66.959 86.065)">
      <path id="Path_257" data-name="Path 257" d="M57.293,208.3c-.128,0-.251.008-.383,0,.151.2.311.413.453.626Z" transform="translate(-56.91 -208.301)" fill="#d8e081"/>
    </g>
    <g id="Group_3401" data-name="Group 3401" transform="translate(44.192 76.47)">
      <path id="Path_258" data-name="Path 258" d="M49.051,203.247a6.559,6.559,0,0,0-2.466.521A3,3,0,0,0,44.9,205.59a2.535,2.535,0,0,0,.621,2.158c1.234,1.551,3.267,2.305,5.254,2.9a55.414,55.414,0,0,0,16.835,2.164,25.351,25.351,0,0,0-7.484-6.85A19.748,19.748,0,0,0,49.051,203.247Z" transform="translate(-44.842 -203.215)" fill="#d8e081"/>
    </g>
    <g id="Group_3402" data-name="Group 3402" transform="translate(46.191 91.622)">
      <path id="Path_259" data-name="Path 259" d="M45.948,214.826a2.149,2.149,0,0,0,.458,1.8,5.11,5.11,0,0,0,1.5,1.156,28,28,0,0,0,10.721,3.194,81.964,81.964,0,0,0,11.334.317l-.285.406a50.627,50.627,0,0,0,15.611-5.7,7.227,7.227,0,0,0,2.2-1.687,2.057,2.057,0,0,0,.3-2.381,2.8,2.8,0,0,0-2.505-.649,20.046,20.046,0,0,0-15.132,9.735l-.034-.066a21.891,21.891,0,0,0-15.551-8.978,12.183,12.183,0,0,0-6.373.687A3.669,3.669,0,0,0,45.948,214.826Z" transform="translate(-45.901 -211.246)" fill="#d8e081"/>
    </g>
    <g id="Group_3403" data-name="Group 3403" transform="translate(17.495 9.002)">
      <path id="Path_260" data-name="Path 260" d="M82.2,268.006c-1.285-39.527-19.739-74.528-50.887-97.262-1.928-1.4,1.1-4.314,3.005-2.926,31.99,23.348,50.6,59.409,51.921,99.924C86.316,270.174,82.28,270.428,82.2,268.006Z" transform="translate(-30.691 -167.452)" fill="#d8e081"/>
    </g>
  </g>
  <g id="Group_3406" data-name="Group 3406" transform="translate(59.667)">
    <g id="Group_3405" data-name="Group 3405" transform="translate(0)">
      <path id="Path_261" data-name="Path 261" d="M341.383,382.8c1.021-.424,2.037-.864,3.051-1.305l1.57-.689q1.5-.662,3-1.341c.541-.245,1.085-.5,1.628-.745.964-.447,1.928-.89,2.886-1.349.589-.277,1.175-.56,1.756-.841.913-.438,1.822-.875,2.726-1.326.655-.319,1.3-.647,1.951-.972.836-.419,1.675-.84,2.511-1.27.747-.379,1.494-.773,2.241-1.166.732-.381,1.464-.76,2.188-1.145.913-.483,1.819-.979,2.724-1.473.568-.307,1.139-.615,1.709-.926q2.213-1.22,4.407-2.475c26.091-14.928,50.6-33.612,68.17-58.015s27.723-55.043,23.544-84.832c-2.966-21.108-16.647-43.475-37.178-46.654a35.072,35.072,0,0,0-3.618-.357c-5.067-.209-10.089.755-15.138,1.253-1.068.106-2.134.183-3.2.249-.313.023-.626.028-.938.045-.757.036-1.511.07-2.271.091-.368.006-.736.011-1.109.015-.7.009-1.409.011-2.113.006-.381,0-.76-.009-1.139-.017-.7-.017-1.407-.036-2.111-.066-.372-.017-.736-.03-1.1-.047q-1.106-.065-2.207-.14c-.332-.026-.658-.042-.989-.072-.826-.064-1.655-.143-2.483-.224-.23-.025-.464-.04-.7-.064q-3.257-.345-6.509-.841c-.14-.019-.279-.043-.424-.07q-1.378-.207-2.764-.445c-.281-.045-.562-.1-.845-.147-.785-.134-1.573-.277-2.358-.421-.321-.064-.641-.125-.962-.185q-1.132-.215-2.266-.445c-.321-.064-.647-.13-.972-.2q-1.149-.235-2.3-.477c-.3-.062-.594-.128-.894-.194-.824-.174-1.651-.36-2.473-.54l-.7-.157q-1.554-.348-3.1-.707a.12.12,0,0,0-.028,0l-.153-.036a77.486,77.486,0,0,0,3.288-20.561c.026-27.07-20.525-49.493-41.553-66.527C300.56,64.273,268.493,46.2,236.237,52.786c-16.309,3.343-30.76,12.711-43.668,23.255q-3.863,3.15-7.593,6.463a114.294,114.294,0,0,0-11.649-.289c-.274.009-.547.009-.824.015-.7.028-1.4.058-2.092.1-.44.025-.879.045-1.313.075-.611.038-1.217.081-1.826.128l-1.634.143c-.526.051-1.053.1-1.577.157-.687.072-1.368.155-2.051.241-.4.055-.8.094-1.2.151q-3.339.458-6.644,1.106c-.232.051-.462.1-.694.145-.875.177-1.745.364-2.615.562-.306.07-.609.145-.913.219-.8.185-1.592.385-2.385.587-.326.089-.655.174-.981.264-.781.208-1.556.428-2.332.653-.319.094-.636.185-.951.285-.817.245-1.63.5-2.437.77-.268.087-.53.168-.8.258-1.068.358-2.132.726-3.188,1.122-35.178,13-62.437,43.677-74.978,79.021-12.517,35.34-11.1,74.773.108,110.54,6.5,20.744,16.249,40.581,29.609,57.73,31.922,40.97,83.457,64.3,135.3,67.5q2.807.17,5.616.266c.624.023,1.245.036,1.87.053,1.275.032,2.549.058,3.822.07q1.027.014,2.051.013c1.466,0,2.935-.013,4.4-.043.377-.008.755-.008,1.13-.021q3-.074,6-.219a152.436,152.436,0,0,0,37.182,2.149c14.621-.979,29.758-4.271,41.021-13.643a49.769,49.769,0,0,0,7.9-8.352c.636-.262,1.266-.53,1.9-.792C340.33,383.241,340.857,383.026,341.383,382.8Z" transform="translate(-53.045 -51.409)" fill="#f7f7f7"/>
    </g>
  </g>
  <g id="Group_3408" data-name="Group 3408" transform="translate(28.346 1.195)">
    <g id="Group_3407" data-name="Group 3407">
      <path id="Path_262" data-name="Path 262" d="M134.851,89.74c5.494-7.457,9.463-17.592,5.216-25.821C135.5,55.065,124,52.858,114.05,52.32c-15.505-.836-31.469-.034-45.811,5.916S41.332,76.027,37.7,91.126c-2.088,8.689-1.155,17.79-.206,26.679,1.6,14.96,11.095,107.776,30.917,58.547,7.1-17.643,6.88-30.6,21.152-45.6C103.661,115.923,122.549,106.456,134.851,89.74Z" transform="translate(-36.442 -52.043)" fill="#f7f7f7"/>
    </g>
  </g>
  <g id="Group_3427" data-name="Group 3427" transform="translate(368.925 265.542)" opacity="0.5">
    <g id="Group_3410" data-name="Group 3410" transform="translate(0 27.974)">
      <g id="Group_3409" data-name="Group 3409">
        <path id="Path_263" data-name="Path 263" d="M261.185,218.658c18.9,13.389,24.225,36.916,24.225,36.916S260.1,257.39,241.2,244s-24.227-36.919-24.227-36.919,25.312-1.811,44.211,11.581" transform="translate(-216.974 -206.995)" fill="#d8e081"/>
      </g>
    </g>
    <g id="Group_3412" data-name="Group 3412" transform="translate(63.819)">
      <g id="Group_3411" data-name="Group 3411">
        <path id="Path_264" data-name="Path 264" d="M255.4,268.5s.281-.147.779-.438c.4-.238.949-.56,1.617-.977,5.937-3.711,21.322-14.621,27.63-31.456,7.9-21.076-1.428-43.458-1.428-43.458s-20.333,10.836-28.972,30.3c-.377.84-.724,1.692-1.057,2.571-6.865,18.337-.7,37.665,1.013,42.373.262.7.417,1.083.417,1.083" transform="translate(-250.803 -192.166)" fill="#00b0c4"/>
      </g>
    </g>
    <g id="Group_3417" data-name="Group 3417" transform="translate(63.825 30.302)" opacity="0.1" style="isolation: isolate">
      <g id="Group_3416" data-name="Group 3416">
        <g id="Group_3415" data-name="Group 3415" clip-path="url(#clip-path)">
          <g id="Group_3414" data-name="Group 3414" transform="translate(-0.005 -0.001)">
            <g id="Group_3413" data-name="Group 3413">
              <path id="Path_265" data-name="Path 265" d="M254.988,253.173c.466.253.864.47,1.2.645.73.375,1.134.564,1.134.564s.192-.543.483-1.541c1.6-5.458,6.178-24.468-1.488-41.928-.4-.915-.828-1.807-1.281-2.685-.377.84-.724,1.7-1.057,2.568-6.867,18.337-.7,37.668,1.013,42.377" transform="translate(-250.803 -208.228)"/>
            </g>
          </g>
        </g>
      </g>
    </g>
    <g id="Group_3422" data-name="Group 3422" transform="translate(26.516 30.21)" opacity="0.1" style="isolation: isolate">
      <g id="Group_3421" data-name="Group 3421">
        <g id="Group_3420" data-name="Group 3420" clip-path="url(#clip-path-2)">
          <g id="Group_3419" data-name="Group 3419" transform="translate(3.563 2.849)">
            <g id="Group_3418" data-name="Group 3418">
              <path id="Path_266" data-name="Path 266" d="M261.49,252.248q.829.006,1.419,0c.856-.015,1.315-.04,1.315-.04s-.183-.615-.573-1.705c-2.124-5.978-10.365-26.306-27.941-38.927-.923-.655-1.853-1.289-2.79-1.887.213.985.466,1.971.745,2.966,5.878,20.858,23.382,36.008,27.826,39.593" transform="translate(-232.918 -209.69)"/>
            </g>
          </g>
        </g>
      </g>
    </g>
    <g id="Group_3424" data-name="Group 3424" transform="translate(32.015 2.434)">
      <g id="Group_3423" data-name="Group 3423">
        <path id="Path_268" data-name="Path 268" d="M238.251,236.926c9.063,20.648,31.816,31.315,31.816,31.315s8.061-22.816-1-43.468-31.82-31.316-31.82-31.316-8.057,22.82,1.006,43.47" transform="translate(-233.944 -193.456)" fill="#00abc4"/>
      </g>
    </g>
    <g id="Group_3426" data-name="Group 3426" transform="translate(35.206 3.228)" opacity="0.1">
      <g id="Group_3425" data-name="Group 3425">
        <path id="Path_269" data-name="Path 269" d="M268.634,267.155l-32.423-73.278-.575.23,32.425,73.278Z" transform="translate(-235.636 -193.877)"/>
      </g>
    </g>
  </g>
  <g id="Group_3446" data-name="Group 3446" transform="translate(73.285 260.956)" opacity="0.5">
    <g id="Group_3429" data-name="Group 3429" transform="translate(33.186 27.978)">
      <g id="Group_3428" data-name="Group 3428">
        <path id="Path_270" data-name="Path 270" d="M102.077,216.225c-18.9,13.394-24.223,36.918-24.223,36.918s25.31,1.817,44.207-11.574,24.231-36.921,24.231-36.921-25.314-1.813-44.215,11.578" transform="translate(-77.854 -204.565)" fill="#d8e081"/>
      </g>
    </g>
    <g id="Group_3431" data-name="Group 3431" transform="translate(0 0)">
      <g id="Group_3430" data-name="Group 3430">
        <path id="Path_271" data-name="Path 271" d="M93.462,266.064s-.279-.147-.777-.438c-.4-.234-.951-.558-1.617-.977-5.937-3.709-21.324-14.619-27.632-31.452-7.893-21.078,1.428-43.462,1.428-43.462S85.2,200.575,93.836,220.04c.379.838.724,1.692,1.055,2.568,6.867,18.337.706,37.665-1.011,42.373-.262.706-.417,1.083-.417,1.083" transform="translate(-60.263 -189.735)" fill="#00b0c4"/>
      </g>
    </g>
    <g id="Group_3436" data-name="Group 3436" transform="translate(27.982 30.305)" opacity="0.1" style="isolation: isolate">
      <g id="Group_3435" data-name="Group 3435">
        <g id="Group_3434" data-name="Group 3434" clip-path="url(#clip-path-3)">
          <g id="Group_3433" data-name="Group 3433" transform="translate(0.003 0)">
            <g id="Group_3432" data-name="Group 3432">
              <path id="Path_272" data-name="Path 272" d="M80.728,250.74c-.462.257-.862.472-1.194.645-.732.379-1.134.568-1.134.568s-.194-.543-.483-1.545c-1.6-5.452-6.18-24.463,1.488-41.924q.6-1.372,1.279-2.685c.379.838.724,1.692,1.055,2.566,6.871,18.339.7,37.667-1.011,42.375" transform="translate(-75.097 -205.799)"/>
            </g>
          </g>
        </g>
      </g>
    </g>
    <g id="Group_3441" data-name="Group 3441" transform="translate(37.449 30.215)" opacity="0.1" style="isolation: isolate">
      <g id="Group_3440" data-name="Group 3440">
        <g id="Group_3439" data-name="Group 3439" clip-path="url(#clip-path-4)">
          <g id="Group_3438" data-name="Group 3438" transform="translate(2.786 2.847)">
            <g id="Group_3437" data-name="Group 3437">
              <path id="Path_273" data-name="Path 273" d="M84.325,249.818c-.551,0-1.026,0-1.419,0-.853-.011-1.315-.038-1.315-.038s.185-.613.575-1.707c2.124-5.977,10.363-26.3,27.943-38.923q1.378-.993,2.788-1.89-.325,1.477-.745,2.968c-5.878,20.858-23.382,36.006-27.828,39.591" transform="translate(-81.591 -207.26)"/>
            </g>
          </g>
        </g>
      </g>
    </g>
    <g id="Group_3443" data-name="Group 3443" transform="translate(30.179 2.436)">
      <g id="Group_3442" data-name="Group 3442">
        <path id="Path_275" data-name="Path 275" d="M111.381,234.494c-9.065,20.652-31.815,31.317-31.815,31.317s-8.065-22.816,1-43.47,31.82-31.315,31.82-31.315,8.059,22.818-1,43.468" transform="translate(-76.261 -191.026)" fill="#00abc4"/>
      </g>
    </g>
    <g id="Group_3445" data-name="Group 3445" transform="translate(33.417 3.232)" opacity="0.1">
      <g id="Group_3444" data-name="Group 3444">
        <path id="Path_276" data-name="Path 276" d="M77.977,264.725,110.4,191.448l.577.228L78.548,264.953Z" transform="translate(-77.977 -191.448)"/>
      </g>
    </g>
  </g>
  <g id="Group_3452" data-name="Group 3452" transform="translate(105.799 341.985)" opacity="0.7">
    <g id="Group_3451" data-name="Group 3451">
      <path id="Path_277" data-name="Path 277" d="M423.343,232.686c0,7.058-77.42,20.844-172.922,20.844S77.5,239.744,77.5,232.686Z" transform="translate(-77.498 -232.686)" fill="#f7f7f7"/>
      <g id="Group_3450" data-name="Group 3450" clip-path="url(#clip-path-5)">
        <g id="Group_3448" data-name="Group 3448" transform="translate(0 -0.001)">
          <g id="Group_3447" data-name="Group 3447">
            <path id="Path_278" data-name="Path 278" d="M423.344,242.993,77.5,243.1V232.686H423.344Z" transform="translate(-77.498 -232.686)" fill="#f7f7f7"/>
          </g>
        </g>
        <g id="Group_3449" data-name="Group 3449" transform="translate(0 10.307)">
          <path id="Path_279" data-name="Path 279" d="M77.5,238.256l345.846-.107v10.538H77.5Z" transform="translate(-77.498 -238.149)" fill="#f7f7f7"/>
        </g>
      </g>
    </g>
  </g>
  <path id="Path_281" data-name="Path 281" d="M209.912,98.637a5.01,5.01,0,0,1-1.988-.419c-2.126-.836-3.373-4.581-3.85-6.576-1.122-4.75-3.507-7.816-5.916-12.049-.308-.536,1.934.36,2.026.413a8.907,8.907,0,0,1,2.452,3.086c1-1.992-.479-4.173-.685-6.171-.232-2.3-.411-4.973-.4-7.3,1.715,2.16,2.039,6.035,2.8,8.55-.294-.97.162-3.405.1-4.564a11.21,11.21,0,0,1,.291-4.628c1.466,2.351,1.913,6.418,2.634,9.1.3-2.366.428-5.26,1.205-7.5,2,2.337.347,5.575,1.4,8.125a13.214,13.214,0,0,0,2.273-4.177c1.226,5.39-1.766,10.327-1.143,15.837C211.381,92.817,213.038,98.477,209.912,98.637Z" transform="translate(135.243 -35.832)" fill="#ffcc8b"/>
  <path id="Path_282" data-name="Path 282" d="M229.914,153.463c-2.741,5.154-6.333,15.426-9.653,5.152A374.416,374.416,0,0,0,205.64,119.52s-2.834-16.535-3.32-23.063c-.115-1.562-.838-15.045-1.421-15.015,4.32-.174,9.167-.677,9.167-.677s.8,6.629,1.439,10.583c.477,3,3.617,20.354,3.617,20.354s11.547,24.316,12.023,25.5c1.16,2.911,2.907,3.5,4.847,4.267C235.062,142.7,231.425,150.623,229.914,153.463Z" transform="translate(137.7 -25.385)" fill="#00afaa"/>
  <path id="Path_283" data-name="Path 283" d="M259.017,138.927c-.724,8.346-5.294,15.66-6.91,23.789-1.688,8.5-.194,14.219,1.854,21.982,2.494,9.463,10.1,19.912-1.7,23.036-7.89,2.081-17.218-2.024-25.07-2.826-6.465-.651-12.661.566-14.219-5.469-3.479-13.485,16.211-26.7,5.035-37.44-9.638-10.084-6.137-28.032-4.422-37.1,6.663-8.786,13.11-4.46,14.921-16.781a79.828,79.828,0,0,1,9.246-1.658c.258,4.943,1.743,8.808,6.026,11.676,3.277,2.194,7.282.381,10.638,2.247,3.071,1.711,4.066,5.2,4.373,8.489a57.805,57.805,0,0,1,.243,9.872C259.028,138.8,259.022,138.863,259.017,138.927Z" transform="translate(147.126 -2.607)" fill="#ffcc8b"/>
  <path id="Path_284" data-name="Path 284" d="M260.242,135.963c3.158-8.925,1.407-15.538-6.139-18.958.97-2.794.617-8.574-4.23-4.113-1.243,1.383-4.269.385-6.207,0-2.715-.541-3.539,7.15-5.031,9.282-1.964,2.813-7.325,5.678-10.863,5.271-9.819-1.132-9.331-4.4-6.407-13.972-2.741,1.566-11.385,2.934-8.833,7.388,1.287,2.5-4.518,19.031-.234,27.919s7.627,13.811,7.708,17.245c.1,3.9.07,6.986-2.136,10.084-2.215,3.117-2.711,6.4-4.233,11.795-.177,1.492,7.088.677,8.171.911a87.867,87.867,0,0,0,14.121,1.666,87.719,87.719,0,0,0,13.8-.015c2.073-.232,4.684-.279,6.561-1.053,3.5-1.441,1.9-5.271,1.139-8.159-2.056-7.761-6.269-14.292-4.58-22.791C254.3,151.123,256.673,146.065,260.242,135.963Z" transform="translate(146.386 1.647)" fill="#00c4b3"/>
  <path id="Path_285" data-name="Path 285" d="M231.051,107.524c-.036-.353-.081-.7-.1-1.066a79.828,79.828,0,0,0-9.246,1.658,15.051,15.051,0,0,1-2.507,6.639C223.5,115.949,228.01,112.691,231.051,107.524Z" transform="translate(153.924 -2.607)" fill="#ffcc8b" style="mix-blend-mode: multiply;isolation: isolate"/>
  <path id="Path_286" data-name="Path 286" d="M217.208,94.383c-2.513,7.927-1.043,20.231,2.83,27.277,5.524,10.038,13.855,5.328,17.8-3.313,3.268-7.135,5.643-21.629-1.16-27.5-2.817-2.432-9.131-3.554-12.811-2.33-6.565,2.175-5.969,6.593-5.992,12.515Z" transform="translate(151.055 -18.951)" fill="#ffcc8b"/>
  <path id="Path_287" data-name="Path 287" d="M238.034,88.329c5.643,2.909,9.461,9.565,9.718,15.688.323,7.8-2.5,13.657-10.423,17.533,2.339-3.145,1.87-7.493.315-10.642-1.792-3.641-2.779-5.416-1.585-9.987-2.419,6.265-8.921,2.522-13.31,5.152-4.024,2.419-4.609,6.692-3.162,10.636-6.9-8.7-7.844-15.834-1.113-24.638C222.153,87.262,232.893,85.688,238.034,88.329Z" transform="translate(149.216 -19.807)" fill="#144998"/>
  <path id="Path_288" data-name="Path 288" d="M224.087,224.3l-7.544-1.613c-.287,1.8-.6,3.584-.964,5.313-2.2,10.727-14.54,13.711-14.43,17.292s21.184-5.162,21.184-5.162S223.592,225.636,224.087,224.3Z" transform="translate(137.92 100.436)" fill="#ffcc8b"/>
  <path id="Path_289" data-name="Path 289" d="M239,225.778l-6.326-3c-.551,1.883-.607,5.935-.917,7.8-1.99,11.957-11.995,11.785-12.3,14.975-.364,3.82,19.831-3.379,19.831-3.379S238.294,227.131,239,225.778Z" transform="translate(154.146 100.519)" fill="#ffcc8b"/>
  <path id="Path_290" data-name="Path 290" d="M215.437,165.782c-.062.66-7.742,134.831-7.742,134.831l11.391-.364,16.575-109.127,5.041,111.59,8.459.623s26.063-106.8,8.548-156.845a219.525,219.525,0,0,1-36.012-4.045S216.462,154.857,215.437,165.782Z" transform="translate(143.725 29.298)" fill="#5d5d5d"/>
  <path id="Path_291" data-name="Path 291" d="M222.708,229.649c-.166.089-.334.153-.513.251-12.206,6.963-13.217,3.509-13.162,1.945-3.922,3.309-8.055,5.2-7.991,7.288.111,3.59,21.273-5.175,21.273-5.175S222.476,232.092,222.708,229.649Z" transform="translate(137.825 106.606)" fill="#b8906a"/>
  <path id="Path_292" data-name="Path 292" d="M238.98,230.672c-5.456,3.245-4.822,3.333-9.576,4.15s-2.615-1.573-2.673-1.847c-3.73,2.645-7.314,3.564-7.546,5.884-.391,3.994,20.161-3.647,20.161-3.647S239.3,233.883,238.98,230.672Z" transform="translate(153.906 107.513)" fill="#b8906a"/>
  <path id="Path_293" data-name="Path 293" d="M169.606,135.251a5.956,5.956,0,0,0,5.765-.077S172.623,140.968,169.606,135.251Z" transform="translate(109.958 22.851)" fill="#fff"/>
  <path id="Path_294" data-name="Path 294" d="M188.592,95.73s.672,15.556,2.479,18.556c2.347,3.9,7.278,1.579,8.382,6.563.69,3.115-1.2,7.331-2.851,9.874-5.007,7.746-13.974,6.712-22.214,8.146-4.7.824-9.8-1.281-11.336-6.19-1.205-3.881-.091-10.6,2.641-13.766,1.651-1.907,4.684-2.385,6.558-4.1.026-.026,5.06-4.645,4.707-10.972C176.6,97.5,185.068,92.206,188.592,95.73Z" transform="translate(103.719 -13.118)" fill="#b07c57"/>
  <path id="Path_295" data-name="Path 295" d="M175.157,111.172c3.809.147,6.182-1.847,7.714-4.814-.575-5.1-.817-10.627-.817-10.627-3.524-3.524-11.987,1.766-11.634,8.11a12.03,12.03,0,0,1-.477,4.009C171.277,109.778,172.982,111.089,175.157,111.172Z" transform="translate(110.256 -13.118)" fill="#845535"/>
  <path id="Path_296" data-name="Path 296" d="M167.211,95.673s.994,21.212,10,21.559,10.046-11.191,10.634-19.6c.658-9.412-.136-12.266-10.634-12.808C167.081,84.3,167.211,95.673,167.211,95.673Z" transform="translate(107.834 -21.797)" fill="#b07c57"/>
  <path id="Path_297" data-name="Path 297" d="M189.1,127.173a23.1,23.1,0,0,0,.841-2.552c1.473-3.522,4.124-7.242,5.428-10.861,2.1-5.812,3.743-11.853,6.4-17.417a49.094,49.094,0,0,0,4.071-12.853c.4-2.128.113-7.4,1.641-8.757,1.213.66.717,7.767,2.937,2.871,1.688-3.733,4.775-10.5,6.146-10.417s-2.064,5.935-1.185,6.748,4.813-6.89,5.745-6.307-3.439,7.044-2.6,7.686c1.443,1.1,3.275-4.437,4.43-3.9s-1.907,4.305-2.181,6.484c2.019.255,3.643-4.594,4.426-2.562s-5.4,6.514-7,8.82a33.628,33.628,0,0,0-5.586,14.317c-1.181,8.337-4.137,17.318-7.084,25.193-2.171,5.767-6.156,11.342-8.744,16.722-2.462-.028-8.761-2.619-10.08-4.913C185.7,133.728,187.642,130,189.1,127.173Z" transform="translate(124.87 -37.423)" fill="#b07c57"/>
  <path id="Path_298" data-name="Path 298" d="M171.536,125.31c-.43-.879-1.332-1.851-1.579-2.473-1.407-3.55-2.424-7.2-3.662-10.844C164.3,106.145,162,99.861,159.453,94.25a48.964,48.964,0,0,1-3.833-12.932c-.36-2.13.026-7.4-1.475-8.786-1.224.64-.86,7.756-2.99,2.818-1.621-3.764-4.579-10.595-5.952-10.531s1.954,5.973,1.06,6.767-4.684-6.976-5.629-6.412,3.309,7.107,2.456,7.731c-1.462,1.077-3.19-4.5-4.358-3.981s1.828,4.343,2.062,6.526c-2.024.219-3.556-4.664-4.377-2.645s5.28,6.614,6.837,8.952a33.591,33.591,0,0,1,5.314,14.415c1.024,8.359,3.813,17.4,6.61,25.323,2.062,5.807,5.944,11.455,8.427,16.883,2.462.019,8.812-2.454,10.172-4.722C174.809,131.932,172.941,128.164,171.536,125.31Z" transform="translate(80.467 -39.521)" fill="#b07c57"/>
  <path id="Path_299" data-name="Path 299" d="M246.578,97.623a4.877,4.877,0,0,1-1.821-.894C242.9,95.4,242.62,91.46,242.652,89.4c.085-4.88-1.462-8.444-2.751-13.138-.162-.6,1.787.826,1.86.9a8.843,8.843,0,0,1,1.613,3.594c1.46-1.681.568-4.158.868-6.146a72.43,72.43,0,0,1,1.417-7.171c1.128,2.515.477,6.354.6,8.976-.047-1.011,1-3.258,1.221-4.4a11.263,11.263,0,0,1,1.43-4.407c.838,2.641.268,6.692.3,9.467.877-2.219,1.715-4.99,3.026-6.973,1.358,2.762-1.049,5.492-.657,8.22a13.243,13.243,0,0,0,3.234-3.484c-.145,5.528-4.267,9.569-5.028,15.064C249.44,92.354,249.644,98.246,246.578,97.623Z" transform="translate(172.269 -37.192)" fill="#ffcc8b"/>
  <path id="Path_300" data-name="Path 300" d="M205.222,186.17c2.134-.549,4.492-1.588,6.688-1.747,1.792-.13,3.049.819,4.245-.151a2.369,2.369,0,0,0,.345-.334c1.1-1.273.815-6.035.979-7.62.536-5.192,1.03-10.385,1.583-15.575a84,84,0,0,1,2.705-12.617c1.2-4.709.547-9.414,2.69-13.941,1.517-3.2,3.113-6.2,4.852-9.312,2.828-5.065,12.41-16.541,14.613-28.987a42.543,42.543,0,0,0-12.67-4.526c-.966,6.061-13.951,22.454-17.545,23.65a35.376,35.376,0,0,1-8.659,1.294s-1.521,7.246-8.235,8.231-11.2-2.5-9.163-7.922c-2.541-1.073-7.063-.408-10.657-1.6s-16.72-17.4-17.686-23.457A48.944,48.944,0,0,0,145.732,96.4c2.2,12.445,12.83,23.406,15.656,28.472,1.739,3.117,3.335,6.116,4.85,9.312,2.151,4.528,1.49,9.233,2.694,13.941a84.232,84.232,0,0,1,2.707,12.617c.547,5.19,1.471,11.672,2.009,16.864.164,1.585-.553,5.058.555,6.331a2.261,2.261,0,0,0,.341.334c1.2.97,2.451.021,4.248.151,2.188.158,4.548,1.2,6.682,1.747Z" transform="translate(88.792 -15.992)" fill="#e81f76"/>
  <path id="Path_301" data-name="Path 301" d="M173.616,85.009a4.6,4.6,0,0,1-1.377,1.458c-.441.245-1.349-.162-1.873.041-1.243.494-2.458.73-3.433,1.794-6.526,7.078,1.839,14.856,9.355,14.041,3.494-.381,5.958-3.707,9.531-3.66.008,3.3,2.236,5.822,5.784,4.946,9.02-2.234,4.52-16.673-1.243-19.748-3.626-1.943-12.378-3.037-15.6-.249A7.543,7.543,0,0,0,173.616,85.009Z" transform="translate(105.505 -24.335)" fill="#144998"/>
  <path id="Path_302" data-name="Path 302" d="M183.964,226.337c.285,4.609-1.166,9.131-.926,13.889,6.382.973,11.738,2.351,18.3,1.973-1.524-4.339-4.9-5.169-8.4-7.763-5.658-4.19-2.956-7.093-4.988-13.083Z" transform="translate(121.841 99.251)" fill="#292c54"/>
  <path id="Path_303" data-name="Path 303" d="M156.175,226.05c-.326,5.954-8.908,8.435-11.57,13.059,2.766,1.245,12.447.685,15.136-1.36,3.709-2.813.945-9.914,5.237-13.985Z" transform="translate(87.793 101.389)" fill="#292c54"/>
  <path id="Path_304" data-name="Path 304" d="M170.92,139.491,149.038,303.909l11.059.4,34.373-111.36,17.383,113.737,10.268-.789s.794-75.3.4-98.686.79-55.874-8.3-69.74C214.222,137.469,183.53,147.283,170.92,139.491Z" transform="translate(91.723 24.885)" fill="#a2c7e2"/>
  <path id="Path_305" data-name="Path 305" d="M168.884,105.242s-.919,6.98,5.811,7.169,10.463-5.048,11.963-8.225l1.868.375s-3.367,10.653-13.457,9.9-8.222-7.29-7.659-9.533Z" transform="translate(107.56 -4.621)" fill="#b8906a"/>
  <path id="Path_306" data-name="Path 306" d="M230.59,144.8c2.922-3.458,7.02-14.343,8.772-18.743,2.741-6.9,6.32-15.332,6.32-15.332s4.543-23.1,4.739-31.888c2.319-.266,5.065,1.188,7.2,2.12,2.815,1.226-2.143,41.664-2.143,41.664s-9.676,30.211-11.749,35.32c-2.809,6.918-6.25,9.08-9.695,15.6Z" transform="translate(164.022 -27.123)" fill="#00afaa"/>
  <path id="Path_307" data-name="Path 307" d="M111.518,228.145c.323,5.228-1.345,10.338-1.072,15.726,7.4,1.1,13.6,2.651,21.216,2.228-1.768-4.922-5.678-5.846-9.748-8.786-6.558-4.741-3.42-8.02-5.777-14.8Z" transform="translate(57.483 100.281)" fill="#292c54"/>
  <path id="Path_308" data-name="Path 308" d="M96.085,224.489c-1.864,1.992-1.413,5.346-2.815,7.746-3.356,5.743-12.461,6.19-15.762,11.646-.651,1.072,13.228-.023,14.111-.168,3.666-.594,9.4-.332,9.895-5.262.5-5.039-.16-9.563.777-14.738Z" transform="translate(28.29 101.345)" fill="#292c54"/>
  <path id="Path_309" data-name="Path 309" d="M91.275,142.076s-2.549,4.479-2.751,17.279-4.469,143.116-4.469,143.116h13.96L114.694,177.2l18.8,126.986,10.749-.762s.83-72.418.417-94.908-8.686-67.074-8.686-67.074S104.484,149.567,91.275,142.076Z" transform="translate(34.114 28.406)" fill="#87898c"/>
  <path id="Path_310" data-name="Path 310" d="M115.925,97.628s.666,15.56,2.475,18.554c2.353,3.9,7.284,1.577,8.386,6.565.689,3.115-1.2,7.329-2.852,9.878-5,7.744-13.975,6.709-22.21,8.148-4.705.813-9.8-1.287-11.334-6.194-1.215-3.881-.092-10.606,2.641-13.766,1.649-1.909,4.68-2.388,6.552-4.1.028-.025,5.063-4.647,4.709-10.974C103.936,99.394,112.4,94.1,115.925,97.628Z" transform="translate(39.297 -11.435)" fill="#ffcc8b"/>
  <path id="Path_311" data-name="Path 311" d="M111.554,112.553a142.393,142.393,0,0,1-1.424-14.924C106.6,94.1,98.141,99.394,98.5,105.739a13.316,13.316,0,0,1-2.056,7.569,9.117,9.117,0,0,0,6.388,2.575C107.239,115.983,109.913,114.658,111.554,112.553Z" transform="translate(45.092 -11.435)" fill="#ffcc8b" style="mix-blend-mode: multiply;isolation: isolate"/>
  <path id="Path_312" data-name="Path 312" d="M94.671,96.83c-.59,7.716.694,22.765,10.061,23.876,9.161,1.083,11.712-11.38,10.966-18.739-.366-3.6.374-8.112-1.315-11.436-1.86-3.654-6.1-4.3-9.629-4.482-6.346-.323-9.6,4.518-10.08,10.717C94.675,96.79,94.671,96.809,94.671,96.83Z" transform="translate(43.417 -20.714)" fill="#ffcc8b"/>
  <path id="Path_313" data-name="Path 313" d="M117.1,178.565c.494-.062.992-.143,1.5-.245a114.789,114.789,0,0,0,13.332-3.567c4.741-1.579,4.814.709,5.5-4.684.792-6.163,1.764-15.1,3.077-21.2,1.234-5.739,3.256-11.31,3.545-17.222.306-6.241-.151-13.028-2.717-18.614-1.622-3.543-1.679-4.043-5.126-3.965a81.408,81.408,0,0,0-9.029,1.443S123.5,121.564,113.8,120.79s-10.861-10.08-10.861-10.08-.823.424-3.9.021c-2.1-.281-3.754-1.919-5.407-3.215-2.383-1.864-1.932-3.022-4.733-1.483-1.651.911-4.192,4.437-5.056,6.126-4.852,9.495,4.371,22.5,4.3,32.364-.074,9.967,3.115,22.893,4.011,32.867C101.544,176.562,107.509,179.775,117.1,178.565Z" transform="translate(32.677 -3.616)" fill="#76bc21"/>
  <path id="Path_314" data-name="Path 314" d="M118.645,122.629c.364-.845-.492-1.741-.291-2.33,1.166-3.381,3.622-6.882,4.618-10.34,1.607-5.56,3.49-11.531,5.626-16.883a45.694,45.694,0,0,0,3.02-12.247c.253-2.015-.336-6.922,1.009-8.282,1.162.547,1.136,7.216,2.907,2.5,1.36-3.588,3.824-10.087,5.114-10.1s-1.57,5.667-.694,6.371,4.075-6.726,4.977-6.235-2.783,6.786-1.958,7.331c1.419.941,2.79-4.343,3.9-3.915s-1.515,4.141-1.643,6.188c1.894.128,3.12-4.5,3.975-2.654s-4.65,6.409-6,8.663a31.454,31.454,0,0,0-4.348,13.7c-.589,7.852-2.805,16.42-5.08,23.953-1.673,5.52-5.058,10.961-7.148,16.143-2.3.128-8.34-1.915-9.712-3.973C115.874,128.958,117.458,125.359,118.645,122.629Z" transform="translate(62.943 -39.402)" fill="#ffcc8b"/>
  <path id="Path_315" data-name="Path 315" d="M121.987,152.457c1.288-2.432,8.348-17.628,10.436-23.2,2.417-6.443,6.135-13.379,7.546-20.129l6.114-29.241-10.417-4.2s-13.017,36.188-13.242,36.8c-1.981,5.507-3.552,10.406-6.286,15.687a35.3,35.3,0,0,1-2.519,4.892c-1.679,2.332-4.15,3.373-3.015,6.626.864,2.477,3.53,3.871,4.965,5.924,1.805,2.585,1.013,5.563,1.551,8.429.538,2.881,1.568,5.179,1.239,8.246C118.7,159.131,120.255,155.717,121.987,152.457Z" transform="translate(57.396 -29.887)" fill="#76bc21"/>
  <path id="Path_316" data-name="Path 316" d="M96.758,122.494c-.368-.843.49-1.737.292-2.332-1.168-3.381-3.62-6.882-4.62-10.342-1.607-5.558-3.492-11.527-5.629-16.875a45.709,45.709,0,0,1-3.017-12.253c-.249-2.015.336-6.92-1.009-8.278-1.164.545-1.138,7.21-2.909,2.5-1.358-3.588-3.822-10.085-5.113-10.093s1.568,5.667.7,6.371-4.079-6.727-4.979-6.235,2.783,6.788,1.954,7.331c-1.413.941-2.786-4.343-3.894-3.918s1.513,4.143,1.639,6.19c-1.894.13-3.118-4.5-3.973-2.654s4.65,6.41,6,8.663a31.522,31.522,0,0,1,4.35,13.7c.587,7.852,2.8,16.422,5.077,23.95,1.677,5.524,5.058,10.965,7.148,16.147,2.307.128,8.342-1.911,9.712-3.973C99.529,128.822,97.945,125.222,96.758,122.494Z" transform="translate(18.203 -39.521)" fill="#ffcc8b"/>
  <path id="Path_317" data-name="Path 317" d="M93.566,152.984c-1.362-3.017-2.445-6.284-3.518-8.818-2.081-4.92-3.762-10.048-5.641-15.049-2.413-6.444-6.131-13.381-7.544-20.129,0-.013-6.11-29.245-6.11-29.245l10.414-4.19s13.017,36.184,13.242,36.8c1.983,5.507,3.554,10.4,6.286,15.683,1.824,3.52,3.117,5.431,2.522,9.7-.517,3.72-2.577,7.557-3.5,11.331-.628,2.577-.158,8.831-1.845,10.521A20.288,20.288,0,0,1,93.566,152.984Z" transform="translate(22.32 -30.005)" fill="#76bc21"/>
  <path id="Path_318" data-name="Path 318" d="M95.659,93.893c-1.207,2.552-1.715,7.55-.785,10.378,1.89-.36,1.917-4.779,3.283-6.343,1.913-2.2,4.248-1.732,6.45-.472,3.752,2.149,9.7,6.031,13.775,2.258a7.618,7.618,0,0,1-1.994-1.107,4.284,4.284,0,0,0,3-.926A14.989,14.989,0,0,0,108.951,85.61c-4.288-1.173-10.246-.813-13.238,3.188-2.258,3.026-2.209,11.055.711,13.591Z" transform="translate(43.034 -21.61)" fill="#144998"/>
  <g id="Group_3471" data-name="Group 3471" transform="translate(29.979 292.542)">
    <g id="Group_3454" data-name="Group 3454" transform="translate(0 17.23)">
      <g id="Group_3453" data-name="Group 3453">
        <path id="Path_319" data-name="Path 319" d="M68.917,222.795c13.508,8.248,17.315,22.738,17.315,22.738s-18.094,1.119-31.605-7.131-17.318-22.74-17.318-22.74,18.1-1.115,31.609,7.133" transform="translate(-37.308 -215.611)" fill="#d8e081"/>
      </g>
    </g>
    <g id="Group_3456" data-name="Group 3456" transform="translate(45.625)">
      <g id="Group_3455" data-name="Group 3455">
        <path id="Path_320" data-name="Path 320" d="M64.78,253.49s.2-.092.557-.27c.287-.143.681-.345,1.158-.6,4.247-2.285,15.241-9,19.75-19.373,5.648-12.981-1.019-26.768-1.019-26.768s-14.538,6.676-20.71,18.665c-.272.515-.519,1.041-.756,1.583-4.907,11.291-.5,23.2.723,26.1.189.434.3.668.3.668" transform="translate(-61.493 -206.478)" fill="#00b0c4"/>
      </g>
    </g>
    <g id="Group_3461" data-name="Group 3461" transform="translate(45.63 18.666)" opacity="0.1" style="isolation: isolate">
      <g id="Group_3460" data-name="Group 3460">
        <g id="Group_3459" data-name="Group 3459" clip-path="url(#clip-path-6)">
          <g id="Group_3458" data-name="Group 3458" transform="translate(-0.005 0)">
            <g id="Group_3457" data-name="Group 3457">
              <path id="Path_321" data-name="Path 321" d="M64.482,244.051c.334.157.617.289.855.4.524.232.811.347.811.347s.14-.332.347-.949c1.139-3.36,4.414-15.072-1.066-25.823-.285-.566-.59-1.113-.913-1.653-.272.515-.519,1.043-.756,1.579-4.909,11.295-.5,23.2.723,26.1" transform="translate(-61.492 -216.372)"/>
            </g>
          </g>
        </g>
      </g>
    </g>
    <g id="Group_3466" data-name="Group 3466" transform="translate(18.957 18.608)" opacity="0.1" style="isolation: isolate">
      <g id="Group_3465" data-name="Group 3465">
        <g id="Group_3464" data-name="Group 3464" clip-path="url(#clip-path-7)">
          <g id="Group_3463" data-name="Group 3463" transform="translate(2.548 1.755)">
            <g id="Group_3462" data-name="Group 3462">
              <path id="Path_322" data-name="Path 322" d="M69.133,243.482c.394,0,.734,0,1.013,0,.611-.008.941-.021.941-.021s-.132-.379-.411-1.049c-1.519-3.684-7.408-16.2-19.978-23.976q-.985-.611-1.99-1.164c.151.606.332,1.213.53,1.826,4.2,12.845,16.718,22.176,19.9,24.383" transform="translate(-48.707 -217.272)"/>
            </g>
          </g>
        </g>
      </g>
    </g>
    <g id="Group_3468" data-name="Group 3468" transform="translate(22.886 1.5)">
      <g id="Group_3467" data-name="Group 3467">
        <path id="Path_324" data-name="Path 324" d="M52.518,234.045c6.48,12.719,22.746,19.29,22.746,19.29s5.763-14.055-.717-26.774S51.8,207.273,51.8,207.273s-5.76,14.057.719,26.772" transform="translate(-49.439 -207.273)" fill="#00abc4"/>
      </g>
    </g>
    <g id="Group_3470" data-name="Group 3470" transform="translate(25.167 1.989)" opacity="0.1">
      <g id="Group_3469" data-name="Group 3469">
        <path id="Path_325" data-name="Path 325" d="M74.239,252.665,51.061,207.532l-.413.142L73.83,252.805Z" transform="translate(-50.648 -207.532)"/>
      </g>
    </g>
  </g>
  <path id="Path_326" data-name="Path 326" d="M169.644,140.421l25.517,165.466,9.7-2.226s.506-166.409-10.029-165.287S169.644,140.421,169.644,140.421Z" transform="translate(109.991 25.683)" fill="#c2d5ed" opacity="0.3"/>
</svg>
