<svg id="Component_15_1" data-name="Component 15 – 1" xmlns="http://www.w3.org/2000/svg" width="283.688" height="262.486" viewBox="0 0 283.688 262.486">
  <g id="Group_4963" data-name="Group 4963">
    <g id="Group_4962" data-name="Group 4962">
      <path id="Path_1612" data-name="Path 1612" d="M-6039.443,4486.576c-.207-.68-.407-1.362-.606-2.045-.1-.353-.2-.705-.3-1.059-.191-.676-.382-1.353-.566-2.03-.1-.37-.2-.742-.3-1.113q-.263-.989-.52-1.98-.154-.606-.306-1.214c-.157-.631-.313-1.261-.464-1.893-.109-.452-.214-.906-.318-1.36-.136-.588-.274-1.174-.4-1.762-.117-.528-.23-1.057-.344-1.588s-.225-1.036-.332-1.555c-.136-.649-.263-1.3-.39-1.949-.08-.409-.165-.817-.243-1.225q-.305-1.6-.586-3.2c-3.333-19.026-4.16-38.81.69-57.515s15.828-36.3,32.27-46.467c11.65-7.2,28.326-9.62,38.323-.777a21.661,21.661,0,0,1,1.662,1.642c2.186,2.419,3.77,5.3,5.6,8,.386.571.784,1.132,1.189,1.686.12.163.243.322.364.481.292.39.585.779.887,1.16.147.186.3.37.448.555q.427.528.865,1.048c.158.187.318.371.478.557q.445.511.9,1.017c.158.174.316.349.476.522.32.349.646.693.975,1.037.146.153.291.305.438.457q.56.573,1.133,1.135c.106.106.212.213.319.318q1.506,1.467,3.086,2.872c.068.061.138.121.207.182q.673.6,1.356,1.184c.139.12.28.237.419.356q.587.5,1.179.993c.161.134.323.267.484.4q.573.472,1.149.938c.166.134.331.267.5.4q.587.472,1.18.938l.461.365q.64.5,1.285,1c.122.092.242.187.361.28q.81.623,1.622,1.242l.023.018c.025.018.048.037.071.054a49.877,49.877,0,0,1,8.813-10.065c13.371-11.126,32.892-10.175,49.946-6.773,20.746,4.139,42.841,12.573,52.831,31.221,5.043,9.434,6.345,20.425,6.433,31.133q.029,3.2-.079,6.408a72.834,72.834,0,0,1,4.926,5.638c.108.139.219.277.327.417.276.355.546.713.815,1.074q.254.337.5.678c.23.316.46.636.685.956.2.287.4.577.6.867s.384.561.571.842c.245.369.483.741.721,1.114.139.218.281.433.418.654q1.144,1.836,2.178,3.737c.073.134.143.269.214.4q.406.757.8,1.523c.091.18.179.36.268.542q.35.707.687,1.421c.093.2.184.395.274.593.217.471.426.945.634,1.421.083.2.168.388.252.585.212.5.416,1.012.619,1.52.065.168.134.333.2.5.26.677.515,1.354.754,2.037,8.017,22.728,4.043,48.8-8.279,69.506s-32.406,36.187-54.687,45.329a117.308,117.308,0,0,1-40.7,9.066c-33.357,1.04-66.046-14.858-88.909-39.17q-1.24-1.316-2.437-2.667c-.269-.3-.53-.6-.793-.9q-.813-.926-1.606-1.861-.426-.5-.848-1.008-.9-1.086-1.785-2.193c-.15-.188-.306-.375-.456-.564q-1.2-1.516-2.352-3.059a97.608,97.608,0,0,1-16.33-17.5c-5.52-7.628-10.1-16.461-10.1-25.877a32.1,32.1,0,0,1,.883-7.336c-.132-.42-.256-.843-.387-1.266C-6039.229,4487.276-6039.337,4486.928-6039.443,4486.576Z" transform="translate(6047.851 -4352.164)" fill="#f7f7f7"/>
    </g>
  </g>
  <g id="Group_4980" data-name="Group 4980" transform="translate(231.836 172.152)">
    <g id="Group_4964" data-name="Group 4964" transform="translate(5.8 33.971)">
      <path id="Path_1613" data-name="Path 1613" d="M-5614.872,4715.681c.449-.186.935-.531.908-1.013-.025-.54-.658-.821-1.2-.929a9.041,9.041,0,0,0-8.14,2.634l-.034.174a12.636,12.636,0,0,0-7.3-4.1c-.624-.108-1.386-.114-1.743.4a1.175,1.175,0,0,0,.034,1.263,2.921,2.921,0,0,0,.993.888,12.644,12.644,0,0,0,8.1,1.826l-.05-.24v0C-5620.541,4715.905-5617.49,4716.78-5614.872,4715.681Z" transform="translate(5632.548 -4712.393)" fill="#d8e081"/>
    </g>
    <g id="Group_4965" data-name="Group 4965" transform="translate(6 39.732)">
      <path id="Path_1614" data-name="Path 1614" d="M-5614.01,4728.47a1.479,1.479,0,0,0,.857-.514,1.1,1.1,0,0,0-.195-1.3,2.58,2.58,0,0,0-1.247-.65,8.664,8.664,0,0,0-8.348,2.271l-.13.285a13.705,13.705,0,0,0-7.075-5.895c-.625-.23-1.434-.36-1.848.153a1.114,1.114,0,0,0-.1,1.126,2.9,2.9,0,0,0,.729.927,14.52,14.52,0,0,0,8.338,3.8l-.012-.04c2.122.018,4.244.043,6.361.062A9.762,9.762,0,0,0-5614.01,4728.47Z" transform="translate(5632.199 -4722.46)" fill="#d8e081"/>
    </g>
    <g id="Group_4966" data-name="Group 4966" transform="translate(14.041 59.48)">
      <path id="Path_1615" data-name="Path 1615" d="M-5617.922,4758.268a20.489,20.489,0,0,0,8.858,2.062c.574,0,1.278-.091,1.516-.616.261-.572-.23-1.2-.744-1.565a7.512,7.512,0,0,0-4.874-1.15,22.611,22.611,0,0,0-4.981,1.138Z" transform="translate(5618.147 -4756.973)" fill="#d8e081"/>
    </g>
    <g id="Group_4967" data-name="Group 4967" transform="translate(5.998 20.975)">
      <path id="Path_1616" data-name="Path 1616" d="M-5616.623,4690.761c-.072-.655-.834-.982-1.49-1.054a6.329,6.329,0,0,0-4.12,1.153,10.844,10.844,0,0,0-2.941,3.167l0,.016a11.249,11.249,0,0,0-4.695-2.788,2.621,2.621,0,0,0-1.491.03,1.254,1.254,0,0,0-.845,1.129,1.66,1.66,0,0,0,.979,1.25c1.727.978,3.829.938,5.818.867l.347-.189a24.991,24.991,0,0,0,7.2-2.133C-5617.246,4691.917-5616.549,4691.437-5616.623,4690.761Z" transform="translate(5632.203 -4689.681)" fill="#d8e081"/>
    </g>
    <g id="Group_4968" data-name="Group 4968" transform="translate(11.397 15.074)">
      <path id="Path_1617" data-name="Path 1617" d="M-5614.655,4680.643a1.3,1.3,0,0,0-.678-.984,2.492,2.492,0,0,0-1.2-.288,6.138,6.138,0,0,0-3.515,1.148,14.71,14.71,0,0,0-2.721,2.565l.335-.007a36.643,36.643,0,0,0,5.869-.76,3.6,3.6,0,0,0,1.283-.508A1.38,1.38,0,0,0-5614.655,4680.643Z" transform="translate(5622.768 -4679.369)" fill="#d8e081"/>
    </g>
    <g id="Group_4969" data-name="Group 4969" transform="translate(15.236 51.129)">
      <path id="Path_1618" data-name="Path 1618" d="M-5608.187,4745.241a3.711,3.711,0,0,0,1.9-.209,1.268,1.268,0,0,0,.694-1.584,1.719,1.719,0,0,0-1.146-.726,10.611,10.611,0,0,0-9.317,2.014Z" transform="translate(5616.059 -4742.379)" fill="#d8e081"/>
    </g>
    <g id="Group_4970" data-name="Group 4970" transform="translate(2.839 15.868)">
      <path id="Path_1619" data-name="Path 1619" d="M-5629.023,4683.729l-.216.041a10.6,10.6,0,0,0-6.518-2.994,2.7,2.7,0,0,0-1.205.1,1.115,1.115,0,0,0-.756.871c-.063.645.589,1.118,1.182,1.385A11.192,11.192,0,0,0-5629.023,4683.729Z" transform="translate(5637.724 -4680.755)" fill="#d8e081"/>
    </g>
    <g id="Group_4971" data-name="Group 4971" transform="translate(0 0)">
      <path id="Path_1620" data-name="Path 1620" d="M-5634.569,4663.022a13.275,13.275,0,0,0-5.564-9.424,3.108,3.108,0,0,0-1.072-.535,1.278,1.278,0,0,0-1.136.24c-.542.5-.352,1.381-.044,2.044,1.524,3.3,4.712,5.477,7.755,7.491Z" transform="translate(5642.685 -4653.024)" fill="#d8e081"/>
    </g>
    <g id="Group_4972" data-name="Group 4972" transform="translate(5.485 27.977)">
      <path id="Path_1621" data-name="Path 1621" d="M-5624.276,4706.551a.63.63,0,0,1,.051-.068l-.061.011.023-.021a9.417,9.417,0,0,0-7.023-4.549c-.667-.042-1.481.1-1.741.717-.282.671.3,1.383.879,1.827a10.623,10.623,0,0,0,7.756,2.1l.052-.041Z" transform="translate(5633.1 -4701.918)" fill="#d8e081"/>
    </g>
    <g id="Group_4973" data-name="Group 4973" transform="translate(0.37 10.507)">
      <path id="Path_1622" data-name="Path 1622" d="M-5632.941,4674.928l.232-.144a18.592,18.592,0,0,0-3.408-2.388,8.463,8.463,0,0,0-4.01-1.007,2.625,2.625,0,0,0-1.228.267,1.233,1.233,0,0,0-.682,1c-.021.708.7,1.185,1.36,1.462A13.438,13.438,0,0,0-5632.941,4674.928Z" transform="translate(5642.038 -4671.387)" fill="#d8e081"/>
    </g>
    <g id="Group_4974" data-name="Group 4974" transform="translate(14.36 28.233)">
      <path id="Path_1623" data-name="Path 1623" d="M-5609.218,4703.063a1.4,1.4,0,0,0-1.055-.619,5.863,5.863,0,0,0-4.276,1.052,12.642,12.642,0,0,0-3.041,3.179,37.478,37.478,0,0,0,6.991-1.729,3.01,3.01,0,0,0,1.135-.669A1.108,1.108,0,0,0-5609.218,4703.063Z" transform="translate(5617.59 -4702.365)" fill="#d8e081"/>
    </g>
    <g id="Group_4975" data-name="Group 4975" transform="translate(6.997 45.036)">
      <path id="Path_1624" data-name="Path 1624" d="M-5622.279,4740.227a.48.48,0,0,1,.062-.046.437.437,0,0,1-.083-.009l-.023-.053a14.594,14.594,0,0,0-5.74-7.882,1.87,1.87,0,0,0-1.688-.424,1.507,1.507,0,0,0-.662,1.729,5.638,5.638,0,0,0,2.174,2.961,31.679,31.679,0,0,0,5.79,3.818v0l-.044.087c.027-.025.057-.047.084-.073.078.045.152.086.234.126Z" transform="translate(5630.458 -4731.73)" fill="#d8e081"/>
    </g>
    <g id="Group_4976" data-name="Group 4976" transform="translate(13.863 60.504)">
      <path id="Path_1625" data-name="Path 1625" d="M-5618.281,4758.86c-.059-.033-.118-.061-.177-.1.03.144.06.292.083.436Z" transform="translate(5618.458 -4758.762)" fill="#d8e081"/>
    </g>
    <g id="Group_4977" data-name="Group 4977" transform="translate(4.694 50.535)">
      <path id="Path_1626" data-name="Path 1626" d="M-5631.89,4741.7a3.065,3.065,0,0,0-1.236-.362,1.342,1.342,0,0,0-1.141.506,1.585,1.585,0,0,0-.154,1.264,6.218,6.218,0,0,0,1.825,2.818,29.319,29.319,0,0,0,7.283,5.379,16.4,16.4,0,0,0-2.043-5.406A10.955,10.955,0,0,0-5631.89,4741.7Z" transform="translate(5634.481 -4741.341)" fill="#d8e081"/>
    </g>
    <g id="Group_4978" data-name="Group 4978" transform="translate(2.315 59.375)">
      <path id="Path_1627" data-name="Path 1627" d="M-5638.445,4757.338a1.327,1.327,0,0,0-.153,1.035,3.141,3.141,0,0,0,.453.973,15.9,15.9,0,0,0,4.272,4.359,42.147,42.147,0,0,0,5.133,3.038l-.212.135a22.732,22.732,0,0,0,8.317,1.041,3.164,3.164,0,0,0,1.352-.3,1.142,1.142,0,0,0,.619-1.144c-.1-.476-.575-.773-1.018-.968a8.874,8.874,0,0,0-8.914,1.142v-.042a13.373,13.373,0,0,0-5.317-8.545,5.89,5.89,0,0,0-3.062-1.265A1.636,1.636,0,0,0-5638.445,4757.338Z" transform="translate(5638.639 -4756.789)" fill="#d8e081"/>
    </g>
    <g id="Group_4979" data-name="Group 4979" transform="translate(6.276 8.983)">
      <path id="Path_1628" data-name="Path 1628" d="M-5627.946,4732.792a80.031,80.031,0,0,0-3.66-62.721c-.6-1.208,1.38-1.931,1.972-.734a82.07,82.07,0,0,1,3.591,64.345C-5626.5,4734.948-5628.4,4734.051-5627.946,4732.792Z" transform="translate(5631.717 -4668.723)" fill="#d8e081"/>
    </g>
  </g>
  <g id="Group_4984" data-name="Group 4984" transform="translate(207.037 197.273)">
    <g id="Group_4981" data-name="Group 4981" transform="translate(34.636 49.205)">
      <path id="Path_1629" data-name="Path 1629" d="M-5625.011,4783.1c-.159-.06-.323-.119-.483-.18.03.153.064.3.1.456Z" transform="translate(5625.494 -4782.919)" fill="#1a9d9e"/>
    </g>
    <g id="Group_4982" data-name="Group 4982" transform="translate(0 0)">
      <path id="Path_1630" data-name="Path 1630" d="M-5651.389,4746.132c-.644-3.193.351-6.765,1.635-10.139,1.351-3.538,3.037-7.071,3.58-10.649a2.319,2.319,0,0,0-.454-2.2c-.744-.607-2.144-.271-3.031.458a7.582,7.582,0,0,0-1.864,2.7,25.066,25.066,0,0,0-2.107-13.617l-3.655,4.4a22.505,22.505,0,0,0-3.5-10.7c-.612-.948-1.6-1.947-2.932-1.609-1.474.377-2.106,2.037-2.415,3.365a22.492,22.492,0,0,0-13.494-10.827c-1.585-.491-3.686-.726-5.053.529-1.385,1.268-1.044,3.146-.525,4.6a58.56,58.56,0,0,0,6.024,12.236,8.838,8.838,0,0,0-3.968-.271c-1.383.308-2.808,1.421-2.875,2.652-.06,1.108.937,1.842,1.866,2.425q5.317,3.357,11.015,6.255c-1.673.207-3.84.8-4.226,2.305-.328,1.264.946,2.107,2.09,2.65q4.732,2.251,9.685,4.192a2.884,2.884,0,0,0-2.894,1.9,2.751,2.751,0,0,0,.909,2.9,9.163,9.163,0,0,0,2.941,1.516Z" transform="translate(5686.025 -4696.927)" fill="#78ded4"/>
    </g>
    <g id="Group_4983" data-name="Group 4983" transform="translate(8.296 5.597)">
      <path id="Path_1631" data-name="Path 1631" d="M-5670.611,4706.894a146.032,146.032,0,0,1,12.274,17.183,39.862,39.862,0,0,0,.241-6.751c-.034-.67,1.008-.585,1.041.078a39.988,39.988,0,0,1-.41,8.084h0q3.5,5.876,6.456,12.064.719-5.131,1.437-10.265c.092-.663,1.135-.588,1.041.079q-.8,5.728-1.6,11.46a.508.508,0,0,1-.146.287c1.13,2.438,2.218,4.9,3.212,7.4.249.621-.69,1.083-.939.458-1.048-2.636-2.2-5.221-3.4-7.783a.5.5,0,0,1-.114-.03l-7.651-3.863c-.592-.3-.248-1.286.353-.984q3.354,1.693,6.71,3.387c-2-4.148-4.165-8.208-6.538-12.147a.57.57,0,0,1-.231-.016,55.707,55.707,0,0,1-9.915-3.777c-.6-.294-.252-1.283.354-.984a55.719,55.719,0,0,0,9,3.5,145.947,145.947,0,0,0-11.966-16.7C-5671.834,4707.057-5671.041,4706.376-5670.611,4706.894Z" transform="translate(5671.527 -4706.709)" fill="#1da4af"/>
    </g>
  </g>
  <g id="Group_4987" data-name="Group 4987" transform="translate(243.906 194.509)">
    <g id="Group_4985" data-name="Group 4985" transform="translate(0 0)">
      <path id="Path_1632" data-name="Path 1632" d="M-5621.27,4722.251c-.683,1.482-.146,3.008.392,4.424q2.8,7.3,6.192,14.352l-.264.207q6.769-.013,13.546-.027a7.177,7.177,0,0,0,2.827-.376c1.448-.6,2.573-2.433.521-4.057a4.912,4.912,0,0,0-1.24-.694l-5.971-2.392c-.672-.27-1.466-.7-1.283-1.506a1.227,1.227,0,0,1,.781-.854,15.727,15.727,0,0,1,9.258-.56,7.249,7.249,0,0,0,2.649.384c1.2-.169,2.411-1.4,1.326-2.726a2.75,2.75,0,0,0-.864-.676,29.507,29.507,0,0,0-6.641-2.479c-1.2-.289-2.751-.935-2.387-2.233a1.614,1.614,0,0,1,1.21-1.108,21.3,21.3,0,0,1,8.285-.193,5.467,5.467,0,0,0,2.058.132c.935-.193,1.831-1.137,1.079-2.218a2.184,2.184,0,0,0-1.2-.812l-6.458-1.879c-.763-.224-1.669-.589-1.613-1.506a1.442,1.442,0,0,1,1.154-1.287,24.976,24.976,0,0,1,9.083-.247,3.873,3.873,0,0,0,2.83-.214,1.356,1.356,0,0,0,.643-1.3c-.116-.758-.845-1.032-1.493-1.236l-6.891-2.184a.48.48,0,0,1-.023-.909,18.63,18.63,0,0,1,8.486-.932,5.76,5.76,0,0,0,2.145.038c.978-.256,1.867-1.333.9-2.405a2.261,2.261,0,0,0-.952-.607,38.828,38.828,0,0,0-6.5-1.7q2.311-2.224,4.622-4.458c1.128-1.087,2.358-2.444,1.858-4.052a2.781,2.781,0,0,0-2.5-1.847c-1.913-.147-3.465,1.158-4.485,2.667a5.313,5.313,0,0,1-2.018,2.216,1.579,1.579,0,0,1-1.495-.069c-.756-.5-.667-1.442-.688-2.266-.017-.72-.3-1.593-1-1.718a1.322,1.322,0,0,0-1.05.355c-1.078.911-1.154,2.542-.956,3.938.238,1.709.749,3.516-.365,5.055a1.968,1.968,0,0,1-2.63.612c-.885-.572-.877-1.695-1.08-2.659s-1.017-2.037-2-1.527a1.491,1.491,0,0,0-.628.722c-.946,2.139-.318,4.527.068,6.8a10.011,10.011,0,0,1-.047,4.333,1.071,1.071,0,0,1-1.965.207l-2.417-4.336c-.27-.485-.6-1.015-1.251-.97a1.108,1.108,0,0,0-.845.542,2.873,2.873,0,0,0-.066,2.274q1.064,4.285,2.129,8.568c.247.99.448,2.177-.423,2.853a1.86,1.86,0,0,1-2.311-.137c-1.4-1.147-1.419-2.958-2.156-4.437-.443-.893-1.554-1.744-2.371-.9a1.441,1.441,0,0,0-.307,1.4,48.355,48.355,0,0,0,3.24,8.119,4.454,4.454,0,0,1,.748,3.3,1.564,1.564,0,0,1-1.693,1.17c-.78-.13-1.2-.914-1.523-1.612q-.766-1.641-1.53-3.287c-.521-1.118-1.229-2.392-2.565-2.373A2.167,2.167,0,0,0-5621.27,4722.251Z" transform="translate(5621.591 -4692.096)" fill="#78ded4"/>
    </g>
    <g id="Group_4986" data-name="Group 4986" transform="translate(7.703 0.294)">
      <path id="Path_1633" data-name="Path 1633" d="M-5608.116,4740.5a83.41,83.41,0,0,1,28.313-47.763c.513-.427,1.258.306.742.737a82.506,82.506,0,0,0-28.048,47.3C-5607.24,4741.438-5608.248,4741.159-5608.116,4740.5Z" transform="translate(5608.128 -4692.61)" fill="#1da4af"/>
    </g>
  </g>
  <g id="Group_4988" data-name="Group 4988" transform="translate(27.788 188.597)">
    <path id="Path_1634" data-name="Path 1634" d="M-5977.374,4739.631c.159-3.275,1.725-6.349,3.481-9.134,1.847-2.917,3.964-5.716,5.164-8.952a2.743,2.743,0,0,0,.1-2.261,2.02,2.02,0,0,0-2.551-.6,5.873,5.873,0,0,0-2.083,1.944,29.56,29.56,0,0,0,1.191-13.744l-3.894,2.955a27.826,27.826,0,0,0-.558-11.434c-.293-1.116-.882-2.411-2.031-2.545-1.272-.146-2.138,1.223-2.669,2.386a26.253,26.253,0,0,0-8.616-14.991c-1.18-1.013-2.828-1.96-4.2-1.231s-1.514,2.65-1.4,4.219a73.769,73.769,0,0,0,2.271,13.771,7.417,7.417,0,0,0-3.154-1.623,2.555,2.555,0,0,0-2.892,1.547,3.727,3.727,0,0,0,.994,2.961q3.59,5.039,7.585,9.768c-1.4-.377-3.28-.551-3.912.751-.534,1.1.318,2.34,1.128,3.253q3.353,3.78,6.945,7.337a2.033,2.033,0,0,0-2.744.823,3.31,3.31,0,0,0,.117,3.086,9.84,9.84,0,0,0,2.058,2.46Z" transform="translate(5999.287 -4681.763)" fill="#b5dc79"/>
  </g>
  <g id="Group_5001" data-name="Group 5001" transform="translate(11.813 197.85)">
    <g id="Group_4989" data-name="Group 4989" transform="translate(1.149 6.041)">
      <path id="Path_1635" data-name="Path 1635" d="M-6017.682,4710.33v-.068a.393.393,0,0,1-.046.038,8.272,8.272,0,0,0-6.237-1.692c-.547.11-1.172.407-1.229.965a1.008,1.008,0,0,0,.591.938,2.68,2.68,0,0,0,1.147.219,31.294,31.294,0,0,0,5.632-.471l.086.052,0,0,.059.032.108.063C-6017.609,4710.379-6017.645,4710.355-6017.682,4710.33Z" transform="translate(6025.198 -4708.49)" fill="#d8e081"/>
    </g>
    <g id="Group_4990" data-name="Group 4990" transform="translate(4.936 14.795)">
      <path id="Path_1636" data-name="Path 1636" d="M-6017.734,4724.485c-.423.184-.9.518-.841.977a.778.778,0,0,0,.507.58,2.147,2.147,0,0,0,.8.1,19.254,19.254,0,0,0,6.517-1.182l0-.407A8.719,8.719,0,0,0-6017.734,4724.485Z" transform="translate(6018.581 -4723.79)" fill="#d8e081"/>
    </g>
    <g id="Group_4991" data-name="Group 4991" transform="translate(3.266 6.481)">
      <path id="Path_1637" data-name="Path 1637" d="M-6008,4709.659c-.238-.444-.871-.461-1.357-.326a5.321,5.321,0,0,0-2.877,2.282,15.054,15.054,0,0,0-1.475,3.231,9.663,9.663,0,0,0-6.807-1.081c-.421.09-.912.291-.972.717a.864.864,0,0,0,.452.789,3.223,3.223,0,0,0,1.806.373,22.38,22.38,0,0,0,5.483-.7c-.01.029-.019.056-.029.084l.222-.079.059.024c-.018-.008-.034-.021-.051-.03l.243-.086a32.538,32.538,0,0,0,4.8-3.8C-6008.127,4710.681-6007.75,4710.127-6008,4709.659Z" transform="translate(6021.498 -4709.259)" fill="#d8e081"/>
    </g>
    <g id="Group_4992" data-name="Group 4992" transform="translate(8.033 19.917)">
      <path id="Path_1638" data-name="Path 1638" d="M-6008.34,4737.18a6.42,6.42,0,0,0-4.373,1.537c-.3.28-.592.722-.383,1.079.174.295.578.334.918.332a25.524,25.524,0,0,0,8.385-1.462l-.007.011-.049.281a17.776,17.776,0,0,0,6.874-3.636,3,3,0,0,0,.83-.987,1.179,1.179,0,0,0-.1-1.229,1.17,1.17,0,0,0-1-.36,2.973,2.973,0,0,0-1.037.348,12.352,12.352,0,0,0-5.467,5.465l-.035-.229A11.313,11.313,0,0,0-6008.34,4737.18Z" transform="translate(6013.167 -4732.741)" fill="#d8e081"/>
    </g>
    <g id="Group_4993" data-name="Group 4993" transform="translate(12.094 28.499)">
      <path id="Path_1639" data-name="Path 1639" d="M-6005.932,4758.442c.34.531,1.1.536,1.728.469a25.244,25.244,0,0,0,9.184-2.423l.219.125c2.843-.837,4.98-3.14,6.934-5.367a4.42,4.42,0,0,0,1.037-1.6,1.532,1.532,0,0,0-.508-1.721,2.076,2.076,0,0,0-2.111.314,13.119,13.119,0,0,0-5.556,8.151l-.4-.338a11.638,11.638,0,0,0-9.394.349,2.7,2.7,0,0,0-1.028.8A1.149,1.149,0,0,0-6005.932,4758.442Z" transform="translate(6006.07 -4747.739)" fill="#d8e081"/>
    </g>
    <g id="Group_4994" data-name="Group 4994" transform="translate(6.75 15.251)">
      <path id="Path_1640" data-name="Path 1640" d="M-6015.118,4729.886a.941.941,0,0,0-.275.822.957.957,0,0,0,.59.635,2.439,2.439,0,0,0,.882.137,23.47,23.47,0,0,0,6.761-1.23c-.013.028-.027.057-.039.088l.355-.124a8.3,8.3,0,0,0,6.142-4.1,1.894,1.894,0,0,0,.274-.728.757.757,0,0,0-.278-.694,1.1,1.1,0,0,0-1.049.07,10.788,10.788,0,0,0-5.378,5.422l.087-.254a8.083,8.083,0,0,0-7.313-.523A2.239,2.239,0,0,0-6015.118,4729.886Z" transform="translate(6015.409 -4724.586)" fill="#d8e081"/>
    </g>
    <g id="Group_4995" data-name="Group 4995">
      <path id="Path_1641" data-name="Path 1641" d="M-6020.76,4702.842a14.77,14.77,0,0,0-1.984-2.978,5.907,5.907,0,0,0-2.993-1.866,1.8,1.8,0,0,0-.886-.015.8.8,0,0,0-.578.615c-.053.411.3.747.634,1a26.978,26.978,0,0,0,5.7,3.348Z" transform="translate(6027.207 -4697.934)" fill="#d8e081"/>
    </g>
    <g id="Group_4996" data-name="Group 4996" transform="translate(16.241 33.138)">
      <path id="Path_1642" data-name="Path 1642" d="M-5998.743,4768.22a1.419,1.419,0,0,0,1.046.79,3.521,3.521,0,0,0,1.353-.046,32.12,32.12,0,0,0,8.919-3.474l.051.083a17.447,17.447,0,0,0,5.262-4.381,8.967,8.967,0,0,0,2.308-3.475,2.13,2.13,0,0,0,.077-1.006,1.1,1.1,0,0,0-.585-.788,1.588,1.588,0,0,0-1.31.208,10.194,10.194,0,0,0-4.006,3.935,15.6,15.6,0,0,0-1.8,5.121l-.285-.269a15.974,15.974,0,0,0-5.164-.488,9.7,9.7,0,0,0-4.85,1.713,3.111,3.111,0,0,0-.872.88A1.385,1.385,0,0,0-5998.743,4768.22Z" transform="translate(5998.823 -4755.847)" fill="#d8e081"/>
    </g>
    <g id="Group_4997" data-name="Group 4997" transform="translate(13.02 11.338)">
      <path id="Path_1643" data-name="Path 1643" d="M-5998.1,4718.7a.807.807,0,0,0-.179-.744,1.175,1.175,0,0,0-1.13-.123,7.678,7.678,0,0,0-5.046,4.506l.287-.026a20.408,20.408,0,0,0,3.1-.995,6.727,6.727,0,0,0,2.6-1.918A1.805,1.805,0,0,0-5998.1,4718.7Z" transform="translate(6004.451 -4717.748)" fill="#d8e081"/>
    </g>
    <g id="Group_4998" data-name="Group 4998" transform="translate(8.665 1.778)">
      <path id="Path_1644" data-name="Path 1644" d="M-6007.858,4701.182c-.237-.262-.668-.111-.968.076a7.046,7.046,0,0,0-3.236,5.818,15.067,15.067,0,0,0,4.148-5C-6007.769,4701.79-6007.643,4701.414-6007.858,4701.182Z" transform="translate(6012.062 -4701.042)" fill="#d8e081"/>
    </g>
    <g id="Group_4999" data-name="Group 4999" transform="translate(8.871 23.865)">
      <path id="Path_1645" data-name="Path 1645" d="M-5992.533,4739.818a1.576,1.576,0,0,0-1.164-.126,8.661,8.661,0,0,0-4.618,2.545,12.054,12.054,0,0,0-2.686,4.554,10.283,10.283,0,0,0-9.915.573c-.392.252-.805.607-.788,1.073a.984.984,0,0,0,.742.827,2.7,2.7,0,0,0,1.173,0,54.6,54.6,0,0,0,8.8-2.425l.041-.013.037.011a.3.3,0,0,0-.045-.02l.532-.035a44.848,44.848,0,0,0,7.037-4.354,3.336,3.336,0,0,0,1.116-1.146A1.179,1.179,0,0,0-5992.533,4739.818Z" transform="translate(6011.703 -4739.641)" fill="#d8e081"/>
    </g>
    <g id="Group_5000" data-name="Group 5000" transform="translate(5.443 3.746)">
      <path id="Path_1646" data-name="Path 1646" d="M-6017.566,4705.3c-.416-.463.288-1.127.706-.663,11.456,12.711,12.866,31.853,26.182,43.153.475.4-.237,1.062-.707.662C-6004.72,4737.136-6006.111,4718.011-6017.566,4705.3Z" transform="translate(6017.693 -4704.479)" fill="#d8e081"/>
    </g>
  </g>
  <g id="Group_5006" data-name="Group 5006" transform="translate(56.865 202.689)">
    <g id="Group_5002" data-name="Group 5002" transform="translate(4.192 42.952)">
      <path id="Path_1647" data-name="Path 1647" d="M-5941.146,4781.613l.421-.157c-.026.133-.057.265-.092.4Z" transform="translate(5941.146 -4781.456)" fill="#1a9d9e"/>
    </g>
    <g id="Group_5004" data-name="Group 5004" transform="translate(0 0)" opacity="0.4">
      <g id="Group_5003" data-name="Group 5003">
        <path id="Path_1648" data-name="Path 1648" d="M-5943.859,4749.344c.561-2.788-.307-5.905-1.427-8.852-1.179-3.086-2.651-6.171-3.125-9.294a2.03,2.03,0,0,1,.4-1.922,2.306,2.306,0,0,1,2.646.4,6.617,6.617,0,0,1,1.627,2.36,21.873,21.873,0,0,1,1.839-11.886l3.189,3.844a19.663,19.663,0,0,1,3.057-9.338,2.452,2.452,0,0,1,2.559-1.4c1.287.331,1.838,1.777,2.108,2.938a19.632,19.632,0,0,1,11.777-9.452c1.385-.428,3.218-.633,4.411.461s.912,2.747.458,4.015a51.078,51.078,0,0,1-5.258,10.682,7.725,7.725,0,0,1,3.464-.236c1.205.268,2.451,1.239,2.51,2.314.05.968-.82,1.609-1.629,2.118q-4.641,2.929-9.616,5.46c1.46.181,3.353.7,3.69,2.011.286,1.105-.827,1.84-1.825,2.314q-4.131,1.964-8.455,3.66a2.513,2.513,0,0,1,2.525,1.658,2.4,2.4,0,0,1-.793,2.533,8.006,8.006,0,0,1-2.567,1.323Z" transform="translate(5948.472 -4706.392)" fill="#1aa4bc"/>
      </g>
    </g>
    <g id="Group_5005" data-name="Group 5005" transform="translate(5.612 2.58)">
      <path id="Path_1649" data-name="Path 1649" d="M-5938.618,4747.951c.935-1.939,1.921-3.85,2.937-5.743a.387.387,0,0,1-.083-.211q-.609-6.52-1.221-13.038c-.055-.58.84-.761.9-.177q.568,6.059,1.135,12.117,2.432-4.421,5.161-8.659a.351.351,0,0,1-.022-.075q-.5-5.166-1.006-10.329c-.057-.581.839-.76.9-.176q.458,4.694.915,9.39,2.374-3.622,4.958-7.1a.468.468,0,0,1-.015-.153q.353-3.507.705-7.014a.456.456,0,0,1,.91.069q-.289,2.867-.576,5.735a144,144,0,0,1,9.756-11.553c.4-.428.992.267.594.69a142.742,142.742,0,0,0-9.928,11.788l5.148-1.242c.572-.137.746.759.177.9l-6.032,1.455a.4.4,0,0,1-.118,0q-2.437,3.294-4.7,6.717,3.061.435,6.12.873c.579.084.515.994-.068.91l-6.6-.943c-1.975,3.047-3.85,6.158-5.594,9.348l5.491.479a.457.457,0,0,1-.068.91l-5.905-.518c-1.041,1.93-2.05,3.878-3,5.855C-5938.01,4748.783-5938.872,4748.482-5938.618,4747.951Z" transform="translate(5938.664 -4710.901)" fill="#1da4af"/>
    </g>
  </g>
  <g id="Group_5026" data-name="Group 5026" transform="translate(48.953 15.586)">
    <g id="Group_5007" data-name="Group 5007" transform="translate(10.473 160.565)">
      <path id="Path_1650" data-name="Path 1650" d="M-5943.921,4703.36c3.614-2.137,6.441-5.412,8.9-8.828,2.547-3.535,4.8-7.289,7.689-10.555,5.292-5.991,12.442-10.025,19.811-13.131,3.326-1.4,6.8-2.676,9.508-5.072a14.508,14.508,0,0,0,3.914-5.692l.119-.069a21.378,21.378,0,0,0,5.553,5.621c.109.089.229.169.349.259.359.26.72.519,1.088.759a54.15,54.15,0,0,0,8.669,4.883,18.949,18.949,0,0,1-5.443,6.432,36.746,36.746,0,0,1-6.761,3.652c-14.527,6.651-28.937,14.33-40.092,25.784-2.376,2.455-4.612,5.072-7.229,7.29a3.794,3.794,0,0,1-2.268-1.22,14.985,14.985,0,0,1-2.326-2.635,7.859,7.859,0,0,1-.849-1.548A12.9,12.9,0,0,1-5943.921,4703.36Z" transform="translate(5943.996 -4660.013)" fill="#ffcc8b"/>
    </g>
    <g id="Group_5025" data-name="Group 5025" transform="translate(0 0)">
      <g id="Group_5008" data-name="Group 5008" transform="translate(0.736 230.879)">
        <path id="Path_1651" data-name="Path 1651" d="M-5960.648,4783.233c-.115-.112-.235-.224-.352-.337-.008.157-.013.312-.013.471Z" transform="translate(5961.013 -4782.896)" fill="#e2e729"/>
      </g>
      <g id="Group_5009" data-name="Group 5009" transform="translate(124.253 227.537)">
        <path id="Path_1652" data-name="Path 1652" d="M-5745.15,4792.882c.49,1.119,1.029,2.217,1.608,3.3l.041.24a114.1,114.1,0,0,0,26.571-8.139,20.817,20.817,0,0,0,3.514-1.877,11.631,11.631,0,0,0,4.844-9.347C-5719.845,4784.136-5732.568,4788.54-5745.15,4792.882Z" transform="translate(5745.15 -4777.055)" fill="#fff"/>
      </g>
      <g id="Group_5010" data-name="Group 5010" transform="translate(0 203.972)">
        <path id="Path_1653" data-name="Path 1653" d="M-5962.275,4738.368a3.835,3.835,0,0,0,.27,1.7,81.737,81.737,0,0,1,3.555,17.695,23.156,23.156,0,0,0,1.148,6.7c1.348,3.345,4.4,5.761,7.708,7.189a11.372,11.372,0,0,0,3.105.918,3.32,3.32,0,0,0,1.849-.189,3.02,3.02,0,0,0,1.5-2.936c-.01-.14-.02-.29-.04-.428l-.878.01a12.441,12.441,0,0,1-9.4-6.491,24.991,24.991,0,0,1-2.006-6.92q-1.8-9.705-3.595-19.4l-.11-.339c-.029.01-.05.02-.079.03C-5960.559,4736.332-5962.077,4737-5962.275,4738.368Z" transform="translate(5962.299 -4735.872)" fill="#fff"/>
      </g>
      <g id="Group_5011" data-name="Group 5011" transform="translate(3.129 201.546)">
        <path id="Path_1654" data-name="Path 1654" d="M-5949.411,4734c.049-.58.109-1.169.169-1.749l-.209-.618-7.38,2.426.11.339q1.8,9.691,3.6,19.4a24.96,24.96,0,0,0,2.006,6.92,12.438,12.438,0,0,0,9.4,6.491l.878-.01a13.033,13.033,0,0,0-.909-2.907,31.035,31.035,0,0,1-1.059-18.732l-.159-.26a2.4,2.4,0,0,1-.37.031,3.8,3.8,0,0,1-2.268-1.219,15,15,0,0,1-2.326-2.635,7.885,7.885,0,0,1-.848-1.548A12.888,12.888,0,0,1-5949.411,4734Z" transform="translate(5956.831 -4731.632)" fill="#1e4a97"/>
      </g>
      <g id="Group_5012" data-name="Group 5012" transform="translate(122.226 224.083)">
        <path id="Path_1655" data-name="Path 1655" d="M-5741.263,4779.3a14.41,14.41,0,0,1-6.891-.458,2.5,2.5,0,0,1-.259-.08,16.859,16.859,0,0,0,.339,7.529,27.021,27.021,0,0,0,1.408,4.014c12.582-4.343,25.3-8.747,36.578-15.827a10.156,10.156,0,0,0-.069-1.228,2.662,2.662,0,0,0-.569-1.527c-.71-.72-1.888-.5-2.857-.27a41.854,41.854,0,0,1-21.069-.43c0,.11-.01.21-.02.319a11.27,11.27,0,0,1-1.357,4.384,7.285,7.285,0,0,1-1.448,1.967,7.147,7.147,0,0,1-3.336,1.518Z" transform="translate(5748.693 -4771.018)" fill="#1e4a97"/>
      </g>
      <g id="Group_5013" data-name="Group 5013" transform="translate(95.755 13.401)">
        <path id="Path_1656" data-name="Path 1656" d="M-5794.953,4425.376l.228.149a16.858,16.858,0,0,1,5.244,2.438,27.54,27.54,0,0,1,1.028-4q3.983,3.04,7.987,6.061l.389.3a10.371,10.371,0,0,0,2.937,1.678,3.859,3.859,0,0,0,3.664-.549,5.421,5.421,0,0,0,1.268-1.977c3.3-7.6,4.575-15.948,4.744-24.236l-.089-.109a2.6,2.6,0,0,1-.361.29,3.364,3.364,0,0,1-2.217.339c-2.337-.289-4.423-1.547-6.631-2.346a7.826,7.826,0,0,0-3.264-.569,3.8,3.8,0,0,0-2.866,1.5,4.564,4.564,0,0,0-.5,3.365c.2,1.149.619,2.256.78,3.406a2.48,2.48,0,0,1-.062,1.267,1.094,1.094,0,0,1-.958.72c-.549-.011-.929-.541-1.208-1.02-.5-.869-1.011-1.738-1.519-2.6-.379-.659-.928-1.4-1.677-1.319a1.329,1.329,0,0,0-.809.471,2.755,2.755,0,0,0-.549,2.216,20.6,20.6,0,0,0,.549,2.288,9.406,9.406,0,0,1,.22,2.6c-.06,1.188-.509,2.536-1.628,2.926a1.91,1.91,0,0,1-2.227-1.019l-.309.07q-.688,2.727-1.387,5.452A9.039,9.039,0,0,1-5794.953,4425.376Z" transform="translate(5794.953 -4402.822)" fill="#ffcc8b"/>
      </g>
      <g id="Group_5014" data-name="Group 5014" transform="translate(62.295 52.411)">
        <path id="Path_1657" data-name="Path 1657" d="M-5853.421,4489.6a6.1,6.1,0,0,0,1.518,3.746q7.473,10.573,14.948,21.139l.33.15a15.236,15.236,0,0,0,.637-1.508,27.989,27.989,0,0,0,1.181-9.955h-.6c-.219-2.617-.607-5.342-2.175-7.439a7.454,7.454,0,0,1-1.608-2.567v-.009a8.126,8.126,0,0,0-1.569-1.658c-1.4-1.208-2.915-2.8-2.535-4.6a5.341,5.341,0,0,1,1.5-2.377c1.009-1.087,2.027-2.186,3.036-3.276a14.514,14.514,0,0,0,3.535-5.182h.03a25.041,25.041,0,0,1,.818-5.062,100.538,100.538,0,0,0-17.234,15.317A5.9,5.9,0,0,0-5853.421,4489.6Z" transform="translate(5853.43 -4470.999)" fill="#ffcc8b"/>
      </g>
      <g id="Group_5015" data-name="Group 5015" transform="translate(101.227 34.538)">
        <path id="Path_1658" data-name="Path 1658" d="M-5784.361,4439.762a27.606,27.606,0,0,0-1.029,4c.62.43,1.218.878,1.8,1.357a46.837,46.837,0,0,1,4.734,4.714c.289.229.569.469.858.709a22.068,22.068,0,0,1,1.319-4.274l.7-.151-.39-.3Q-5780.373,4442.8-5784.361,4439.762Z" transform="translate(5785.391 -4439.762)" fill="#ffad5f"/>
      </g>
      <g id="Group_5016" data-name="Group 5016" transform="translate(58.967 110.567)">
        <path id="Path_1659" data-name="Path 1659" d="M-5846.863,4587.014c.508-4.724.16-9.775,2.387-13.95,5.972-1.288,12.2.53,17.914,2.747,2.726,1.058,5.442,2.217,8.2,3.194a36.182,36.182,0,0,0,9.8,2.246,37.168,37.168,0,0,1,4.043,7.33c-1.277,5.382-4.633,10.006-8.058,14.349q-5.634,7.146-11.773,13.861c-.089.1-.18.2-.27.3-5.083,5.543-10.465,10.914-14.22,17.414l-.569.769c-.9-.348-1.777-.717-2.655-1.117a54.188,54.188,0,0,1-8.669-4.883c-.368-.24-.729-.5-1.088-.759-.119-.091-.239-.17-.349-.26a21.362,21.362,0,0,1-5.552-5.621,11.313,11.313,0,0,1-1.359-3.066l-.16-.071C-5854.562,4608.832-5848.08,4598.6-5846.863,4587.014Z" transform="translate(5859.246 -4572.635)" fill="#909797"/>
      </g>
      <g id="Group_5017" data-name="Group 5017" transform="translate(72.369 57.474)">
        <path id="Path_1660" data-name="Path 1660" d="M-5835.764,4490.681c-.379,1.807,1.138,3.4,2.535,4.6a8.149,8.149,0,0,1,1.569,1.657,1.946,1.946,0,0,1-.03-.59c.09-1.118,1.108-1.9,2.017-2.556s1.9-1.518,1.876-2.636h.17c-.028-1.747-.069-3.5-.108-5.253-.041-2-.071-4.043.069-6.061h-.03a14.531,14.531,0,0,1-3.535,5.182c-1.009,1.09-2.027,2.188-3.036,3.275A5.346,5.346,0,0,0-5835.764,4490.681Z" transform="translate(5835.823 -4479.846)" fill="#ffad5f"/>
      </g>
      <g id="Group_5018" data-name="Group 5018" transform="translate(73.256 88.978)">
        <path id="Path_1661" data-name="Path 1661" d="M-5807.682,4562.864a36.182,36.182,0,0,0,9.8,2.246c.049,0,.089.011.139.011h.03q1.544-14.5,2.456-29.049l-.149-1.167c-.358.041-.719.081-1.078.14l.029.2a17.066,17.066,0,0,1-4.613,3.994,115.2,115.2,0,0,1-33.022,15.008l-.09-.009a8.765,8.765,0,0,0-.029,2.287l.11.469c.11-.03.209-.05.31-.07,5.972-1.288,12.2.53,17.914,2.747C-5813.154,4560.727-5810.437,4561.886-5807.682,4562.864Z" transform="translate(5834.274 -4534.904)" fill="#19d3c5"/>
      </g>
      <g id="Group_5019" data-name="Group 5019" transform="translate(73.346 41.726)">
        <path id="Path_1662" data-name="Path 1662" d="M-5826.118,4463.011a25.025,25.025,0,0,0-.818,5.062c-.14,2.017-.11,4.064-.069,6.061.039,1.749.08,3.506.108,5.253q.166,7.2.32,14.4c.009.459.021.928.031,1.4a28,28,0,0,1-1.181,9.955,15.239,15.239,0,0,1-.638,1.508c-1,2.157-2.367,4.133-3.525,6.211a16.937,16.937,0,0,0-2.228,6.051l.09.01A115.2,115.2,0,0,0-5801,4503.911a17.067,17.067,0,0,0,4.613-3.995l-.03-.2c-5.251.729-10.565,1.868-15.837,1.9a12.748,12.748,0,0,1-6.591-1.377c-3.5-2.057-4.8-6.561-4.712-10.625s1.267-8.048,1.357-12.112c.06-2.6-.319-5.182-.439-7.789a23.93,23.93,0,0,1,2.016-11.583,15.386,15.386,0,0,1,3.576-4.733l-.98-1.068c-.389.36-.789.719-1.177,1.078a27.2,27.2,0,0,0-5.363,5.972A15.748,15.748,0,0,0-5826.118,4463.011Z" transform="translate(5834.116 -4452.325)" fill="#19d3c5"/>
      </g>
      <g id="Group_5020" data-name="Group 5020" transform="translate(83.898 40.039)">
        <path id="Path_1663" data-name="Path 1663" d="M-5815.671,4488.35c.1-4.063,1.268-8.048,1.357-12.112.06-2.6-.318-5.182-.439-7.789a23.94,23.94,0,0,1,2.017-11.584,15.386,15.386,0,0,1,3.576-4.732,12.214,12.214,0,0,1,5.151-2.756l.2.129a15.056,15.056,0,0,1,3.784,1.179,26.031,26.031,0,0,1,6.98,4.952,17.939,17.939,0,0,1,3.875,4.844,8.1,8.1,0,0,1,.68,6.032,6.457,6.457,0,0,1-6.331,4.322l-.271-.009a23.347,23.347,0,0,1-5.022,14.409,11.907,11.907,0,0,1,7.089,1.838,26,26,0,0,0,3.046,1.966,8.047,8.047,0,0,0,3.335.63,15.9,15.9,0,0,0,1.827-.12,23.956,23.956,0,0,0,13.382-6.22,1.882,1.882,0,0,1,1.317-.7c.829.069,1.128,1.149,1.058,1.978s-.21,1.808.41,2.367c.769.7,2.007.129,3.026.339a2.652,2.652,0,0,1,1.857,2.357,7.48,7.48,0,0,1-.53,3.126c-.04.119-.079.229-.12.348-.918,2.736-2.4,5.732-5.2,6.2a10.134,10.134,0,0,1-4.286-.65c-4.442-1.187-8.966-.979-13.549-.379-.359.041-.719.081-1.079.141-5.251.729-10.565,1.867-15.836,1.9a12.738,12.738,0,0,1-6.591-1.377C-5814.463,4496.917-5815.761,4492.415-5815.671,4488.35Z" transform="translate(5815.676 -4449.377)" fill="#ffcc8b"/>
      </g>
      <g id="Group_5021" data-name="Group 5021" transform="translate(89.433 35.955)">
        <path id="Path_1664" data-name="Path 1664" d="M-5786.868,4451.806c-.271-.311-.539-.609-.81-.909a46.9,46.9,0,0,0-4.734-4.714c-.578-.479-1.177-.927-1.8-1.357a16.842,16.842,0,0,0-5.243-2.437l-.229-.149c-.062.089-.11.17-.171.259l-.129.01c-2.018,1.838-4.015,3.665-6.022,5.5l.979,1.068a12.219,12.219,0,0,1,5.151-2.755l.2.129a15.037,15.037,0,0,1,3.784,1.179,26.033,26.033,0,0,1,6.98,4.952,17.937,17.937,0,0,1,3.874,4.844,8.1,8.1,0,0,1,.68,6.032,6.456,6.456,0,0,1-6.33,4.322l-.271-.009a23.354,23.354,0,0,1-5.021,14.409,11.9,11.9,0,0,1,7.089,1.838,26.181,26.181,0,0,0,3.046,1.965,8.049,8.049,0,0,0,3.336.63,75.71,75.71,0,0,0,2.036-23.557,17.2,17.2,0,0,0-.789-4.563c-1.019-2.806-3.266-4.942-5.562-6.889C-5786.839,4451.675-5786.85,4451.735-5786.868,4451.806Z" transform="translate(5806.002 -4442.239)" fill="#19d3c5"/>
      </g>
      <g id="Group_5022" data-name="Group 5022" transform="translate(93.857 126.514)">
        <path id="Path_1665" data-name="Path 1665" d="M-5789.022,4640.915a22.1,22.1,0,0,0,2.9-.6c1.737-.48,3.384-1.219,5.1-1.769h.009a25.86,25.86,0,0,1,10.694-1.087c.56.06,1.119.129,1.678.239l.051-.29c-3.935-12.113-4.853-25.133-9.826-36.856-.01-.02-.01-.029-.021-.049-1.277,5.381-4.633,10.006-8.058,14.349q-5.634,7.146-11.772,13.86l.659.6a37.463,37.463,0,0,0,3.136,7.568c.737,1.468,1.486,2.935,2.226,4.414C-5791.17,4641.195-5790.092,4641.085-5789.022,4640.915Z" transform="translate(5798.27 -4600.504)" fill="#67696d"/>
      </g>
      <g id="Group_5023" data-name="Group 5023" transform="translate(94.826)">
        <path id="Path_1666" data-name="Path 1666" d="M-5794.779,4393.091a30.254,30.254,0,0,1-1.379,3.164,8.233,8.233,0,0,0,.25,5.792,22.149,22.149,0,0,0,2.708,4.763l-.132.09a1.62,1.62,0,0,0,.16.719,1.908,1.908,0,0,0,2.226,1.019c1.119-.39,1.569-1.738,1.629-2.926a9.421,9.421,0,0,0-.221-2.6,20.878,20.878,0,0,1-.549-2.288,2.762,2.762,0,0,1,.549-2.216,1.328,1.328,0,0,1,.81-.47c.75-.079,1.3.66,1.678,1.318.508.858,1.018,1.727,1.519,2.6.278.479.657,1.009,1.207,1.019a1.1,1.1,0,0,0,.959-.719,2.487,2.487,0,0,0,.061-1.268c-.161-1.15-.58-2.258-.78-3.406a4.57,4.57,0,0,1,.5-3.365,3.8,3.8,0,0,1,2.866-1.5,7.83,7.83,0,0,1,3.265.569c2.208.8,4.294,2.058,6.631,2.346a3.359,3.359,0,0,0,2.217-.339,2.582,2.582,0,0,0,.36-.289,4.912,4.912,0,0,1,1.1-.9c.919-.43,2.059.06,2.986-.35a2.974,2.974,0,0,0,1.388-2.257,8.687,8.687,0,0,0,.061-3.794,4.961,4.961,0,0,0-2.068-3.1c-1.347-.869-3.055-.859-4.644-1.1a13.522,13.522,0,0,1-4.8-1.708c-1.437-.838-2.765-1.957-4.383-2.356a6.466,6.466,0,0,0-4.981,1.029,11.009,11.009,0,0,0-3.416,3.914,4.84,4.84,0,0,0-4.193-.749" transform="translate(5796.577 -4379.403)" fill="#1e4a97"/>
      </g>
      <g id="Group_5024" data-name="Group 5024" transform="translate(103.104 163.32)">
        <path id="Path_1667" data-name="Path 1667" d="M-5779.214,4667.834c1.737-.48,3.384-1.219,5.1-1.769h.009a25.859,25.859,0,0,1,10.694-1.087c2.007,3.375,2.647,7.408,2.767,11.332.12,3.955-.24,7.918-.041,11.873.34,6.681,2.267,13.172,4.185,19.582,1.836,6.151,3.734,12.422,7.259,17.753.089.131.179.261.27.39a11.263,11.263,0,0,1-1.357,4.384,7.272,7.272,0,0,1-1.448,1.967,7.152,7.152,0,0,1-3.336,1.518l-.449.089a14.4,14.4,0,0,1-6.891-.458l.041-.12a92.757,92.757,0,0,0-7.349-20.35,63.556,63.556,0,0,1-2.926-5.762c-3.424-8.418-1.278-18.253-4.494-26.751-1.537-4.055-4.274-7.749-4.932-11.993A22.209,22.209,0,0,0-5779.214,4667.834Z" transform="translate(5782.11 -4664.828)" fill="#ffcc8b"/>
      </g>
    </g>
  </g>
  <g id="Group_5027" data-name="Group 5027" transform="translate(34.831 189.998)">
    <path id="Path_1668" data-name="Path 1668" d="M-5985.759,4684.578a181.845,181.845,0,0,1,13.286,54.538c.07.821-1.2,1.07-1.271.242a180.67,180.67,0,0,0-13.18-54.218C-5987.243,4684.372-5986.078,4683.81-5985.759,4684.578Z" transform="translate(5986.979 -4684.211)" fill="#76bc21"/>
  </g>
</svg>
