<svg id="Component_33_1" data-name="Component 33 – 1" xmlns="http://www.w3.org/2000/svg" width="242.367" height="211.618" viewBox="0 0 242.367 211.618">
  <g id="Group_6796" data-name="Group 6796" transform="translate(-76.111 -356.311)">
    <path id="Path_2790" data-name="Path 2790" d="M248.529,555.818c.52-.216,1.039-.44,1.553-.666q.4-.174.8-.349c.512-.226,1.017-.453,1.526-.684.278-.125.556-.253.83-.38.493-.227.982-.454,1.473-.685q.447-.213.892-.43c.466-.224.929-.446,1.39-.676.332-.162.661-.329.99-.494q.642-.321,1.281-.645c.382-.2.763-.4,1.142-.6s.747-.388,1.117-.584c.464-.246.922-.5,1.385-.75l.872-.472q1.125-.623,2.244-1.261c13.29-7.6,25.772-17.12,34.722-29.55s14.12-28.037,11.993-43.209c-1.511-10.753-8.481-22.145-18.935-23.765a18.432,18.432,0,0,0-1.843-.182,55.574,55.574,0,0,0-7.713.638c-.544.055-1.086.1-1.63.128-.159.01-.319.015-.477.022-.386.019-.773.037-1.156.046q-.283.006-.567.009c-.358,0-.718.006-1.076,0-.193,0-.388,0-.579-.009-.36-.007-.717-.018-1.076-.033l-.563-.025c-.376-.021-.749-.043-1.124-.071-.169-.012-.336-.021-.5-.035q-.631-.051-1.263-.115c-.119-.013-.238-.021-.357-.033q-1.656-.176-3.312-.427l-.217-.036c-.47-.07-.939-.147-1.409-.228-.143-.022-.287-.049-.43-.074-.4-.069-.8-.142-1.2-.216l-.49-.093q-.577-.109-1.153-.227-.25-.047-.5-.1c-.391-.081-.78-.162-1.17-.246-.152-.031-.3-.064-.457-.1-.418-.089-.84-.184-1.259-.276l-.354-.079c-.528-.119-1.053-.237-1.58-.36-.005,0-.013,0-.022,0s-.046-.011-.068-.018a39.473,39.473,0,0,0,1.674-10.472c.012-13.788-10.454-25.209-21.164-33.885-13.032-10.554-29.366-19.757-45.795-16.4-8.309,1.7-15.668,6.473-22.243,11.844q-1.966,1.605-3.867,3.292a57.888,57.888,0,0,0-5.934-.145c-.14,0-.28,0-.421.008-.355.012-.709.029-1.066.048-.223.012-.446.023-.669.038-.308.02-.62.041-.929.066-.279.023-.556.048-.833.073s-.535.05-.8.079c-.351.038-.7.079-1.045.123-.2.028-.407.048-.611.077q-1.7.232-3.382.563l-.355.075c-.445.09-.887.184-1.332.286-.156.035-.31.073-.464.111q-.61.143-1.214.3c-.166.044-.334.088-.5.134-.4.107-.792.219-1.189.333-.162.049-.323.095-.483.145-.417.125-.83.256-1.243.392-.134.043-.271.085-.405.131-.544.184-1.086.371-1.624.572-17.921,6.621-31.8,22.248-38.19,40.25s-5.654,38.085.055,56.3a92.994,92.994,0,0,0,15.082,29.406c16.258,20.87,42.508,32.751,68.912,34.379.955.059,1.906.1,2.861.136.316.013.634.02.953.028.649.016,1.3.029,1.946.035.349,0,.7.007,1.045.007.747,0,1.494-.007,2.242-.021.192-.005.383-.005.576-.011q1.529-.038,3.054-.113a77.61,77.61,0,0,0,18.94,1.095c7.447-.5,15.158-2.174,20.892-6.949a25.457,25.457,0,0,0,4.028-4.254c.322-.133.643-.271.967-.4C247.993,556.043,248.263,555.933,248.529,555.818Z" fill="#c9e2e2"/>
  </g>
  <g id="Group_6806" data-name="Group 6806" transform="translate(-76.111 -356.311)">
    <g id="Group_6797" data-name="Group 6797">
      <path id="Path_2791" data-name="Path 2791" d="M247.868,411.68c-.784,2.681-1.052,2.606-.766-.179.485-6.7-1.846-14.178-6.525-20.623-1.976-2.708-2.368-4.416-.963-4.589a.593.593,0,0,0,.15-.009c1.343-.162,3.928,1.49,5.515,4.465A29.428,29.428,0,0,1,247.868,411.68Z" fill="#405933"/>
    </g>
    <g id="Group_6798" data-name="Group 6798">
      <path id="Path_2792" data-name="Path 2792" d="M267.207,484.912c.289-11.369-1.489-15.291-5.163-28.906-4.233-15.657.007-26.9-2.181-35.524-1.376-5.4-6.311-8.4-10.345-10.049a13.882,13.882,0,0,0-2.089-.776,14.1,14.1,0,0,0-2.206-.413c-4.3-.654-10.075-.627-14.033,3.3-6.317,6.272-8.46,18.089-20.137,29.346-10.156,9.783-13.691,12.237-19.3,22.132-7.842,13.855-5.68,28.762,6.059,36.024,11.951,7.394,18.264,7.035,23.032,5.6,3.359,3.683,8.575,7.231,22.647,7.043C257.275,512.5,266.811,500.834,267.207,484.912Z" fill="#fbca12"/>
    </g>
    <g id="Group_6801" data-name="Group 6801">
      <g id="Group_6799" data-name="Group 6799">
        <path id="Path_2793" data-name="Path 2793" d="M244.881,399.629c-2.815-1.366-3.818-7.944-10.267-9.3-14.086-2.975-20.583,8.788-20.583,8.788,7.557-4.052,8.814,5.868,17.035,7.824C238.543,408.724,242.819,403.223,244.881,399.629Z" fill="#71831f"/>
      </g>
      <g id="Group_6800" data-name="Group 6800">
        <path id="Path_2794" data-name="Path 2794" d="M244.877,399.653a20.757,20.757,0,0,1-14.141-2.388c-7.428-4.115-13.059-1.288-16.433,1.725,7.305-3.656,8.64,6.023,16.763,7.949C238.534,408.722,242.809,403.236,244.877,399.653Z" fill="#405933"/>
      </g>
    </g>
    <g id="Group_6804" data-name="Group 6804">
      <g id="Group_6802" data-name="Group 6802">
        <path id="Path_2795" data-name="Path 2795" d="M293.123,386.706c-9.657,3.858-15.492-2.689-29.959,1.26-16.24,4.44-14.795,20.1-14.795,20.1.2-.718,3.951-3.121,7.469-2.8,10.806.988,17.1,6.457,27.851,1.747C291.628,403.536,293.123,386.706,293.123,386.706Z" fill="#71831f"/>
      </g>
      <g id="Group_6803" data-name="Group 6803">
        <path id="Path_2796" data-name="Path 2796" d="M255.838,405.267c10.806.988,17.1,6.457,27.851,1.747,7.733-3.391,9.34-19.387,9.43-20.227-4.249,5.023-1.635,13.371-30.75,10.478-10.174-1.007-13.164,5.493-14.021,10.191.006.39.021.61.021.61C248.571,407.348,252.32,404.945,255.838,405.267Z" fill="#405933"/>
      </g>
    </g>
    <g id="Group_6805" data-name="Group 6805">
      <path id="Path_2797" data-name="Path 2797" d="M267.207,484.912c.289-11.369-1.489-15.291-5.163-28.906-4.233-15.657.007-26.9-2.181-35.524-1.376-5.4-6.311-8.4-10.345-10.049a13.882,13.882,0,0,0-2.089-.776c-.063-.018-.125-.035-.18-.048l-26.612,96.106a1.963,1.963,0,0,0,.206-.066c3.359,3.683,8.575,7.231,22.647,7.043C257.275,512.5,266.811,500.834,267.207,484.912Z" fill="#f6aa16"/>
    </g>
  </g>
  <g id="Group_6813" data-name="Group 6813" transform="translate(-76.111 -356.311)">
    <g id="Group_6807" data-name="Group 6807">
      <path id="Path_2798" data-name="Path 2798" d="M279.7,455.978c-22.73,33.557-42.255,60.013-43.614,59.1s15.982-28.856,38.706-62.418,42.254-60.024,43.607-59.113C319.763,394.475,302.434,422.413,279.7,455.978Z" fill="#2d4124"/>
    </g>
    <g id="Group_6808" data-name="Group 6808">
      <path id="Path_2799" data-name="Path 2799" d="M273.354,458.777c-20.188,32.324-37.68,57.944-39.05,57.235s13.871-27.5,34.079-59.828,37.683-57.953,39.066-57.231C308.815,399.666,293.555,426.452,273.354,458.777Z" fill="#405933"/>
    </g>
    <g id="Group_6809" data-name="Group 6809">
      <path id="Path_2800" data-name="Path 2800" d="M279.085,460.385c-22.477,30.786-41.647,54.934-42.829,53.93s16.085-26.789,38.559-57.575,41.654-54.93,42.828-53.931S301.559,429.594,279.085,460.385Z" fill="#405933"/>
    </g>
    <g id="Group_6810" data-name="Group 6810">
      <path id="Path_2801" data-name="Path 2801" d="M270.128,500.842a36.525,36.525,0,0,1,4.115-31.994,55.085,55.085,0,0,0-8.6,4.98,54.266,54.266,0,0,0,1.678-17.942,36.617,36.617,0,0,1-31.579,21.68,36.658,36.658,0,1,0,34.384,23.276Z" fill="#efeddb"/>
    </g>
    <g id="Group_6812" data-name="Group 6812">
      <g id="Group_6811" data-name="Group 6811">
        <path id="Path_2802" data-name="Path 2802" d="M270.128,500.842a36.525,36.525,0,0,1,4.115-31.994,55.085,55.085,0,0,0-8.6,4.98c.218-.812.361-1.615.532-2.427a36.7,36.7,0,0,0-.955,26.125,36.655,36.655,0,0,1-52.168,45.285c.769.614,1.555,1.207,2.379,1.767a36.663,36.663,0,0,0,54.695-43.736Z" fill="#e1d6aa"/>
      </g>
    </g>
  </g>
  <g id="Group_6827" data-name="Group 6827" transform="translate(-76.111 -356.311)">
    <g id="Group_6814" data-name="Group 6814">
      <path id="Path_2803" data-name="Path 2803" d="M182.215,484.223c1.025,2.172-.8,6.425-4.291,7.7a14.626,14.626,0,0,1-9.926,0c-3.485-1.27-5.317-5.523-4.292-7.7a69.421,69.421,0,0,0,4.769-20.148c.187-2.266,1.238-5.085,2.556-5.586a5.711,5.711,0,0,1,3.86,0c1.311.5,2.366,3.32,2.562,5.586A69.18,69.18,0,0,0,182.215,484.223Z" fill="#869b2a"/>
    </g>
    <g id="Group_6815" data-name="Group 6815">
      <path id="Path_2804" data-name="Path 2804" d="M177.453,464.075c-.2-2.266-1.251-5.085-2.562-5.586a5.865,5.865,0,0,0-1.321-.279,10.958,10.958,0,0,0-.325,1.893,69.219,69.219,0,0,1-4.765,20.139c-1.031,2.177.8,6.426,4.292,7.7a14.53,14.53,0,0,0,9.09.219,4.869,4.869,0,0,0,.353-3.942A69.18,69.18,0,0,1,177.453,464.075Z" fill="#71831f"/>
    </g>
    <g id="Group_6826" data-name="Group 6826">
      <g id="Group_6816" data-name="Group 6816">
        <path id="Path_2805" data-name="Path 2805" d="M172.336,518.855c0,24.755,12.541,44.828,28.01,44.828s28.011-20.073,28.011-44.828-12.542-44.826-28.011-44.826S172.336,494.1,172.336,518.855Z" fill="#f6aa16"/>
      </g>
      <g id="Group_6817" data-name="Group 6817">
        <path id="Path_2806" data-name="Path 2806" d="M198.8,563.554c13.193-1.3,23.685-20.78,23.685-44.7s-10.492-43.4-23.685-44.7c-14.745,1.3-26.463,20.785-26.463,44.7S184.054,562.259,198.8,563.554Z" fill="#e29817"/>
      </g>
      <g id="Group_6818" data-name="Group 6818">
        <path id="Path_2807" data-name="Path 2807" d="M162.1,518.855c0,26.151,11.942,47.346,26.679,47.346s26.681-21.2,26.681-47.346-11.946-47.347-26.681-47.347S162.1,492.706,162.1,518.855Z" fill="#f6aa16"/>
      </g>
      <g id="Group_6819" data-name="Group 6819">
        <path id="Path_2808" data-name="Path 2808" d="M186.354,566c11.336-2.173,20.226-22.444,20.226-47.146s-8.89-44.976-20.226-47.149c-13.6,2.173-24.259,22.444-24.259,47.149S172.758,563.828,186.354,566Z" fill="#e29817"/>
      </g>
      <g id="Group_6824" data-name="Group 6824">
        <g id="Group_6820" data-name="Group 6820">
          <path id="Path_2809" data-name="Path 2809" d="M173.585,518.855c0,24.755-12.546,44.828-28.012,44.828s-28-20.073-28-44.828,12.536-44.826,28-44.826S173.585,494.1,173.585,518.855Z" fill="#f6aa16"/>
        </g>
        <g id="Group_6821" data-name="Group 6821">
          <path id="Path_2810" data-name="Path 2810" d="M147.125,563.554c-13.2-1.3-23.685-20.78-23.685-44.7s10.487-43.4,23.685-44.7c14.74,1.3,26.46,20.785,26.46,44.7S161.865,562.259,147.125,563.554Z" fill="#e29817"/>
        </g>
        <g id="Group_6822" data-name="Group 6822">
          <path id="Path_2811" data-name="Path 2811" d="M183.826,518.855c0,26.151-11.945,47.346-26.677,47.346s-26.687-21.2-26.687-47.346,11.951-47.347,26.687-47.347S183.826,492.706,183.826,518.855Z" fill="#f6aa16"/>
        </g>
        <g id="Group_6823" data-name="Group 6823">
          <path id="Path_2812" data-name="Path 2812" d="M159.567,566c-11.337-2.173-20.219-22.444-20.219-47.146s8.882-44.976,20.219-47.149c13.6,2.173,24.259,22.444,24.259,47.149S173.166,563.828,159.567,566Z" fill="#e29817"/>
        </g>
      </g>
      <g id="Group_6825" data-name="Group 6825">
        <path id="Path_2813" data-name="Path 2813" d="M195.4,518.855c0,26.151-10.049,47.346-22.442,47.346s-22.442-21.2-22.442-47.346,10.052-47.347,22.442-47.347S195.4,492.706,195.4,518.855Z" fill="#f6aa16"/>
      </g>
    </g>
  </g>
  <g id="Group_6828" data-name="Group 6828" transform="translate(-76.111 -356.311)">
    <path id="Path_2814" data-name="Path 2814" d="M262.152,376.446a21.9,21.9,0,0,1,12.036-2.04c11.925,1.283,13.724-15.714,1.955-17.886-6.4-1.184-13.012,2.828-16.788,7.753-4.906,6.4-6.084,14.11-7.807,21.766.822-3.651,6.622-7.5,9.65-9.111C261.516,376.759,261.832,376.6,262.152,376.446Z" fill="#c9e2e2"/>
  </g>
  <g id="Group_6829" data-name="Group 6829" transform="translate(-76.111 -356.311)">
    <path id="Path_2815" data-name="Path 2815" d="M123.206,404.659c2.629-3.569,4.528-8.419,2.5-12.356-2.185-4.238-7.693-5.3-12.452-5.551-7.422-.4-15.062-.017-21.926,2.831S78.45,398.1,76.711,405.322c-1,4.16-.55,8.516-.1,12.769.765,7.16,5.311,51.58,14.8,28.02,3.4-8.444,3.292-14.643,10.12-21.826C108.279,417.19,117.317,412.66,123.206,404.659Z" fill="#c9e2e2"/>
  </g>
</svg>
