<svg xmlns="http://www.w3.org/2000/svg" xmlns:xlink="http://www.w3.org/1999/xlink" viewBox="0 0 192 144"><defs><style>.cls-1{fill:none;}.cls-2{isolation:isolate;}.cls-3{clip-path:url(#clip-path);}.cls-4{fill:#1a2833;}.cls-5{fill:#f5aa87;}.cls-6{fill:#bb7230;}.cls-7{fill:#c88d57;}.cls-8,.cls-9{fill:#edf0f2;}.cls-9{opacity:0.5;mix-blend-mode:overlay;}</style><clipPath id="clip-path"><rect class="cls-1" x="-0.4" y="-0.2" width="191.99" height="144"/></clipPath></defs><g class="cls-2"><g id="Capa_1" data-name="Capa 1"><g class="cls-3"><path class="cls-4" d="M63.88,107.92V53A31.76,31.76,0,0,1,95.64,21.18h0A31.76,31.76,0,0,1,127.41,53v55Z"/><path class="cls-5" d="M48.34,191.22,50.7,174c.77.27,1.56.5,2.38.71l1.15,16.52H137l1.15-16.52c.82-.21,1.61-.44,2.37-.71l2.36,17.23h19.39L162,166.37c-.34-30-7.9-46.44-17.78-55.82C133.92,99.53,116,95.8,95.61,95.8S57.29,99.53,47,110.55c-9.87,9.38-17.43,25.78-17.77,55.82L29,191.22Z"/><path class="cls-6" d="M95.61,114.39h0a12.64,12.64,0,0,0,12.64-12.64V76.5H83v25.25A12.64,12.64,0,0,0,95.61,114.39Z"/><rect class="cls-7" x="73.85" y="31.24" width="43.52" height="62.65" rx="21.76"/><path class="cls-8" d="M89.58,83.13a3.62,3.62,0,0,0,3.48,2.16h5.29a3.62,3.62,0,0,0,3.48-2.16Z"/><path class="cls-4" d="M69.88,35.09c5-10.73,23.78-18.43,39.15-11.25s21.5,26.51,16.49,37.24Z"/><path class="cls-1" d="M95.57,20.56Z"/><path class="cls-9" d="M48.21,16.16h-37a3.87,3.87,0,0,1-3.88-3.88h0A3.88,3.88,0,0,1,11.19,8.4h37a3.88,3.88,0,0,1,3.88,3.88h0A3.88,3.88,0,0,1,48.21,16.16Z"/></g></g></g></svg>