<?xml version="1.0" encoding="utf-8"?>
<!-- Generator: Adobe Illustrator 25.2.1, SVG Export Plug-In . SVG Version: 6.00 Build 0)  -->
<svg version="1.1" id="Capa_1" xmlns="http://www.w3.org/2000/svg" xmlns:xlink="http://www.w3.org/1999/xlink" x="0px" y="0px"
	 viewBox="0 0 141 117" style="enable-background:new 0 0 141 117;" xml:space="preserve">
<style type="text/css">
	.st0{opacity:3.000000e-02;fill-rule:evenodd;clip-rule:evenodd;fill:#0033A0;enable-background:new    ;}
	.st1{opacity:0.16;fill:#0033A0;enable-background:new    ;}
	.st2{fill:none;stroke:#FFFFFF;stroke-width:0.49;stroke-linecap:round;stroke-linejoin:round;}
	
		.st3{opacity:0.28;fill:none;stroke:#0033A0;stroke-width:1.91;stroke-linecap:round;stroke-linejoin:round;stroke-dasharray:0.1;enable-background:new    ;}
	.st4{fill:#0033A0;}
	.st5{fill:#FFFFFF;enable-background:new    ;}
	.st6{fill:none;stroke:#00AEC7;stroke-width:2.77;}
	.st7{fill:#00AEC7;}
	.st8{fill:none;stroke:#00AEC7;stroke-width:2.77;stroke-linecap:round;stroke-linejoin:round;}
</style>
<g id="face4">
	<path id="Trazado_7994" class="st0" d="M126.6,88c-44,55-164.5,25.1-102.8-35.4C39,37.7,62.2,6.2,86.5,0.7
		C119.1-6.5,157.8,48.9,126.6,88z"/>
	<path id="Trazado_7995" class="st1" d="M24.8,95c0,0,2.8-22.6-21.8-21.9C3,73.1,0.8,97.2,24.8,95z"/>
	<path id="Trazado_7996" class="st2" d="M24.8,95l-18-18 M12.4,82.6H5.9 M17.6,87.8v-7.3 M20.9,91.2h-6.5"/>
	<path id="Trazado_7997" class="st3" d="M132.4,42.2c5.4-8.8,2.7-20.3-6.1-25.7s-20.3-2.7-25.7,6.1c-5.4,8.8-2.7,20.3,6.1,25.7
		C115.5,53.6,127,50.9,132.4,42.2z"/>
	<g id="Grupo_7225">
		<circle id="Elipse_350" class="st4" cx="72.5" cy="58.7" r="47.6"/>
		<circle id="Elipse_351" class="st5" cx="72.5" cy="58.7" r="34.9"/>
		<circle id="Elipse_352" class="st6" cx="72.5" cy="58.7" r="34.9"/>
		<ellipse id="Elipse_353" class="st7" cx="58.4" cy="51.5" rx="5.9" ry="8.1"/>
		<ellipse id="Elipse_354" class="st7" cx="86.6" cy="51.5" rx="5.9" ry="8.1"/>
		<path id="Trazado_7998" class="st8" d="M88.5,71.7c-7.4,8.8-20.5,10-29.4,2.6c0,0,0,0,0,0c-1-0.8-1.8-1.7-2.6-2.6"/>
	</g>
</g>
</svg>
