<svg id="Component_19_1" data-name="Component 19 – 1" xmlns="http://www.w3.org/2000/svg" xmlns:xlink="http://www.w3.org/1999/xlink" width="260.217" height="196.532" viewBox="0 0 260.217 196.532">
  <defs>
    <clipPath id="clip-path">
      <path id="Path_1809" data-name="Path 1809" d="M286.951,209.269c0,3.741-58.251,11.049-130.107,11.049s-130.11-7.308-130.11-11.049Z" fill="#f7f7f7"/>
    </clipPath>
  </defs>
  <g id="Group_5151" data-name="Group 5151" transform="translate(-26.734 -23.786)">
    <g id="Group_5149" data-name="Group 5149">
      <g id="Group_5148" data-name="Group 5148">
        <path id="Path_1806" data-name="Path 1806" d="M286.951,209.269c0,3.741-58.251,11.049-130.107,11.049s-130.11-7.308-130.11-11.049Z" fill="#f7f7f7"/>
        <g id="Group_5147" data-name="Group 5147" clip-path="url(#clip-path)">
          <g id="Group_5145" data-name="Group 5145">
            <path id="Path_1807" data-name="Path 1807" d="M286.951,214.732l-260.217.057v-5.52H286.951Z" fill="#f7f7f7"/>
          </g>
          <g id="Group_5146" data-name="Group 5146">
            <path id="Path_1808" data-name="Path 1808" d="M26.734,214.789l260.217-.057v5.586H26.734Z" fill="#f7f7f7"/>
          </g>
        </g>
      </g>
    </g>
  </g>
  <path id="Path_1810" data-name="Path 1810" d="M246.385,105.387c-1.258-3.61-4.288-7.078-9.154-7.4-10.134-.661-18.047,5.878-18.047,5.878-.525.21-.653.379-.818-.11a13.593,13.593,0,0,1-.039-6.345,25.92,25.92,0,0,1,1.89-5.938c3.568-8.067,9.977-15.074,12.977-23.338a19.141,19.141,0,0,0,.712-12.086c-1.364-4.566-4.688-8.62-8.927-11.667-9.49-6.82-22.993-8.224-35.036-7.194-11.5.984-23.108,3.765-32.413,9.471-20.863,12.79-35.122,29.915-35.379,30.11-.4.306-.461.391-.795.07-.468-.448-2.776-11.4-4.824-16.061a10.8,10.8,0,0,0-3.874-4.817c-2.366-1.551-5.393-1.812-8.294-1.52a33.934,33.934,0,0,0-15.185,5.694A62.885,62.885,0,0,0,76.988,71.1,127.321,127.321,0,0,0,66.71,84.621C35.6,130.5,42.811,176.6,44.263,188.229a44.386,44.386,0,0,0,1.871,8.443c.732,2.217,1.512,4.167,4.263,5.051,3.286,1.056,142.016.38,145.269-.533a10.924,10.924,0,0,0,5.465-3.708,27.789,27.789,0,0,0,3.454-5.836q2.074-4.329,4.266-8.619c5.652-11.029,11.556-22.651,18.433-33.181,3.345-5.121,6.94-10.121,10.356-15.207a64.732,64.732,0,0,0,7.921-14.8C247.132,115.243,248.01,110.053,246.385,105.387Z" transform="translate(-26.734 -23.786)" fill="#f7f7f7"/>
  <g id="Group_5222" data-name="Group 5222" transform="translate(-26.734 -23.786)">
    <g id="Group_5153" data-name="Group 5153">
      <g id="Group_5152" data-name="Group 5152">
        <path id="Path_1811" data-name="Path 1811" d="M156.227,188.012a21.192,21.192,0,0,1,6.841-3.86c9.823-3.29,21.669,1.272,26.747,10.3,2.013,3.578,4,8.384,8.1,8.4,4.033.017,4.669-3.828,7.177-5.894,2.04-1.682,4.638-1.631,7.052-1.068,4.233.986,8.285,3.424,12.677,3.627,5.21.241,8.726-3.36,13.217-5.327a19.107,19.107,0,0,1,26.5,14.27,2.385,2.385,0,0,1-.369,2.141,2.529,2.529,0,0,1-1.805.47q-55.582,0-111.169.007a3.5,3.5,0,0,1-2.533-.671,3.235,3.235,0,0,1-.741-1.924A23.29,23.29,0,0,1,156.227,188.012Z" fill="#e0ecb6"/>
      </g>
    </g>
    <g id="Group_5166" data-name="Group 5166">
      <g id="Group_5156" data-name="Group 5156">
        <g id="Group_5155" data-name="Group 5155">
          <g id="Group_5154" data-name="Group 5154">
            <path id="Path_1812" data-name="Path 1812" d="M160.96,189.617a20.36,20.36,0,0,1,6.1,7.232,29.553,29.553,0,0,1,3.6,13.962.625.625,0,0,0,1.25,0,30.883,30.883,0,0,0-3.775-14.593,21.681,21.681,0,0,0-6.545-7.68c-.672-.446-1.3.636-.631,1.079Z" fill="#a2d45e"/>
          </g>
        </g>
      </g>
      <g id="Group_5159" data-name="Group 5159">
        <g id="Group_5158" data-name="Group 5158">
          <g id="Group_5157" data-name="Group 5157">
            <path id="Path_1813" data-name="Path 1813" d="M166.242,189.481c-.044-.3-.009-.047,0,.043.009.119.014.237.016.355,0,.154,0,.31-.009.464,0,.087-.012.174-.019.26,0,.041-.009.083-.014.125-.012.112.025-.162,0,.016a4.318,4.318,0,0,1-.119.553c-.025.086-.052.171-.083.254l-.028.07c-.025.063-.018.047.019-.045a.687.687,0,0,0-.064.137c-.041.077-.084.152-.132.225-.014.021-.029.04-.042.061-.039.053-.03.04.03-.038a.876.876,0,0,0-.1.111c-.025.028-.051.053-.078.078a.65.65,0,0,1-.055.05c-.05.042-.037.032.04-.028a2.851,2.851,0,0,0-.259.158.63.63,0,0,0-.224.856.643.643,0,0,0,.856.224c1.281-.647,1.564-2.316,1.528-3.612a5.685,5.685,0,0,0-.057-.65.625.625,0,0,0-.768-.435.642.642,0,0,0-.437.768Z" fill="#a2d45e"/>
          </g>
        </g>
      </g>
      <g id="Group_5162" data-name="Group 5162">
        <g id="Group_5161" data-name="Group 5161">
          <g id="Group_5160" data-name="Group 5160">
            <path id="Path_1814" data-name="Path 1814" d="M162.589,196.4a6.009,6.009,0,0,0,1.7.715,3.069,3.069,0,0,0,2.787-.428.627.627,0,0,0,0-.885.644.644,0,0,0-.884,0c.121-.1.009-.008-.021.012s-.089.054-.136.079c-.021.01-.157.059-.066.034l-.071.021c-.053.016-.226.087-.282.065l.077-.01c-.029,0-.059.007-.088.009-.046,0-.09.006-.136.008-.09,0-.182,0-.273-.007-.046,0-.09-.008-.135-.012-.158-.014.138.025-.016,0a5.261,5.261,0,0,1-.553-.125c-.17-.049-.338-.107-.5-.172-.037-.013-.073-.029-.11-.044-.112-.045.125.058.01,0-.064-.03-.127-.056-.191-.087a4.23,4.23,0,0,1-.474-.254.625.625,0,1,0-.631,1.079Z" fill="#a2d45e"/>
          </g>
        </g>
      </g>
      <g id="Group_5165" data-name="Group 5165">
        <g id="Group_5164" data-name="Group 5164">
          <g id="Group_5163" data-name="Group 5163">
            <path id="Path_1815" data-name="Path 1815" d="M164.9,202.242c2.034.779,4.326.838,6.023-.692a7.74,7.74,0,0,0,2.141-4.022,6.331,6.331,0,0,0,.211-1.34.625.625,0,0,0-1.25,0c0,.1-.018.2-.028.3.026-.259-.008.046-.02.116-.019.119-.041.237-.066.353a9.65,9.65,0,0,1-.531,1.747c.048-.114-.03.066-.047.1-.038.085-.079.17-.12.253q-.122.244-.262.478a4.249,4.249,0,0,1-.6.814,3.466,3.466,0,0,1-1.776,1.09,5.752,5.752,0,0,1-3.347-.407.631.631,0,0,0-.769.437.64.64,0,0,0,.437.769Z" fill="#a2d45e"/>
          </g>
        </g>
      </g>
    </g>
    <g id="Group_5169" data-name="Group 5169">
      <g id="Group_5168" data-name="Group 5168">
        <g id="Group_5167" data-name="Group 5167">
          <path id="Path_1816" data-name="Path 1816" d="M231.374,211.3c2.885-3.9,8.6-4.84,13.131-4.737,4.428.1,9.877,1.2,12.787,4.864.5.629,1.379-.261.884-.885-3.167-3.986-9.154-5.178-13.967-5.234-4.962-.058-10.8,1.141-13.914,5.361-.479.647.6,1.271,1.079.631Z" fill="#a2d45e"/>
        </g>
      </g>
    </g>
    <g id="Group_5172" data-name="Group 5172">
      <g id="Group_5171" data-name="Group 5171">
        <g id="Group_5170" data-name="Group 5170">
          <path id="Path_1817" data-name="Path 1817" d="M232.921,204.134a4.362,4.362,0,0,0,.615.043c.144.007.286.016.429.031l.106.013c.158.016-.113-.02-.008,0,.089.013.178.027.267.044a5.447,5.447,0,0,1,.567.138c.092.029.184.06.274.093.043.017.085.035.128.051-.171-.063.005,0,.051.025a3.9,3.9,0,0,1,.563.334c.125.088-.058-.056.024.018.041.039.086.073.128.111a3.4,3.4,0,0,1,.245.25q.028.036.057.069c.1.109-.046-.073,0,0s.081.113.118.171a3.846,3.846,0,0,1,.208.384c.012.025.044.11,0-.01.013.032.026.065.038.1.028.075.053.151.076.228a4.325,4.325,0,0,1,.12.53.632.632,0,0,0,.769.437.64.64,0,0,0,.437-.769,3.929,3.929,0,0,0-1.88-2.786,5.788,5.788,0,0,0-2.512-.694c-.138-.01-.278-.016-.418-.02-.1,0-.371-.048-.066.01a.642.642,0,0,0-.77.436.632.632,0,0,0,.438.769Z" fill="#a2d45e"/>
        </g>
      </g>
    </g>
    <g id="Group_5175" data-name="Group 5175">
      <g id="Group_5174" data-name="Group 5174">
        <g id="Group_5173" data-name="Group 5173">
          <path id="Path_1818" data-name="Path 1818" d="M235.266,201.268a3.388,3.388,0,0,0,.19.307c.055.093.107.189.153.286.028.056.091.25.026.05.02.063.049.123.069.186.043.13.051.282.1.407-.025-.062-.015-.137,0-.024,0,.038.006.074.007.11,0,.075,0,.148-.006.223-.007.121.03-.143,0-.015-.009.038-.015.075-.025.113s-.016.064-.027.1-.012.039-.019.058c-.018.049-.018.05,0,0s.022-.049,0,0c-.008.019-.018.037-.027.057-.02.038-.041.076-.064.113s-.05.075-.075.113-.016.024.028-.034c-.02.025-.041.049-.063.074a.625.625,0,0,0,.884.883,2.4,2.4,0,0,0,.6-1.217,2.782,2.782,0,0,0-.08-1.193,4.078,4.078,0,0,0-.368-.853c-.071-.125-.167-.242-.227-.372a.629.629,0,0,0-.856-.225.643.643,0,0,0-.223.856Z" fill="#a2d45e"/>
        </g>
      </g>
    </g>
    <g id="Group_5178" data-name="Group 5178">
      <g id="Group_5177" data-name="Group 5177">
        <g id="Group_5176" data-name="Group 5176">
          <path id="Path_1819" data-name="Path 1819" d="M236.152,204.588c-.138.092-.259.213-.389.317l-.055.044c.158-.134.086-.065.045-.036s-.1.071-.148.105a3.581,3.581,0,0,1-.333.2c-.058.03-.123.053-.179.086.156-.089.07-.03.022-.011l-.1.034a2.124,2.124,0,0,1-.221.061c-.034.006-.07.01-.1.019s-.024.005.077-.01l-.073.007a1.79,1.79,0,0,1-.22,0c-.038,0-.076-.009-.113-.01.175.006.066.008.015,0-.079-.017-.154-.043-.231-.066-.117-.036.12.059-.025-.012-.047-.023-.092-.048-.137-.074a.625.625,0,0,0-.631,1.079,2.384,2.384,0,0,0,1.27.335,2.944,2.944,0,0,0,1.16-.3,4.048,4.048,0,0,0,.787-.507q.109-.086.213-.174c.082-.07.2-.139,0-.008a.625.625,0,1,0-.631-1.078Z" fill="#a2d45e"/>
        </g>
      </g>
    </g>
    <g id="Group_5191" data-name="Group 5191">
      <g id="Group_5181" data-name="Group 5181">
        <g id="Group_5180" data-name="Group 5180">
          <g id="Group_5179" data-name="Group 5179">
            <path id="Path_1820" data-name="Path 1820" d="M184.489,196.755a13.747,13.747,0,0,1-1.84,6.127,20.1,20.1,0,0,1-6.622,7.263c-.667.445-.042,1.528.631,1.08a21.425,21.425,0,0,0,7.07-7.712,15.107,15.107,0,0,0,2.011-6.758.625.625,0,0,0-1.25,0Z" fill="#a2d45e"/>
          </g>
        </g>
      </g>
      <g id="Group_5184" data-name="Group 5184">
        <g id="Group_5183" data-name="Group 5183">
          <g id="Group_5182" data-name="Group 5182">
            <path id="Path_1821" data-name="Path 1821" d="M186.627,199.613l-.044.036c-.1.087.106-.079.054-.041s-.128.1-.195.139a4.241,4.241,0,0,1-.59.337c-.028.012-.056.023-.082.036.177-.087.083-.034.038-.017-.063.024-.125.046-.188.066s-.128.037-.192.052c-.031.007-.06.012-.09.017l-.06.01.107-.015a.515.515,0,0,1-.2.011c-.034,0-.069,0-.1,0-.107-.005.162.031.049.008a1.6,1.6,0,0,1-.172-.043l-.057-.02c.032.012.063.026.094.039a.329.329,0,0,1-.109-.058.625.625,0,1,0-.631,1.08,2.334,2.334,0,0,0,2.141-.047,4.339,4.339,0,0,0,1.111-.7.63.63,0,0,0,0-.884.64.64,0,0,0-.884,0Z" fill="#a2d45e"/>
          </g>
        </g>
      </g>
      <g id="Group_5187" data-name="Group 5187">
        <g id="Group_5186" data-name="Group 5186">
          <g id="Group_5185" data-name="Group 5185">
            <path id="Path_1822" data-name="Path 1822" d="M181.192,200.239a4.472,4.472,0,0,0,.129.951,3.245,3.245,0,0,0,.674,1.4,1.859,1.859,0,0,0,.834.54.625.625,0,1,0,.332-1.205.255.255,0,0,0-.068-.025c-.007,0,.139.064.094.04-.01-.005-.022-.009-.033-.015a1.036,1.036,0,0,1-.141-.082c-.084-.057.03.014.05.042a.373.373,0,0,0-.052-.045,1.389,1.389,0,0,1-.109-.108l-.046-.053c-.068-.081.061.085.04.052s-.059-.085-.086-.129a2.6,2.6,0,0,1-.144-.277c-.04-.087.06.149.025.061l-.026-.067c-.018-.049-.034-.1-.051-.146-.029-.1-.056-.191-.08-.287s-.037-.172-.053-.258c-.007-.041-.013-.082-.019-.123-.022-.136.021.182,0,.037a2.642,2.642,0,0,1-.024-.308.625.625,0,0,0-1.25,0Z" fill="#a2d45e"/>
          </g>
        </g>
      </g>
      <g id="Group_5190" data-name="Group 5190">
        <g id="Group_5189" data-name="Group 5189">
          <g id="Group_5188" data-name="Group 5188">
            <path id="Path_1823" data-name="Path 1823" d="M178.693,203.822a4.117,4.117,0,0,0,2.77,3.358,5.483,5.483,0,0,0,3.243-.264,4.549,4.549,0,0,0,.9-.394c.676-.43.05-1.513-.63-1.079a1.982,1.982,0,0,1-.183.1c-.051.025-.1.047-.155.071-.129.06.044-.015.023-.008-.043.013-.085.034-.127.05a6.564,6.564,0,0,1-1.178.344c-.059.012-.119.02-.177.031-.147.028.078,0-.037.006-.132.013-.262.028-.394.032s-.237.005-.355,0c-.064,0-.127-.007-.191-.012l-.094-.011c.044,0,.1.017.023,0-.127-.023-.254-.048-.378-.083-.062-.019-.124-.04-.185-.06l-.07-.025c-.071-.026.1.047-.01,0a3.25,3.25,0,0,1-.353-.193c-.023-.016-.159-.111-.107-.072.033.025-.106-.089-.141-.122-.061-.056-.119-.116-.176-.177-.021-.024-.162-.2-.1-.12a3.483,3.483,0,0,1-.3-.482,4.874,4.874,0,0,1-.4-1.217.625.625,0,0,0-1.206.332Z" fill="#a2d45e"/>
          </g>
        </g>
      </g>
    </g>
    <g id="Group_5201" data-name="Group 5201">
      <g id="Group_5194" data-name="Group 5194">
        <g id="Group_5193" data-name="Group 5193">
          <g id="Group_5192" data-name="Group 5192">
            <path id="Path_1824" data-name="Path 1824" d="M218.668,200.961c-4.394.3-6.45,4.706-7.193,8.52-.057.291-.107.584-.15.876-.019.136-.038.272-.056.408-.026.2.027-.155,0-.023-.147.786,1.058,1.123,1.207.332.013-.077.021-.156.031-.234.024-.178-.024.158.006-.037.031-.215.063-.429.1-.643a18.476,18.476,0,0,1,.49-2.09,9.81,9.81,0,0,1,2.656-4.647,4.881,4.881,0,0,1,2.906-1.212c.8-.055.805-1.3,0-1.25Z" fill="#a2d45e"/>
          </g>
        </g>
      </g>
      <g id="Group_5197" data-name="Group 5197">
        <g id="Group_5196" data-name="Group 5196">
          <g id="Group_5195" data-name="Group 5195">
            <path id="Path_1825" data-name="Path 1825" d="M213.144,199.56a2.861,2.861,0,0,0-.647,2.893,3.988,3.988,0,0,0,.517,1.207,1.519,1.519,0,0,0,.88.736.625.625,0,0,0,.332-1.205.189.189,0,0,1-.067-.017c.016.008.174.077.08.027s.049.022.054.047c0-.016-.062-.054-.074-.066-.031-.03-.074-.11-.113-.125.067.087.081.1.042.052l-.028-.039-.064-.1c-.041-.066-.079-.134-.115-.2-.026-.05-.062-.194-.108-.227.037.088.043.1.018.038-.008-.019-.015-.038-.022-.058-.017-.044-.033-.09-.049-.136-.029-.087-.054-.175-.078-.265s-.043-.181-.059-.274c-.005-.029-.01-.057-.014-.085,0,.026.007.053.011.08a.561.561,0,0,1-.018-.174c-.006-.086-.008-.173-.007-.26,0-.056,0-.114.009-.172,0-.013,0-.028,0-.042.008-.07.006-.056-.006.039a1.262,1.262,0,0,1,.066-.288c.006-.019.027-.114.041-.118-.035.078-.041.1-.022.053.008-.019.017-.038.026-.057a1.9,1.9,0,0,1,.155-.251c-.093.133-.012.021.012-.006.04-.043.083-.084.127-.123a.627.627,0,0,0,0-.883.638.638,0,0,0-.883,0Z" fill="#a2d45e"/>
          </g>
        </g>
      </g>
      <g id="Group_5200" data-name="Group 5200">
        <g id="Group_5199" data-name="Group 5199">
          <g id="Group_5198" data-name="Group 5198">
            <path id="Path_1826" data-name="Path 1826" d="M212.849,208.225c.072,0-.216-.049-.065,0-.178-.058-.1-.046-.014,0,.114.056.225.118.339.173a3.96,3.96,0,0,0,1.091.374,4.333,4.333,0,0,0,3.515-1.2.63.63,0,0,0,0-.883.637.637,0,0,0-.884,0,4.84,4.84,0,0,1-.828.568,2.28,2.28,0,0,1-.65.256q-.093.022-.186.042c-.035.007-.225.026-.064.013-.1.008-.209.016-.315.016s-.195-.01-.294-.018c.181.014.019,0-.024-.005l-.141-.03a4.046,4.046,0,0,1-.468-.15c-.106-.038.146.068-.007,0l-.085-.04c-.062-.029-.124-.061-.184-.092a1.61,1.61,0,0,0-.736-.265.625.625,0,0,0,0,1.25Z" fill="#a2d45e"/>
          </g>
        </g>
      </g>
    </g>
    <g id="Group_5211" data-name="Group 5211">
      <g id="Group_5204" data-name="Group 5204">
        <g id="Group_5203" data-name="Group 5203">
          <g id="Group_5202" data-name="Group 5202">
            <path id="Path_1827" data-name="Path 1827" d="M157.022,200.952c-4.394.3-6.451,4.706-7.194,8.521-.057.291-.106.583-.149.877-.02.134-.038.27-.057.406-.025.2.027-.154,0-.023-.148.786,1.057,1.123,1.2.332.014-.077.022-.156.031-.234.025-.178-.023.157.006-.038.031-.214.064-.428.1-.642a18.692,18.692,0,0,1,.49-2.09,9.821,9.821,0,0,1,2.655-4.647,4.886,4.886,0,0,1,2.907-1.212c.8-.055.8-1.3,0-1.25Z" fill="#a2d45e"/>
          </g>
        </g>
      </g>
      <g id="Group_5207" data-name="Group 5207">
        <g id="Group_5206" data-name="Group 5206">
          <g id="Group_5205" data-name="Group 5205">
            <path id="Path_1828" data-name="Path 1828" d="M151.5,199.551a2.864,2.864,0,0,0-.646,2.894,4.016,4.016,0,0,0,.516,1.206,1.524,1.524,0,0,0,.88.737.641.641,0,0,0,.769-.437.633.633,0,0,0-.437-.769.176.176,0,0,1-.066-.018c.015.009.175.078.08.028s.049.022.053.047c0-.015-.061-.053-.073-.066-.031-.029-.075-.11-.113-.125.066.087.08.1.042.053-.009-.013-.019-.027-.027-.04-.023-.032-.044-.065-.065-.1-.042-.067-.079-.134-.115-.2-.026-.05-.063-.194-.107-.227.036.088.041.1.016.038q-.012-.028-.021-.057c-.018-.045-.034-.091-.049-.137-.03-.087-.055-.176-.078-.265s-.043-.181-.059-.274c-.006-.028-.011-.057-.015-.086,0,.027.007.054.011.08a.551.551,0,0,1-.017-.173c-.006-.087-.008-.173-.007-.26q0-.086.009-.171c0-.014,0-.029,0-.042.008-.071.006-.057-.005.039a1.151,1.151,0,0,1,.066-.287c.006-.022.026-.116.041-.12-.034.078-.042.1-.022.053a.4.4,0,0,1,.026-.056,2.146,2.146,0,0,1,.154-.252c-.093.133-.012.021.013-.005a1.661,1.661,0,0,1,.128-.123.63.63,0,0,0,0-.884.642.642,0,0,0-.885,0Z" fill="#a2d45e"/>
          </g>
        </g>
      </g>
      <g id="Group_5210" data-name="Group 5210">
        <g id="Group_5209" data-name="Group 5209">
          <g id="Group_5208" data-name="Group 5208">
            <path id="Path_1829" data-name="Path 1829" d="M151.2,208.215c.072,0-.216-.049-.064,0-.178-.058-.1-.046-.014,0,.113.056.225.118.339.174a4.064,4.064,0,0,0,1.091.375,4.342,4.342,0,0,0,3.514-1.205.63.63,0,0,0,0-.885.637.637,0,0,0-.883,0,4.741,4.741,0,0,1-.829.569,2.3,2.3,0,0,1-.65.256q-.091.024-.186.042c-.035.006-.224.026-.064.013-.1.009-.209.016-.314.016s-.2-.009-.293-.017c.179.013.017,0-.026-.006l-.14-.029a4.187,4.187,0,0,1-.468-.151c-.106-.038.145.069-.006,0-.029-.013-.059-.026-.087-.04l-.184-.092a1.615,1.615,0,0,0-.736-.266.625.625,0,0,0,0,1.25Z" fill="#a2d45e"/>
          </g>
        </g>
      </g>
    </g>
    <g id="Group_5221" data-name="Group 5221">
      <g id="Group_5214" data-name="Group 5214">
        <g id="Group_5213" data-name="Group 5213">
          <g id="Group_5212" data-name="Group 5212">
            <path id="Path_1830" data-name="Path 1830" d="M254.515,196.1c-4.4.3-6.451,4.706-7.195,8.52q-.084.437-.149.877c-.02.135-.037.27-.056.406-.026.2.028-.154,0-.022-.147.786,1.057,1.123,1.205.332.014-.077.022-.156.031-.235.025-.177-.023.158.006-.038.033-.214.065-.427.1-.641a18.713,18.713,0,0,1,.49-2.091,9.82,9.82,0,0,1,2.656-4.646,4.883,4.883,0,0,1,2.907-1.212c.8-.054.8-1.3,0-1.25Z" fill="#a2d45e"/>
          </g>
        </g>
      </g>
      <g id="Group_5217" data-name="Group 5217">
        <g id="Group_5216" data-name="Group 5216">
          <g id="Group_5215" data-name="Group 5215">
            <path id="Path_1831" data-name="Path 1831" d="M248.989,194.7a2.868,2.868,0,0,0-.646,2.895,4.016,4.016,0,0,0,.516,1.206,1.528,1.528,0,0,0,.88.736.625.625,0,1,0,.332-1.206.2.2,0,0,1-.066-.017c.015.008.175.078.08.028s.049.021.054.047c0-.016-.062-.054-.074-.067-.03-.029-.075-.109-.112-.125.066.087.08.1.042.053-.01-.013-.019-.026-.028-.04-.023-.031-.044-.065-.065-.1-.041-.066-.079-.134-.115-.2-.026-.05-.061-.193-.107-.226l.016.038c-.008-.02-.014-.038-.021-.058-.017-.045-.033-.091-.049-.137q-.044-.13-.078-.264c-.023-.091-.043-.182-.059-.275-.006-.028-.01-.056-.014-.086,0,.028.006.054.01.08a.578.578,0,0,1-.017-.172c-.006-.087-.008-.173-.006-.26,0-.058,0-.114.008-.172l.005-.042c.007-.07,0-.057-.007.039a1.152,1.152,0,0,1,.066-.287c.007-.022.027-.115.041-.119-.034.078-.042.1-.022.052l.026-.056a2.147,2.147,0,0,1,.154-.252c-.092.134-.011.021.013-.005a1.655,1.655,0,0,1,.128-.123.63.63,0,0,0,0-.884.643.643,0,0,0-.885,0Z" fill="#a2d45e"/>
          </g>
        </g>
      </g>
      <g id="Group_5220" data-name="Group 5220">
        <g id="Group_5219" data-name="Group 5219">
          <g id="Group_5218" data-name="Group 5218">
            <path id="Path_1832" data-name="Path 1832" d="M248.7,203.365c.072,0-.217-.049-.064,0-.179-.057-.1-.046-.015,0,.113.057.225.118.34.174a4.023,4.023,0,0,0,1.09.375,4.338,4.338,0,0,0,3.516-1.205.626.626,0,1,0-.885-.885,4.833,4.833,0,0,1-.828.57,2.333,2.333,0,0,1-.651.255c-.061.016-.123.031-.185.042-.035.006-.225.027-.064.013-.105.009-.21.017-.314.017s-.2-.01-.294-.018c.179.014.017,0-.025-.006s-.094-.018-.141-.029a4.23,4.23,0,0,1-.467-.15c-.106-.039.145.068-.007,0-.028-.014-.057-.027-.087-.04l-.182-.092a1.633,1.633,0,0,0-.737-.267.625.625,0,0,0,0,1.25Z" fill="#a2d45e"/>
          </g>
        </g>
      </g>
    </g>
  </g>
  <path id="Path_1833" data-name="Path 1833" d="M177.482,118.035a4.889,4.889,0,1,0,5.84-3.7A4.89,4.89,0,0,0,177.482,118.035Z" transform="translate(-26.734 -23.786)" fill="#fff" opacity="0.6"/>
  <path id="Path_1834" data-name="Path 1834" d="M182.145,146.636a10.39,10.39,0,1,0,12.409-7.871A10.39,10.39,0,0,0,182.145,146.636Z" transform="translate(-26.734 -23.786)" fill="#fff" opacity="0.3"/>
  <path id="Path_1835" data-name="Path 1835" d="M246.4,67.819A11.07,11.07,0,1,1,235.328,56.75,11.072,11.072,0,0,1,246.4,67.819Z" transform="translate(-26.734 -23.786)" fill="#fff" opacity="0.3"/>
  <path id="Path_1836" data-name="Path 1836" d="M161.147,140.109a3.228,3.228,0,0,1,.541.306,11.785,11.785,0,0,0,3.25,1.961A34.348,34.348,0,0,1,170,144.561c3.727,2.03,7.655,3.395,11.3,5.584,2.787,1.671,5.681,3.086,8.464,4.75,2.617,1.565,6.91,4.114,4.227,7.458-1.911,2.381-5.37,3.68-8.178,4.618a4.969,4.969,0,0,1-4.236-.1,44.467,44.467,0,0,0-7.919-2.05,82.286,82.286,0,0,1-8.965-2.43c-2.979-.963-5.9-1.911-8.824-2.979-1.879-.686-10.843-3.145-6.018-5.734,1.983-1.063,3.659-1.471,3.74-3.835.087-2.558-.269-4.606,1.326-6.918C156.2,141.071,158.934,139.14,161.147,140.109Z" transform="translate(-26.734 -23.786)" fill="#c2d5ed"/>
  <path id="Path_1837" data-name="Path 1837" d="M148.787,89.414c-1.142-3.412-4.638-5.952-6.986-8.379-2.877-2.974-5.594-6.983-2.807-10.962,4.987-7.122,16.959-3.83,19.333,3.367a41.684,41.684,0,0,0,4.038,4.682c-1.885,2.031-1.25,1.992-.588,4.007,1.219,3.723-4.241,3.5-5.253,6.163-.411,1.08.052,3.01,0,4.179-.089,2.139-.438,2-2.542,2-.98,0-3.33.449-4.173,0-1.278-.684-.511-2.359-.727-3.811A7.245,7.245,0,0,0,148.787,89.414Z" transform="translate(-26.734 -23.786)" fill="#ffcc8b"/>
  <path id="Path_1838" data-name="Path 1838" d="M148.487,73.4s13.816-.295,12.865-4.958-5.063-3.236-5.063-3.236,4.971-4.214,0-4.024S135.281,62.51,138.87,74.617c0,0,4.125,7.447,7.585,9.629l1.9-2.964s-6-4.951-2.533-5.1,2.872.826,2.872.826S151.551,75.971,148.487,73.4Z" transform="translate(-26.734 -23.786)" fill="#144998"/>
  <path id="Path_1839" data-name="Path 1839" d="M132.574,87.609c-2.664,1.776-3.726-1.35-2.441-3.428.955-1.541,2.511-4.216,3.926-5.33.637-1.612.68-3.295,1.249-5.433a18.01,18.01,0,0,1,4.5-8.058c4.224-4.052,18.405-6.58,17.433,3.151-.388,3.9-5.122,4.138-8.313,5.135.884.212,1.74.4,2.632.589-.621,1.5-1.954,2.172-3.216,3.057-.893.627,8.155,11.247,8.659,12.59,1.581,4.209-3.719,14.512-7,7.9-2.573,5.437-10.337,8.2-15.189,3.585A11.872,11.872,0,0,1,132.574,87.609Z" transform="translate(-26.734 -23.786)" fill="#144998"/>
  <path id="Path_1840" data-name="Path 1840" d="M191.375,202.639c.012,1.014-.664,3.54-.189,4.719.6,1.493,2.8,1.952,4.18,2.365,2.483.744,5.22,1.879,7.807,2.172,1.251.144,2.709.109,1.268,1.454-1.289,1.2-5.435.933-7.078.765-3.167-.323-6.439-.414-9.614-.568-2.442-.114-4.1-.611-2.51-3.457,1.167-2.09-.134-5.028,1.417-6.725Z" transform="translate(-26.734 -23.786)" fill="#ffcc8b"/>
  <path id="Path_1841" data-name="Path 1841" d="M195.1,161.27a19.091,19.091,0,0,1,.191,5.432c-.139,3.844-.238,7.565-.715,11.4-.721,5.793-2.2,11.468-2.948,17.261-.42,3.26.719,6.639-.27,9.792-1.224.194-3.243.708-4.454.408-1.692-.421-1.33-1.1-1.342-2.911a52.443,52.443,0,0,0-.733-9.964c-.674-3.339-1.494-6.652-1.87-10.04-.323-2.922-1.542-5.7-1.355-8.667.138-2.183,1.367-5.883.472-8.341-1.366-3.748-1.945-8.076,2.2-9.995,3.451-1.6,7.486.06,9.617,3.065A7.723,7.723,0,0,1,195.1,161.27Z" transform="translate(-26.734 -23.786)" fill="#c2d5ed"/>
  <path id="Path_1842" data-name="Path 1842" d="M218.82,198.439c0,.345,3.466.625,7.743.625s7.74-.28,7.74-.625-3.465-.624-7.74-.624S218.82,198.093,218.82,198.439Z" transform="translate(-26.734 -23.786)" fill="#00b0c4"/>
  <g id="Group_5228" data-name="Group 5228" transform="translate(-26.734 -23.786)" opacity="0.6">
    <g id="Group_5224" data-name="Group 5224">
      <path id="Path_1843" data-name="Path 1843" d="M66.057,198.893c-1.453,1.579-4.19,1.425-4.19,1.425s-.384-2.715,1.069-4.295,4.189-1.425,4.189-1.425S67.508,197.313,66.057,198.893Z" fill="#00aaac"/>
      <path id="Path_1844" data-name="Path 1844" d="M64.34,187.078c-.933,1.78-3.449,2.3-3.449,2.3s-1-2.366-.071-4.148,3.45-2.3,3.45-2.3S65.273,185.3,64.34,187.078Z" fill="#00aaac"/>
      <path id="Path_1845" data-name="Path 1845" d="M60.314,178.3c-.855,1.768-3.294,2.356-3.294,2.356s-1.054-2.278-.2-4.047,3.3-2.356,3.3-2.356S61.17,176.528,60.314,178.3Z" fill="#00aaac"/>
      <path id="Path_1846" data-name="Path 1846" d="M58.477,171.157a5.081,5.081,0,0,1-3.66.966,5.083,5.083,0,0,1,1.168-3.6,5.083,5.083,0,0,1,3.66-.965A5.075,5.075,0,0,1,58.477,171.157Z" fill="#00aaac"/>
      <path id="Path_1847" data-name="Path 1847" d="M51.032,170.768a5.079,5.079,0,0,0,3.515,1.4,5.082,5.082,0,0,0-.723-3.715,5.075,5.075,0,0,0-3.515-1.4A5.077,5.077,0,0,0,51.032,170.768Z" fill="#00aaac"/>
      <path id="Path_1848" data-name="Path 1848" d="M54.2,161.773a5.082,5.082,0,0,0,1.188,3.594,3.95,3.95,0,0,0,1.192-6.537A5.083,5.083,0,0,0,54.2,161.773Z" fill="#00aaac"/>
      <path id="Path_1849" data-name="Path 1849" d="M52.9,180.614c1.7.974,4.05.079,4.05.079s-.42-2.474-2.126-3.449-4.05-.079-4.05-.079S51.194,179.64,52.9,180.614Z" fill="#00aaac"/>
      <path id="Path_1850" data-name="Path 1850" d="M56.635,189.494c1.79.936,4.166-.075,4.166-.075s-.528-2.527-2.318-3.462-4.166.075-4.166.075S54.845,188.559,56.635,189.494Z" fill="#00aaac"/>
      <path id="Path_1851" data-name="Path 1851" d="M57.656,198.183c1.152,1.81,3.873,2.14,3.873,2.14s.856-2.6-.295-4.415-3.873-2.14-3.873-2.14S56.506,196.372,57.656,198.183Z" fill="#00aaac"/>
      <g id="Group_5223" data-name="Group 5223">
        <path id="Path_1852" data-name="Path 1852" d="M54.538,172.17a26.547,26.547,0,0,0,.573,3.931,13.5,13.5,0,0,0,.59,1.879c.328.858.742,1.766,1.208,2.728.253.524.522,1.065.8,1.627.887,1.793,1.827,3.692,2.6,5.684.165.425.323.854.471,1.291l0,.006a20.555,20.555,0,0,1,1.192,6.473,15.767,15.767,0,0,1-.141,2.177v0a17.907,17.907,0,0,1-.476,2.324,22.751,22.751,0,0,1-2.179,5.182c.123.12.243.238.361.36a23.321,23.321,0,0,0,2.331-5.542,17.491,17.491,0,0,0,.576-3.575q.027-.462.024-.933a20.856,20.856,0,0,0-1.181-6.513c-.259-.777-.55-1.542-.86-2.289-.7-1.7-1.507-3.323-2.274-4.871-.265-.541-.526-1.062-.769-1.569-.321-.659-.614-1.291-.873-1.9a15.378,15.378,0,0,1-.912-2.657,25.783,25.783,0,0,1-.565-3.853c-.037-.587-.057-1.156-.057-1.7a19.633,19.633,0,0,1,.652-5.217c.042-.151.085-.3.13-.435l-.471-.152c-.046.136-.088.278-.131.426a19.784,19.784,0,0,0-.667,4.8C54.471,170.59,54.485,171.365,54.538,172.17Z" fill="#00aaac"/>
      </g>
    </g>
    <g id="Group_5227" data-name="Group 5227">
      <g id="Group_5225" data-name="Group 5225">
        <path id="Path_1853" data-name="Path 1853" d="M32.361,159.166a23.57,23.57,0,0,0,1.63,8.2c.281.725.595,1.424.933,2.1A39.669,39.669,0,0,0,38.89,175.7c.542.722,1.09,1.426,1.631,2.118.079.1.154.2.231.3a59.58,59.58,0,0,1,3.828,5.26l.006,0c.057.094.115.186.173.281q.725,1.2,1.275,2.36h0a22.511,22.511,0,0,1,2.214,7.928c.04.487.062.955.065,1.411,0,.342,0,.678-.013,1q.252.18.5.365c.025-.442.038-.9.033-1.377-.005-.544-.033-1.111-.088-1.695a23.055,23.055,0,0,0-2.307-7.992q-.3-.616-.646-1.248c-.186-.339-.384-.683-.592-1.025a56.872,56.872,0,0,0-4.043-5.6c-.046-.059-.094-.117-.139-.178-.2-.256-.4-.513-.606-.774v0a45.408,45.408,0,0,1-4.943-7.439q-.516-1.02-.953-2.112v0a23.3,23.3,0,0,1-1.113-3.65,22.911,22.911,0,0,1-.519-4.526h0a25.794,25.794,0,0,1,.158-3.392l0-.02a21.253,21.253,0,0,1,1.927-6.51c.41-.875.848-1.7,1.292-2.46a33.545,33.545,0,0,1,3.387-4.785c.133-.156.208-.239.216-.246l-.384-.356c-.008.007-.116.125-.3.338a34.154,34.154,0,0,0-3.757,5.473c-.322.574-.632,1.183-.927,1.817a21.7,21.7,0,0,0-1.979,6.693c-.017.168-.035.334-.049.5A26.857,26.857,0,0,0,32.361,159.166Z" fill="#007ca3"/>
      </g>
      <g id="Group_5226" data-name="Group 5226">
        <path id="Path_1854" data-name="Path 1854" d="M53.2,193.909c-1.572,1.65-4.476,1.433-4.476,1.433s-.354-2.89,1.218-4.539,4.476-1.432,4.476-1.432S54.775,192.261,53.2,193.909Z" fill="#007ca3"/>
        <path id="Path_1855" data-name="Path 1855" d="M50.022,183.6c-1.2,1.829-3.976,2.13-3.976,2.13s-.837-2.667.36-4.5,3.977-2.13,3.977-2.13S51.22,181.765,50.022,183.6Z" fill="#007ca3"/>
        <path id="Path_1856" data-name="Path 1856" d="M44.112,175.005c-.793,1.919-3.331,2.689-3.331,2.689s-1.252-2.338-.459-4.256,3.331-2.689,3.331-2.689S44.9,173.087,44.112,175.005Z" fill="#007ca3"/>
        <path id="Path_1857" data-name="Path 1857" d="M38.537,166.8c-.794,1.918-3.332,2.689-3.332,2.689s-1.252-2.338-.459-4.257,3.332-2.688,3.332-2.688S39.33,164.879,38.537,166.8Z" fill="#007ca3"/>
        <path id="Path_1858" data-name="Path 1858" d="M39.822,138c-1.168,1.56-.574,3.978-.574,3.978s2.487-.11,3.655-1.669.575-3.978.575-3.978S40.99,136.44,39.822,138Z" fill="#007ca3"/>
        <path id="Path_1859" data-name="Path 1859" d="M42.8,192.691c1.363.852,2.727,1.743,4.078,2.675a7.475,7.475,0,0,0,1.437-.011h0a7.5,7.5,0,0,0-.069-1.411,5.171,5.171,0,0,0-1.384-3.055c-1.658-1.562-4.545-1.194-4.545-1.194A7.583,7.583,0,0,0,42.8,192.691Z" fill="#007ca3"/>
        <path id="Path_1860" data-name="Path 1860" d="M41.557,186.37c1.991.89,4.484-.356,4.484-.356s-.735-2.69-2.727-3.578-4.484.355-4.484.355S39.565,185.48,41.557,186.37Z" fill="#007ca3"/>
        <path id="Path_1861" data-name="Path 1861" d="M36.447,178.925c2.022.469,4.124-1.148,4.124-1.148s-1.175-2.379-3.2-2.847-4.124,1.148-4.124,1.148S34.425,178.456,36.447,178.925Z" fill="#007ca3"/>
        <path id="Path_1862" data-name="Path 1862" d="M30.756,169.653c1.8.939,4.193-.083,4.193-.083s-.535-2.543-2.339-3.481-4.192.083-4.192.083S28.952,168.715,30.756,169.653Z" fill="#007ca3"/>
        <path id="Path_1863" data-name="Path 1863" d="M36.7,157.335c-1.21,1.637-3.806,1.768-3.806,1.768s-.637-2.521.573-4.158,3.807-1.768,3.807-1.768S37.9,155.7,36.7,157.335Z" fill="#007ca3"/>
        <path id="Path_1864" data-name="Path 1864" d="M38.918,149.471c-1.785.793-4.017-.327-4.017-.327s.663-2.408,2.449-3.2,4.016.326,4.016.326S40.7,148.677,38.918,149.471Z" fill="#007ca3"/>
        <path id="Path_1865" data-name="Path 1865" d="M31.813,145.975c.435,1.9,2.67,3.017,2.67,3.017s1.529-1.974,1.093-3.879-2.67-3.017-2.67-3.017S31.377,144.069,31.813,145.975Z" fill="#007ca3"/>
        <path id="Path_1866" data-name="Path 1866" d="M28.674,157.327c1.176,1.661,3.769,1.847,3.769,1.847s.689-2.508-.486-4.169-3.769-1.847-3.769-1.847S27.5,155.666,28.674,157.327Z" fill="#007ca3"/>
      </g>
    </g>
  </g>
  <g id="Group_5230" data-name="Group 5230" transform="translate(-26.734 -23.786)">
    <g id="Group_5229" data-name="Group 5229">
      <path id="Path_1867" data-name="Path 1867" d="M43.366,187.113a21.212,21.212,0,0,1,6.842-3.859c9.822-3.29,21.669,1.271,26.747,10.3,2.013,3.578,4,8.384,8.1,8.4,4.033.017,4.669-3.828,7.176-5.894,2.04-1.682,4.639-1.631,7.053-1.069,4.233.986,8.284,3.424,12.677,3.627,5.21.241,8.725-3.359,13.217-5.326a19.108,19.108,0,0,1,26.5,14.27,2.383,2.383,0,0,1-.369,2.14,2.529,2.529,0,0,1-1.8.471q-55.584,0-111.169.007a3.5,3.5,0,0,1-2.533-.671,3.231,3.231,0,0,1-.741-1.924A23.287,23.287,0,0,1,43.366,187.113Z" fill="#e0ecb6"/>
    </g>
  </g>
  <g id="Group_5243" data-name="Group 5243" transform="translate(-26.734 -23.786)">
    <g id="Group_5233" data-name="Group 5233">
      <g id="Group_5232" data-name="Group 5232">
        <g id="Group_5231" data-name="Group 5231">
          <path id="Path_1868" data-name="Path 1868" d="M48.1,188.719a20.354,20.354,0,0,1,6.1,7.231A29.543,29.543,0,0,1,57.8,209.913a.625.625,0,0,0,1.25,0,30.885,30.885,0,0,0-3.776-14.594,21.667,21.667,0,0,0-6.545-7.679c-.671-.447-1.3.635-.63,1.079Z" fill="#a2d45e"/>
        </g>
      </g>
    </g>
    <g id="Group_5236" data-name="Group 5236">
      <g id="Group_5235" data-name="Group 5235">
        <g id="Group_5234" data-name="Group 5234">
          <path id="Path_1869" data-name="Path 1869" d="M53.382,188.583c-.044-.3-.009-.048,0,.043q.013.177.015.354c0,.155,0,.31-.008.464-.005.087-.012.174-.02.26,0,.042-.009.083-.014.125-.011.112.026-.161,0,.017a4.482,4.482,0,0,1-.12.552c-.024.086-.051.171-.083.254-.008.024-.018.047-.027.071-.025.062-.019.046.019-.045a.665.665,0,0,0-.065.137,2.393,2.393,0,0,1-.132.224c-.013.022-.028.041-.042.062-.039.052-.029.04.031-.038a.743.743,0,0,0-.1.111q-.037.041-.078.078l-.055.05c-.051.042-.037.032.039-.029-.086.031-.174.117-.259.159a.628.628,0,0,0-.223.855.641.641,0,0,0,.855.225c1.281-.648,1.565-2.317,1.529-3.613a5.686,5.686,0,0,0-.057-.649.626.626,0,0,0-.769-.435.642.642,0,0,0-.436.768Z" fill="#a2d45e"/>
        </g>
      </g>
    </g>
    <g id="Group_5239" data-name="Group 5239">
      <g id="Group_5238" data-name="Group 5238">
        <g id="Group_5237" data-name="Group 5237">
          <path id="Path_1870" data-name="Path 1870" d="M49.728,195.5a6.073,6.073,0,0,0,1.7.715,3.067,3.067,0,0,0,2.787-.429.628.628,0,0,0,0-.885.645.645,0,0,0-.884,0c.12-.1.009-.007-.021.012a1.417,1.417,0,0,1-.136.079c-.022.011-.157.06-.067.034s-.052.016-.071.022c-.053.016-.225.087-.281.064l.077-.009-.089.008c-.046,0-.09.006-.136.008-.089,0-.181,0-.272-.007-.046,0-.091-.008-.136-.011-.157-.014.139.025-.015,0a5.527,5.527,0,0,1-.553-.125c-.17-.049-.338-.108-.5-.172l-.11-.044c-.113-.045.125.058.009,0-.063-.031-.127-.057-.19-.087a4.33,4.33,0,0,1-.475-.254.63.63,0,0,0-.855.224.639.639,0,0,0,.224.855Z" fill="#a2d45e"/>
        </g>
      </g>
    </g>
    <g id="Group_5242" data-name="Group 5242">
      <g id="Group_5241" data-name="Group 5241">
        <g id="Group_5240" data-name="Group 5240">
          <path id="Path_1871" data-name="Path 1871" d="M52.041,201.344c2.033.779,4.325.838,6.022-.693a7.735,7.735,0,0,0,2.142-4.021,6.351,6.351,0,0,0,.211-1.341.625.625,0,0,0-1.25,0c0,.1-.019.2-.028.3.026-.259-.008.046-.02.116-.019.118-.042.236-.066.353a9.621,9.621,0,0,1-.532,1.747c.048-.115-.03.066-.046.1-.038.085-.079.17-.121.254-.081.162-.167.321-.261.478a4.21,4.21,0,0,1-.6.813,3.471,3.471,0,0,1-1.776,1.091,5.752,5.752,0,0,1-3.347-.407.632.632,0,0,0-.77.436.642.642,0,0,0,.438.77Z" fill="#a2d45e"/>
        </g>
      </g>
    </g>
  </g>
  <g id="Group_5246" data-name="Group 5246" transform="translate(-26.734 -23.786)">
    <g id="Group_5245" data-name="Group 5245">
      <g id="Group_5244" data-name="Group 5244">
        <path id="Path_1872" data-name="Path 1872" d="M118.514,210.4c2.884-3.9,8.6-4.839,13.131-4.736,4.427.1,9.876,1.2,12.787,4.863.5.629,1.379-.261.883-.885-3.167-3.986-9.153-5.177-13.966-5.234-4.962-.058-10.8,1.142-13.914,5.361-.479.648.605,1.272,1.079.631Z" fill="#a2d45e"/>
      </g>
    </g>
  </g>
  <g id="Group_5249" data-name="Group 5249" transform="translate(-26.734 -23.786)">
    <g id="Group_5248" data-name="Group 5248">
      <g id="Group_5247" data-name="Group 5247">
        <path id="Path_1873" data-name="Path 1873" d="M120.061,203.235a4.22,4.22,0,0,0,.615.043c.143.007.286.017.428.032l.107.012c.158.017-.113-.019-.008,0,.089.014.178.028.267.044a5.207,5.207,0,0,1,.567.139c.092.028.184.06.274.093.042.016.084.035.127.05-.17-.062,0,0,.051.026a3.855,3.855,0,0,1,.564.334c.125.088-.058-.057.023.017.042.04.087.074.129.112a3.2,3.2,0,0,1,.244.25c.02.023.038.047.058.068.095.11-.046-.072,0,0s.081.113.118.172a4.068,4.068,0,0,1,.208.384c.012.024.044.109,0-.01.013.031.025.065.037.1.029.075.054.151.076.227a4.387,4.387,0,0,1,.121.531.63.63,0,0,0,.769.436.641.641,0,0,0,.437-.769,3.934,3.934,0,0,0-1.88-2.786,5.8,5.8,0,0,0-2.512-.694c-.139-.01-.278-.016-.418-.02-.1,0-.371-.047-.066.01a.643.643,0,0,0-.77.437.631.631,0,0,0,.438.768Z" fill="#a2d45e"/>
      </g>
    </g>
  </g>
  <g id="Group_5252" data-name="Group 5252" transform="translate(-26.734 -23.786)">
    <g id="Group_5251" data-name="Group 5251">
      <g id="Group_5250" data-name="Group 5250">
        <path id="Path_1874" data-name="Path 1874" d="M122.4,200.369c.05.108.13.205.191.308s.106.188.153.286c.027.056.091.25.025.05.021.062.049.123.07.185.043.13.051.282.1.407-.024-.061-.014-.136,0-.023,0,.037.006.073.007.109,0,.076,0,.149-.006.223-.006.121.031-.143,0-.015-.008.039-.014.076-.024.114s-.017.063-.027.094-.012.039-.019.058c-.019.05-.019.051,0,0s.021-.049,0,0c-.009.018-.019.037-.027.057-.021.038-.041.076-.065.113s-.05.074-.074.112-.017.025.027-.034c-.019.025-.041.05-.062.074a.625.625,0,0,0,.884.884,2.41,2.41,0,0,0,.6-1.218,2.777,2.777,0,0,0-.079-1.192,4.163,4.163,0,0,0-.368-.854c-.071-.125-.167-.242-.228-.372a.627.627,0,0,0-.855-.224.642.642,0,0,0-.224.855Z" fill="#a2d45e"/>
      </g>
    </g>
  </g>
  <g id="Group_5255" data-name="Group 5255" transform="translate(-26.734 -23.786)">
    <g id="Group_5254" data-name="Group 5254">
      <g id="Group_5253" data-name="Group 5253">
        <path id="Path_1875" data-name="Path 1875" d="M123.292,203.69c-.139.091-.26.212-.39.317-.018.014-.037.028-.054.044.158-.135.086-.066.045-.036s-.1.071-.148.1a3.5,3.5,0,0,1-.333.2c-.059.031-.123.054-.18.086.157-.089.071-.029.023-.011l-.1.035a2.036,2.036,0,0,1-.22.06c-.035.007-.071.011-.1.02-.05.009-.024.005.076-.01l-.072.007a1.8,1.8,0,0,1-.221,0c-.037,0-.075-.009-.112-.01.175.006.065.008.015,0-.08-.018-.155-.043-.231-.066-.117-.037.119.058-.025-.012-.047-.024-.092-.048-.137-.074a.625.625,0,0,0-.631,1.079,2.4,2.4,0,0,0,1.27.335,2.944,2.944,0,0,0,1.16-.3,4.053,4.053,0,0,0,.787-.508q.108-.084.213-.174c.082-.069.2-.138,0-.007a.625.625,0,1,0-.631-1.078Z" fill="#a2d45e"/>
      </g>
    </g>
  </g>
  <g id="Group_5268" data-name="Group 5268" transform="translate(-26.734 -23.786)">
    <g id="Group_5258" data-name="Group 5258">
      <g id="Group_5257" data-name="Group 5257">
        <g id="Group_5256" data-name="Group 5256">
          <path id="Path_1876" data-name="Path 1876" d="M71.629,195.856a13.768,13.768,0,0,1-1.84,6.127,20.1,20.1,0,0,1-6.622,7.264c-.667.444-.042,1.527.631,1.079a21.434,21.434,0,0,0,7.07-7.712,15.12,15.12,0,0,0,2.011-6.758.625.625,0,0,0-1.25,0Z" fill="#a2d45e"/>
        </g>
      </g>
    </g>
    <g id="Group_5261" data-name="Group 5261">
      <g id="Group_5260" data-name="Group 5260">
        <g id="Group_5259" data-name="Group 5259">
          <path id="Path_1877" data-name="Path 1877" d="M73.767,198.715c-.015.012-.03.023-.044.036-.106.087.106-.079.053-.041s-.128.095-.194.139a4.253,4.253,0,0,1-.591.337c-.027.011-.055.023-.082.036.178-.087.083-.034.038-.017-.062.023-.125.046-.187.065s-.128.038-.193.052c-.03.007-.059.013-.089.018l-.06.01.106-.015a.53.53,0,0,1-.195.011c-.034,0-.069,0-.1,0-.108,0,.162.031.048.008-.058-.013-.116-.025-.171-.043l-.057-.021c.031.013.062.027.094.039-.032,0-.083-.042-.11-.057a.625.625,0,0,0-.631,1.08,2.339,2.339,0,0,0,2.142-.047,4.333,4.333,0,0,0,1.11-.7.629.629,0,0,0,0-.884.638.638,0,0,0-.883,0Z" fill="#a2d45e"/>
        </g>
      </g>
    </g>
    <g id="Group_5264" data-name="Group 5264">
      <g id="Group_5263" data-name="Group 5263">
        <g id="Group_5262" data-name="Group 5262">
          <path id="Path_1878" data-name="Path 1878" d="M68.332,199.341a4.489,4.489,0,0,0,.129.951,3.236,3.236,0,0,0,.674,1.4,1.84,1.84,0,0,0,.834.54.63.63,0,0,0,.769-.436.639.639,0,0,0-.437-.769.257.257,0,0,0-.069-.024.945.945,0,0,0,.094.04c-.01-.006-.021-.01-.032-.016a.954.954,0,0,1-.142-.082c-.084-.056.031.015.051.042a.6.6,0,0,0-.053-.045,1.091,1.091,0,0,1-.108-.107L70,200.785c-.068-.08.061.085.04.053s-.059-.085-.087-.129a3.023,3.023,0,0,1-.143-.277c-.04-.087.059.149.025.06l-.026-.066q-.027-.073-.051-.147c-.029-.094-.057-.19-.08-.287s-.037-.172-.053-.258c-.008-.041-.014-.082-.019-.123-.022-.135.021.183,0,.037a2.862,2.862,0,0,1-.023-.307.625.625,0,0,0-1.25,0Z" fill="#a2d45e"/>
        </g>
      </g>
    </g>
    <g id="Group_5267" data-name="Group 5267">
      <g id="Group_5266" data-name="Group 5266">
        <g id="Group_5265" data-name="Group 5265">
          <path id="Path_1879" data-name="Path 1879" d="M65.833,202.924a4.114,4.114,0,0,0,2.77,3.357,5.484,5.484,0,0,0,3.243-.263,4.6,4.6,0,0,0,.894-.394c.677-.431.051-1.514-.63-1.079-.057.036-.121.065-.182.1l-.156.071c-.128.059.044-.016.024-.009-.043.014-.085.034-.127.051a6.719,6.719,0,0,1-1.179.344c-.058.011-.118.019-.177.031-.146.027.079-.005-.037.006-.131.012-.261.027-.393.032s-.238,0-.356,0c-.063,0-.127-.008-.19-.013l-.1-.01c.045,0,.1.016.024,0a3.741,3.741,0,0,1-.378-.082c-.063-.019-.124-.041-.186-.06l-.069-.026c-.071-.026.1.047-.01,0a3.445,3.445,0,0,1-.353-.194c-.023-.015-.16-.11-.107-.071.032.024-.106-.09-.142-.122-.06-.057-.119-.116-.175-.178-.022-.023-.162-.2-.105-.12a3.507,3.507,0,0,1-.3-.481,4.943,4.943,0,0,1-.4-1.217.625.625,0,0,0-1.206.332Z" fill="#a2d45e"/>
        </g>
      </g>
    </g>
  </g>
  <g id="Group_5278" data-name="Group 5278" transform="translate(-26.734 -23.786)">
    <g id="Group_5271" data-name="Group 5271">
      <g id="Group_5270" data-name="Group 5270">
        <g id="Group_5269" data-name="Group 5269">
          <path id="Path_1880" data-name="Path 1880" d="M105.808,200.063c-4.394.3-6.451,4.706-7.194,8.52q-.084.437-.149.876c-.02.136-.038.271-.057.407-.025.2.028-.154,0-.022-.147.786,1.058,1.123,1.206.332.014-.077.022-.157.031-.235.025-.177-.023.159.006-.037.032-.214.064-.428.1-.642a18.428,18.428,0,0,1,.49-2.09,9.824,9.824,0,0,1,2.655-4.648,4.888,4.888,0,0,1,2.907-1.211c.8-.055.8-1.305,0-1.25Z" fill="#a2d45e"/>
        </g>
      </g>
    </g>
    <g id="Group_5274" data-name="Group 5274">
      <g id="Group_5273" data-name="Group 5273">
        <g id="Group_5272" data-name="Group 5272">
          <path id="Path_1881" data-name="Path 1881" d="M100.283,198.661a2.865,2.865,0,0,0-.646,2.894,4.022,4.022,0,0,0,.516,1.207,1.519,1.519,0,0,0,.88.736.64.64,0,0,0,.769-.437.632.632,0,0,0-.437-.768.208.208,0,0,1-.066-.018c.015.008.174.078.08.028s.049.021.054.047c0-.016-.062-.054-.075-.067-.03-.029-.074-.109-.112-.125.067.087.08.1.042.053l-.028-.039c-.022-.032-.043-.066-.065-.1-.041-.065-.079-.133-.114-.2-.026-.051-.062-.194-.108-.227.037.087.043.1.017.038-.008-.02-.014-.038-.021-.058-.018-.045-.033-.091-.049-.137-.029-.087-.055-.174-.078-.264s-.043-.182-.06-.275c0-.028-.01-.056-.013-.085,0,.027.006.053.01.08a.592.592,0,0,1-.017-.174c-.006-.085-.008-.172-.007-.259,0-.057,0-.115.009-.172,0-.014,0-.028,0-.042q.011-.105-.006.039a1.144,1.144,0,0,1,.066-.288c.006-.02.026-.114.041-.118-.035.078-.042.1-.022.052a.465.465,0,0,1,.026-.056,2.009,2.009,0,0,1,.154-.251c-.092.133-.011.02.013-.006.04-.043.083-.084.127-.123a.629.629,0,0,0,0-.884.641.641,0,0,0-.884,0Z" fill="#a2d45e"/>
        </g>
      </g>
    </g>
    <g id="Group_5277" data-name="Group 5277">
      <g id="Group_5276" data-name="Group 5276">
        <g id="Group_5275" data-name="Group 5275">
          <path id="Path_1882" data-name="Path 1882" d="M99.988,207.326c.073,0-.216-.049-.064,0-.178-.057-.1-.046-.014,0,.113.057.225.118.339.174a3.96,3.96,0,0,0,1.091.374,4.331,4.331,0,0,0,3.514-1.2.63.63,0,0,0,0-.884.636.636,0,0,0-.883,0,4.822,4.822,0,0,1-.828.568,2.274,2.274,0,0,1-.651.256c-.061.016-.123.03-.185.042-.036.007-.225.027-.065.013-.1.009-.209.017-.314.017s-.2-.01-.294-.018c.18.014.018,0-.025-.006s-.093-.018-.14-.029a4.182,4.182,0,0,1-.468-.15c-.106-.038.145.068-.007,0l-.086-.04-.183-.092a1.611,1.611,0,0,0-.737-.266.625.625,0,0,0,0,1.25Z" fill="#a2d45e"/>
        </g>
      </g>
    </g>
  </g>
  <g id="Group_5288" data-name="Group 5288" transform="translate(-26.734 -23.786)">
    <g id="Group_5281" data-name="Group 5281">
      <g id="Group_5280" data-name="Group 5280">
        <g id="Group_5279" data-name="Group 5279">
          <path id="Path_1883" data-name="Path 1883" d="M44.162,200.054c-4.394.3-6.451,4.706-7.194,8.52q-.085.437-.15.877c-.019.135-.038.271-.056.406-.026.2.027-.154,0-.022-.149.786,1.056,1.123,1.205.332.013-.077.021-.156.031-.234.024-.178-.024.157.006-.039.031-.213.063-.427.1-.641a18.55,18.55,0,0,1,.491-2.091,9.81,9.81,0,0,1,2.655-4.646,4.883,4.883,0,0,1,2.907-1.212c.8-.055.8-1.305,0-1.25Z" fill="#a2d45e"/>
        </g>
      </g>
    </g>
    <g id="Group_5284" data-name="Group 5284">
      <g id="Group_5283" data-name="Group 5283">
        <g id="Group_5282" data-name="Group 5282">
          <path id="Path_1884" data-name="Path 1884" d="M38.637,198.652a2.864,2.864,0,0,0-.647,2.9,4.044,4.044,0,0,0,.517,1.206,1.519,1.519,0,0,0,.88.736.625.625,0,0,0,.332-1.206.2.2,0,0,1-.067-.017c.016.008.175.078.08.028s.049.021.054.047c0-.016-.061-.054-.073-.067-.031-.029-.075-.11-.113-.125.066.087.08.1.042.053-.009-.012-.019-.026-.028-.04-.022-.031-.044-.064-.064-.1-.042-.067-.079-.134-.115-.2-.027-.05-.063-.193-.108-.226.036.088.042.1.017.038-.008-.02-.015-.038-.022-.058-.017-.045-.033-.091-.049-.137-.029-.086-.054-.175-.078-.264s-.043-.182-.058-.274c-.006-.029-.011-.057-.015-.087,0,.028.007.054.011.081a.551.551,0,0,1-.018-.173c-.006-.087-.008-.173-.007-.26,0-.058,0-.114.009-.172,0-.014,0-.028,0-.042q.012-.105-.006.039a1.223,1.223,0,0,1,.067-.287c.006-.021.026-.115.041-.119-.035.078-.042.1-.023.053a.592.592,0,0,1,.027-.057,1.974,1.974,0,0,1,.154-.252c-.093.134-.012.022.013-.005.04-.044.083-.083.127-.123a.628.628,0,0,0,0-.884.641.641,0,0,0-.884,0Z" fill="#a2d45e"/>
        </g>
      </g>
    </g>
    <g id="Group_5287" data-name="Group 5287">
      <g id="Group_5286" data-name="Group 5286">
        <g id="Group_5285" data-name="Group 5285">
          <path id="Path_1885" data-name="Path 1885" d="M38.342,207.316c.072,0-.216-.048-.065,0-.177-.057-.1-.046-.013,0,.113.057.224.119.339.174a4.023,4.023,0,0,0,1.09.375,4.337,4.337,0,0,0,3.515-1.205.63.63,0,0,0,0-.885.639.639,0,0,0-.884,0,4.739,4.739,0,0,1-.828.57,2.371,2.371,0,0,1-.65.256c-.062.015-.123.03-.186.042-.035,0-.224.026-.064.012-.1.009-.209.017-.315.017s-.195-.01-.293-.018c.18.014.018,0-.025-.006s-.094-.018-.141-.029a4.318,4.318,0,0,1-.468-.15c-.1-.038.146.068-.005,0-.03-.014-.059-.026-.087-.04l-.184-.092a1.632,1.632,0,0,0-.736-.267.625.625,0,0,0,0,1.25Z" fill="#a2d45e"/>
        </g>
      </g>
    </g>
  </g>
  <g id="Group_5298" data-name="Group 5298" transform="translate(-26.734 -23.786)">
    <g id="Group_5291" data-name="Group 5291">
      <g id="Group_5290" data-name="Group 5290">
        <g id="Group_5289" data-name="Group 5289">
          <path id="Path_1886" data-name="Path 1886" d="M141.654,195.2c-4.394.3-6.45,4.706-7.194,8.521q-.086.437-.149.877c-.02.134-.038.27-.056.406-.027.2.027-.155,0-.023-.148.786,1.056,1.123,1.205.332.014-.077.021-.156.031-.234.025-.178-.023.157.006-.038.032-.214.064-.428.1-.642a18.7,18.7,0,0,1,.49-2.09,9.823,9.823,0,0,1,2.656-4.647,4.881,4.881,0,0,1,2.906-1.212c.8-.054.8-1.3,0-1.25Z" fill="#a2d45e"/>
        </g>
      </g>
    </g>
    <g id="Group_5294" data-name="Group 5294">
      <g id="Group_5293" data-name="Group 5293">
        <g id="Group_5292" data-name="Group 5292">
          <path id="Path_1887" data-name="Path 1887" d="M136.129,193.8a2.864,2.864,0,0,0-.647,2.894A4.044,4.044,0,0,0,136,197.9a1.527,1.527,0,0,0,.88.737.641.641,0,0,0,.769-.437.632.632,0,0,0-.437-.769.171.171,0,0,1-.066-.018c.015.009.174.078.08.028s.048.022.053.047c0-.015-.061-.053-.073-.066-.03-.03-.075-.11-.112-.125.065.087.08.1.042.053l-.029-.04c-.022-.032-.043-.065-.064-.1-.041-.067-.079-.134-.115-.2-.027-.05-.062-.194-.108-.227.037.088.042.1.017.038-.008-.019-.015-.038-.022-.057-.016-.045-.033-.091-.048-.137-.03-.087-.055-.176-.078-.265s-.043-.181-.059-.274c-.006-.029-.01-.057-.015-.086,0,.027.007.054.011.08a.551.551,0,0,1-.018-.173c0-.087-.007-.173,0-.26,0-.057,0-.114.007-.172l.005-.041c.008-.071.006-.057-.007.039a1.2,1.2,0,0,1,.067-.287c.007-.022.026-.116.041-.12l-.023.053.027-.057a2.009,2.009,0,0,1,.154-.251c-.093.133-.012.021.013-.005.04-.044.083-.083.128-.124a.629.629,0,0,0,0-.883.642.642,0,0,0-.885,0Z" fill="#a2d45e"/>
        </g>
      </g>
    </g>
    <g id="Group_5297" data-name="Group 5297">
      <g id="Group_5296" data-name="Group 5296">
        <g id="Group_5295" data-name="Group 5295">
          <path id="Path_1888" data-name="Path 1888" d="M135.835,202.467c.071,0-.217-.049-.065,0-.178-.058-.1-.046-.014,0,.113.056.224.118.34.174a4.046,4.046,0,0,0,1.09.375,4.342,4.342,0,0,0,3.515-1.205.632.632,0,0,0,0-.885.64.64,0,0,0-.885,0,4.7,4.7,0,0,1-.828.569,2.3,2.3,0,0,1-.65.256c-.062.016-.123.03-.186.042-.034.006-.224.026-.063.013-.106.009-.21.016-.315.016s-.2-.009-.294-.017c.18.013.018,0-.024-.006s-.1-.019-.142-.03a4.014,4.014,0,0,1-.466-.15c-.107-.038.144.069-.007,0l-.087-.04c-.062-.03-.122-.06-.183-.092a1.623,1.623,0,0,0-.736-.266.625.625,0,0,0,0,1.25Z" fill="#a2d45e"/>
        </g>
      </g>
    </g>
  </g>
  <path id="Path_1889" data-name="Path 1889" d="M152.792,158.04c-.6.542-1.194,1.078-1.753,1.65A48.259,48.259,0,0,0,147,164.417c-2.959,3.97-6.857,6.1-11.1,8.621-2.052,1.215-4.193,2.387-6.123,3.766a29.168,29.168,0,0,1-5.884,2.788c-1.509.653-3.253,1.453-4.812,2.046-1.633.623-3.29,1.217-4.865,1.975a127.1,127.1,0,0,0-16.052,9.478c-4.688,3.178-9.951,5.935-14.2,9.7-1.216-1.83-3.376-3.176-4.355-4.988a16.459,16.459,0,0,0,3.185-4.9c2.362-4.462,6.621-7.791,10.877-10.376,4.232-2.568,9.191-3.437,13.016-6.7,5.3-4.526,10.676-9.142,16.156-13.584a83.061,83.061,0,0,0,8.04-7.993c1.072-1.16,2.918-2.741,3.1-4.061.155-1.119-.192-2.448,0-3.666A11.77,11.77,0,0,1,135,142.735a19.486,19.486,0,0,1,7.55-7.444c3.335-1.972,6.639-1.844,10.342-.6,2.715.909,3.7,3.942,3.81,6.517.111,2.479.053,5.064.032,7.591-.021,2.23-.055,4.658-1.381,6.525A17.485,17.485,0,0,1,152.792,158.04Z" transform="translate(-26.734 -23.786)" fill="#a2c7e2"/>
  <path id="Path_1890" data-name="Path 1890" d="M164.016,142.246c1.427-2.315,1.643-5.47,2.127-8.067.5-2.674,2-5.07,2.865-7.627.611-1.817.829-3.751,1.524-5.543.559-1.444.532-3.6,1.379-4.807a12.747,12.747,0,0,0,2-2.86c2.164-5.816-2.835-11.433-6.752-15.1-4.147-3.878-10.427-10.157-16.612-6.823a9.2,9.2,0,0,0-4.52,9.3c.9,5.133,1.817,10.349,2.883,15.493.819,3.949,1.229,7.889-.38,11.709-.838,2-2.088,3.713-3.061,5.615-.585,1.147-.5,1.106.31,2.039a17.615,17.615,0,0,0,3.811,3.135c2.758,1.778,5.477,3.367,8.715,3.8a46.573,46.573,0,0,0,6.124.14Z" transform="translate(-26.734 -23.786)" fill="#0033a1"/>
  <path id="Path_1891" data-name="Path 1891" d="M147.969,97.25c-.887-9.185-1.871-19.118-.979-28.534-.242-6.819-.916-13.737-.844-20.562.047-4.341.461-5.3.047-7.194-.492-2.25-1.2-2.864-1.821-5.126a22.8,22.8,0,0,1-.841-5.808c1.692-.119,1.641,2.565,3.168,2.889a29.325,29.325,0,0,1,.964-5.425c.432-1.647.907-3.659,1.648-3.343.531.227.7,2.073.685,2.553.16-.889.233-2.213.93-2.914.6.657.456,2.334.456,2.334s.774-1.67,1.263-1.5.039,3.059.013,4.426c-.033-.742.766-3.214,1.238-3.21s.41,1,.377,1.689c-.06,1.3-.26,2.567-.384,3.857a45.619,45.619,0,0,1-1.516,7.483c-.71,2.824-1.712,3.993-.95,9.522,1.294,9.4,6.873,36.049,8.789,49.6C162.175,111.886,148.686,104.642,147.969,97.25Z" transform="translate(-26.734 -23.786)" fill="#ffcc8b"/>
  <path id="Path_1892" data-name="Path 1892" d="M84.839,201.91c-.477,1.053-1.583,1.474-2.4,2.323-1.411,1.469-1.693,5.766.23,7.033.9.592,2.245,0,2.785,1.333.969,2.387-3.8,1.634-4.878,1.477-3.46-.517-3.668-1.622-3.8-4.938A17.15,17.15,0,0,0,75.76,203c-.933-2.271-1.737-3.622,1.153-4.212,1.734-.355,3.719-.185,4.444-2.187Z" transform="translate(-26.734 -23.786)" fill="#ffcc8b"/>
</svg>
