<svg xmlns="http://www.w3.org/2000/svg" xmlns:xlink="http://www.w3.org/1999/xlink" viewBox="0 0 191.13 143.79"><defs><style>.cls-1{fill:none;}.cls-2{isolation:isolate;}.cls-3{clip-path:url(#clip-path);}.cls-4{fill:#f18553;}.cls-5{fill:#bb7230;}.cls-6{fill:#c88d57;}.cls-7,.cls-9{fill:#edf0f2;}.cls-8{fill:#1a2833;}.cls-9{opacity:0.5;mix-blend-mode:overlay;}</style><clipPath id="clip-path"><rect class="cls-1" x="-0.4" y="0.23" width="191.99" height="144"/></clipPath></defs><g class="cls-2"><g id="Capa_1" data-name="Capa 1"><g class="cls-3"><path class="cls-4" d="M48.31,190.78l2.36-17.23c.77.27,1.56.5,2.38.71l1.15,16.52H137l1.14-16.52c.82-.21,1.62-.44,2.38-.71l2.36,17.23h19.39L162,165.93c-.33-30-7.89-46.44-17.77-55.82-10.29-11-28.21-14.75-48.6-14.75S57.26,99.1,47,110.11c-9.87,9.38-17.44,25.78-17.77,55.82l-.28,24.85Z"/><path class="cls-5" d="M95.58,118.09h0A15.07,15.07,0,0,0,110.64,103V74.81H80.51V103A15.07,15.07,0,0,0,95.58,118.09Z"/><path class="cls-6" d="M95.58,94.05h0A22.85,22.85,0,0,0,118.42,71.2V51.11C118.42,38.49,108.19,32,95.58,32h0C83,32,72.73,38.49,72.73,51.11V71.2A22.85,22.85,0,0,0,95.58,94.05Z"/><path class="cls-7" d="M101.81,80.74a3.68,3.68,0,0,1-3.54,2.2H92.88a3.68,3.68,0,0,1-3.54-2.2Z"/><path class="cls-8" d="M113.69,32.15a6.38,6.38,0,0,0,.09-1,8.92,8.92,0,0,0-8.92-8.92,9.32,9.32,0,0,0-1.77.17,8.84,8.84,0,0,0-15.71-.06,7.75,7.75,0,0,0-1.08-.11,8.92,8.92,0,0,0-8.93,8.92,7.87,7.87,0,0,0,.12,1.2A17.26,17.26,0,0,0,70.3,46.29V61.05a2.33,2.33,0,0,0,2.33,2.33h0A2.33,2.33,0,0,0,75,61.05v-10a15.12,15.12,0,0,1,5.13-11.93c3.28,2.46,9,4.09,15.49,4.09s12.2-1.63,15.49-4.09a15.15,15.15,0,0,1,5.12,11.93v10a2.33,2.33,0,0,0,2.33,2.33h0a2.33,2.33,0,0,0,2.33-2.33V46.29A17.2,17.2,0,0,0,113.69,32.15Z"/><ellipse class="cls-6" cx="73.55" cy="64.54" rx="6.14" ry="8.02"/><path class="cls-6" d="M123.74,64.54c0-4.43-2.74-8-6.13-8s-6.14,3.59-6.14,8,2.75,8,6.14,8S123.74,69,123.74,64.54Z"/><path class="cls-9" d="M49.19,17.54h-37a3.88,3.88,0,0,1-3.88-3.88h0a3.88,3.88,0,0,1,3.88-3.88h37a3.88,3.88,0,0,1,3.88,3.88h0A3.88,3.88,0,0,1,49.19,17.54Z"/></g></g></g></svg>