<svg id="Component_12_1" data-name="Component 12 – 1" xmlns="http://www.w3.org/2000/svg" xmlns:xlink="http://www.w3.org/1999/xlink" width="259.437" height="195.258" viewBox="0 0 259.437 195.258">
  <defs>
    <clipPath id="clip-path">
      <rect id="Rectangle_2992" data-name="Rectangle 2992" width="6.149" height="2.888" transform="translate(254.8 148.93)" fill="none"/>
    </clipPath>
  </defs>
  <g id="Group_4159" data-name="Group 4159" transform="translate(-23.634 -24.339)">
    <g id="Group_4158" data-name="Group 4158">
      <path id="Path_1330" data-name="Path 1330" d="M122.384,125.108a5.1,5.1,0,0,1,2.084.257c.507-.363.985-.727,1.42-1.07a89.284,89.284,0,0,0,6.721-8.1c-1.7-1.346-3.231-2.975-4.722-4.4l-.971-.928,6.03-5.461s.043.037.121.108c1.043.97,8.708,8.172,7.331,11.006a11.125,11.125,0,0,1-1.387,2.011c0,.02.008.038.008.059l-.295.285-.053.065-.012,0c-2.564,2.474-8.093,7.763-9.788,9.179-1.185.992-1.962,1.614-1.962,1.614l-.508.9a.818.818,0,0,1-.063.1c-.464.755-2.041,2.469-2.177,2.925s-2.17,1.093-4.147.565l-.233-7.86A5,5,0,0,1,122.384,125.108Z" fill="#ffcc8b"/>
    </g>
  </g>
  <g id="Group_4161" data-name="Group 4161" transform="translate(-23.634 -24.339)">
    <g id="Group_4160" data-name="Group 4160">
      <path id="Path_1331" data-name="Path 1331" d="M135.522,116.918l.054.032a38.717,38.717,0,0,0-5.4,2.529c.881-1.109,1.746-2.228,2.481-3.19-1.7-1.348-3.231-2.975-4.722-4.4l-.972-.928,6.031-5.461s.043.036.122.107c.1.089.259.244.451.427a5.425,5.425,0,0,0-2.943,3.639C130.011,113.069,132.884,115.447,135.522,116.918Z" fill="#ffad5f"/>
    </g>
  </g>
  <g id="Group_4163" data-name="Group 4163" transform="translate(-23.634 -24.339)">
    <g id="Group_4162" data-name="Group 4162">
      <path id="Path_1332" data-name="Path 1332" d="M34.817,114.961a24.328,24.328,0,0,1,1.4-9.162c2.184-5.3,7.337-8.725,12.448-11.32,8.357-4.242,17.567-7.176,26.938-7.028s18.918,3.644,25.18,10.618c6.643,7.4,8.9,17.6,12.751,26.764,4.358,10.373,12.036,20.49,23.041,22.834,8.686,1.85,17.64-1.53,25.37-5.9s14.951-9.828,23.344-12.73,18.637-2.7,25.108,3.376c3.019,2.837,4.945,6.681,7.96,9.521,7.479,7.043,19.219,6.139,29.349,4.428s21.5-3.516,29.88,2.425a12.518,12.518,0,0,1,5.288,7.379c.909,4.425-1.515,8.866-4.466,12.287-8.435,9.776-34.006,22.644-46.4,26.277a306.331,306.331,0,0,1-131.3,9.537C60.864,198.507,34.537,157.592,34.817,114.961Z" fill="#f7f7f7"/>
    </g>
  </g>
  <g id="Group_4165" data-name="Group 4165" transform="translate(-23.634 -24.339)">
    <g id="Group_4164" data-name="Group 4164">
      <ellipse id="Ellipse_3" data-name="Ellipse 3" cx="103.73" cy="8.113" rx="103.73" ry="8.113" transform="translate(59.762 201.244)" fill="#f7f7f7"/>
    </g>
  </g>
  <g id="Group_4198" data-name="Group 4198" transform="translate(-23.634 -24.339)">
    <g id="Group_4167" data-name="Group 4167">
      <g id="Group_4166" data-name="Group 4166">
        <path id="Path_1333" data-name="Path 1333" d="M57.97,184.364c.319-.132.665-.377.646-.719-.018-.385-.468-.585-.851-.661a6.427,6.427,0,0,0-5.789,1.872l-.026.125a8.974,8.974,0,0,0-5.191-2.913c-.445-.077-.987-.082-1.24.284a.834.834,0,0,0,.023.9,2.111,2.111,0,0,0,.707.632,9.018,9.018,0,0,0,5.765,1.3l-.036-.171v0C53.939,184.524,56.108,185.146,57.97,184.364Z" fill="#d8e081"/>
      </g>
    </g>
    <g id="Group_4169" data-name="Group 4169">
      <g id="Group_4168" data-name="Group 4168">
        <path id="Path_1334" data-name="Path 1334" d="M58.477,190.4a1.064,1.064,0,0,0,.61-.364.787.787,0,0,0-.139-.93,1.832,1.832,0,0,0-.887-.461,6.159,6.159,0,0,0-5.937,1.615l-.092.2A9.741,9.741,0,0,0,47,186.268c-.443-.165-1.019-.257-1.314.108a.79.79,0,0,0-.069.8,2.024,2.024,0,0,0,.519.659,10.321,10.321,0,0,0,5.929,2.705l-.008-.029c1.509.013,3.019.031,4.524.045A6.97,6.97,0,0,0,58.477,190.4Z" fill="#d8e081"/>
      </g>
    </g>
    <g id="Group_4171" data-name="Group 4171">
      <g id="Group_4170" data-name="Group 4170">
        <path id="Path_1335" data-name="Path 1335" d="M51.418,201.09a14.565,14.565,0,0,0,6.3,1.467c.409,0,.909-.065,1.078-.439.186-.407-.164-.852-.528-1.112a5.345,5.345,0,0,0-3.468-.818,16.061,16.061,0,0,0-3.542.808Z" fill="#d8e081"/>
      </g>
    </g>
    <g id="Group_4173" data-name="Group 4173">
      <g id="Group_4172" data-name="Group 4172">
        <path id="Path_1336" data-name="Path 1336" d="M56.619,173.551c-.051-.465-.593-.7-1.059-.75a4.5,4.5,0,0,0-2.931.82,7.714,7.714,0,0,0-2.092,2.254l0,.011A8,8,0,0,0,47.2,173.9a1.864,1.864,0,0,0-1.06.021.892.892,0,0,0-.6.8,1.186,1.186,0,0,0,.7.888,7.749,7.749,0,0,0,4.139.616l.246-.134a17.767,17.767,0,0,0,5.117-1.517C56.176,174.373,56.673,174.031,56.619,173.551Z" fill="#d8e081"/>
      </g>
    </g>
    <g id="Group_4175" data-name="Group 4175">
      <g id="Group_4174" data-name="Group 4174">
        <path id="Path_1337" data-name="Path 1337" d="M55.148,169.491a.922.922,0,0,0-.483-.7,1.746,1.746,0,0,0-.851-.205,4.346,4.346,0,0,0-2.5.816,10.516,10.516,0,0,0-1.936,1.824l.238,0a26.24,26.24,0,0,0,4.174-.54,2.6,2.6,0,0,0,.913-.363A.978.978,0,0,0,55.148,169.491Z" fill="#d8e081"/>
      </g>
    </g>
    <g id="Group_4177" data-name="Group 4177">
      <g id="Group_4176" data-name="Group 4176">
        <path id="Path_1338" data-name="Path 1338" d="M57.707,196.265a2.642,2.642,0,0,0,1.35-.148.9.9,0,0,0,.495-1.128,1.226,1.226,0,0,0-.817-.515,7.548,7.548,0,0,0-6.627,1.431Z" fill="#d8e081"/>
      </g>
    </g>
    <g id="Group_4179" data-name="Group 4179">
      <g id="Group_4178" data-name="Group 4178">
        <path id="Path_1339" data-name="Path 1339" d="M49.48,171.266l-.155.029a7.533,7.533,0,0,0-4.635-2.13,1.941,1.941,0,0,0-.858.075.79.79,0,0,0-.537.619c-.046.459.419.8.841.986A7.967,7.967,0,0,0,49.48,171.266Z" fill="#d8e081"/>
      </g>
    </g>
    <g id="Group_4181" data-name="Group 4181">
      <g id="Group_4180" data-name="Group 4180">
        <path id="Path_1340" data-name="Path 1340" d="M47.045,164.977a9.447,9.447,0,0,0-3.957-6.7,2.22,2.22,0,0,0-.764-.381.906.906,0,0,0-.808.172c-.384.352-.25.981-.033,1.453,1.085,2.344,3.353,3.9,5.517,5.327Z" fill="#d8e081"/>
      </g>
    </g>
    <g id="Group_4183" data-name="Group 4183">
      <g id="Group_4182" data-name="Group 4182">
        <path id="Path_1341" data-name="Path 1341" d="M51.448,181.058a.512.512,0,0,1,.038-.047l-.044.007.016-.014a6.7,6.7,0,0,0-4.995-3.236c-.475-.03-1.053.069-1.237.509-.2.478.213.985.624,1.3a7.554,7.554,0,0,0,5.517,1.494l.037-.028Z" fill="#d8e081"/>
      </g>
    </g>
    <g id="Group_4185" data-name="Group 4185">
      <g id="Group_4184" data-name="Group 4184">
        <path id="Path_1342" data-name="Path 1342" d="M48.006,167.856l.165-.1a13.188,13.188,0,0,0-2.424-1.7,5.993,5.993,0,0,0-2.852-.717,1.867,1.867,0,0,0-.874.189.876.876,0,0,0-.485.709c-.014.5.5.842.968,1.039A9.543,9.543,0,0,0,48.006,167.856Z" fill="#d8e081"/>
      </g>
    </g>
    <g id="Group_4187" data-name="Group 4187">
      <g id="Group_4186" data-name="Group 4186">
        <path id="Path_1343" data-name="Path 1343" d="M57.44,178.441a1,1,0,0,0-.751-.44,4.176,4.176,0,0,0-3.041.748,8.968,8.968,0,0,0-2.162,2.262,26.772,26.772,0,0,0,4.972-1.23,2.151,2.151,0,0,0,.807-.476A.789.789,0,0,0,57.44,178.441Z" fill="#d8e081"/>
      </g>
    </g>
    <g id="Group_4189" data-name="Group 4189">
      <g id="Group_4188" data-name="Group 4188">
        <path id="Path_1344" data-name="Path 1344" d="M52.064,195.939c.014-.009.027-.023.044-.034a.363.363,0,0,1-.057-.005l-.019-.039a10.38,10.38,0,0,0-4.081-5.606,1.331,1.331,0,0,0-1.2-.3,1.073,1.073,0,0,0-.471,1.23,4.008,4.008,0,0,0,1.546,2.106A22.535,22.535,0,0,0,51.942,196v0l-.031.061c.02-.018.04-.032.06-.05.054.032.108.06.166.088Z" fill="#d8e081"/>
      </g>
    </g>
    <g id="Group_4191" data-name="Group 4191">
      <g id="Group_4190" data-name="Group 4190">
        <path id="Path_1345" data-name="Path 1345" d="M51.258,200.967c-.042-.024-.083-.043-.125-.071.02.1.042.208.058.311Z" fill="#d8e081"/>
      </g>
    </g>
    <g id="Group_4193" data-name="Group 4193">
      <g id="Group_4192" data-name="Group 4192">
        <path id="Path_1346" data-name="Path 1346" d="M46.454,194.065a2.175,2.175,0,0,0-.879-.256.953.953,0,0,0-.811.359,1.128,1.128,0,0,0-.11.9,4.433,4.433,0,0,0,1.3,2.005,20.87,20.87,0,0,0,5.181,3.825,11.649,11.649,0,0,0-1.454-3.843A7.8,7.8,0,0,0,46.454,194.065Z" fill="#d8e081"/>
      </g>
    </g>
    <g id="Group_4195" data-name="Group 4195">
      <g id="Group_4194" data-name="Group 4194">
        <path id="Path_1347" data-name="Path 1347" d="M43.057,200.484a.952.952,0,0,0-.109.737,2.223,2.223,0,0,0,.323.691,11.31,11.31,0,0,0,3.039,3.1,29.864,29.864,0,0,0,3.651,2.16l-.151.1a16.156,16.156,0,0,0,5.916.74,2.25,2.25,0,0,0,.959-.215.815.815,0,0,0,.441-.815c-.067-.338-.409-.548-.724-.688a6.31,6.31,0,0,0-6.339.811l0-.029A9.508,9.508,0,0,0,46.28,201a4.186,4.186,0,0,0-2.178-.9A1.161,1.161,0,0,0,43.057,200.484Z" fill="#d8e081"/>
      </g>
    </g>
    <g id="Group_4197" data-name="Group 4197">
      <g id="Group_4196" data-name="Group 4196">
        <path id="Path_1348" data-name="Path 1348" d="M48.419,209.822a56.921,56.921,0,0,0-2.6-44.61c-.425-.859.981-1.373,1.4-.523a58.38,58.38,0,0,1,2.555,45.765C49.448,211.355,48.1,210.719,48.419,209.822Z" fill="#d8e081"/>
      </g>
    </g>
  </g>
  <g id="Group_4206" data-name="Group 4206" transform="translate(-23.634 -24.339)">
    <g id="Group_4200" data-name="Group 4200">
      <g id="Group_4199" data-name="Group 4199">
        <path id="Path_1349" data-name="Path 1349" d="M48.612,210.856l-.343-.128c.021.109.045.216.074.324Z" fill="#00a3a1"/>
      </g>
    </g>
    <g id="Group_4203" data-name="Group 4203" opacity="0.4">
      <g id="Group_4202" data-name="Group 4202">
        <g id="Group_4201" data-name="Group 4201">
          <path id="Path_1350" data-name="Path 1350" d="M48.269,210.728c-.458-2.271.25-4.812,1.163-7.211.961-2.515,2.16-5.029,2.546-7.574a1.648,1.648,0,0,0-.324-1.566,1.877,1.877,0,0,0-2.155.326,5.386,5.386,0,0,0-1.326,1.922,17.836,17.836,0,0,0-1.5-9.684l-2.6,3.132a16.019,16.019,0,0,0-2.49-7.608A2,2,0,0,0,39.5,181.32c-1.048.269-1.5,1.449-1.718,2.393a16,16,0,0,0-9.6-7.7c-1.128-.349-2.622-.517-3.594.376s-.743,2.237-.373,3.271a41.6,41.6,0,0,0,4.284,8.7,6.3,6.3,0,0,0-2.822-.193c-.984.219-2,1.011-2.045,1.887-.042.788.667,1.31,1.327,1.725q3.781,2.388,7.835,4.448c-1.19.148-2.732.573-3.006,1.64-.233.9.673,1.5,1.486,1.886q3.367,1.6,6.889,2.981a2.05,2.05,0,0,0-2.058,1.352,1.956,1.956,0,0,0,.646,2.062,6.494,6.494,0,0,0,2.092,1.078Q43.557,208.978,48.269,210.728Z" fill="#00abc4"/>
        </g>
      </g>
    </g>
    <g id="Group_4205" data-name="Group 4205">
      <g id="Group_4204" data-name="Group 4204">
        <path id="Path_1351" data-name="Path 1351" d="M30.186,179.845a103.91,103.91,0,0,1,8.73,12.22,28.293,28.293,0,0,0,.171-4.8c-.023-.477.718-.416.741.055a28.282,28.282,0,0,1-.292,5.749h0q2.491,4.179,4.593,8.581.51-3.649,1.02-7.3c.066-.471.808-.419.742.055l-1.14,8.152a.368.368,0,0,1-.1.2c.8,1.734,1.577,3.483,2.284,5.263.175.443-.491.771-.668.327-.745-1.875-1.565-3.714-2.416-5.536a.322.322,0,0,1-.082-.022l-5.442-2.747c-.421-.213-.175-.916.251-.7l4.773,2.409c-1.421-2.951-2.963-5.838-4.651-8.641a.388.388,0,0,1-.164-.01,39.6,39.6,0,0,1-7.052-2.687c-.424-.21-.178-.912.251-.7a39.628,39.628,0,0,0,6.4,2.491,103.942,103.942,0,0,0-8.511-11.878C29.316,179.961,29.88,179.477,30.186,179.845Z" fill="#00aeb4"/>
      </g>
    </g>
  </g>
  <g id="Group_4212" data-name="Group 4212" transform="translate(-23.634 -24.339)">
    <g id="Group_4209" data-name="Group 4209" opacity="0.4">
      <g id="Group_4208" data-name="Group 4208">
        <g id="Group_4207" data-name="Group 4207">
          <path id="Path_1352" data-name="Path 1352" d="M50.086,195.213a3.992,3.992,0,0,0,.278,3.147q1.989,5.193,4.405,10.208l-.188.147,9.635-.02a5.119,5.119,0,0,0,2.011-.267,1.577,1.577,0,0,0,.371-2.885,3.512,3.512,0,0,0-.882-.494l-4.248-1.7c-.478-.193-1.042-.5-.912-1.073a.875.875,0,0,1,.556-.606,11.189,11.189,0,0,1,6.584-.4,5.142,5.142,0,0,0,1.885.274c.855-.12,1.715-.992.942-1.94a1.95,1.95,0,0,0-.614-.48,21,21,0,0,0-4.723-1.763c-.85-.2-1.956-.665-1.7-1.589a1.145,1.145,0,0,1,.861-.788,15.175,15.175,0,0,1,5.892-.137,3.88,3.88,0,0,0,1.464.094c.665-.137,1.3-.809.767-1.578a1.556,1.556,0,0,0-.851-.577l-4.592-1.337c-.543-.159-1.187-.418-1.147-1.07a1.026,1.026,0,0,1,.821-.916,17.768,17.768,0,0,1,6.461-.175,2.758,2.758,0,0,0,2.013-.152.966.966,0,0,0,.456-.928c-.082-.539-.6-.733-1.062-.88l-4.9-1.553a.341.341,0,0,1-.016-.646,13.252,13.252,0,0,1,6.035-.663,4.106,4.106,0,0,0,1.526.027c.695-.182,1.328-.948.637-1.711a1.607,1.607,0,0,0-.677-.432,27.583,27.583,0,0,0-4.626-1.209q1.644-1.583,3.287-3.171c.8-.773,1.678-1.738,1.321-2.882a1.976,1.976,0,0,0-1.774-1.315,3.685,3.685,0,0,0-3.189,1.9,3.783,3.783,0,0,1-1.434,1.576A1.128,1.128,0,0,1,69.7,177.2c-.537-.355-.474-1.025-.489-1.611-.013-.513-.211-1.134-.714-1.222a.931.931,0,0,0-.746.253,3.055,3.055,0,0,0-.681,2.8c.17,1.216.534,2.5-.258,3.6a1.4,1.4,0,0,1-1.872.434c-.629-.406-.623-1.205-.767-1.89s-.724-1.45-1.426-1.087a1.056,1.056,0,0,0-.447.514c-.674,1.522-.227,3.22.049,4.834a7.128,7.128,0,0,1-.034,3.082.762.762,0,0,1-1.4.147l-1.719-3.084c-.191-.345-.423-.722-.89-.69a.789.789,0,0,0-.6.387,2.043,2.043,0,0,0-.048,1.616q.759,3.05,1.516,6.094c.175.7.318,1.548-.3,2.029a1.323,1.323,0,0,1-1.643-.1c-1-.816-1.009-2.1-1.534-3.156-.314-.634-1.1-1.24-1.685-.638a1.023,1.023,0,0,0-.219,1,34.346,34.346,0,0,0,2.3,5.774,3.167,3.167,0,0,1,.531,2.347,1.112,1.112,0,0,1-1.2.833c-.556-.093-.853-.651-1.085-1.148q-.544-1.165-1.087-2.337c-.371-.795-.876-1.7-1.824-1.687A1.54,1.54,0,0,0,50.086,195.213Z" fill="#00abc4"/>
        </g>
      </g>
    </g>
    <g id="Group_4211" data-name="Group 4211">
      <g id="Group_4210" data-name="Group 4210">
        <path id="Path_1353" data-name="Path 1353" d="M55.344,208.038a59.337,59.337,0,0,1,20.137-33.972c.366-.3.895.218.528.525a58.686,58.686,0,0,0-19.948,33.642C55.968,208.7,55.251,208.506,55.344,208.038Z" fill="#00aeb4"/>
      </g>
    </g>
  </g>
  <g id="Group_4214" data-name="Group 4214" transform="translate(-23.634 -24.339)">
    <g id="Group_4213" data-name="Group 4213">
      <path id="Path_1354" data-name="Path 1354" d="M121.1,166.493l-4.825,39.752-4.94.919.919-41.131Z" fill="#ffcc8b"/>
    </g>
  </g>
  <g id="Group_4216" data-name="Group 4216" transform="translate(-23.634 -24.339)">
    <g id="Group_4215" data-name="Group 4215">
      <path id="Path_1355" data-name="Path 1355" d="M115.361,169.941c-1.417.6-1.741,2.377-1.9,3.742-.759,6.585-.528,13.223-.777,19.835-.182,4.8-.612,9.608-1.126,14.387l.919-41.131,8.846.46-.273,2.252C119.206,169.432,116.952,169.271,115.361,169.941Z" fill="#ffad5f"/>
    </g>
  </g>
  <g id="Group_4218" data-name="Group 4218" transform="translate(-23.634 -24.339)">
    <g id="Group_4217" data-name="Group 4217">
      <path id="Path_1356" data-name="Path 1356" d="M106.16,166.379l-4.825,39.752-4.94.919.919-41.131Z" fill="#ffcc8b"/>
    </g>
  </g>
  <g id="Group_4220" data-name="Group 4220" transform="translate(-23.634 -24.339)">
    <g id="Group_4219" data-name="Group 4219">
      <path id="Path_1357" data-name="Path 1357" d="M100.2,169.941c-1.417.6-1.741,2.377-1.9,3.742-.76,6.585-.529,13.223-.778,19.835-.181,4.8-.612,9.608-1.126,14.387l.919-41.131,8.846.46-.273,2.252C104.042,169.432,101.788,169.271,100.2,169.941Z" fill="#ffad5f"/>
    </g>
  </g>
  <g id="Group_4222" data-name="Group 4222" transform="translate(-23.634 -24.339)">
    <g id="Group_4221" data-name="Group 4221">
      <path id="Path_1358" data-name="Path 1358" d="M92.474,114.647l7.779-2.368c.5,1,1.252,2.494,2.527,2.36a.3.3,0,0,0,.145-.067c1.49-1.111,4.445-16.195,5.249-20.435a5,5,0,0,1-3.48.037,4,4,0,0,1-2.362-1.929H96.568c-4.53.294-6.672.995-7.714,3.4C87.374,99.072,88.615,106.157,92.474,114.647Z" fill="#76bc21"/>
    </g>
  </g>
  <g id="Group_4224" data-name="Group 4224" transform="translate(-23.634 -24.339)">
    <g id="Group_4223" data-name="Group 4223">
      <path id="Path_1359" data-name="Path 1359" d="M110.591,170.98l.074-19.048a.885.885,0,0,0-.887-.889s-.847.353-.882.814c-.36,4.608-1.04,9.8-1.738,18.635-3.51-.535-7.013-1.157-10.522-1.729l-.068-23.353h26.658l-2.084,26.419A92.35,92.35,0,0,1,110.591,170.98Z" fill="#909797"/>
    </g>
  </g>
  <g id="Group_4226" data-name="Group 4226" transform="translate(-23.634 -24.339)">
    <g id="Group_4225" data-name="Group 4225">
      <path id="Path_1360" data-name="Path 1360" d="M94.243,115.269v28a2.145,2.145,0,0,0,2.141,2.144l26.18.049a2.137,2.137,0,0,0,2.09-2.638c-2.335-9.384-2.5-33.557-2.5-33.557l5.259,3.885.906-.822.159-.145,6.533-5.916.308-.37-7.808-8.761c-4.166-3.717-8.471-4.6-14.02-4.862a6.465,6.465,0,0,1-1.185,2.252c-1.141,1.288-1.117,11.358-1.547,14.668-.822,6.278-3.549,13.348-7.266,13.8a3.436,3.436,0,0,1-2.069-.425C99.38,121.489,97.788,116.563,94.243,115.269Z" fill="#76bc21"/>
    </g>
  </g>
  <g id="Group_4228" data-name="Group 4228" transform="translate(-23.634 -24.339)">
    <g id="Group_4227" data-name="Group 4227">
      <path id="Path_1361" data-name="Path 1361" d="M106.314,142.036a45.943,45.943,0,0,0,18.4,1.435,2.145,2.145,0,0,1-2.151,2.114l-26.18-.049a2.145,2.145,0,0,1-2.141-2.145v-6.9A38.026,38.026,0,0,0,106.314,142.036Z" fill="#6ba020"/>
    </g>
  </g>
  <g id="Group_4230" data-name="Group 4230" transform="translate(-23.634 -24.339)">
    <g id="Group_4229" data-name="Group 4229">
      <path id="Path_1362" data-name="Path 1362" d="M107.593,92.4a4.825,4.825,0,0,0,1.381-.29c.152-.8.236-1.259.236-1.259s-.74-6.944-.74-7.2a5.159,5.159,0,0,1,2.793-2.777,8.058,8.058,0,0,0-3.846,2.495C106.9,84.171,107.333,89.619,107.593,92.4Z" fill="#ecb199"/>
    </g>
  </g>
  <g id="Group_4232" data-name="Group 4232" transform="translate(-23.634 -24.339)" opacity="0.71">
    <g id="Group_4231" data-name="Group 4231">
      <path id="Path_1363" data-name="Path 1363" d="M101.108,112.018l-.855.261c.5,1,1.252,2.494,2.527,2.36a.3.3,0,0,0,.145-.067,46.047,46.047,0,0,0-2.088-8.8,9.373,9.373,0,0,0-3.231-4.162Z" fill="#6ba020"/>
    </g>
  </g>
  <g id="Group_4234" data-name="Group 4234" transform="translate(-23.634 -24.339)">
    <g id="Group_4233" data-name="Group 4233">
      <path id="Path_1364" data-name="Path 1364" d="M93.421,114.357c.107.23.243.492.406.79l6.9-2.368c-.172-.181-.332-.359-.471-.532l-.006.032Z" fill="#ecb199"/>
    </g>
  </g>
  <g id="Group_4252" data-name="Group 4252" transform="translate(-23.634 -24.339)">
    <g id="Group_4236" data-name="Group 4236">
      <g id="Group_4235" data-name="Group 4235">
        <path id="Path_1365" data-name="Path 1365" d="M128.331,212.118c-.02.1-.041.209-.067.321-.017.073-.034.145-.052.216a1.692,1.692,0,0,1-.268.664c-.248.236-5.755.149-5.755.149l-6.1-.027c-.884.019-4.01-.037-5.426-.062a.749.749,0,0,1-.736-.722c0-.086-.008-.179-.012-.277-.041-1-.092-2.478-.08-2.961a8.524,8.524,0,0,1,.671-2.214s-1.19-1.215-.374-1.646,1.178-.111,1.178-.111a7.407,7.407,0,0,0,2.925.926,3.408,3.408,0,0,0,2.309-1.879c.323-.757,1.61-.2,1.7.5a.9.9,0,0,0,.408.631c.24.185.575.373.986.7.064.052.132.109.2.168.1.083.2.175.3.277a5.685,5.685,0,0,0,.623.518c.046.035.1.07.147.1.252.175.524.346.805.511.98.571,2.052,1.065,2.7,1.43.82.468,2.836,1.685,3.643,2.172A.581.581,0,0,1,128.331,212.118Z" fill="#144998"/>
      </g>
    </g>
    <g id="Group_4238" data-name="Group 4238">
      <g id="Group_4237" data-name="Group 4237">
        <path id="Path_1366" data-name="Path 1366" d="M128.212,212.655a1.692,1.692,0,0,1-.268.664c-.248.236-5.755.149-5.755.149l-6.1-.027c-.884.019-4.01-.037-5.426-.062a.749.749,0,0,1-.736-.722c0-.086-.008-.179-.012-.277C115.678,212.752,121.837,212.8,128.212,212.655Z" fill="#00b0c4"/>
      </g>
    </g>
    <g id="Group_4251" data-name="Group 4251">
      <g id="Group_4242" data-name="Group 4242">
        <g id="Group_4241" data-name="Group 4241">
          <g id="Group_4240" data-name="Group 4240">
            <g id="Group_4239" data-name="Group 4239">
              <path id="Path_1367" data-name="Path 1367" d="M117.695,208.938a.32.32,0,0,1-.369-.463,4.93,4.93,0,0,1,1.663-1.733,2.2,2.2,0,0,1,2.259.107.319.319,0,1,1-.381.512,1.571,1.571,0,0,0-1.591-.048,4.345,4.345,0,0,0-1.4,1.478A.322.322,0,0,1,117.695,208.938Z" fill="#fff"/>
            </g>
          </g>
        </g>
      </g>
      <g id="Group_4246" data-name="Group 4246">
        <g id="Group_4245" data-name="Group 4245">
          <g id="Group_4244" data-name="Group 4244">
            <g id="Group_4243" data-name="Group 4243">
              <path id="Path_1368" data-name="Path 1368" d="M116.744,208.039a.317.317,0,0,1-.249-.029.32.32,0,0,1-.12-.436,4.9,4.9,0,0,1,1.663-1.73,2.2,2.2,0,0,1,2.258.105.319.319,0,1,1-.381.512,1.569,1.569,0,0,0-1.59-.048,4.337,4.337,0,0,0-1.395,1.478A.32.32,0,0,1,116.744,208.039Z" fill="#fff"/>
            </g>
          </g>
        </g>
      </g>
      <g id="Group_4250" data-name="Group 4250">
        <g id="Group_4249" data-name="Group 4249">
          <g id="Group_4248" data-name="Group 4248">
            <g id="Group_4247" data-name="Group 4247">
              <path id="Path_1369" data-name="Path 1369" d="M118.985,209.668a.324.324,0,0,1-.25-.028.32.32,0,0,1-.119-.436,4.918,4.918,0,0,1,1.662-1.731,2.2,2.2,0,0,1,2.259.1.32.32,0,0,1-.381.513,1.568,1.568,0,0,0-1.591-.048,4.321,4.321,0,0,0-1.394,1.477A.323.323,0,0,1,118.985,209.668Z" fill="#fff"/>
            </g>
          </g>
        </g>
      </g>
    </g>
  </g>
  <g id="Group_4265" data-name="Group 4265" transform="translate(-23.634 -24.339)">
    <g id="Group_4258" data-name="Group 4258">
      <g id="Group_4257" data-name="Group 4257">
        <g id="Group_4254" data-name="Group 4254">
          <g id="Group_4253" data-name="Group 4253">
            <path id="Path_1370" data-name="Path 1370" d="M107.909,78.852c.185.514,1.745,6.072,1.731,6,.722,3.546,1.847,4.521,2.457,7.307-1.013,1.159-3.544,5.044-10.188,1.493.291-8.912-1.67-25.205-1.21-26.017,1.756-3.1,9.4-9.8,11.594-.547.1.406,2.216.057,2.291.5.151.88-1.5,1.808-1.642,2.712C112.36,73.98,111.55,78.146,107.909,78.852Z" fill="#ffcc8b"/>
          </g>
        </g>
        <g id="Group_4256" data-name="Group 4256">
          <g id="Group_4255" data-name="Group 4255">
            <path id="Path_1371" data-name="Path 1371" d="M101.332,72.943c-1.62-8.762,2.973-8.925,7.96-10.35,6.982-6.883-1.539-10.878-3.895-5.778-.908,1.966-1.08,4.081-2.363,4.934C97.556,65.39,99.551,68.709,101.332,72.943Z" fill="#144998"/>
          </g>
        </g>
      </g>
    </g>
    <g id="Group_4260" data-name="Group 4260">
      <g id="Group_4259" data-name="Group 4259">
        <path id="Path_1372" data-name="Path 1372" d="M101.3,85.945c1.714,13.44,12.693,7.218,12.693,7.218l-2.89-1.411Z" fill="#ffad5f"/>
      </g>
    </g>
    <g id="Group_4262" data-name="Group 4262">
      <g id="Group_4261" data-name="Group 4261">
        <path id="Path_1373" data-name="Path 1373" d="M100.239,69.05l7.805,4.539s.453-2.208,4.9-3.292c.551,3.8,18.038,15.5,4.362,21.9-9.1,4.261-19.518-5.224-16.8-13.916A13.009,13.009,0,0,0,100.239,69.05Z" fill="#144998"/>
      </g>
    </g>
    <g id="Group_4264" data-name="Group 4264">
      <g id="Group_4263" data-name="Group 4263">
        <path id="Path_1374" data-name="Path 1374" d="M103.515,71.493a2.444,2.444,0,1,1-2.9-1.749A2.4,2.4,0,0,1,103.515,71.493Z" fill="#ffcc8b"/>
      </g>
    </g>
  </g>
  <g id="Group_4267" data-name="Group 4267" transform="translate(-23.634 -24.339)">
    <g id="Group_4266" data-name="Group 4266">
      <path id="Path_1375" data-name="Path 1375" d="M93.421,114.357c.107.23.243.492.406.79a18.229,18.229,0,0,0,2.741,3.736,18.533,18.533,0,0,0,4.858,3.685c4.759,2.513,9.135-5.413,10.1-12.8.43-3.312-.36-13.951.781-15.239a6.465,6.465,0,0,0,1.185-2.252,5.456,5.456,0,0,0,.234-3.231c-.238-.653-.957-2.023-.238-2.3s.929,1.845,1.928,1.588c.491-.121.234-3.853-2.419-4.408a3.207,3.207,0,0,0-.69-.075,4.794,4.794,0,0,0-4.577,2.863c0,.219.649,6.318.649,6.318s-.07.4-.206,1.108c-.831,4.38-5.394,20.5-5.394,20.5a27.625,27.625,0,0,1-2.05-1.86c-.172-.181-.332-.359-.471-.532l-.006.032Z" fill="#ffcc8b"/>
    </g>
  </g>
  <g id="Group_4285" data-name="Group 4285" transform="translate(-23.634 -24.339)">
    <g id="Group_4269" data-name="Group 4269">
      <g id="Group_4268" data-name="Group 4268">
        <path id="Path_1376" data-name="Path 1376" d="M112.895,212.118c-.021.1-.042.209-.068.321-.017.073-.034.145-.053.216a1.711,1.711,0,0,1-.266.664c-.248.236-5.756.149-5.756.149l-6.1-.027c-.884.019-4.01-.037-5.426-.062a.751.751,0,0,1-.737-.722c0-.086-.007-.179-.012-.277-.04-1-.091-2.478-.079-2.961a8.565,8.565,0,0,1,.671-2.214s-1.19-1.215-.374-1.646,1.177-.111,1.177-.111a7.407,7.407,0,0,0,2.926.926,3.408,3.408,0,0,0,2.308-1.879c.324-.757,1.611-.2,1.7.5a.9.9,0,0,0,.408.631c.24.185.576.373.985.7.066.052.133.109.2.168q.144.124.3.277a5.9,5.9,0,0,0,.624.518c.047.035.1.07.147.1.251.175.524.346.805.511.98.571,2.052,1.065,2.7,1.43.821.468,2.836,1.685,3.643,2.172A.585.585,0,0,1,112.895,212.118Z" fill="#144998"/>
      </g>
    </g>
    <g id="Group_4271" data-name="Group 4271">
      <g id="Group_4270" data-name="Group 4270">
        <path id="Path_1377" data-name="Path 1377" d="M112.774,212.655a1.711,1.711,0,0,1-.266.664c-.248.236-5.756.149-5.756.149l-6.1-.027c-.884.019-4.01-.037-5.426-.062a.751.751,0,0,1-.737-.722c0-.086-.007-.179-.012-.277C100.24,212.752,106.4,212.8,112.774,212.655Z" fill="#00b0c4"/>
      </g>
    </g>
    <g id="Group_4284" data-name="Group 4284">
      <g id="Group_4275" data-name="Group 4275">
        <g id="Group_4274" data-name="Group 4274">
          <g id="Group_4273" data-name="Group 4273">
            <g id="Group_4272" data-name="Group 4272">
              <path id="Path_1378" data-name="Path 1378" d="M102.259,208.938a.319.319,0,0,1-.369-.463,4.913,4.913,0,0,1,1.662-1.733,2.2,2.2,0,0,1,2.259.107.319.319,0,0,1-.381.512,1.572,1.572,0,0,0-1.591-.048,4.322,4.322,0,0,0-1.395,1.478A.326.326,0,0,1,102.259,208.938Z" fill="#fff"/>
            </g>
          </g>
        </g>
      </g>
      <g id="Group_4279" data-name="Group 4279">
        <g id="Group_4278" data-name="Group 4278">
          <g id="Group_4277" data-name="Group 4277">
            <g id="Group_4276" data-name="Group 4276">
              <path id="Path_1379" data-name="Path 1379" d="M101.308,208.039a.32.32,0,0,1-.369-.465,4.9,4.9,0,0,1,1.662-1.73,2.2,2.2,0,0,1,2.258.105.319.319,0,1,1-.38.512,1.572,1.572,0,0,0-1.591-.048,4.326,4.326,0,0,0-1.4,1.478A.321.321,0,0,1,101.308,208.039Z" fill="#fff"/>
            </g>
          </g>
        </g>
      </g>
      <g id="Group_4283" data-name="Group 4283">
        <g id="Group_4282" data-name="Group 4282">
          <g id="Group_4281" data-name="Group 4281">
            <g id="Group_4280" data-name="Group 4280">
              <path id="Path_1380" data-name="Path 1380" d="M103.548,209.668a.319.319,0,0,1-.369-.464,4.894,4.894,0,0,1,1.663-1.731,2.2,2.2,0,0,1,2.259.1.32.32,0,0,1-.381.513,1.57,1.57,0,0,0-1.591-.048,4.324,4.324,0,0,0-1.4,1.477A.318.318,0,0,1,103.548,209.668Z" fill="#fff"/>
            </g>
          </g>
        </g>
      </g>
    </g>
  </g>
  <g id="Group_4287" data-name="Group 4287" transform="translate(-23.634 -24.339)" opacity="0.5">
    <g id="Group_4286" data-name="Group 4286">
      <path id="Path_1381" data-name="Path 1381" d="M109.055,151.409c-.717-.479,1.885-1.134,2.253-1.081.505.071.4.471.388.854-.03,1.263-.309,2.317-.419,3.622a20.9,20.9,0,0,0,1.878,9.574,15.967,15.967,0,0,0,4.737,6.671,9.487,9.487,0,0,0,.837.574c-2.724-.135-5.435-.409-8.138-.765,0,0,.074-19.018.074-19.048C110.669,150.838,109.559,150.743,109.055,151.409Z" fill="#54565a"/>
    </g>
  </g>
  <g id="Group_4289" data-name="Group 4289" transform="translate(-23.634 -24.339)">
    <g id="Group_4288" data-name="Group 4288">
      <path id="Path_1382" data-name="Path 1382" d="M141.968,187.057v.076h.082a.336.336,0,1,0,0-.671l-2.519-.016a.335.335,0,1,0,0,.67h.044v-.076Z" fill="#144998"/>
    </g>
  </g>
  <g id="Group_4291" data-name="Group 4291" transform="translate(-23.634 -24.339)">
    <g id="Group_4290" data-name="Group 4290">
      <path id="Path_1383" data-name="Path 1383" d="M140.6,213.525a13.33,13.33,0,0,0,3.2-.353,1.448,1.448,0,0,0,.344-.089,1.519,1.519,0,0,0,.967-1.4l.024-3.651-5.529,5.457C139.936,213.51,140.269,213.523,140.6,213.525Z" fill="#5f8db5"/>
    </g>
  </g>
  <g id="Group_4293" data-name="Group 4293" transform="translate(-23.634 -24.339)">
    <g id="Group_4292" data-name="Group 4292">
      <path id="Path_1384" data-name="Path 1384" d="M145.2,197.554l-.012-.676a4.164,4.164,0,0,1-1.029-2.186l0-.013,0-.046-6.91-.045c0,.015,0,.031,0,.047l0,.013a4.081,4.081,0,0,1-1,2.1l-.032.718c0,.036,0,.071-.005.106l-.063,9.9-.027,4.142a1.519,1.519,0,0,0,.948,1.416,1.469,1.469,0,0,0,.344.094,12.6,12.6,0,0,0,2.2.353l5.529-5.457,0-.49.063-9.9C145.206,197.6,145.206,197.579,145.2,197.554Z" fill="#feaa61"/>
    </g>
  </g>
  <g id="Group_4295" data-name="Group 4295" transform="translate(-23.634 -24.339)">
    <g id="Group_4294" data-name="Group 4294">
      <path id="Path_1385" data-name="Path 1385" d="M141.965,188.557h-.006l.009-1.424v-.076l-2.391-.015v.076l-.009,1.437-1.848.487,6.133.039Z" fill="#144998"/>
    </g>
  </g>
  <g id="Group_4297" data-name="Group 4297" transform="translate(-23.634 -24.339)">
    <g id="Group_4296" data-name="Group 4296">
      <path id="Path_1386" data-name="Path 1386" d="M145.064,190.228a1.149,1.149,0,0,0-1.15-1.146h-.061l-6.133-.039h-.014a1.148,1.148,0,0,0-1.164,1.132l-.062,1.386,8.609.055,0,.549-8.625-.055v-.161l-.056,1.241,8.716.056Z" fill="#feaa61"/>
    </g>
  </g>
  <g id="Group_4299" data-name="Group 4299" transform="translate(-23.634 -24.339)">
    <g id="Group_4298" data-name="Group 4298">
      <path id="Path_1387" data-name="Path 1387" d="M136.465,191.56l0,.389.018-.389Z" fill="#414042"/>
    </g>
  </g>
  <g id="Group_4301" data-name="Group 4301" transform="translate(-23.634 -24.339)">
    <g id="Group_4300" data-name="Group 4300">
      <path id="Path_1388" data-name="Path 1388" d="M145.086,192.164l0-.549-8.609-.056-.018.389v.161Z" fill="#144998"/>
    </g>
  </g>
  <g id="Group_4303" data-name="Group 4303" transform="translate(-23.634 -24.339)">
    <g id="Group_4302" data-name="Group 4302">
      <path id="Path_1389" data-name="Path 1389" d="M137.034,193.986l.005,0a.712.712,0,0,1,.188.377.755.755,0,0,1,.022.221l6.91.045a.7.7,0,0,1,.025-.222.706.706,0,0,1,.19-.372l0,0a2.543,2.543,0,0,1,.747-.607l0-.183-8.716-.056-.01.241A2.415,2.415,0,0,1,137.034,193.986Z" fill="#144998"/>
    </g>
  </g>
  <g id="Group_4305" data-name="Group 4305" transform="translate(-23.634 -24.339)">
    <g id="Group_4304" data-name="Group 4304">
      <path id="Path_1390" data-name="Path 1390" d="M140.344,206.664a6.993,6.993,0,0,1,3.391-.8c3.453-.139,10.637.475,10.6-4.687,0-.207-.078-.325-.008-.522,3.08,1.474,5.487,5.243,7.544,7.859.812,1.031,1.394,2.2.566,3.435-2.462,3.691-8.155,2.729-11.665,1.654a12.02,12.02,0,0,0-3.61-.683,4.511,4.511,0,0,0-3.325,1.332,3.258,3.258,0,0,0-.532,3.251c-2.053-.994-3.536-4.016-4.127-6.115a4.6,4.6,0,0,1,.331-3.951A2.984,2.984,0,0,1,140.344,206.664Z" fill="#00b0c4"/>
    </g>
  </g>
  <g id="Group_4307" data-name="Group 4307" transform="translate(-23.634 -24.339)">
    <g id="Group_4306" data-name="Group 4306">
      <path id="Path_1391" data-name="Path 1391" d="M161.08,210.331a13.133,13.133,0,0,1-6.036,1.07c-1.9,0-3.789-.2-5.687-.208a15.177,15.177,0,0,0-5.834.868,4.5,4.5,0,0,0-2.018,1.5,3.469,3.469,0,0,0-.555,1.5,6.536,6.536,0,0,0,2.433,2.365,3.256,3.256,0,0,1,.533-3.25,4.5,4.5,0,0,1,3.325-1.333,12.044,12.044,0,0,1,3.609.682c3.511,1.076,9.2,2.038,11.667-1.653a2.337,2.337,0,0,0-.028-2.649A4.685,4.685,0,0,1,161.08,210.331Z" fill="#079aa3"/>
    </g>
  </g>
  <g id="Group_4309" data-name="Group 4309" transform="translate(-23.634 -24.339)">
    <g id="Group_4308" data-name="Group 4308">
      <path id="Path_1392" data-name="Path 1392" d="M153.754,30.417c.793,1.8.9,3.938,1.415,5.884,2.846,10.706,16.934.612,23.548,4.163,4.446,2.388,6.347,9.366,2.466,12.592-2.392,1.987-5.815,1.871-8.879,2.414-6.147,1.091-6.835,8.932-12.478,11.445-23.578,10.5-33.917-31.18-15.005-39.408,2.7-1.173,6.225-.8,8.077,1.487A6.239,6.239,0,0,1,153.754,30.417Z" fill="#e2e729"/>
    </g>
  </g>
  <g id="Group_4311" data-name="Group 4311" transform="translate(-23.634 -24.339)">
    <g id="Group_4310" data-name="Group 4310">
      <path id="Path_1393" data-name="Path 1393" d="M158.3,35.3a3.243,3.243,0,0,0,2.647,2.614,4.808,4.808,0,0,0,5.078-1.937c4.183-5.554-3.165-12.508-8.756-11.55a2.054,2.054,0,0,0-1.459.765,2.366,2.366,0,0,0,.246,2.2,40.838,40.838,0,0,1,2.156,4.146,4.7,4.7,0,0,1,.147,2.665A3.077,3.077,0,0,0,158.3,35.3Z" fill="#e2e729"/>
    </g>
  </g>
  <g id="Group_4313" data-name="Group 4313" transform="translate(-23.634 -24.339)">
    <g id="Group_4312" data-name="Group 4312">
      <path id="Path_1394" data-name="Path 1394" d="M194.9,76.764c4.451,2.742,5.316,10.517,10.092,12.649,6.4,2.855,18.725,1.079,17.774,11.029-.413,4.307-3.636,8.054-7.629,9.72-8.53,3.557-17.829-2.42-26.644-.374-3.4.788-7.147,2.109-10.181.392-3.262-1.848-3.914-6.262-3.63-10a37.753,37.753,0,0,1,6.805-18.869c1.946-2.746,4.563-5.388,7.906-5.79A8.256,8.256,0,0,1,194.9,76.764Z" fill="#f7b5cd"/>
    </g>
  </g>
  <g id="Group_4315" data-name="Group 4315" transform="translate(-23.634 -24.339)">
    <g id="Group_4314" data-name="Group 4314">
      <path id="Path_1395" data-name="Path 1395" d="M226.513,97.511c-2.942-.615-3.388-4.01-5.365-5.767-.944-.84-7.6-2.541-6.75-4.081,1.711-3.11,6.185-3.06,8.972-1.593,2.645,1.392,6,7.591,4.512,10.567C227.506,97.387,227.035,97.619,226.513,97.511Z" fill="#f7b5cd"/>
    </g>
  </g>
  <g id="Group_4317" data-name="Group 4317" transform="translate(-23.634 -24.339)">
    <g id="Group_4316" data-name="Group 4316">
      <path id="Path_1396" data-name="Path 1396" d="M218.66,60.977a13.4,13.4,0,0,0,.483,2.473c3.223,10.921,15.7,16.965,26.427,14.416a19.6,19.6,0,0,0,6.033-2.881c7.787-5.062,14.431-13.851,8.838-23.215-3.8-6.372-13.385,3.615-19.136,1.794-3.257-1.03-6.154-3.062-9.472-3.873-3.779-.922-8.129,0-10.729,2.889A10.9,10.9,0,0,0,218.66,60.977Z" fill="#9cdced"/>
    </g>
  </g>
  <g id="Group_4319" data-name="Group 4319" transform="translate(-23.634 -24.339)">
    <g id="Group_4318" data-name="Group 4318">
      <path id="Path_1397" data-name="Path 1397" d="M260.4,46.264c1.939.937,4.964.815,5.465-1.278.3-1.258-.547-2.476-1.364-3.478-2.394-2.936-5.267-5.913-9.014-6.473-5.023-.75-17.57,5.526-11.842,11.8,2.889,3.162,4.411.643,7.315-.492C255.549,44.548,255.542,43.912,260.4,46.264Z" fill="#9cdced"/>
    </g>
  </g>
  <g id="Group_4321" data-name="Group 4321" transform="translate(-23.634 -24.339)">
    <g id="Group_4320" data-name="Group 4320">
      <path id="Path_1398" data-name="Path 1398" d="M157.244,60.407l-.661-2.16c-.03-.058-.066-.088-.11-.088H151.05c-.044,0-.081.03-.111.088l-.638,2.16a.277.277,0,0,1-.287.221h-2.8a.213.213,0,0,1-.221-.309l4.762-14.9a.276.276,0,0,1,.286-.22H155.5a.276.276,0,0,1,.286.22l4.762,14.9a.278.278,0,0,1,.021.111c0,.131-.081.2-.242.2h-2.8A.276.276,0,0,1,157.244,60.407Zm-5.423-4.65h3.88c.088,0,.117-.045.088-.133l-1.983-6.547c-.015-.058-.037-.084-.067-.077a.105.105,0,0,0-.066.077l-1.94,6.547C151.719,55.712,151.748,55.757,151.821,55.757Z" fill="#606060"/>
    </g>
  </g>
  <g id="Group_4323" data-name="Group 4323" transform="translate(-23.634 -24.339)">
    <g id="Group_4322" data-name="Group 4322">
      <path id="Path_1399" data-name="Path 1399" d="M200.679,96.723a3.73,3.73,0,0,1,2.094,3.592,3.784,3.784,0,0,1-1.455,3.23,6.2,6.2,0,0,1-3.813,1.091H191.8a.263.263,0,0,1-.265-.265v-14.9a.257.257,0,0,1,.077-.188.253.253,0,0,1,.188-.077h5.532q5.225,0,5.225,4.233a3.266,3.266,0,0,1-1.874,3.151C200.591,96.634,200.591,96.679,200.679,96.723Zm-6.039-4.74v3.439a.1.1,0,0,0,.109.11h2.579a2.422,2.422,0,0,0,1.61-.485,1.643,1.643,0,0,0,.573-1.322,1.7,1.7,0,0,0-.573-1.356,2.382,2.382,0,0,0-1.61-.5h-2.579A.1.1,0,0,0,194.64,91.983Zm4.452,9.446a2.051,2.051,0,0,0,0-2.844,2.318,2.318,0,0,0-1.61-.518h-2.733a.1.1,0,0,0-.109.11v3.659a.1.1,0,0,0,.109.11h2.756A2.282,2.282,0,0,0,199.092,101.429Z" fill="#606060"/>
    </g>
  </g>
  <g id="Group_4325" data-name="Group 4325" transform="translate(-23.634 -24.339)">
    <g id="Group_4324" data-name="Group 4324">
      <path id="Path_1400" data-name="Path 1400" d="M236.269,72.1a4.828,4.828,0,0,1-2.006-1.885,5.455,5.455,0,0,1-.705-2.8V62.327a5.461,5.461,0,0,1,.705-2.8,4.766,4.766,0,0,1,2.006-1.874,6.588,6.588,0,0,1,3.02-.661,6.748,6.748,0,0,1,2.986.628,4.742,4.742,0,0,1,2.006,1.786A4.98,4.98,0,0,1,245,62.084c0,.133-.089.214-.265.243l-2.579.154h-.044c-.147,0-.22-.081-.22-.243a2.513,2.513,0,0,0-.717-1.873,2.572,2.572,0,0,0-1.884-.706,2.6,2.6,0,0,0-1.907.706,2.509,2.509,0,0,0-.717,1.873v5.313a2.478,2.478,0,0,0,.717,1.851,2.6,2.6,0,0,0,1.907.705,2.567,2.567,0,0,0,1.884-.705,2.482,2.482,0,0,0,.717-1.851c0-.161.088-.242.264-.242l2.579.11a.279.279,0,0,1,.188.065.2.2,0,0,1,.077.155,5.034,5.034,0,0,1-.717,2.689,4.784,4.784,0,0,1-2.006,1.808,6.628,6.628,0,0,1-2.986.639A6.49,6.49,0,0,1,236.269,72.1Z" fill="#606060"/>
    </g>
  </g>
  <g id="Group_4358" data-name="Group 4358" transform="translate(-23.634 -24.339)">
    <g id="Group_4327" data-name="Group 4327">
      <g id="Group_4326" data-name="Group 4326">
        <path id="Path_1401" data-name="Path 1401" d="M251.894,145.458c.318-.132.664-.377.645-.72-.018-.385-.468-.584-.851-.66a6.429,6.429,0,0,0-5.79,1.872l-.024.125a8.986,8.986,0,0,0-5.192-2.914c-.445-.076-.987-.081-1.241.284a.84.84,0,0,0,.024.9,2.112,2.112,0,0,0,.707.632,9.009,9.009,0,0,0,5.764,1.3l-.035-.171v0C247.861,145.618,250.031,146.24,251.894,145.458Z" fill="#d8e081"/>
      </g>
    </g>
    <g id="Group_4329" data-name="Group 4329">
      <g id="Group_4328" data-name="Group 4328">
        <path id="Path_1402" data-name="Path 1402" d="M252.4,151.491a1.061,1.061,0,0,0,.61-.364.787.787,0,0,0-.139-.93,1.837,1.837,0,0,0-.887-.462,6.162,6.162,0,0,0-5.937,1.616l-.092.2a9.749,9.749,0,0,0-5.032-4.193c-.444-.164-1.02-.257-1.315.109a.79.79,0,0,0-.068.8,2.022,2.022,0,0,0,.518.66,10.33,10.33,0,0,0,5.929,2.705l-.007-.03c1.508.014,3.018.032,4.523.045A6.968,6.968,0,0,0,252.4,151.491Z" fill="#d8e081"/>
      </g>
    </g>
    <g id="Group_4331" data-name="Group 4331">
      <g id="Group_4330" data-name="Group 4330">
        <path id="Path_1403" data-name="Path 1403" d="M245.342,162.184a14.546,14.546,0,0,0,6.3,1.466c.41,0,.909-.064,1.078-.438.186-.407-.164-.853-.529-1.112a5.334,5.334,0,0,0-3.466-.819,16.071,16.071,0,0,0-3.543.809Z" fill="#d8e081"/>
      </g>
    </g>
    <g id="Group_4333" data-name="Group 4333">
      <g id="Group_4332" data-name="Group 4332">
        <path id="Path_1404" data-name="Path 1404" d="M250.543,134.645c-.051-.465-.593-.7-1.06-.75a4.5,4.5,0,0,0-2.931.82,7.725,7.725,0,0,0-2.091,2.254v.01A7.992,7.992,0,0,0,241.124,135a1.873,1.873,0,0,0-1.06.022.891.891,0,0,0-.6.8,1.182,1.182,0,0,0,.7.889,7.755,7.755,0,0,0,4.138.616l.246-.135a17.749,17.749,0,0,0,5.118-1.516C250.1,135.467,250.6,135.125,250.543,134.645Z" fill="#d8e081"/>
      </g>
    </g>
    <g id="Group_4335" data-name="Group 4335">
      <g id="Group_4334" data-name="Group 4334">
        <path id="Path_1405" data-name="Path 1405" d="M249.071,130.585a.919.919,0,0,0-.482-.7,1.742,1.742,0,0,0-.852-.2,4.349,4.349,0,0,0-2.5.816,10.411,10.411,0,0,0-1.935,1.824l.237-.005a26.123,26.123,0,0,0,4.174-.54,2.593,2.593,0,0,0,.913-.362A.977.977,0,0,0,249.071,130.585Z" fill="#d8e081"/>
      </g>
    </g>
    <g id="Group_4337" data-name="Group 4337">
      <g id="Group_4336" data-name="Group 4336">
        <path id="Path_1406" data-name="Path 1406" d="M251.63,157.359a2.643,2.643,0,0,0,1.35-.148.9.9,0,0,0,.5-1.128,1.227,1.227,0,0,0-.817-.516A7.552,7.552,0,0,0,246.031,157Z" fill="#d8e081"/>
      </g>
    </g>
    <g id="Group_4339" data-name="Group 4339">
      <g id="Group_4338" data-name="Group 4338">
        <path id="Path_1407" data-name="Path 1407" d="M243.4,132.359l-.154.03a7.525,7.525,0,0,0-4.635-2.13,1.926,1.926,0,0,0-.858.074.793.793,0,0,0-.537.62c-.045.458.42.795.841.986A7.965,7.965,0,0,0,243.4,132.359Z" fill="#d8e081"/>
      </g>
    </g>
    <g id="Group_4341" data-name="Group 4341">
      <g id="Group_4340" data-name="Group 4340">
        <path id="Path_1408" data-name="Path 1408" d="M240.968,126.07a9.442,9.442,0,0,0-3.957-6.7,2.258,2.258,0,0,0-.764-.382.912.912,0,0,0-.808.172c-.384.353-.25.982-.032,1.453,1.085,2.345,3.352,3.9,5.516,5.328Z" fill="#d8e081"/>
      </g>
    </g>
    <g id="Group_4343" data-name="Group 4343">
      <g id="Group_4342" data-name="Group 4342">
        <path id="Path_1409" data-name="Path 1409" d="M245.372,142.152a.5.5,0,0,1,.037-.048l-.044.007.017-.013a6.7,6.7,0,0,0-5-3.237c-.475-.03-1.052.07-1.237.51-.2.478.212.984.624,1.3a7.564,7.564,0,0,0,5.518,1.494l.036-.028Z" fill="#d8e081"/>
      </g>
    </g>
    <g id="Group_4345" data-name="Group 4345">
      <g id="Group_4344" data-name="Group 4344">
        <path id="Path_1410" data-name="Path 1410" d="M241.929,128.95l.165-.1a13.26,13.26,0,0,0-2.424-1.7,6.009,6.009,0,0,0-2.853-.715,1.866,1.866,0,0,0-.873.189.875.875,0,0,0-.484.709c-.016.5.5.842.967,1.039A9.552,9.552,0,0,0,241.929,128.95Z" fill="#d8e081"/>
      </g>
    </g>
    <g id="Group_4347" data-name="Group 4347">
      <g id="Group_4346" data-name="Group 4346">
        <path id="Path_1411" data-name="Path 1411" d="M251.363,139.535a.992.992,0,0,0-.751-.44,4.172,4.172,0,0,0-3.041.748,9,9,0,0,0-2.162,2.261,26.7,26.7,0,0,0,4.973-1.229,2.14,2.14,0,0,0,.807-.477A.788.788,0,0,0,251.363,139.535Z" fill="#d8e081"/>
      </g>
    </g>
    <g id="Group_4349" data-name="Group 4349">
      <g id="Group_4348" data-name="Group 4348">
        <path id="Path_1412" data-name="Path 1412" d="M245.987,157.033c.014-.01.028-.023.044-.034a.376.376,0,0,1-.057,0l-.018-.039a10.376,10.376,0,0,0-4.082-5.606,1.328,1.328,0,0,0-1.2-.3,1.069,1.069,0,0,0-.47,1.229,4.007,4.007,0,0,0,1.545,2.107,22.508,22.508,0,0,0,4.118,2.715v0l-.032.061c.02-.018.04-.032.061-.051a1.731,1.731,0,0,0,.165.089Z" fill="#d8e081"/>
      </g>
    </g>
    <g id="Group_4351" data-name="Group 4351">
      <g id="Group_4350" data-name="Group 4350">
        <path id="Path_1413" data-name="Path 1413" d="M245.181,162.061c-.041-.024-.083-.043-.125-.071.02.1.042.208.058.311Z" fill="#d8e081"/>
      </g>
    </g>
    <g id="Group_4353" data-name="Group 4353">
      <g id="Group_4352" data-name="Group 4352">
        <path id="Path_1414" data-name="Path 1414" d="M240.377,155.159a2.176,2.176,0,0,0-.879-.257.96.96,0,0,0-.812.36,1.127,1.127,0,0,0-.108.9,4.416,4.416,0,0,0,1.3,2,20.864,20.864,0,0,0,5.18,3.825,11.655,11.655,0,0,0-1.454-3.844A7.8,7.8,0,0,0,240.377,155.159Z" fill="#d8e081"/>
      </g>
    </g>
    <g id="Group_4355" data-name="Group 4355">
      <g id="Group_4354" data-name="Group 4354">
        <path id="Path_1415" data-name="Path 1415" d="M236.98,161.578a.945.945,0,0,0-.109.736,2.251,2.251,0,0,0,.323.692,11.331,11.331,0,0,0,3.038,3.1,30.113,30.113,0,0,0,3.652,2.161l-.151.1a16.111,16.111,0,0,0,5.915.74,2.236,2.236,0,0,0,.96-.214.813.813,0,0,0,.441-.815c-.068-.339-.409-.549-.724-.689a6.312,6.312,0,0,0-6.34.812v-.029a9.511,9.511,0,0,0-3.782-6.077,4.192,4.192,0,0,0-2.178-.9A1.167,1.167,0,0,0,236.98,161.578Z" fill="#d8e081"/>
      </g>
    </g>
    <g id="Group_4357" data-name="Group 4357">
      <g id="Group_4356" data-name="Group 4356">
        <path id="Path_1416" data-name="Path 1416" d="M242.342,170.916a56.925,56.925,0,0,0-2.6-44.61c-.425-.859.982-1.373,1.4-.523a58.371,58.371,0,0,1,2.554,45.765C243.371,172.449,242.019,171.813,242.342,170.916Z" fill="#d8e081"/>
      </g>
    </g>
  </g>
  <g id="Group_4364" data-name="Group 4364" transform="translate(-23.634 -24.339)">
    <g id="Group_4361" data-name="Group 4361" opacity="0.4">
      <g id="Group_4360" data-name="Group 4360">
        <g id="Group_4359" data-name="Group 4359">
          <path id="Path_1417" data-name="Path 1417" d="M247.031,156.141a3.993,3.993,0,0,0,.279,3.147q1.989,5.193,4.4,10.208l-.188.147q4.813-.009,9.635-.019a5.13,5.13,0,0,0,2.01-.268,1.576,1.576,0,0,0,.371-2.885,3.477,3.477,0,0,0-.882-.494l-4.247-1.7c-.477-.192-1.042-.5-.912-1.072a.875.875,0,0,1,.556-.606,11.192,11.192,0,0,1,6.585-.4,5.112,5.112,0,0,0,1.884.274c.856-.12,1.715-.993.943-1.939a1.96,1.96,0,0,0-.614-.481,21.039,21.039,0,0,0-4.723-1.763c-.851-.205-1.957-.665-1.7-1.589a1.144,1.144,0,0,1,.859-.788,15.176,15.176,0,0,1,5.892-.138,3.886,3.886,0,0,0,1.465.1c.664-.138,1.3-.809.767-1.578a1.559,1.559,0,0,0-.851-.577l-4.592-1.336c-.542-.159-1.187-.419-1.147-1.071a1.024,1.024,0,0,1,.821-.916,17.763,17.763,0,0,1,6.46-.175,2.757,2.757,0,0,0,2.013-.152.964.964,0,0,0,.457-.928c-.082-.539-.6-.734-1.062-.88l-4.9-1.553a.341.341,0,0,1-.016-.646,13.238,13.238,0,0,1,6.035-.662,4.106,4.106,0,0,0,1.526.026c.695-.182,1.327-.948.637-1.711a1.623,1.623,0,0,0-.678-.433,27.668,27.668,0,0,0-4.625-1.208q1.644-1.582,3.287-3.172c.8-.772,1.677-1.737,1.321-2.881a1.977,1.977,0,0,0-1.774-1.315,3.682,3.682,0,0,0-3.189,1.9,3.8,3.8,0,0,1-1.435,1.576,1.124,1.124,0,0,1-1.063-.049c-.538-.356-.475-1.025-.491-1.611-.011-.513-.21-1.134-.712-1.222a.933.933,0,0,0-.747.253,3.048,3.048,0,0,0-.68,2.8c.17,1.215.532,2.5-.259,3.6a1.4,1.4,0,0,1-1.871.435c-.631-.406-.624-1.205-.768-1.891s-.723-1.448-1.425-1.087a1.059,1.059,0,0,0-.448.515c-.674,1.522-.226,3.22.049,4.834a7.144,7.144,0,0,1-.033,3.082.763.763,0,0,1-1.4.147l-1.719-3.084c-.192-.345-.423-.722-.89-.69a.79.79,0,0,0-.6.387,2.043,2.043,0,0,0-.047,1.616l1.515,6.094c.175.7.319,1.548-.3,2.029a1.322,1.322,0,0,1-1.643-.1c-1-.815-1.009-2.1-1.533-3.155-.316-.635-1.106-1.24-1.687-.638a1.026,1.026,0,0,0-.218,1,34.3,34.3,0,0,0,2.3,5.774,3.166,3.166,0,0,1,.531,2.347,1.113,1.113,0,0,1-1.2.833c-.555-.093-.852-.651-1.085-1.148q-.544-1.166-1.088-2.338c-.37-.8-.875-1.7-1.824-1.686A1.538,1.538,0,0,0,247.031,156.141Z" fill="#00abc4"/>
        </g>
      </g>
    </g>
    <g id="Group_4363" data-name="Group 4363">
      <g id="Group_4362" data-name="Group 4362">
        <path id="Path_1418" data-name="Path 1418" d="M252.288,168.966a59.34,59.34,0,0,1,20.139-33.972c.365-.3.894.219.527.525a58.688,58.688,0,0,0-19.948,33.642C252.913,169.631,252.2,169.434,252.288,168.966Z" fill="#00aeb4"/>
      </g>
    </g>
  </g>
  <g id="Group_4369" data-name="Group 4369" transform="translate(-23.634 -24.339)" opacity="0.1" style="isolation: isolate">
    <g id="Group_4368" data-name="Group 4368">
      <g id="Group_4367" data-name="Group 4367" clip-path="url(#clip-path)">
        <g id="Group_4366" data-name="Group 4366">
          <g id="Group_4365" data-name="Group 4365">
            <path id="Path_1419" data-name="Path 1419" d="M254.8,148.93c.27.152.543.294.816.443v-.146h2.348v1.323c.169.073.331.151.5.229v-1.552h2.347v2.541a.973.973,0,0,0,.137.049V148.93Z" fill="#6c63ff"/>
          </g>
        </g>
      </g>
    </g>
  </g>
  <g id="Group_4371" data-name="Group 4371" transform="translate(-23.634 -24.339)">
    <g id="Group_4370" data-name="Group 4370">
      <path id="Path_1420" data-name="Path 1420" d="M260.171,172.9l-.117,1.867-.161,2.641-.068,1.1-.164,2.642-.071,1.1-.161,2.642-1.859,29.953a5.07,5.07,0,0,1-5.061,4.761h-9.647a5.068,5.068,0,0,1-5.062-4.782l-1.858-29.953-.162-2.641-.066-1.1-.168-2.642-.067-1.1-.163-2.642-.116-1.866a2.641,2.641,0,0,1,2.488-2.787c.044,0,.09,0,.135,0H257.55a2.641,2.641,0,0,1,2.627,2.656c0,.051,0,.1-.006.155" fill="#00b0c4"/>
    </g>
  </g>
  <g id="Group_4373" data-name="Group 4373" transform="translate(-23.634 -24.339)">
    <g id="Group_4372" data-name="Group 4372">
      <path id="Path_1421" data-name="Path 1421" d="M260.054,174.761l-.164,2.636H235.479l-.163-2.636Z" fill="#07a5ac"/>
    </g>
  </g>
  <g id="Group_4375" data-name="Group 4375" transform="translate(-23.634 -24.339)">
    <g id="Group_4374" data-name="Group 4374">
      <path id="Path_1422" data-name="Path 1422" d="M259.821,178.494l-.16,2.635h-23.95l-.164-2.635Z" fill="#07a5ac"/>
    </g>
  </g>
  <g id="Group_4377" data-name="Group 4377" transform="translate(-23.634 -24.339)">
    <g id="Group_4376" data-name="Group 4376">
      <path id="Path_1423" data-name="Path 1423" d="M259.59,182.23l-.161,2.633H235.942l-.164-2.633Z" fill="#07a5ac"/>
    </g>
  </g>
</svg>
