<svg id="Component_34_1" data-name="Component 34 – 1" xmlns="http://www.w3.org/2000/svg" xmlns:xlink="http://www.w3.org/1999/xlink" width="187.599" height="122.712" viewBox="0 0 187.599 122.712">
  <defs>
    <clipPath id="clip-path">
      <path id="Path_2819" data-name="Path 2819" d="M226.222,184.108c0,7.483-34.429,22.1-76.9,22.1s-76.9-14.617-76.9-22.1Z" fill="#c8e7eb"/>
    </clipPath>
  </defs>
  <g id="Group_6834" data-name="Group 6834" transform="translate(-66.613 -83.496)" opacity="0.7">
    <g id="Group_6833" data-name="Group 6833">
      <path id="Path_2816" data-name="Path 2816" d="M226.222,184.108c0,7.483-34.429,22.1-76.9,22.1s-76.9-14.617-76.9-22.1Z" fill="#c8e7eb"/>
      <g id="Group_6832" data-name="Group 6832" clip-path="url(#clip-path)">
        <g id="Group_6830" data-name="Group 6830">
          <path id="Path_2817" data-name="Path 2817" d="M226.222,195.036l-153.8.113V184.108h153.8Z" fill="#c8e7eb"/>
        </g>
        <g id="Group_6831" data-name="Group 6831">
          <path id="Path_2818" data-name="Path 2818" d="M72.42,195.149l153.8-.113v11.172H72.42Z" fill="#c8e7eb"/>
        </g>
      </g>
    </g>
  </g>
  <path id="Path_2820" data-name="Path 2820" d="M234.24,171.608c0,.157-.005.308-.009.456-.012.379-.043.762-.086,1.133a13.691,13.691,0,0,1-.37,1.849,18.125,18.125,0,0,1-4.395,7.456,35.5,35.5,0,0,1-6.755,5.551c-.117.074-.233.149-.355.222q-.609.395-1.247.771c-.209.129-.424.255-.64.381-.339.2-.686.39-1.041.585-.287.161-.584.321-.883.478-.15.084-.3.163-.455.242s-.3.153-.455.231c-.766.392-1.557.777-2.367,1.152-.252.117-.516.235-.774.352-.036.018-.072.034-.11.051-.259.115-.517.23-.782.345-.148.065-.3.13-.45.194-.2.089-.4.169-.607.257-.22.093-.439.181-.658.271l-.006,0c-.193.078-.393.159-.59.236a.14.14,0,0,1-.016.01c-.107.04-.219.086-.332.128-.184.076-.377.149-.564.223h-.012l-.015.007c-.149.056-.3.118-.452.173-.251.1-.507.2-.766.291l-.075.026c-.26.1-.52.193-.784.284-.316.115-.636.227-.954.339-.2.071-.393.135-.59.2-.231.077-.464.159-.7.229a.1.1,0,0,1-.043.019l-1.263.414q-1.25.4-2.541.774c-.179.054-.358.108-.534.159-.345.1-.693.2-1.044.292-.085.029-.174.05-.262.073-.313.093-.635.176-.957.262q-1.564.419-3.176.806c-.511.123-1.022.241-1.537.359-.965.221-1.942.43-2.934.633l-1.138.235q-2.846.565-5.819,1.036c-.072.01-.144.023-.219.035-.012,0-.028,0-.041.007-.074.014-.146.023-.216.034l-.205.031c-1.217.188-2.454.367-3.7.532-.409.051-.817.1-1.226.156q-1.29.162-2.6.306l-.017,0c-.486.053-.977.1-1.47.153-1.059.111-2.13.211-3.207.3-.067,0-.136.008-.2.017a.588.588,0,0,0-.086.007l-.07,0c-.059.007-.122.013-.178.015s-.123.01-.186.014c-.021,0-.043,0-.065.008-.183.012-.366.031-.55.041l-.436.033-.042,0c-.077.006-.151.014-.227.019l-.16.014a.371.371,0,0,0-.077.008H169.5a1.092,1.092,0,0,0-.151.009l-.071,0-.121.011c-.031,0-.06,0-.1,0-.061.005-.125.007-.19.01-.115.01-.232.018-.348.022-.071.006-.142.009-.215.012-.113.011-.228.019-.343.027-.037,0-.079,0-.117.006-.12,0-.233.014-.352.019q-1.872.117-3.771.193c-.049,0-.1,0-.147.006-.072,0-.146,0-.219.006-.121,0-.246.012-.368.016l-.192.008c-.03,0-.057,0-.084,0-.061,0-.125,0-.188,0-.134.008-.265.011-.4.014-.063,0-.129.006-.193.006s-.128.005-.194.005c-.556.022-1.117.034-1.681.047l-.406.007c-.178,0-.356.008-.534.008h-.006c-.031,0-.06,0-.1,0s-.1,0-.151,0h-.049c-.24.005-.48.014-.722.014h-.036c-.13,0-.263.007-.4.007H157.6c-.059,0-.121,0-.184,0-.164,0-.326,0-.494,0h-.365c-.215,0-.426,0-.639,0h-.244q-.971,0-1.937-.012a1.235,1.235,0,0,1-.172,0h-.1c-.043,0-.085,0-.132,0s-.064,0-.1,0h-.058c-.049,0-.094,0-.139,0s-.07,0-.105,0c-.051,0-.1,0-.151,0a.984.984,0,0,1-.109,0q-1.365-.018-2.72-.054-3.874-.116-7.633-.371h-.01c-5.211-.358-10.244-.922-15.045-1.669-.031,0-.066-.009-.1-.015q-2.233-.348-4.4-.747c-4.183-.774-8.163-1.687-11.911-2.73q-1.353-.372-2.661-.772l-.28-.087c-.214-.067-.425-.129-.636-.194-.351-.111-.7-.222-1.045-.339-.056-.016-.117-.034-.17-.052-.14-.044-.278-.089-.415-.136-.247-.077-.493-.162-.737-.246a80.282,80.282,0,0,1-12.74-5.475c-.1-.054-.193-.1-.289-.162q-2.232-1.234-4.158-2.556a36.574,36.574,0,0,1-4.771-3.87c-.558-.547-1.074-1.1-1.558-1.658-.105-.121-.212-.241-.31-.371-.184-.221-.361-.443-.531-.664a18.711,18.711,0,0,1-1.417-2.106l-.158-.276a14.43,14.43,0,0,1-1.771-5.243,13.072,13.072,0,0,1,.426-5.227c.066-.23.139-.461.222-.693.008-.025.018-.052.026-.08.068-.2.145-.394.221-.59.023-.05.042-.1.064-.158.07-.158.139-.317.216-.481.032-.084.071-.164.11-.245.053-.116.108-.229.162-.339.039-.077.074-.156.114-.234a1.122,1.122,0,0,0,.059-.1c.132-.239.266-.48.409-.718.033-.063.075-.115.107-.18.132-.216.272-.429.415-.646.041-.053.073-.112.113-.166.175-.258.356-.516.547-.763.031-.046.064-.094.1-.139.164-.215.334-.427.511-.64.033-.039.063-.076.094-.117s.049-.06.076-.088c.062-.07.121-.143.188-.213a.242.242,0,0,1,.03-.043l.3-.336a.622.622,0,0,1,.1-.1.435.435,0,0,1,.06-.068c.124-.14.257-.275.381-.417.023-.025.047-.049.074-.075.268-.275.547-.55.833-.826.121-.118.249-.227.368-.344.037-.03.072-.066.109-.1q.165-.157.34-.314a.347.347,0,0,1,.063-.054c.219-.2.445-.388.676-.578.027-.02.054-.047.084-.069l.134-.112c.051-.046.1-.087.152-.129a.092.092,0,0,0,.019-.02.553.553,0,0,0,.091-.078c.327-.254.656-.514.99-.773.055-.034.1-.075.155-.112.358-.275.733-.541,1.116-.809.063-.046.133-.1.2-.136a2.426,2.426,0,0,1,.263-.178.084.084,0,0,1,.027-.026c.037-.027.07-.047.1-.072a.4.4,0,0,0,.056-.041c.2-.13.41-.269.617-.406.058-.034.117-.07.178-.109a1.69,1.69,0,0,1,.178-.111c.111-.075.219-.145.334-.215.2-.129.414-.255.619-.384.125-.074.242-.144.365-.215.375-.224.759-.447,1.141-.667a.819.819,0,0,0,.088-.046h0c.105-.067.215-.119.323-.182s.194-.1.3-.163c.083-.043.167-.09.251-.133s.164-.09.246-.132c.125-.07.252-.14.375-.2s.249-.13.375-.193c.28-.145.564-.29.853-.43.08-.042.157-.079.239-.121s.172-.086.262-.128a1.2,1.2,0,0,1,.148-.072c.071-.039.145-.074.219-.109.232-.111.458-.219.692-.324a1.658,1.658,0,0,1,.165-.078.028.028,0,0,0,.023-.01c.159-.07.325-.148.481-.225a1.65,1.65,0,0,0,.193-.086c.119-.051.232-.1.356-.154h0a1.5,1.5,0,0,1,.2-.094c.17-.078.345-.154.528-.232a.1.1,0,0,1,.04-.018c.317-.144.635-.273.959-.416.172-.063.349-.141.525-.212l.977-.394.512-.2c.31-.125.627-.243.943-.363.142-.054.28-.109.42-.163s.277-.109.432-.164h.015c.291-.1.582-.209.875-.31.153-.049.306-.11.454-.163.115-.036.228-.078.339-.114.225-.082.451-.155.682-.236l.471-.154c.086-.028.169-.058.255-.083h0c.054-.016.1-.038.154-.053h.006c.048-.013.093-.032.148-.048.037-.016.078-.026.111-.039.243-.079.487-.159.735-.235.1-.034.207-.07.308-.1.4-.126.8-.25,1.209-.372.158-.05.319-.1.477-.144.43-.13.855-.249,1.289-.373a.077.077,0,0,1,.039-.011.819.819,0,0,1,.153-.041h0a.361.361,0,0,1,.057-.021c.516-.146,1.027-.289,1.549-.424.143-.041.291-.078.433-.114.418-.111.835-.222,1.262-.327.128-.037.264-.069.4-.1.508-.129,1.017-.25,1.534-.377a.874.874,0,0,0,.086-.017l.309-.071a.109.109,0,0,1,.046-.01c.242-.06.488-.117.736-.171.2-.047.4-.1.605-.137a.138.138,0,0,1,.041-.009c.026-.007.045-.009.074-.018.11-.027.219-.051.329-.068a.51.51,0,0,1,.119-.027c.218-.052.435-.094.652-.145h0c.3-.068.6-.131.9-.194l.027,0c.58-.123,1.156-.234,1.738-.347.143-.031.291-.058.438-.086l1.464-.275c.11-.016.217-.037.33-.06.585-.1,1.18-.21,1.785-.307.116-.019.231-.043.355-.06.489-.078.993-.159,1.5-.237.147-.024.3-.04.44-.067.611-.1,1.224-.191,1.84-.277.027-.006.054-.006.083-.011.586-.08,1.182-.162,1.773-.237.155-.025.316-.045.474-.065.541-.068,1.089-.136,1.631-.2.093-.008.179-.02.271-.036.629-.067,1.261-.138,1.9-.2.144-.012.289-.034.434-.047l1.561-.154c.152-.016.3-.029.454-.039.637-.062,1.288-.123,1.937-.168l.267-.023c.558-.045,1.133-.086,1.7-.129.171-.01.347-.022.518-.035.6-.043,1.2-.078,1.8-.113.063-.005.125-.012.188-.016.66-.034,1.316-.067,1.982-.1.172-.008.35-.01.526-.02.533-.025,1.062-.04,1.6-.066.155,0,.306-.009.466-.013.66-.02,1.327-.042,2-.061.138,0,.271,0,.414-.012.548-.005,1.1-.012,1.652-.023.19,0,.375,0,.564,0,.679-.009,1.36-.016,2.042-.016.6,0,1.181.007,1.769.009.192.007.383.007.572.011s.4.005.6.011h.077l.506,0c.221.005.447.005.67.01.358.012.721.024,1.09.031.227.005.454.01.685.022.094,0,.192,0,.281.007.062,0,.116.006.169.006h.006c.153,0,.3.007.458.018.058,0,.116,0,.172,0h.055c.206.006.4.018.606.028.244.008.483.013.729.024.048,0,.1,0,.148.009h.04c.03,0,.063.005.094.005h.035c.036,0,.07,0,.1,0,.193.009.383.017.572.029s.36.021.535.032h0c.06.005.121.005.184.008a.21.21,0,0,1,.063.007h.005c.244.009.483.019.729.032.064,0,.131,0,.2.009l.369.023a.231.231,0,0,1,.074.008h.063c.4.024.8.047,1.2.078.063,0,.129,0,.19.007a2.741,2.741,0,0,0,.283.018c.172.012.342.026.511.042a.7.7,0,0,1,.129.013h.008c.1,0,.188.012.276.022s.2.009.3.015a.794.794,0,0,0,.119.01c.093.006.178.016.265.019.071.006.137.012.205.014.291.028.587.051.883.076.071.008.143.011.219.018s.154.008.236.012c.023,0,.041.006.059.006.1.017.215.021.319.03.034,0,.07,0,.1.009s.093.011.144.014c.276.024.557.054.834.077.128.016.261.025.387.04a1.8,1.8,0,0,1,.2.019c.109.012.212.02.319.029h.008c.274.023.537.049.811.082h.031c.164.018.324.037.483.053.137.014.277.03.414.043a.012.012,0,0,1,.012.008c.332.029.669.071,1,.1.067.01.133.016.2.025.555.069,1.1.132,1.652.2.1.009.2.026.31.034.053.012.116.016.172.025s.129.015.194.027h.017a.43.43,0,0,0,.1.008.028.028,0,0,0,.023.007.267.267,0,0,1,.033.008c.247.031.5.06.752.1.169.023.338.044.508.07.364.048.725.1,1.088.151.184.026.367.057.555.088.351.044.7.1,1.05.156.178.027.355.051.534.082.363.055.72.117,1.08.168h.017c.049.009.1.021.161.034.1.018.2.032.3.05.439.071.878.149,1.312.224.075.012.145.027.217.041.526.091,1.049.183,1.568.285.049.01.092.012.137.025.091.021.177.037.267.055h.006c.164.031.325.062.486.09.2.041.406.082.6.117l.416.09c.356.066.717.144,1.072.216.161.035.324.069.481.1.339.068.671.141,1.006.216.162.031.314.071.477.11.343.073.681.151,1.017.234.146.034.289.061.435.1.045.009.09.024.135.034s.115.026.171.035c.282.076.567.137.847.21.084.024.177.042.263.062.954.242,1.891.482,2.821.732.117.029.236.063.345.1.344.094.684.184,1.02.285l.176.051c.037.011.078.02.115.032a.45.45,0,0,0,.055.013c.023.01.049.016.078.027a.089.089,0,0,0,.031.008c.3.084.6.172.893.264.144.035.294.084.437.129.266.078.528.158.783.233.043.017.08.028.127.044l.03.008c.13.035.255.081.386.12.055.017.118.04.174.052s.134.048.2.07c.21.06.411.128.616.2.1.035.194.06.291.1s.211.069.319.106a.353.353,0,0,1,.051.02c.285.09.563.189.841.283.047.013.094.029.136.045l1.187.414c.1.035.2.076.309.111.3.11.606.225.907.335.132.05.264.1.4.146.248.092.484.184.723.277a.738.738,0,0,0,.082.036c.14.049.274.109.408.153.26.113.526.218.784.321.13.049.265.109.39.155.279.121.558.231.826.348.1.046.209.086.312.135.756.317,1.491.65,2.211.987.088.046.174.083.26.124.271.131.54.254.8.385.113.057.23.111.346.171a1.911,1.911,0,0,1,.179.093c.176.086.346.164.512.251.125.065.246.122.364.19.224.117.439.227.659.344.116.062.231.121.349.18.223.126.454.252.679.378.1.054.193.111.293.16.281.162.555.321.83.485a.584.584,0,0,1,.109.061c.311.188.621.371.932.563.058.032.114.075.17.11.241.153.474.3.71.447l.266.178c.2.129.4.266.593.4.1.063.191.13.282.192.186.128.373.261.555.393.1.065.184.131.273.2.188.139.379.276.565.415.075.051.148.113.224.168s.178.137.266.209q.2.154.4.314c.03.027.057.047.083.068.256.207.506.41.755.626a.15.15,0,0,0,.037.028c.223.19.442.384.653.583.053.05.107.092.158.141.173.164.348.315.514.48.06.06.115.11.177.169.161.159.317.31.471.468.055.057.1.113.158.165.161.177.323.338.479.511.033.046.073.082.109.124.16.176.317.352.468.532.048.061.1.114.151.174.1.117.185.24.28.349s.168.211.25.318c.1.124.183.246.269.366s.187.248.276.371.156.239.236.353.176.267.262.394.146.233.211.342c.085.138.17.275.248.411.06.116.123.226.185.333.078.141.154.289.226.432.051.112.1.22.155.323.072.148.138.3.205.456.049.1.1.2.141.307.035.083.068.169.1.255a1.459,1.459,0,0,1,.053.154.378.378,0,0,1,.037.089c.033.09.074.186.1.268.017.047.037.08.054.132v.018c.071.206.133.41.2.623a13.142,13.142,0,0,1,.515,3.352v0C234.24,171.416,234.24,171.514,234.24,171.608Z" transform="translate(-66.613 -83.496)" fill="#5d5d5d"/>
  <path id="Path_2821" data-name="Path 2821" d="M229.119,170.065c0,.113,0,.222-.008.329-.011.276-.041.553-.079.823a7.976,7.976,0,0,1-.333,1.34,12.869,12.869,0,0,1-3.965,5.406,31.559,31.559,0,0,1-6.1,4.024c-.106.054-.21.109-.321.162-.366.191-.739.376-1.124.559-.189.094-.383.185-.578.275-.306.144-.618.285-.939.425-.26.117-.527.233-.8.348l-.41.175c-.133.055-.273.11-.41.167-.692.284-1.407.563-2.137.835-.227.085-.465.17-.7.256l-.1.036-.707.251-.4.139c-.181.066-.366.123-.549.188s-.4.131-.594.2l-.006,0c-.174.055-.353.114-.531.171-.006,0-.01,0-.014.006l-.3.092c-.166.056-.339.11-.508.163l-.012,0a.031.031,0,0,1-.016,0c-.131.04-.268.085-.4.125-.228.072-.459.141-.693.21l-.067.02c-.236.07-.47.141-.709.206-.285.083-.572.165-.859.245-.178.053-.356.1-.533.148-.209.056-.42.116-.627.167a.128.128,0,0,1-.039.013c-.377.1-.756.2-1.141.3q-1.125.29-2.294.562l-.479.116c-.313.071-.625.142-.943.212-.077.019-.157.035-.237.051-.282.068-.574.128-.864.191q-1.408.3-2.866.584c-.459.089-.92.175-1.385.261q-1.306.238-2.648.46l-1.026.168q-2.569.409-5.252.751l-.195.026a.341.341,0,0,1-.039.006l-.2.025c-.061.006-.125.015-.184.022-1.1.135-2.215.266-3.342.385l-1.108.113c-.773.078-1.557.152-2.347.222h-.016c-.437.039-.882.076-1.326.112-.955.08-1.922.153-2.9.217-.06,0-.121.006-.18.013-.027,0-.054,0-.077,0l-.065,0c-.051,0-.107.01-.159.011l-.167.01c-.019,0-.04,0-.059.005-.164.009-.332.024-.5.031-.129.006-.261.015-.393.024h-.037l-.206.014c-.048,0-.1.006-.146.009a.391.391,0,0,0-.068.007H170.7a1.255,1.255,0,0,0-.137.006l-.062,0c-.035,0-.073,0-.109.008s-.055,0-.088,0c-.055.005-.112.006-.172.008-.1.006-.208.012-.313.015-.063.005-.127.007-.192.009-.105.008-.207.014-.312.02-.033,0-.071,0-.1,0-.108,0-.211.011-.318.014q-1.687.084-3.4.141c-.046,0-.087,0-.133,0-.065,0-.131,0-.2,0-.109,0-.221.008-.332.01-.057,0-.117,0-.173.006-.026,0-.051,0-.075,0-.055,0-.112,0-.168,0-.123.006-.241.008-.363.01-.059,0-.119,0-.175,0s-.117,0-.177,0c-.5.015-1.006.025-1.515.035l-.367,0c-.161,0-.323.007-.483.007h-.005c-.026,0-.054,0-.085,0h-.18c-.218,0-.433.01-.652.01h-.032c-.118,0-.238,0-.357,0h-.061c-.054,0-.108,0-.167,0-.149,0-.293,0-.443,0h-.331c-.195,0-.384,0-.575,0h-.221c-.583,0-1.168,0-1.748-.009a1.351,1.351,0,0,1-.156,0h-.091c-.039,0-.077,0-.117,0s-.058,0-.09,0h-.052c-.045,0-.086,0-.126,0s-.063,0-.1,0h-.136c-.032,0-.065,0-.1,0q-1.231-.01-2.456-.04-3.5-.081-6.886-.268h-.009c-4.7-.259-9.243-.668-13.575-1.21l-.086-.011q-2.019-.252-3.971-.542c-3.774-.561-7.365-1.223-10.748-1.979-.812-.18-1.615-.367-2.4-.559l-.252-.064c-.194-.048-.383-.093-.574-.141-.317-.08-.633-.161-.944-.245-.051-.012-.1-.025-.153-.038-.126-.031-.25-.065-.374-.1q-.334-.086-.665-.18a82.775,82.775,0,0,1-11.495-3.968c-.09-.039-.176-.078-.263-.118q-2.015-.9-3.751-1.854a32.586,32.586,0,0,1-4.3-2.806c-.5-.4-.969-.8-1.406-1.2-.1-.087-.192-.174-.281-.267-.165-.162-.325-.323-.478-.483a13.878,13.878,0,0,1-1.279-1.527l-.143-.2a9.147,9.147,0,0,1-1.6-3.8,7.741,7.741,0,0,1,.385-3.791c.06-.166.126-.334.2-.5.008-.019.015-.038.022-.059.063-.142.132-.285.2-.426.023-.038.039-.076.058-.115.064-.115.126-.23.195-.349a1.942,1.942,0,0,1,.1-.178c.047-.084.1-.165.144-.246.037-.055.068-.111.1-.169.015-.024.037-.048.053-.076.119-.174.24-.349.369-.521.031-.045.066-.084.1-.13.12-.157.246-.311.375-.469.036-.039.065-.082.1-.121.158-.186.321-.373.493-.552.031-.034.06-.069.091-.1.148-.156.3-.31.461-.465a.853.853,0,0,0,.085-.085c.023-.019.044-.043.069-.063.056-.051.11-.1.17-.155.007-.011.016-.017.027-.031.09-.083.18-.162.269-.244a.561.561,0,0,1,.09-.074.3.3,0,0,1,.056-.05c.111-.1.23-.2.341-.3.021-.018.043-.035.068-.054q.363-.3.751-.6c.109-.086.224-.165.334-.249.032-.023.064-.049.1-.07.1-.077.2-.153.307-.227a.24.24,0,0,1,.057-.039c.2-.144.4-.281.61-.42.025-.014.048-.033.075-.05s.082-.054.121-.082.09-.062.137-.092a.08.08,0,0,0,.018-.015.6.6,0,0,0,.082-.056c.295-.184.593-.373.894-.562.049-.024.09-.054.139-.08.322-.2.662-.393,1.007-.586.057-.034.12-.07.183-.1a2.538,2.538,0,0,1,.236-.129.1.1,0,0,1,.026-.018c.034-.02.063-.035.1-.052.015-.008.031-.02.05-.03.182-.1.37-.2.557-.294l.16-.079a1.436,1.436,0,0,1,.161-.082c.1-.054.2-.1.3-.156.184-.093.373-.183.559-.277.113-.055.219-.1.328-.156.34-.162.686-.324,1.031-.485a.514.514,0,0,0,.08-.032h0c.1-.049.194-.087.293-.132s.174-.075.267-.119c.074-.029.151-.065.226-.1s.148-.066.223-.1c.112-.05.227-.1.339-.149s.224-.094.338-.138c.253-.107.508-.211.769-.313l.214-.088c.081-.029.156-.062.24-.093a1.327,1.327,0,0,1,.131-.052c.066-.028.132-.053.2-.078.209-.082.412-.16.623-.236.048-.022.1-.038.15-.056a.038.038,0,0,0,.022-.007c.14-.051.292-.108.432-.163.059-.016.118-.041.176-.062.106-.037.208-.076.32-.113h0a1.753,1.753,0,0,1,.182-.067c.154-.057.312-.113.476-.17a.2.2,0,0,1,.037-.012c.286-.105.573-.2.867-.3.153-.046.313-.1.471-.153l.883-.286c.153-.047.305-.1.461-.145.279-.089.567-.175.85-.263l.381-.118c.134-.036.248-.078.388-.118h.015c.262-.075.526-.152.79-.226.137-.035.275-.08.406-.117.106-.027.207-.056.309-.083.2-.059.406-.112.615-.172l.424-.112c.077-.019.154-.041.23-.059h0c.049-.011.09-.027.139-.038h.005c.043-.01.085-.024.134-.036l.1-.027c.221-.059.44-.116.664-.172.09-.023.188-.05.279-.068.358-.092.723-.182,1.09-.271.141-.036.288-.07.432-.1.385-.094.77-.181,1.162-.272a.074.074,0,0,1,.034-.008,1.2,1.2,0,0,1,.138-.029h0a.222.222,0,0,1,.05-.015c.465-.1.926-.211,1.4-.308.129-.028.26-.056.391-.082.377-.081.754-.16,1.138-.238.116-.026.239-.049.356-.073.459-.094.917-.181,1.385-.273a.674.674,0,0,0,.076-.014c.092-.015.184-.033.281-.051a.141.141,0,0,1,.041-.007q.329-.064.664-.124c.178-.034.364-.069.545-.1a.231.231,0,0,1,.037-.007c.024,0,.041-.006.068-.013.1-.019.2-.037.3-.049a.572.572,0,0,1,.108-.02c.2-.037.391-.067.587-.1h0c.27-.049.537-.1.806-.142h.024c.525-.089,1.043-.169,1.57-.251.128-.022.261-.042.393-.063l1.322-.2c.1-.01.2-.027.3-.044.529-.075,1.066-.151,1.611-.222.1-.014.209-.032.321-.043.442-.057.9-.116,1.351-.172.131-.018.266-.029.4-.049.553-.07,1.106-.139,1.659-.2.027-.005.051-.005.078-.009.529-.058,1.066-.117,1.6-.172.139-.017.286-.032.426-.048.491-.047.985-.1,1.473-.142.084-.007.162-.016.244-.027.568-.049,1.139-.1,1.713-.148.131-.01.262-.026.391-.035l1.409-.112c.137-.011.274-.021.409-.029.578-.045,1.162-.089,1.748-.121l.241-.017c.505-.032,1.023-.061,1.536-.093.155-.007.313-.015.469-.026.538-.031,1.082-.056,1.621-.081.057,0,.113-.01.17-.012.6-.025,1.186-.048,1.787-.076.155,0,.316-.007.475-.014.481-.017.958-.03,1.445-.047.141,0,.278-.007.42-.009l1.8-.046c.124,0,.245,0,.374-.008.494,0,.993-.008,1.49-.016.172,0,.339,0,.51,0,.613-.006,1.226-.011,1.842-.011.539,0,1.065.005,1.6.007.171,0,.344,0,.515.008s.362,0,.546.008h.07l.455,0c.2,0,.4,0,.606.006.322.008.65.018.982.023.205,0,.41.008.619.015.084,0,.174,0,.254.005.057,0,.1,0,.152,0h0c.139,0,.276.007.414.015h.206c.185,0,.365.012.546.019l.659.018c.043,0,.085,0,.132.007h.038c.025,0,.056,0,.085,0h.032l.092,0c.175.008.345.012.515.021s.326.016.485.024h0c.054,0,.111,0,.166.005a.236.236,0,0,1,.058,0h.006c.219.007.434.015.655.024.06,0,.12,0,.176.007.112,0,.226.01.336.016a.29.29,0,0,1,.065,0h.057c.359.018.723.034,1.082.058.058,0,.116,0,.17,0,.088.008.172.012.258.014.153.009.306.018.459.03a.66.66,0,0,1,.117.01h.008a2.384,2.384,0,0,1,.246.016c.092,0,.182.006.268.011.039.005.074.005.11.007.085,0,.161.011.239.013s.123.009.186.011l.794.055c.066.005.131.007.2.012s.139.006.214.008c.019,0,.036.005.051.005.1.014.2.016.29.023.03,0,.062,0,.094.005s.084.009.129.011l.752.056c.117.011.238.018.35.029.064,0,.125.007.182.013.1.01.193.014.288.022h.008c.248.016.485.035.731.059H176c.149.012.295.027.439.039l.371.031a.011.011,0,0,1,.011.005c.3.022.6.053.9.075.06.007.121.012.184.018.5.05.989.1,1.491.146.09.006.182.019.28.026.049.007.1.01.154.016s.117.012.174.021h.015a.535.535,0,0,0,.088.006.049.049,0,0,0,.022,0c.012,0,.021.008.029.008.224.021.453.042.678.07.154.016.307.032.46.05l.981.11c.166.018.332.042.5.063.317.031.633.071.946.114.161.019.32.037.482.059.327.04.648.085.975.121h.013c.046.007.094.016.147.026l.269.036c.4.05.791.108,1.182.162.069.009.132.019.2.03.477.066.948.132,1.416.206.045.008.084.009.123.019l.242.04h0c.149.022.3.045.44.064.184.029.367.06.545.085l.373.066c.321.047.648.1.969.157l.433.075c.306.049.606.1.907.156.146.024.286.052.431.08.309.054.615.11.918.17.132.024.26.044.393.069l.122.025c.05.008.1.019.155.025.254.055.512.1.763.153.077.017.159.03.237.046.86.174,1.705.348,2.547.53.105.02.212.045.31.069.309.068.616.133.921.206l.157.037c.034.008.071.015.105.025.015,0,.03.007.048.009s.046.011.072.019a.14.14,0,0,0,.028.006c.273.061.539.124.8.19.132.027.266.062.4.094.24.058.474.115.706.169.038.013.071.021.114.032l.026.005c.118.027.232.06.351.088a1.328,1.328,0,0,0,.154.037c.065.019.121.035.186.051.188.044.371.094.556.144.088.024.175.043.262.07s.19.05.287.075l.047.016c.258.065.508.137.758.205a1.149,1.149,0,0,1,.123.033c.359.1.719.2,1.07.3.094.025.186.055.28.08.273.08.546.163.82.242.118.038.236.071.355.106.225.068.438.133.653.2a.651.651,0,0,0,.075.025c.126.036.247.08.37.111.232.083.474.158.705.234.117.035.24.079.352.112.252.087.5.167.746.252.092.033.189.063.283.1.68.23,1.344.471,1.994.716.08.033.156.06.234.089.246.1.488.185.721.28.1.041.209.08.311.124.057.019.107.043.163.067.159.062.312.118.462.182.113.048.221.089.328.137.2.086.4.166.6.249.1.046.207.088.313.132l.614.274c.086.039.174.081.262.115.256.118.5.233.75.353a.8.8,0,0,1,.1.044c.28.136.558.269.838.408.053.023.1.054.155.08.217.11.427.215.639.324l.242.129c.181.094.356.193.535.287.088.046.17.094.255.139.167.093.336.189.5.285.086.047.165.094.246.143.171.1.342.2.51.3.068.036.134.082.2.121s.16.1.241.153c.12.074.241.149.362.226a.877.877,0,0,0,.074.05c.232.149.457.3.682.454a.091.091,0,0,0,.033.02c.2.137.4.279.588.422.049.036.1.068.144.1.155.12.313.23.464.35.054.043.1.079.16.122.142.116.285.224.425.339.048.04.092.082.142.12.145.128.292.244.433.37.029.034.066.06.1.09.145.127.287.256.422.385.043.044.091.083.137.126.088.085.168.175.254.254s.15.153.224.23.166.179.243.265.168.18.25.27.14.174.213.256.157.193.236.286.131.169.189.247c.076.1.153.2.223.3s.111.163.169.241c.07.1.138.21.2.312.047.082.1.161.143.235.064.108.123.22.185.331.043.071.084.148.125.223.031.059.063.122.09.183a.96.96,0,0,1,.049.113.23.23,0,0,1,.031.065c.031.064.068.135.094.193.015.035.034.059.049.1v.013c.064.148.122.3.176.451a7.815,7.815,0,0,1,.466,2.431h0C229.119,169.925,229.119,169.995,229.119,170.065Z" transform="translate(-66.613 -83.496)" fill="#c8e7eb" opacity="0.2"/>
  <g id="Group_6882" data-name="Group 6882" transform="translate(-66.613 -83.496)">
    <g id="Group_6867" data-name="Group 6867">
      <g id="Group_6836" data-name="Group 6836">
        <g id="Group_6835" data-name="Group 6835">
          <path id="Path_2822" data-name="Path 2822" d="M222.6,122.951c-.225-.233-.426-.571-.284-.856.161-.322.62-.325.973-.245a5.983,5.983,0,0,1,4.236,3.764l-.025.114a8.361,8.361,0,0,1,5.518-.538c.406.1.871.3.949.706a.78.78,0,0,1-.356.758,1.975,1.975,0,0,1-.84.273,8.4,8.4,0,0,1-5.4-1.05l.1-.133,0,0C225.979,124.6,223.9,124.314,222.6,122.951Z" fill="#d8e081"/>
        </g>
      </g>
      <g id="Group_6838" data-name="Group 6838">
        <g id="Group_6837" data-name="Group 6837">
          <path id="Path_2823" data-name="Path 2823" d="M219.91,127.9a.968.968,0,0,1-.383-.538.732.732,0,0,1,.466-.741,1.719,1.719,0,0,1,.929-.061,5.737,5.737,0,0,1,4.458,3.6v.207a9.064,9.064,0,0,1,5.861-1.688c.44.024.965.161,1.08.584a.741.741,0,0,1-.243.709,1.916,1.916,0,0,1-.687.367,9.643,9.643,0,0,1-6.07.086l.02-.021c-1.291-.554-2.586-1.1-3.875-1.656A6.523,6.523,0,0,1,219.91,127.9Z" fill="#d8e081"/>
        </g>
      </g>
      <g id="Group_6840" data-name="Group 6840">
        <g id="Group_6839" data-name="Group 6839">
          <path id="Path_2824" data-name="Path 2824" d="M221.926,139.662a13.561,13.561,0,0,1-5.921-1.108c-.351-.15-.75-.4-.757-.777-.005-.418.461-.666.869-.752a4.978,4.978,0,0,1,3.262.6,14.96,14.96,0,0,1,2.717,2.016Z" fill="#d8e081"/>
        </g>
      </g>
      <g id="Group_6842" data-name="Group 6842">
        <g id="Group_6841" data-name="Group 6841">
          <path id="Path_2825" data-name="Path 2825" d="M227.8,114.237c.219-.38.768-.374,1.185-.243a4.2,4.2,0,0,1,2.192,1.8,7.227,7.227,0,0,1,.938,2.7l-.005.009a7.423,7.423,0,0,1,3.588-.441,1.741,1.741,0,0,1,.9.414.831.831,0,0,1,.212.911,1.106,1.106,0,0,1-.926.5,7.24,7.24,0,0,1-3.761-1.023l-.158-.207a16.537,16.537,0,0,1-3.795-3.21C227.871,115.1,227.575,114.627,227.8,114.237Z" fill="#d8e081"/>
        </g>
      </g>
      <g id="Group_6844" data-name="Group 6844">
        <g id="Group_6843" data-name="Group 6843">
          <path id="Path_2826" data-name="Path 2826" d="M230.574,111.326a.858.858,0,0,1,.673-.415,1.628,1.628,0,0,1,.8.145,4.046,4.046,0,0,1,1.826,1.632,9.629,9.629,0,0,1,.967,2.28l-.2-.094a24.214,24.214,0,0,1-3.355-2.023,2.384,2.384,0,0,1-.643-.651A.911.911,0,0,1,230.574,111.326Z" fill="#d8e081"/>
        </g>
      </g>
      <g id="Group_6846" data-name="Group 6846">
        <g id="Group_6845" data-name="Group 6845">
          <path id="Path_2827" data-name="Path 2827" d="M218.371,133.2a2.464,2.464,0,0,1-1.1-.63.844.844,0,0,1,0-1.149,1.132,1.132,0,0,1,.89-.133,7.026,7.026,0,0,1,5.113,3.7Z" fill="#d8e081"/>
        </g>
      </g>
      <g id="Group_6848" data-name="Group 6848">
        <g id="Group_6847" data-name="Group 6847">
          <path id="Path_2828" data-name="Path 2828" d="M234.742,114.961l.121.083a7.026,7.026,0,0,1,4.75-.082,1.867,1.867,0,0,1,.7.385.734.734,0,0,1,.225.729c-.131.408-.654.523-1.084.527A7.427,7.427,0,0,1,234.742,114.961Z" fill="#d8e081"/>
        </g>
      </g>
      <g id="Group_6850" data-name="Group 6850">
        <g id="Group_6849" data-name="Group 6849">
          <path id="Path_2829" data-name="Path 2829" d="M239.172,110.511a8.792,8.792,0,0,1,5.883-4.233,2.1,2.1,0,0,1,.793-.042.854.854,0,0,1,.625.45c.2.445-.153.929-.515,1.25-1.8,1.6-4.317,2.069-6.7,2.479Z" fill="#d8e081"/>
        </g>
      </g>
      <g id="Group_6852" data-name="Group 6852">
        <g id="Group_6851" data-name="Group 6851">
          <path id="Path_2830" data-name="Path 2830" d="M229.4,122.573c0-.019-.01-.039-.015-.055l.034.022-.008-.018a6.238,6.238,0,0,1,5.471-.888c.416.153.871.452.863.9-.008.483-.551.76-1.019.873a7.024,7.024,0,0,1-5.264-.789l-.02-.039Z" fill="#d8e081"/>
        </g>
      </g>
      <g id="Group_6854" data-name="Group 6854">
        <g id="Group_6853" data-name="Group 6853">
          <path id="Path_2831" data-name="Path 2831" d="M237.275,112.605l-.1-.148a12.418,12.418,0,0,1,2.7-.541,5.592,5.592,0,0,1,2.7.46,1.717,1.717,0,0,1,.674.487.809.809,0,0,1,.147.785c-.174.436-.739.532-1.213.524A8.873,8.873,0,0,1,237.275,112.605Z" fill="#d8e081"/>
        </g>
      </g>
      <g id="Group_6856" data-name="Group 6856">
        <g id="Group_6855" data-name="Group 6855">
          <path id="Path_2832" data-name="Path 2832" d="M225.27,118.1a.924.924,0,0,1,.8-.1,3.9,3.9,0,0,1,2.312,1.775,8.415,8.415,0,0,1,1,2.739,24.688,24.688,0,0,1-3.78-2.91,2.02,2.02,0,0,1-.51-.707A.731.731,0,0,1,225.27,118.1Z" fill="#d8e081"/>
        </g>
      </g>
      <g id="Group_6858" data-name="Group 6858">
        <g id="Group_6857" data-name="Group 6857">
          <path id="Path_2833" data-name="Path 2833" d="M223.3,135.028c-.009-.014-.016-.03-.026-.046a.239.239,0,0,0,.051.018l.029-.026a9.7,9.7,0,0,1,5.581-3.252,1.241,1.241,0,0,1,1.136.194,1,1,0,0,1-.06,1.225,3.734,3.734,0,0,1-2.1,1.215,20.942,20.942,0,0,1-4.53.774v0l0,.064a.659.659,0,0,0-.03-.066,1.507,1.507,0,0,1-.176.014Z" fill="#d8e081"/>
        </g>
      </g>
      <g id="Group_6860" data-name="Group 6860">
        <g id="Group_6859" data-name="Group 6859">
          <path id="Path_2834" data-name="Path 2834" d="M222.109,139.617c.043-.005.086-.006.131-.012-.056.079-.111.161-.166.241Z" fill="#d8e081"/>
        </g>
      </g>
      <g id="Group_6862" data-name="Group 6862">
        <g id="Group_6861" data-name="Group 6861">
          <path id="Path_2835" data-name="Path 2835" d="M228.787,135.531a2.032,2.032,0,0,1,.846.11.892.892,0,0,1,.556.612,1.05,1.05,0,0,1-.242.806,4.155,4.155,0,0,1-1.857,1.224,19.529,19.529,0,0,1-5.85,1.322,10.845,10.845,0,0,1,2.68-2.733A7.254,7.254,0,0,1,228.787,135.531Z" fill="#d8e081"/>
        </g>
      </g>
      <g id="Group_6864" data-name="Group 6864">
        <g id="Group_6863" data-name="Group 6863">
          <path id="Path_2836" data-name="Path 2836" d="M229.279,142.276a.865.865,0,0,1-.181.667,2.091,2.091,0,0,1-.534.469,10.53,10.53,0,0,1-3.751,1.508,28.3,28.3,0,0,1-3.922.474l.091.139a15.057,15.057,0,0,1-5.32-1.583,2.1,2.1,0,0,1-.736-.543.752.752,0,0,1-.072-.859,1.035,1.035,0,0,1,.876-.317,5.867,5.867,0,0,1,5.1,3.067l.013-.026a8.846,8.846,0,0,1,5.5-3.765,3.908,3.908,0,0,1,2.2.047A1.086,1.086,0,0,1,229.279,142.276Z" fill="#d8e081"/>
        </g>
      </g>
      <g id="Group_6866" data-name="Group 6866">
        <g id="Group_6865" data-name="Group 6865">
          <path id="Path_2837" data-name="Path 2837" d="M221.213,148.229a53.01,53.01,0,0,1,18.92-37.057c.683-.573-.324-1.537-1-.971a54.367,54.367,0,0,0-19.309,38.061C219.764,149.15,221.153,149.115,221.213,148.229Z" fill="#d8e081"/>
        </g>
      </g>
    </g>
    <g id="Group_6875" data-name="Group 6875">
      <g id="Group_6869" data-name="Group 6869">
        <g id="Group_6868" data-name="Group 6868">
          <path id="Path_2838" data-name="Path 2838" d="M220.662,149.039c.112.006.226.014.34.018-.059.087-.119.169-.184.25Z" fill="#00a3a1"/>
        </g>
      </g>
      <g id="Group_6872" data-name="Group 6872" opacity="0.4">
        <g id="Group_6871" data-name="Group 6871">
          <g id="Group_6870" data-name="Group 6870">
            <path id="Path_2839" data-name="Path 2839" d="M221,149.057c1.24-1.765,1.588-4.2,1.709-6.582a35.71,35.71,0,0,1,.664-7.41c.141-.521.365-1.076.863-1.214.611-.17,1.369.4,1.715,1.085a4.994,4.994,0,0,1,.41,2.132,16.58,16.58,0,0,1,4.9-7.691q.521,1.818,1.043,3.641a14.946,14.946,0,0,1,4.97-5.554,1.861,1.861,0,0,1,2.207-.2,2.71,2.71,0,0,1,.569,2.683,14.888,14.888,0,0,1,11.063-2.971,3.458,3.458,0,0,1,2.925,1.666,2.712,2.712,0,0,1-.908,2.928,38.833,38.833,0,0,1-6.91,5.816,5.826,5.826,0,0,1,2.478.891,2.337,2.337,0,0,1,1.037,2.375c-.258.688-1.059.867-1.774.973q-4.121.621-8.348.861c.96.571,2.114,1.509,1.95,2.522-.138.854-1.134,1.025-1.973,1.049-2.314.073-4.648.062-6.988-.036a1.91,1.91,0,0,1,1.247,1.924,1.822,1.822,0,0,1-1.323,1.518,6.1,6.1,0,0,1-2.187.136Q225.673,149.328,221,149.057Z" fill="#00abc4"/>
          </g>
        </g>
      </g>
      <g id="Group_6874" data-name="Group 6874">
        <g id="Group_6873" data-name="Group 6873">
          <path id="Path_2840" data-name="Path 2840" d="M247.98,129.5a96.807,96.807,0,0,0-12.018,7.151,26.393,26.393,0,0,1,1.651-4.157c.2-.4-.455-.624-.654-.231a26.469,26.469,0,0,0-1.9,5.011h0q-3.69,2.631-7.127,5.6.931-3.3,1.862-6.606c.122-.425-.532-.659-.653-.229q-1.038,3.687-2.078,7.375a.322.322,0,0,0,.011.212c-1.335,1.179-2.648,2.381-3.918,3.634-.318.312.13.842.447.529,1.336-1.321,2.723-2.582,4.131-3.816a.384.384,0,0,0,.079.012l5.667-.3c.439-.025.494-.715.048-.692l-4.971.268c2.315-1.982,4.713-3.869,7.2-5.627a.346.346,0,0,0,.142.054,36.7,36.7,0,0,0,7.019.347c.44-.019.495-.709.048-.69a36.783,36.783,0,0,1-6.391-.273,97.224,97.224,0,0,1,11.7-6.942A.345.345,0,0,0,247.98,129.5Z" fill="#00aeb4"/>
        </g>
      </g>
    </g>
    <g id="Group_6881" data-name="Group 6881">
      <g id="Group_6878" data-name="Group 6878" opacity="0.4">
        <g id="Group_6877" data-name="Group 6877">
          <g id="Group_6876" data-name="Group 6876">
            <path id="Path_2841" data-name="Path 2841" d="M225.26,135.15a3.708,3.708,0,0,1-1.415,2.579q-3.639,3.683-7.575,7.054l.1.194-8.205-3.621a4.782,4.782,0,0,1-1.615-.981,1.469,1.469,0,0,1,.765-2.6,3.169,3.169,0,0,1,.936-.09l4.258.137c.48.017,1.076-.036,1.179-.572a.814.814,0,0,0-.248-.724,10.408,10.408,0,0,0-5.463-2.8,4.834,4.834,0,0,1-1.71-.471c-.684-.424-1.089-1.49-.078-2.007a1.782,1.782,0,0,1,.7-.179,19.587,19.587,0,0,1,4.688.263c.8.144,1.917.166,2.04-.719a1.06,1.06,0,0,0-.438-.994,14.108,14.108,0,0,0-4.97-2.323,3.606,3.606,0,0,1-1.285-.466.943.943,0,0,1-.063-1.633,1.467,1.467,0,0,1,.942-.175l4.416.581c.523.067,1.17.089,1.379-.484a.955.955,0,0,0-.358-1.088,16.511,16.511,0,0,0-5.443-2.566,2.56,2.56,0,0,1-1.658-.885.9.9,0,0,1-.043-.962c.271-.428.787-.4,1.234-.351l4.76.509a.317.317,0,0,0,.257-.544,12.334,12.334,0,0,0-4.9-2.825,3.814,3.814,0,0,1-1.312-.547c-.526-.416-.778-1.305.1-1.7a1.5,1.5,0,0,1,.739-.115,25.573,25.573,0,0,1,4.4.7q-.809-1.964-1.614-3.933c-.4-.96-.781-2.111-.048-2.954a1.844,1.844,0,0,1,2-.456,3.432,3.432,0,0,1,2.009,2.813,3.522,3.522,0,0,0,.633,1.88,1.041,1.041,0,0,0,.924.356c.591-.1.789-.694,1.022-1.189.2-.433.6-.888,1.066-.777a.893.893,0,0,1,.541.5,2.834,2.834,0,0,1-.471,2.642c-.6.973-1.388,1.932-1.123,3.163a1.3,1.3,0,0,0,1.432,1.069c.689-.109.982-.79,1.361-1.324s1.16-.964,1.625-.391a.994.994,0,0,1,.189.605c0,1.549-1.013,2.83-1.852,4.1a6.638,6.638,0,0,0-1.125,2.641.709.709,0,0,0,1.136.648l2.621-1.986c.291-.221.631-.457,1.016-.257a.739.739,0,0,1,.369.556,1.9,1.9,0,0,1-.567,1.4q-1.783,2.319-3.572,4.628c-.412.537-.851,1.2-.5,1.844a1.236,1.236,0,0,0,1.439.532c1.154-.324,1.647-1.415,2.488-2.118.506-.421,1.406-.641,1.676.087a.953.953,0,0,1-.188.935,32.179,32.179,0,0,1-4.126,4.061,2.928,2.928,0,0,0-1.329,1.8,1.034,1.034,0,0,0,.712,1.161,1.6,1.6,0,0,0,1.355-.572q.9-.79,1.8-1.587c.617-.538,1.384-1.123,2.188-.755A1.43,1.43,0,0,1,225.26,135.15Z" fill="#00abc4"/>
          </g>
        </g>
      </g>
      <g id="Group_6880" data-name="Group 6880">
        <g id="Group_6879" data-name="Group 6879">
          <path id="Path_2842" data-name="Path 2842" d="M215.978,144.115a55.244,55.244,0,0,0-4.453-36.5c-.2-.395-.843-.149-.644.25a54.662,54.662,0,0,1,4.413,36.15C215.2,144.45,215.881,144.55,215.978,144.115Z" fill="#00aeb4"/>
        </g>
      </g>
    </g>
  </g>
  <path id="Path_2843" data-name="Path 2843" d="M82.643,168.782a28.782,28.782,0,0,0,2.525,7.527c2.134,3.721,21.309,26.722,93.32,21.963" transform="translate(-66.613 -83.496)" fill="none" stroke="#c8e7eb" stroke-miterlimit="10" stroke-width="2" opacity="0.5"/>
  <g id="Group_6893" data-name="Group 6893" transform="translate(-66.613 -83.496)">
    <g id="Group_6885" data-name="Group 6885">
      <path id="Path_2844" data-name="Path 2844" d="M72.4,160.94c7.286-2.306,14.084-6.98,21.72-6.783a37.7,37.7,0,0,1,.3-7.944,4.561,4.561,0,0,0,.014-1.949,3.021,3.021,0,0,0-3.069-1.825,12.519,12.519,0,0,0-3.687,1.013c-4.456,1.57-9.3,1.506-13.959,2.268a1.8,1.8,0,0,0-1.232.561,2.6,2.6,0,0,0-.219,1.454c-.092,2.2-2.356,3.54-4.243,4.673a2.81,2.81,0,0,0-1.3,1.267A2.541,2.541,0,0,0,66.68,155a9.571,9.571,0,0,0,3.05,5.478,2.689,2.689,0,0,0,1.079.648A3.01,3.01,0,0,0,72.4,160.94Z" fill="#f9f3dd"/>
      <g id="Group_6883" data-name="Group 6883">
        <path id="Path_2845" data-name="Path 2845" d="M84.273,144.969c1.8.561,3.942,1.759,3.7,3.629a11.573,11.573,0,0,1-4.067,2.079q1.5.591,2.953,1.3c.4.2.867.511.818.957-.043.4-.465.621-.833.774q-7.184,2.982-14.365,5.969a8.327,8.327,0,0,1-2.779.759c.01.01.019.022.029.034a2.689,2.689,0,0,0,1.079.648,3.01,3.01,0,0,0,1.589-.183c7.286-2.306,14.084-6.98,21.72-6.783a37.7,37.7,0,0,1,.3-7.944,4.561,4.561,0,0,0,.014-1.949,3.027,3.027,0,0,0-3.069-1.828,12.617,12.617,0,0,0-3.687,1.016,26.186,26.186,0,0,1-4.566,1.108C83.5,144.714,83.895,144.851,84.273,144.969Z" fill="#f9f3dd" style="mix-blend-mode: multiply;isolation: isolate"/>
        <path id="Path_2846" data-name="Path 2846" d="M72.266,147.735c-.075,1.775-1.561,2.986-3.121,3.982a55.255,55.255,0,0,0,10.54-3.56l-7.415-.971C72.268,147.371,72.271,147.557,72.266,147.735Z" fill="#f9f3dd" style="mix-blend-mode: multiply;isolation: isolate"/>
      </g>
      <path id="Path_2847" data-name="Path 2847" d="M178.447,89.7a3.557,3.557,0,0,0-.427-1.715,3.469,3.469,0,0,0-1.342-1.051,27.3,27.3,0,0,0-8.608-3.195c-3.933-.621-7.947.079-11.869.777a77.915,77.915,0,0,0-11.361,2.61,67.9,67.9,0,0,0-8.074,3.483c-5.633,2.767-11.245,5.8-15.778,10.134-6.925,6.628-10.793,15.729-15.674,23.978s-11.7,16.328-21.079,18.311c1.915,2.442,6.869,2,7.365,5.063.257,1.6-1.053,2.979-2.256,4.066.877.067,1.348,1.179,1.1,2.024a4.5,4.5,0,0,1-1.646,2.008,12.845,12.845,0,0,0,4.421-.746,49.809,49.809,0,0,1,26.552.06c9.177,2.575,17.592,7.789,27.023,9.174,9.319,1.367,20.773-1.254,29.861-3.727-.42-8.4-.828-16.611.33-24.935A217.9,217.9,0,0,0,178.447,89.7Z" fill="#b5746b"/>
      <path id="Path_2848" data-name="Path 2848" d="M144.158,102.916a46.5,46.5,0,0,1-.305,8.112c-.437,3.452-1.363,7.043-3.825,9.5-2.548,2.544-6.27,3.427-9.786,4.2l-12.789,2.818c-.959.21-2.432-.027-2.262-.993a1.437,1.437,0,0,1,.634-.82c2.343-1.763,5.228-2.6,7.937-3.719s5.441-2.706,6.758-5.324c1.255-2.5,1.044-5.618,2.619-7.932a11.055,11.055,0,0,1,4.885-3.475Q141.032,103.948,144.158,102.916Z" fill="#b5746b" opacity="0.52" style="mix-blend-mode: multiply;isolation: isolate"/>
      <path id="Path_2849" data-name="Path 2849" d="M147.828,154.149a47.963,47.963,0,0,1-6.819-6.186,20.4,20.4,0,0,1-4.665-16.648c.9-5.35,4.115-9.481,5.724-14.481,1.938-6.014.286-12,3.614-17.729,2.944-5.066,7.709-8.992,12.556-12.15a17.245,17.245,0,0,1,11.072-3.091c5.6.613,10.014,4.655,14.113,8.161,11.718,10.03,25.116,18.692,28.659,34.6a23.944,23.944,0,0,1,.255,10.942c-2.363,9.5-9.976,8.265-17.484,10.9-6.955,2.441-10.688,8.114-16.837,11.605a22.026,22.026,0,0,1-9.07,2.423,21.583,21.583,0,0,1-13.661-3.294A85.7,85.7,0,0,1,147.828,154.149Z" fill="#f9f3dd"/>
      <path id="Path_2850" data-name="Path 2850" d="M150.291,151.784a44.055,44.055,0,0,1-6.282-5.7,18.806,18.806,0,0,1-4.3-15.343c.823-4.929,3.793-8.737,5.276-13.344,1.785-5.542.263-11.061,3.329-16.338,2.711-4.668,7.1-8.286,11.57-11.2a15.884,15.884,0,0,1,10.2-2.848c5.163.565,9.23,4.289,13,7.52,10.8,9.242,23.144,17.223,26.412,31.887a22.081,22.081,0,0,1,.234,10.083c-2.178,8.753-9.2,7.617-16.112,10.045-6.409,2.247-9.849,7.475-15.516,10.692a20.339,20.339,0,0,1-8.356,2.234,19.906,19.906,0,0,1-12.588-3.038A77.469,77.469,0,0,1,150.291,151.784Z" fill="#ff9c9c"/>
      <g id="Group_6884" data-name="Group 6884">
        <path id="Path_2851" data-name="Path 2851" d="M179.322,113.241c2.245,2.574,5.576,4.361,6.783,7.554a12.8,12.8,0,0,1,.391,5.711,3.637,3.637,0,0,1-.258,1.2,3.214,3.214,0,0,1-1.147,1.2c-2.531,1.763-5.605,2.526-8.6,3.254a26.305,26.305,0,0,1-6.945,1.041,8.828,8.828,0,0,1-6.34-2.607c-1.686-1.878-2.137-4.532-2.452-7.037a4.456,4.456,0,0,1-.042-1.2,4.25,4.25,0,0,1,.953-1.879c1.447-1.9,3.186-3.66,3.957-5.917.981-2.867.559-6.661,3.139-8.25,1.98-1.22,4.656-.227,6.321,1.4S177.791,111.486,179.322,113.241Z" fill="#e1d8b8"/>
        <path id="Path_2852" data-name="Path 2852" d="M180.346,113.111c2.244,2.575,5.574,4.36,6.781,7.555a12.77,12.77,0,0,1,.391,5.71,3.573,3.573,0,0,1-.254,1.2,3.21,3.21,0,0,1-1.151,1.2c-2.53,1.762-5.6,2.525-8.6,3.255a26.151,26.151,0,0,1-6.946,1.038,8.816,8.816,0,0,1-6.338-2.6c-1.685-1.88-2.137-4.534-2.453-7.04a4.475,4.475,0,0,1-.041-1.2,4.188,4.188,0,0,1,.951-1.88c1.446-1.9,3.186-3.662,3.957-5.918.983-2.867.562-6.66,3.14-8.251,1.98-1.22,4.656-.226,6.323,1.4S178.816,111.358,180.346,113.111Z" fill="#f9f3dd"/>
        <path id="Path_2853" data-name="Path 2853" d="M179.037,115.326c1.707,1.956,4.238,3.314,5.158,5.742a9.673,9.673,0,0,1,.3,4.343,2.738,2.738,0,0,1-.194.916,2.452,2.452,0,0,1-.874.908,19.086,19.086,0,0,1-6.537,2.475,19.992,19.992,0,0,1-5.282.79,6.7,6.7,0,0,1-4.818-1.981c-1.283-1.429-1.627-3.447-1.868-5.351a3.513,3.513,0,0,1-.03-.916,3.215,3.215,0,0,1,.724-1.428c1.1-1.442,2.42-2.782,3.009-4.5.747-2.178.425-5.062,2.387-6.271,1.507-.927,3.54-.173,4.8,1.062S177.875,113.99,179.037,115.326Z" fill="#f9f3dd" style="mix-blend-mode: multiply;isolation: isolate"/>
        <path id="Path_2854" data-name="Path 2854" d="M184.223,121.065c-.918-2.428-3.452-3.786-5.159-5.742-1.162-1.336-1.957-2.975-3.223-4.211s-3.3-1.992-4.806-1.062a2.617,2.617,0,0,0-.3.251,4.648,4.648,0,0,1,3.871,1.406c1.264,1.234,2.06,2.875,3.221,4.209,1.707,1.957,4.241,3.316,5.158,5.745a9.7,9.7,0,0,1,.3,4.34,2.74,2.74,0,0,1-.192.915,2.459,2.459,0,0,1-.874.91,10.451,10.451,0,0,1-.979.566,11.446,11.446,0,0,0,2.217-1.161,2.43,2.43,0,0,0,.873-.909,2.764,2.764,0,0,0,.2-.916A9.752,9.752,0,0,0,184.223,121.065Z" fill="#f9f3dd" style="mix-blend-mode: multiply;isolation: isolate"/>
      </g>
      <path id="Path_2855" data-name="Path 2855" d="M188.809,96.4c.154.394.3.789.478,1.176,2.362,5.3,6.242,9.81,8.745,15.048s3.4,11.934-.134,16.543c-1.838,2.4-4.6,3.877-7.273,5.282-7.99,4.2-16.1,8.414-24.893,10.446s-21.365-.74-29.144-5.315c-7.891,4.551-14.267,9.119-23.358,8.523-2.843-.185-5.871-.73-7.916-2.716-3.965-3.856-2.136-10.387-.8-15.758.406-1.638.717-3.3.974-4.964-.012.022-.021.042-.033.061-4.883,8.25-11.7,16.33-21.08,18.31,1.916,2.442,6.869,2,7.363,5.064.261,1.6-1.052,2.978-2.254,4.068.877.066,1.35,1.178,1.1,2.02a4.438,4.438,0,0,1-1.647,2.009,12.869,12.869,0,0,0,4.422-.745,49.8,49.8,0,0,1,26.552.059c9.176,2.575,17.592,7.79,27.024,9.173,8.216,1.207,18.093-.69,26.547-2.85.246-.058.488-.127.734-.195.871-.227,1.744-.455,2.579-.681,0-.076-.008-.156-.013-.234a14.339,14.339,0,0,0,1.375-.645c6.153-3.489,9.885-9.164,16.84-11.6,7.508-2.635,15.119-1.4,17.485-10.9a23.975,23.975,0,0,0-.258-10.943C209.2,113.066,199.009,104.771,188.809,96.4Z" fill="#b5746b" opacity="0.62" style="mix-blend-mode: multiply;isolation: isolate"/>
      <path id="Path_2856" data-name="Path 2856" d="M119.877,106.311A47.577,47.577,0,0,1,138.236,93c2.141-.829,5.883-2.533,7.844-.521.792.814-2.059,4.308-2.642,4.9a23.209,23.209,0,0,1-5.242,3.663c-4.6,2.549-9.194,4.725-13.249,8.126-1.963,1.647-3.637,3.521-5.986,4.649a2.872,2.872,0,0,1-1.539.373c-.99-.117-1.277-1.106-1.148-1.954a6.884,6.884,0,0,1,1.2-2.709A35.842,35.842,0,0,1,119.877,106.311Z" fill="#fff" opacity="0.3"/>
      <path id="Path_2857" data-name="Path 2857" d="M110.423,140.436q-1.177-2.526-2.126-5.145a4.919,4.919,0,0,1-.318-3.5,3.564,3.564,0,0,1,3.039-1.91,15.136,15.136,0,0,1,3.744.39,22.7,22.7,0,0,0,14.872-2.79c1.153-.671,2.6-1.459,3.716-.733a12.711,12.711,0,0,0-.958,6.074c.116,1.277.389,2.7-.369,3.73a4.422,4.422,0,0,1-1.584,1.169,49.365,49.365,0,0,1-8.727,3.87,17.282,17.282,0,0,1-9.427.393,2.8,2.8,0,0,1-1.314-.655A3.085,3.085,0,0,1,110.423,140.436Z" fill="#fff" opacity="0.13"/>
      <path id="Path_2858" data-name="Path 2858" d="M150.274,114.779c-.856-3.779-1.682-7.873-.108-11.414,1.515-3.409,4.9-5.514,7.576-8.121,1.473-1.435,2.762-3.068,4.363-4.363a7.8,7.8,0,0,1,5.672-1.989,9.345,9.345,0,0,1,4.315,2.085,10.806,10.806,0,0,1,3.534,3.886,4.581,4.581,0,0,1-.5,4.975c-1.254,1.341-3.293,1.467-5.043,2.017a9.883,9.883,0,0,0-6.51,7.014c-.3,1.295-.34,2.643-.64,3.94a4.984,4.984,0,0,1-2.084,3.275,6.62,6.62,0,0,1-4.092.41l-5.332-.608a1.089,1.089,0,0,1-1.152-1.107Z" fill="#fff" opacity="0.3"/>
      <path id="Path_2859" data-name="Path 2859" d="M156.711,136.814c-3.551,1.477-7.656.926-11.26-.425a3.5,3.5,0,0,1-1.353-.776,3.2,3.2,0,0,1-.678-1.466c-1.213-5.015,1.228-10.278,4.662-14.128q2.838.092,5.672.178c1.185.038,2.68.31,2.957,1.464a3.359,3.359,0,0,1-.1,1.348c-.51,2.822.548,5.68,1.771,8.275a4.848,4.848,0,0,1,.7,3.37A3.844,3.844,0,0,1,156.711,136.814Z" fill="#fff" opacity="0.3"/>
      <path id="Path_2860" data-name="Path 2860" d="M160.191,103.186a2.615,2.615,0,0,0,1.672-.4,11.8,11.8,0,0,0,2.747-1.983c.929-.9,1.7-1.949,2.64-2.843a8.962,8.962,0,0,0,1.517-1.606,1.987,1.987,0,0,0,.132-2.1,2.24,2.24,0,0,0-1.278-.82,3.881,3.881,0,0,0-3.113.276,9.125,9.125,0,0,0-1.856,1.906,18.263,18.263,0,0,1-3.936,3.036,4.364,4.364,0,0,0-1.3,1.11,1.528,1.528,0,0,0-.144,1.62,2.249,2.249,0,0,0,.807.673l1.2.716A2.919,2.919,0,0,0,160.191,103.186Z" fill="#fff" opacity="0.3"/>
      <path id="Path_2861" data-name="Path 2861" d="M71.09,157.365c-.088-.016-.145-.1-.2-.163a7.416,7.416,0,0,0-1.17-.976,1.521,1.521,0,0,1-.662-1.3c.08-.525.568-.871,1.025-1.141a22.134,22.134,0,0,1,9.695-3l1.686,1.042c.232.145.5.36.441.629a.674.674,0,0,1-.347.376c-3.176,1.95-7.12,2.393-10.231,4.446A.336.336,0,0,1,71.09,157.365Z" fill="#fff"/>
    </g>
    <g id="Group_6889" data-name="Group 6889">
      <g id="Group_6886" data-name="Group 6886">
        <path id="Path_2862" data-name="Path 2862" d="M154.873,167.409a103.022,103.022,0,0,0,35.8,3.317,6.294,6.294,0,0,0,5.734-6.913,6.492,6.492,0,0,0-7.088-5.7c-39.306,3.713-76.695-24.755-77.07-25.043A6.5,6.5,0,0,0,103.2,134.1a6.285,6.285,0,0,0,1.143,8.9C105.559,143.943,126.641,159.989,154.873,167.409Z" fill="#eb9f8d"/>
        <path id="Path_2863" data-name="Path 2863" d="M190.67,170.726a103.022,103.022,0,0,1-35.8-3.317c-28.232-7.42-49.314-23.466-50.529-24.4a6.285,6.285,0,0,1-1.143-8.9,6.469,6.469,0,0,1,6.8-2.161c-1.494,1.509-1.053,4.129-.189,6.127,2.363,5.46,6.653,9.922,11.54,13.318a80.33,80.33,0,0,0,15.9,8.034,121.968,121.968,0,0,0,21.072,6.772,63.049,63.049,0,0,0,10.876,1.312,45.887,45.887,0,0,0,6.536-.177,7.687,7.687,0,0,0,4.567-1.878,3.709,3.709,0,0,0-.035-5.582,30.537,30.537,0,0,0-3.989-1.652,79.244,79.244,0,0,0,13.037-.106,6.492,6.492,0,0,1,7.088,5.7A6.3,6.3,0,0,1,190.67,170.726Z" fill="#ffbba9" opacity="0.49" style="mix-blend-mode: multiply;isolation: isolate"/>
        <path id="Path_2864" data-name="Path 2864" d="M120.227,141.353a11.925,11.925,0,0,0-3.508-3.147c-.83-.535-3.385-2.51-3.914-.64a2.379,2.379,0,0,0,.24,1.574c.918,2.09,3.871,5.771,6.576,4.322A1.357,1.357,0,0,0,120.227,141.353Z" fill="#f7eee5" opacity="0.58"/>
        <path id="Path_2865" data-name="Path 2865" d="M123.135,144.755a1.991,1.991,0,0,0-.219.582c-.528,2.27,4.428,5.028,6,5.954a26.364,26.364,0,0,0,9.851,3.422c.659.091,1.456.1,1.844-.442a1.281,1.281,0,0,0-.1-1.462c-.783-1.065-2.276-1.293-3.447-1.7-1.477-.507-2.946-1.042-4.378-1.667a27.257,27.257,0,0,1-5.228-2.937C126.676,145.936,124.066,143.2,123.135,144.755Z" fill="#f7eee5" opacity="0.58"/>
        <path id="Path_2866" data-name="Path 2866" d="M177.021,161.593c-1.222-2.313-10.079-3.091-11.571-3.376-16.633-3.156-32.909-9.613-46.555-19.625-1.387-1.018-4.915-4.985-6.639-2.774a3.068,3.068,0,0,0-.539,1.837c-.09,4.2,3.687,7.228,6.865,9.3,6.875,4.488,14.8,7.721,22.485,10.587q6.69,2.494,13.576,4.417a75.406,75.406,0,0,0,13.613,2.977C169.807,165.066,178.758,164.869,177.021,161.593Z" fill="#f7eee5" opacity="0.3"/>
      </g>
      <g id="Group_6887" data-name="Group 6887">
        <path id="Path_2867" data-name="Path 2867" d="M149.391,180.072a103.055,103.055,0,0,0,35.8,3.316,6.3,6.3,0,0,0,5.735-6.913,6.5,6.5,0,0,0-7.09-5.7c-39.307,3.717-76.695-24.753-77.07-25.042a6.5,6.5,0,0,0-9.045,1.037,6.285,6.285,0,0,0,1.144,8.9C100.078,156.6,121.158,172.65,149.391,180.072Z" fill="#eb9f8d"/>
        <path id="Path_2868" data-name="Path 2868" d="M185.189,183.388a103.055,103.055,0,0,1-35.8-3.316c-28.233-7.422-49.313-23.468-50.528-24.4a6.285,6.285,0,0,1-1.144-8.9,6.469,6.469,0,0,1,6.8-2.159c-1.493,1.507-1.051,4.127-.188,6.125,2.361,5.459,6.652,9.922,11.54,13.317a80.138,80.138,0,0,0,15.9,8.035,121.593,121.593,0,0,0,21.072,6.771,62.668,62.668,0,0,0,10.877,1.311,45.472,45.472,0,0,0,6.537-.176,7.692,7.692,0,0,0,4.568-1.878,3.709,3.709,0,0,0-.037-5.581,30.85,30.85,0,0,0-3.989-1.653,79.011,79.011,0,0,0,13.036-.107,6.5,6.5,0,0,1,7.09,5.7A6.3,6.3,0,0,1,185.189,183.388Z" fill="#ffbba9" opacity="0.49" style="mix-blend-mode: multiply;isolation: isolate"/>
        <path id="Path_2869" data-name="Path 2869" d="M114.746,154.014a11.973,11.973,0,0,0-3.508-3.146c-.831-.533-3.384-2.512-3.916-.639a2.39,2.39,0,0,0,.241,1.575c.919,2.087,3.871,5.768,6.576,4.321A1.359,1.359,0,0,0,114.746,154.014Z" fill="#f7eee5" opacity="0.58"/>
        <path id="Path_2870" data-name="Path 2870" d="M117.654,157.415a2.023,2.023,0,0,0-.22.585c-.528,2.268,4.429,5.027,6,5.952a26.408,26.408,0,0,0,9.848,3.425c.662.088,1.459.1,1.848-.443a1.283,1.283,0,0,0-.1-1.462c-.782-1.066-2.276-1.294-3.446-1.7-1.478-.506-2.947-1.043-4.379-1.669a26.992,26.992,0,0,1-5.228-2.937C121.195,158.6,118.586,155.863,117.654,157.415Z" fill="#f7eee5" opacity="0.58"/>
        <path id="Path_2871" data-name="Path 2871" d="M171.541,174.255c-1.223-2.312-10.08-3.093-11.572-3.374-16.633-3.157-32.91-9.613-46.555-19.625-1.387-1.02-4.916-4.987-6.639-2.777a3.091,3.091,0,0,0-.54,1.839c-.09,4.194,3.689,7.226,6.865,9.3,6.874,4.488,14.8,7.719,22.484,10.587q6.691,2.494,13.578,4.415a75.344,75.344,0,0,0,13.613,2.978C164.326,177.729,173.275,177.532,171.541,174.255Z" fill="#f7eee5" opacity="0.3"/>
      </g>
      <g id="Group_6888" data-name="Group 6888">
        <path id="Path_2872" data-name="Path 2872" d="M138.4,191.478a108.367,108.367,0,0,0,37.644,3.485,6.617,6.617,0,0,0,6.028-7.27,6.83,6.83,0,0,0-7.453-6c-41.337,3.907-80.652-26.031-81.048-26.334a6.841,6.841,0,0,0-9.511,1.089,6.611,6.611,0,0,0,1.2,9.363C86.544,166.8,108.713,183.672,138.4,191.478Z" fill="#ffbba9"/>
        <path id="Path_2873" data-name="Path 2873" d="M176.048,194.963a108.367,108.367,0,0,1-37.644-3.485c-29.691-7.806-51.86-24.679-53.136-25.664a6.611,6.611,0,0,1-1.2-9.363,6.8,6.8,0,0,1,7.152-2.269c-1.571,1.586-1.107,4.34-.2,6.44,2.484,5.743,6.994,10.436,12.134,14.006s10.916,6.1,16.717,8.447a128.1,128.1,0,0,0,22.16,7.122,66.121,66.121,0,0,0,11.438,1.38,47.965,47.965,0,0,0,6.873-.185,8.093,8.093,0,0,0,4.8-1.976,3.9,3.9,0,0,0-.036-5.87,32.384,32.384,0,0,0-4.195-1.736,82.887,82.887,0,0,0,13.709-.114,6.83,6.83,0,0,1,7.453,6A6.617,6.617,0,0,1,176.048,194.963Z" fill="#ffbba9" opacity="0.49" style="mix-blend-mode: multiply;isolation: isolate"/>
        <path id="Path_2874" data-name="Path 2874" d="M101.971,164.074a12.642,12.642,0,0,0-3.69-3.308c-.873-.561-3.558-2.642-4.117-.671a2.5,2.5,0,0,0,.254,1.654c.965,2.2,4.07,6.068,6.915,4.545A1.431,1.431,0,0,0,101.971,164.074Z" fill="#f7eee5" opacity="0.58"/>
        <path id="Path_2875" data-name="Path 2875" d="M105.029,167.651a2.191,2.191,0,0,0-.234.615c-.555,2.384,4.659,5.287,6.307,6.259a27.737,27.737,0,0,0,10.359,3.6c.693.094,1.532.1,1.942-.467a1.347,1.347,0,0,0-.11-1.537c-.822-1.119-2.393-1.359-3.623-1.783-1.553-.53-3.1-1.094-4.6-1.753a28.474,28.474,0,0,1-5.5-3.089C108.752,168.893,106.009,166.019,105.029,167.651Z" fill="#f7eee5" opacity="0.58"/>
        <path id="Path_2876" data-name="Path 2876" d="M161.7,185.36c-1.285-2.431-10.6-3.251-12.17-3.549-17.49-3.32-34.6-10.11-48.957-20.637-1.459-1.072-5.168-5.243-6.98-2.919a3.235,3.235,0,0,0-.567,1.934c-.1,4.411,3.877,7.6,7.219,9.78,7.229,4.717,15.565,8.116,23.645,11.133q7.035,2.62,14.275,4.642c4.664,1.3,9.479,2.718,14.319,3.131C154.109,189.014,163.52,188.807,161.7,185.36Z" fill="#f7eee5" opacity="0.3"/>
      </g>
    </g>
    <g id="Group_6890" data-name="Group 6890">
      <path id="Path_2877" data-name="Path 2877" d="M225.318,167.49c0-4.156-10.363-7.525-23.148-7.525s-23.147,3.369-23.147,7.525V174.5c0,4.157,10.364,7.525,23.147,7.525s23.148-3.368,23.148-7.525Z" fill="#a47466"/>
      <path id="Path_2878" data-name="Path 2878" d="M202.17,174.674c-12.606,0-22.84-3.278-23.119-7.354a1.673,1.673,0,0,0-.028.17V174.5c0,4.157,10.364,7.525,23.147,7.525s23.148-3.368,23.148-7.525V167.49c0-.057-.023-.113-.027-.17C225.01,171.4,214.777,174.674,202.17,174.674Z" fill="#a47466" opacity="0.63" style="mix-blend-mode: multiply;isolation: isolate"/>
      <path id="Path_2879" data-name="Path 2879" d="M213.162,167.565a19.316,19.316,0,0,1,7.67-2.078c.625-.017,1.363.07,1.666.614-6.243,1.444-11.563,5.589-17.728,7.339A31.33,31.33,0,0,1,213.162,167.565Z" fill="#a47466" opacity="0.63" style="mix-blend-mode: multiply;isolation: isolate"/>
      <path id="Path_2880" data-name="Path 2880" d="M195.845,172.5c2.784-3.988,7.385-6.23,11.786-8.306a25.261,25.261,0,0,1,3.217-1.345,7.52,7.52,0,0,1,4.5-.194c.193.061.423.2.386.4-6.043,1.969-11.578,5.213-17.028,8.476A4.827,4.827,0,0,1,195.845,172.5Z" fill="#a47466" opacity="0.63" style="mix-blend-mode: multiply;isolation: isolate"/>
      <path id="Path_2881" data-name="Path 2881" d="M196.492,164.19c.763-.5,1.457-1.087,2.217-1.586a10.911,10.911,0,0,1,4.539-1.682c.705-.094,1.633.03,1.8.721-4.767,1.728-8.97,4.712-12.933,7.876-1.094.871-2.318,1.809-3.713,1.721a10.963,10.963,0,0,1,4.084-4.838C193.771,165.575,195.217,165.021,196.492,164.19Z" fill="#a47466" opacity="0.63" style="mix-blend-mode: multiply;isolation: isolate"/>
      <path id="Path_2882" data-name="Path 2882" d="M193.777,162.143a26.788,26.788,0,0,0-6.595,3.334,9.772,9.772,0,0,0-2.461,1.938c-.19.231-.473.513-.74.372a.637.637,0,0,1-.249-.5,1.488,1.488,0,0,1,.131-1.129,1.539,1.539,0,0,1,.41-.328q1.806-1.117,3.61-2.234a13.413,13.413,0,0,1,2.8-1.444A4.5,4.5,0,0,1,193.777,162.143Z" fill="#a47466" opacity="0.63" style="mix-blend-mode: multiply;isolation: isolate"/>
      <path id="Path_2883" data-name="Path 2883" d="M225.318,174.533v-7.014c0-.056-.023-.112-.027-.169-.178,2.565-4.3,4.814-10.477,6.128a5.633,5.633,0,0,1-.852,4.392,7.787,7.787,0,0,1-4.4,2.481c-7.6,2.019-16.567.913-24.019-1.375a4.929,4.929,0,0,1-2.614-1.67,3.031,3.031,0,0,1-.175-.269,7.28,7.28,0,0,1-.568-5.117,2.562,2.562,0,0,1,.4-.753c-2.144-1.111-3.44-2.416-3.535-3.817a1.7,1.7,0,0,0-.028.169v7.014c0,4.157,10.364,7.526,23.147,7.526S225.318,178.69,225.318,174.533Z" fill="#a47466" opacity="0.63" style="mix-blend-mode: multiply;isolation: isolate"/>
      <path id="Path_2884" data-name="Path 2884" d="M188.708,176.688c-.358-1.858,3.376-1.437,4.328-1.358a77.211,77.211,0,0,0,7.872.6c2.059-.04,4.116-.174,6.176-.111.878.029,2.295.069,2.918.795,1.121,1.312-3.389,2.4-4.016,2.566a24.036,24.036,0,0,1-8.111.777,29.293,29.293,0,0,1-5.248-.911,7.943,7.943,0,0,1-3.469-1.673A1.345,1.345,0,0,1,188.708,176.688Z" fill="#edecea" opacity="0.13"/>
    </g>
    <g id="Group_6891" data-name="Group 6891">
      <path id="Path_2885" data-name="Path 2885" d="M225.318,157.228c0-4.156-10.363-7.526-23.148-7.526s-23.147,3.37-23.147,7.526v7.012c0,4.158,10.364,7.528,23.147,7.528s23.148-3.37,23.148-7.528Z" fill="#a47466"/>
      <path id="Path_2886" data-name="Path 2886" d="M202.17,164.412c-12.606,0-22.84-3.278-23.119-7.354a1.629,1.629,0,0,0-.028.17v7.012c0,4.158,10.364,7.528,23.147,7.528s23.148-3.37,23.148-7.528v-7.012c0-.058-.023-.113-.027-.17C225.01,161.134,214.777,164.412,202.17,164.412Z" fill="#a47466" opacity="0.63" style="mix-blend-mode: multiply;isolation: isolate"/>
      <path id="Path_2887" data-name="Path 2887" d="M213.162,157.3a19.316,19.316,0,0,1,7.67-2.078c.625-.019,1.363.07,1.666.613-6.243,1.445-11.563,5.589-17.728,7.339A31.327,31.327,0,0,1,213.162,157.3Z" fill="#a47466" opacity="0.63" style="mix-blend-mode: multiply;isolation: isolate"/>
      <path id="Path_2888" data-name="Path 2888" d="M195.845,162.234c2.784-3.989,7.385-6.231,11.786-8.307a25.863,25.863,0,0,1,3.217-1.346,7.512,7.512,0,0,1,4.5-.192c.193.061.423.2.386.4-6.043,1.969-11.578,5.214-17.028,8.478A4.839,4.839,0,0,1,195.845,162.234Z" fill="#a47466" opacity="0.63" style="mix-blend-mode: multiply;isolation: isolate"/>
      <path id="Path_2889" data-name="Path 2889" d="M196.492,153.928c.763-.5,1.457-1.088,2.217-1.586a10.9,10.9,0,0,1,4.539-1.682c.705-.094,1.633.03,1.8.72-4.767,1.728-8.97,4.714-12.933,7.877-1.094.871-2.318,1.809-3.713,1.721a10.96,10.96,0,0,1,4.084-4.837C193.771,155.314,195.217,154.76,196.492,153.928Z" fill="#a47466" opacity="0.63" style="mix-blend-mode: multiply;isolation: isolate"/>
      <path id="Path_2890" data-name="Path 2890" d="M193.777,151.881a26.785,26.785,0,0,0-6.595,3.333,9.813,9.813,0,0,0-2.461,1.937c-.19.234-.473.514-.74.373-.171-.088-.219-.308-.249-.5a1.487,1.487,0,0,1,.131-1.129,1.543,1.543,0,0,1,.41-.329l3.61-2.233a13.412,13.412,0,0,1,2.8-1.444A4.494,4.494,0,0,1,193.777,151.881Z" fill="#a47466" opacity="0.63" style="mix-blend-mode: multiply;isolation: isolate"/>
      <path id="Path_2891" data-name="Path 2891" d="M225.318,164.27v-7.013c0-.057-.023-.113-.027-.17-.178,2.565-4.3,4.813-10.477,6.13a5.629,5.629,0,0,1-.852,4.39,7.787,7.787,0,0,1-4.4,2.481c-7.6,2.019-16.567.913-24.019-1.375a4.923,4.923,0,0,1-2.614-1.67,3.011,3.011,0,0,1-.175-.268,7.28,7.28,0,0,1-.568-5.117,2.592,2.592,0,0,1,.4-.754c-2.144-1.111-3.44-2.415-3.535-3.817a1.673,1.673,0,0,0-.028.17v7.013c0,4.157,10.364,7.527,23.147,7.527S225.318,168.427,225.318,164.27Z" fill="#a47466" opacity="0.63" style="mix-blend-mode: multiply;isolation: isolate"/>
      <path id="Path_2892" data-name="Path 2892" d="M188.708,166.424c-.358-1.856,3.376-1.437,4.328-1.357a76.929,76.929,0,0,0,7.872.6c2.059-.04,4.116-.174,6.176-.111.878.029,2.295.069,2.918.795,1.121,1.311-3.389,2.4-4.016,2.567a24.06,24.06,0,0,1-8.111.775,29.2,29.2,0,0,1-5.248-.909,7.935,7.935,0,0,1-3.469-1.675A1.337,1.337,0,0,1,188.708,166.424Z" fill="#edecea" opacity="0.13"/>
    </g>
    <g id="Group_6892" data-name="Group 6892">
      <path id="Path_2893" data-name="Path 2893" d="M231.932,147.423c0-4.156-10.365-7.527-23.147-7.527s-23.148,3.371-23.148,7.527v7.013c0,4.156,10.363,7.525,23.148,7.525s23.147-3.369,23.147-7.525Z" fill="#a47466"/>
      <path id="Path_2894" data-name="Path 2894" d="M208.785,154.606c-12.607,0-22.84-3.276-23.123-7.354,0,.058-.025.113-.025.171v7.013c0,4.156,10.363,7.525,23.148,7.525s23.147-3.369,23.147-7.525v-7.013a1.692,1.692,0,0,0-.028-.171C231.623,151.33,221.391,154.606,208.785,154.606Z" fill="#a47466" opacity="0.63" style="mix-blend-mode: multiply;isolation: isolate"/>
      <path id="Path_2895" data-name="Path 2895" d="M219.777,147.5a19.31,19.31,0,0,1,7.67-2.077,1.76,1.76,0,0,1,1.666.614c-6.244,1.444-11.562,5.587-17.728,7.337A31.325,31.325,0,0,1,219.777,147.5Z" fill="#a47466" opacity="0.63" style="mix-blend-mode: multiply;isolation: isolate"/>
      <path id="Path_2896" data-name="Path 2896" d="M202.458,152.429c2.784-3.99,7.386-6.234,11.784-8.308a26.093,26.093,0,0,1,3.217-1.346,7.528,7.528,0,0,1,4.5-.194c.193.063.424.2.389.4-6.045,1.968-11.579,5.213-17.031,8.479A4.85,4.85,0,0,1,202.458,152.429Z" fill="#a47466" opacity="0.63" style="mix-blend-mode: multiply;isolation: isolate"/>
      <path id="Path_2897" data-name="Path 2897" d="M203.1,144.121c.762-.5,1.458-1.088,2.219-1.587a10.905,10.905,0,0,1,4.537-1.681c.706-.093,1.633.031,1.805.719-4.768,1.73-8.969,4.715-12.934,7.878-1.091.872-2.318,1.81-3.712,1.721a10.953,10.953,0,0,1,4.085-4.836C200.385,145.507,201.828,144.955,203.1,144.121Z" fill="#a47466" opacity="0.63" style="mix-blend-mode: multiply;isolation: isolate"/>
      <path id="Path_2898" data-name="Path 2898" d="M200.391,142.074a26.918,26.918,0,0,0-6.6,3.334,9.789,9.789,0,0,0-2.459,1.938c-.191.232-.475.512-.74.373a.635.635,0,0,1-.248-.5,1.466,1.466,0,0,1,.131-1.128,1.415,1.415,0,0,1,.408-.329q1.8-1.116,3.609-2.234a13.337,13.337,0,0,1,2.8-1.443A4.5,4.5,0,0,1,200.391,142.074Z" fill="#a47466" opacity="0.63" style="mix-blend-mode: multiply;isolation: isolate"/>
      <path id="Path_2899" data-name="Path 2899" d="M231.932,154.463v-7.012c0-.057-.022-.114-.028-.172-.177,2.567-4.3,4.816-10.478,6.129a5.637,5.637,0,0,1-.85,4.395,7.786,7.786,0,0,1-4.392,2.479c-7.609,2.021-16.571.912-24.023-1.375a4.925,4.925,0,0,1-2.614-1.671c-.061-.085-.119-.172-.175-.268a7.275,7.275,0,0,1-.567-5.115,2.587,2.587,0,0,1,.4-.755c-2.144-1.113-3.439-2.415-3.539-3.819,0,.058-.025.115-.025.172v7.012c0,4.157,10.363,7.527,23.148,7.527S231.932,158.62,231.932,154.463Z" fill="#a47466" opacity="0.63" style="mix-blend-mode: multiply;isolation: isolate"/>
      <path id="Path_2900" data-name="Path 2900" d="M195.322,156.617c-.359-1.855,3.377-1.434,4.328-1.357a77.171,77.171,0,0,0,7.871.6c2.059-.039,4.117-.173,6.176-.111.879.027,2.295.067,2.917.794,1.124,1.311-3.387,2.4-4.015,2.567a24.022,24.022,0,0,1-8.109.777,29.134,29.134,0,0,1-5.251-.912,7.977,7.977,0,0,1-3.469-1.671A1.358,1.358,0,0,1,195.322,156.617Z" fill="#edecea" opacity="0.13"/>
    </g>
  </g>
</svg>
