<svg id="Component_14_1" data-name="Component 14 – 1" xmlns="http://www.w3.org/2000/svg" xmlns:xlink="http://www.w3.org/1999/xlink" width="243.83" height="206.587" viewBox="0 0 243.83 206.587">
  <defs>
    <clipPath id="clip-path">
      <path id="Path_1514" data-name="Path 1514" d="M832.353,223.139c0,6.476,50.42,19.129,112.619,19.129s112.619-12.653,112.619-19.129Z" fill="#f7f7f7"/>
    </clipPath>
    <clipPath id="clip-path-2">
      <rect id="Rectangle_3104" data-name="Rectangle 3104" width="5.731" height="2.69" transform="translate(1057.27 160.409)" fill="none"/>
    </clipPath>
  </defs>
  <g id="Group_4711" data-name="Group 4711" transform="translate(-832.353 -35.681)">
    <g id="Group_4710" data-name="Group 4710">
      <path id="Path_1511" data-name="Path 1511" d="M1043.059,132.024a176.723,176.723,0,0,0,.848-37.706c-1.062-13.86-5.024-27.888-12.678-39.632-5.7-8.739-14.223-16.067-24.415-18.285-23.992-5.219-29.183,19.275-44.777,30.525-14.33,10.336-33.045,5.668-49.391,6.357-11.171.472-25.142,2.706-30,14.136-4.754,11.195-.821,24.31-3.848,35.945-1.027,3.944-3.113,7.511-4.815,11.214-12.816,27.912-15.963,75.938,12.932,84.939,19.945,6.212,29.154,2,58.41,4.792,7.09.677,42.375-8.421,48.214-12.507,15.339-10.735,28.928-25.187,37.821-42.078A114.2,114.2,0,0,0,1043.059,132.024Z" fill="#f7f7f7"/>
    </g>
  </g>
  <g id="Group_4715" data-name="Group 4715" transform="translate(-832.353 -35.681)">
    <g id="Group_4714" data-name="Group 4714">
      <path id="Path_1512" data-name="Path 1512" d="M832.353,223.139c0,6.476,50.42,19.129,112.619,19.129s112.619-12.653,112.619-19.129Z" fill="#f7f7f7"/>
      <g id="Group_4713" data-name="Group 4713" clip-path="url(#clip-path)">
        <g id="Group_4712" data-name="Group 4712">
          <path id="Path_1513" data-name="Path 1513" d="M832.353,232.6l225.238.1v9.573H832.353Z" fill="#f7f7f7"/>
        </g>
      </g>
    </g>
  </g>
  <g id="Group_4748" data-name="Group 4748" transform="translate(-832.353 -35.681)">
    <g id="Group_4717" data-name="Group 4717">
      <g id="Group_4716" data-name="Group 4716">
        <path id="Path_1515" data-name="Path 1515" d="M1054.561,157.174c.3-.123.619-.352.6-.672-.016-.357-.435-.544-.794-.615a5.989,5.989,0,0,0-5.394,1.745l-.024.116a8.359,8.359,0,0,0-4.838-2.715c-.414-.072-.92-.076-1.155.265a.776.776,0,0,0,.022.838,1.967,1.967,0,0,0,.658.589,8.4,8.4,0,0,0,5.373,1.21l-.033-.16v0C1050.8,157.322,1052.825,157.9,1054.561,157.174Z" fill="#d8e081"/>
      </g>
    </g>
    <g id="Group_4719" data-name="Group 4719">
      <g id="Group_4718" data-name="Group 4718">
        <path id="Path_1516" data-name="Path 1516" d="M1055.032,162.795a.987.987,0,0,0,.569-.339.733.733,0,0,0-.129-.866,1.72,1.72,0,0,0-.826-.431,5.748,5.748,0,0,0-5.535,1.505l-.085.189a9.076,9.076,0,0,0-4.69-3.906c-.413-.153-.949-.239-1.225.1a.737.737,0,0,0-.063.747,1.875,1.875,0,0,0,.483.613,9.627,9.627,0,0,0,5.526,2.522l-.008-.028c1.406.013,2.813.03,4.216.042A6.5,6.5,0,0,0,1055.032,162.795Z" fill="#d8e081"/>
      </g>
    </g>
    <g id="Group_4721" data-name="Group 4721">
      <g id="Group_4720" data-name="Group 4720">
        <path id="Path_1517" data-name="Path 1517" d="M1048.454,172.761a13.61,13.61,0,0,0,5.871,1.366c.382,0,.849-.061,1.006-.408.173-.38-.153-.795-.493-1.037a4.971,4.971,0,0,0-3.232-.762,14.945,14.945,0,0,0-3.3.753Z" fill="#d8e081"/>
      </g>
    </g>
    <g id="Group_4723" data-name="Group 4723">
      <g id="Group_4722" data-name="Group 4722">
        <path id="Path_1518" data-name="Path 1518" d="M1053.3,147.1c-.047-.435-.552-.652-.986-.7a4.2,4.2,0,0,0-2.732.765,7.162,7.162,0,0,0-1.949,2.1l0,.009a7.464,7.464,0,0,0-3.112-1.847,1.747,1.747,0,0,0-.988.02.827.827,0,0,0-.559.748,1.1,1.1,0,0,0,.647.829,7.231,7.231,0,0,0,3.856.575l.231-.126a16.556,16.556,0,0,0,4.768-1.413C1052.889,147.862,1053.351,147.544,1053.3,147.1Z" fill="#d8e081"/>
      </g>
    </g>
    <g id="Group_4725" data-name="Group 4725">
      <g id="Group_4724" data-name="Group 4724">
        <path id="Path_1519" data-name="Path 1519" d="M1051.931,143.314a.861.861,0,0,0-.451-.652,1.631,1.631,0,0,0-.793-.191,4.065,4.065,0,0,0-2.329.76,9.694,9.694,0,0,0-1.8,1.7l.22-.005a24.531,24.531,0,0,0,3.89-.5,2.4,2.4,0,0,0,.852-.337A.917.917,0,0,0,1051.931,143.314Z" fill="#d8e081"/>
      </g>
    </g>
    <g id="Group_4727" data-name="Group 4727">
      <g id="Group_4726" data-name="Group 4726">
        <path id="Path_1520" data-name="Path 1520" d="M1054.315,168.264a2.47,2.47,0,0,0,1.257-.139.839.839,0,0,0,.461-1.051,1.142,1.142,0,0,0-.76-.48,7.03,7.03,0,0,0-6.175,1.335Z" fill="#d8e081"/>
      </g>
    </g>
    <g id="Group_4729" data-name="Group 4729">
      <g id="Group_4728" data-name="Group 4728">
        <path id="Path_1521" data-name="Path 1521" d="M1046.647,144.966l-.143.027a7.02,7.02,0,0,0-4.319-1.983,1.784,1.784,0,0,0-.8.068.741.741,0,0,0-.5.578c-.042.427.39.741.784.918A7.417,7.417,0,0,0,1046.647,144.966Z" fill="#d8e081"/>
      </g>
    </g>
    <g id="Group_4731" data-name="Group 4731">
      <g id="Group_4730" data-name="Group 4730">
        <path id="Path_1522" data-name="Path 1522" d="M1044.379,139.1a8.8,8.8,0,0,0-3.687-6.246,2.084,2.084,0,0,0-.713-.355.844.844,0,0,0-.752.159c-.359.329-.234.915-.03,1.355,1.01,2.185,3.123,3.629,5.141,4.964Z" fill="#d8e081"/>
      </g>
    </g>
    <g id="Group_4733" data-name="Group 4733">
      <g id="Group_4732" data-name="Group 4732">
        <path id="Path_1523" data-name="Path 1523" d="M1048.483,154.092a.4.4,0,0,1,.035-.044l-.041.007.015-.013a6.238,6.238,0,0,0-4.656-3.016c-.441-.028-.981.065-1.152.475-.188.444.2.917.582,1.212a7.039,7.039,0,0,0,5.141,1.391l.035-.026Z" fill="#d8e081"/>
      </g>
    </g>
    <g id="Group_4735" data-name="Group 4735">
      <g id="Group_4734" data-name="Group 4734">
        <path id="Path_1524" data-name="Path 1524" d="M1045.274,141.789l.155-.1a12.4,12.4,0,0,0-2.26-1.583,5.606,5.606,0,0,0-2.657-.667,1.734,1.734,0,0,0-.815.177.812.812,0,0,0-.451.66c-.015.469.465.785.9.969A8.894,8.894,0,0,0,1045.274,141.789Z" fill="#d8e081"/>
      </g>
    </g>
    <g id="Group_4737" data-name="Group 4737">
      <g id="Group_4736" data-name="Group 4736">
        <path id="Path_1525" data-name="Path 1525" d="M1054.067,151.653a.927.927,0,0,0-.7-.41,3.9,3.9,0,0,0-2.834.7,8.37,8.37,0,0,0-2.015,2.108,24.728,24.728,0,0,0,4.633-1.146,2,2,0,0,0,.752-.443A.737.737,0,0,0,1054.067,151.653Z" fill="#d8e081"/>
      </g>
    </g>
    <g id="Group_4739" data-name="Group 4739">
      <g id="Group_4738" data-name="Group 4738">
        <path id="Path_1526" data-name="Path 1526" d="M1049.057,167.96a.029.029,0,1,0-.014-.036l-.016-.036a9.672,9.672,0,0,0-3.8-5.225,1.243,1.243,0,0,0-1.119-.281,1,1,0,0,0-.438,1.145,3.73,3.73,0,0,0,1.439,1.963,20.965,20.965,0,0,0,3.838,2.53v0l-.028.058c.019-.017.037-.03.056-.048a1.643,1.643,0,0,0,.154.084Z" fill="#d8e081"/>
      </g>
    </g>
    <g id="Group_4741" data-name="Group 4741">
      <g id="Group_4740" data-name="Group 4740">
        <path id="Path_1527" data-name="Path 1527" d="M1048.305,172.645c-.039-.022-.077-.04-.116-.065.018.1.038.193.054.289Z" fill="#d8e081"/>
      </g>
    </g>
    <g id="Group_4743" data-name="Group 4743">
      <g id="Group_4742" data-name="Group 4742">
        <path id="Path_1528" data-name="Path 1528" d="M1043.828,166.214a2,2,0,0,0-.819-.239.888.888,0,0,0-.756.335,1.048,1.048,0,0,0-.1.836,4.12,4.12,0,0,0,1.209,1.869,19.449,19.449,0,0,0,4.829,3.565,10.845,10.845,0,0,0-1.356-3.583A7.27,7.27,0,0,0,1043.828,166.214Z" fill="#d8e081"/>
      </g>
    </g>
    <g id="Group_4745" data-name="Group 4745">
      <g id="Group_4744" data-name="Group 4744">
        <path id="Path_1529" data-name="Path 1529" d="M1040.662,172.2a.892.892,0,0,0-.1.688,2.107,2.107,0,0,0,.3.643,10.552,10.552,0,0,0,2.832,2.89,28.182,28.182,0,0,0,3.4,2.014l-.141.09a15.1,15.1,0,0,0,5.513.689,2.112,2.112,0,0,0,.9-.2.756.756,0,0,0,.41-.759c-.062-.315-.38-.512-.673-.642a5.882,5.882,0,0,0-5.908.757l0-.027a8.861,8.861,0,0,0-3.524-5.664,3.9,3.9,0,0,0-2.029-.838A1.087,1.087,0,0,0,1040.662,172.2Z" fill="#d8e081"/>
      </g>
    </g>
    <g id="Group_4747" data-name="Group 4747">
      <g id="Group_4746" data-name="Group 4746">
        <path id="Path_1530" data-name="Path 1530" d="M1045.659,180.9a53.049,53.049,0,0,0-2.426-41.572c-.4-.8.914-1.279,1.307-.487a54.4,54.4,0,0,1,2.38,42.648C1046.618,182.326,1045.358,181.732,1045.659,180.9Z" fill="#d8e081"/>
      </g>
    </g>
  </g>
  <g id="Group_4754" data-name="Group 4754" transform="translate(-832.353 -35.681)">
    <g id="Group_4751" data-name="Group 4751" opacity="0.4">
      <g id="Group_4750" data-name="Group 4750">
        <g id="Group_4749" data-name="Group 4749">
          <path id="Path_1531" data-name="Path 1531" d="M1050.029,167.129a3.715,3.715,0,0,0,.26,2.932q1.853,4.84,4.1,9.513l-.174.137,8.977-.018a4.784,4.784,0,0,0,1.874-.249,1.47,1.47,0,0,0,.346-2.689,3.292,3.292,0,0,0-.822-.461l-3.958-1.585c-.445-.18-.971-.465-.85-1a.816.816,0,0,1,.518-.565,10.431,10.431,0,0,1,6.137-.372,4.8,4.8,0,0,0,1.755.256c.8-.113,1.6-.926.878-1.808a1.818,1.818,0,0,0-.572-.448,19.658,19.658,0,0,0-4.4-1.643c-.793-.191-1.825-.619-1.582-1.48a1.061,1.061,0,0,1,.8-.734,14.14,14.14,0,0,1,5.492-.129,3.643,3.643,0,0,0,1.365.088c.619-.128,1.212-.754.713-1.471a1.45,1.45,0,0,0-.791-.537l-4.282-1.246c-.5-.148-1.1-.39-1.068-1a.955.955,0,0,1,.766-.853,16.574,16.574,0,0,1,6.019-.163,2.57,2.57,0,0,0,1.877-.142.9.9,0,0,0,.425-.864c-.077-.5-.56-.684-.989-.82l-4.568-1.447a.318.318,0,0,1-.014-.6,12.366,12.366,0,0,1,5.623-.618,3.811,3.811,0,0,0,1.423.026c.647-.17,1.237-.884.592-1.6a1.5,1.5,0,0,0-.631-.4,25.649,25.649,0,0,0-4.31-1.126q1.531-1.476,3.062-2.956c.749-.72,1.564-1.62,1.233-2.686a1.843,1.843,0,0,0-1.654-1.225,3.433,3.433,0,0,0-2.971,1.769,3.532,3.532,0,0,1-1.338,1.468,1.048,1.048,0,0,1-.991-.045c-.5-.331-.443-.956-.456-1.5-.012-.478-.2-1.056-.665-1.139a.873.873,0,0,0-.7.236,2.84,2.84,0,0,0-.633,2.61c.158,1.133.5,2.33-.242,3.351a1.306,1.306,0,0,1-1.743.406c-.588-.379-.582-1.124-.717-1.763s-.673-1.35-1.328-1.013a.994.994,0,0,0-.417.48c-.628,1.417-.211,3,.046,4.5a6.65,6.65,0,0,1-.031,2.872.711.711,0,0,1-1.3.136l-1.6-2.874c-.179-.321-.4-.671-.829-.642a.735.735,0,0,0-.561.359,1.906,1.906,0,0,0-.043,1.507q.7,2.841,1.412,5.679c.162.657.3,1.443-.281,1.891a1.233,1.233,0,0,1-1.532-.09c-.928-.761-.941-1.961-1.429-2.942-.294-.591-1.03-1.155-1.571-.594a.954.954,0,0,0-.2.93,31.966,31.966,0,0,0,2.147,5.381,2.959,2.959,0,0,1,.495,2.188,1.035,1.035,0,0,1-1.121.775c-.517-.086-.8-.606-1.011-1.069q-.508-1.087-1.013-2.178c-.346-.742-.816-1.586-1.7-1.572A1.43,1.43,0,0,0,1050.029,167.129Z" fill="#00abc4"/>
        </g>
      </g>
    </g>
    <g id="Group_4753" data-name="Group 4753">
      <g id="Group_4752" data-name="Group 4752">
        <path id="Path_1532" data-name="Path 1532" d="M1054.929,179.08a55.291,55.291,0,0,1,18.766-31.658c.34-.283.834.2.492.489a54.687,54.687,0,0,0-18.589,31.351C1055.51,179.7,1054.843,179.516,1054.929,179.08Z" fill="#00aeb4"/>
      </g>
    </g>
  </g>
  <g id="Group_4825" data-name="Group 4825" transform="translate(-832.353 -35.681)">
    <g id="Group_4756" data-name="Group 4756">
      <g id="Group_4755" data-name="Group 4755">
        <path id="Path_1533" data-name="Path 1533" d="M843.252,195.292a26.646,26.646,0,0,1,8.591-4.846c12.329-4.13,27.2,1.6,33.575,12.931,2.527,4.491,5.018,10.524,10.172,10.547,5.063.02,5.861-4.807,9.01-7.4,2.56-2.11,5.823-2.046,8.853-1.34,5.313,1.237,10.4,4.3,15.914,4.552,6.54.3,10.952-4.216,16.591-6.686a23.987,23.987,0,0,1,33.265,17.913,3,3,0,0,1-.464,2.687,3.165,3.165,0,0,1-2.265.591q-69.777-.006-139.555.009a4.4,4.4,0,0,1-3.181-.842,4.065,4.065,0,0,1-.93-2.415C831.535,211.4,835.869,201.455,843.252,195.292Z" fill="#e0ecb6"/>
      </g>
    </g>
    <g id="Group_4769" data-name="Group 4769">
      <g id="Group_4759" data-name="Group 4759">
        <g id="Group_4758" data-name="Group 4758">
          <g id="Group_4757" data-name="Group 4757">
            <path id="Path_1534" data-name="Path 1534" d="M849.275,197.17c3.309,2.2,5.821,5.708,7.71,9.135a37.22,37.22,0,0,1,4.548,17.609.625.625,0,0,0,1.25,0,38.576,38.576,0,0,0-4.718-18.24c-2-3.621-4.668-7.268-8.159-9.583-.672-.446-1.3.636-.631,1.079Z" fill="#a2d45e"/>
          </g>
        </g>
      </g>
      <g id="Group_4762" data-name="Group 4762">
        <g id="Group_4761" data-name="Group 4761">
          <g id="Group_4760" data-name="Group 4760">
            <path id="Path_1535" data-name="Path 1535" d="M855.979,197.094c-.043-.3,0,0,0,.1.011.148.017.3.02.446q0,.291-.012.582c-.005.109-.012.218-.023.326-.005.053-.012.1-.017.157-.009.07-.008.061,0-.029,0,.03-.008.061-.013.092a5.746,5.746,0,0,1-.149.695c-.031.107-.066.213-.105.317-.012.032-.1.222-.027.072-.026.056-.053.114-.081.17a2.869,2.869,0,0,1-.166.283c-.018.028-.144.188-.039.061-.039.048-.078.1-.121.14s-.064.066-.1.1-.184.15-.051.052a2.245,2.245,0,0,1-.325.2.625.625,0,0,0,.631,1.079c1.557-.785,1.884-2.826,1.84-4.4a6.413,6.413,0,0,0-.065-.771.629.629,0,0,0-.769-.437.642.642,0,0,0-.437.769Z" fill="#a2d45e"/>
          </g>
        </g>
      </g>
      <g id="Group_4765" data-name="Group 4765">
        <g id="Group_4764" data-name="Group 4764">
          <g id="Group_4763" data-name="Group 4763">
            <path id="Path_1536" data-name="Path 1536" d="M851.32,205.682a7.483,7.483,0,0,0,2.094.881,3.69,3.69,0,0,0,3.343-.5.628.628,0,0,0,0-.883.639.639,0,0,0-.884,0c.092-.074-.039.025-.058.039-.057.036-.114.069-.172.1-.018.009-.167.076-.1.05s-.091.029-.108.035a2.694,2.694,0,0,1-.353.082c.112-.019-.014,0-.058,0s-.113.008-.169.01c-.114,0-.229,0-.342-.008l-.172-.014c-.185-.017.121.024-.062-.009a6.911,6.911,0,0,1-.692-.156q-.322-.095-.633-.216l-.138-.056c-.123-.05.1.048-.027-.012-.079-.037-.159-.071-.238-.109a5.416,5.416,0,0,1-.6-.318.625.625,0,0,0-.631,1.08Z" fill="#a2d45e"/>
          </g>
        </g>
      </g>
      <g id="Group_4768" data-name="Group 4768">
        <g id="Group_4767" data-name="Group 4767">
          <g id="Group_4766" data-name="Group 4766">
            <path id="Path_1537" data-name="Path 1537" d="M854.185,213c2.5.958,5.317,1.056,7.405-.827a9.558,9.558,0,0,0,2.647-4.979,7.719,7.719,0,0,0,.259-1.639.625.625,0,0,0-1.25,0,3.379,3.379,0,0,1-.034.376c.027-.235-.019.117-.031.188-.025.148-.052.3-.083.443a11.914,11.914,0,0,1-.667,2.193,5.724,5.724,0,0,1-3.628,3.551,7.164,7.164,0,0,1-4.285-.511c-.752-.288-1.078.92-.333,1.205Z" fill="#a2d45e"/>
          </g>
        </g>
      </g>
    </g>
    <g id="Group_4772" data-name="Group 4772">
      <g id="Group_4771" data-name="Group 4771">
        <g id="Group_4770" data-name="Group 4770">
          <path id="Path_1538" data-name="Path 1538" d="M937.451,224.449c2.787-3.795,7.828-5.34,12.309-5.84a30.165,30.165,0,0,1,14.6,1.821,14.159,14.159,0,0,1,5.879,4.146c.5.631,1.378-.26.884-.885-3-3.8-8.19-5.47-12.8-6.152a29.806,29.806,0,0,0-15.734,1.6,14.524,14.524,0,0,0-6.212,4.683c-.475.649.608,1.274,1.08.631Z" fill="#a2d45e"/>
        </g>
      </g>
    </g>
    <g id="Group_4775" data-name="Group 4775">
      <g id="Group_4774" data-name="Group 4774">
        <g id="Group_4773" data-name="Group 4773">
          <path id="Path_1539" data-name="Path 1539" d="M939.572,215.377a5.459,5.459,0,0,0,.733.048c.178.009.358.021.536.04l.134.014c.172.019-.077-.014.033,0s.223.036.334.056a6.74,6.74,0,0,1,.713.175c.115.035.23.074.343.116l.161.064c-.136-.056.061.029.1.048a3.244,3.244,0,0,1,1.237.92l.073.086c.114.137-.037-.054.024.031s.1.141.148.215a4.143,4.143,0,0,1,.26.481c.006.012.047.108.014.026.017.04.031.081.047.122.035.094.066.19.1.285a5.672,5.672,0,0,1,.15.666.631.631,0,0,0,.77.437.639.639,0,0,0,.435-.769,4.783,4.783,0,0,0-2.285-3.4,7.111,7.111,0,0,0-3.072-.85c-.175-.011-.35-.019-.526-.025-.1,0-.434-.051-.126.008a.639.639,0,0,0-.768.435.631.631,0,0,0,.435.77Z" fill="#a2d45e"/>
        </g>
      </g>
    </g>
    <g id="Group_4778" data-name="Group 4778">
      <g id="Group_4777" data-name="Group 4777">
        <g id="Group_4776" data-name="Group 4776">
          <path id="Path_1540" data-name="Path 1540" d="M942.611,211.852c.065.134.163.257.24.386s.133.237.192.36c.018.034.033.068.049.1.059.13,0,0,0,0s.082.209.089.233c.028.081.051.164.073.248a.754.754,0,0,1,.053.261c0-.025-.006-.05-.01-.077,0,.031.007.061.01.091,0,.046.007.092.008.138,0,.093,0,.185-.007.279-.007.132.028-.118,0,.023-.011.048-.019.1-.032.143a1.226,1.226,0,0,1-.033.119c-.005.017-.057.171-.029.093s-.036.074-.045.092a1.517,1.517,0,0,1-.08.142c-.028.048-.061.094-.093.141s-.021.031.009-.01c-.024.031-.051.063-.078.092a.626.626,0,0,0,.885.885,2.873,2.873,0,0,0,.715-1.459,3.3,3.3,0,0,0-.1-1.411,5.013,5.013,0,0,0-.446-1.034c-.089-.157-.209-.3-.285-.467a.629.629,0,0,0-.856-.224.643.643,0,0,0-.225.855Z" fill="#a2d45e"/>
        </g>
      </g>
    </g>
    <g id="Group_4781" data-name="Group 4781">
      <g id="Group_4780" data-name="Group 4780">
        <g id="Group_4779" data-name="Group 4779">
          <path id="Path_1541" data-name="Path 1541" d="M943.668,216.238c-.162.108-.305.251-.456.373a.476.476,0,0,0-.07.056c.111-.127.073-.056.025-.021s-.122.089-.186.131a4.181,4.181,0,0,1-.416.252.725.725,0,0,1-.227.108c.084-.034.094-.039.03-.014l-.04.016c-.041.015-.081.03-.123.044-.091.029-.184.055-.276.075-.044.01-.09.013-.132.025s-.03.006.054-.007c-.031,0-.06.007-.091.009a2.133,2.133,0,0,1-.277,0l-.141-.012c.079.012.1.013.047.005l-.072-.013c-.1-.021-.193-.053-.289-.083q-.1-.039,0,0a.8.8,0,0,1-.073-.035c-.059-.028-.115-.059-.171-.091a.625.625,0,0,0-.632,1.079,3.048,3.048,0,0,0,2.891.04,5.023,5.023,0,0,0,.955-.613c.091-.07.181-.143.268-.217l.094-.082c.1-.089-.111.078-.063.046a.625.625,0,0,0-.632-1.078Z" fill="#a2d45e"/>
        </g>
      </g>
    </g>
    <g id="Group_4794" data-name="Group 4794">
      <g id="Group_4784" data-name="Group 4784">
        <g id="Group_4783" data-name="Group 4783">
          <g id="Group_4782" data-name="Group 4782">
            <path id="Path_1542" data-name="Path 1542" d="M878.893,206.268a17.471,17.471,0,0,1-2.332,7.772,25.415,25.415,0,0,1-8.371,9.175c-.667.444-.042,1.527.63,1.08a26.737,26.737,0,0,0,8.82-9.625,18.82,18.82,0,0,0,2.5-8.4.625.625,0,0,0-1.25,0Z" fill="#a2d45e"/>
          </g>
        </g>
      </g>
      <g id="Group_4787" data-name="Group 4787">
        <g id="Group_4786" data-name="Group 4786">
          <g id="Group_4785" data-name="Group 4785">
            <path id="Path_1543" data-name="Path 1543" d="M881.528,209.968l-.054.046c-.116.1.083-.061.035-.027-.081.059-.161.118-.244.175a5.488,5.488,0,0,1-.743.422.779.779,0,0,0-.1.046c.133-.09.06-.026.01-.006-.078.03-.157.059-.237.083s-.159.047-.24.064c-.037.009-.075.017-.113.024-.115.019-.047-.015.015,0a1.352,1.352,0,0,0-.244.014l-.13-.006c-.12,0,.144.03.019,0-.074-.016-.146-.031-.218-.054-.125-.042-.011-.03.009.008-.012-.024-.111-.058-.137-.072a.625.625,0,0,0-.631,1.08,2.772,2.772,0,0,0,2.528-.059,5.316,5.316,0,0,0,1.361-.857.629.629,0,0,0,0-.884.64.64,0,0,0-.884,0Z" fill="#a2d45e"/>
          </g>
        </g>
      </g>
      <g id="Group_4790" data-name="Group 4790">
        <g id="Group_4789" data-name="Group 4789">
          <g id="Group_4788" data-name="Group 4788">
            <path id="Path_1544" data-name="Path 1544" d="M874.753,210.642a5.4,5.4,0,0,0,.157,1.151,3.926,3.926,0,0,0,.805,1.693,2.166,2.166,0,0,0,.977.636.628.628,0,0,0,.768-.436.64.64,0,0,0-.437-.769.88.88,0,0,0-.086-.03c.055.009.13.06.04.015a1.367,1.367,0,0,1-.179-.1c-.082-.057-.009-.014.032.027-.02-.019-.046-.037-.067-.056a1.727,1.727,0,0,1-.136-.135l-.057-.067c-.075-.088.045.066.025.033-.034-.055-.074-.107-.109-.162a3.562,3.562,0,0,1-.18-.347c-.044-.1.052.135.015.037l-.032-.084c-.022-.061-.044-.121-.064-.183-.037-.119-.071-.239-.1-.36s-.048-.216-.067-.325c-.009-.051-.017-.1-.025-.154-.005-.03-.017-.123,0,.006s0,.03,0,0a3.588,3.588,0,0,1-.03-.386.625.625,0,0,0-1.25,0Z" fill="#a2d45e"/>
          </g>
        </g>
      </g>
      <g id="Group_4793" data-name="Group 4793">
        <g id="Group_4792" data-name="Group 4792">
          <g id="Group_4791" data-name="Group 4791">
            <path id="Path_1545" data-name="Path 1545" d="M871.611,215.1a5.009,5.009,0,0,0,3.365,4.1,6.749,6.749,0,0,0,3.987-.33,5.586,5.586,0,0,0,1.085-.479c.677-.431.05-1.514-.631-1.08a2.167,2.167,0,0,1-.228.121c-.065.031-.13.059-.2.089-.131.061,0,0-.009.005l-.159.065a8.353,8.353,0,0,1-1.479.431,3.773,3.773,0,0,1-3.255-.681,4.775,4.775,0,0,1-1.274-2.576c-.171-.787-1.375-.454-1.206.333Z" fill="#a2d45e"/>
          </g>
        </g>
      </g>
    </g>
    <g id="Group_4804" data-name="Group 4804">
      <g id="Group_4797" data-name="Group 4797">
        <g id="Group_4796" data-name="Group 4796">
          <g id="Group_4795" data-name="Group 4795">
            <path id="Path_1546" data-name="Path 1546" d="M921.639,211.707c-5.439.373-7.958,5.87-8.876,10.578q-.106.547-.189,1.1c-.022.155-.043.311-.064.467-.03.222.025-.13,0,.014-.149.786,1.057,1.124,1.205.333.016-.084.023-.168.035-.252a.814.814,0,0,1,.012-.09c.039-.269.08-.538.127-.8a23.364,23.364,0,0,1,.617-2.625,12.464,12.464,0,0,1,3.373-5.9,6.32,6.32,0,0,1,3.762-1.568c.8-.055.8-1.305,0-1.25Z" fill="#a2d45e"/>
          </g>
        </g>
      </g>
      <g id="Group_4800" data-name="Group 4800">
        <g id="Group_4799" data-name="Group 4799">
          <g id="Group_4798" data-name="Group 4798">
            <path id="Path_1547" data-name="Path 1547" d="M914.817,209.9a3.434,3.434,0,0,0-.771,3.478,4.893,4.893,0,0,0,.633,1.476,1.75,1.75,0,0,0,1.009.851.642.642,0,0,0,.768-.436.63.63,0,0,0-.436-.769.269.269,0,0,1-.084-.023l.106.044A.377.377,0,0,1,916,214.5l-.046-.03.081.063c-.027-.005-.073-.064-.092-.083-.051-.05-.094-.1-.141-.157.119.137.017.02-.007-.016s-.056-.081-.081-.123a4.052,4.052,0,0,1-.28-.539c.061.141-.011-.034-.022-.062-.021-.058-.042-.115-.061-.172-.036-.109-.07-.221-.1-.332s-.054-.229-.075-.345c-.008-.048-.024-.163-.01-.05q-.014-.108-.021-.216a3.239,3.239,0,0,1-.008-.327c0-.072,0-.144.01-.215,0-.034.029-.192,0-.046a3.122,3.122,0,0,1,.083-.362c.016-.05.035-.1.052-.149-.047.132.012-.023.021-.043a1.968,1.968,0,0,1,.194-.316c-.083.109.031-.029.04-.039.051-.054.106-.1.16-.154a.625.625,0,1,0-.883-.884Z" fill="#a2d45e"/>
          </g>
        </g>
      </g>
      <g id="Group_4803" data-name="Group 4803">
        <g id="Group_4802" data-name="Group 4802">
          <g id="Group_4801" data-name="Group 4801">
            <path id="Path_1548" data-name="Path 1548" d="M914.334,220.506c.066,0-.207-.051-.039.006-.184-.063-.066-.029.021.015.143.072.282.149.425.218a4.885,4.885,0,0,0,1.331.454,5.271,5.271,0,0,0,4.257-1.471.63.63,0,0,0,0-.884.637.637,0,0,0-.884,0,4.984,4.984,0,0,1-1.926,1.076,2.213,2.213,0,0,1-.75.1c-.124,0-.247-.009-.37-.022.148.015-.043-.007-.073-.013-.059-.011-.119-.023-.177-.037a5.126,5.126,0,0,1-.586-.188c-.108-.04.113.055-.047-.022l-.109-.05-.229-.115a1.869,1.869,0,0,0-.844-.312.625.625,0,0,0,0,1.25Z" fill="#a2d45e"/>
          </g>
        </g>
      </g>
    </g>
    <g id="Group_4814" data-name="Group 4814">
      <g id="Group_4807" data-name="Group 4807">
        <g id="Group_4806" data-name="Group 4806">
          <g id="Group_4805" data-name="Group 4805">
            <path id="Path_1549" data-name="Path 1549" d="M844.252,211.7c-5.438.372-7.959,5.87-8.877,10.578-.071.366-.135.733-.188,1.1-.023.156-.044.313-.065.469-.029.221.025-.132,0,.013-.147.787,1.058,1.123,1.205.332.016-.083.024-.168.034-.251.028-.2-.018.126.013-.09.039-.269.08-.537.128-.805a23.319,23.319,0,0,1,.615-2.625,12.48,12.48,0,0,1,3.375-5.9,6.309,6.309,0,0,1,3.762-1.568c.8-.054.8-1.3,0-1.25Z" fill="#a2d45e"/>
          </g>
        </g>
      </g>
      <g id="Group_4810" data-name="Group 4810">
        <g id="Group_4809" data-name="Group 4809">
          <g id="Group_4808" data-name="Group 4808">
            <path id="Path_1550" data-name="Path 1550" d="M837.43,209.891a3.432,3.432,0,0,0-.772,3.476,4.885,4.885,0,0,0,.633,1.477,1.753,1.753,0,0,0,1.009.851.642.642,0,0,0,.768-.436.629.629,0,0,0-.435-.769.248.248,0,0,1-.084-.023l.1.044-.045-.025c-.014-.008-.029-.019-.043-.029l.08.063c-.027,0-.074-.064-.093-.082-.051-.05-.094-.105-.141-.159.119.137.018.022-.008-.015s-.054-.081-.08-.122a4.184,4.184,0,0,1-.279-.54c.06.14-.012-.034-.023-.063-.021-.057-.042-.114-.061-.172-.036-.109-.068-.22-.1-.332s-.054-.228-.074-.344c-.009-.047-.024-.163-.01-.05-.009-.072-.016-.145-.022-.217-.007-.109-.011-.217-.009-.326,0-.073.006-.144.012-.215,0-.034.028-.192,0-.047a2.816,2.816,0,0,1,.083-.361c.015-.05.034-.1.051-.149-.046.132.011-.023.022-.044a1.847,1.847,0,0,1,.193-.315c-.083.108.031-.028.04-.039.051-.054.105-.1.161-.154a.624.624,0,1,0-.883-.883Z" fill="#a2d45e"/>
          </g>
        </g>
      </g>
      <g id="Group_4813" data-name="Group 4813">
        <g id="Group_4812" data-name="Group 4812">
          <g id="Group_4811" data-name="Group 4811">
            <path id="Path_1551" data-name="Path 1551" d="M836.946,220.494c.068,0-.206-.051-.039.006-.183-.062-.066-.027.021.016.142.071.283.148.426.218a4.907,4.907,0,0,0,1.331.454,5.276,5.276,0,0,0,4.257-1.471.625.625,0,1,0-.884-.885,4.955,4.955,0,0,1-1.927,1.076,2.233,2.233,0,0,1-.75.1c-.124,0-.246-.01-.369-.022.148.014-.043-.007-.073-.013-.06-.011-.119-.024-.177-.037a4.9,4.9,0,0,1-.588-.189c-.106-.039.114.056-.045-.02l-.109-.051c-.078-.037-.154-.076-.229-.115a1.89,1.89,0,0,0-.845-.313.625.625,0,0,0,0,1.25Z" fill="#a2d45e"/>
          </g>
        </g>
      </g>
    </g>
    <g id="Group_4824" data-name="Group 4824">
      <g id="Group_4817" data-name="Group 4817">
        <g id="Group_4816" data-name="Group 4816">
          <g id="Group_4815" data-name="Group 4815">
            <path id="Path_1552" data-name="Path 1552" d="M966.639,205.608c-5.439.372-7.959,5.87-8.877,10.578-.071.366-.135.733-.189,1.1-.022.156-.043.313-.063.469-.031.222.024-.132,0,.014-.148.786,1.058,1.123,1.206.332.015-.083.022-.168.034-.252.026-.2-.019.126.012-.09.04-.269.08-.537.128-.8a23.292,23.292,0,0,1,.615-2.625,12.463,12.463,0,0,1,3.375-5.9,6.309,6.309,0,0,1,3.762-1.568c.8-.054.8-1.305,0-1.25Z" fill="#a2d45e"/>
          </g>
        </g>
      </g>
      <g id="Group_4820" data-name="Group 4820">
        <g id="Group_4819" data-name="Group 4819">
          <g id="Group_4818" data-name="Group 4818">
            <path id="Path_1553" data-name="Path 1553" d="M959.817,203.8a3.43,3.43,0,0,0-.772,3.476,4.876,4.876,0,0,0,.633,1.477,1.753,1.753,0,0,0,1.009.851.642.642,0,0,0,.768-.436.629.629,0,0,0-.436-.769.227.227,0,0,1-.083-.023c.035.016.07.029.105.044A.385.385,0,0,1,961,208.4l-.046-.029.082.063c-.027,0-.074-.064-.093-.082-.051-.05-.094-.105-.141-.159.119.137.018.022-.008-.015s-.055-.081-.08-.122a4.184,4.184,0,0,1-.279-.54c.06.14-.012-.034-.023-.063-.021-.056-.042-.114-.061-.172-.036-.109-.069-.219-.1-.332s-.054-.228-.074-.344c-.008-.047-.025-.163-.01-.05-.01-.073-.017-.145-.021-.217a3.222,3.222,0,0,1-.009-.326c0-.072.005-.144.01-.215,0-.034.029-.192,0-.047a2.817,2.817,0,0,1,.083-.361c.015-.05.034-.1.051-.149-.047.132.012-.023.021-.044a2,2,0,0,1,.194-.315c-.083.109.031-.028.04-.039.051-.055.106-.1.16-.154a.624.624,0,0,0-.882-.883Z" fill="#a2d45e"/>
          </g>
        </g>
      </g>
      <g id="Group_4823" data-name="Group 4823">
        <g id="Group_4822" data-name="Group 4822">
          <g id="Group_4821" data-name="Group 4821">
            <path id="Path_1554" data-name="Path 1554" d="M959.333,214.406c.067,0-.206-.051-.038.006-.184-.062-.066-.027.02.016.142.071.283.148.425.218a4.885,4.885,0,0,0,1.331.454,5.274,5.274,0,0,0,4.257-1.471.625.625,0,0,0-.883-.885,4.949,4.949,0,0,1-1.927,1.076,2.236,2.236,0,0,1-.75.1c-.123,0-.247-.01-.37-.021.149.013-.043-.008-.073-.014-.059-.011-.118-.024-.177-.037a4.816,4.816,0,0,1-.586-.188c-.107-.04.114.055-.046-.021l-.11-.051c-.077-.037-.153-.076-.228-.115a1.89,1.89,0,0,0-.845-.313.625.625,0,0,0,0,1.25Z" fill="#a2d45e"/>
          </g>
        </g>
      </g>
    </g>
  </g>
  <g id="Group_4826" data-name="Group 4826" transform="translate(-832.353 -35.681)">
    <path id="Path_1555" data-name="Path 1555" d="M890.969,237.057q.113,1.29.332,2.574l-.028.17a80.75,80.75,0,0,0,19.672.562,14.65,14.65,0,0,0,2.784-.463,8.23,8.23,0,0,0,5.368-5.172C909.929,236.923,900.4,236.994,890.969,237.057Z" fill="#00b0c4"/>
  </g>
  <g id="Group_4828" data-name="Group 4828" transform="translate(-832.353 -35.681)">
    <g id="Group_4827" data-name="Group 4827">
      <path id="Path_1556" data-name="Path 1556" d="M882.582,233.5a2.736,2.736,0,0,0,1.209.146,57.841,57.841,0,0,1,12.74,1.018,16.42,16.42,0,0,0,4.786.521,9.94,9.94,0,0,0,6.394-3.853,8.056,8.056,0,0,0,1.23-1.936,2.353,2.353,0,0,0,.229-1.295,2.133,2.133,0,0,0-1.708-1.59c-.1-.021-.2-.043-.3-.057l-.164.6a8.8,8.8,0,0,1-6.246,5.137,17.7,17.7,0,0,1-5.1.022q-6.958-.663-13.911-1.322l-.252.007c0,.024,0,.038,0,.061C881.529,231.934,881.69,233.1,882.582,233.5Z" fill="#00b0c4"/>
    </g>
  </g>
  <g id="Group_4830" data-name="Group 4830" transform="translate(-832.353 -35.681)">
    <g id="Group_4829" data-name="Group 4829">
      <path id="Path_1557" data-name="Path 1557" d="M882.887,225.835c-.385-.146-.774-.3-1.157-.455l-.462.022c.073,1.83.144,3.667.218,5.5l.252-.007q6.949.658,13.911,1.322a17.7,17.7,0,0,0,5.1-.022A8.8,8.8,0,0,0,907,227.054l.164-.6a9.271,9.271,0,0,0-2.156.055,22,22,0,0,1-12.962-2.92l-.208.058a1.643,1.643,0,0,1-.051.257,2.678,2.678,0,0,1-1.27,1.307,10.568,10.568,0,0,1-2.247,1.072,5.547,5.547,0,0,1-1.219.278A9.139,9.139,0,0,1,882.887,225.835Z" fill="#144998"/>
    </g>
  </g>
  <g id="Group_4831" data-name="Group 4831" transform="translate(-832.353 -35.681)">
    <path id="Path_1558" data-name="Path 1558" d="M897.088,230.9a10.186,10.186,0,0,1-4.519-1.87,1.729,1.729,0,0,1-.156-.112,11.941,11.941,0,0,0-1.478,5.129,19.058,19.058,0,0,0,.034,3.013c9.426-.063,18.96-.134,28.128-2.329a7.131,7.131,0,0,0,.231-.839,1.893,1.893,0,0,0-.035-1.155c-.314-.643-1.153-.763-1.855-.828a29.662,29.662,0,0,1-14.04-5.064c-.024.074-.053.138-.084.21a7.968,7.968,0,0,1-1.906,2.634,5.143,5.143,0,0,1-1.417.991,5.056,5.056,0,0,1-2.581.262C897.3,230.926,897.2,230.912,897.088,230.9Z" fill="#144998"/>
  </g>
  <g id="Group_4833" data-name="Group 4833" transform="translate(-832.353 -35.681)">
    <g id="Group_4832" data-name="Group 4832">
      <path id="Path_1559" data-name="Path 1559" d="M888.72,81.68l.175.1a12.4,12.4,0,0,1,3.936,1.6,20.454,20.454,0,0,1,.611-2.978q3.035,2.091,6.083,4.165l.3.205a7.575,7.575,0,0,0,2.215,1.127,2.839,2.839,0,0,0,2.672-.534,4,4,0,0,0,.86-1.5,47.023,47.023,0,0,0,2.615-17.965l-.07-.078a1.968,1.968,0,0,1-.254.227,2.478,2.478,0,0,1-1.615.328c-1.726-.129-3.3-.979-4.952-1.486a5.76,5.76,0,0,0-2.418-.3,2.79,2.79,0,0,0-2.052,1.2,3.352,3.352,0,0,0-.245,2.488c.188.837.535,1.635.693,2.473a1.81,1.81,0,0,1,0,.933.807.807,0,0,1-.677.563c-.4.012-.7-.363-.924-.7-.4-.62-.8-1.24-1.207-1.852-.3-.471-.733-.993-1.279-.908a.968.968,0,0,0-.577.374,2.032,2.032,0,0,0-.325,1.648,15.14,15.14,0,0,0,.486,1.659,6.951,6.951,0,0,1,.254,1.9,2.27,2.27,0,0,1-1.09,2.206,1.4,1.4,0,0,1-1.671-.668l-.226.063q-.406,2.026-.823,4.052A6.587,6.587,0,0,1,888.72,81.68Z" fill="#ffcc8b"/>
    </g>
  </g>
  <g id="Group_4835" data-name="Group 4835" transform="translate(-832.353 -35.681)">
    <g id="Group_4834" data-name="Group 4834">
      <path id="Path_1560" data-name="Path 1560" d="M875.186,114.016a4.482,4.482,0,0,0,2.437,1.695q8.85,3.51,17.7,7.013l.263-.04a11.352,11.352,0,0,0-.212-1.186,20.567,20.567,0,0,0-3.273-6.6l-.368.241a10.425,10.425,0,0,0-4.33-3.706,5.506,5.506,0,0,1-2.019-.935l-.005-.006a6.03,6.03,0,0,0-1.631-.391c-1.346-.182-2.918-.55-3.41-1.816a3.9,3.9,0,0,1-.032-2.064c.183-1.075.369-2.161.553-3.237a10.688,10.688,0,0,0,.095-4.61l.018-.012a18.479,18.479,0,0,1-1.529-3.446,73.879,73.879,0,0,0-4.459,16.354A4.335,4.335,0,0,0,875.186,114.016Z" fill="#ffcc8b"/>
    </g>
  </g>
  <g id="Group_4837" data-name="Group 4837" transform="translate(-832.353 -35.681)">
    <g id="Group_4836" data-name="Group 4836">
      <path id="Path_1561" data-name="Path 1561" d="M893.442,80.4a20.454,20.454,0,0,0-.611,2.978c.47.293.925.6,1.368.932a34.537,34.537,0,0,1,3.645,3.291c.221.159.434.325.656.49a16.048,16.048,0,0,1,.815-3.185l.507-.136-.3-.205Q896.48,82.492,893.442,80.4Z" fill="#ffad5f"/>
    </g>
  </g>
  <g id="Group_4839" data-name="Group 4839" transform="translate(-832.353 -35.681)">
    <g id="Group_4838" data-name="Group 4838">
      <path id="Path_1562" data-name="Path 1562" d="M882.125,224.047a22.579,22.579,0,0,0-.782-9.181c-.792-3.1-1.846-6.146-2.326-9.313-.884-5.811.213-11.744,1.937-17.365.779-2.535,1.7-5.1,1.622-7.753a10.666,10.666,0,0,0-1.363-4.892l.016-.1a15.706,15.706,0,0,0,5.789-.479c.1-.02.2-.05.311-.075.317-.08.632-.16.942-.256a39.739,39.739,0,0,0,6.84-2.585,13.892,13.892,0,0,1,1.061,6.1,26.955,26.955,0,0,1-1.127,5.537c-3.1,11.329-5.566,23.077-4.366,34.768.264,2.5.684,4.994.7,7.515a2.79,2.79,0,0,1-1.756.7,10.962,10.962,0,0,1-2.583.068,5.717,5.717,0,0,1-1.274-.251A9.481,9.481,0,0,1,882.125,224.047Z" fill="#ffcc8b"/>
    </g>
  </g>
  <g id="Group_4841" data-name="Group 4841" transform="translate(-832.353 -35.681)">
    <g id="Group_4840" data-name="Group 4840">
      <path id="Path_1563" data-name="Path 1563" d="M874.663,152.066c-1.656-3.074-1.811-12.052,1.151-16.725,6.075-1.017,12.675,2.457,12.675,2.457s8.768,4.711,12.907,4.938a23.165,23.165,0,0,1,.667,4.721c.345,4.445-.757,8.888-1.372,13.3l-.039.294c-.775,5.473-1.8,10.969-1.377,16.471l-.024.7c-.69.161-1.377.3-2.075.425a39.576,39.576,0,0,1-7.285.646c-.324.009-.65,0-.975-.007-.111-.005-.217,0-.32-.013a15.689,15.689,0,0,1-5.7-1.1,8.287,8.287,0,0,1-2.1-1.293l-.125.024C879.07,168.494,878.742,159.6,874.663,152.066Z" fill="#67696d"/>
    </g>
  </g>
  <g id="Group_4843" data-name="Group 4843" transform="translate(-832.353 -35.681)">
    <g id="Group_4842" data-name="Group 4842">
      <path id="Path_1564" data-name="Path 1564" d="M880.333,108.282c.492,1.266,2.064,1.634,3.41,1.816a6.03,6.03,0,0,1,1.631.391,1.424,1.424,0,0,1-.255-.35,2.927,2.927,0,0,1,.215-2.385,2.626,2.626,0,0,0,.1-2.377l.1-.068c-.72-1.064-1.451-2.13-2.178-3.19-.826-1.214-1.666-2.462-2.391-3.76l-.018.012a10.688,10.688,0,0,1-.095,4.61c-.184,1.076-.37,2.162-.553,3.237A3.9,3.9,0,0,0,880.333,108.282Z" fill="#ffad5f"/>
    </g>
  </g>
  <g id="Group_4845" data-name="Group 4845" transform="translate(-832.353 -35.681)" opacity="0.3">
    <g id="Group_4844" data-name="Group 4844">
      <path id="Path_1565" data-name="Path 1565" d="M894.627,140.995a26.631,26.631,0,0,0,7.273,1.3c.037,0,.067,0,.1,0h.022q.613-10.7.763-21.417l-.151-.853c-.263.042-.526.084-.787.142l.029.145a12.544,12.544,0,0,1-3.244,3.1,84.73,84.73,0,0,1-23.71,12.2l-.067-.005a6.446,6.446,0,0,0,.06,1.681l.1.341c.08-.027.152-.045.224-.063,4.339-1.16,8.98-.048,13.252,1.375C890.532,139.623,892.568,140.376,894.627,140.995Z" fill="#54565a"/>
    </g>
  </g>
  <g id="Group_4847" data-name="Group 4847" transform="translate(-832.353 -35.681)">
    <g id="Group_4846" data-name="Group 4846">
      <path id="Path_1566" data-name="Path 1566" d="M878.729,94.278a18.4,18.4,0,0,0-.419,3.747c-.031,1.487.064,2.989.166,4.453.091,1.282.184,2.571.268,3.853q.379,5.283.75,10.562c.025.336.049.681.073,1.025a20.6,20.6,0,0,1-.509,7.352,11.35,11.35,0,0,1-.415,1.13c-.657,1.62-1.59,3.12-2.366,4.687a12.47,12.47,0,0,0-1.419,4.522l.067.005a84.73,84.73,0,0,0,23.71-12.2,12.544,12.544,0,0,0,3.244-3.1l-.029-.145c-3.831.723-7.691,1.749-11.561,1.96a9.362,9.362,0,0,1-4.889-.776c-2.646-1.385-3.761-4.645-3.84-7.632s.642-5.955.562-8.943c-.049-1.908-.42-3.794-.6-5.7a17.591,17.591,0,0,1,1.066-8.578,11.276,11.276,0,0,1,2.456-3.6l-.758-.749c-.272.278-.552.556-.826.834a20.022,20.022,0,0,0-3.724,4.577A11.589,11.589,0,0,0,878.729,94.278Z" fill="#c9cacb"/>
    </g>
  </g>
  <g id="Group_4849" data-name="Group 4849" transform="translate(-832.353 -35.681)">
    <g id="Group_4848" data-name="Group 4848">
      <path id="Path_1567" data-name="Path 1567" d="M881.56,113.72c-.074-2.988.642-5.955.562-8.943-.049-1.908-.42-3.794-.6-5.7a17.591,17.591,0,0,1,1.066-8.578,11.276,11.276,0,0,1,2.456-3.6,8.951,8.951,0,0,1,3.684-2.207l.152.087a11.045,11.045,0,0,1,2.82.73A19.133,19.133,0,0,1,897,88.89a13.219,13.219,0,0,1,3.019,3.417,5.953,5.953,0,0,1,.713,4.4,4.745,4.745,0,0,1-4.493,3.4l-.2,0a17.169,17.169,0,0,1-3.172,10.76,8.762,8.762,0,0,1,5.272,1.1,19.057,19.057,0,0,0,2.306,1.335,5.9,5.9,0,0,0,2.471.342,11.461,11.461,0,0,0,1.338-.153,17.6,17.6,0,0,0,9.6-5.047,1.4,1.4,0,0,1,.944-.56c.611.021.869.8.847,1.414s-.088,1.334.386,1.722c.59.487,1.479.024,2.234.142a1.951,1.951,0,0,1,1.449,1.663,5.551,5.551,0,0,1-.277,2.315c-.026.088-.051.171-.076.26-.577,2.042-1.554,4.294-3.6,4.74a7.426,7.426,0,0,1-3.169-.324,25.4,25.4,0,0,0-9.963.207c-.263.042-.526.084-.787.142-3.83.723-7.691,1.749-11.561,1.96a9.362,9.362,0,0,1-4.889-.776C882.754,119.967,881.639,116.707,881.56,113.72Z" fill="#ffcc8b"/>
    </g>
  </g>
  <g id="Group_4851" data-name="Group 4851" transform="translate(-832.353 -35.681)">
    <g id="Group_4850" data-name="Group 4850">
      <path id="Path_1568" data-name="Path 1568" d="M898.47,88.244c-.21-.217-.418-.428-.626-.638a34.537,34.537,0,0,0-3.645-3.291c-.443-.331-.9-.639-1.368-.932a12.4,12.4,0,0,0-3.936-1.6l-.175-.1c-.04.068-.074.128-.116.2l-.094.013c-1.416,1.421-2.817,2.834-4.225,4.255l.758.749a8.951,8.951,0,0,1,3.684-2.207l.152.087a11.045,11.045,0,0,1,2.82.73A19.133,19.133,0,0,1,897,88.89a13.219,13.219,0,0,1,3.019,3.417,5.953,5.953,0,0,1,.713,4.4,4.743,4.743,0,0,1-4.493,3.4l-.2,0a17.169,17.169,0,0,1-3.172,10.76,8.762,8.762,0,0,1,5.272,1.1,19.057,19.057,0,0,0,2.306,1.335,5.9,5.9,0,0,0,2.471.342,55.621,55.621,0,0,0,.652-17.368,12.609,12.609,0,0,0-.742-3.323,12.75,12.75,0,0,0-4.33-4.86C898.486,88.148,898.483,88.192,898.47,88.244Z" fill="#c9cacb"/>
    </g>
  </g>
  <g id="Group_4853" data-name="Group 4853" transform="translate(-832.353 -35.681)">
    <g id="Group_4852" data-name="Group 4852">
      <path id="Path_1569" data-name="Path 1569" d="M888.561,65.3a22.737,22.737,0,0,1-.9,2.374,6.046,6.046,0,0,0,.391,4.243,16.345,16.345,0,0,0,2.158,3.4l-.093.072a1.178,1.178,0,0,0,.144.521,1.4,1.4,0,0,0,1.671.668,2.27,2.27,0,0,0,1.09-2.206,6.951,6.951,0,0,0-.254-1.9,15.14,15.14,0,0,1-.486-1.659,2.032,2.032,0,0,1,.325-1.648.968.968,0,0,1,.577-.374c.546-.085.976.437,1.279.908.4.612.809,1.232,1.207,1.852.223.342.521.717.924.7a.807.807,0,0,0,.677-.563,1.81,1.81,0,0,0,0-.933c-.158-.838-.505-1.636-.693-2.473a3.352,3.352,0,0,1,.245-2.488,2.79,2.79,0,0,1,2.052-1.2,5.76,5.76,0,0,1,2.418.3c1.649.507,3.226,1.357,4.952,1.486a2.478,2.478,0,0,0,1.615-.328,1.968,1.968,0,0,0,.254-.227,3.6,3.6,0,0,1,.775-.7c.658-.348,1.511-.029,2.179-.363a2.182,2.182,0,0,0,.938-1.707,6.382,6.382,0,0,0-.092-2.789,3.641,3.641,0,0,0-1.629-2.2,8.433,8.433,0,0,0-3.448-.64,9.9,9.9,0,0,1-3.588-1.082,12.928,12.928,0,0,0-3.3-1.574,4.762,4.762,0,0,0-3.622.934,8.114,8.114,0,0,0-2.367,3,3.557,3.557,0,0,0-3.106-.4" fill="#144998"/>
    </g>
  </g>
  <g id="Group_4855" data-name="Group 4855" transform="translate(-832.353 -35.681)">
    <g id="Group_4854" data-name="Group 4854">
      <path id="Path_1570" data-name="Path 1570" d="M892.361,179.7c1.324-.048,2.627-.3,3.95-.4l.006,0a19,19,0,0,1,7.835,1.036,17.255,17.255,0,0,1,.055,8.576c-.585,2.849-1.515,5.623-2.043,8.485-.891,4.836-.613,9.806-.33,14.717.27,4.712.564,9.519,2.181,13.932l.126.324a8.229,8.229,0,0,1-1.715,2.9,5.322,5.322,0,0,1-1.369,1.162,5.252,5.252,0,0,1-2.644.52l-.337-.012a10.591,10.591,0,0,1-4.849-1.5l.048-.079a68.136,68.136,0,0,0-1.8-15.8,46.772,46.772,0,0,1-1.115-4.617c-1.021-6.6,2.183-13.273,1.326-19.9-.412-3.161-1.743-6.268-1.494-9.415A16.1,16.1,0,0,0,892.361,179.7Z" fill="#ffcc8b"/>
    </g>
  </g>
  <g id="Group_4944" data-name="Group 4944" transform="translate(-832.353 -35.681)">
    <g id="Group_4859" data-name="Group 4859">
      <g id="Group_4858" data-name="Group 4858">
        <g id="Group_4857" data-name="Group 4857">
          <g id="Group_4856" data-name="Group 4856">
            <path id="Path_1571" data-name="Path 1571" d="M962.733,99.637s-1.291-2.792-1.5-3.212a5.562,5.562,0,0,0-2.911-1.458,24.263,24.263,0,0,0-3.583-.94,1.259,1.259,0,0,0-.744.773,2.546,2.546,0,0,0-.148,1.28,1.547,1.547,0,0,0-.477,1.414,1.348,1.348,0,0,0-.232,1.48,1.126,1.126,0,0,0-.253,1.217,10.191,10.191,0,0,1,1.5,1.012,21.5,21.5,0,0,0,5.371,2.323S962.4,103.443,962.733,99.637Z" fill="#af7c57"/>
          </g>
        </g>
      </g>
    </g>
    <g id="Group_4863" data-name="Group 4863">
      <g id="Group_4862" data-name="Group 4862">
        <g id="Group_4861" data-name="Group 4861">
          <g id="Group_4860" data-name="Group 4860">
            <path id="Path_1572" data-name="Path 1572" d="M959.75,103.526s3.156.551,4.228-.065-.176-3.833-.176-3.833l-2-1.208Z" fill="#af7c57"/>
          </g>
        </g>
      </g>
    </g>
    <g id="Group_4867" data-name="Group 4867">
      <g id="Group_4866" data-name="Group 4866">
        <g id="Group_4865" data-name="Group 4865">
          <g id="Group_4864" data-name="Group 4864">
            <path id="Path_1573" data-name="Path 1573" d="M958.578,98.284a7.561,7.561,0,0,0,.28,1.972c.234.427-2.912,1.092-2.912,1.092S956.7,98.393,958.578,98.284Z" fill="#8d5935"/>
          </g>
        </g>
      </g>
    </g>
    <g id="Group_4871" data-name="Group 4871">
      <g id="Group_4870" data-name="Group 4870">
        <g id="Group_4869" data-name="Group 4869">
          <g id="Group_4868" data-name="Group 4868">
            <path id="Path_1574" data-name="Path 1574" d="M955.133,94.161s3.448,1.675,3.247,2.264a.971.971,0,0,1-.632.682l1.106,1.334s.234,1.3-1.246,1.173c0,0,.344,1.188-1.071.9,0,0-.123.884-.8.866a12.767,12.767,0,0,1-2.853-1.188s-.421-.463.18-1.228a1.393,1.393,0,0,1,.249-1.51,2.12,2.12,0,0,1,.509-1.752,1.844,1.844,0,0,1,.946-1.69S954.987,94.09,955.133,94.161Z" fill="#975f35"/>
          </g>
        </g>
      </g>
    </g>
    <g id="Group_4875" data-name="Group 4875">
      <g id="Group_4874" data-name="Group 4874">
        <g id="Group_4873" data-name="Group 4873">
          <g id="Group_4872" data-name="Group 4872">
            <path id="Path_1575" data-name="Path 1575" d="M961.128,96.36a13.02,13.02,0,0,0-4.054.718c-.321.15-.6.353-.588.708s.555.78,1.7.815a9.625,9.625,0,0,1,2.6.6S961.963,98.892,961.128,96.36Z" fill="#af7c57"/>
          </g>
        </g>
      </g>
    </g>
    <g id="Group_4878" data-name="Group 4878">
      <g id="Group_4877" data-name="Group 4877">
        <g id="Group_4876" data-name="Group 4876">
          <path id="Path_1576" data-name="Path 1576" d="M953.82,95.7a33.488,33.488,0,0,1,4.2,1.673c.269.325.775-1.111.526-1.374a29.771,29.771,0,0,0-3.651-1.986A1.3,1.3,0,0,0,953.82,95.7Z" fill="#8d5935"/>
        </g>
      </g>
    </g>
    <g id="Group_4881" data-name="Group 4881">
      <g id="Group_4880" data-name="Group 4880">
        <g id="Group_4879" data-name="Group 4879">
          <path id="Path_1577" data-name="Path 1577" d="M955.633,94.178s-6.13-1.256-6.255-.509.469.873,5.492,2.339C959.755,97.433,955.633,94.178,955.633,94.178Z" fill="#af7c57"/>
        </g>
      </g>
    </g>
    <g id="Group_4884" data-name="Group 4884">
      <g id="Group_4883" data-name="Group 4883">
        <g id="Group_4882" data-name="Group 4882">
          <path id="Path_1578" data-name="Path 1578" d="M997.758,219.9s-1.953,2.923-4.693,3.555-5.441,1.636-5.461,3.364,7.923,2.762,11.059,1.018c4.681-2.6,5.155-1.818,5.675-3.118s-.623-4.779-.59-5.193C1003.79,219.02,997.758,219.9,997.758,219.9Z" fill="#4a4f54"/>
        </g>
      </g>
    </g>
    <g id="Group_4887" data-name="Group 4887">
      <g id="Group_4886" data-name="Group 4886">
        <g id="Group_4885" data-name="Group 4885">
          <path id="Path_1579" data-name="Path 1579" d="M998.062,218.463a12.485,12.485,0,0,0-.3,1.442c.054.031,6.176.76,5.99-.374-.15-.918-.364-1.917-.364-1.917Z" fill="#c9cacb"/>
        </g>
      </g>
    </g>
    <g id="Group_4890" data-name="Group 4890">
      <g id="Group_4889" data-name="Group 4889">
        <g id="Group_4888" data-name="Group 4888">
          <path id="Path_1580" data-name="Path 1580" d="M1018.362,219.711a8.605,8.605,0,0,1-3.774,3.749c-2.545,1.018-4.586,2.187-4.54,3.872s6.222,3.394,10.714.159c2.839-2.043,3.738-2.052,4.193-3.34s-.79-4.63-.773-5.034C1024.2,218.618,1018.362,219.711,1018.362,219.711Z" fill="#4a4f54"/>
        </g>
      </g>
    </g>
    <g id="Group_4893" data-name="Group 4893">
      <g id="Group_4892" data-name="Group 4892">
        <g id="Group_4891" data-name="Group 4891">
          <path id="Path_1581" data-name="Path 1581" d="M1018.292,218.26a13.622,13.622,0,0,0,.07,1.451c.053.027,5.97.516,5.82-.594a9.08,9.08,0,0,0-.574-1.944Z" fill="#c9cacb"/>
        </g>
      </g>
    </g>
    <g id="Group_4896" data-name="Group 4896">
      <g id="Group_4895" data-name="Group 4895">
        <g id="Group_4894" data-name="Group 4894">
          <path id="Path_1582" data-name="Path 1582" d="M996.6,132.852s-5.5,24.248-6.753,31.634c-1.069,6.287-1.92,12.833-1.408,17.371.633,5.62,8.586,34.739,8.255,36.386s9.482.646,9.482.646-7.208-32.864-6-38.91c.9-4.477,8.737-34.221,9.939-32.7s2.692,28.072,3.582,32.479,3.622,39.224,3.622,39.224,6.109.9,7.741-.479c0,0,.743-29.731.175-37.992-.215-3.149,3.689-37.751-1.318-51.681C1021.267,121.472,996.6,132.852,996.6,132.852Z" fill="#54565a"/>
        </g>
      </g>
    </g>
    <g id="Group_4899" data-name="Group 4899">
      <g id="Group_4898" data-name="Group 4898">
        <g id="Group_4897" data-name="Group 4897">
          <path id="Path_1583" data-name="Path 1583" d="M960.7,104.721s19.045,4.222,22.834,3.291c1.752-.431,4.06-2.85,6.252-5.693.723-.936,1.432-1.919,2.107-2.891l0,0c2.69-3.885,4.8-7.608,4.8-7.608s7.951-9.318,1.57-13.472a4.243,4.243,0,0,0-4.442,1.411,40.863,40.863,0,0,0-5.183,8.264c-.558,1.213-8.368,12.48-8.773,12.733s-3.818-.644-6.554-.871a84.617,84.617,0,0,1-11.149-2.111Z" fill="#ededed"/>
        </g>
      </g>
    </g>
    <g id="Group_4901" data-name="Group 4901">
      <g id="Group_4900" data-name="Group 4900">
        <path id="Path_1584" data-name="Path 1584" d="M1004.228,76.265s-8.187,1.692-9.158,2.552c-1.054.916-2.914,9.882-3.025,12.379a96.437,96.437,0,0,0,2.042,16.815c1.054,3.884.86,23.019.194,28.4,0,0,16.483,4.682,32.688,2.573,0,0-2.717-20.131-2.069-25.455.831-6.819,2.83-22.532,2.83-22.532s-1.433-10.944-2.876-12.165-11.386-2.569-11.386-2.569Z" fill="#c9cacb"/>
      </g>
    </g>
    <g id="Group_4903" data-name="Group 4903">
      <g id="Group_4902" data-name="Group 4902">
        <path id="Path_1585" data-name="Path 1585" d="M1007.611,50.953s-9.845-3.643-9.23,9.442,2.923,14.416,9.4,12.587,7.02-10.086,7.864-14.058S1010.832,51.524,1007.611,50.953Z" fill="#af7c57"/>
      </g>
    </g>
    <g id="Group_4905" data-name="Group 4905">
      <g id="Group_4904" data-name="Group 4904">
        <path id="Path_1586" data-name="Path 1586" d="M1002.94,78.036s2.026,1.341,9.709-2.044a34.817,34.817,0,0,1,1.291-10.187c1.507-4.921-10.311,6.559-10.311,6.559.124.087.147.579.076,1.265a13.6,13.6,0,0,1-.379,2.033A4.963,4.963,0,0,0,1002.94,78.036Z" fill="#af7c57"/>
      </g>
    </g>
    <g id="Group_4907" data-name="Group 4907">
      <g id="Group_4906" data-name="Group 4906">
        <path id="Path_1587" data-name="Path 1587" d="M1014.275,65.414s.029-3.5-1.424-3.817a2,2,0,0,1-1.646-1.485l-.834.194s.152-.616-1.233-1.428-9.676-.1-10.717-1.291.469-8.276,2.73-8.971,7.517-.632,12.317.717a5.588,5.588,0,0,1,3.921,5.209C1017.567,57.319,1015.459,63.519,1014.275,65.414Z" fill="#144998"/>
      </g>
    </g>
    <g id="Group_4909" data-name="Group 4909">
      <g id="Group_4908" data-name="Group 4908">
        <path id="Path_1588" data-name="Path 1588" d="M1003.326,75.662c7.633-1.283,8.774-5.623,8.791-5.691-2.968,3.826-8.412,3.658-8.412,3.658A13.6,13.6,0,0,1,1003.326,75.662Z" fill="#975f35"/>
      </g>
    </g>
    <g id="Group_4911" data-name="Group 4911">
      <g id="Group_4910" data-name="Group 4910">
        <path id="Path_1589" data-name="Path 1589" d="M1003.663,79.755s-1.39,2.05-2.228,7.313a108.986,108.986,0,0,0-.7,14.33l1.933.235s2.926-18.491,2.422-21.713Z" fill="#54565a"/>
      </g>
    </g>
    <g id="Group_4913" data-name="Group 4913">
      <g id="Group_4912" data-name="Group 4912">
        <path id="Path_1590" data-name="Path 1590" d="M1011.205,60.112c.435-1.153,2.891-1.008,2.639.821s-2.281,4.643-3.1,4.115S1010.6,61.7,1011.205,60.112Z" fill="#af7c57"/>
      </g>
    </g>
    <g id="Group_4915" data-name="Group 4915">
      <g id="Group_4914" data-name="Group 4914">
        <path id="Path_1591" data-name="Path 1591" d="M994.965,78.809s-4.65,6.154-2.928,22.254c3.114,29.093-5.04,75.8-5.04,75.8l8.412,2.633s8.038-59.7,5.991-81.371c-.932-9.874-3.7-13.159.667-21.385A16.73,16.73,0,0,0,994.965,78.809Z" fill="#ededed"/>
      </g>
    </g>
    <g id="Group_4917" data-name="Group 4917">
      <g id="Group_4916" data-name="Group 4916">
        <path id="Path_1592" data-name="Path 1592" d="M1015.729,76.6s-13.314,13.449-14.357,23.645-2.741,79.246-2.741,79.246l31.7-1.847s-2.913-36.45-3.624-41.009-2.183-30.741,1.025-42.89c1.724-6.525-.326-14.807-4.264-15.71S1015.729,76.6,1015.729,76.6Z" fill="#ededed"/>
      </g>
    </g>
    <g id="Group_4919" data-name="Group 4919">
      <g id="Group_4918" data-name="Group 4918">
        <path id="Path_1593" data-name="Path 1593" d="M1020.229,78.343s-5.127,1.412-2.307,10.824c2.211,7.371,2.509,8.954,2.509,8.954l11.833-2.955s-3.471-16.193-9.132-17.063A6.48,6.48,0,0,0,1020.229,78.343Z" fill="#ededed"/>
      </g>
    </g>
    <g id="Group_4921" data-name="Group 4921">
      <g id="Group_4920" data-name="Group 4920">
        <path id="Path_1594" data-name="Path 1594" d="M981.44,128.156l23.192,24,15.405-14.886-22.591-24.584Z" fill="#64513d"/>
      </g>
    </g>
    <g id="Group_4923" data-name="Group 4923">
      <g id="Group_4922" data-name="Group 4922">
        <path id="Path_1595" data-name="Path 1595" d="M983.632,128.633l20.6,21.316,13.682-13.221L997.848,114.9Z" fill="#eeecc8"/>
      </g>
    </g>
    <g id="Group_4925" data-name="Group 4925">
      <g id="Group_4924" data-name="Group 4924">
        <path id="Path_1596" data-name="Path 1596" d="M988.378,125.071l-1.445-1.5,5.531-5.345,1.661,1.287Z" fill="#64513d"/>
      </g>
    </g>
    <g id="Group_4927" data-name="Group 4927">
      <g id="Group_4926" data-name="Group 4926">
        <path id="Path_1597" data-name="Path 1597" d="M1012.646,74.535a24.662,24.662,0,0,1-7.99,2.969l2.114,3.373,6.7-4.612Z" fill="#bbb"/>
      </g>
    </g>
    <g id="Group_4929" data-name="Group 4929">
      <g id="Group_4928" data-name="Group 4928">
        <path id="Path_1598" data-name="Path 1598" d="M1003.326,75.662a3.449,3.449,0,0,0,1.33,1.842l-1.986,2.768.073-3.671Z" fill="#bbb"/>
      </g>
    </g>
    <g id="Group_4931" data-name="Group 4931">
      <g id="Group_4930" data-name="Group 4930">
        <path id="Path_1599" data-name="Path 1599" d="M1004.656,77.5l-1.572,2.192s.994,1.259,3.137.305Z" fill="#54565a"/>
      </g>
    </g>
    <g id="Group_4933" data-name="Group 4933">
      <g id="Group_4932" data-name="Group 4932">
        <path id="Path_1600" data-name="Path 1600" d="M989.781,102.317v0c.723-.936,1.432-1.919,2.107-2.891l0,0s-.254-7.094-.032-9.132C991.858,90.292,989.54,97.934,989.781,102.317Z" fill="#e1e1e1"/>
      </g>
    </g>
    <g id="Group_4935" data-name="Group 4935">
      <g id="Group_4934" data-name="Group 4934">
        <path id="Path_1601" data-name="Path 1601" d="M1022.455,97.615s1.547,10.061,1.438,10.706S1030.892,106.3,1022.455,97.615Z" fill="#e1e1e1"/>
      </g>
    </g>
    <g id="Group_4937" data-name="Group 4937">
      <g id="Group_4936" data-name="Group 4936">
        <rect id="Rectangle_3103" data-name="Rectangle 3103" width="3.736" height="5.706" transform="translate(998.269 99.721) rotate(180)" fill="#e1e1e1"/>
      </g>
    </g>
    <g id="Group_4939" data-name="Group 4939">
      <g id="Group_4938" data-name="Group 4938">
        <path id="Path_1602" data-name="Path 1602" d="M1011.141,121.367a2.1,2.1,0,0,1-.911.9c-.98.395-2.55-.23-3.158,1.174s3.309,4.7,4.29,4.875,2.371-1.434,3.278-4.532S1011.141,121.367,1011.141,121.367Z" fill="#af7c57"/>
      </g>
    </g>
    <g id="Group_4941" data-name="Group 4941">
      <g id="Group_4940" data-name="Group 4940">
        <path id="Path_1603" data-name="Path 1603" d="M1007.346,123a42.859,42.859,0,0,0-3.353,3.423c-1.462,1.68-2.869,3.939-2.618,4.365.561.947,1.92-1.168,3.483-2.732a14.983,14.983,0,0,1,1.2-1.189s0-.154-1.254,1.735c-1.352,2.031-2.528,4.257-2.208,4.751.155.241.784.831,1.086-.14-.271.453-.318.342-.138.48.934.712,3.39-1.944,4.364-3-.743.816-1.2,1.5-.358,1.567.965.079,4.264-3.84,5.582-5.125C1014.57,125.738,1007.346,123,1007.346,123Z" fill="#af7c57"/>
      </g>
    </g>
    <g id="Group_4943" data-name="Group 4943">
      <g id="Group_4942" data-name="Group 4942">
        <path id="Path_1604" data-name="Path 1604" d="M1019.616,78.973c-1.073.416-1.479,2.321-1.038,7.843a18.607,18.607,0,0,0,3.11,9.339c.725,1.278,4.713,9.152,4,10.187s-7.489,7.717-7.881,8.261-7.952,7.387-7.952,7.387l3.849,5.379s16.326-12.752,17.6-14.025,5.081-3.948,3.673-8.4c-1.432-4.52-4-15.1-4.46-15.93S1026.713,76.225,1019.616,78.973Z" fill="#ededed"/>
      </g>
    </g>
  </g>
  <g id="Group_4946" data-name="Group 4946" transform="translate(-832.353 -35.681)">
    <g id="Group_4945" data-name="Group 4945">
      <path id="Path_1605" data-name="Path 1605" d="M901.9,142.295l1.741,38.7-14.685-.519-8.6-22.459L876.043,135.3s4.676-1.958,17.987,5.043A18.364,18.364,0,0,0,901.9,142.295Z" fill="#909797"/>
    </g>
  </g>
  <g id="Group_4948" data-name="Group 4948" transform="translate(-832.353 -35.681)">
    <g id="Group_4947" data-name="Group 4947">
      <path id="Path_1606" data-name="Path 1606" d="M884.251,161.9l-8.667-7.886s-6.3-10.09.23-18.669l2.18,1.479Z" fill="#909797"/>
    </g>
  </g>
  <g id="Group_4953" data-name="Group 4953" transform="translate(-832.353 -35.681)" opacity="0.1" style="isolation: isolate">
    <g id="Group_4952" data-name="Group 4952">
      <g id="Group_4951" data-name="Group 4951" clip-path="url(#clip-path-2)">
        <g id="Group_4950" data-name="Group 4950">
          <g id="Group_4949" data-name="Group 4949">
            <path id="Path_1607" data-name="Path 1607" d="M1057.27,160.408c.251.143.505.275.76.413v-.135h2.188v1.232c.157.068.309.142.466.215v-1.447h2.186v2.367a.864.864,0,0,0,.129.047v-2.692Z" fill="#6c63ff"/>
          </g>
        </g>
      </g>
    </g>
  </g>
  <g id="Group_4955" data-name="Group 4955" transform="translate(-832.353 -35.681)">
    <g id="Group_4954" data-name="Group 4954">
      <path id="Path_1608" data-name="Path 1608" d="M1062.273,182.744l-.108,1.738-.15,2.463-.064,1.022-.152,2.462-.066,1.022-.151,2.462-1.731,27.913a4.726,4.726,0,0,1-4.717,4.437h-8.989a4.724,4.724,0,0,1-4.719-4.455L1039.7,193.9l-.151-2.463-.062-1.022-.157-2.463-.062-1.021-.152-2.461-.108-1.74a2.463,2.463,0,0,1,2.318-2.6c.042,0,.084,0,.127,0h18.383a2.46,2.46,0,0,1,2.447,2.476q0,.07-.006.144" fill="#00b0c4"/>
    </g>
  </g>
  <g id="Group_4957" data-name="Group 4957" transform="translate(-832.353 -35.681)">
    <g id="Group_4956" data-name="Group 4956">
      <path id="Path_1609" data-name="Path 1609" d="M1062.165,184.48l-.153,2.457h-22.748l-.152-2.457Z" fill="#07a5ac"/>
    </g>
  </g>
  <g id="Group_4959" data-name="Group 4959" transform="translate(-832.353 -35.681)">
    <g id="Group_4958" data-name="Group 4958">
      <path id="Path_1610" data-name="Path 1610" d="M1061.949,187.96l-.15,2.455h-22.319l-.153-2.455Z" fill="#07a5ac"/>
    </g>
  </g>
  <g id="Group_4961" data-name="Group 4961" transform="translate(-832.353 -35.681)">
    <g id="Group_4960" data-name="Group 4960">
      <path id="Path_1611" data-name="Path 1611" d="M1061.733,191.441l-.15,2.454H1039.7l-.154-2.454Z" fill="#07a5ac"/>
    </g>
  </g>
</svg>
