<svg id="Component_28_1" data-name="Component 28 – 1" xmlns="http://www.w3.org/2000/svg" xmlns:xlink="http://www.w3.org/1999/xlink" width="246.612" height="219.375" viewBox="0 0 246.612 219.375">
  <defs>
    <clipPath id="clip-path">
      <rect id="Rectangle_3179" data-name="Rectangle 3179" width="2.823" height="1.307" transform="translate(956.766 200.056)" fill="none"/>
    </clipPath>
    <clipPath id="clip-path-2">
      <rect id="Rectangle_3184" data-name="Rectangle 3184" width="2.823" height="1.307" transform="translate(1136.249 200.803)" fill="none"/>
    </clipPath>
  </defs>
  <g id="Group_6202" data-name="Group 6202" transform="translate(-907.031 -28.227)">
    <g id="Group_6201" data-name="Group 6201">
      <path id="Path_2454" data-name="Path 2454" d="M1077.987,213.794c.579-.238,1.158-.484,1.732-.73l.892-.386c.567-.248,1.133-.5,1.7-.752.308-.137.617-.277.925-.417q.82-.372,1.64-.754c.333-.155.666-.315,1-.472.519-.245,1.035-.491,1.55-.743.371-.18.737-.361,1.107-.543.473-.236.95-.469,1.424-.711.426-.213.85-.433,1.274-.653s.832-.427,1.244-.642c.516-.27,1.031-.549,1.546-.824l.97-.519q1.257-.686,2.5-1.387c14.818-8.36,28.735-18.821,38.715-32.487s15.744-30.821,13.37-47.5c-1.684-11.821-9.454-24.346-21.112-26.126a20.365,20.365,0,0,0-2.056-.2,62.66,62.66,0,0,0-8.6.7c-.6.059-1.21.1-1.818.139-.177.012-.354.016-.531.026-.431.019-.859.039-1.291.051-.209,0-.418.006-.629.009-.4,0-.8.007-1.2,0-.217,0-.432,0-.646-.009-.4-.011-.8-.022-1.2-.038-.21-.008-.418-.016-.626-.027-.418-.024-.834-.049-1.254-.078-.187-.014-.373-.023-.558-.038-.471-.037-.942-.08-1.411-.126-.132-.014-.264-.023-.4-.037-1.23-.129-2.464-.288-3.692-.469l-.242-.039c-.523-.08-1.048-.162-1.571-.252-.16-.024-.319-.055-.479-.082-.447-.075-.895-.155-1.342-.236l-.543-.1c-.43-.08-.858-.162-1.288-.25-.183-.035-.368-.07-.552-.111-.434-.086-.871-.176-1.3-.269-.169-.034-.338-.069-.508-.107-.468-.1-.939-.2-1.406-.3-.132-.03-.263-.06-.394-.087-.588-.13-1.174-.261-1.762-.4l-.023,0-.077-.017a42.892,42.892,0,0,0,1.866-11.515c.015-15.156-11.656-27.714-23.6-37.252-14.528-11.6-32.741-21.72-51.059-18.034-9.262,1.873-17.469,7.117-24.8,13.023q-2.193,1.764-4.315,3.619a65.426,65.426,0,0,0-6.613-.161c-.156.005-.312.005-.469.009-.4.014-.794.032-1.189.053-.248.012-.5.025-.746.042-.346.021-.692.045-1.036.072l-.929.08c-.3.028-.6.055-.9.087-.388.043-.775.088-1.164.135-.225.031-.453.053-.68.086q-1.895.253-3.772.619l-.394.082c-.5.1-.992.2-1.486.314-.173.04-.345.079-.518.122-.453.1-.905.217-1.354.33-.186.049-.372.1-.557.146-.445.117-.884.243-1.325.368-.179.052-.361.1-.54.158-.462.136-.923.282-1.383.429-.153.049-.3.1-.454.147-.606.2-1.209.406-1.81.629-19.98,7.279-35.461,24.457-42.582,44.248s-6.3,41.87.062,61.9a101.736,101.736,0,0,0,16.814,32.329c18.129,22.943,47.4,36.005,76.837,37.8,1.063.065,2.127.112,3.19.149.354.013.707.019,1.062.03.723.017,1.448.031,2.172.038.387,0,.776.006,1.162.006.835,0,1.667-.006,2.5-.022.214-.005.426-.005.64-.011q1.707-.042,3.408-.123a87.668,87.668,0,0,0,21.117,1.2c8.3-.547,16.9-2.391,23.295-7.64a28.042,28.042,0,0,0,4.488-4.677c.36-.144.719-.295,1.078-.443C1077.39,214.041,1077.689,213.921,1077.987,213.794Z" fill="#f7f7f7"/>
    </g>
  </g>
  <g id="Group_6219" data-name="Group 6219" transform="translate(-907.031 -28.227)">
    <g id="Group_6203" data-name="Group 6203">
      <path id="Path_2455" data-name="Path 2455" d="M1099.351,177.882c-.324-.371-.617-.887-.4-1.258.241-.42.913-.329,1.438-.148a10.376,10.376,0,0,1,6.178,6.152l-.041.155a12.753,12.753,0,0,1,8.132.361c.6.224,1.278.6,1.389,1.186a.942.942,0,0,1-.537.993,2.755,2.755,0,0,1-1.239.216,14.054,14.054,0,0,1-7.937-2.574l.141-.167,0,0C1104.3,180.88,1101.236,180.061,1099.351,177.882Z" fill="#d8e081"/>
    </g>
    <g id="Group_6204" data-name="Group 6204">
      <path id="Path_2456" data-name="Path 2456" d="M1095.316,184.3a1.659,1.659,0,0,1-.555-.837.882.882,0,0,1,.7-.943,2.6,2.6,0,0,1,1.367.1,9.968,9.968,0,0,1,6.509,5.967v.288a12.858,12.858,0,0,1,8.651-1.185c.648.125,1.418.424,1.584,1.04a.9.9,0,0,1-.368.948,2.48,2.48,0,0,1-1.019.377,15.114,15.114,0,0,1-8.934-1.108l.026-.026q-2.84-1.564-5.676-3.115A11.416,11.416,0,0,1,1095.316,184.3Z" fill="#d8e081"/>
    </g>
    <g id="Group_6205" data-name="Group 6205">
      <path id="Path_2457" data-name="Path 2457" d="M1098.109,201.241a22.727,22.727,0,0,1-8.7-2.763c-.512-.281-1.1-.7-1.1-1.246,0-.586.685-.841,1.287-.878a8.321,8.321,0,0,1,4.8,1.506,26.9,26.9,0,0,1,3.971,3.387Z" fill="#d8e081"/>
    </g>
    <g id="Group_6206" data-name="Group 6206">
      <path id="Path_2458" data-name="Path 2458" d="M1107.137,166.689c.327-.489,1.134-.371,1.745-.1a7.342,7.342,0,0,1,3.2,2.969,11.035,11.035,0,0,1,1.345,3.994l-.009.01a11.234,11.234,0,0,1,5.289.109,3.023,3.023,0,0,1,1.312.765,1.22,1.22,0,0,1,.3,1.322,1.442,1.442,0,0,1-1.371.511c-1.929-.077-3.78-1.156-5.521-2.2l-.233-.324a29.284,29.284,0,0,1-5.537-5.282C1107.228,167.922,1106.8,167.19,1107.137,166.689Z" fill="#d8e081"/>
    </g>
    <g id="Group_6207" data-name="Group 6207">
      <path id="Path_2459" data-name="Path 2459" d="M1111.264,163.16a1.109,1.109,0,0,1,1-.448,2.746,2.746,0,0,1,1.18.367,7.1,7.1,0,0,1,2.664,2.664,15.287,15.287,0,0,1,1.39,3.4l-.3-.173a43.909,43.909,0,0,1-4.91-3.523,4.135,4.135,0,0,1-.936-1.048A1.264,1.264,0,0,1,1111.264,163.16Z" fill="#d8e081"/>
    </g>
    <g id="Group_6208" data-name="Group 6208">
      <path id="Path_2460" data-name="Path 2460" d="M1092.97,191.427a4.368,4.368,0,0,1-1.6-1.112c-.4-.512-.469-1.3.019-1.612a1.7,1.7,0,0,1,1.309-.008,12.3,12.3,0,0,1,7.474,6.241Q1096.566,193.179,1092.97,191.427Z" fill="#d8e081"/>
    </g>
    <g id="Group_6209" data-name="Group 6209">
      <path id="Path_2461" data-name="Path 2461" d="M1117.347,169.114l.178.143a10.979,10.979,0,0,1,6.992.849,3.238,3.238,0,0,1,1.031.681,1.12,1.12,0,0,1,.32,1.074c-.2.546-.973.6-1.607.519A12.77,12.77,0,0,1,1117.347,169.114Z" fill="#d8e081"/>
    </g>
    <g id="Group_6210" data-name="Group 6210">
      <path id="Path_2462" data-name="Path 2462" d="M1123.937,163.758a11.025,11.025,0,0,1,8.721-4.758,3.209,3.209,0,0,1,1.171.1,1.482,1.482,0,0,1,.912.757c.283.667-.24,1.28-.778,1.656-2.677,1.873-6.386,2.029-9.9,2.123Z" fill="#d8e081"/>
    </g>
    <g id="Group_6211" data-name="Group 6211">
      <path id="Path_2463" data-name="Path 2463" d="M1109.364,178.73a.413.413,0,0,0-.018-.08l.05.04-.014-.028a9.261,9.261,0,0,1,8.068-.138c.612.3,1.276.811,1.258,1.438-.017.676-.82.955-1.513,1.023a11.63,11.63,0,0,1-7.737-2.182l-.03-.058Z" fill="#d8e081"/>
    </g>
    <g id="Group_6212" data-name="Group 6212">
      <path id="Path_2464" data-name="Path 2464" d="M1121.112,166.316l-.15-.229a18.067,18.067,0,0,1,3.988-.208,9.282,9.282,0,0,1,3.965,1.187,3.026,3.026,0,0,1,.985.826,1.165,1.165,0,0,1,.207,1.132c-.265.577-1.1.6-1.8.492A15.255,15.255,0,0,1,1121.112,166.316Z" fill="#d8e081"/>
    </g>
    <g id="Group_6213" data-name="Group 6213">
      <path id="Path_2465" data-name="Path 2465" d="M1103.352,171.6a1.4,1.4,0,0,1,1.186.032,6.806,6.806,0,0,1,3.381,2.967,12.915,12.915,0,0,1,1.427,4.048,43.793,43.793,0,0,1-5.522-4.855,3.411,3.411,0,0,1-.737-1.1A.931.931,0,0,1,1103.352,171.6Z" fill="#d8e081"/>
    </g>
    <g id="Group_6214" data-name="Group 6214">
      <path id="Path_2466" data-name="Path 2466" d="M1100.2,195.005a.625.625,0,0,0-.035-.069.48.48,0,0,0,.072.035l.047-.031a12.455,12.455,0,0,1,8.26-3.438,2.047,2.047,0,0,1,1.672.5,1.33,1.33,0,0,1-.106,1.71A4.81,4.81,0,0,1,1107,195a31.32,31.32,0,0,1-6.675.168l-.006,0,.007.092c-.016-.035-.032-.066-.047-.1-.087,0-.169-.007-.259-.017Z" fill="#d8e081"/>
    </g>
    <g id="Group_6215" data-name="Group 6215">
      <path id="Path_2467" data-name="Path 2467" d="M1098.378,201.213c.065,0,.127.011.194.009-.083.1-.169.206-.247.307Z" fill="#d8e081"/>
    </g>
    <g id="Group_6216" data-name="Group 6216">
      <path id="Path_2468" data-name="Path 2468" d="M1108.271,196.823a3.359,3.359,0,0,1,1.243.328,1.525,1.525,0,0,1,.813.972,1.289,1.289,0,0,1-.372,1.084,5.185,5.185,0,0,1-2.751,1.343,28.19,28.19,0,0,1-8.632.672,12.948,12.948,0,0,1,3.988-3.3A10.076,10.076,0,0,1,1108.271,196.823Z" fill="#d8e081"/>
    </g>
    <g id="Group_6217" data-name="Group 6217">
      <path id="Path_2469" data-name="Path 2469" d="M1108.9,206.406a1.094,1.094,0,0,1-.281.9,2.538,2.538,0,0,1-.793.549,14.273,14.273,0,0,1-5.543,1.355,41.522,41.522,0,0,1-5.784-.127l.135.215a25.923,25.923,0,0,1-7.808-3.305,3.708,3.708,0,0,1-1.079-.916,1.046,1.046,0,0,1-.089-1.219,1.42,1.42,0,0,1,1.292-.268,10.223,10.223,0,0,1,7.461,5.345l.02-.032a11.163,11.163,0,0,1,8.15-4.179,6.217,6.217,0,0,1,3.231.513A1.873,1.873,0,0,1,1108.9,206.406Z" fill="#d8e081"/>
    </g>
    <g id="Group_6218" data-name="Group 6218">
      <path id="Path_2470" data-name="Path 2470" d="M1096.935,213.14a63.092,63.092,0,0,1,28.4-48.258c1.019-.666-.453-2.228-1.457-1.567-16.893,11.081-27.292,28.978-29,49.587C1094.78,214.14,1096.829,214.371,1096.935,213.14Z" fill="#d8e081"/>
    </g>
  </g>
  <g id="Group_6272" data-name="Group 6272" transform="translate(-907.031 -28.227)">
    <g id="Group_6252" data-name="Group 6252">
      <g id="Group_6221" data-name="Group 6221">
        <g id="Group_6220" data-name="Group 6220">
          <path id="Path_2471" data-name="Path 2471" d="M955.432,198.483c.145-.058.3-.169.3-.325-.008-.174-.214-.264-.391-.3a2.978,2.978,0,0,0-2.657.848l-.011.056a4.144,4.144,0,0,0-2.384-1.319c-.2-.035-.453-.037-.569.129a.376.376,0,0,0,.012.407.956.956,0,0,0,.324.287,4.18,4.18,0,0,0,2.646.586l-.017-.077v0C953.581,198.556,954.577,198.838,955.432,198.483Z" fill="#d8e081"/>
        </g>
      </g>
      <g id="Group_6223" data-name="Group 6223">
        <g id="Group_6222" data-name="Group 6222">
          <path id="Path_2472" data-name="Path 2472" d="M955.664,201.214a.483.483,0,0,0,.28-.164.35.35,0,0,0-.064-.421.846.846,0,0,0-.406-.209,2.86,2.86,0,0,0-2.727.73l-.041.092a4.456,4.456,0,0,0-2.31-1.9c-.2-.073-.467-.116-.6.05a.354.354,0,0,0-.031.362.941.941,0,0,0,.238.3,4.779,4.779,0,0,0,2.722,1.223l0-.012,2.076.019A3.215,3.215,0,0,0,955.664,201.214Z" fill="#d8e081"/>
        </g>
      </g>
      <g id="Group_6225" data-name="Group 6225">
        <g id="Group_6224" data-name="Group 6224">
          <path id="Path_2473" data-name="Path 2473" d="M952.424,206.054a6.8,6.8,0,0,0,2.892.664c.188,0,.418-.029.5-.2.084-.185-.076-.387-.244-.5a2.462,2.462,0,0,0-1.591-.37,7.47,7.47,0,0,0-1.626.365Z" fill="#d8e081"/>
        </g>
      </g>
      <g id="Group_6227" data-name="Group 6227">
        <g id="Group_6226" data-name="Group 6226">
          <path id="Path_2474" data-name="Path 2474" d="M954.812,193.591c-.024-.211-.272-.317-.487-.34a2.085,2.085,0,0,0-1.345.371,3.5,3.5,0,0,0-.96,1.02v.005a3.686,3.686,0,0,0-1.533-.9.872.872,0,0,0-.486.01.4.4,0,0,0-.276.364.539.539,0,0,0,.319.4,3.618,3.618,0,0,0,1.9.279l.113-.061a8.256,8.256,0,0,0,2.349-.686C954.609,193.963,954.836,193.808,954.812,193.591Z" fill="#d8e081"/>
        </g>
      </g>
      <g id="Group_6229" data-name="Group 6229">
        <g id="Group_6228" data-name="Group 6228">
          <path id="Path_2475" data-name="Path 2475" d="M954.136,191.753a.418.418,0,0,0-.221-.317.825.825,0,0,0-.391-.092,2.012,2.012,0,0,0-1.148.37,4.762,4.762,0,0,0-.889.825l.11,0a12.2,12.2,0,0,0,1.916-.245,1.159,1.159,0,0,0,.419-.163A.44.44,0,0,0,954.136,191.753Z" fill="#d8e081"/>
        </g>
      </g>
      <g id="Group_6231" data-name="Group 6231">
        <g id="Group_6230" data-name="Group 6230">
          <path id="Path_2476" data-name="Path 2476" d="M955.311,203.87a1.22,1.22,0,0,0,.619-.067.407.407,0,0,0,.228-.511.564.564,0,0,0-.375-.232,3.5,3.5,0,0,0-3.042.647Z" fill="#d8e081"/>
        </g>
      </g>
      <g id="Group_6233" data-name="Group 6233">
        <g id="Group_6232" data-name="Group 6232">
          <path id="Path_2477" data-name="Path 2477" d="M951.534,192.556l-.071.013a3.481,3.481,0,0,0-2.127-.963.9.9,0,0,0-.393.033.363.363,0,0,0-.248.28c-.02.208.193.36.386.446A3.7,3.7,0,0,0,951.534,192.556Z" fill="#d8e081"/>
        </g>
      </g>
      <g id="Group_6235" data-name="Group 6235">
        <g id="Group_6234" data-name="Group 6234">
          <path id="Path_2478" data-name="Path 2478" d="M950.417,189.71a4.26,4.26,0,0,0-1.816-3.033,1.019,1.019,0,0,0-.351-.173.422.422,0,0,0-.371.077c-.177.16-.114.444-.015.657a6.469,6.469,0,0,0,2.533,2.411Z" fill="#d8e081"/>
        </g>
      </g>
      <g id="Group_6237" data-name="Group 6237">
        <g id="Group_6236" data-name="Group 6236">
          <path id="Path_2479" data-name="Path 2479" d="M952.439,196.987l.011-.015-.015,0,.008-.007a3.076,3.076,0,0,0-2.293-1.464c-.218-.014-.483.031-.569.23-.092.216.1.446.287.588a3.511,3.511,0,0,0,2.533.677l.017-.014Z" fill="#d8e081"/>
        </g>
      </g>
      <g id="Group_6239" data-name="Group 6239">
        <g id="Group_6238" data-name="Group 6238">
          <path id="Path_2480" data-name="Path 2480" d="M950.858,191.013l.076-.046a6.125,6.125,0,0,0-1.112-.769,2.8,2.8,0,0,0-1.31-.324.872.872,0,0,0-.4.086.393.393,0,0,0-.222.32c-.007.229.228.382.444.471A4.441,4.441,0,0,0,950.858,191.013Z" fill="#d8e081"/>
        </g>
      </g>
      <g id="Group_6241" data-name="Group 6241">
        <g id="Group_6240" data-name="Group 6240">
          <path id="Path_2481" data-name="Path 2481" d="M955.189,195.8a.462.462,0,0,0-.345-.2,1.94,1.94,0,0,0-1.4.338,4.117,4.117,0,0,0-.994,1.024,12.281,12.281,0,0,0,2.282-.556,1,1,0,0,0,.372-.216A.354.354,0,0,0,955.189,195.8Z" fill="#d8e081"/>
        </g>
      </g>
      <g id="Group_6243" data-name="Group 6243">
        <g id="Group_6242" data-name="Group 6242">
          <path id="Path_2482" data-name="Path 2482" d="M952.721,203.722c.007,0,.013-.01.02-.015a.089.089,0,0,1-.027,0l-.008-.018a4.71,4.71,0,0,0-1.874-2.537.62.62,0,0,0-.55-.136.48.48,0,0,0-.216.556,1.8,1.8,0,0,0,.709.954,10.351,10.351,0,0,0,1.89,1.229h0l-.013.028.027-.023a.782.782,0,0,0,.076.041Z" fill="#d8e081"/>
        </g>
      </g>
      <g id="Group_6245" data-name="Group 6245">
        <g id="Group_6244" data-name="Group 6244">
          <path id="Path_2483" data-name="Path 2483" d="M952.351,206a.64.64,0,0,1-.058-.031c.01.046.019.094.027.14Z" fill="#d8e081"/>
        </g>
      </g>
      <g id="Group_6247" data-name="Group 6247">
        <g id="Group_6246" data-name="Group 6246">
          <path id="Path_2484" data-name="Path 2484" d="M950.146,202.874a1.026,1.026,0,0,0-.4-.115.44.44,0,0,0-.372.162.5.5,0,0,0-.05.406,2,2,0,0,0,.595.908,9.568,9.568,0,0,0,2.378,1.731,5.217,5.217,0,0,0-.668-1.74A3.549,3.549,0,0,0,950.146,202.874Z" fill="#d8e081"/>
        </g>
      </g>
      <g id="Group_6249" data-name="Group 6249">
        <g id="Group_6248" data-name="Group 6248">
          <path id="Path_2485" data-name="Path 2485" d="M948.586,205.779a.432.432,0,0,0-.05.334,1.011,1.011,0,0,0,.149.313,5.141,5.141,0,0,0,1.394,1.4,14.127,14.127,0,0,0,1.676.978l-.069.044a7.563,7.563,0,0,0,2.715.334,1.034,1.034,0,0,0,.441-.1.364.364,0,0,0,.2-.367c-.031-.155-.187-.249-.332-.313a2.933,2.933,0,0,0-2.91.368v-.013a4.3,4.3,0,0,0-1.735-2.751,1.946,1.946,0,0,0-1-.407A.547.547,0,0,0,948.586,205.779Z" fill="#d8e081"/>
        </g>
      </g>
      <g id="Group_6251" data-name="Group 6251">
        <g id="Group_6250" data-name="Group 6250">
          <path id="Path_2486" data-name="Path 2486" d="M951.048,210.005a25.436,25.436,0,0,0-1.195-20.189c-.2-.388.45-.621.643-.237a26.084,26.084,0,0,1,1.173,20.712C951.52,210.7,950.9,210.411,951.048,210.005Z" fill="#d8e081"/>
        </g>
      </g>
    </g>
    <g id="Group_6258" data-name="Group 6258">
      <g id="Group_6255" data-name="Group 6255" opacity="0.4">
        <g id="Group_6254" data-name="Group 6254">
          <g id="Group_6253" data-name="Group 6253">
            <path id="Path_2487" data-name="Path 2487" d="M953.2,203.319a1.785,1.785,0,0,0,.127,1.424q.915,2.351,2.022,4.62l-.086.066,4.422-.008a2.415,2.415,0,0,0,.924-.121.711.711,0,0,0,.17-1.307,1.67,1.67,0,0,0-.406-.223l-1.949-.77c-.22-.087-.477-.226-.419-.485a.4.4,0,0,1,.256-.275,5.21,5.21,0,0,1,3.022-.18,2.4,2.4,0,0,0,.865.125c.392-.056.787-.451.432-.879a.887.887,0,0,0-.282-.217,9.754,9.754,0,0,0-2.167-.8c-.391-.092-.9-.3-.779-.718a.522.522,0,0,1,.4-.356,7.05,7.05,0,0,1,2.7-.063,1.845,1.845,0,0,0,.673.042c.3-.062.6-.366.351-.714a.709.709,0,0,0-.39-.26l-2.108-.606c-.249-.071-.544-.188-.527-.485a.469.469,0,0,1,.377-.414,8.255,8.255,0,0,1,2.965-.078,1.282,1.282,0,0,0,.925-.07.433.433,0,0,0,.209-.419c-.038-.245-.276-.333-.487-.4l-2.25-.7a.154.154,0,0,1-.007-.293,6.158,6.158,0,0,1,2.769-.3,1.947,1.947,0,0,0,.7.013c.32-.083.609-.43.293-.776a.772.772,0,0,0-.311-.2,12.885,12.885,0,0,0-2.124-.547c.5-.477,1.006-.957,1.509-1.435.369-.35.77-.787.607-1.3a.906.906,0,0,0-.814-.6,1.694,1.694,0,0,0-1.464.86,1.729,1.729,0,0,1-.659.712.522.522,0,0,1-.489-.022c-.246-.161-.217-.465-.224-.73-.006-.231-.1-.512-.327-.552a.432.432,0,0,0-.343.114,1.363,1.363,0,0,0-.312,1.268,2.089,2.089,0,0,1-.119,1.628.649.649,0,0,1-.858.2c-.29-.185-.287-.546-.354-.857s-.332-.654-.654-.491a.485.485,0,0,0-.2.233,3.745,3.745,0,0,0,.023,2.188,3.184,3.184,0,0,1-.016,1.4.352.352,0,0,1-.642.066l-.789-1.4c-.088-.156-.194-.327-.408-.312a.368.368,0,0,0-.277.175.911.911,0,0,0-.02.731q.347,1.38.7,2.758c.08.319.145.7-.138.919a.613.613,0,0,1-.754-.044c-.458-.37-.464-.952-.7-1.429-.146-.287-.508-.56-.775-.289a.461.461,0,0,0-.1.453,15.484,15.484,0,0,0,1.057,2.613,1.409,1.409,0,0,1,.244,1.062.509.509,0,0,1-.551.376c-.256-.041-.392-.294-.5-.519q-.25-.528-.5-1.057c-.171-.361-.4-.77-.838-.764A.706.706,0,0,0,953.2,203.319Z" fill="#00abc4"/>
          </g>
        </g>
      </g>
      <g id="Group_6257" data-name="Group 6257">
        <g id="Group_6256" data-name="Group 6256">
          <path id="Path_2488" data-name="Path 2488" d="M955.612,209.122a26.788,26.788,0,0,1,9.245-15.373c.167-.139.41.1.241.236a26.494,26.494,0,0,0-9.155,15.226C955.9,209.424,955.572,209.335,955.612,209.122Z" fill="#00aeb4"/>
        </g>
      </g>
    </g>
    <g id="Group_6263" data-name="Group 6263" opacity="0.1" style="isolation: isolate">
      <g id="Group_6262" data-name="Group 6262">
        <g id="Group_6261" data-name="Group 6261" clip-path="url(#clip-path)">
          <g id="Group_6260" data-name="Group 6260">
            <g id="Group_6259" data-name="Group 6259">
              <path id="Path_2489" data-name="Path 2489" d="M956.766,200.056c.124.068.249.133.375.2v-.066h1.077v.6c.078.033.152.068.23.105v-.7h1.077v1.149a.365.365,0,0,0,.063.023v-1.306Z" fill="#6c63ff"/>
            </g>
          </g>
        </g>
      </g>
    </g>
    <g id="Group_6265" data-name="Group 6265">
      <g id="Group_6264" data-name="Group 6264">
        <path id="Path_2490" data-name="Path 2490" d="M959.231,210.9l-.054.844-.074,1.2-.031.5-.075,1.2-.033.5-.074,1.2-.853,13.555a2.313,2.313,0,0,1-2.323,2.154h-4.428a2.312,2.312,0,0,1-2.324-2.163l-.851-13.556-.075-1.2-.031-.5-.076-1.2-.031-.5-.074-1.2-.054-.844a1.2,1.2,0,0,1,1.141-1.262h9.118a1.2,1.2,0,0,1,1.205,1.2c0,.023,0,.047,0,.07" fill="#00b0c4"/>
      </g>
    </g>
    <g id="Group_6267" data-name="Group 6267">
      <g id="Group_6266" data-name="Group 6266">
        <path id="Path_2491" data-name="Path 2491" d="M959.177,211.745l-.075,1.193H947.9l-.075-1.193Z" fill="#07a5ac"/>
      </g>
    </g>
    <g id="Group_6269" data-name="Group 6269">
      <g id="Group_6268" data-name="Group 6268">
        <path id="Path_2492" data-name="Path 2492" d="M959.07,213.436,959,214.628H948l-.075-1.192Z" fill="#07a5ac"/>
      </g>
    </g>
    <g id="Group_6271" data-name="Group 6271">
      <g id="Group_6270" data-name="Group 6270">
        <path id="Path_2493" data-name="Path 2493" d="M958.964,215.125l-.074,1.192H948.111l-.076-1.192Z" fill="#07a5ac"/>
      </g>
    </g>
  </g>
  <g id="Group_6343" data-name="Group 6343" transform="translate(-907.031 -28.227)">
    <g id="Group_6274" data-name="Group 6274">
      <g id="Group_6273" data-name="Group 6273">
        <path id="Path_2494" data-name="Path 2494" d="M971.043,193.769a32.3,32.3,0,0,1,10.438-5.888c14.985-5.021,33.057,1.939,40.8,15.713,3.072,5.459,6.1,12.79,12.362,12.817,6.153.025,7.123-5.841,10.949-8.994,3.111-2.564,7.076-2.487,10.759-1.629,6.457,1.505,12.638,5.223,19.34,5.533,7.948.369,13.311-5.126,20.163-8.126a29.151,29.151,0,0,1,40.425,21.771c.2,1.135.263,2.463-.563,3.265a3.857,3.857,0,0,1-2.754.718q-84.8-.008-169.6.011c-1.369,0-2.891-.06-3.863-1.024A4.938,4.938,0,0,1,958.373,225C956.8,213.345,962.07,201.259,971.043,193.769Z" fill="#e0ecb6"/>
      </g>
    </g>
    <g id="Group_6287" data-name="Group 6287">
      <g id="Group_6277" data-name="Group 6277">
        <g id="Group_6276" data-name="Group 6276">
          <g id="Group_6275" data-name="Group 6275">
            <path id="Path_2495" data-name="Path 2495" d="M978.264,196.218c3.991,2.651,7.02,6.9,9.3,11.031a45.085,45.085,0,0,1,5.5,21.3.955.955,0,0,0,1.908,0,47.118,47.118,0,0,0-5.76-22.263c-2.45-4.434-5.714-8.881-9.986-11.717-1.025-.679-1.981.971-.962,1.647Z" fill="#a2d45e"/>
          </g>
        </g>
      </g>
      <g id="Group_6280" data-name="Group 6280">
        <g id="Group_6279" data-name="Group 6279">
          <g id="Group_6278" data-name="Group 6278">
            <path id="Path_2496" data-name="Path 2496" d="M986.323,196.011c-.068-.459-.014-.072,0,.064.013.181.021.361.023.542q.006.354-.013.708c-.007.133-.018.266-.03.4-.006.063-.013.125-.02.189-.018.172.038-.245,0,.025a6.842,6.842,0,0,1-.182.844c-.037.131-.079.26-.127.387-.014.037-.028.072-.041.107-.039.1-.029.073.027-.068a1.061,1.061,0,0,0-.1.207,3.731,3.731,0,0,1-.2.344c-.022.033-.044.063-.065.094-.059.081-.045.062.047-.057a1.119,1.119,0,0,0-.149.17c-.039.04-.077.08-.118.119s-.055.051-.084.075c-.077.064-.056.049.06-.044-.131.047-.265.179-.4.242a.96.96,0,0,0-.34,1.3.978.978,0,0,0,1.3.343c1.955-.988,2.387-3.534,2.332-5.511a8.473,8.473,0,0,0-.086-.99.956.956,0,0,0-1.173-.666.984.984,0,0,0-.665,1.174Z" fill="#a2d45e"/>
          </g>
        </g>
      </g>
      <g id="Group_6283" data-name="Group 6283">
        <g id="Group_6282" data-name="Group 6282">
          <g id="Group_6281" data-name="Group 6281">
            <path id="Path_2497" data-name="Path 2497" d="M980.749,206.561a9.175,9.175,0,0,0,2.589,1.09,4.679,4.679,0,0,0,4.253-.654.956.956,0,0,0,0-1.349.986.986,0,0,0-1.35,0c.185-.147.014-.012-.031.018a2.262,2.262,0,0,1-.208.121c-.032.015-.239.091-.1.052l-.11.032c-.08.024-.343.133-.429.1.041,0,.079-.01.119-.015-.045.005-.092.011-.136.014-.07.005-.138.009-.208.011-.137,0-.277,0-.416-.01-.069,0-.138-.012-.206-.018-.24-.02.212.038-.024,0a8.082,8.082,0,0,1-.843-.189c-.259-.074-.516-.165-.77-.263l-.168-.067c-.171-.069.191.088.016.006-.1-.046-.194-.086-.291-.131a6.539,6.539,0,0,1-.724-.389.963.963,0,0,0-1.3.343.974.974,0,0,0,.342,1.3Z" fill="#a2d45e"/>
          </g>
        </g>
      </g>
      <g id="Group_6286" data-name="Group 6286">
        <g id="Group_6285" data-name="Group 6285">
          <g id="Group_6284" data-name="Group 6284">
            <path id="Path_2498" data-name="Path 2498" d="M984.277,215.478c3.1,1.189,6.6,1.277,9.187-1.057a11.8,11.8,0,0,0,3.268-6.135,9.7,9.7,0,0,0,.322-2.045.954.954,0,0,0-1.907,0c0,.153-.029.306-.042.457.039-.394-.014.071-.031.178q-.045.27-.1.538a14.734,14.734,0,0,1-.811,2.664c.074-.173-.046.1-.071.159-.058.13-.121.261-.183.389-.124.247-.256.488-.4.727a6.377,6.377,0,0,1-.909,1.243,5.3,5.3,0,0,1-2.71,1.664,8.78,8.78,0,0,1-5.106-.622.961.961,0,0,0-1.173.666.977.977,0,0,0,.667,1.174Z" fill="#a2d45e"/>
          </g>
        </g>
      </g>
    </g>
    <g id="Group_6290" data-name="Group 6290">
      <g id="Group_6289" data-name="Group 6289">
        <g id="Group_6288" data-name="Group 6288">
          <path id="Path_2499" data-name="Path 2499" d="M1085.687,229.3c4.4-5.956,13.122-7.383,20.031-7.225,6.756.151,15.069,1.828,19.509,7.418.761.961,2.1-.4,1.347-1.349-4.831-6.08-13.963-7.9-21.307-7.985-7.569-.088-16.471,1.741-21.227,8.178-.73.988.924,1.941,1.647.963Z" fill="#a2d45e"/>
        </g>
      </g>
    </g>
    <g id="Group_6293" data-name="Group 6293">
      <g id="Group_6292" data-name="Group 6292">
        <g id="Group_6291" data-name="Group 6291">
          <path id="Path_2500" data-name="Path 2500" d="M1088.046,218.364a6.719,6.719,0,0,0,.94.066c.218.01.435.024.653.047l.162.02c.242.026-.172-.031-.012,0,.136.021.272.042.408.068a7.788,7.788,0,0,1,.865.212c.14.042.281.09.417.14.065.026.13.055.195.078-.261-.1.008.006.077.038a6.108,6.108,0,0,1,.861.509c.19.135-.089-.085.035.027.064.061.133.114.2.17a4.958,4.958,0,0,1,.373.381c.029.036.059.074.088.106.145.166-.07-.11,0,0,.058.09.125.173.181.261a6.392,6.392,0,0,1,.317.587c.018.036.066.167-.005-.014.02.047.04.1.058.147.043.114.081.23.115.347a6.44,6.44,0,0,1,.184.807.963.963,0,0,0,1.173.668.977.977,0,0,0,.666-1.173,5.993,5.993,0,0,0-2.867-4.251,8.847,8.847,0,0,0-3.832-1.059c-.212-.015-.425-.023-.638-.029-.153-.006-.565-.072-.1.014a.98.98,0,0,0-1.174.665.964.964,0,0,0,.667,1.174Z" fill="#a2d45e"/>
        </g>
      </g>
    </g>
    <g id="Group_6296" data-name="Group 6296">
      <g id="Group_6295" data-name="Group 6295">
        <g id="Group_6294" data-name="Group 6294">
          <path id="Path_2501" data-name="Path 2501" d="M1091.623,213.991c.076.164.2.313.29.469s.164.287.235.437c.042.085.139.381.039.075.031.1.074.189.1.285.066.2.078.429.153.619-.036-.092-.022-.208-.006-.035.005.058.009.113.01.167,0,.116,0,.226-.009.341-.01.183.046-.219,0-.024-.014.059-.023.115-.038.174s-.026.1-.042.145c-.009.029-.018.058-.029.086-.028.078-.028.078,0,0s.032-.073,0,0c-.013.029-.028.057-.042.086a1.644,1.644,0,0,1-.1.173c-.036.06-.076.114-.114.171s-.025.037.043-.052c-.031.039-.062.076-.1.115a.953.953,0,0,0,1.348,1.347,3.66,3.66,0,0,0,.921-1.858,4.229,4.229,0,0,0-.12-1.818,6.185,6.185,0,0,0-.563-1.3c-.108-.191-.254-.37-.345-.567a.961.961,0,0,0-1.307-.343.982.982,0,0,0-.341,1.3Z" fill="#a2d45e"/>
        </g>
      </g>
    </g>
    <g id="Group_6299" data-name="Group 6299">
      <g id="Group_6298" data-name="Group 6298">
        <g id="Group_6297" data-name="Group 6297">
          <path id="Path_2502" data-name="Path 2502" d="M1092.976,219.057c-.211.139-.4.324-.594.483-.029.023-.057.044-.083.068.241-.205.131-.1.067-.056s-.148.109-.224.16a5.419,5.419,0,0,1-.508.306c-.09.046-.187.083-.273.131.237-.136.106-.046.034-.017l-.15.053a3.152,3.152,0,0,1-.337.091c-.051.01-.107.018-.159.031-.076.013-.037.007.115-.015-.035,0-.072.006-.109.01-.11.008-.223.009-.337.007-.056,0-.114-.014-.172-.015.268.008.1.012.023,0-.119-.027-.235-.065-.351-.1-.179-.056.182.088-.04-.019-.07-.035-.139-.072-.208-.113a.953.953,0,1,0-.962,1.646,3.652,3.652,0,0,0,1.937.51,4.468,4.468,0,0,0,1.77-.461,6.23,6.23,0,0,0,1.2-.774c.11-.087.219-.175.324-.265.126-.106.3-.212,0-.012a.953.953,0,1,0-.963-1.645Z" fill="#a2d45e"/>
        </g>
      </g>
    </g>
    <g id="Group_6312" data-name="Group 6312">
      <g id="Group_6302" data-name="Group 6302">
        <g id="Group_6301" data-name="Group 6301">
          <g id="Group_6300" data-name="Group 6300">
            <path id="Path_2503" data-name="Path 2503" d="M1014.16,207.106a21,21,0,0,1-2.806,9.347,30.675,30.675,0,0,1-10.1,11.083c-1.017.677-.063,2.329.964,1.645A32.692,32.692,0,0,0,1013,217.416a23.049,23.049,0,0,0,3.068-10.31.954.954,0,0,0-1.907,0Z" fill="#a2d45e"/>
          </g>
        </g>
      </g>
      <g id="Group_6305" data-name="Group 6305">
        <g id="Group_6304" data-name="Group 6304">
          <g id="Group_6303" data-name="Group 6303">
            <path id="Path_2504" data-name="Path 2504" d="M1017.421,211.468q-.033.025-.066.054c-.162.132.162-.12.081-.062-.1.072-.195.144-.3.211a6.528,6.528,0,0,1-.9.515c-.041.016-.084.035-.125.055.272-.133.127-.052.058-.025q-.143.053-.285.1c-.1.03-.2.057-.294.079-.047.01-.091.019-.138.027l-.091.015.164-.023a.789.789,0,0,1-.3.016c-.052,0-.106,0-.159,0-.164-.009.248.047.075.011a2.469,2.469,0,0,1-.263-.066l-.087-.031c.049.019.1.04.144.06-.048,0-.127-.064-.167-.089a.955.955,0,0,0-.962,1.649,3.565,3.565,0,0,0,3.266-.072,6.64,6.64,0,0,0,1.7-1.072.958.958,0,0,0,0-1.347.977.977,0,0,0-1.349,0Z" fill="#a2d45e"/>
          </g>
        </g>
      </g>
      <g id="Group_6308" data-name="Group 6308">
        <g id="Group_6307" data-name="Group 6307">
          <g id="Group_6306" data-name="Group 6306">
            <path id="Path_2505" data-name="Path 2505" d="M1009.13,212.423a6.809,6.809,0,0,0,.2,1.45,4.961,4.961,0,0,0,1.028,2.144,2.844,2.844,0,0,0,1.272.822.961.961,0,0,0,1.174-.665.973.973,0,0,0-.667-1.173.381.381,0,0,0-.1-.037c-.011,0,.212.1.143.06a.545.545,0,0,1-.05-.023,1.486,1.486,0,0,1-.215-.125c-.128-.087.045.023.078.064a1.049,1.049,0,0,0-.081-.068,1.706,1.706,0,0,1-.166-.164c-.024-.026-.046-.053-.07-.082-.1-.123.093.129.061.08-.043-.066-.091-.129-.133-.195a4.6,4.6,0,0,1-.219-.424c-.06-.133.092.228.039.092-.013-.035-.027-.069-.04-.1-.027-.075-.052-.149-.077-.224-.045-.144-.087-.29-.123-.438-.029-.132-.057-.263-.08-.393-.012-.063-.021-.124-.029-.188-.034-.207.032.278.005.057a4.094,4.094,0,0,1-.036-.469.953.953,0,1,0-1.907,0Z" fill="#a2d45e"/>
          </g>
        </g>
      </g>
      <g id="Group_6311" data-name="Group 6311">
        <g id="Group_6310" data-name="Group 6310">
          <g id="Group_6309" data-name="Group 6309">
            <path id="Path_2506" data-name="Path 2506" d="M1005.318,217.888c.5,2.314,1.822,4.48,4.225,5.123a8.377,8.377,0,0,0,4.948-.4,6.918,6.918,0,0,0,1.364-.6c1.033-.657.078-2.31-.96-1.646a3.079,3.079,0,0,1-.28.145c-.077.039-.157.072-.237.109-.2.091.069-.023.037-.013-.066.021-.13.052-.194.078a10.021,10.021,0,0,1-1.8.523c-.09.019-.181.031-.269.049-.224.041.119-.008-.058.009-.2.018-.4.042-.6.048-.181.009-.362.009-.542,0-.1,0-.194-.012-.291-.018l-.144-.018c.068.008.154.026.036.006a5.852,5.852,0,0,1-.576-.128c-.1-.028-.191-.06-.284-.091-.036-.011-.071-.027-.106-.038-.109-.041.15.072-.015,0a5.546,5.546,0,0,1-.54-.3c-.034-.024-.242-.168-.162-.11.049.037-.162-.135-.215-.184-.093-.087-.182-.179-.268-.273-.033-.035-.247-.3-.16-.183a5.233,5.233,0,0,1-.455-.735,7.367,7.367,0,0,1-.616-1.855.954.954,0,0,0-1.84.506Z" fill="#a2d45e"/>
          </g>
        </g>
      </g>
    </g>
    <g id="Group_6322" data-name="Group 6322">
      <g id="Group_6315" data-name="Group 6315">
        <g id="Group_6314" data-name="Group 6314">
          <g id="Group_6313" data-name="Group 6313">
            <path id="Path_2507" data-name="Path 2507" d="M1066.3,213.524c-6.7.458-9.841,7.18-10.975,13q-.129.665-.227,1.335c-.031.207-.059.415-.087.622-.039.3.042-.235.005-.036-.226,1.2,1.613,1.715,1.84.508.02-.117.032-.238.047-.357.037-.272-.036.24.009-.057.048-.328.1-.654.155-.98a27.8,27.8,0,0,1,.748-3.189,14.963,14.963,0,0,1,4.051-7.089,7.464,7.464,0,0,1,4.434-1.851c1.219-.082,1.228-1.989,0-1.9Z" fill="#a2d45e"/>
          </g>
        </g>
      </g>
      <g id="Group_6318" data-name="Group 6318">
        <g id="Group_6317" data-name="Group 6317">
          <g id="Group_6316" data-name="Group 6316">
            <path id="Path_2508" data-name="Path 2508" d="M1057.874,211.386a4.368,4.368,0,0,0-.986,4.414,6.129,6.129,0,0,0,.789,1.842,2.325,2.325,0,0,0,1.342,1.123.954.954,0,0,0,.507-1.84.285.285,0,0,1-.1-.026c.024.012.266.119.122.041s.074.034.082.073c0-.024-.094-.082-.113-.1-.046-.045-.113-.168-.172-.191.1.133.123.16.065.081-.014-.021-.029-.04-.044-.059-.033-.051-.066-.1-.1-.151-.063-.1-.12-.2-.174-.308-.04-.079-.1-.3-.166-.348.058.134.065.154.027.059l-.033-.089c-.026-.069-.05-.138-.074-.209-.045-.132-.083-.267-.12-.4s-.066-.277-.09-.419c-.007-.044-.015-.087-.02-.13,0,.041.009.081.015.121a.888.888,0,0,1-.026-.263c-.01-.131-.012-.264-.011-.4,0-.088.007-.175.014-.262,0-.022,0-.045.005-.064.012-.107.009-.088-.008.059a1.779,1.779,0,0,1,.1-.439c.008-.03.04-.175.063-.182-.055.121-.065.147-.034.081a.723.723,0,0,1,.04-.085,2.806,2.806,0,0,1,.234-.383c-.141.2-.018.031.02-.009.061-.066.127-.128.194-.189a.958.958,0,0,0,0-1.347.977.977,0,0,0-1.349,0Z" fill="#a2d45e"/>
          </g>
        </g>
      </g>
      <g id="Group_6321" data-name="Group 6321">
        <g id="Group_6320" data-name="Group 6320">
          <g id="Group_6319" data-name="Group 6319">
            <path id="Path_2509" data-name="Path 2509" d="M1057.425,224.6c.109,0-.33-.074-.1,0-.27-.087-.158-.07-.021,0,.173.087.343.179.517.265a6.036,6.036,0,0,0,1.665.571,6.612,6.612,0,0,0,5.362-1.838.963.963,0,0,0,0-1.348.976.976,0,0,0-1.349,0,7.218,7.218,0,0,1-1.263.867,3.417,3.417,0,0,1-.993.391c-.093.025-.187.045-.282.064-.054.011-.344.039-.1.02-.16.013-.319.025-.479.025s-.3-.016-.449-.027c.275.021.028,0-.037-.008s-.143-.029-.215-.046a6.434,6.434,0,0,1-.713-.228c-.163-.06.222.1-.011-.007-.043-.021-.089-.041-.132-.061-.092-.045-.186-.092-.279-.14a2.464,2.464,0,0,0-1.123-.407.954.954,0,1,0,0,1.908Z" fill="#a2d45e"/>
          </g>
        </g>
      </g>
    </g>
    <g id="Group_6332" data-name="Group 6332">
      <g id="Group_6325" data-name="Group 6325">
        <g id="Group_6324" data-name="Group 6324">
          <g id="Group_6323" data-name="Group 6323">
            <path id="Path_2510" data-name="Path 2510" d="M972.257,213.511c-6.7.458-9.842,7.179-10.975,13q-.13.664-.228,1.338c-.029.205-.059.412-.087.62-.039.3.042-.236.007-.035-.227,1.2,1.611,1.714,1.838.507.02-.118.033-.239.048-.358.037-.27-.036.24.008-.058.047-.327.1-.653.156-.979a28.116,28.116,0,0,1,.747-3.19,14.966,14.966,0,0,1,4.051-7.087,7.45,7.45,0,0,1,4.435-1.85c1.218-.084,1.227-1.991,0-1.906Z" fill="#a2d45e"/>
          </g>
        </g>
      </g>
      <g id="Group_6328" data-name="Group 6328">
        <g id="Group_6327" data-name="Group 6327">
          <g id="Group_6326" data-name="Group 6326">
            <path id="Path_2511" data-name="Path 2511" d="M963.827,211.372a4.369,4.369,0,0,0-.985,4.416,6.148,6.148,0,0,0,.787,1.84,2.325,2.325,0,0,0,1.343,1.123.954.954,0,1,0,.506-1.84.314.314,0,0,1-.1-.026c.024.014.267.12.123.042s.074.033.081.072c0-.023-.094-.082-.111-.1-.049-.046-.114-.171-.174-.193.1.133.123.16.065.082l-.041-.06c-.036-.049-.068-.1-.1-.151-.063-.1-.121-.2-.176-.308-.04-.079-.1-.3-.164-.347.055.134.064.153.026.058-.012-.03-.023-.058-.033-.088-.027-.069-.051-.138-.075-.209-.045-.133-.083-.267-.119-.4s-.066-.277-.089-.419a1.171,1.171,0,0,1-.022-.132c.005.044.01.084.016.124a.867.867,0,0,1-.027-.264c-.01-.133-.012-.264-.011-.4,0-.088.007-.174.013-.261,0-.023.006-.044.008-.065.011-.107.007-.088-.01.059a1.869,1.869,0,0,1,.1-.437c.009-.034.041-.177.063-.182-.053.119-.064.145-.035.08a.95.95,0,0,1,.041-.086,3.089,3.089,0,0,1,.235-.385c-.141.205-.018.033.019-.007a2.662,2.662,0,0,1,.2-.188.958.958,0,0,0,0-1.348.98.98,0,0,0-1.35,0Z" fill="#a2d45e"/>
          </g>
        </g>
      </g>
      <g id="Group_6331" data-name="Group 6331">
        <g id="Group_6330" data-name="Group 6330">
          <g id="Group_6329" data-name="Group 6329">
            <path id="Path_2512" data-name="Path 2512" d="M963.378,224.589c.109,0-.33-.073-.1,0-.272-.088-.159-.07-.021,0,.173.088.343.18.517.265a6.146,6.146,0,0,0,1.664.573,6.616,6.616,0,0,0,5.362-1.838.965.965,0,0,0,0-1.352.98.98,0,0,0-1.35,0,7.04,7.04,0,0,1-1.262.869,3.448,3.448,0,0,1-.992.391c-.093.026-.188.047-.283.066-.053.008-.342.038-.1.018-.158.014-.319.025-.479.025s-.3-.015-.447-.027c.273.022.027,0-.039-.008s-.143-.029-.215-.046a6.162,6.162,0,0,1-.713-.228c-.161-.059.223.1-.009-.007-.045-.019-.09-.04-.132-.061l-.281-.138a2.437,2.437,0,0,0-1.123-.407.953.953,0,1,0,0,1.9Z" fill="#a2d45e"/>
          </g>
        </g>
      </g>
    </g>
    <g id="Group_6342" data-name="Group 6342">
      <g id="Group_6335" data-name="Group 6335">
        <g id="Group_6334" data-name="Group 6334">
          <g id="Group_6333" data-name="Group 6333">
            <path id="Path_2513" data-name="Path 2513" d="M1120.989,206.111c-6.7.459-9.84,7.181-10.975,13-.086.444-.163.889-.228,1.338-.03.205-.056.412-.086.62-.04.3.043-.235.006-.036-.225,1.2,1.612,1.715,1.838.508.021-.117.032-.238.048-.357.036-.271-.036.24.008-.059.05-.326.1-.652.155-.978a28.711,28.711,0,0,1,.748-3.19,14.98,14.98,0,0,1,4.053-7.088,7.441,7.441,0,0,1,4.433-1.849c1.217-.083,1.227-1.992,0-1.908Z" fill="#a2d45e"/>
          </g>
        </g>
      </g>
      <g id="Group_6338" data-name="Group 6338">
        <g id="Group_6337" data-name="Group 6337">
          <g id="Group_6336" data-name="Group 6336">
            <path id="Path_2514" data-name="Path 2514" d="M1112.56,203.974a4.374,4.374,0,0,0-.986,4.415,6.1,6.1,0,0,0,.788,1.84,2.328,2.328,0,0,0,1.342,1.124.977.977,0,0,0,1.174-.667.966.966,0,0,0-.668-1.173.281.281,0,0,1-.1-.027c.023.014.266.119.122.042s.074.033.082.073c0-.024-.094-.082-.112-.1-.046-.046-.115-.169-.171-.192.1.132.123.16.064.081a.594.594,0,0,1-.043-.06c-.035-.049-.067-.1-.1-.15-.062-.1-.121-.2-.175-.309-.041-.078-.095-.3-.165-.346.057.133.064.153.026.058a.9.9,0,0,1-.032-.089c-.026-.067-.052-.138-.075-.209-.045-.133-.083-.266-.12-.4s-.065-.278-.088-.419c-.01-.044-.016-.087-.024-.132.006.043.012.083.018.123a.831.831,0,0,1-.028-.264c-.009-.132-.011-.263-.009-.4,0-.088.006-.175.011-.262,0-.022.006-.045.008-.064.013-.108.01-.088-.01.058a1.769,1.769,0,0,1,.1-.436c.01-.034.039-.177.062-.184l-.035.081c.014-.029.028-.056.041-.086a3.364,3.364,0,0,1,.235-.384c-.141.205-.018.033.019-.007a2.655,2.655,0,0,1,.2-.189.956.956,0,0,0,0-1.347.977.977,0,0,0-1.349,0Z" fill="#a2d45e"/>
          </g>
        </g>
      </g>
      <g id="Group_6341" data-name="Group 6341">
        <g id="Group_6340" data-name="Group 6340">
          <g id="Group_6339" data-name="Group 6339">
            <path id="Path_2515" data-name="Path 2515" d="M1112.111,217.19c.109,0-.33-.074-.1,0-.273-.088-.158-.07-.023,0,.173.088.342.18.518.266a6.106,6.106,0,0,0,1.662.572,6.615,6.615,0,0,0,5.364-1.838.966.966,0,0,0,0-1.351.979.979,0,0,0-1.35,0,7.087,7.087,0,0,1-1.263.869,3.506,3.506,0,0,1-.992.391c-.094.025-.188.047-.282.065-.053.009-.344.04-.1.019-.16.013-.32.025-.48.025s-.3-.016-.448-.027c.274.021.027,0-.037-.008s-.144-.029-.217-.046a6.76,6.76,0,0,1-.711-.228c-.163-.06.221.1-.01-.007l-.133-.061c-.1-.047-.187-.092-.279-.14a2.488,2.488,0,0,0-1.124-.407.953.953,0,0,0,0,1.906Z" fill="#a2d45e"/>
          </g>
        </g>
      </g>
    </g>
  </g>
  <path id="Path_2516" data-name="Path 2516" d="M1153.643,238.471c0,5.042-50.97,9.13-113.848,9.13s-113.846-4.088-113.846-9.13,50.971-9.128,113.846-9.128S1153.643,233.427,1153.643,238.471Z" transform="translate(-907.031 -28.227)" fill="#a0bcff" opacity="0.3"/>
  <g id="Group_6358" data-name="Group 6358" transform="translate(-907.031 -28.227)">
    <g id="Group_6344" data-name="Group 6344">
      <rect id="Rectangle_3180" data-name="Rectangle 3180" width="17.191" height="6.704" transform="translate(1136.173 75.104) rotate(-79.332)" fill="#00b0c4"/>
      <path id="Path_2517" data-name="Path 2517" d="M1137.012,75.251l-6.31-1.188,3.184-16.895,6.589,1.241Z" fill="#00b0c4"/>
      <rect id="Rectangle_3181" data-name="Rectangle 3181" width="26.304" height="11.002" transform="translate(1124.514 77.543) rotate(-79.319)" fill="#00b0c4"/>
    </g>
    <g id="Group_6357" data-name="Group 6357">
      <path id="Path_2518" data-name="Path 2518" d="M1066.237,108.59a8.081,8.081,0,0,1-6.276-3.45c-2.3-3.45-4.886-14.757-6.132-17.727s-3.545-16.289-3.257-17.727,1.821-2.875,3.066-3.641.576-3.162.383-5.941a12.933,12.933,0,0,1,.049-1.761c.071-.287-1.509-.432-1.834,1.975s-3.843,1.117-4.958,1.044-3.629.251-3.09,3.125,1.078,4.063.933,4.78a53.146,53.146,0,0,0,.074,9.091c.358,4.311,2.765,20.337,4.274,25.3s5.247,12.719,7.044,16.456a57.692,57.692,0,0,1,3.818,12c.566,2.877,4.661-3.374,5.525-5.89s1.436-11.284,1.436-11.785S1066.237,108.59,1066.237,108.59Z" fill="#ffcc8b"/>
      <path id="Path_2519" data-name="Path 2519" d="M1084.231,108.686s-.669,2.3-1.518,5.127-3.081,3.785-6.688,3.831a7.379,7.379,0,0,1-6.933-3.786,47.94,47.94,0,0,1-1.8-5.039s2.949.49,3.862-.039c.467-.271.531-1.9.481-3.418-.049-1.422-.2-2.746-.2-2.746l9.679.273s0,1.191.009,2.473c.005.986.018,2.022.039,2.606C1081.212,109.309,1084.231,108.686,1084.231,108.686Z" fill="#ffbb71"/>
      <path id="Path_2520" data-name="Path 2520" d="M1096.175,226.523c0,.159,0,.31,0,.46,0,1.212.03,2.165.085,2.626a5.251,5.251,0,0,1-.1,1.438c-.362,1.974-1.51,4.676-2.776,4.6-1.628-.094-2.4-1.82-2.2-3.738.036-.374.094-.747.153-1.127a14.814,14.814,0,0,0,.261-3.3.9.9,0,0,1-.008-.114v-.013a11.929,11.929,0,0,0-.406-2.34c-.862-3.162-4.121-12.841-4.5-16.1s.192-6.037-.575-7.283a10.115,10.115,0,0,1-.827-2.551c-.364-1.607-.609-3.293-.609-3.293l9.869-2.014a26.633,26.633,0,0,0-.331,4.035c0,.292.016.581.042.852.193,2.013,1.056,3.641,1.918,6.42a27.139,27.139,0,0,1,.766,11.6A59.266,59.266,0,0,0,1096.175,226.523Z" fill="#ffcc8b"/>
      <path id="Path_2521" data-name="Path 2521" d="M1091.257,227.81a29.677,29.677,0,0,0-1.467,7.638c-.092,3.254.1,7.483,2.64,7.944s4.2-.307,4.5-8.611-.318-7.587-1.124-7.919C1094.836,226.462,1091.577,226.694,1091.257,227.81Z" fill="#2a4163"/>
      <path id="Path_2522" data-name="Path 2522" d="M1096.159,231.047a2.57,2.57,0,0,1-2.508,1.679,2.252,2.252,0,0,1-2.319-1.945,14.814,14.814,0,0,0,.261-3.3c-.211-1.615,3.527-1.1,4.582-.955-.011,1.427.02,2.567.082,3.086A5.251,5.251,0,0,1,1096.159,231.047Z" fill="#ffcc8b"/>
      <path id="Path_2523" data-name="Path 2523" d="M1070.434,195.786s-.245,1.675-.607,3.279a10.1,10.1,0,0,1-.828,2.565c-.768,1.246-.193,4.025-.576,7.283s-3.641,12.936-4.5,16.1a12.028,12.028,0,0,0-.408,2.34v.013a.744.744,0,0,1-.007.114,14.88,14.88,0,0,0,.261,3.3c.06.38.117.753.154,1.127.192,1.918-.576,3.644-2.2,3.738-1.267.077-2.415-2.625-2.777-4.6a5.342,5.342,0,0,1-.1-1.438c.054-.461.086-1.414.086-2.626,0-.15,0-.3,0-.46a59.285,59.285,0,0,0-.752-9.849,27.139,27.139,0,0,1,.765-11.6c.863-2.779,1.724-4.407,1.917-6.42.026-.265.04-.547.043-.834a26.284,26.284,0,0,0-.332-4.053Z" fill="#ffcc8b"/>
      <path id="Path_2524" data-name="Path 2524" d="M1063.841,227.81a29.676,29.676,0,0,1,1.467,7.638c.093,3.254-.1,7.483-2.639,7.944s-4.2-.307-4.5-8.611.317-7.587,1.123-7.919C1060.262,226.462,1063.519,226.694,1063.841,227.81Z" fill="#2a4163"/>
      <path id="Path_2525" data-name="Path 2525" d="M1058.939,231.047a2.567,2.567,0,0,0,2.508,1.679,2.251,2.251,0,0,0,2.318-1.945,14.876,14.876,0,0,1-.26-3.3c.21-1.615-3.527-1.1-4.582-.955a30.665,30.665,0,0,1-.084,3.086A5.269,5.269,0,0,0,1058.939,231.047Z" fill="#ffcc8b"/>
      <path id="Path_2526" data-name="Path 2526" d="M1064.78,91.258s1.142,9.846,8.158,11.571-2.23-5.857-2.014-7.368a48.753,48.753,0,0,0-.035-5.137C1070.924,88.887,1064.78,91.258,1064.78,91.258Z" fill="#144998"/>
      <path id="Path_2527" data-name="Path 2527" d="M1087.346,86.622s-.157,6.137,0,8.174c.216,2.786-4.814,9.485-8.085,7.437s1.223-10.032,1.438-12.373,1.46-4.064,2.975-4.279S1087.346,86.622,1087.346,86.622Z" fill="#144998"/>
      <path id="Path_2528" data-name="Path 2528" d="M1086.533,108.59a8.079,8.079,0,0,0,6.275-3.45c2.3-3.45,4.887-14.757,6.133-17.727s3.545-16.289,3.258-17.727-1.822-2.875-3.067-3.641-.576-3.162-.383-5.941a12.927,12.927,0,0,0-.049-1.761c-.071-.287,1.509-.432,1.833,1.975s3.844,1.117,4.958,1.044,3.631.251,3.091,3.125-1.078,4.063-.933,4.78a53.247,53.247,0,0,1-.074,9.091c-.358,4.311-2.765,20.337-4.274,25.3s-5.247,12.719-7.044,16.456a57.764,57.764,0,0,0-3.818,12c-.566,2.877-4.662-3.374-5.524-5.89s-1.437-11.284-1.437-11.785S1086.533,108.59,1086.533,108.59Z" fill="#ffcc8b"/>
      <path id="Path_2529" data-name="Path 2529" d="M1069.092,89.845s.5,9.21.862,10.685,3.954,5.627,5.822,5.766,5.892-2.6,6.827-5.553.288-9.352.647-11.814-2.731-5.274-3.881-6.045-8.047,2.6-8.7,3.936S1069.092,89.845,1069.092,89.845Z" fill="#ffcc8b"/>
      <path id="Path_2530" data-name="Path 2530" d="M1079.081,85.545s-4.959,6.181-10.995,6.827-3.594-1.869-3.306-3.414-1.078-3.664,2.084-4.959c2.352-.961,2.444-3.055,3.163-3.7a7.609,7.609,0,0,1,8.121,0c3.449,2.3,5.677-.574,8.48,2.013s.766,8.264-1.367,8.622S1079.081,85.545,1079.081,85.545Z" fill="#144998"/>
      <path id="Path_2531" data-name="Path 2531" d="M1127.658,65.728a337.036,337.036,0,0,0-102.726,0q-.2-1.485-.39-2.963a339.7,339.7,0,0,1,103.5,0Q1127.854,64.245,1127.658,65.728Z" fill="#00b0c4"/>
      <g id="Group_6345" data-name="Group 6345">
        <rect id="Rectangle_3182" data-name="Rectangle 3182" width="6.704" height="17.192" transform="translate(1008.532 57.812) rotate(-10.669)" fill="#00b0c4"/>
        <path id="Path_2532" data-name="Path 2532" d="M1017.464,73.612l6.31-1.189L1020.59,55.53,1014,56.771Z" fill="#00b0c4"/>
        <rect id="Rectangle_3183" data-name="Rectangle 3183" width="11.002" height="26.303" transform="translate(1014.277 52.095) rotate(-10.671)" fill="#00b0c4"/>
      </g>
      <path id="Path_2533" data-name="Path 2533" d="M1100.067,59.315c.035-.975.215-1.941,3.448-1.654s5.576,1.617,5.143,4.024-3.37,2.408-4.64,2.264a3.512,3.512,0,0,1-3.125-1.581A4.858,4.858,0,0,1,1100.067,59.315Z" fill="#ffb173"/>
      <path id="Path_2534" data-name="Path 2534" d="M1052.7,59.315c-.035-.975-.215-1.941-3.45-1.654s-5.574,1.617-5.141,4.024,3.37,2.408,4.64,2.264a3.515,3.515,0,0,0,3.126-1.581A4.877,4.877,0,0,0,1052.7,59.315Z" fill="#ffb173"/>
      <path id="Path_2535" data-name="Path 2535" d="M1098.749,194.731c-1.246,1.34-4.408,1.245-7.187.959s-10.156,1.627-11.5,1.34-1.917-23.57-1.917-23.57-2.394,23.188-3.928,23.57-6.515,1.152-9.1,0-7-.574-8.144-1.244.766-7.666,2.178-14.374c.86-4.073,1.321-11.292,1.55-16.335.148-3.258.2-5.608.2-5.608s4.457-1.085,8.62-1.693a19.366,19.366,0,0,1,6.136-.223c2.93.753,12.594-.177,15.368,1.942a1.775,1.775,0,0,1,.73,1.124c.127.78.6,2.81,1.242,5.511C1095.274,175.69,1099.72,193.684,1098.749,194.731Z" fill="#b8b8bc"/>
      <path id="Path_2536" data-name="Path 2536" d="M1092.338,165.853c-.079.005-.159.005-.245.005a21.757,21.757,0,0,1-3.35-.444c-.081-.016-.165-.028-.245-.048-1.073-.194-2.224-.416-3.349-.583-.083-.012-.164-.026-.245-.036a19.955,19.955,0,0,0-2.78-.234c-.187,0-.378-.006-.568-.017-.08,0-.161-.005-.244-.01a21.959,21.959,0,0,1-3.35-.5c-.081-.017-.164-.037-.245-.055-1.139-.257-2.268-.57-3.35-.874l-.245-.072c-1.209-.34-2.346-.667-3.352-.883-.083-.017-.164-.034-.245-.048a10.573,10.573,0,0,0-1.385-.2,6.421,6.421,0,0,0-1.962.238c-.081.018-.161.038-.245.062a29.239,29.239,0,0,0-3.344,1.216c-.08.034-.162.065-.242.1a14.871,14.871,0,0,1-3.352,1.158,1.1,1.1,0,0,1-.244,0,.6.6,0,0,1-.241-.064c-.688-.369-.261-5.343.214-10.437.08-.853.161-1.707.236-2.545.233-2.527.432-4.894.461-6.527.1-5.414-.05-12.715-.05-12.715s1.606-1.125,2.864-4.438c.083-.214.164-.441.242-.679a24.387,24.387,0,0,0,1.112-5.659,99.431,99.431,0,0,0,.428-13.123s.791.057,1.75.106c.081,0,.164.009.244.011a16.4,16.4,0,0,0,2.943-.017c.2-.057.274.574.409,1.512v.007c.065.43.141.936.251,1.462v.008c.393,1.919,1.214,4.2,3.363,5.022.078.032.161.059.245.085a5.238,5.238,0,0,0,1.625.228,5.683,5.683,0,0,0,1.722-.269c.083-.027.167-.054.245-.086a6.13,6.13,0,0,0,3.337-3.543c.088-.207.169-.416.242-.625v-.005a13.708,13.708,0,0,0,.731-3.8s1.292.07,2.607.085h.243a14.507,14.507,0,0,0,2.084-.085c1.245-.2-.909,4.5,1.054,12.975q.127.543.254,1.048v.014c.083.328.163.633.246.938v.013c1.313,4.845,2.692,7.134,3.374,8.045v0c.1.131.18.229.248.305a2.722,2.722,0,0,0,.19.206s.239,30.794.862,32.937C1093.45,165.587,1093.07,165.817,1092.338,165.853Z" fill="#a2d45e"/>
      <g id="Group_6356" data-name="Group 6356">
        <g id="Group_6346" data-name="Group 6346">
          <path id="Path_2537" data-name="Path 2537" d="M1059.995,164.629a1.1,1.1,0,0,1-.244,0l-.027-10.5c.08-.853.161-1.707.236-2.545Z" fill="#61a60e"/>
        </g>
        <g id="Group_6347" data-name="Group 6347">
          <path id="Path_2538" data-name="Path 2538" d="M1063.589,163.371c-.08.034-.162.065-.242.1l-.112-35.568c.083-.214.164-.441.242-.679Z" fill="#61a60e"/>
        </g>
        <g id="Group_6348" data-name="Group 6348">
          <path id="Path_2539" data-name="Path 2539" d="M1067.178,162.093c-.081.018-.161.038-.245.062l-.166-53.607c.081,0,.164.009.244.011Z" fill="#61a60e"/>
        </g>
        <g id="Group_6349" data-name="Group 6349">
          <path id="Path_2540" data-name="Path 2540" d="M1070.77,162.1c-.083-.017-.164-.034-.245-.048l-.162-52c.065.43.141.936.251,1.462v.008Z" fill="#61a60e"/>
        </g>
        <g id="Group_6350" data-name="Group 6350">
          <path id="Path_2541" data-name="Path 2541" d="M1074.367,163.06l-.245-.072-.145-46.435c.078.032.161.059.245.085Z" fill="#61a60e"/>
        </g>
        <g id="Group_6351" data-name="Group 6351">
          <path id="Path_2542" data-name="Path 2542" d="M1077.962,163.989c-.081-.017-.164-.037-.245-.055l-.148-47.337c.083-.027.167-.054.245-.086Z" fill="#61a60e"/>
        </g>
        <g id="Group_6352" data-name="Group 6352">
          <path id="Path_2543" data-name="Path 2543" d="M1081.556,164.5c-.08,0-.161-.005-.244-.01l-.161-51.518c.088-.207.169-.416.242-.625Z" fill="#61a60e"/>
        </g>
        <g id="Group_6353" data-name="Group 6353">
          <path id="Path_2544" data-name="Path 2544" d="M1085.149,164.783c-.083-.012-.164-.026-.245-.036l-.173-56.124h.243Z" fill="#61a60e"/>
        </g>
        <g id="Group_6354" data-name="Group 6354">
          <path id="Path_2545" data-name="Path 2545" d="M1088.743,165.414c-.081-.016-.165-.028-.245-.048l-.132-42.791c.083.328.163.633.246.938v.013Z" fill="#61a60e"/>
        </g>
        <g id="Group_6355" data-name="Group 6355">
          <path id="Path_2546" data-name="Path 2546" d="M1092.338,165.853c-.079.005-.159.005-.245.005l-.107-34.283c.1.131.18.229.248.305Z" fill="#61a60e"/>
        </g>
      </g>
      <path id="Path_2547" data-name="Path 2547" d="M1087.75,82.884a3.146,3.146,0,0,0-3.647-1.755,19.35,19.35,0,0,1-3.393.4l-.006-.275a19.114,19.114,0,0,0,3.335-.393,3.433,3.433,0,0,1,3.972,1.934Z" fill="#895d9b"/>
      <path id="Path_2548" data-name="Path 2548" d="M1063.57,89.976l-.152-.229s.411-.332.765-2.144c.38-1.951.906-2.265.966-2.295l.122.247-.061-.124.066.121c-.005,0-.473.3-.824,2.1C1064.074,89.594,1063.619,89.942,1063.57,89.976Z" fill="#895d9b"/>
    </g>
  </g>
  <g id="Group_6360" data-name="Group 6360" transform="translate(-907.031 -28.227)">
    <path id="Path_2549" data-name="Path 2549" d="M916.24,183.816c.726.423,33.858,6.107,35.491,5.866.969-.144,2.772-1.845,4.075-3.2.889-.928,1.549-1.7,1.549-1.7l-10.884-7.377a2.145,2.145,0,0,1-1.5,1.36,2.077,2.077,0,0,1-.354.033c-1.389,0-5.717-2.438-9.02-2.691-2.748-.212-7.807,1.662-10.709,2.146s-7.437-.666-7.437-.666S915.515,183.394,916.24,183.816Z" fill="#ffba85"/>
    <path id="Path_2550" data-name="Path 2550" d="M986.373,226.561a4.354,4.354,0,0,1-.783-3.141c.182-2.056,9.431-34.1,9.333-35.612-.059-.9-1.2-2.582-2.129-3.8-.631-.837-1.158-1.458-1.158-1.458l-11.629,4.594s.859.593,1.751,1.341c1.123.946,2.3,2.137,1.9,2.71-.727,1.028-2.783,7.376-3.207,10.521s.606,7.073.3,10.883-2.538,9.31-2.538,9.31Z" fill="#ffba85"/>
    <path id="Path_2551" data-name="Path 2551" d="M984.985,141.8c.363,2.116,3.608,7.225,5.18,7.648s7.155-2.267,10.176-4.019,8.043-5.074,9.01-5.014,3.991-.308,3.507-5.023-4.259-4.178-5.321-3.854c-1.654.5-1.993,3.35-2.234,4.257s-12.337,6.348-13,5.8c-.476-.389-.043-4.016.239-6.049.114-.807.2-1.361.2-1.361h-6.971s-.146.7-.318,1.7A23.212,23.212,0,0,0,984.985,141.8Z" fill="#ffba88"/>
    <path id="Path_2552" data-name="Path 2552" d="M985.454,135.88l7.086-.334c.114-.807.2-1.361.2-1.361h-6.971S985.626,134.884,985.454,135.88Z" fill="#895d9b"/>
    <path id="Path_2553" data-name="Path 2553" d="M917.221,184.3s-2.953,3.4-4.028,4.68-2.973,4.306-3.519,4.678-3.35-1.044-2.476-5.618,2.793-3.73,3.289-6.8a11.185,11.185,0,0,1,2.743-5.771c.465-.359,5.283,1.824,5.606,2.015s-1.1,3.96-1.351,5.014A8.774,8.774,0,0,0,917.221,184.3Z" fill="#2a4163"/>
    <path id="Path_2554" data-name="Path 2554" d="M985.768,223.581s2.119,3.345,3.218,4.635,3.806,3.708,4.082,4.312-1.688,3.1-6.161,1.412-3.257-3.427-6.279-4.474a11.542,11.542,0,0,1-5.338-3.75c-.274-.524,2.846-4.862,3.1-5.145s3.808,1.8,4.828,2.244A16.312,16.312,0,0,0,985.768,223.581Z" fill="#2a4163"/>
    <path id="Path_2555" data-name="Path 2555" d="M981.325,100.258a55.535,55.535,0,0,1,4.869,4.233c.605.785,7.62,1.573,6.834,0a8.742,8.742,0,0,1-.647-2.687c-.019-.167-.034-.331-.047-.49a5.658,5.658,0,0,1,.028-2.022c.181,0,2.7.239,2.386-.484-1.136-2.619-1.682-4.277-2.005-5.141a45.139,45.139,0,0,1-1.168-5.259s-7.74,1.512-9.613,1.935-2.178,2.419-2.419,4.112S980.48,99.594,981.325,100.258Z" fill="#ffba88"/>
    <path id="Path_2556" data-name="Path 2556" d="M986.406,105.4a64.483,64.483,0,0,0-.484,6.953c.121,1.752-4.111,3.384-4.9,3.2s-5.08-4.309-5.472-5.073,1.542-2.818,2.448-7.564,1.293-4.746,1.524-4.988,2.224.3,4.1,3.87S986.406,105.4,986.406,105.4Z" fill="#ffba88"/>
    <path id="Path_2557" data-name="Path 2557" d="M995.112,88.045c-.835,1.1-2.408,1.955-5.027,2.64s-4.313,3.951-4.6,5.281a4.7,4.7,0,0,0,.161,2.459l-1.37.281s1.128-6.166-1.169-6.489-2.3,2.46-2.157,3.306a7.491,7.491,0,0,0,1.31,3.183c.6.565-1.216.465-2.739,2.338s-.821,3.73-1.493,4.072-2.458-1.33-2.9-4.152,1.1-3.224.372-5.4-2.91-5.6-1.1-9.511a9.1,9.1,0,0,1,8.5-5.28c2.62.241,5.461,2.2,7.739,1.291a3.791,3.791,0,0,0,2.016-3.589c-.041-1.088,2.66,1.049,3.483,4.045A6.026,6.026,0,0,1,995.112,88.045Z" fill="#144998"/>
    <path id="Path_2558" data-name="Path 2558" d="M992.694,102.828A3.183,3.183,0,0,1,990,103.986c-1.572-.241-3.179-1.046-4.312-4.715,0,0-3.829.8-4.031,2.375s1.289,3.955,3.184,4.72a66.821,66.821,0,0,1,6.651,2.619c1.814,1.008,2.893,1.1,3.282.484.466-.736-.163-2.107-.768-3.557S992.694,102.828,992.694,102.828Z" fill="#144998"/>
    <path id="Path_2559" data-name="Path 2559" d="M944.615,177.71l13.464,9.353,8.223-10.724s10.722,13.785,11.932,12.5c.5-.533,3.49-1.625,6.806-2.776.838-.292,1.694-.588,2.537-.878,3.86-1.328,7.42-2.569,7.343-2.955-.159-.809-13.22-22.092-13.22-22.092s-28.78-4.029-29.586-2.819S944.615,177.71,944.615,177.71Z" fill="#b8b8bc"/>
    <g id="Group_6359" data-name="Group 6359">
      <path id="Path_2560" data-name="Path 2560" d="M966.212,176.421l.181-.161c-.071-.081-7.175-8.135-8.19-9.388a15.805,15.805,0,0,1-2.281-3.361l-.221.1a16.045,16.045,0,0,0,2.315,3.412C959.033,168.281,966.14,176.339,966.212,176.421Z" fill="#b8b8bc"/>
    </g>
    <path id="Path_2561" data-name="Path 2561" d="M962.554,158.906l22.486,27.153c.838-.292,1.694-.588,2.537-.878-2.04-2.554-13.5-16.883-15.713-19.623-4.242-5.248-6.166-6.652-6.166-6.652Z" fill="#fffdf1"/>
    <path id="Path_2562" data-name="Path 2562" d="M947.131,120.1a1.894,1.894,0,0,0,.07.386v0a22.845,22.845,0,0,0,1.332,3.255c.04.083.08.167.119.251.547,1.147,1.158,2.355,1.691,3.385.043.082.086.164.129.244.715,1.377,1.259,2.381,1.259,2.381l.32-.132.222-.089,2.212-.9.709-.288h0l.16-.065.226-.092,2.556-1.038s-.4,1.581-1.011,4.027c-.032.115-.059.235-.089.355a.752.752,0,0,0-.019.074c-.039.151-.077.306-.119.465v0c-.319,1.286-.687,2.759-1.074,4.333-.029.119-.059.237-.087.36-.136.542-.271,1.1-.409,1.661-.039.153-.075.309-.114.465-.223.911-.445,1.841-.674,2.775-.026.119-.057.239-.085.357-.257,1.066-.51,2.13-.757,3.173-.036.152-.072.3-.106.455v0q-.162.665-.31,1.319c-.029.121-.058.24-.085.359v0c-.377,1.625-.728,3.166-1.025,4.535-.035.152-.065.3-.1.447,0,.018-.007.033-.009.048-.027.126-.053.251-.081.372a28.737,28.737,0,0,0-.8,4.764c.012.1.1.21.266.313a2.8,2.8,0,0,0,.25.132,15.978,15.978,0,0,0,3.4.811l.3.046h0c.213.036.432.067.657.1.114.017.228.033.345.048.918.128,1.924.251,2.992.367.095.013.192.023.288.031.492.054,1,.108,1.509.156.119.011.238.023.356.037.675.064,1.364.127,2.061.187.094.008.188.018.283.025.854.073,1.722.142,2.592.21l.366.029c.309.025.621.047.931.068l.282.022c1.292.094,2.574.182,3.8.259.022,0,.042,0,.061,0,.1.005.188.011.283.019a.131.131,0,0,1,.024,0c1.353.084,2.642.158,3.822.225l.28.014.98.054c.128,0,.251.012.375.016.942.05,1.779.093,2.476.124l.279.011c1.092.05,1.792.075,1.942.075.189,0,.439-.806.72-2.132.026-.121.053-.247.077-.377v0c.183-.9.377-2,.576-3.232.022-.138.044-.277.065-.42.092-.574.183-1.173.277-1.79.02-.135.04-.27.06-.409v0c.165-1.122.33-2.293.5-3.48.016-.136.036-.274.055-.408q.119-.9.238-1.8v0c.02-.142.039-.281.056-.421.153-1.151.3-2.289.434-3.37l.051-.4c.086-.705.17-1.382.248-2.025.02-.144.037-.285.053-.426.146-1.2.272-2.25.37-3.089.017-.139.032-.272.046-.4.126-1.058.2-1.687.2-1.687h6.682s.1-1.235.248-2.93c.011-.147.025-.3.037-.455.034-.381.068-.78.1-1.19.012-.131.021-.257.033-.391.131-1.552.276-3.222.4-4.607.013-.155.026-.3.04-.45.006-.1.017-.194.025-.288.012-.135.023-.266.032-.391.021-.192.037-.375.053-.545a15.7,15.7,0,0,0-.15-4.291c-.017-.1-.04-.2-.06-.3a5.893,5.893,0,0,0-1.394-2.9c-.109-.109-.242-.239-.4-.389-.061-.057-.126-.117-.192-.182-.693-.658-1.7-1.581-2.681-2.483-.066-.062-.131-.122-.2-.179-.876-.8-1.721-1.563-2.293-2.086-.162-.143-.3-.268-.413-.371-.037-.033-.072-.06-.1-.088s-.069-.064-.1-.089c-.087-.081-.135-.122-.135-.122s-.015.11-.053.29v0c-.025.125-.064.283-.116.465a4.246,4.246,0,0,1-1.748,2.5c-.069.04-.141.079-.214.114a3.034,3.034,0,0,1-1.224.284c-.123,0-.251,0-.384-.007a.078.078,0,0,0-.022,0,4.566,4.566,0,0,1-2.572-1.192c-.185-.161-.364-.329-.536-.508-.065-.065-.126-.132-.185-.2s-.118-.131-.177-.2a10.822,10.822,0,0,1-1.885-3.2h0c-.034-.1-.064-.187-.092-.276a2.876,2.876,0,0,1-.163-.962.738.738,0,0,1,.011-.116c.022-.121-.049-.2-.2-.246a9.992,9.992,0,0,0-3.5.442c-.08.019-.162.037-.244.058-.182.043-.365.087-.551.135s-.365.092-.551.141c-.715.186-1.453.392-2.171.6-.081.023-.16.048-.237.069-1.195.355-2.325.715-3.2,1.021h0c-.078.025-.154.057-.23.079-.533.189-.953.351-1.212.466-.3.139-.941.468-1.8.926l-.048.025-.164.088-.792.426h0c-.64.347-1.357.738-2.118,1.156l-.213.116c-.924.507-1.908,1.05-2.9,1.6-.071.038-.141.077-.211.116-.977.542-1.956,1.088-2.9,1.612-.072.039-.143.08-.213.119-1.048.586-2.03,1.139-2.89,1.621-.07.042-.143.082-.21.122-.948.533-1.725.975-2.227,1.267l-.008.006c-.318.182-.527.305-.6.354a.1.1,0,0,0-.036.043A.367.367,0,0,0,947.131,120.1Z" fill="#0075c9"/>
    <path id="Path_2563" data-name="Path 2563" d="M947.558,149.489c.647,1.3.391,3.239.969,3.975,1.32,1.685,3.267,1.379,5.562.5,2.648-1.009,3.437-3.6,2.387-4.893s-2.025-1.192-2.87-1.676-2.611-3.722-3.949-6.933c-1.545-3.7-4.154-8.989-3.549-9.836.519-.729,3.959-1.289,4.922-1.432l.25-.037-3.9-8.326c-.024.008-.191.088-.467.226-1.813.9-8.322,4.3-8.847,5.982C937.462,128.978,945.685,146.3,947.558,149.489Z" fill="#ffba88"/>
    <path id="Path_2564" data-name="Path 2564" d="M946.788,121.122c.8,1.524,3.3,6.628,4.043,8.107.157-.025.449-.068.449-.068l-3.9-8.326C947.356,120.843,947.064,120.985,946.788,121.122Z" fill="#895d9b"/>
    <path id="Path_2565" data-name="Path 2565" d="M988.906,81.884a2.525,2.525,0,0,0,2.331-.938,4.451,4.451,0,0,0,.463-1.717l-.207-.011a4.385,4.385,0,0,1-.437,1.626c-.354.629-1.562,1.124-3.892.628a23.45,23.45,0,0,0-4.972-.694l.007.207a24.073,24.073,0,0,1,4.922.692A8.744,8.744,0,0,0,988.906,81.884Z" fill="#895d9b"/>
    <path id="Path_2566" data-name="Path 2566" d="M988.587,81.388a2.738,2.738,0,0,0,1.867-.614l-.143-.15a2.857,2.857,0,0,1-2.328.507,37.5,37.5,0,0,0-5.935-.345l.031.148a41.7,41.7,0,0,1,5.872.4A4.443,4.443,0,0,0,988.587,81.388Z" fill="#895d9b"/>
  </g>
  <g id="Group_6413" data-name="Group 6413" transform="translate(-907.031 -28.227)">
    <g id="Group_6393" data-name="Group 6393">
      <g id="Group_6362" data-name="Group 6362">
        <g id="Group_6361" data-name="Group 6361">
          <path id="Path_2567" data-name="Path 2567" d="M1134.915,199.23c.146-.058.3-.169.3-.325-.008-.174-.214-.264-.391-.3a2.978,2.978,0,0,0-2.657.848l-.01.056a4.147,4.147,0,0,0-2.384-1.319c-.2-.035-.453-.037-.57.129a.379.379,0,0,0,.012.408.974.974,0,0,0,.324.286,4.188,4.188,0,0,0,2.646.587l-.017-.077v0C1133.065,199.3,1134.061,199.585,1134.915,199.23Z" fill="#d8e081"/>
        </g>
      </g>
      <g id="Group_6364" data-name="Group 6364">
        <g id="Group_6363" data-name="Group 6363">
          <path id="Path_2568" data-name="Path 2568" d="M1135.148,201.961a.483.483,0,0,0,.279-.164.35.35,0,0,0-.064-.421.842.842,0,0,0-.406-.209,2.856,2.856,0,0,0-2.726.731l-.041.091a4.466,4.466,0,0,0-2.311-1.9c-.2-.073-.467-.115-.6.05a.356.356,0,0,0-.032.362.929.929,0,0,0,.239.3,4.779,4.779,0,0,0,2.721,1.223l0-.012,2.077.019A3.215,3.215,0,0,0,1135.148,201.961Z" fill="#d8e081"/>
        </g>
      </g>
      <g id="Group_6366" data-name="Group 6366">
        <g id="Group_6365" data-name="Group 6365">
          <path id="Path_2569" data-name="Path 2569" d="M1131.908,206.8a6.793,6.793,0,0,0,2.891.664c.188,0,.418-.029.5-.2.084-.185-.076-.387-.244-.5a2.466,2.466,0,0,0-1.591-.37,7.485,7.485,0,0,0-1.626.365Z" fill="#d8e081"/>
        </g>
      </g>
      <g id="Group_6368" data-name="Group 6368">
        <g id="Group_6367" data-name="Group 6367">
          <path id="Path_2570" data-name="Path 2570" d="M1134.3,194.338c-.023-.211-.271-.316-.486-.34a2.087,2.087,0,0,0-1.346.371,3.5,3.5,0,0,0-.96,1.02v0a3.683,3.683,0,0,0-1.532-.9.873.873,0,0,0-.486.01.4.4,0,0,0-.277.364.54.54,0,0,0,.32.4,3.623,3.623,0,0,0,1.9.278l.113-.061a8.205,8.205,0,0,0,2.349-.686C1134.092,194.71,1134.32,194.555,1134.3,194.338Z" fill="#d8e081"/>
        </g>
      </g>
      <g id="Group_6370" data-name="Group 6370">
        <g id="Group_6369" data-name="Group 6369">
          <path id="Path_2571" data-name="Path 2571" d="M1133.619,192.5a.413.413,0,0,0-.22-.316.816.816,0,0,0-.392-.093,2.008,2.008,0,0,0-1.147.37,4.794,4.794,0,0,0-.889.825l.109,0a12.068,12.068,0,0,0,1.916-.245,1.154,1.154,0,0,0,.419-.163A.439.439,0,0,0,1133.619,192.5Z" fill="#d8e081"/>
        </g>
      </g>
      <g id="Group_6372" data-name="Group 6372">
        <g id="Group_6371" data-name="Group 6371">
          <path id="Path_2572" data-name="Path 2572" d="M1134.794,204.617a1.219,1.219,0,0,0,.619-.067.405.405,0,0,0,.228-.511.562.562,0,0,0-.374-.232,3.5,3.5,0,0,0-3.042.647Z" fill="#d8e081"/>
        </g>
      </g>
      <g id="Group_6374" data-name="Group 6374">
        <g id="Group_6373" data-name="Group 6373">
          <path id="Path_2573" data-name="Path 2573" d="M1131.018,193.3l-.071.013a3.486,3.486,0,0,0-2.127-.963.9.9,0,0,0-.394.033.362.362,0,0,0-.247.28c-.021.208.192.36.386.446A3.7,3.7,0,0,0,1131.018,193.3Z" fill="#d8e081"/>
        </g>
      </g>
      <g id="Group_6376" data-name="Group 6376">
        <g id="Group_6375" data-name="Group 6375">
          <path id="Path_2574" data-name="Path 2574" d="M1129.9,190.457a4.261,4.261,0,0,0-1.817-3.033,1.006,1.006,0,0,0-.35-.173.424.424,0,0,0-.372.077c-.176.16-.114.445-.014.657a6.475,6.475,0,0,0,2.532,2.412Z" fill="#d8e081"/>
        </g>
      </g>
      <g id="Group_6378" data-name="Group 6378">
        <g id="Group_6377" data-name="Group 6377">
          <path id="Path_2575" data-name="Path 2575" d="M1131.922,197.734l.017-.021-.021,0,.008-.007a3.076,3.076,0,0,0-2.293-1.464c-.218-.014-.482.031-.568.231s.1.445.287.588a3.512,3.512,0,0,0,2.532.676l.018-.013Z" fill="#d8e081"/>
        </g>
      </g>
      <g id="Group_6380" data-name="Group 6380">
        <g id="Group_6379" data-name="Group 6379">
          <path id="Path_2576" data-name="Path 2576" d="M1130.341,191.76l.076-.046a6.09,6.09,0,0,0-1.112-.769,2.8,2.8,0,0,0-1.31-.324.875.875,0,0,0-.4.086.4.4,0,0,0-.222.32c-.006.229.229.382.445.471A4.438,4.438,0,0,0,1130.341,191.76Z" fill="#d8e081"/>
        </g>
      </g>
      <g id="Group_6382" data-name="Group 6382">
        <g id="Group_6381" data-name="Group 6381">
          <path id="Path_2577" data-name="Path 2577" d="M1134.672,196.551a.456.456,0,0,0-.345-.2,1.93,1.93,0,0,0-1.4.338,4.074,4.074,0,0,0-.993,1.023,12.4,12.4,0,0,0,2.282-.556,1,1,0,0,0,.371-.216A.353.353,0,0,0,1134.672,196.551Z" fill="#d8e081"/>
        </g>
      </g>
      <g id="Group_6384" data-name="Group 6384">
        <g id="Group_6383" data-name="Group 6383">
          <path id="Path_2578" data-name="Path 2578" d="M1132.2,204.469l.013-.01-.019-.008-.008-.017a4.712,4.712,0,0,0-1.874-2.537.619.619,0,0,0-.551-.137.482.482,0,0,0-.216.556,1.8,1.8,0,0,0,.709.954,10.353,10.353,0,0,0,1.891,1.229h0l-.014.028.027-.023c.025.015.049.028.076.041Z" fill="#d8e081"/>
        </g>
      </g>
      <g id="Group_6386" data-name="Group 6386">
        <g id="Group_6385" data-name="Group 6385">
          <path id="Path_2579" data-name="Path 2579" d="M1131.834,206.744a.454.454,0,0,1-.057-.031l.027.14Z" fill="#d8e081"/>
        </g>
      </g>
      <g id="Group_6388" data-name="Group 6388">
        <g id="Group_6387" data-name="Group 6387">
          <path id="Path_2580" data-name="Path 2580" d="M1129.629,203.621a1.026,1.026,0,0,0-.4-.115.439.439,0,0,0-.372.162.5.5,0,0,0-.051.406,2,2,0,0,0,.6.908,9.548,9.548,0,0,0,2.378,1.731,5.225,5.225,0,0,0-.668-1.74A3.558,3.558,0,0,0,1129.629,203.621Z" fill="#d8e081"/>
        </g>
      </g>
      <g id="Group_6390" data-name="Group 6390">
        <g id="Group_6389" data-name="Group 6389">
          <path id="Path_2581" data-name="Path 2581" d="M1128.07,206.526a.424.424,0,0,0-.05.334,1.009,1.009,0,0,0,.148.313,5.158,5.158,0,0,0,1.4,1.4,14.028,14.028,0,0,0,1.675.978l-.069.044a7.564,7.564,0,0,0,2.715.334,1.03,1.03,0,0,0,.441-.1.366.366,0,0,0,.2-.367c-.032-.154-.188-.249-.333-.313a2.931,2.931,0,0,0-2.91.369v-.014a4.293,4.293,0,0,0-1.735-2.751,1.935,1.935,0,0,0-1-.406A.541.541,0,0,0,1128.07,206.526Z" fill="#d8e081"/>
        </g>
      </g>
      <g id="Group_6392" data-name="Group 6392">
        <g id="Group_6391" data-name="Group 6391">
          <path id="Path_2582" data-name="Path 2582" d="M1130.532,210.752a25.438,25.438,0,0,0-1.2-20.188c-.2-.389.45-.622.644-.238a26.088,26.088,0,0,1,1.173,20.712C1131,211.446,1130.383,211.158,1130.532,210.752Z" fill="#d8e081"/>
        </g>
      </g>
    </g>
    <g id="Group_6399" data-name="Group 6399">
      <g id="Group_6396" data-name="Group 6396" opacity="0.4">
        <g id="Group_6395" data-name="Group 6395">
          <g id="Group_6394" data-name="Group 6394">
            <path id="Path_2583" data-name="Path 2583" d="M1132.684,204.066a1.777,1.777,0,0,0,.127,1.424q.914,2.351,2.021,4.62l-.086.066,4.422-.008a2.413,2.413,0,0,0,.924-.121.711.711,0,0,0,.17-1.307,1.682,1.682,0,0,0-.4-.223l-1.949-.77c-.22-.087-.478-.225-.42-.485a.4.4,0,0,1,.256-.275,5.211,5.211,0,0,1,3.022-.18,2.4,2.4,0,0,0,.865.125c.393-.056.787-.451.433-.879a.909.909,0,0,0-.282-.217,9.745,9.745,0,0,0-2.168-.8c-.39-.092-.9-.3-.779-.718a.521.521,0,0,1,.4-.356,7.05,7.05,0,0,1,2.7-.063,1.822,1.822,0,0,0,.673.042c.3-.062.6-.366.35-.714a.7.7,0,0,0-.389-.26l-2.109-.606c-.249-.071-.544-.188-.526-.485a.469.469,0,0,1,.377-.414,8.254,8.254,0,0,1,2.965-.078,1.28,1.28,0,0,0,.924-.07.43.43,0,0,0,.209-.419c-.038-.245-.276-.332-.487-.4l-2.25-.7a.154.154,0,0,1-.007-.293,6.161,6.161,0,0,1,2.77-.3,1.918,1.918,0,0,0,.7.013c.32-.083.609-.43.293-.775a.756.756,0,0,0-.311-.2,12.883,12.883,0,0,0-2.124-.547c.5-.477,1.006-.957,1.509-1.435.369-.35.771-.786.608-1.3a.908.908,0,0,0-.815-.595,1.693,1.693,0,0,0-1.464.86,1.723,1.723,0,0,1-.659.712.52.52,0,0,1-.488-.022c-.246-.161-.218-.465-.225-.729-.006-.232-.1-.513-.327-.553a.432.432,0,0,0-.343.114,1.364,1.364,0,0,0-.311,1.268,2.094,2.094,0,0,1-.119,1.628.65.65,0,0,1-.859.2c-.29-.185-.287-.546-.353-.857s-.332-.654-.655-.491a.491.491,0,0,0-.2.233,3.753,3.753,0,0,0,.024,2.188,3.2,3.2,0,0,1-.017,1.395.351.351,0,0,1-.641.066l-.79-1.4c-.087-.156-.194-.326-.408-.312a.364.364,0,0,0-.276.175.911.911,0,0,0-.021.731q.347,1.38.7,2.758c.08.32.144.7-.139.919a.613.613,0,0,1-.754-.044c-.458-.37-.464-.952-.7-1.428-.145-.288-.508-.561-.774-.29a.458.458,0,0,0-.1.452,15.48,15.48,0,0,0,1.058,2.614,1.413,1.413,0,0,1,.244,1.062.509.509,0,0,1-.552.376c-.256-.041-.391-.294-.5-.519q-.25-.528-.5-1.057c-.171-.361-.4-.77-.838-.763A.7.7,0,0,0,1132.684,204.066Z" fill="#00abc4"/>
          </g>
        </g>
      </g>
      <g id="Group_6398" data-name="Group 6398">
        <g id="Group_6397" data-name="Group 6397">
          <path id="Path_2584" data-name="Path 2584" d="M1135.1,209.869a26.781,26.781,0,0,1,9.244-15.373c.167-.139.41.1.241.236a26.5,26.5,0,0,0-9.155,15.226C1135.383,210.171,1135.055,210.082,1135.1,209.869Z" fill="#00aeb4"/>
        </g>
      </g>
    </g>
    <g id="Group_6404" data-name="Group 6404" opacity="0.1" style="isolation: isolate">
      <g id="Group_6403" data-name="Group 6403">
        <g id="Group_6402" data-name="Group 6402" clip-path="url(#clip-path-2)">
          <g id="Group_6401" data-name="Group 6401">
            <g id="Group_6400" data-name="Group 6400">
              <path id="Path_2585" data-name="Path 2585" d="M1136.249,200.8c.124.068.249.133.375.2v-.065h1.077v.6c.079.033.153.068.23.1v-.7h1.077v1.148a.377.377,0,0,0,.064.023V200.8Z" fill="#6c63ff"/>
            </g>
          </g>
        </g>
      </g>
    </g>
    <g id="Group_6406" data-name="Group 6406">
      <g id="Group_6405" data-name="Group 6405">
        <path id="Path_2586" data-name="Path 2586" d="M1138.714,211.649l-.054.844-.074,1.2-.031.5-.074,1.195-.033.5-.075,1.2-.852,13.555a2.314,2.314,0,0,1-2.323,2.154h-4.428a2.313,2.313,0,0,1-2.325-2.163l-.851-13.555-.074-1.2-.032-.5-.076-1.2-.031-.5-.074-1.2-.054-.844a1.2,1.2,0,0,1,1.142-1.262h9.117a1.2,1.2,0,0,1,1.205,1.2c0,.024,0,.047,0,.07" fill="#00b0c4"/>
      </g>
    </g>
    <g id="Group_6408" data-name="Group 6408">
      <g id="Group_6407" data-name="Group 6407">
        <path id="Path_2587" data-name="Path 2587" d="M1138.66,212.492l-.075,1.193h-11.2l-.075-1.193Z" fill="#07a5ac"/>
      </g>
    </g>
    <g id="Group_6410" data-name="Group 6410">
      <g id="Group_6409" data-name="Group 6409">
        <path id="Path_2588" data-name="Path 2588" d="M1138.554,214.183l-.073,1.192h-10.993l-.075-1.192Z" fill="#07a5ac"/>
      </g>
    </g>
    <g id="Group_6412" data-name="Group 6412">
      <g id="Group_6411" data-name="Group 6411">
        <path id="Path_2589" data-name="Path 2589" d="M1138.448,215.872l-.074,1.192h-10.779l-.076-1.192Z" fill="#07a5ac"/>
      </g>
    </g>
  </g>
</svg>
