<?xml version="1.0" encoding="utf-8"?>
<!-- Generator: Adobe Illustrator 25.0.1, SVG Export Plug-In . SVG Version: 6.00 Build 0)  -->
<svg version="1.1" id="Component_40_1" xmlns="http://www.w3.org/2000/svg" xmlns:xlink="http://www.w3.org/1999/xlink" x="0px"
	 y="0px" viewBox="0 0 297 171.3" style="enable-background:new 0 0 297 171.3;" xml:space="preserve">
<style type="text/css">
	.st0{fill:#F7F7F7;}
	.st1{fill:#D8E081;}
	.st2{fill:#00A3A1;}
	.st3{opacity:0.4;}
	.st4{fill:#00ABC4;}
	.st5{fill:#00AEB4;}
	.st6{fill:#C8E7EB;}
	.st7{opacity:0.31;fill:url(#Path_4435_1_);enable-background:new    ;}
	.st8{fill:#F2B681;}
	.st9{opacity:0.64;fill:#F2B681;enable-background:new    ;}
	.st10{opacity:0.26;fill:#FFFFFF;enable-background:new    ;}
	.st11{opacity:0.56;fill:#FFFFFF;enable-background:new    ;}
	.st12{fill:#00B0C4;}
	.st13{opacity:0.57;fill:#C9A285;enable-background:new    ;}
	.st14{fill:#5D5D5D;}
	.st15{opacity:0.22;fill:#FFFFFF;enable-background:new    ;}
</style>
<g id="Group_7578" transform="translate(1588.692 -376.873)">
	<path id="Path_4391" class="st0" d="M-1399.7,537.3c0.5-0.2,0.9-0.4,1.4-0.6c0.2-0.1,0.5-0.2,0.7-0.3c0.5-0.2,0.9-0.4,1.4-0.6
		c0.2-0.1,0.5-0.2,0.7-0.3c0.4-0.2,0.9-0.4,1.3-0.6c0.3-0.1,0.5-0.3,0.8-0.4c0.4-0.2,0.8-0.4,1.2-0.6c0.3-0.1,0.6-0.3,0.9-0.4
		c0.4-0.2,0.8-0.4,1.1-0.6c0.3-0.2,0.7-0.4,1-0.5l1-0.5c0.4-0.2,0.8-0.4,1.2-0.7l0.8-0.4c0.7-0.4,1.3-0.7,2-1.1
		c11.9-6.8,23.1-15.3,31.1-26.4s12.6-25.1,10.7-38.7c-1.4-9.6-7.6-19.8-16.9-21.3c-0.5-0.1-1.1-0.1-1.6-0.2c-2.3,0-4.6,0.2-6.9,0.6
		c-0.5,0-1,0.1-1.5,0.1c-0.1,0-0.3,0-0.4,0c-0.3,0-0.7,0-1,0c-0.2,0-0.3,0-0.5,0c-0.3,0-0.6,0-1,0c-0.2,0-0.3,0-0.5,0
		c-0.3,0-0.6,0-1,0l-0.5,0c-0.3,0-0.7,0-1-0.1c-0.2,0-0.3,0-0.4,0c-0.4,0-0.8-0.1-1.1-0.1c-0.1,0-0.2,0-0.3,0c-1-0.1-2-0.2-3-0.4
		c-0.1,0-0.1,0-0.2,0c-0.4-0.1-0.8-0.1-1.3-0.2c-0.1,0-0.3,0-0.4-0.1c-0.4-0.1-0.7-0.1-1.1-0.2l-0.4-0.1c-0.3-0.1-0.7-0.1-1-0.2
		c-0.1,0-0.3-0.1-0.4-0.1c-0.3-0.1-0.7-0.1-1-0.2c-0.1,0-0.3-0.1-0.4-0.1c-0.4-0.1-0.8-0.2-1.1-0.2c-0.1,0-0.2,0-0.3-0.1
		c-0.5-0.1-0.9-0.2-1.4-0.3h0l-0.1,0c0.9-3,1.4-6.2,1.5-9.4c0-12.3-9.4-22.6-18.9-30.3c-11.7-9.4-26.3-17.7-41-14.7
		c-7.4,1.5-14,5.8-19.9,10.6c-1.2,1-2.3,1.9-3.5,2.9c-1.8-0.1-3.5-0.2-5.3-0.1c-0.1,0-0.2,0-0.4,0c-0.3,0-0.6,0-1,0
		c-0.2,0-0.4,0-0.6,0c-0.3,0-0.6,0-0.8,0.1c-0.2,0-0.5,0-0.7,0.1s-0.5,0-0.7,0.1c-0.3,0-0.6,0.1-0.9,0.1c-0.2,0-0.4,0-0.5,0.1
		c-1,0.1-2,0.3-3,0.5c-0.1,0-0.2,0-0.3,0.1c-0.4,0.1-0.8,0.2-1.2,0.3l-0.4,0.1c-0.4,0.1-0.7,0.2-1.1,0.3c-0.1,0-0.3,0.1-0.4,0.1
		c-0.4,0.1-0.7,0.2-1.1,0.3c-0.1,0-0.3,0.1-0.4,0.1c-0.4,0.1-0.7,0.2-1.1,0.4c-0.1,0-0.2,0.1-0.4,0.1c-0.5,0.2-1,0.3-1.5,0.5
		c-16,5.9-28.5,19.9-34.2,36s-5.1,34.1,0.1,50.4c2.9,9.5,7.5,18.4,13.5,26.3c14.6,18.7,38,29.3,61.7,30.8c0.9,0.1,1.7,0.1,2.6,0.1
		c0.3,0,0.6,0,0.9,0c0.6,0,1.2,0,1.7,0c0.3,0,0.6,0,0.9,0c0.7,0,1.3,0,2,0c0.2,0,0.3,0,0.5,0c0.9,0,1.8-0.1,2.7-0.1
		c5.6,1,11.3,1.3,16.9,1c6.7-0.4,13.6-1.9,18.7-6.2c1.3-1.1,2.6-2.4,3.6-3.8c0.3-0.1,0.6-0.2,0.9-0.4
		C-1400.1,537.5-1399.9,537.4-1399.7,537.3z"/>
</g>
<g id="Group_7626" transform="translate(1588.692 -376.873)">
	<g id="Group_7611">
		<g id="Group_7580">
			<g id="Group_7579">
				<path id="Path_4392" class="st1" d="M-1367,463.1c-0.5-0.5-1-1.3-0.7-2c0.4-0.8,1.5-0.8,2.3-0.6c4.7,1,8.5,4.4,10.2,8.8
					l-0.1,0.3c4.1-2,8.7-2.5,13.1-1.4c1,0.2,2.1,0.7,2.3,1.6c0.1,0.7-0.2,1.4-0.8,1.8c-0.6,0.4-1.3,0.6-2,0.7
					c-4.4,0.7-9-0.1-12.9-2.3l0.2-0.3l0,0C-1358.9,466.9-1363.8,466.3-1367,463.1z"/>
			</g>
		</g>
		<g id="Group_7582">
			<g id="Group_7581">
				<path id="Path_4393" class="st1" d="M-1373.2,474.9c-0.4-0.3-0.8-0.7-0.9-1.3c-0.1-0.8,0.4-1.5,1.1-1.8c0.7-0.3,1.5-0.3,2.2-0.2
					c4.8,0.7,8.9,3.9,10.7,8.4l0,0.5c4-3,8.9-4.4,13.9-4.2c1,0,2.3,0.4,2.6,1.4c0.1,0.6-0.1,1.3-0.6,1.7c-0.5,0.4-1,0.7-1.6,0.9
					c-4.6,1.7-9.7,1.8-14.4,0.4l0,0c-3.1-1.3-6.2-2.6-9.2-3.8C-1370.8,476.4-1372.1,475.7-1373.2,474.9z"/>
			</g>
		</g>
		<g id="Group_7584">
			<g id="Group_7583">
				<path id="Path_4394" class="st1" d="M-1368.1,502.8c-4.8,0.2-9.6-0.6-14.1-2.5c-0.8-0.3-1.8-0.9-1.8-1.8c0-1,1.1-1.6,2-1.8
					c2.7-0.5,5.4,0,7.8,1.3c2.3,1.3,4.5,2.9,6.5,4.7L-1368.1,502.8z"/>
			</g>
		</g>
		<g id="Group_7586">
			<g id="Group_7585">
				<path id="Path_4395" class="st1" d="M-1354.9,442.2c0.5-0.9,1.8-0.9,2.8-0.6c2.2,0.7,4,2.2,5.3,4.2c1.2,2,2,4.1,2.3,6.4l0,0
					c2.8-0.9,5.7-1.7,8.5-1.2c0.8,0.1,1.5,0.4,2.1,1c0.6,0.5,0.8,1.4,0.5,2.2c-0.5,0.7-1.3,1.2-2.2,1.2c-3.1,0.4-6.1-1-9-2.3
					l-0.4-0.5c-3.4-2-6.5-4.6-9.1-7.5C-1354.7,444.3-1355.4,443.2-1354.9,442.2z"/>
			</g>
		</g>
		<g id="Group_7588">
			<g id="Group_7587">
				<path id="Path_4396" class="st1" d="M-1348.4,435.2c0.3-0.6,0.9-1,1.6-1c0.7-0.1,1.3,0.1,1.9,0.3c1.8,0.8,3.3,2.1,4.4,3.8
					c1,1.7,1.8,3.5,2.4,5.4l-0.5-0.2c-2.8-1.4-5.5-2.9-8-4.7c-0.6-0.4-1.1-0.9-1.5-1.5C-1348.6,436.7-1348.7,435.9-1348.4,435.2z"/>
			</g>
		</g>
		<g id="Group_7590">
			<g id="Group_7589">
				<path id="Path_4397" class="st1" d="M-1376.7,487.5c-1-0.3-1.9-0.8-2.6-1.5c-0.7-0.8-0.7-1.9,0-2.7c0.6-0.4,1.4-0.5,2.1-0.3
					c5.2,0.8,9.8,4,12.2,8.6C-1368.9,490.2-1372.8,488.9-1376.7,487.5z"/>
			</g>
		</g>
		<g id="Group_7592">
			<g id="Group_7591">
				<path id="Path_4398" class="st1" d="M-1338.4,443.7l0.3,0.2c3.6-1.4,7.6-1.5,11.3-0.3c0.6,0.2,1.2,0.5,1.7,0.9
					c0.5,0.4,0.7,1.1,0.6,1.7c-0.3,1-1.5,1.3-2.6,1.3C-1331.2,447.6-1335.2,446.3-1338.4,443.7z"/>
			</g>
		</g>
		<g id="Group_7594">
			<g id="Group_7593">
				<path id="Path_4399" class="st1" d="M-1328,433.1c2.9-5.2,8-9,13.8-10.2c0.6-0.2,1.3-0.2,1.9-0.1c0.6,0.1,1.2,0.5,1.5,1
					c0.5,1-0.3,2.2-1.2,3c-4.2,3.8-10.2,5-15.8,6.1L-1328,433.1z"/>
			</g>
		</g>
		<g id="Group_7596">
			<g id="Group_7595">
				<path id="Path_4400" class="st1" d="M-1350.8,462c0,0,0-0.1,0-0.1L-1350.8,462l0-0.1c3.8-2.6,8.7-3.8,13-2.3
					c1,0.4,2.1,1.1,2.1,2.1c0,1.1-1.3,1.8-2.4,2.1c-4.2,1.1-8.7,0.5-12.5-1.7L-1350.8,462L-1350.8,462z"/>
			</g>
		</g>
		<g id="Group_7598">
			<g id="Group_7597">
				<path id="Path_4401" class="st1" d="M-1332.4,438.1l-0.2-0.3c2.1-0.7,4.2-1.1,6.4-1.4c2.2-0.2,4.4,0.1,6.4,1
					c0.6,0.2,1.2,0.6,1.6,1.1c0.4,0.5,0.6,1.2,0.4,1.9c-0.4,1-1.7,1.3-2.9,1.3C-1324.9,441.6-1329,440.4-1332.4,438.1z"/>
			</g>
		</g>
		<g id="Group_7600">
			<g id="Group_7599">
				<path id="Path_4402" class="st1" d="M-1360.8,451.5c0.6-0.4,1.3-0.5,1.9-0.2c2.3,0.6,4.3,2.1,5.5,4.2c1.2,2,2,4.2,2.4,6.5
					c-3.2-2-6.3-4.2-9.1-6.8c-0.5-0.5-0.9-1-1.2-1.7C-1361.4,452.7-1361.3,452-1360.8,451.5z"/>
			</g>
		</g>
		<g id="Group_7602">
			<g id="Group_7601">
				<path id="Path_4403" class="st1" d="M-1364.9,491.7c0,0,0-0.1-0.1-0.1C-1365,491.6-1364.9,491.6-1364.9,491.7l0.1-0.1
					c3.4-4.1,8-6.8,13.2-7.9c0.9-0.3,1.9-0.1,2.7,0.4c0.6,0.9,0.6,2.1-0.1,2.9c-1.1,1.6-3.1,2.4-5,2.9c-3.5,1-7.1,1.7-10.7,2v0
					l0,0.2c0-0.1-0.1-0.1-0.1-0.2c-0.1,0-0.3,0-0.4,0L-1364.9,491.7z"/>
			</g>
		</g>
		<g id="Group_7604">
			<g id="Group_7603">
				<path id="Path_4404" class="st1" d="M-1367.6,502.6c0.1,0,0.2,0,0.3,0c-0.1,0.2-0.3,0.4-0.4,0.6L-1367.6,502.6z"/>
			</g>
		</g>
		<g id="Group_7606">
			<g id="Group_7605">
				<path id="Path_4405" class="st1" d="M-1351.9,492.8c0.7-0.1,1.4,0,2,0.2c0.7,0.2,1.2,0.8,1.3,1.4c0.1,0.7-0.1,1.4-0.6,1.9
					c-1.2,1.4-2.7,2.4-4.4,3c-4.4,1.8-9.1,2.9-13.8,3.3c1.7-2.5,3.8-4.8,6.3-6.6C-1358.4,494.1-1355.2,493-1351.9,492.8z"/>
			</g>
		</g>
		<g id="Group_7608">
			<g id="Group_7607">
				<path id="Path_4406" class="st1" d="M-1350.5,508.8c0.1,0.6-0.1,1.1-0.4,1.6c-0.4,0.4-0.8,0.8-1.3,1.1c-2.7,1.8-5.7,3-8.9,3.7
					c-3.1,0.6-6.2,1-9.3,1.2l0.2,0.3c-4.4-0.4-8.7-1.6-12.7-3.6c-0.7-0.3-1.3-0.7-1.8-1.3c-0.5-0.6-0.6-1.4-0.2-2
					c0.5-0.6,1.3-0.9,2.1-0.8c5.1,0,9.7,2.7,12.2,7.1l0-0.1c3-4.6,7.6-7.9,12.9-9.1c1.7-0.5,3.5-0.5,5.2,0
					C-1351.5,507.3-1350.8,507.9-1350.5,508.8z"/>
			</g>
		</g>
		<g id="Group_7610">
			<g id="Group_7609">
				<path id="Path_4407" class="st1" d="M-1369.5,523.1c1.9-34.3,17.8-66.2,43.9-88.5c1.6-1.4-0.8-3.6-2.4-2.3
					c-26.7,22.9-42.9,55.8-44.8,90.9C-1372.9,525.3-1369.6,525.2-1369.5,523.1z"/>
			</g>
		</g>
	</g>
	<g id="Group_7619">
		<g id="Group_7613">
			<g id="Group_7612">
				<path id="Path_4408" class="st2" d="M-1370.8,525.1c0.3,0,0.5,0,0.8,0c-0.1,0.2-0.3,0.4-0.4,0.6L-1370.8,525.1z"/>
			</g>
		</g>
		<g id="Group_7616" class="st3">
			<g id="Group_7615">
				<g id="Group_7614">
					<path id="Path_4409" class="st4" d="M-1370,525.1c2.9-4.2,3.7-10,3.9-15.7c0.2-5.9-0.1-12.1,1.4-17.6c0.3-1.2,0.8-2.6,2-2.9
						c1.4-0.4,3.3,0.9,4.1,2.5c0.7,1.6,1.1,3.3,1,5.1c2-7.1,6-13.5,11.4-18.4c0.9,2.9,1.7,5.7,2.6,8.6c2.7-5.4,6.7-9.9,11.6-13.3
						c1.5-1,3.5-1.8,5.2-0.5c1.9,1.5,1.8,4.2,1.4,6.4c7-5.7,16.4-8.4,26.2-7.4c2.6,0.3,5.8,1.2,7,3.9c1.2,2.7-0.4,5.2-2.1,7
						c-4.8,5.3-10.3,10-16.2,14c2.1,0.2,4.1,0.9,5.9,2c1.8,1.3,3.2,3.8,2.5,5.6c-0.6,1.6-2.5,2.1-4.2,2.4
						c-6.5,1.1-13.1,1.8-19.8,2.3c2.3,1.3,5.1,3.5,4.7,5.9c-0.3,2-2.7,2.5-4.7,2.5c-5.5,0.2-11,0.3-16.6,0.1c1.8,0.4,3.2,2.7,3,4.5
						c-0.2,1.7-1.4,3.2-3.1,3.6c-1.7,0.4-3.5,0.6-5.2,0.4C-1355.2,525.8-1362.6,525.4-1370,525.1z"/>
				</g>
			</g>
		</g>
		<g id="Group_7618">
			<g id="Group_7617">
				<path id="Path_4410" class="st5" d="M-1306.5,477.9c-9.8,5.1-19.3,10.9-28.3,17.3c1-3.4,2.3-6.7,3.8-9.9c0.5-1-1.1-1.5-1.6-0.5
					c-1.9,3.8-3.3,7.8-4.4,12l0,0c-5.8,4.2-11.4,8.7-16.8,13.5c1.4-5.2,2.8-10.5,4.2-15.7c0.3-1-1.3-1.6-1.6-0.5
					c-1.6,5.9-3.2,11.7-4.7,17.6c0,0.2,0,0.3,0,0.5c-3.1,2.8-6.2,5.7-9.2,8.7c-0.7,0.7,0.3,2,1.1,1.2c3.1-3.2,6.4-6.2,9.7-9.2
					c0.1,0,0.1,0,0.2,0c4.5-0.3,9-0.6,13.4-0.9c1-0.1,1.2-1.7,0.1-1.6c-3.9,0.3-7.9,0.5-11.8,0.8c5.4-4.8,11.1-9.3,16.9-13.6
					c0.1,0.1,0.2,0.1,0.3,0.1c5.5,0.7,11.1,0.9,16.7,0.6c1-0.1,1.2-1.7,0.1-1.6c-5.1,0.3-10.1,0.1-15.2-0.5
					c8.8-6.2,18-11.9,27.6-16.8c0.4-0.2,0.5-0.7,0.3-1.1C-1305.7,477.9-1306.1,477.7-1306.5,477.9z"/>
			</g>
		</g>
	</g>
	<g id="Group_7625">
		<g id="Group_7622" class="st3">
			<g id="Group_7621">
				<g id="Group_7620">
					<path id="Path_4411" class="st4" d="M-1360.3,491.9c0.1,2.6-1.6,4.4-3.3,6.2c-5.7,5.9-11.6,11.6-17.8,17l0.3,0.5
						c-6.5-2.8-13.1-5.6-19.6-8.4c-1.4-0.5-2.7-1.3-3.9-2.3c-1.7-1.8-2.2-5.1,1.7-6.2c0.7-0.2,1.5-0.3,2.2-0.2l10.1,0.2
						c1.1,0,2.6-0.1,2.8-1.4c0.1-0.6-0.1-1.3-0.6-1.7c-3.6-3.4-8.1-5.7-13.1-6.5c-1.4-0.1-2.8-0.5-4.1-1.1c-1.6-1-2.6-3.5-0.2-4.8
						c0.5-0.3,1.1-0.4,1.7-0.5c3.7-0.3,7.5-0.1,11.1,0.5c1.9,0.3,4.6,0.3,4.8-1.8c0.1-0.9-0.3-1.8-1.1-2.3
						c-3.6-2.6-7.6-4.4-11.9-5.4c-1.1-0.2-2.1-0.5-3.1-1.1c-1.2-0.9-1.9-2.8-0.2-3.9c0.7-0.4,1.5-0.5,2.2-0.4l10.5,1.3
						c1.2,0.1,2.8,0.2,3.3-1.2c0.3-1,0-2-0.9-2.6c-3.9-2.8-8.3-4.8-13-5.9c-1.5-0.4-3.1-0.7-4-2.1c-0.5-0.7-0.5-1.6-0.1-2.3
						c0.6-1,1.9-1,2.9-0.9l11.3,1.1c0.4,0,0.8-0.3,0.8-0.7c0-0.2-0.1-0.5-0.2-0.6c-3.3-3.1-7.3-5.3-11.7-6.6
						c-1.1-0.2-2.2-0.6-3.1-1.3c-1.3-1-1.9-3.1,0.2-4c0.5-0.2,1.2-0.3,1.8-0.3c3.5,0.2,7,0.7,10.5,1.5c-1.3-3.1-2.6-6.2-3.9-9.3
						c-1-2.3-1.9-5-0.2-7c1.2-1.3,3.1-1.8,4.7-1.1c2.9,1,4.3,3.8,4.8,6.6c0.3,1.6,0.4,3.2,1.6,4.4c0.5,0.6,1.4,0.9,2.2,0.8
						c1.4-0.3,1.9-1.7,2.4-2.9c0.5-1,1.4-2.1,2.5-1.9c0.6,0.2,1.1,0.6,1.3,1.2c1,2,0.1,4.4-1,6.3c-1.4,2.3-3.2,4.6-2.6,7.5
						c0.3,1.6,1.8,2.7,3.4,2.5c1.6-0.3,2.3-1.9,3.2-3.2c0.9-1.3,2.7-2.3,3.8-1c0.3,0.4,0.5,0.9,0.5,1.4c0.1,3.7-2.3,6.7-4.3,9.8
						c-1.3,1.9-2.2,4-2.6,6.3c-0.1,0.9,0.6,1.8,1.5,1.9c0.4,0,0.9-0.1,1.2-0.4l6.2-4.8c0.7-0.5,1.5-1.1,2.4-0.6
						c0.5,0.3,0.8,0.8,0.9,1.3c0,1.2-0.4,2.4-1.3,3.3c-2.8,3.7-5.6,7.4-8.3,11.1c-1,1.3-2,2.9-1.1,4.4c0.7,1.2,2.1,1.7,3.4,1.2
						c2.7-0.8,3.9-3.4,5.8-5.1c1.2-1,3.3-1.6,4,0.2c0.3,0.8,0.1,1.6-0.4,2.2c-2.9,3.5-6.2,6.8-9.7,9.8c-1.4,1.2-2.9,2.4-3.1,4.3
						c-0.2,1.2,0.5,2.4,1.7,2.7c1.2,0.3,2.3-0.6,3.2-1.4c1.4-1.3,2.8-2.5,4.2-3.8c1.4-1.3,3.3-2.7,5.2-1.9
						C-1361,489.5-1360.3,490.7-1360.3,491.9z"/>
				</g>
			</g>
		</g>
		<g id="Group_7624">
			<g id="Group_7623">
				<path id="Path_4412" class="st5" d="M-1382.1,513.5c6.1-29.3,2-59.9-11.6-86.5c-0.5-0.9-2-0.3-1.5,0.6
					c13.5,26.4,17.6,56.7,11.5,85.7C-1383.9,514.3-1382.3,514.5-1382.1,513.5z"/>
			</g>
		</g>
	</g>
</g>
<g id="Group_7627" transform="translate(1588.692 -376.873)">
	<path id="Path_4413" class="st6" d="M-1413.8,394.9c3.3-1.6,7.1-2.2,10.8-1.8c10.7,1.1,12.3-14.1,1.8-16c-5.7-1.1-11.6,2.5-15,6.9
		c-4.4,5.7-5.4,12.6-7,19.5c0.7-3.3,5.9-6.7,8.6-8.2C-1414.3,395.2-1414.1,395-1413.8,394.9z"/>
</g>
<g id="Group_7675" transform="translate(1588.692 -376.873)">
	<g id="Group_7660">
		<g id="Group_7629">
			<g id="Group_7628">
				<path id="Path_4414" class="st1" d="M-1531.8,460.6c0.4-0.4,0.8-1,0.5-1.5c-0.3-0.6-1.1-0.6-1.7-0.5c-3.5,0.8-6.4,3.3-7.7,6.7
					l0,0.2c-3.1-1.5-6.6-1.9-9.9-1.1c-0.7,0.2-1.6,0.5-1.7,1.2c-0.1,0.5,0.2,1.1,0.6,1.4c0.5,0.3,1,0.5,1.5,0.5
					c3.3,0.5,6.8-0.1,9.7-1.8l-0.2-0.2l0,0C-1537.9,463.4-1534.2,463-1531.8,460.6z"/>
			</g>
		</g>
		<g id="Group_7631">
			<g id="Group_7630">
				<path id="Path_4415" class="st1" d="M-1527.1,469.5c0.3-0.2,0.6-0.6,0.7-1c0.1-0.6-0.3-1.1-0.8-1.3c-0.5-0.2-1.1-0.2-1.7-0.1
					c-3.6,0.5-6.7,3-8.1,6.4l0,0.4c-3-2.2-6.7-3.3-10.5-3.2c-0.8,0-1.7,0.3-2,1c-0.1,0.5,0.1,1,0.4,1.3c0.4,0.3,0.8,0.5,1.2,0.7
					c3.5,1.3,7.3,1.4,10.9,0.3l0,0c2.3-1,4.7-1.9,7-2.9C-1528.9,470.6-1528,470.1-1527.1,469.5z"/>
			</g>
		</g>
		<g id="Group_7633">
			<g id="Group_7632">
				<path id="Path_4416" class="st1" d="M-1531,490.6c3.6,0.2,7.3-0.5,10.6-1.9c0.6-0.3,1.4-0.7,1.4-1.4c0-0.8-0.8-1.2-1.5-1.4
					c-2-0.3-4.1,0-5.9,1c-1.8,1-3.4,2.2-4.9,3.6L-1531,490.6z"/>
			</g>
		</g>
		<g id="Group_7635">
			<g id="Group_7634">
				<path id="Path_4417" class="st1" d="M-1541,444.8c-0.4-0.7-1.4-0.7-2.1-0.5c-1.7,0.6-3.1,1.7-4,3.2c-0.9,1.5-1.5,3.1-1.7,4.8
					l0,0c-2-0.8-4.2-1.1-6.4-0.9c-0.6,0.1-1.2,0.3-1.6,0.7c-0.5,0.4-0.6,1.1-0.4,1.6c0.4,0.6,1,0.9,1.7,0.9c2.3,0.3,4.6-0.8,6.8-1.8
					l0.3-0.4c2.6-1.5,4.9-3.4,6.9-5.7C-1541.1,446.4-1540.6,445.5-1541,444.8z"/>
			</g>
		</g>
		<g id="Group_7637">
			<g id="Group_7636">
				<path id="Path_4418" class="st1" d="M-1545.9,439.5c-0.3-0.4-0.7-0.7-1.2-0.8c-0.5,0-1,0-1.4,0.2c-1.4,0.6-2.5,1.6-3.3,2.9
					c-0.8,1.3-1.4,2.6-1.8,4.1l0.4-0.2c2.1-1,4.1-2.2,6.1-3.6c0.5-0.3,0.9-0.7,1.2-1.2C-1545.7,440.6-1545.7,440.1-1545.9,439.5z"/>
			</g>
		</g>
		<g id="Group_7639">
			<g id="Group_7638">
				<path id="Path_4419" class="st1" d="M-1524.5,479c0.7-0.2,1.4-0.6,2-1.1c0.5-0.6,0.6-1.5,0-2.1c-0.5-0.3-1-0.4-1.6-0.3
					c-3.9,0.6-7.4,3-9.3,6.5C-1530.4,481.1-1527.4,480.1-1524.5,479z"/>
			</g>
		</g>
		<g id="Group_7641">
			<g id="Group_7640">
				<path id="Path_4420" class="st1" d="M-1553.5,446l-0.2,0.1c-2.7-1.1-5.7-1.2-8.5-0.2c-0.5,0.1-0.9,0.4-1.3,0.7
					c-0.4,0.3-0.5,0.8-0.4,1.3c0.2,0.7,1.2,1,1.9,1C-1558.9,448.9-1555.9,447.9-1553.5,446z"/>
			</g>
		</g>
		<g id="Group_7643">
			<g id="Group_7642">
				<path id="Path_4421" class="st1" d="M-1561.3,437.9c-2.2-4-6-6.8-10.5-7.7c-0.5-0.1-0.9-0.2-1.4-0.1c-0.5,0.1-0.9,0.4-1.1,0.8
					c-0.4,0.8,0.3,1.7,0.9,2.3c3.2,2.9,7.7,3.8,12,4.6L-1561.3,437.9z"/>
			</g>
		</g>
		<g id="Group_7645">
			<g id="Group_7644">
				<path id="Path_4422" class="st1" d="M-1544,459.7c0,0,0-0.1,0-0.1L-1544,459.7L-1544,459.7c-2.9-2-6.6-3-9.8-1.8
					c-0.8,0.3-1.6,0.8-1.6,1.6c0,0.9,1,1.4,1.8,1.6c3.2,0.8,6.6,0.4,9.5-1.3L-1544,459.7L-1544,459.7z"/>
			</g>
		</g>
		<g id="Group_7647">
			<g id="Group_7646">
				<path id="Path_4423" class="st1" d="M-1557.9,441.7l0.2-0.3c-1.6-0.5-3.2-0.9-4.8-1c-1.7-0.2-3.3,0.1-4.9,0.8
					c-0.5,0.2-0.9,0.5-1.2,0.9c-0.3,0.4-0.4,0.9-0.3,1.4c0.3,0.8,1.3,1,2.2,1C-1563.6,444.4-1560.6,443.4-1557.9,441.7z"/>
			</g>
		</g>
		<g id="Group_7649">
			<g id="Group_7648">
				<path id="Path_4424" class="st1" d="M-1536.5,451.8c-0.4-0.3-1-0.4-1.4-0.2c-1.7,0.5-3.3,1.6-4.2,3.1c-0.9,1.5-1.5,3.2-1.8,4.9
					c2.4-1.5,4.7-3.2,6.8-5.1c0.4-0.3,0.7-0.8,0.9-1.3C-1536,452.7-1536.1,452.2-1536.5,451.8z"/>
			</g>
		</g>
		<g id="Group_7651">
			<g id="Group_7650">
				<path id="Path_4425" class="st1" d="M-1533.4,482.2C-1533.3,482.2-1533.3,482.2-1533.4,482.2
					C-1533.3,482.2-1533.4,482.2-1533.4,482.2L-1533.4,482.2c-2.6-3.2-6.1-5.3-10-6.1c-0.7-0.2-1.5-0.1-2,0.3
					c-0.5,0.7-0.4,1.6,0.1,2.2c1,1.1,2.3,1.9,3.8,2.2c2.6,0.8,5.4,1.3,8.1,1.5v0l0,0.1c0,0,0-0.1,0.1-0.1c0.1,0,0.2,0,0.3,0
					L-1533.4,482.2z"/>
			</g>
		</g>
		<g id="Group_7653">
			<g id="Group_7652">
				<path id="Path_4426" class="st1" d="M-1531.3,490.5c-0.1,0-0.2,0-0.2,0c0.1,0.1,0.2,0.3,0.3,0.4L-1531.3,490.5z"/>
			</g>
		</g>
		<g id="Group_7655">
			<g id="Group_7654">
				<path id="Path_4427" class="st1" d="M-1543.2,483c-0.5,0-1,0-1.5,0.2c-0.5,0.2-0.9,0.6-1,1.1c-0.1,0.5,0.1,1,0.4,1.5
					c0.9,1,2,1.8,3.3,2.2c3.3,1.4,6.9,2.2,10.5,2.5c-1.3-1.9-2.9-3.6-4.7-5C-1538.3,484-1540.7,483.1-1543.2,483z"/>
			</g>
		</g>
		<g id="Group_7657">
			<g id="Group_7656">
				<path id="Path_4428" class="st1" d="M-1544.2,495.1c-0.1,0.4,0,0.9,0.3,1.2c0.3,0.3,0.6,0.6,0.9,0.9c2,1.4,4.3,2.3,6.7,2.8
					c2.3,0.5,4.7,0.8,7,0.9l-0.2,0.2c3.3-0.3,6.6-1.2,9.6-2.7c0.5-0.2,1-0.5,1.3-1c0.4-0.4,0.4-1,0.1-1.5c-0.4-0.4-1-0.6-1.6-0.6
					c-3.8,0-7.3,2.1-9.2,5.4l0,0c-2.2-3.5-5.8-5.9-9.8-6.9c-1.3-0.4-2.7-0.4-3.9,0C-1543.5,494-1544,494.5-1544.2,495.1z"/>
			</g>
		</g>
		<g id="Group_7659">
			<g id="Group_7658">
				<path id="Path_4429" class="st1" d="M-1529.9,505.9c-1.5-25.9-13.4-50-33.1-66.9c-1.2-1,0.6-2.8,1.8-1.7
					c20.2,17.3,32.4,42.1,33.8,68.7C-1527.3,507.6-1529.8,507.5-1529.9,505.9z"/>
			</g>
		</g>
	</g>
	<g id="Group_7668">
		<g id="Group_7662">
			<g id="Group_7661">
				<path id="Path_4430" class="st2" d="M-1528.9,507.4c-0.2,0-0.4,0-0.6,0c0.1,0.2,0.2,0.3,0.3,0.4L-1528.9,507.4z"/>
			</g>
		</g>
		<g id="Group_7665" class="st3">
			<g id="Group_7664">
				<g id="Group_7663">
					<path id="Path_4431" class="st4" d="M-1529.5,507.4c-2.2-3.2-2.8-7.6-2.9-11.8c-0.2-4.5,0-9.1-1-13.3c-0.2-0.9-0.6-1.9-1.5-2.2
						c-1.1-0.3-2.5,0.7-3.1,1.9c-0.5,1.2-0.8,2.5-0.8,3.8c-1.5-5.4-4.5-10.2-8.6-13.9c-0.6,2.2-1.3,4.3-2,6.5c-2-4-5.1-7.5-8.8-10.1
						c-1.1-0.8-2.7-1.4-4-0.4c-1.4,1.1-1.4,3.2-1.1,4.8c-5.6-4.4-12.7-6.4-19.8-5.6c-2,0.2-4.4,0.9-5.3,2.9c-0.9,2,0.3,3.9,1.6,5.3
						c3.7,4,7.8,7.5,12.3,10.6c-1.6,0.2-3.1,0.7-4.5,1.5c-1.4,1-2.4,2.9-1.9,4.2c0.4,1.2,1.9,1.6,3.2,1.8c4.9,0.8,9.9,1.4,15,1.7
						c-1.7,1-3.8,2.7-3.6,4.5c0.2,1.5,2,1.9,3.5,1.9c4.1,0.2,8.3,0.2,12.5,0.1c-1.4,0.5-2.4,1.9-2.3,3.4c0.2,1.3,1.1,2.4,2.3,2.8
						c1.3,0.3,2.6,0.4,3.9,0.3C-1540.7,508-1535.1,507.7-1529.5,507.4z"/>
				</g>
			</g>
		</g>
		<g id="Group_7667">
			<g id="Group_7666">
				<path id="Path_4432" class="st5" d="M-1577.5,471.8c7.4,3.8,14.6,8.2,21.4,13.1c-0.7-2.6-1.7-5.1-2.9-7.5
					c-0.3-0.7,0.8-1.1,1.2-0.4c1.4,2.9,2.5,5.9,3.3,9l0,0c4.4,3.2,8.6,6.6,12.7,10.2c-1.1-4-2.1-7.9-3.2-11.9
					c-0.2-0.8,1-1.2,1.2-0.4c1.2,4.4,2.4,8.9,3.6,13.3c0,0.1,0,0.3,0,0.4c2.4,2.1,4.7,4.3,6.9,6.6c0.6,0.6-0.2,1.5-0.8,0.9
					c-2.4-2.4-4.8-4.7-7.3-6.9c0,0-0.1,0-0.1,0c-3.4-0.2-6.8-0.4-10.2-0.7c-0.8-0.1-0.9-1.3-0.1-1.2c3,0.2,5.9,0.4,8.9,0.6
					c-4.1-3.6-8.4-7-12.8-10.2c-0.1,0.1-0.2,0.1-0.3,0.1c-4.2,0.6-8.4,0.7-12.6,0.5c-0.8,0-0.9-1.3-0.1-1.2
					c3.8,0.2,7.7,0.1,11.5-0.4c-6.6-4.7-13.6-9-20.8-12.7c-0.3-0.2-0.4-0.6-0.2-0.9C-1578.1,471.8-1577.8,471.7-1577.5,471.8z"/>
			</g>
		</g>
	</g>
	<g id="Group_7674">
		<g id="Group_7671" class="st3">
			<g id="Group_7670">
				<g id="Group_7669">
					<path id="Path_4433" class="st4" d="M-1536.9,482.4c-0.1,1.9,1.2,3.4,2.5,4.7c4.3,4.5,8.8,8.7,13.4,12.8l-0.2,0.3
						c4.9-2.1,9.9-4.2,14.8-6.3c1.1-0.4,2.1-1,2.9-1.7c1.3-1.3,1.7-3.9-1.3-4.7c-0.5-0.1-1.1-0.2-1.7-0.2l-7.6,0.2
						c-0.9,0-1.9-0.1-2.1-1.1c-0.1-0.5,0.1-1,0.5-1.3c2.7-2.6,6.2-4.3,9.9-4.9c1.1-0.1,2.1-0.4,3.1-0.8c1.2-0.7,2-2.6,0.2-3.6
						c-0.4-0.2-0.8-0.3-1.3-0.3c-2.8-0.2-5.6-0.1-8.4,0.4c-1.4,0.2-3.4,0.3-3.6-1.3c-0.1-0.7,0.2-1.4,0.8-1.8c2.7-1.9,5.7-3.3,9-4.1
						c0.8-0.1,1.6-0.4,2.3-0.8c0.9-0.6,1.5-2.1,0.1-2.9c-0.5-0.3-1.1-0.4-1.7-0.3l-7.9,0.9c-0.9,0.1-2.1,0.1-2.5-0.9
						c-0.2-0.7,0-1.5,0.7-1.9c3-2.1,6.3-3.6,9.8-4.5c1.2-0.1,2.2-0.7,3-1.6c0.4-0.5,0.4-1.2,0.1-1.7c-0.5-0.8-1.4-0.7-2.2-0.7
						l-8.6,0.8c-0.3,0-0.6-0.2-0.6-0.5c0-0.2,0-0.4,0.2-0.5c2.5-2.3,5.6-4,8.8-5c0.8-0.2,1.6-0.5,2.4-1c1-0.7,1.4-2.3-0.1-3
						c-0.4-0.2-0.9-0.3-1.3-0.2c-2.7,0.2-5.3,0.5-7.9,1.2c1-2.3,2-4.7,3-7c0.7-1.7,1.4-3.8,0.2-5.3c-0.9-1-2.3-1.3-3.6-0.9
						c-2.2,0.7-3.2,2.9-3.7,5c-0.1,1.2-0.5,2.4-1.2,3.4c-0.4,0.5-1,0.7-1.7,0.6c-1.1-0.2-1.4-1.3-1.8-2.2c-0.4-0.8-1.1-1.6-1.9-1.4
						c-0.4,0.1-0.8,0.5-1,0.9c-0.8,1.5-0.1,3.3,0.8,4.8c1.1,1.8,2.5,3.5,1.9,5.7c-0.2,1.2-1.4,2-2.6,1.9c-1.2-0.2-1.7-1.4-2.4-2.4
						c-0.7-0.9-2.1-1.8-2.9-0.7c-0.2,0.3-0.4,0.7-0.4,1.1c0,2.8,1.8,5.1,3.2,7.4c1,1.4,1.7,3.1,2,4.8c0.1,0.7-0.4,1.3-1.1,1.4
						c-0.3,0-0.7-0.1-0.9-0.3l-4.7-3.6c-0.5-0.4-1.1-0.8-1.8-0.5c-0.4,0.2-0.6,0.6-0.7,1c0,0.9,0.3,1.8,1,2.5
						c2.1,2.8,4.2,5.6,6.3,8.4c0.7,1,1.5,2.2,0.9,3.3c-0.5,0.9-1.6,1.3-2.6,0.9c-2.1-0.6-2.9-2.6-4.4-3.9c-0.9-0.8-2.5-1.2-3,0.1
						c-0.2,0.6-0.1,1.2,0.3,1.7c2.2,2.7,4.7,5.1,7.3,7.4c1.1,0.9,2.2,1.8,2.3,3.3c0.1,0.9-0.4,1.8-1.3,2.1c-0.9,0.1-1.8-0.3-2.4-1.1
						c-1.1-1-2.1-1.9-3.2-2.9c-1.1-1-2.5-2-3.9-1.4C-1536.3,480.5-1536.9,481.4-1536.9,482.4z"/>
				</g>
			</g>
		</g>
		<g id="Group_7673">
			<g id="Group_7672">
				<path id="Path_4434" class="st5" d="M-1520.4,498.7c-4.6-22.2-1.5-45.2,8.8-65.4c0.4-0.7,1.5-0.2,1.2,0.5
					c-10.2,20-13.3,42.8-8.7,64.8C-1519,499.3-1520.2,499.5-1520.4,498.7z"/>
			</g>
		</g>
	</g>
</g>
<linearGradient id="Path_4435_1_" gradientUnits="userSpaceOnUse" x1="-807.2362" y1="580.2213" x2="-806.1622" y2="580.6963" gradientTransform="matrix(212.2 0 0 -9.841 171320.6094 5860.04)">
	<stop  offset="0" style="stop-color:#1F5B6B"/>
	<stop  offset="0.291" style="stop-color:#2E5763"/>
	<stop  offset="0.68" style="stop-color:#3D555B"/>
	<stop  offset="1" style="stop-color:#435459"/>
</linearGradient>
<path id="Path_4435" class="st7" d="M37.4,147.7c0,2.7,47.5,4.9,106.1,4.9s106.1-2.2,106.1-4.9s-47.5-4.9-106.1-4.9
	S37.4,144.9,37.4,147.7z"/>
<g id="Group_7676" transform="translate(1588.692 -376.873)">
	<path id="Path_4436" class="st8" d="M-1448.4,485.7c0-13.7-10.5-44.5-24.8-44.5c-15.3,0-24.8,30.8-24.8,44.5
		c0,13.7,11.1,24.8,24.8,24.8c0,0,0,0,0,0C-1459.5,510.5-1448.4,499.4-1448.4,485.7C-1448.4,485.7-1448.4,485.7-1448.4,485.7z"/>
	<path id="Path_4437" class="st9" d="M-1448.4,485.7c0-9.7-5.3-28.1-13.5-37.9c4.6,7.7,7.8,16.5,7.1,25.4
		c-0.8,9.4-6.7,18.8-15.8,21.7c-6.8,2-14.1,0.4-19.6-4.2c-3.6-3.1-6.1-7.2-7.4-11.8c-0.4,2.2-0.6,4.5-0.6,6.8
		c0,13.7,11.1,24.8,24.8,24.8c0,0,0,0,0,0C-1459.5,510.5-1448.4,499.4-1448.4,485.7C-1448.4,485.7-1448.4,485.7-1448.4,485.7z"/>
	<path id="Path_4438" class="st10" d="M-1491.3,481.3c-0.3-0.5-0.5-1-0.7-1.6c-0.9-2.6-1.3-5.3-1.1-8c0.3-6.5,2.3-12.9,5.6-18.5
		c3.1-5.1,10.3-13.3,16.9-8.8c4.8,3.3,7.6,11.1,8.7,16.5c1.3,5.9,1,12-0.8,17.7c-1.3,3.6-4.8,6.5-8.2,8.1
		c-6.9,3.1-16.1,1.9-20.2-5.1C-1491.1,481.6-1491.2,481.4-1491.3,481.3z"/>
	<path id="Path_4439" class="st11" d="M-1471.3,452.5c0-2.6-1.7-4.9-4.2-5.7c-2.3-0.7-4.9,0.7-6.3,2.6c-0.8,1.1-1.1,2.4-1,3.7
		c0.5,3.1,4.2,4.1,6.8,3.7C-1473.7,456.5-1471.4,454.9-1471.3,452.5z"/>
	<path id="Path_4440" class="st11" d="M-1480,463.1c1.6-0.3,2.8-2.1,1.7-3.7c-0.8-1.2-2.4-1.6-3.6-0.8c-0.3,0.2-0.6,0.5-0.8,0.8
		c-0.6,1.2-0.2,2.7,1,3.4C-1481.3,463.1-1480.6,463.2-1480,463.1z"/>
</g>
<g id="Group_7677" transform="translate(1588.692 -376.873)">
	<path id="Path_4441" class="st8" d="M-1500,485.7c0-13.7-10.5-44.5-24.8-44.5c-15.3,0-24.8,30.8-24.8,44.5
		c0,13.7,11.1,24.8,24.8,24.8C-1511.1,510.5-1500,499.4-1500,485.7z"/>
	<path id="Path_4442" class="st9" d="M-1500,485.7c0-9.7-5.3-28.1-13.5-37.9c4.6,7.7,7.8,16.5,7.1,25.4c-0.8,9.4-6.7,18.8-15.7,21.7
		c-6.8,2-14.1,0.4-19.6-4.2c-3.6-3.1-6.1-7.2-7.4-11.8c-0.4,2.2-0.6,4.5-0.6,6.8c0,13.7,11.1,24.8,24.8,24.8
		C-1511.1,510.5-1500,499.4-1500,485.7C-1500,485.7-1500,485.7-1500,485.7z"/>
	<path id="Path_4443" class="st10" d="M-1542.9,481.3c-0.3-0.5-0.5-1-0.7-1.6c-0.9-2.6-1.3-5.3-1.1-8c0.3-6.5,2.3-12.9,5.6-18.5
		c3.1-5.1,10.3-13.3,16.9-8.8c4.8,3.3,7.6,11.1,8.7,16.5c1.3,5.9,1,12-0.8,17.7c-1.3,3.6-4.8,6.5-8.2,8.1
		c-6.9,3.1-16.1,1.9-20.2-5.1C-1542.7,481.6-1542.8,481.4-1542.9,481.3z"/>
	<path id="Path_4444" class="st11" d="M-1522.9,452.5c0-2.6-1.7-4.9-4.2-5.7c-2.3-0.7-4.9,0.7-6.3,2.6c-0.8,1.1-1.1,2.4-1,3.7
		c0.5,3.1,4.2,4.1,6.8,3.7C-1525.3,456.5-1523,454.9-1522.9,452.5z"/>
	<path id="Path_4445" class="st11" d="M-1531.6,463.1c1.6-0.3,2.8-2.1,1.7-3.7c-0.8-1.2-2.4-1.6-3.6-0.8c-0.3,0.2-0.6,0.5-0.8,0.8
		c-0.6,1.2-0.2,2.7,1,3.4C-1532.9,463.1-1532.2,463.2-1531.6,463.1z"/>
</g>
<g id="Group_7678" transform="translate(1588.692 -376.873)">
	<path id="Path_4446" class="st8" d="M-1397.3,483.4c0-13.7-10.5-44.5-24.8-44.5c-15.3,0-24.8,30.8-24.8,44.5
		c0,13.7,11.1,24.8,24.8,24.8l0,0C-1408.4,508.2-1397.3,497.1-1397.3,483.4C-1397.3,483.4-1397.3,483.4-1397.3,483.4z"/>
	<path id="Path_4447" class="st9" d="M-1397.3,483.4c0-9.7-5.3-28.1-13.5-37.9c4.6,7.7,7.8,16.5,7.1,25.4
		c-0.8,9.4-6.7,18.8-15.7,21.7c-6.8,2-14.1,0.4-19.6-4.2c-3.6-3.1-6.1-7.2-7.4-11.8c-0.4,2.2-0.6,4.5-0.6,6.8
		c0,13.7,11.1,24.8,24.8,24.8l0,0C-1408.4,508.2-1397.3,497.1-1397.3,483.4z"/>
	<path id="Path_4448" class="st10" d="M-1440.2,478.9c-0.3-0.5-0.5-1-0.7-1.6c-0.9-2.6-1.3-5.3-1.1-8c0.3-6.5,2.3-12.9,5.6-18.5
		c3.1-5.1,10.3-13.3,16.9-8.8c4.8,3.3,7.6,11.1,8.7,16.5c1.3,5.9,1,12-0.8,17.7c-1.3,3.6-4.8,6.5-8.2,8.1
		c-6.9,3.1-16.1,1.9-20.2-5.1C-1440,479.2-1440.1,479.1-1440.2,478.9z"/>
	<path id="Path_4449" class="st11" d="M-1420.2,450.2c0-2.6-1.7-4.9-4.2-5.7c-2.3-0.7-4.9,0.7-6.3,2.6c-0.8,1.1-1.1,2.4-1,3.7
		c0.5,3.1,4.2,4.1,6.8,3.7C-1422.6,454.2-1420.3,452.6-1420.2,450.2z"/>
	<path id="Path_4450" class="st11" d="M-1428.9,460.7c1.6-0.3,2.8-2.1,1.7-3.7c-0.8-1.2-2.4-1.6-3.6-0.8c-0.3,0.2-0.6,0.5-0.8,0.8
		c-0.6,1.2-0.2,2.7,1,3.4C-1430.2,460.8-1429.5,460.9-1428.9,460.7z"/>
</g>
<g id="Group_7679" transform="translate(1588.692 -376.873)">
	<path id="Path_4451" class="st8" d="M-1346.1,483.4c0-13.7-10.5-44.5-24.8-44.5c-15.3,0-24.8,30.8-24.8,44.5
		c0,13.7,11.1,24.8,24.8,24.8c0,0,0,0,0,0C-1357.2,508.2-1346.1,497.1-1346.1,483.4z"/>
	<path id="Path_4452" class="st9" d="M-1346.1,483.4c0-9.7-5.3-28.1-13.5-37.9c4.6,7.7,7.8,16.5,7.1,25.4
		c-0.8,9.4-6.7,18.8-15.7,21.7c-6.8,2-14.1,0.4-19.6-4.2c-3.6-3.1-6.1-7.2-7.4-11.8c-0.4,2.2-0.6,4.5-0.6,6.8
		c0,13.7,11.1,24.8,24.8,24.8l0,0C-1357.2,508.2-1346.1,497.1-1346.1,483.4z"/>
	<path id="Path_4453" class="st10" d="M-1389,478.9c-0.3-0.5-0.5-1-0.7-1.6c-0.9-2.6-1.3-5.3-1.1-8c0.3-6.5,2.3-12.9,5.6-18.5
		c3.1-5.1,10.3-13.3,16.9-8.8c4.8,3.3,7.6,11.1,8.7,16.5c1.3,5.9,1,12-0.8,17.7c-1.3,3.6-4.8,6.5-8.2,8.1
		c-6.9,3.1-16.1,1.9-20.2-5.1C-1388.8,479.2-1388.9,479.1-1389,478.9z"/>
	<path id="Path_4454" class="st11" d="M-1369,450.2c0-2.6-1.7-4.9-4.2-5.7c-2.3-0.7-4.9,0.7-6.3,2.6c-0.8,1.1-1.1,2.4-1,3.7
		c0.5,3.1,4.2,4.1,6.8,3.7C-1371.4,454.2-1369.1,452.6-1369,450.2z"/>
	<path id="Path_4455" class="st11" d="M-1377.7,460.7c1.6-0.3,2.8-2.1,1.7-3.7c-0.8-1.2-2.4-1.6-3.6-0.8c-0.3,0.2-0.6,0.5-0.8,0.8
		c-0.6,1.2-0.2,2.7,1,3.4C-1379,460.8-1378.3,460.9-1377.7,460.7z"/>
</g>
<path id="Path_4456" class="st12" d="M251.2,110.6H30.6c0,13.3,4.3,26.3,12.2,37l0.2,0.2h195.8l0.2-0.2
	C246.9,136.9,251.2,123.9,251.2,110.6L251.2,110.6z"/>
<path id="Path_4457" class="st13" d="M30.6,110.2c0,5.6,0.8,11.1,2.3,16.4c16-11.3,38.3-10.5,56.9-3.9c1.7,0.7,3.5,1.2,5.3,1.5
	c2.6,0.2,5.1,0,7.6-0.6c35.3-6.7,72.1-10,107.1-2c6.7,1.5,14,4.1,17.1,10.2c2.4,4.9,1.2,10.9-1.7,15.6h13.6l0.2-0.2
	c7.9-10.7,12.2-23.6,12.2-37H30.6z"/>
<path id="Path_4458" class="st14" d="M252.9,114.8H29.5c-1.6,0-2.9-1.3-2.9-2.9l0,0c0-1.6,1.3-2.9,2.9-2.9h223.3
	c1.6,0,2.9,1.3,2.9,2.9l0,0C255.8,113.5,254.5,114.8,252.9,114.8z"/>
<path id="Path_4459" class="st15" d="M195.6,125.4l0.1,0c4.2,1.1,11.3,4.4,7.8,10c-1.5,2.4-4.3,3.5-7,4.3
	c-11.1,3.2-22.5,2.7-33.9,2.8c-16.8,0-33.7,0.6-50.5-0.3c-4.8-0.3-22.3-1.8-13.2-9.6c4.4-3.7,11.2-5.9,16.7-7.3
	c8.5-2.2,17.5-2.5,26.2-2.9C159.7,121.5,178.2,121.1,195.6,125.4z"/>
</svg>
