<svg id="Component_13_1" data-name="Component 13 – 1" xmlns="http://www.w3.org/2000/svg" xmlns:xlink="http://www.w3.org/1999/xlink" width="280.285" height="174.429" viewBox="0 0 280.285 174.429">
  <defs>
    <clipPath id="clip-path">
      <rect id="Rectangle_2993" data-name="Rectangle 2993" width="7.957" height="37.425" transform="translate(74.254 171.688)" fill="none"/>
    </clipPath>
    <clipPath id="clip-path-2">
      <path id="Path_1428" data-name="Path 1428" d="M74.535,207.035l-6.71,4.055L44,175.669l6.71-4.056Z" fill="none"/>
    </clipPath>
    <clipPath id="clip-path-3">
      <path id="Path_1435" data-name="Path 1435" d="M302.785,207c0,7.482-58.251,22.1-130.107,22.1S42.568,214.484,42.568,207Z" fill="#f7f7f7"/>
    </clipPath>
    <clipPath id="clip-path-4">
      <path id="Path_1487" data-name="Path 1487" d="M212.065,212.063c.52.019,3.175-1.3,3.34-1.106s2.721,4.554,1.527,5.483-4.217,1.787-7.065,3.38-5.446,2.34-6.508,1.886-1.839-1.983-.9-2.619a63.282,63.282,0,0,0,5.653-5.627c.5-.672-.175-1.549.153-2,.392-.545,1.77-.623,2.509-.537C211.789,211.039,211.179,212.03,212.065,212.063Z" fill="none"/>
    </clipPath>
    <clipPath id="clip-path-5">
      <path id="Path_1501" data-name="Path 1501" d="M244.431,130.239l2.54-2.2s4.2,1.04,4.938,2.005,1.627,2.249,0,4.675S247.314,136.262,244.431,130.239Z" fill="none"/>
    </clipPath>
    <clipPath id="clip-path-6">
      <path id="Path_1509" data-name="Path 1509" d="M245.793,199.021c.475-.232,2.219-2.683,2.457-2.592s4.62,2.767,4,4.173-2.914,3.621-4.7,6.414-3.749,4.708-4.916,4.81-2.6-.89-2.067-1.907a64.392,64.392,0,0,0,2.356-7.747c.122-.84-.9-1.3-.825-1.865.09-.676,1.284-1.409,1.987-1.686C245.055,198.238,244.984,199.418,245.793,199.021Z" fill="none"/>
    </clipPath>
  </defs>
  <g id="Group_4396" data-name="Group 4396" transform="translate(-22.5 -54.673)">
    <g id="Group_4379" data-name="Group 4379">
      <g id="Group_4378" data-name="Group 4378">
        <path id="Path_1424" data-name="Path 1424" d="M58.349,179.256c15.324,10.859,19.644,29.935,19.644,29.935s-20.524,1.473-35.849-9.386S22.5,169.869,22.5,169.869s20.523-1.471,35.849,9.387" fill="#d8e081"/>
      </g>
    </g>
    <g id="Group_4381" data-name="Group 4381">
      <g id="Group_4380" data-name="Group 4380">
        <path id="Path_1425" data-name="Path 1425" d="M77.981,209.008s.226-.118.632-.356c.326-.189.771-.453,1.309-.791,4.816-3.008,17.29-11.854,22.406-25.5,6.4-17.091-1.157-35.24-1.157-35.24S84.682,155.9,77.678,171.688c-.306.679-.588,1.373-.855,2.082-5.569,14.869-.57,30.541.821,34.361.211.571.337.877.337.877" fill="#00b0c4"/>
      </g>
    </g>
    <g id="Group_4386" data-name="Group 4386" opacity="0.1" style="isolation: isolate">
      <g id="Group_4385" data-name="Group 4385">
        <g id="Group_4384" data-name="Group 4384" clip-path="url(#clip-path)">
          <g id="Group_4383" data-name="Group 4383">
            <g id="Group_4382" data-name="Group 4382">
              <path id="Path_1426" data-name="Path 1426" d="M77.644,208.131c.375.206.7.38.97.521.59.307.918.46.918.46s.156-.442.39-1.251c1.3-4.422,5.012-19.838-1.2-34q-.491-1.113-1.04-2.177c-.305.679-.588,1.373-.855,2.082-5.569,14.869-.57,30.541.821,34.361"/>
            </g>
          </g>
        </g>
      </g>
    </g>
    <g id="Group_4391" data-name="Group 4391" opacity="0.1" style="isolation: isolate">
      <g id="Group_4390" data-name="Group 4390">
        <g id="Group_4389" data-name="Group 4389" clip-path="url(#clip-path-2)">
          <g id="Group_4388" data-name="Group 4388">
            <g id="Group_4387" data-name="Group 4387">
              <path id="Path_1427" data-name="Path 1427" d="M70.06,208.433c.447,0,.833,0,1.149,0,.692-.011,1.067-.033,1.067-.033s-.151-.5-.467-1.382c-1.721-4.848-8.4-21.33-22.656-31.563q-1.124-.8-2.263-1.531c.175.8.379,1.6.6,2.4,4.77,16.913,18.961,29.2,22.566,32.1"/>
            </g>
          </g>
        </g>
      </g>
    </g>
    <g id="Group_4393" data-name="Group 4393">
      <g id="Group_4392" data-name="Group 4392">
        <path id="Path_1429" data-name="Path 1429" d="M51.952,184.338c7.349,16.744,25.8,25.391,25.8,25.391s6.537-18.5-.812-35.247-25.8-25.392-25.8-25.392-6.536,18.5.812,35.248" fill="#00abc4"/>
      </g>
    </g>
    <g id="Group_4395" data-name="Group 4395" opacity="0.1">
      <g id="Group_4394" data-name="Group 4394">
        <path id="Path_1430" data-name="Path 1430" d="M77.806,209.152,51.514,149.736l-.466.186L77.34,209.338Z"/>
      </g>
    </g>
  </g>
  <g id="Group_4398" data-name="Group 4398" transform="translate(-22.5 -54.673)">
    <g id="Group_4397" data-name="Group 4397">
      <path id="Path_1431" data-name="Path 1431" d="M243.125,199.762c8.723-3.394,17.49-9,20.072-18.334,3.065-11.086-8.088-21.244-19.123-24.494-17.021-5.011-40.658,10.922-56.194-1-15.966-12.258,8.22-29.715,15.734-39.167,16.447-20.69-4.745-35-23.43-41.236-8.883-2.965-19.743-6.275-29.235-6.023-13.765.371-17.843,16.647-29.665,19.631-11.688,2.949-28.837-7.67-40.864-6.855S55.172,87.895,50.4,98.968c-5.608,13.025,2.491,27.5,13.38,34.874,14.157,9.591,34.063,2.528,44.1,19.113,4.435,7.325,6.383,16.677,7.9,25.019,1.412,7.782,3.912,15.37,10.567,20.191,8.944,6.48,22.305,7.759,33.058,7.964,26.664.508,54.918,3.391,80.688-5.272C241.1,200.52,242.112,200.156,243.125,199.762Z" fill="#f7f7f7"/>
    </g>
  </g>
  <g id="Group_4403" data-name="Group 4403" transform="translate(-22.5 -54.673)">
    <g id="Group_4402" data-name="Group 4402">
      <path id="Path_1432" data-name="Path 1432" d="M302.785,207c0,7.482-58.251,22.1-130.107,22.1S42.568,214.484,42.568,207Z" fill="#f7f7f7"/>
      <g id="Group_4401" data-name="Group 4401" clip-path="url(#clip-path-3)">
        <g id="Group_4399" data-name="Group 4399">
          <path id="Path_1433" data-name="Path 1433" d="M302.785,217.93l-260.217.113V207H302.785Z" fill="#f7f7f7"/>
        </g>
        <g id="Group_4400" data-name="Group 4400">
          <path id="Path_1434" data-name="Path 1434" d="M42.568,218.043l260.217-.113V229.1H42.568Z" fill="#f7f7f7"/>
        </g>
      </g>
    </g>
  </g>
  <g id="Group_4474" data-name="Group 4474" transform="translate(-22.5 -54.673)">
    <g id="Group_4405" data-name="Group 4405">
      <g id="Group_4404" data-name="Group 4404">
        <path id="Path_1436" data-name="Path 1436" d="M91.963,174.9a29.136,29.136,0,0,1,9.4-5.3c13.491-4.519,29.762,1.748,36.737,14.148,2.764,4.914,5.49,11.516,11.13,11.539,5.54.024,6.413-5.258,9.857-8.1,2.8-2.309,6.371-2.24,9.687-1.467,5.812,1.354,11.378,4.7,17.412,4.981,7.156.332,11.984-4.613,18.153-7.316a26.244,26.244,0,0,1,36.4,19.6,3.279,3.279,0,0,1-.507,2.941,3.471,3.471,0,0,1-2.478.647q-76.347-.006-152.693.009c-1.234,0-2.605-.053-3.481-.921a4.446,4.446,0,0,1-1.017-2.642C79.142,192.521,83.884,181.639,91.963,174.9Z" fill="#e0ecb6"/>
      </g>
    </g>
    <g id="Group_4418" data-name="Group 4418">
      <g id="Group_4408" data-name="Group 4408">
        <g id="Group_4407" data-name="Group 4407">
          <g id="Group_4406" data-name="Group 4406">
            <path id="Path_1437" data-name="Path 1437" d="M98.582,176.9c3.629,2.4,6.385,6.259,8.457,10.015a40.758,40.758,0,0,1,4.984,19.3.625.625,0,0,0,1.25,0,42.115,42.115,0,0,0-5.155-19.928c-2.179-3.95-5.094-7.938-8.9-10.464-.673-.445-1.3.637-.631,1.08Z" fill="#a2d45e"/>
          </g>
        </g>
      </g>
      <g id="Group_4411" data-name="Group 4411">
        <g id="Group_4410" data-name="Group 4410">
          <g id="Group_4409" data-name="Group 4409">
            <path id="Path_1438" data-name="Path 1438" d="M105.944,176.852c-.043-.3,0,.023.007.121.012.162.018.325.021.487q0,.319-.012.638c-.007.119-.015.238-.026.356-.006.058-.013.115-.019.173s-.009.065,0-.018l-.015.1a6.158,6.158,0,0,1-.164.76c-.033.117-.071.233-.114.347-.01.027-.1.23-.035.092-.03.063-.058.125-.089.187a3.079,3.079,0,0,1-.181.309c-.015.024-.148.2-.052.079-.043.052-.086.1-.133.154s-.07.072-.108.106c-.019.02-.188.156-.068.066a2.3,2.3,0,0,1-.355.218.625.625,0,1,0,.631,1.079c1.684-.85,2.032-3.061,1.984-4.759a6.952,6.952,0,0,0-.07-.829.628.628,0,0,0-.768-.437.642.642,0,0,0-.437.769Z" fill="#a2d45e"/>
          </g>
        </g>
      </g>
      <g id="Group_4414" data-name="Group 4414">
        <g id="Group_4413" data-name="Group 4413">
          <g id="Group_4412" data-name="Group 4412">
            <path id="Path_1439" data-name="Path 1439" d="M100.819,186.213a8.117,8.117,0,0,0,2.277.957,3.977,3.977,0,0,0,3.6-.529.629.629,0,0,0,0-.883.638.638,0,0,0-.884,0c.076-.062-.061.041-.077.051a1.941,1.941,0,0,1-.187.109,1.29,1.29,0,0,0-.119.059,1.046,1.046,0,0,0-.126.041,2.805,2.805,0,0,1-.386.089c.109-.017-.054,0-.078.006-.063.006-.124.008-.186.01a4.007,4.007,0,0,1-1.4-.207c-.234-.067-.466-.146-.693-.236l-.152-.061c-.125-.051.088.042-.042-.017-.087-.041-.174-.079-.26-.12a5.686,5.686,0,0,1-.654-.349.625.625,0,0,0-.631,1.08Z" fill="#a2d45e"/>
          </g>
        </g>
      </g>
      <g id="Group_4417" data-name="Group 4417">
        <g id="Group_4416" data-name="Group 4416">
          <g id="Group_4415" data-name="Group 4415">
            <path id="Path_1440" data-name="Path 1440" d="M103.94,194.216c2.71,1.039,5.777,1.155,8.045-.89a10.422,10.422,0,0,0,2.881-5.422,8.309,8.309,0,0,0,.281-1.778.625.625,0,0,0-1.25,0,3.782,3.782,0,0,1-.038.411c.027-.219-.023.149-.036.223-.026.162-.057.323-.09.483a12.882,12.882,0,0,1-.73,2.4,6.314,6.314,0,0,1-4.011,3.926,7.9,7.9,0,0,1-4.721-.558c-.752-.288-1.076.919-.331,1.205Z" fill="#a2d45e"/>
          </g>
        </g>
      </g>
    </g>
    <g id="Group_4421" data-name="Group 4421">
      <g id="Group_4420" data-name="Group 4420">
        <g id="Group_4419" data-name="Group 4419">
          <path id="Path_1441" data-name="Path 1441" d="M194.979,206.769c3.046-4.158,8.558-5.857,13.463-6.414a32.987,32.987,0,0,1,16.152,2.033,15.46,15.46,0,0,1,6.35,4.507c.5.631,1.376-.258.884-.883-3.263-4.14-8.922-5.967-13.942-6.711a32.574,32.574,0,0,0-17.245,1.748,15.768,15.768,0,0,0-6.742,5.089c-.476.649.609,1.274,1.08.631Z" fill="#a2d45e"/>
        </g>
      </g>
    </g>
    <g id="Group_4424" data-name="Group 4424">
      <g id="Group_4423" data-name="Group 4423">
        <g id="Group_4422" data-name="Group 4422">
          <path id="Path_1442" data-name="Path 1442" d="M197.366,196.814a5.569,5.569,0,0,0,.784.051c.2.01.393.024.588.043l.147.017c.175.019-.059-.012.05.007.124.019.246.037.368.06a7.021,7.021,0,0,1,.779.191c.127.038.252.081.376.128.059.021.117.044.175.068-.115-.048.086.04.126.06a5.27,5.27,0,0,1,.773.457c.013.009.108.082.052.038s.024.02.024.02c.064.054.123.105.181.157a4.337,4.337,0,0,1,.335.343,2.369,2.369,0,0,1,.276.376,4.106,4.106,0,0,1,.286.525,4.9,4.9,0,0,1,.176.49,5.834,5.834,0,0,1,.165.727.631.631,0,0,0,.769.438.64.64,0,0,0,.436-.77,5.173,5.173,0,0,0-2.473-3.686,7.686,7.686,0,0,0-3.332-.922c-.191-.014-.382-.022-.574-.028-.063,0-.125,0-.188-.006-.1,0-.2-.034.034.011a.642.642,0,0,0-.769.437.629.629,0,0,0,.436.768Z" fill="#a2d45e"/>
        </g>
      </g>
    </g>
    <g id="Group_4427" data-name="Group 4427">
      <g id="Group_4426" data-name="Group 4426">
        <g id="Group_4425" data-name="Group 4425">
          <path id="Path_1443" data-name="Path 1443" d="M200.727,192.985c.07.148.178.283.261.422s.147.26.211.394c.024.049.119.286.059.124.031.085.066.169.1.255a3.983,3.983,0,0,1,.136.558c-.018-.107,0-.036,0,.032,0,.049.008.1.01.15,0,.1,0,.2-.009.306-.006.134.026-.1,0,.041-.011.051-.02.1-.033.156s-.023.087-.037.13c-.006.018-.06.173-.035.108s-.042.089-.052.109c-.026.052-.057.1-.087.155s-.066.1-.1.154c-.025.033-.025.034,0,0l-.086.1a.624.624,0,1,0,.884.882,3.072,3.072,0,0,0,.768-1.569,3.568,3.568,0,0,0-.108-1.513,5.419,5.419,0,0,0-.483-1.117c-.1-.172-.228-.333-.311-.511a.63.63,0,0,0-.856-.223.64.64,0,0,0-.224.854Z" fill="#a2d45e"/>
        </g>
      </g>
    </g>
    <g id="Group_4430" data-name="Group 4430">
      <g id="Group_4429" data-name="Group 4429">
        <g id="Group_4428" data-name="Group 4428">
          <path id="Path_1444" data-name="Path 1444" d="M201.861,197.864c-.173.116-.325.27-.488.4a.337.337,0,0,1-.076.059c.142-.057.066-.049.016-.013-.067.049-.134.1-.2.144a4.813,4.813,0,0,1-.457.275c-.081.042-.164.081-.248.119.144-.066.01-.005-.024.007s-.089.033-.134.048c-.1.032-.2.061-.3.083-.047.01-.1.014-.143.028s-.032.005.043-.005q-.05.006-.1.009a2.565,2.565,0,0,1-.3,0c-.051,0-.1-.007-.154-.013.154.015-.018-.007-.042-.012a3.088,3.088,0,0,1-.316-.09c-.069-.027-.072-.027-.011,0l-.081-.038c-.064-.031-.125-.065-.187-.1a.625.625,0,1,0-.631,1.079,3.27,3.27,0,0,0,3.1.044,5.411,5.411,0,0,0,1.033-.661c.1-.077.2-.157.293-.239.034-.029.07-.059.1-.09.1-.091-.1.074-.059.043a.625.625,0,1,0-.631-1.079Z" fill="#a2d45e"/>
        </g>
      </g>
    </g>
    <g id="Group_4443" data-name="Group 4443">
      <g id="Group_4433" data-name="Group 4433">
        <g id="Group_4432" data-name="Group 4432">
          <g id="Group_4431" data-name="Group 4431">
            <path id="Path_1445" data-name="Path 1445" d="M131.017,186.9a19.173,19.173,0,0,1-2.56,8.535,27.886,27.886,0,0,1-9.18,10.06c-.666.444-.041,1.526.631,1.079a29.178,29.178,0,0,0,9.628-10.509,20.521,20.521,0,0,0,2.731-9.165.625.625,0,0,0-1.25,0Z" fill="#a2d45e"/>
          </g>
        </g>
      </g>
      <g id="Group_4436" data-name="Group 4436">
        <g id="Group_4435" data-name="Group 4435">
          <g id="Group_4434" data-name="Group 4434">
            <path id="Path_1446" data-name="Path 1446" d="M133.884,190.995c-.02.018-.04.034-.061.05-.12.1.072-.052.027-.02-.088.065-.176.13-.267.192a5.85,5.85,0,0,1-.812.461.443.443,0,0,1-.112.05c.085-.036.1-.04.034-.015a.226.226,0,0,1-.039.015c-.084.034-.17.064-.257.091s-.174.051-.263.071l-.123.025c-.157.028-.005-.011,0,0s-.251.016-.268.016c-.047,0-.1-.005-.142-.007-.124,0,.135.03,0,0a2.344,2.344,0,0,1-.237-.06c-.138-.046-.025.015-.005,0-.016.01-.132-.068-.149-.079a.625.625,0,1,0-.631,1.079,2.965,2.965,0,0,0,2.706-.063,5.762,5.762,0,0,0,1.478-.929.63.63,0,0,0,0-.884.641.641,0,0,0-.884,0Z" fill="#a2d45e"/>
          </g>
        </g>
      </g>
      <g id="Group_4439" data-name="Group 4439">
        <g id="Group_4438" data-name="Group 4438">
          <g id="Group_4437" data-name="Group 4437">
            <path id="Path_1447" data-name="Path 1447" d="M126.487,191.69a5.9,5.9,0,0,0,.17,1.246,4.241,4.241,0,0,0,.865,1.826,2.312,2.312,0,0,0,1.043.68.63.63,0,0,0,.769-.436.64.64,0,0,0-.437-.769.7.7,0,0,0-.094-.033s.129.062.073.031l-.045-.02a1.647,1.647,0,0,1-.195-.113c-.079-.055-.023-.028.023.021-.02-.022-.05-.041-.073-.062a1.7,1.7,0,0,1-.147-.147c-.023-.024-.043-.049-.064-.074-.077-.09.039.056.018.024-.038-.059-.082-.116-.119-.176a4.175,4.175,0,0,1-.2-.381c-.045-.1.051.129.012.027l-.035-.092c-.026-.066-.048-.133-.071-.2-.041-.13-.078-.262-.109-.4s-.053-.236-.073-.355c-.011-.056-.019-.112-.028-.168,0-.029-.018-.128,0,0s0,.022,0-.009a3.954,3.954,0,0,1-.033-.423.625.625,0,0,0-1.25,0Z" fill="#a2d45e"/>
          </g>
        </g>
      </g>
      <g id="Group_4442" data-name="Group 4442">
        <g id="Group_4441" data-name="Group 4441">
          <g id="Group_4440" data-name="Group 4440">
            <path id="Path_1448" data-name="Path 1448" d="M123.047,196.55c.432,2,1.555,3.889,3.641,4.449a7.337,7.337,0,0,0,4.331-.362,5.928,5.928,0,0,0,1.172-.518c.677-.431.051-1.514-.631-1.08a2.277,2.277,0,0,1-.249.132c-.071.034-.142.065-.213.1-.13.059-.024.01-.024.01-.058.025-.116.048-.175.071a9.04,9.04,0,0,1-1.619.472,4.99,4.99,0,0,1-.9.1c-.162.006-.325.007-.488,0s-.355-.026-.421-.036a3.341,3.341,0,0,1-1.812-.827,5.268,5.268,0,0,1-1.411-2.845c-.169-.786-1.374-.453-1.205.332Z" fill="#a2d45e"/>
          </g>
        </g>
      </g>
    </g>
    <g id="Group_4453" data-name="Group 4453">
      <g id="Group_4446" data-name="Group 4446">
        <g id="Group_4445" data-name="Group 4445">
          <g id="Group_4444" data-name="Group 4444">
            <path id="Path_1449" data-name="Path 1449" d="M177.729,192.916c-5.922.4-8.658,6.408-9.656,11.531q-.117.6-.206,1.2c-.024.165-.046.331-.068.5-.031.234.023-.12,0,.032-.148.786,1.058,1.123,1.206.332.016-.086.023-.173.035-.26.028-.2-.016.108.016-.114q.063-.441.139-.881a25.634,25.634,0,0,1,.674-2.872,13.722,13.722,0,0,1,3.707-6.486,6.965,6.965,0,0,1,4.158-1.732c.8-.055.8-1.306,0-1.25Z" fill="#a2d45e"/>
          </g>
        </g>
      </g>
      <g id="Group_4449" data-name="Group 4449">
        <g id="Group_4448" data-name="Group 4448">
          <g id="Group_4447" data-name="Group 4447">
            <path id="Path_1450" data-name="Path 1450" d="M170.306,190.922a3.7,3.7,0,0,0-.829,3.748,5.325,5.325,0,0,0,.686,1.6,1.868,1.868,0,0,0,1.069.9.645.645,0,0,0,.769-.437.629.629,0,0,0-.436-.768.286.286,0,0,1-.092-.026c.045.029.129.084.053.016s-.009-.009.028.027c-.033-.031-.07-.058-.1-.091-.056-.053-.1-.114-.154-.172.112.131.006,0-.017-.029s-.06-.089-.089-.135a4.264,4.264,0,0,1-.305-.589c.053.126-.022-.058-.032-.083-.022-.063-.045-.125-.066-.188-.039-.12-.075-.241-.106-.363a3.163,3.163,0,0,1-.118-.685c-.009-.119-.012-.238-.01-.356,0-.079.005-.158.011-.236,0-.029.028-.2.006-.067a3.046,3.046,0,0,1,.091-.394c.017-.056.036-.11.057-.164-.044.117.023-.05.029-.061a2.176,2.176,0,0,1,.211-.346c-.071.094.05-.051.055-.054a1.981,1.981,0,0,1,.175-.168.625.625,0,1,0-.884-.885Z" fill="#a2d45e"/>
          </g>
        </g>
      </g>
      <g id="Group_4452" data-name="Group 4452">
        <g id="Group_4451" data-name="Group 4451">
          <g id="Group_4450" data-name="Group 4450">
            <path id="Path_1451" data-name="Path 1451" d="M169.735,202.425c.065,0-.2-.052-.026.009-.184-.065-.049-.021.036.022.156.078.31.162.466.239a5.311,5.311,0,0,0,1.442.491,5.713,5.713,0,0,0,4.6-1.6.629.629,0,0,0,0-.883.637.637,0,0,0-.884,0,5.523,5.523,0,0,1-2.134,1.192,2.75,2.75,0,0,1-.837.107,3.89,3.89,0,0,1-.4-.025c.129.015-.07-.011-.1-.016-.065-.012-.13-.026-.194-.04a4.694,4.694,0,0,1-.641-.206c-.1-.041.094.047-.065-.03l-.119-.055c-.085-.04-.168-.083-.252-.126a1.985,1.985,0,0,0-.894-.333.625.625,0,0,0,0,1.25Z" fill="#a2d45e"/>
          </g>
        </g>
      </g>
    </g>
    <g id="Group_4463" data-name="Group 4463">
      <g id="Group_4456" data-name="Group 4456">
        <g id="Group_4455" data-name="Group 4455">
          <g id="Group_4454" data-name="Group 4454">
            <path id="Path_1452" data-name="Path 1452" d="M93.056,192.9c-5.922.406-8.658,6.41-9.656,11.532q-.117.6-.206,1.2c-.024.166-.046.331-.068.5-.031.232.023-.12,0,.03-.147.787,1.057,1.124,1.2.333.016-.086.025-.174.036-.261.028-.2-.016.109.015-.113.043-.295.088-.589.14-.882a25.687,25.687,0,0,1,.674-2.872,13.7,13.7,0,0,1,3.707-6.484,6.973,6.973,0,0,1,4.158-1.734c.8-.054.8-1.3,0-1.25Z" fill="#a2d45e"/>
          </g>
        </g>
      </g>
      <g id="Group_4459" data-name="Group 4459">
        <g id="Group_4458" data-name="Group 4458">
          <g id="Group_4457" data-name="Group 4457">
            <path id="Path_1453" data-name="Path 1453" d="M85.633,190.91a3.7,3.7,0,0,0-.829,3.748,5.347,5.347,0,0,0,.686,1.6,1.863,1.863,0,0,0,1.069.9.642.642,0,0,0,.769-.436.631.631,0,0,0-.436-.769.277.277,0,0,1-.092-.024c.046.028.128.083.054.014s-.01-.008.027.029c-.033-.033-.07-.06-.1-.092-.055-.054-.1-.114-.154-.172.112.132.006,0-.018-.029s-.059-.088-.088-.134a4.53,4.53,0,0,1-.306-.591c.055.126-.021-.057-.029-.082-.025-.063-.047-.125-.068-.188-.04-.12-.075-.241-.106-.363a3.224,3.224,0,0,1-.119-.685c-.008-.119-.012-.238-.009-.357,0-.079,0-.157.012-.235,0-.029.027-.2.005-.067a3.179,3.179,0,0,1,.091-.395c.017-.056.036-.109.057-.163-.044.117.023-.05.028-.062a2.092,2.092,0,0,1,.212-.344c-.072.093.05-.051.05-.051a2.24,2.24,0,0,1,.18-.173.625.625,0,0,0-.884-.884Z" fill="#a2d45e"/>
          </g>
        </g>
      </g>
      <g id="Group_4462" data-name="Group 4462">
        <g id="Group_4461" data-name="Group 4461">
          <g id="Group_4460" data-name="Group 4460">
            <path id="Path_1454" data-name="Path 1454" d="M85.063,202.412c.063,0-.2-.052-.027.009-.184-.064-.049-.02.036.022.157.078.309.163.466.24a5.322,5.322,0,0,0,1.442.491,5.71,5.71,0,0,0,4.6-1.6.63.63,0,0,0,0-.884.639.639,0,0,0-.884,0,5.487,5.487,0,0,1-2.134,1.193,2.722,2.722,0,0,1-.837.106c-.135,0-.269-.009-.4-.023.129.014-.07-.012-.1-.017-.065-.012-.129-.025-.194-.041a4.568,4.568,0,0,1-.642-.206c-.1-.04.1.047-.065-.028-.039-.02-.079-.037-.119-.056-.084-.041-.168-.083-.251-.126a1.987,1.987,0,0,0-.893-.334.625.625,0,0,0,0,1.25Z" fill="#a2d45e"/>
          </g>
        </g>
      </g>
    </g>
    <g id="Group_4473" data-name="Group 4473">
      <g id="Group_4466" data-name="Group 4466">
        <g id="Group_4465" data-name="Group 4465">
          <g id="Group_4464" data-name="Group 4464">
            <path id="Path_1455" data-name="Path 1455" d="M226.965,186.242c-5.922.406-8.658,6.409-9.656,11.531q-.119.6-.205,1.205c-.026.165-.047.331-.069.5-.031.232.023-.121-.005.031-.147.785,1.057,1.123,1.205.332.016-.086.024-.174.036-.26.028-.2-.017.108.015-.114.042-.295.088-.589.14-.882a25.4,25.4,0,0,1,.674-2.871,13.7,13.7,0,0,1,3.707-6.485,6.967,6.967,0,0,1,4.158-1.734c.8-.054.8-1.3,0-1.25Z" fill="#a2d45e"/>
          </g>
        </g>
      </g>
      <g id="Group_4469" data-name="Group 4469">
        <g id="Group_4468" data-name="Group 4468">
          <g id="Group_4467" data-name="Group 4467">
            <path id="Path_1456" data-name="Path 1456" d="M219.541,184.249a3.7,3.7,0,0,0-.828,3.748,5.275,5.275,0,0,0,.686,1.6,1.865,1.865,0,0,0,1.07.9.641.641,0,0,0,.767-.437.629.629,0,0,0-.435-.768.256.256,0,0,1-.092-.025c.045.029.128.083.053.015s-.01-.008.027.027c-.032-.031-.068-.058-.1-.089-.055-.055-.1-.115-.155-.173.113.132.006,0-.016-.029s-.061-.089-.089-.134a4.24,4.24,0,0,1-.306-.591c.054.126-.02-.058-.03-.082-.024-.063-.046-.125-.067-.189-.04-.119-.076-.24-.107-.362a3.171,3.171,0,0,1-.118-.686c-.009-.118-.012-.237-.01-.356,0-.078.006-.157.013-.236,0-.028.027-.2.006-.067a2.988,2.988,0,0,1,.089-.394c.018-.055.037-.11.057-.163-.043.117.024-.05.029-.062a2.144,2.144,0,0,1,.212-.345c-.072.093.05-.05.05-.05a2.222,2.222,0,0,1,.179-.173.625.625,0,0,0-.884-.884Z" fill="#a2d45e"/>
          </g>
        </g>
      </g>
      <g id="Group_4472" data-name="Group 4472">
        <g id="Group_4471" data-name="Group 4471">
          <g id="Group_4470" data-name="Group 4470">
            <path id="Path_1457" data-name="Path 1457" d="M218.971,195.751c.064,0-.2-.052-.026.009-.184-.065-.049-.02.036.022.156.079.309.163.466.239a5.243,5.243,0,0,0,1.442.491,5.7,5.7,0,0,0,4.6-1.595.629.629,0,0,0,0-.884.638.638,0,0,0-.884,0,5.491,5.491,0,0,1-2.133,1.194,2.748,2.748,0,0,1-.837.1c-.135,0-.27-.009-.4-.023.129.013-.07-.012-.1-.017-.066-.012-.13-.025-.2-.04a4.834,4.834,0,0,1-.641-.207c-.1-.041.094.047-.065-.028l-.119-.056c-.085-.041-.168-.083-.251-.126a1.987,1.987,0,0,0-.894-.334.625.625,0,0,0,0,1.25Z" fill="#a2d45e"/>
          </g>
        </g>
      </g>
    </g>
  </g>
  <g id="Group_4476" data-name="Group 4476" transform="translate(-22.5 -54.673)">
    <g id="Group_4475" data-name="Group 4475">
      <path id="Path_1458" data-name="Path 1458" d="M102.346,161.414,96.765,207.4,91.05,208.46l1.063-47.578Z" fill="#ffcc8b"/>
    </g>
  </g>
  <g id="Group_4478" data-name="Group 4478" transform="translate(-22.5 -54.673)">
    <g id="Group_4477" data-name="Group 4477">
      <path id="Path_1459" data-name="Path 1459" d="M94.765,165.535c-1.639.692-2.015,2.75-2.2,4.327-.878,7.617-.612,15.3-.9,22.945-.209,5.556-.707,11.115-1.3,16.643l1.064-47.578,10.233.532-.316,2.6C99.212,164.946,96.605,164.76,94.765,165.535Z" fill="#ffad5f"/>
    </g>
  </g>
  <g id="Group_4480" data-name="Group 4480" transform="translate(-22.5 -54.673)">
    <g id="Group_4479" data-name="Group 4479">
      <rect id="Rectangle_2994" data-name="Rectangle 2994" width="43.322" height="0.75" transform="translate(92.39 182.593) rotate(-88.656)" fill="#fff"/>
    </g>
  </g>
  <g id="Group_4482" data-name="Group 4482" transform="translate(-22.5 -54.673)">
    <g id="Group_4481" data-name="Group 4481">
      <path id="Path_1460" data-name="Path 1460" d="M119.865,90.213a16.508,16.508,0,0,1,2.371,3.51,81.108,81.108,0,0,0,6.927,10.834l2.53,3.431a3.609,3.609,0,0,1-2.311,5.7q-2.085-1.868-4.167-3.736c-2.219-1.989-5.189-3.976-6.977-6.351-1.2-1.6-1.384-3.978-1.748-5.886a19.579,19.579,0,0,1-.133-6.695C116.746,88.651,118.344,88.526,119.865,90.213Z" fill="#ffcc8b"/>
    </g>
  </g>
  <g id="Group_4484" data-name="Group 4484" transform="translate(-22.5 -54.673)">
    <g id="Group_4483" data-name="Group 4483">
      <path id="Path_1461" data-name="Path 1461" d="M151.44,93.939c-.854.42-3.219,1.247-4.893,1.881a.266.266,0,0,1-.348-.33c.827-2.459.125-3.893-.827-2.358l-1.819,3.92-1.712,1.15-2.6,1.745-9.685,6.487a4.435,4.435,0,0,0-.209,7.217c4.56,2.292,14.568-13.624,14.568-13.624a1.383,1.383,0,0,1,1.506-.412c3.272,1.121,7.765-1.495,8.6-2.886A1.98,1.98,0,0,0,151.44,93.939Z" fill="#ffcc8b"/>
    </g>
  </g>
  <g id="Group_4486" data-name="Group 4486" transform="translate(-22.5 -54.673)">
    <g id="Group_4485" data-name="Group 4485">
      <path id="Path_1462" data-name="Path 1462" d="M142.444,97.715l-3.237,2.2-9.021,6.041-1.056-1.433a87.9,87.9,0,0,1-5.909-8.991c-.684.717-1.408,1.39-2.148,2.046.843,1.241,1.649,2.51,2.454,3.775.6.941,4.854,6.684,5.178,7.041C132.082,107.45,143.012,97.922,142.444,97.715Z" fill="#ffad5f"/>
    </g>
  </g>
  <g id="Group_4488" data-name="Group 4488" transform="translate(-22.5 -54.673)">
    <g id="Group_4487" data-name="Group 4487">
      <path id="Path_1463" data-name="Path 1463" d="M98.7,87.563l-.647,5.389L97.6,96.713,85.339,119.7l-.837,1.573-5.915-2.868S86.455,90.106,98.7,87.563Z" fill="#ffcc8b"/>
    </g>
  </g>
  <g id="Group_4490" data-name="Group 4490" transform="translate(-22.5 -54.673)">
    <g id="Group_4489" data-name="Group 4489">
      <path id="Path_1464" data-name="Path 1464" d="M86.519,117.488,97.6,96.713l.446-3.761c-2.377,2.79-13.308,14.41-13.687,24.655,0,0,10.447,6.309,14.08,7.485Z" fill="#ffad5f"/>
    </g>
  </g>
  <g id="Group_4492" data-name="Group 4492" transform="translate(-22.5 -54.673)">
    <g id="Group_4491" data-name="Group 4491">
      <path id="Path_1465" data-name="Path 1465" d="M89.2,104.635c.124.093.368.28.454.343q.294.218.586.429,1.015.732,2.057,1.425l.015,0,4.767-8.935a8.512,8.512,0,0,0,.943-3l.258-2.17.648-5.391c-5.434,1.13-10,7.333-13.408,13.883A36.884,36.884,0,0,0,89.2,104.635Z" fill="#004987"/>
    </g>
  </g>
  <g id="Group_4494" data-name="Group 4494" transform="translate(-22.5 -54.673)">
    <g id="Group_4493" data-name="Group 4493">
      <path id="Path_1466" data-name="Path 1466" d="M118.238,103.6a14.751,14.751,0,0,0,1.387,1.563c2.34-1.39,4.692-2.761,7.029-4.154a69.972,69.972,0,0,1-4.418-7.289,16.508,16.508,0,0,0-2.371-3.51c-1.521-1.687-3.119-1.563-3.508.809a19.579,19.579,0,0,0,.133,6.695C116.854,99.625,117.037,102.006,118.238,103.6Z" fill="#004987"/>
    </g>
  </g>
  <g id="Group_4498" data-name="Group 4498" transform="translate(-22.5 -54.673)">
    <g id="Group_4497" data-name="Group 4497">
      <g id="Group_4496" data-name="Group 4496">
        <g id="Group_4495" data-name="Group 4495">
          <path id="Path_1467" data-name="Path 1467" d="M114.6,62.007a23.724,23.724,0,0,1,2.148,12.909c-.181,2.041-.662,9.642-3.611,9.937-2.031.2-9.877-2.836-10.4-4.457s-3.506-10.657-4.415-12.369,13.524-11.441,14.9-8.73Z" fill="#ffcc8b"/>
        </g>
      </g>
    </g>
  </g>
  <g id="Group_4500" data-name="Group 4500" transform="translate(-22.5 -54.673)">
    <g id="Group_4499" data-name="Group 4499">
      <path id="Path_1468" data-name="Path 1468" d="M95.162,65.373c-1.111-4.48,4.051-5.126,4.051-5.126s3.3-3.979,11.365-3.657c4.305.173,6.438,3.875,6.923,7.763.66,5.287-7.78,1.129-7.9,3.012-.145,2.2.512,6.062-3.034,5.343-.026-.975.33-3.933-1.139-4.1-1.428-.166-1.853,2.347-2.059,3.308s-1.006,6.071-2.377,6.256c-1.333.179-2.2-3.812-2.627-4.705A49.733,49.733,0,0,1,95.162,65.373Z" fill="#144998"/>
    </g>
  </g>
  <g id="Group_4504" data-name="Group 4504" transform="translate(-22.5 -54.673)">
    <g id="Group_4503" data-name="Group 4503">
      <g id="Group_4502" data-name="Group 4502">
        <g id="Group_4501" data-name="Group 4501">
          <path id="Path_1469" data-name="Path 1469" d="M107.116,70.452s-1.182-3.022-3.821-1c-1.919,1.469.172,6.57,2.062,6.512S107.968,73.1,107.116,70.452Z" fill="#ffcc8b"/>
        </g>
      </g>
    </g>
  </g>
  <g id="Group_4511" data-name="Group 4511" transform="translate(-22.5 -54.673)">
    <g id="Group_4506" data-name="Group 4506">
      <g id="Group_4505" data-name="Group 4505">
        <path id="Path_1470" data-name="Path 1470" d="M116.421,60.45a18.985,18.985,0,0,0-2.486-3.915,4.744,4.744,0,0,0-1.75-1.443,6.71,6.71,0,0,0-4.138-.185c-4.422.9-9.182,3.15-12.192,6.495A5.871,5.871,0,0,0,94.841,67.6c-1.478.664-2.937,1.37-4.355,2.156-1.545.857-3.437,2.353-2.733,4.365.548,1.565,2.167,1.854,3.534,1.124A59.315,59.315,0,0,0,98.83,70.2a42.574,42.574,0,0,1,4.291-2.155,58.9,58.9,0,0,1,10.621-3.555,19.991,19.991,0,0,1,3.7-.521A11.9,11.9,0,0,0,116.421,60.45Z" fill="#008375"/>
      </g>
    </g>
    <g id="Group_4508" data-name="Group 4508">
      <g id="Group_4507" data-name="Group 4507">
        <path id="Path_1471" data-name="Path 1471" d="M111.11,63.953a94.744,94.744,0,0,0-10.82,3.064,48.59,48.59,0,0,0-9.415,4.689c-.854.524-2.139,1.189-3.3,1.968a2.4,2.4,0,0,0,.081.443c.549,1.565,2.166,1.854,3.534,1.124A59.163,59.163,0,0,0,98.736,70.2a42.606,42.606,0,0,1,4.293-2.155,58.84,58.84,0,0,1,10.62-3.555,19.978,19.978,0,0,1,3.7-.521,5.679,5.679,0,0,0-.134-.77A37.533,37.533,0,0,0,111.11,63.953Z" fill="#047262"/>
      </g>
    </g>
    <g id="Group_4510" data-name="Group 4510">
      <g id="Group_4509" data-name="Group 4509">
        <path id="Path_1472" data-name="Path 1472" d="M116.216,59.983l.842,2.131-3.171.624S112.944,59.959,116.216,59.983Z" fill="#144998"/>
      </g>
    </g>
  </g>
  <g id="Group_4513" data-name="Group 4513" transform="translate(-22.5 -54.673)">
    <g id="Group_4512" data-name="Group 4512">
      <path id="Path_1473" data-name="Path 1473" d="M120.379,161.8,114.8,207.781l-5.715,1.063,1.063-47.578Z" fill="#ffcc8b"/>
    </g>
  </g>
  <g id="Group_4515" data-name="Group 4515" transform="translate(-22.5 -54.673)">
    <g id="Group_4514" data-name="Group 4514">
      <path id="Path_1474" data-name="Path 1474" d="M112.989,165.535c-1.638.692-2.014,2.75-2.2,4.327-.879,7.617-.611,15.3-.9,22.945-.209,5.556-.708,11.115-1.3,16.643l1.063-47.578,10.234.532-.317,2.6C117.436,164.946,114.83,164.76,112.989,165.535Z" fill="#ffad5f"/>
    </g>
  </g>
  <g id="Group_4517" data-name="Group 4517" transform="translate(-22.5 -54.673)">
    <g id="Group_4516" data-name="Group 4516">
      <path id="Path_1475" data-name="Path 1475" d="M109.01,180.587l-1.705-32.359a1.025,1.025,0,0,0-1.025-1.029s-.98.41-1.022.944c-.415,5.33-3.5,23.736-4.306,33.955-4.061-.62-6.517,1.418-10.576.755l.5-46.583,29.965,1.258-1.511,44.57C115.241,182.031,113.059,181.12,109.01,180.587Z" fill="#909797"/>
    </g>
  </g>
  <g id="Group_4519" data-name="Group 4519" transform="translate(-22.5 -54.673)">
    <g id="Group_4518" data-name="Group 4518">
      <path id="Path_1476" data-name="Path 1476" d="M112.545,88.728c-.916,9.2-7.41,7.685-7.41,7.685-2.779-1.1-3.85-5.025-3.009-8.133A41.338,41.338,0,0,0,112.545,88.728Z" fill="#ffcc8b"/>
    </g>
  </g>
  <g id="Group_4524" data-name="Group 4524" transform="translate(-22.5 -54.673)">
    <g id="Group_4521" data-name="Group 4521">
      <g id="Group_4520" data-name="Group 4520">
        <path id="Path_1477" data-name="Path 1477" d="M114.276,215.477c-1.836-.305-7.172-.378-8.352-2.406-.234-.4.25-1.034.75-2.144-.128-2.482.629-2.667,2.02-4.931,1.472,1.621,3.03,2.633,5.15,1.721,1.321-.569,1.031-.62,1.72-.323,1.614.7,3.413,3.307,7.584,4.891,1.355.515,2.393.563,3,1.128a2.072,2.072,0,0,1-.127,2.575c-1.007,1.323-3.16,1.51-5.384,1.252A30.466,30.466,0,0,1,114.276,215.477Z" fill="#87898c" fill-rule="evenodd"/>
      </g>
    </g>
    <g id="Group_4523" data-name="Group 4523">
      <g id="Group_4522" data-name="Group 4522">
        <path id="Path_1478" data-name="Path 1478" d="M114.276,215.477c-1.836-.305-7.172-.378-8.352-2.406-.234-.4.25-1.034.75-2.144v-.008c1.651,1.637,4.428,1.932,6.293,2.067a8.355,8.355,0,0,1,2.566.919c4.039,1.736,8.408,2.453,10.977.291a2.392,2.392,0,0,1-.489,1.792c-1.007,1.323-3.16,1.51-5.384,1.252A30.466,30.466,0,0,1,114.276,215.477Z" fill="#004987" fill-rule="evenodd"/>
      </g>
    </g>
  </g>
  <g id="Group_4529" data-name="Group 4529" transform="translate(-22.5 -54.673)">
    <g id="Group_4526" data-name="Group 4526">
      <g id="Group_4525" data-name="Group 4525">
        <path id="Path_1479" data-name="Path 1479" d="M96.063,214.89c-1.836-.306-7.172-.379-8.353-2.407-.233-.4.249-1.034.749-2.143-.127-2.482.63-2.668,2.021-4.931,1.472,1.62,3.03,2.632,5.15,1.72,1.321-.568,1.031-.619,1.72-.322,1.614.695,3.412,3.306,7.584,4.891,1.355.514,2.393.562,3,1.128a2.074,2.074,0,0,1-.127,2.574c-1.008,1.323-3.161,1.51-5.386,1.253A30.5,30.5,0,0,1,96.063,214.89Z" fill="#87898c" fill-rule="evenodd"/>
      </g>
    </g>
    <g id="Group_4528" data-name="Group 4528">
      <g id="Group_4527" data-name="Group 4527">
        <path id="Path_1480" data-name="Path 1480" d="M96.063,214.89c-1.836-.306-7.172-.379-8.353-2.407-.233-.4.249-1.034.749-2.143v-.008c1.652,1.636,4.43,1.931,6.294,2.066a8.322,8.322,0,0,1,2.566.92c4.039,1.735,8.409,2.452,10.977.29a2.393,2.393,0,0,1-.488,1.792c-1.008,1.323-3.161,1.51-5.386,1.253A30.5,30.5,0,0,1,96.063,214.89Z" fill="#004987" fill-rule="evenodd"/>
      </g>
    </g>
  </g>
  <g id="Group_4531" data-name="Group 4531" transform="translate(-22.5 -54.673)">
    <g id="Group_4530" data-name="Group 4530">
      <path id="Path_1481" data-name="Path 1481" d="M120.959,138.55c-1.788,1.969-22.508,4.958-31.245-1.14,0,0,4.782-32.252,4.782-33.827a12.31,12.31,0,0,1,.66-3.958C97.008,94.154,98.912,87.6,98.912,87.6c1.107.276,2.171.5,3.214.68a41.338,41.338,0,0,0,10.419.448c.3-.022,4.608.25,4.9.229,1.969-.2.912,1.954,1.369,2.67C118.939,94.036,120.959,138.55,120.959,138.55Z" fill="#003b71"/>
    </g>
  </g>
  <g id="Group_4533" data-name="Group 4533" transform="translate(-22.5 -54.673)">
    <g id="Group_4532" data-name="Group 4532">
      <path id="Path_1482" data-name="Path 1482" d="M107.625,129.667s2.379-1.514,2.119-2.509c0,0-.447-1.437-4.424,2.331L85.456,116.823c-4.161-.831-6.466-.326-6.864,1.548a2.6,2.6,0,0,0,.7,2.277c4.522,4.822,13.221,8.907,25.8,12.307,0,0,7.693,1.657,8.865-3.434a1.2,1.2,0,0,0-1.382-1.463A29.158,29.158,0,0,0,107.625,129.667Z" fill="#ffcc8b"/>
    </g>
  </g>
  <g id="Group_4537" data-name="Group 4537" transform="translate(-22.5 -54.673)">
    <g id="Group_4536" data-name="Group 4536">
      <g id="Group_4535" data-name="Group 4535">
        <g id="Group_4534" data-name="Group 4534">
          <path id="Path_1483" data-name="Path 1483" d="M103.487,90.77s3.1,5.816,6.251.275c.423-.743.309-3.353.351-4.189.08-1.588.175-2.88.175-2.88s-7.058-9.551-6.7-6.261S103.487,90.77,103.487,90.77Z" fill="#ffcc8b"/>
        </g>
      </g>
    </g>
  </g>
  <g id="Group_4539" data-name="Group 4539" transform="translate(-22.5 -54.673)">
    <g id="Group_4538" data-name="Group 4538">
      <path id="Path_1484" data-name="Path 1484" d="M103.9,81.122a5.44,5.44,0,0,0,.794,1.811,16.02,16.02,0,0,0,5.575,2.788l-.238,2.922S103.662,86.316,103.9,81.122Z" fill="#ffad5f"/>
    </g>
  </g>
  <g id="Group_4541" data-name="Group 4541" transform="translate(-22.5 -54.673)">
    <g id="Group_4540" data-name="Group 4540">
      <path id="Path_1485" data-name="Path 1485" d="M203.272,76.05a4.736,4.736,0,0,1-3.2-5.337c.6-4.2,3.225-6.794,7.479-7.764s8.733-.8,12.587,4.367,5.823,9.1,9.847,7.335c0,0-.77,8.906-11.388,12.617s-15.042.457-15.042.457,2.825-4.911,1.4-8.877S203.272,76.05,203.272,76.05Z" fill="#144998"/>
    </g>
  </g>
  <g id="Group_4543" data-name="Group 4543" transform="translate(-22.5 -54.673)">
    <g id="Group_4542" data-name="Group 4542">
      <path id="Path_1486" data-name="Path 1486" d="M208.236,207.576s-.461-.181-.5.133.136,3.844.136,3.873,4.287,2.378,5.784,0c0,0-.29-3.7-.331-4.058s-.244-.516-.73-.331S208.236,207.576,208.236,207.576Z" fill="#909797"/>
    </g>
  </g>
  <g id="Group_4585" data-name="Group 4585" transform="translate(-22.5 -54.673)">
    <g id="Group_4582" data-name="Group 4582">
      <g id="Group_4581" data-name="Group 4581">
        <g id="Group_4580" data-name="Group 4580" clip-path="url(#clip-path-4)">
          <g id="Group_4544" data-name="Group 4544">
            <rect id="Rectangle_2995" data-name="Rectangle 2995" width="0.517" height="11.394" transform="translate(201.52 210.767)" fill="#256bb2"/>
          </g>
          <g id="Group_4545" data-name="Group 4545">
            <rect id="Rectangle_2996" data-name="Rectangle 2996" width="0.447" height="11.394" transform="translate(202.037 210.767)" fill="#256bb2"/>
          </g>
          <g id="Group_4546" data-name="Group 4546">
            <rect id="Rectangle_2997" data-name="Rectangle 2997" width="0.447" height="11.394" transform="translate(202.484 210.767)" fill="#246ab1"/>
          </g>
          <g id="Group_4547" data-name="Group 4547">
            <rect id="Rectangle_2998" data-name="Rectangle 2998" width="0.447" height="11.394" transform="translate(202.932 210.767)" fill="#2469b0"/>
          </g>
          <g id="Group_4548" data-name="Group 4548">
            <rect id="Rectangle_2999" data-name="Rectangle 2999" width="0.447" height="11.394" transform="translate(203.379 210.767)" fill="#2368b0"/>
          </g>
          <g id="Group_4549" data-name="Group 4549">
            <rect id="Rectangle_3000" data-name="Rectangle 3000" width="0.447" height="11.394" transform="translate(203.826 210.767)" fill="#2367af"/>
          </g>
          <g id="Group_4550" data-name="Group 4550">
            <rect id="Rectangle_3001" data-name="Rectangle 3001" width="0.447" height="11.394" transform="translate(204.273 210.767)" fill="#2266ae"/>
          </g>
          <g id="Group_4551" data-name="Group 4551">
            <rect id="Rectangle_3002" data-name="Rectangle 3002" width="0.448" height="11.394" transform="translate(204.721 210.767)" fill="#2265ad"/>
          </g>
          <g id="Group_4552" data-name="Group 4552">
            <rect id="Rectangle_3003" data-name="Rectangle 3003" width="0.447" height="11.394" transform="translate(205.169 210.767)" fill="#2164ac"/>
          </g>
          <g id="Group_4553" data-name="Group 4553">
            <rect id="Rectangle_3004" data-name="Rectangle 3004" width="0.447" height="11.394" transform="translate(205.616 210.767)" fill="#2163ac"/>
          </g>
          <g id="Group_4554" data-name="Group 4554">
            <rect id="Rectangle_3005" data-name="Rectangle 3005" width="0.447" height="11.394" transform="translate(206.064 210.767)" fill="#2062ab"/>
          </g>
          <g id="Group_4555" data-name="Group 4555">
            <rect id="Rectangle_3006" data-name="Rectangle 3006" width="0.447" height="11.394" transform="translate(206.511 210.767)" fill="#2061aa"/>
          </g>
          <g id="Group_4556" data-name="Group 4556">
            <rect id="Rectangle_3007" data-name="Rectangle 3007" width="0.447" height="11.394" transform="translate(206.958 210.767)" fill="#1f60a9"/>
          </g>
          <g id="Group_4557" data-name="Group 4557">
            <rect id="Rectangle_3008" data-name="Rectangle 3008" width="0.448" height="11.394" transform="translate(207.405 210.767)" fill="#1f5fa9"/>
          </g>
          <g id="Group_4558" data-name="Group 4558">
            <rect id="Rectangle_3009" data-name="Rectangle 3009" width="0.447" height="11.394" transform="translate(207.854 210.767)" fill="#1e5ea8"/>
          </g>
          <g id="Group_4559" data-name="Group 4559">
            <rect id="Rectangle_3010" data-name="Rectangle 3010" width="0.447" height="11.394" transform="translate(208.301 210.767)" fill="#1e5da7"/>
          </g>
          <g id="Group_4560" data-name="Group 4560">
            <rect id="Rectangle_3011" data-name="Rectangle 3011" width="0.447" height="11.394" transform="translate(208.748 210.767)" fill="#1d5ca6"/>
          </g>
          <g id="Group_4561" data-name="Group 4561">
            <rect id="Rectangle_3012" data-name="Rectangle 3012" width="0.447" height="11.394" transform="translate(209.195 210.767)" fill="#1d5ba5"/>
          </g>
          <g id="Group_4562" data-name="Group 4562">
            <rect id="Rectangle_3013" data-name="Rectangle 3013" width="0.447" height="11.394" transform="translate(209.643 210.767)" fill="#1c59a5"/>
          </g>
          <g id="Group_4563" data-name="Group 4563">
            <rect id="Rectangle_3014" data-name="Rectangle 3014" width="0.447" height="11.394" transform="translate(210.09 210.767)" fill="#1c58a4"/>
          </g>
          <g id="Group_4564" data-name="Group 4564">
            <rect id="Rectangle_3015" data-name="Rectangle 3015" width="0.447" height="11.394" transform="translate(210.537 210.767)" fill="#1b57a3"/>
          </g>
          <g id="Group_4565" data-name="Group 4565">
            <rect id="Rectangle_3016" data-name="Rectangle 3016" width="0.448" height="11.394" transform="translate(210.984 210.767)" fill="#1b56a2"/>
          </g>
          <g id="Group_4566" data-name="Group 4566">
            <rect id="Rectangle_3017" data-name="Rectangle 3017" width="0.447" height="11.394" transform="translate(211.433 210.767)" fill="#1a55a1"/>
          </g>
          <g id="Group_4567" data-name="Group 4567">
            <rect id="Rectangle_3018" data-name="Rectangle 3018" width="0.447" height="11.394" transform="translate(211.88 210.767)" fill="#1a54a1"/>
          </g>
          <g id="Group_4568" data-name="Group 4568">
            <rect id="Rectangle_3019" data-name="Rectangle 3019" width="0.447" height="11.394" transform="translate(212.327 210.767)" fill="#1953a0"/>
          </g>
          <g id="Group_4569" data-name="Group 4569">
            <rect id="Rectangle_3020" data-name="Rectangle 3020" width="0.447" height="11.394" transform="translate(212.774 210.767)" fill="#19529f"/>
          </g>
          <g id="Group_4570" data-name="Group 4570">
            <rect id="Rectangle_3021" data-name="Rectangle 3021" width="0.447" height="11.394" transform="translate(213.222 210.767)" fill="#18519e"/>
          </g>
          <g id="Group_4571" data-name="Group 4571">
            <rect id="Rectangle_3022" data-name="Rectangle 3022" width="0.447" height="11.394" transform="translate(213.669 210.767)" fill="#18509e"/>
          </g>
          <g id="Group_4572" data-name="Group 4572">
            <rect id="Rectangle_3023" data-name="Rectangle 3023" width="0.448" height="11.394" transform="translate(214.116 210.767)" fill="#174f9d"/>
          </g>
          <g id="Group_4573" data-name="Group 4573">
            <rect id="Rectangle_3024" data-name="Rectangle 3024" width="0.447" height="11.394" transform="translate(214.564 210.767)" fill="#174e9c"/>
          </g>
          <g id="Group_4574" data-name="Group 4574">
            <rect id="Rectangle_3025" data-name="Rectangle 3025" width="0.447" height="11.394" transform="translate(215.012 210.767)" fill="#164d9b"/>
          </g>
          <g id="Group_4575" data-name="Group 4575">
            <rect id="Rectangle_3026" data-name="Rectangle 3026" width="0.447" height="11.394" transform="translate(215.459 210.767)" fill="#164c9a"/>
          </g>
          <g id="Group_4576" data-name="Group 4576">
            <rect id="Rectangle_3027" data-name="Rectangle 3027" width="0.447" height="11.394" transform="translate(215.906 210.767)" fill="#154b9a"/>
          </g>
          <g id="Group_4577" data-name="Group 4577">
            <rect id="Rectangle_3028" data-name="Rectangle 3028" width="0.447" height="11.394" transform="translate(216.354 210.767)" fill="#154a99"/>
          </g>
          <g id="Group_4578" data-name="Group 4578">
            <rect id="Rectangle_3029" data-name="Rectangle 3029" width="0.447" height="11.394" transform="translate(216.801 210.767)" fill="#144998"/>
          </g>
          <g id="Group_4579" data-name="Group 4579">
            <rect id="Rectangle_3030" data-name="Rectangle 3030" width="0.878" height="11.394" transform="translate(217.248 210.767)" fill="#144998"/>
          </g>
        </g>
      </g>
    </g>
    <g id="Group_4584" data-name="Group 4584" opacity="0.5" style="mix-blend-mode: overlay;isolation: isolate">
      <g id="Group_4583" data-name="Group 4583">
        <path id="Path_1488" data-name="Path 1488" d="M208.63,218.6c4.063-2.013,6.263-2.691,8.55-3.63.129.651.093,1.2-.248,1.465-1.2.93-4.217,1.787-7.065,3.38s-5.446,2.34-6.508,1.886a2.375,2.375,0,0,1-1.024-.9A22.229,22.229,0,0,0,208.63,218.6Z" fill="#fff"/>
      </g>
    </g>
  </g>
  <g id="Group_4587" data-name="Group 4587" transform="translate(-22.5 -54.673)">
    <g id="Group_4586" data-name="Group 4586">
      <path id="Path_1489" data-name="Path 1489" d="M215.877,200.7a24.857,24.857,0,0,1-13.588-3.546c-6.316-3.987-10.437-11.451-12.6-22.818-3.48-18.3-13.914-33.7-14.019-33.854l.74-.506c.106.154,10.644,15.7,14.159,34.192,2.113,11.11,6.1,18.381,12.2,22.229,6.3,3.978,14.869,4.467,26.18,1.5,19.041-5,30.588-11.7,34.321-19.919,2.149-4.729,1.759-10.1-1.156-15.968-3.246-6.532-5.71-11.189-7.69-14.933-3.542-6.693-5.158-9.749-5.618-13.179l.888-.12c.439,3.273,2.032,6.284,5.522,12.88,1.878,3.55,4.45,8.411,7.7,14.953,3.041,6.12,3.435,11.751,1.169,16.738-3.85,8.475-15.595,15.344-34.908,20.415A52.856,52.856,0,0,1,215.877,200.7Z" fill="#134b97"/>
    </g>
  </g>
  <g id="Group_4589" data-name="Group 4589" transform="translate(-22.5 -54.673)">
    <g id="Group_4588" data-name="Group 4588">
      <path id="Path_1490" data-name="Path 1490" d="M200.205,179.156l-.834.952s8.455,23.139,8.455,27.591c0,0,3.235,1.485,5.214-.57,0,0-.532-20.438-6.241-30.713Z" fill="#ffcc8b"/>
    </g>
  </g>
  <g id="Group_4591" data-name="Group 4591" transform="translate(-22.5 -54.673)">
    <g id="Group_4590" data-name="Group 4590">
      <path id="Path_1491" data-name="Path 1491" d="M224.533,173.563l-.151,1.94s15.427,19.431,18.319,23.389c0,0,3.425-1.027,4.415-3.063,0,0-11.926-22.343-16.188-25.464Z" fill="#ffcc8b"/>
    </g>
  </g>
  <g id="Group_4596" data-name="Group 4596" transform="translate(-22.5 -54.673)">
    <g id="Group_4593" data-name="Group 4593">
      <g id="Group_4592" data-name="Group 4592">
        <path id="Path_1492" data-name="Path 1492" d="M206.542,90.778a5.378,5.378,0,0,0,7.1-1.068,8.406,8.406,0,0,1-1.313-3.718,9.653,9.653,0,0,0-4.494,1.463A4.861,4.861,0,0,1,206.542,90.778Z" fill="#ffcc8b"/>
      </g>
    </g>
    <g id="Group_4595" data-name="Group 4595">
      <g id="Group_4594" data-name="Group 4594">
        <path id="Path_1493" data-name="Path 1493" d="M212.629,81.158,208.2,83.195l-.656,1.368a9.6,9.6,0,0,1,.3,2.892,9.653,9.653,0,0,1,4.494-1.463A18.16,18.16,0,0,1,212.629,81.158Z" fill="#ffad5f"/>
      </g>
    </g>
  </g>
  <g id="Group_4598" data-name="Group 4598" transform="translate(-22.5 -54.673)">
    <g id="Group_4597" data-name="Group 4597">
      <path id="Path_1494" data-name="Path 1494" d="M203.416,72.426s-3,14.214,3,12.587S212.35,81.3,212.35,81.3a1.7,1.7,0,0,0,2.064-1.513c.285-1.884-1.731-2.321-1.979-1.6,0,0-5.956-5.613-5.956-7.858C206.479,70.332,204.253,72.426,203.416,72.426Z" fill="#ffcc8b"/>
    </g>
  </g>
  <g id="Group_4600" data-name="Group 4600" transform="translate(-22.5 -54.673)">
    <g id="Group_4599" data-name="Group 4599">
      <path id="Path_1495" data-name="Path 1495" d="M179.263,133.806s-8.639,1.324-7.256,4.721,4.2,4.608,6.046,2.88a51.841,51.841,0,0,0,4.377-5.067Z" fill="#ffcc8b"/>
    </g>
  </g>
  <g id="Group_4602" data-name="Group 4602" transform="translate(-22.5 -54.673)">
    <g id="Group_4601" data-name="Group 4601">
      <path id="Path_1496" data-name="Path 1496" d="M201.126,97.641c.226-.876.427-1.672.6-2.349l-1.544-5.179a3.136,3.136,0,0,0-2.428,2.7c-.4,2.781-4.52,18.763-4.52,18.763A6.613,6.613,0,0,1,191,115.631c-2.055,1.826-13.016,18.153-13.016,18.153s-.607,2.8,1.737,3.846a5.5,5.5,0,0,0,2.488.378l14.157-18.686a14.491,14.491,0,0,0,3.312-7.611,39.378,39.378,0,0,1,2.169-8.411ZM195.913,115.4a28.113,28.113,0,0,0,1.355-3.791A26.454,26.454,0,0,1,195.913,115.4Z" fill="#d32276"/>
    </g>
  </g>
  <g id="Group_4607" data-name="Group 4607" transform="translate(-22.5 -54.673)">
    <g id="Group_4604" data-name="Group 4604">
      <g id="Group_4603" data-name="Group 4603">
        <path id="Path_1497" data-name="Path 1497" d="M200.463,134.458l-1.961.21-2.23,33.185s-.379,5.784,1.108,8.849c1.218,2.512,1.655,3.368,1.655,3.368s6.451,1.028,9.248-4.509l-1.541-3.254s-1.256-1.942-.115-5.881,6.109-20.893,6.109-20.893l6.394,22.377s-.229,2.284,3.481,5.881l1.771,1.712s5.822-1.541,7.307-5.823L229.519,167s-.485-.456-.2-2.6-2.112-29.9-4.937-33.461S200.463,134.458,200.463,134.458Z" fill="#909797"/>
      </g>
    </g>
    <g id="Group_4606" data-name="Group 4606">
      <g id="Group_4605" data-name="Group 4605">
        <path id="Path_1498" data-name="Path 1498" d="M230.624,171.514c-2.63-3.214-4.042-6.241-3.974-13.014.064-6.4-3.219-26.568-3.252-26.772l.442-.072c.033.2,3.322,20.408,3.258,26.848-.067,6.638,1.31,9.594,3.874,12.726Z" fill="#fff"/>
      </g>
    </g>
  </g>
  <g id="Group_4609" data-name="Group 4609" transform="translate(-22.5 -54.673)">
    <g id="Group_4608" data-name="Group 4608">
      <path id="Path_1499" data-name="Path 1499" d="M207.541,89.137s1.693,3.877,5.746-.012c0,0,6.244-.92,7.971.262a36.034,36.034,0,0,1,.84,17.651c-2.055,9.286-3.882,10.655,2.284,23.9,0,0-8.526,15.071-25.88,3.73,0,0,4.054-10.066,1.846-24.072a10.333,10.333,0,0,1-4.053-6.831c-.4-4.282,5.154-6.2,3.883-13.652A54.387,54.387,0,0,1,207.541,89.137Z" fill="#e81f76"/>
    </g>
  </g>
  <g id="Group_4648" data-name="Group 4648" transform="translate(-22.5 -54.673)">
    <g id="Group_4647" data-name="Group 4647">
      <g id="Group_4646" data-name="Group 4646" clip-path="url(#clip-path-5)">
        <g id="Group_4610" data-name="Group 4610">
          <path id="Path_1500" data-name="Path 1500" d="M244.431,128.041v0Z" fill="#ffd299"/>
        </g>
        <g id="Group_4611" data-name="Group 4611">
          <rect id="Rectangle_3031" data-name="Rectangle 3031" width="0.247" height="9.106" transform="translate(244.431 128.041)" fill="#ffd299"/>
        </g>
        <g id="Group_4612" data-name="Group 4612">
          <rect id="Rectangle_3032" data-name="Rectangle 3032" width="0.247" height="9.106" transform="translate(244.678 128.041)" fill="#ffd198"/>
        </g>
        <g id="Group_4613" data-name="Group 4613">
          <rect id="Rectangle_3033" data-name="Rectangle 3033" width="0.247" height="9.106" transform="translate(244.925 128.041)" fill="#ffd097"/>
        </g>
        <g id="Group_4614" data-name="Group 4614">
          <rect id="Rectangle_3034" data-name="Rectangle 3034" width="0.246" height="9.106" transform="translate(245.172 128.041)" fill="#ffcf96"/>
        </g>
        <g id="Group_4615" data-name="Group 4615">
          <rect id="Rectangle_3035" data-name="Rectangle 3035" width="0.248" height="9.106" transform="translate(245.418 128.041)" fill="#ffce95"/>
        </g>
        <g id="Group_4616" data-name="Group 4616">
          <rect id="Rectangle_3036" data-name="Rectangle 3036" width="0.246" height="9.106" transform="translate(245.666 128.041)" fill="#fdcd94"/>
        </g>
        <g id="Group_4617" data-name="Group 4617">
          <rect id="Rectangle_3037" data-name="Rectangle 3037" width="0.247" height="9.106" transform="translate(245.912 128.041)" fill="#fdcd93"/>
        </g>
        <g id="Group_4618" data-name="Group 4618">
          <rect id="Rectangle_3038" data-name="Rectangle 3038" width="0.247" height="9.106" transform="translate(246.159 128.041)" fill="#fdcc92"/>
        </g>
        <g id="Group_4619" data-name="Group 4619">
          <rect id="Rectangle_3039" data-name="Rectangle 3039" width="0.247" height="9.106" transform="translate(246.406 128.041)" fill="#fdcb91"/>
        </g>
        <g id="Group_4620" data-name="Group 4620">
          <rect id="Rectangle_3040" data-name="Rectangle 3040" width="0.247" height="9.106" transform="translate(246.653 128.041)" fill="#fdca90"/>
        </g>
        <g id="Group_4621" data-name="Group 4621">
          <rect id="Rectangle_3041" data-name="Rectangle 3041" width="0.247" height="9.106" transform="translate(246.9 128.041)" fill="#fdc98f"/>
        </g>
        <g id="Group_4622" data-name="Group 4622">
          <rect id="Rectangle_3042" data-name="Rectangle 3042" width="0.247" height="9.106" transform="translate(247.148 128.041)" fill="#fdc88e"/>
        </g>
        <g id="Group_4623" data-name="Group 4623">
          <rect id="Rectangle_3043" data-name="Rectangle 3043" width="0.246" height="9.106" transform="translate(247.395 128.041)" fill="#fdc78d"/>
        </g>
        <g id="Group_4624" data-name="Group 4624">
          <rect id="Rectangle_3044" data-name="Rectangle 3044" width="0.248" height="9.106" transform="translate(247.641 128.041)" fill="#fcc68c"/>
        </g>
        <g id="Group_4625" data-name="Group 4625">
          <rect id="Rectangle_3045" data-name="Rectangle 3045" width="0.246" height="9.106" transform="translate(247.889 128.041)" fill="#fcc58b"/>
        </g>
        <g id="Group_4626" data-name="Group 4626">
          <rect id="Rectangle_3046" data-name="Rectangle 3046" width="0.247" height="9.106" transform="translate(248.135 128.041)" fill="#fcc48a"/>
        </g>
        <g id="Group_4627" data-name="Group 4627">
          <rect id="Rectangle_3047" data-name="Rectangle 3047" width="0.247" height="9.106" transform="translate(248.382 128.041)" fill="#fcc389"/>
        </g>
        <g id="Group_4628" data-name="Group 4628">
          <rect id="Rectangle_3048" data-name="Rectangle 3048" width="0.246" height="9.106" transform="translate(248.629 128.041)" fill="#fcc387"/>
        </g>
        <g id="Group_4629" data-name="Group 4629">
          <rect id="Rectangle_3049" data-name="Rectangle 3049" width="0.248" height="9.106" transform="translate(248.875 128.041)" fill="#fcc286"/>
        </g>
        <g id="Group_4630" data-name="Group 4630">
          <rect id="Rectangle_3050" data-name="Rectangle 3050" width="0.246" height="9.106" transform="translate(249.123 128.041)" fill="#fcc185"/>
        </g>
        <g id="Group_4631" data-name="Group 4631">
          <rect id="Rectangle_3051" data-name="Rectangle 3051" width="0.247" height="9.106" transform="translate(249.369 128.041)" fill="#fcc084"/>
        </g>
        <g id="Group_4632" data-name="Group 4632">
          <rect id="Rectangle_3052" data-name="Rectangle 3052" width="0.247" height="9.106" transform="translate(249.616 128.041)" fill="#fbbf83"/>
        </g>
        <g id="Group_4633" data-name="Group 4633">
          <rect id="Rectangle_3053" data-name="Rectangle 3053" width="0.247" height="9.106" transform="translate(249.863 128.041)" fill="#fbbe82"/>
        </g>
        <g id="Group_4634" data-name="Group 4634">
          <rect id="Rectangle_3054" data-name="Rectangle 3054" width="0.247" height="9.106" transform="translate(250.11 128.041)" fill="#fbbd81"/>
        </g>
        <g id="Group_4635" data-name="Group 4635">
          <rect id="Rectangle_3055" data-name="Rectangle 3055" width="0.246" height="9.106" transform="translate(250.357 128.041)" fill="#fbbc80"/>
        </g>
        <g id="Group_4636" data-name="Group 4636">
          <rect id="Rectangle_3056" data-name="Rectangle 3056" width="0.248" height="9.106" transform="translate(250.604 128.041)" fill="#fbbb80"/>
        </g>
        <g id="Group_4637" data-name="Group 4637">
          <rect id="Rectangle_3057" data-name="Rectangle 3057" width="0.246" height="9.106" transform="translate(250.852 128.041)" fill="#fbba7f"/>
        </g>
        <g id="Group_4638" data-name="Group 4638">
          <rect id="Rectangle_3058" data-name="Rectangle 3058" width="0.248" height="9.106" transform="translate(251.098 128.041)" fill="#fbb97e"/>
        </g>
        <g id="Group_4639" data-name="Group 4639">
          <rect id="Rectangle_3059" data-name="Rectangle 3059" width="0.246" height="9.106" transform="translate(251.346 128.041)" fill="#fbb97d"/>
        </g>
        <g id="Group_4640" data-name="Group 4640">
          <rect id="Rectangle_3060" data-name="Rectangle 3060" width="0.247" height="9.106" transform="translate(251.592 128.041)" fill="#fab87c"/>
        </g>
        <g id="Group_4641" data-name="Group 4641">
          <rect id="Rectangle_3061" data-name="Rectangle 3061" width="0.247" height="9.106" transform="translate(251.839 128.041)" fill="#fab77b"/>
        </g>
        <g id="Group_4642" data-name="Group 4642">
          <rect id="Rectangle_3062" data-name="Rectangle 3062" width="0.247" height="9.106" transform="translate(252.086 128.041)" fill="#fab67a"/>
        </g>
        <g id="Group_4643" data-name="Group 4643">
          <rect id="Rectangle_3063" data-name="Rectangle 3063" width="0.247" height="9.106" transform="translate(252.333 128.041)" fill="#fab579"/>
        </g>
        <g id="Group_4644" data-name="Group 4644">
          <rect id="Rectangle_3064" data-name="Rectangle 3064" width="0.246" height="9.106" transform="translate(252.58 128.041)" fill="#fab478"/>
        </g>
        <g id="Group_4645" data-name="Group 4645">
          <rect id="Rectangle_3065" data-name="Rectangle 3065" width="0.71" height="9.106" transform="translate(252.826 128.041)" fill="#fab478"/>
        </g>
      </g>
    </g>
  </g>
  <g id="Group_4650" data-name="Group 4650" transform="translate(-22.5 -54.673)">
    <g id="Group_4649" data-name="Group 4649">
      <path id="Path_1502" data-name="Path 1502" d="M248.225,127.977c-2.381-1.206-15.952-17.559-15.952-17.559S223.439,90.2,221.258,89.386c-1,.091-2.256,2.533-2.653,4.372a11.5,11.5,0,0,0-.255,2.391c0,2.181,7.65,15.111,9.294,18.018s16.794,17.366,16.794,17.366a4.946,4.946,0,0,0,1.994.1C248.931,131.15,248.225,127.977,248.225,127.977Z" fill="#d32276"/>
    </g>
  </g>
  <g id="Group_4657" data-name="Group 4657" transform="translate(-22.5 -54.673)">
    <g id="Group_4652" data-name="Group 4652">
      <g id="Group_4651" data-name="Group 4651">
        <path id="Path_1503" data-name="Path 1503" d="M182.683,209.867H178.1a1.7,1.7,0,0,0-1.7,1.7v.68h-6.834v-.68a1.7,1.7,0,0,0-1.7-1.7h-4.584a1.7,1.7,0,0,0-1.7,1.7v4.584a1.7,1.7,0,0,0,1.7,1.7h4.584a1.7,1.7,0,0,0,1.7-1.7v-.678H176.4v.678a1.7,1.7,0,0,0,1.7,1.7h4.584a1.7,1.7,0,0,0,1.7-1.7v-4.584A1.7,1.7,0,0,0,182.683,209.867Z" fill="#feaa61"/>
      </g>
    </g>
    <g id="Group_4654" data-name="Group 4654">
      <g id="Group_4653" data-name="Group 4653">
        <path id="Path_1504" data-name="Path 1504" d="M163.15,216.557a6.274,6.274,0,0,1,1.39-3.993,10.806,10.806,0,0,1,2.775-2.646H163.31a1.7,1.7,0,0,0-1.7,1.7V216.2a1.7,1.7,0,0,0,1.7,1.7h.048A6.673,6.673,0,0,1,163.15,216.557Z" fill="#f18a00"/>
      </g>
    </g>
    <g id="Group_4656" data-name="Group 4656">
      <g id="Group_4655" data-name="Group 4655">
        <path id="Rectangle_3066" data-name="Rectangle 3066" d="M1.533,0H8.046A1.533,1.533,0,0,1,9.579,1.533v.2A1.534,1.534,0,0,1,8.045,3.269H1.533A1.533,1.533,0,0,1,0,1.735v-.2A1.533,1.533,0,0,1,1.533,0Z" transform="translate(168.135 212.249)" fill="#ffe471"/>
      </g>
    </g>
  </g>
  <g id="Group_4664" data-name="Group 4664" transform="translate(-22.5 -54.673)">
    <g id="Group_4659" data-name="Group 4659">
      <g id="Group_4658" data-name="Group 4658">
        <path id="Path_1505" data-name="Path 1505" d="M165.209,197.9l-3.584,3.033a1.738,1.738,0,0,0-.205,2.45l.449.531-5.345,4.519-.449-.532a1.739,1.739,0,0,0-2.45-.2l-3.585,3.031a1.74,1.74,0,0,0-.2,2.451l3.031,3.585a1.739,1.739,0,0,0,2.45.205l3.585-3.032a1.737,1.737,0,0,0,.205-2.45l-.449-.531,5.344-4.52.449.532a1.74,1.74,0,0,0,2.45.205l3.585-3.032a1.739,1.739,0,0,0,.205-2.451l-3.031-3.585A1.74,1.74,0,0,0,165.209,197.9Z" fill="#feaa61"/>
      </g>
    </g>
    <g id="Group_4661" data-name="Group 4661">
      <g id="Group_4660" data-name="Group 4660">
        <path id="Path_1506" data-name="Path 1506" d="M154.359,216.053a6.432,6.432,0,0,1-1.554-4.042,11.106,11.106,0,0,1,.42-3.9l-3.131,2.648a1.739,1.739,0,0,0-.2,2.451l3.031,3.585a1.739,1.739,0,0,0,2.451.2l.037-.031A6.881,6.881,0,0,1,154.359,216.053Z" fill="#f18a00"/>
      </g>
    </g>
    <g id="Group_4663" data-name="Group 4663">
      <g id="Group_4662" data-name="Group 4662">
        <path id="Path_1507" data-name="Path 1507" d="M163.88,206.607l-5.128,4.337a1.547,1.547,0,0,1-2.181-.182l-.164-.194a1.547,1.547,0,0,1,.183-2.18l5.128-4.337a1.547,1.547,0,0,1,2.18.182l.165.195A1.547,1.547,0,0,1,163.88,206.607Z" fill="#ffe471"/>
      </g>
    </g>
  </g>
  <g id="Group_4666" data-name="Group 4666" transform="translate(-22.5 -54.673)">
    <g id="Group_4665" data-name="Group 4665">
      <path id="Path_1508" data-name="Path 1508" d="M241.636,196.455s-.492.059-.374.353,1.936,3.322,1.95,3.347,4.9.069,5.1-2.735c0,0-2.005-3.121-2.211-3.418s-.459-.341-.8.054S241.636,196.455,241.636,196.455Z" fill="#909797"/>
    </g>
  </g>
  <g id="Group_4709" data-name="Group 4709" transform="translate(-22.5 -54.673)">
    <g id="Group_4708" data-name="Group 4708">
      <g id="Group_4705" data-name="Group 4705">
        <g id="Group_4704" data-name="Group 4704">
          <g id="Group_4703" data-name="Group 4703" clip-path="url(#clip-path-6)">
            <g id="Group_4667" data-name="Group 4667">
              <rect id="Rectangle_3067" data-name="Rectangle 3067" width="0.417" height="15.593" transform="translate(240.038 196.338)" fill="#256bb2"/>
            </g>
            <g id="Group_4668" data-name="Group 4668">
              <rect id="Rectangle_3068" data-name="Rectangle 3068" width="0.349" height="15.593" transform="translate(240.455 196.338)" fill="#256bb2"/>
            </g>
            <g id="Group_4669" data-name="Group 4669">
              <rect id="Rectangle_3069" data-name="Rectangle 3069" width="0.349" height="15.593" transform="translate(240.804 196.338)" fill="#246ab1"/>
            </g>
            <g id="Group_4670" data-name="Group 4670">
              <rect id="Rectangle_3070" data-name="Rectangle 3070" width="0.349" height="15.593" transform="translate(241.152 196.338)" fill="#2469b0"/>
            </g>
            <g id="Group_4671" data-name="Group 4671">
              <rect id="Rectangle_3071" data-name="Rectangle 3071" width="0.349" height="15.593" transform="translate(241.501 196.338)" fill="#2368b0"/>
            </g>
            <g id="Group_4672" data-name="Group 4672">
              <rect id="Rectangle_3072" data-name="Rectangle 3072" width="0.349" height="15.593" transform="translate(241.85 196.338)" fill="#2367af"/>
            </g>
            <g id="Group_4673" data-name="Group 4673">
              <rect id="Rectangle_3073" data-name="Rectangle 3073" width="0.349" height="15.593" transform="translate(242.198 196.338)" fill="#2266ae"/>
            </g>
            <g id="Group_4674" data-name="Group 4674">
              <rect id="Rectangle_3074" data-name="Rectangle 3074" width="0.349" height="15.593" transform="translate(242.547 196.338)" fill="#2265ad"/>
            </g>
            <g id="Group_4675" data-name="Group 4675">
              <rect id="Rectangle_3075" data-name="Rectangle 3075" width="0.349" height="15.593" transform="translate(242.895 196.338)" fill="#2164ac"/>
            </g>
            <g id="Group_4676" data-name="Group 4676">
              <rect id="Rectangle_3076" data-name="Rectangle 3076" width="0.349" height="15.593" transform="translate(243.244 196.338)" fill="#2163ac"/>
            </g>
            <g id="Group_4677" data-name="Group 4677">
              <rect id="Rectangle_3077" data-name="Rectangle 3077" width="0.349" height="15.593" transform="translate(243.593 196.338)" fill="#2062ab"/>
            </g>
            <g id="Group_4678" data-name="Group 4678">
              <rect id="Rectangle_3078" data-name="Rectangle 3078" width="0.349" height="15.593" transform="translate(243.941 196.338)" fill="#2061aa"/>
            </g>
            <g id="Group_4679" data-name="Group 4679">
              <rect id="Rectangle_3079" data-name="Rectangle 3079" width="0.349" height="15.593" transform="translate(244.29 196.338)" fill="#1f60a9"/>
            </g>
            <g id="Group_4680" data-name="Group 4680">
              <rect id="Rectangle_3080" data-name="Rectangle 3080" width="0.349" height="15.593" transform="translate(244.639 196.338)" fill="#1f5fa9"/>
            </g>
            <g id="Group_4681" data-name="Group 4681">
              <rect id="Rectangle_3081" data-name="Rectangle 3081" width="0.349" height="15.593" transform="translate(244.987 196.338)" fill="#1e5ea8"/>
            </g>
            <g id="Group_4682" data-name="Group 4682">
              <rect id="Rectangle_3082" data-name="Rectangle 3082" width="0.349" height="15.593" transform="translate(245.336 196.338)" fill="#1e5da7"/>
            </g>
            <g id="Group_4683" data-name="Group 4683">
              <rect id="Rectangle_3083" data-name="Rectangle 3083" width="0.349" height="15.593" transform="translate(245.685 196.338)" fill="#1d5ca6"/>
            </g>
            <g id="Group_4684" data-name="Group 4684">
              <rect id="Rectangle_3084" data-name="Rectangle 3084" width="0.349" height="15.593" transform="translate(246.033 196.338)" fill="#1d5ba5"/>
            </g>
            <g id="Group_4685" data-name="Group 4685">
              <rect id="Rectangle_3085" data-name="Rectangle 3085" width="0.349" height="15.593" transform="translate(246.382 196.338)" fill="#1c59a5"/>
            </g>
            <g id="Group_4686" data-name="Group 4686">
              <rect id="Rectangle_3086" data-name="Rectangle 3086" width="0.349" height="15.593" transform="translate(246.73 196.338)" fill="#1c58a4"/>
            </g>
            <g id="Group_4687" data-name="Group 4687">
              <rect id="Rectangle_3087" data-name="Rectangle 3087" width="0.349" height="15.593" transform="translate(247.079 196.338)" fill="#1b57a3"/>
            </g>
            <g id="Group_4688" data-name="Group 4688">
              <rect id="Rectangle_3088" data-name="Rectangle 3088" width="0.349" height="15.593" transform="translate(247.428 196.338)" fill="#1b56a2"/>
            </g>
            <g id="Group_4689" data-name="Group 4689">
              <rect id="Rectangle_3089" data-name="Rectangle 3089" width="0.349" height="15.593" transform="translate(247.776 196.338)" fill="#1a55a1"/>
            </g>
            <g id="Group_4690" data-name="Group 4690">
              <rect id="Rectangle_3090" data-name="Rectangle 3090" width="0.349" height="15.593" transform="translate(248.125 196.338)" fill="#1a54a1"/>
            </g>
            <g id="Group_4691" data-name="Group 4691">
              <rect id="Rectangle_3091" data-name="Rectangle 3091" width="0.349" height="15.593" transform="translate(248.474 196.338)" fill="#1953a0"/>
            </g>
            <g id="Group_4692" data-name="Group 4692">
              <rect id="Rectangle_3092" data-name="Rectangle 3092" width="0.349" height="15.593" transform="translate(248.822 196.338)" fill="#19529f"/>
            </g>
            <g id="Group_4693" data-name="Group 4693">
              <rect id="Rectangle_3093" data-name="Rectangle 3093" width="0.349" height="15.593" transform="translate(249.171 196.338)" fill="#18519e"/>
            </g>
            <g id="Group_4694" data-name="Group 4694">
              <rect id="Rectangle_3094" data-name="Rectangle 3094" width="0.349" height="15.593" transform="translate(249.52 196.338)" fill="#18509e"/>
            </g>
            <g id="Group_4695" data-name="Group 4695">
              <rect id="Rectangle_3095" data-name="Rectangle 3095" width="0.349" height="15.593" transform="translate(249.868 196.338)" fill="#174f9d"/>
            </g>
            <g id="Group_4696" data-name="Group 4696">
              <rect id="Rectangle_3096" data-name="Rectangle 3096" width="0.349" height="15.593" transform="translate(250.217 196.338)" fill="#174e9c"/>
            </g>
            <g id="Group_4697" data-name="Group 4697">
              <rect id="Rectangle_3097" data-name="Rectangle 3097" width="0.349" height="15.593" transform="translate(250.565 196.338)" fill="#164d9b"/>
            </g>
            <g id="Group_4698" data-name="Group 4698">
              <rect id="Rectangle_3098" data-name="Rectangle 3098" width="0.349" height="15.593" transform="translate(250.914 196.338)" fill="#164c9a"/>
            </g>
            <g id="Group_4699" data-name="Group 4699">
              <rect id="Rectangle_3099" data-name="Rectangle 3099" width="0.349" height="15.593" transform="translate(251.263 196.338)" fill="#154b9a"/>
            </g>
            <g id="Group_4700" data-name="Group 4700">
              <rect id="Rectangle_3100" data-name="Rectangle 3100" width="0.349" height="15.593" transform="translate(251.611 196.338)" fill="#154a99"/>
            </g>
            <g id="Group_4701" data-name="Group 4701">
              <rect id="Rectangle_3101" data-name="Rectangle 3101" width="0.349" height="15.593" transform="translate(251.96 196.338)" fill="#144998"/>
            </g>
            <g id="Group_4702" data-name="Group 4702">
              <rect id="Rectangle_3102" data-name="Rectangle 3102" width="0.562" height="15.593" transform="translate(252.309 196.338)" fill="#144998"/>
            </g>
          </g>
        </g>
      </g>
      <g id="Group_4707" data-name="Group 4707" opacity="0.5" style="mix-blend-mode: overlay;isolation: isolate">
        <g id="Group_4706" data-name="Group 4706">
          <path id="Path_1510" data-name="Path 1510" d="M245.861,206.524c2.668-3.753,4.31-5.415,5.906-7.352.426.52.659,1.026.481,1.43-.622,1.4-2.914,3.621-4.7,6.414s-3.749,4.708-4.915,4.811a2.408,2.408,0,0,1-1.35-.313A22.514,22.514,0,0,0,245.861,206.524Z" fill="#fff"/>
        </g>
      </g>
    </g>
  </g>
</svg>
