<?xml version="1.0" encoding="utf-8"?>
<!-- Generator: Adobe Illustrator 25.0.1, SVG Export Plug-In . SVG Version: 6.00 Build 0)  -->
<svg version="1.1" id="Component_41_1" xmlns="http://www.w3.org/2000/svg" xmlns:xlink="http://www.w3.org/1999/xlink" x="0px"
	 y="0px" viewBox="0 0 233.3 194.9" style="enable-background:new 0 0 233.3 194.9;" xml:space="preserve">
<style type="text/css">
	.st0{fill:#D8E081;}
	.st1{fill:#00A3A1;}
	.st2{opacity:0.4;}
	.st3{fill:#00ABC4;}
	.st4{fill:#00AEB4;}
	.st5{fill:#F7F7F7;}
	.st6{fill:#C8E7EB;}
	.st7{opacity:0.74;fill:#B1D4FC;enable-background:new    ;}
	.st8{fill:#FFF3E1;}
	.st9{opacity:0.65;fill:#FFFFFF;enable-background:new    ;}
	.st10{opacity:0.2;fill:#00B0C4;enable-background:new    ;}
	.st11{fill:#B9D36A;}
	.st12{fill:#FFFFFF;}
	.st13{fill:#DB6252;}
	.st14{fill:#F9F3ED;}
	.st15{opacity:0.53;fill:#C8E7EB;enable-background:new    ;}
	.st16{fill:#DDD4CE;}
	.st17{fill:#D6CFC9;}
	.st18{opacity:0.57;fill:#D6CFC9;enable-background:new    ;}
	.st19{fill:#E9AD3D;}
</style>
<g id="Group_7727" transform="translate(-32.483 -37.259)">
	<g id="Group_7712">
		<g id="Group_7681">
			<g id="Group_7680">
				<path id="Path_4460" class="st0" d="M86.8,133.3c-0.8-0.4-1.7-1.1-1.6-2.1c0.1-1,1.4-1.5,2.4-1.6c5.8-0.7,11.5,1.6,15.3,6.1
					l0,0.3c3.9-3.9,9.1-6.3,14.6-6.9c1.2-0.1,2.7,0,3.3,1c0.4,0.8,0.3,1.7-0.2,2.4c-0.5,0.7-1.2,1.2-2,1.6
					c-4.8,2.6-10.4,3.4-15.8,2.5l0.1-0.5v0C97.7,134.5,91.7,135.7,86.8,133.3z"/>
			</g>
		</g>
		<g id="Group_7683">
			<g id="Group_7682">
				<path id="Path_4461" class="st0" d="M84.4,149.5c-0.6-0.2-1.2-0.6-1.6-1.1c-0.4-0.9-0.2-1.9,0.5-2.5c0.7-0.6,1.6-1,2.5-1.1
					c5.8-1.1,11.8,1,15.7,5.4l0.2,0.6c3.4-5,8.5-8.7,14.4-10.4c1.2-0.4,2.8-0.5,3.5,0.5c0.4,0.7,0.4,1.5,0,2.2
					c-0.4,0.7-0.9,1.2-1.5,1.7c-4.7,3.8-10.5,6-16.5,6.2l0-0.1c-4.1-0.2-8.2-0.5-12.2-0.7C87.8,150.3,86,150,84.4,149.5z"/>
			</g>
		</g>
		<g id="Group_7685">
			<g id="Group_7684">
				<path id="Path_4462" class="st0" d="M101.5,179.7c-5.5,2.2-11.4,3.2-17.3,2.8c-1.1-0.1-2.4-0.3-2.8-1.4
					c-0.4-1.1,0.6-2.3,1.6-2.9c2.9-1.6,6.3-2.2,9.5-1.6c3.2,0.6,6.4,1.5,9.4,2.8L101.5,179.7z"/>
			</g>
		</g>
		<g id="Group_7687">
			<g id="Group_7686">
				<path id="Path_4463" class="st0" d="M92.5,104.3c0.2-1.3,1.7-1.8,3-1.8c2.8,0,5.6,1,7.8,2.7c2.2,1.8,3.9,4,5.2,6.5v0
					c2.8-2.1,5.9-4.2,9.4-4.8c1-0.2,1.9-0.1,2.9,0.2c0.9,0.4,1.5,1.3,1.5,2.3c-0.3,1.1-1,1.9-2,2.3c-3.4,1.7-7.5,1.3-11.3,0.9
					l-0.6-0.4c-4.7-1-9.3-2.7-13.6-5C93.5,106.6,92.2,105.6,92.5,104.3z"/>
			</g>
		</g>
		<g id="Group_7689">
			<g id="Group_7688">
				<path id="Path_4464" class="st0" d="M97.2,93.6c0.2-0.8,0.7-1.5,1.4-1.8c0.7-0.3,1.5-0.5,2.3-0.4c2.4,0.2,4.7,1.1,6.6,2.7
					c1.9,1.5,3.5,3.3,4.9,5.3l-0.6-0.1c-3.8-0.4-7.5-1.2-11.2-2.2c-0.9-0.2-1.7-0.6-2.4-1.1C97.5,95.4,97.1,94.5,97.2,93.6z"/>
			</g>
		</g>
		<g id="Group_7691">
			<g id="Group_7690">
				<path id="Path_4465" class="st0" d="M85.4,165.5c-1.2,0.1-2.5-0.1-3.6-0.6c-1.1-0.6-1.6-2-1.1-3.1c0.6-0.7,1.4-1.2,2.3-1.2
					c6.4-1.2,12.9,0.7,17.6,5.1C95.5,165.5,90.5,165.5,85.4,165.5z"/>
			</g>
		</g>
		<g id="Group_7693">
			<g id="Group_7692">
				<path id="Path_4466" class="st0" d="M112.2,99.4l0.4,0.1c3.6-3.1,8.2-4.8,12.9-4.9c0.8-0.1,1.6,0.1,2.3,0.4
					c0.7,0.3,1.3,1,1.3,1.8c0,1.2-1.3,2.1-2.4,2.5C122,101,116.9,101.1,112.2,99.4z"/>
			</g>
		</g>
		<g id="Group_7695">
			<g id="Group_7694">
				<path id="Path_4467" class="st0" d="M119.9,82.9c1.3-7.2,5.6-13.6,11.9-17.4c0.6-0.4,1.4-0.7,2.1-0.9c0.8-0.2,1.6,0.1,2.2,0.6
					c1,1,0.5,2.7-0.2,3.9c-3.4,6.1-9.8,9.9-15.9,13.4L119.9,82.9z"/>
			</g>
		</g>
		<g id="Group_7697">
			<g id="Group_7696">
				<path id="Path_4468" class="st0" d="M105.1,125.5c0,0-0.1-0.1-0.1-0.1l0.1,0l0,0c3.3-4.5,8.5-7.9,14.1-7.8
					c1.3,0,2.8,0.4,3.2,1.6c0.5,1.3-0.8,2.6-1.9,3.4c-4.5,3-9.9,4.1-15.2,3l-0.1-0.1L105.1,125.5z"/>
			</g>
		</g>
		<g id="Group_7699">
			<g id="Group_7698">
				<path id="Path_4469" class="st0" d="M116.8,90.5l-0.4-0.3c2.1-1.6,4.4-3,6.9-4.2c2.5-1.1,5.1-1.6,7.8-1.4c0.8,0,1.6,0.3,2.3,0.7
					c0.7,0.4,1.2,1.2,1.2,2c0,1.4-1.5,2.2-2.8,2.6C126.9,91.6,121.7,91.8,116.8,90.5z"/>
			</g>
		</g>
		<g id="Group_7701">
			<g id="Group_7700">
				<path id="Path_4470" class="st0" d="M89.4,117.4c0.5-0.7,1.3-1,2.1-1.1c2.9-0.2,5.8,0.7,8.1,2.6c2.2,1.8,4,4,5.4,6.5
					c-4.5-1-9-2.4-13.2-4.2c-0.8-0.3-1.5-0.8-2.1-1.4C89.1,119.1,89,118.2,89.4,117.4z"/>
			</g>
		</g>
		<g id="Group_7703">
			<g id="Group_7702">
				<path id="Path_4471" class="st0" d="M100.7,165.6c0,0-0.1-0.1-0.1-0.1c0.1,0,0.1,0,0.2,0l0.1-0.1c2.2-6,6.5-11.1,12-14.4
					c1-0.6,2.3-1.1,3.3-0.6c1.2,0.6,1.4,2.2,1,3.4c-0.6,2.3-2.6,4-4.6,5.4c-3.6,2.6-7.5,4.8-11.6,6.6v0l0.1,0.2
					c0-0.1-0.1-0.1-0.1-0.2c-0.2,0.1-0.3,0.1-0.5,0.2L100.7,165.6z"/>
			</g>
		</g>
		<g id="Group_7705">
			<g id="Group_7704">
				<path id="Path_4472" class="st0" d="M102,179.4c0.1-0.1,0.2-0.1,0.3-0.2c-0.1,0.3-0.2,0.6-0.2,0.8L102,179.4z"/>
			</g>
		</g>
		<g id="Group_7707">
			<g id="Group_7706">
				<path id="Path_4473" class="st0" d="M116.2,161.6c0.8-0.3,1.6-0.5,2.4-0.5c0.9,0,1.6,0.4,2.1,1.1c0.4,0.8,0.4,1.6,0.1,2.4
					c-0.8,2-2.1,3.8-3.9,5.2c-4.4,3.9-9.3,7-14.7,9.4c0.9-3.6,2.5-7.1,4.6-10.1C109.2,165.8,112.5,163.2,116.2,161.6z"/>
			</g>
		</g>
		<g id="Group_7709">
			<g id="Group_7708">
				<path id="Path_4474" class="st0" d="M124.2,179.6c0.3,0.6,0.4,1.3,0.2,2c-0.2,0.7-0.6,1.3-1,1.8c-2.4,3.2-5.4,5.8-8.8,7.8
					c-3.3,2-6.7,3.7-10.3,5.2l0.4,0.3c-5.3,1.3-10.7,1.6-16.1,0.9c-0.9-0.1-1.8-0.3-2.6-0.8c-0.8-0.5-1.2-1.4-1-2.3
					c0.4-0.9,1.2-1.5,2.1-1.7c5.8-2,12.3-0.8,17,3.4l0-0.1c1.6-6.5,5.6-12.2,11.3-15.7c1.8-1.2,3.9-2,6-2
					C122.5,178.2,123.6,178.7,124.2,179.6z"/>
			</g>
		</g>
		<g id="Group_7711">
			<g id="Group_7710">
				<path id="Path_4475" class="st0" d="M108,203.8c-11.5-40.4-6.1-83.8,15.1-120c1.3-2.2-2.4-3.9-3.7-1.7
					c-21.6,37.3-27.1,81.8-15.2,123.2C105,207.8,108.7,206.3,108,203.8z"/>
			</g>
		</g>
	</g>
	<g id="Group_7720">
		<g id="Group_7714">
			<g id="Group_7713">
				<path id="Path_4476" class="st1" d="M107.3,206.6c0.3-0.1,0.6-0.2,0.9-0.3c-0.1,0.3-0.2,0.6-0.3,0.9L107.3,206.6z"/>
			</g>
		</g>
		<g id="Group_7717" class="st2">
			<g id="Group_7716">
				<g id="Group_7715">
					<path id="Path_4477" class="st3" d="M108.3,206.3c1.7-6.1,0.2-13-1.8-19.7c-2.1-7-4.9-14-5.5-20.9c-0.1-1.6-0.1-3.3,1.2-4.2
						c1.5-1.1,4.1-0.2,5.8,1.3c1.5,1.6,2.6,3.4,3.2,5.4c-0.5-9,1.5-18,5.8-25.9c2.2,3,4.3,5.9,6.5,8.9c1-7.3,3.7-14.2,8.1-20.1
						c1.3-1.7,3.3-3.5,5.8-2.7c2.8,0.9,3.8,4.2,4.2,6.8c5.8-9.4,15.6-16.3,27.3-19.1c3.1-0.7,7.2-0.9,9.6,1.7
						c2.5,2.6,1.6,6.2,0.4,8.9c-3.5,8.1-7.9,15.7-13.2,22.7c2.5-0.4,5.1-0.8,7.7,0s5.2,3.1,5.2,5.5c0,2.1-2,3.4-3.9,4.4
						c-7.1,3.8-14.4,7.4-22,10.6c3.2,0.6,7.3,2,7.8,5c0.5,2.5-2.1,3.9-4.4,4.8c-6.3,2.5-12.6,4.8-19.1,6.8c2.3-0.3,4.8,1.8,5.3,4
						c0.5,2.1-0.4,4.2-2.1,5.5c-1.8,1.2-3.8,2.1-5.8,2.5C125.7,201.1,117,203.7,108.3,206.3z"/>
				</g>
			</g>
		</g>
		<g id="Group_7719">
			<g id="Group_7718">
				<path id="Path_4478" class="st4" d="M162.7,126.1c-9.3,9.8-18,20.3-25.8,31.4c-0.2-4.3-0.1-8.7,0.4-13c0.1-1.3-1.9-1.3-2,0
					c-0.6,5.2-0.7,10.4-0.3,15.6h0c-5,7.2-9.6,14.7-14,22.3c-0.5-6.6-1-13.3-1.4-19.9c-0.1-1.3-2.1-1.3-2,0
					c0.5,7.4,1.1,14.8,1.6,22.2c0,0.2,0.1,0.4,0.2,0.6c-2.5,4.5-4.9,9.1-7.1,13.8c-0.6,1.2,1.2,2.2,1.7,1c2.4-4.9,4.9-9.8,7.5-14.5
					c0.1,0,0.2,0,0.2,0c5.1-2.1,10.1-4.3,15.2-6.4c1.2-0.5,0.6-2.4-0.5-1.9c-4.4,1.9-8.9,3.8-13.3,5.6c4.4-7.7,9.1-15.2,14.1-22.5
					c0.1,0,0.3,0,0.4,0c6.7-1.4,13.2-3.4,19.5-6c1.2-0.5,0.6-2.4-0.5-1.9c-5.7,2.4-11.7,4.2-17.7,5.6c7.7-10.8,16.1-21,25.1-30.5
					C165.1,126.6,163.6,125.2,162.7,126.1z"/>
			</g>
		</g>
	</g>
	<g id="Group_7726">
		<g id="Group_7723" class="st2">
			<g id="Group_7722">
				<g id="Group_7721">
					<path id="Path_4479" class="st3" d="M106.2,164c1.1,2.9-0.1,5.8-1.3,8.5c-4.2,9.1-8.8,18-13.8,26.8l0.5,0.4
						c-8.7-0.6-17.3-1.2-26-1.8c-1.8,0-3.7-0.4-5.4-1.1c-2.7-1.3-4.6-5-0.5-7.9c0.8-0.5,1.6-0.9,2.5-1.2l11.8-3.8
						c1.3-0.4,2.9-1.2,2.7-2.7c-0.1-0.8-0.7-1.4-1.4-1.7c-5.5-2.5-11.7-3.3-17.7-2.3c-1.7,0.5-3.4,0.6-5.1,0.4
						c-2.3-0.5-4.5-3-2.2-5.4c0.5-0.5,1.1-0.9,1.7-1.2c4.2-1.8,8.6-3.1,13.1-3.9c2.3-0.4,5.4-1.4,4.9-4c-0.3-1.1-1.1-2-2.2-2.3
						c-5.2-1.5-10.6-2-15.9-1.4c-1.3,0.2-2.7,0.2-4,0c-1.8-0.5-3.4-2.4-1.8-4.4c0.6-0.7,1.5-1.2,2.4-1.4l12.7-2.8
						c1.5-0.3,3.3-0.9,3.3-2.7c0-1.2-0.9-2.3-2.1-2.6c-5.7-1.6-11.6-2.2-17.4-1.6c-1.9,0.2-3.8,0.4-5.4-0.8
						c-0.8-0.6-1.2-1.6-1.1-2.6c0.3-1.4,1.8-1.9,3-2.2L55,135c0.5-0.1,0.8-0.6,0.7-1.1c-0.1-0.3-0.3-0.5-0.5-0.6
						c-5.1-2.2-10.6-3.2-16.2-2.9c-1.4,0.2-2.8,0.1-4.1-0.2c-1.8-0.6-3.4-2.8-1.4-4.7c0.5-0.5,1.2-0.9,1.9-1c4.2-1.2,8.4-2,12.7-2.4
						c-2.8-3-5.5-6.1-8.3-9.2c-2-2.2-4.2-5-3-8c0.9-2,2.9-3.3,5-3.2c3.7,0,6.5,2.7,8.3,5.7c1,1.7,1.8,3.6,3.6,4.5
						c0.9,0.5,2,0.5,2.9,0.1c1.5-0.9,1.5-2.7,1.6-4.3c0.1-1.4,0.8-3,2.2-3.2c0.7,0,1.5,0.3,2,0.8c2,1.9,1.9,5,1.3,7.7
						c-0.7,3.3-1.9,6.7,0,9.8c1,1.7,3.2,2.4,5,1.5c1.8-1,1.9-3.1,2.4-5c0.5-1.8,2.2-3.8,4.1-2.7c0.5,0.4,0.9,0.9,1.1,1.5
						c1.5,4.2,0,8.7-1,13c-0.8,2.7-0.9,5.6-0.5,8.3c0.3,1.1,1.4,1.8,2.5,1.5c0.5-0.1,1-0.4,1.3-0.9l5.2-8c0.6-0.9,1.3-1.9,2.5-1.7
						c0.7,0.1,1.3,0.5,1.6,1.2c0.8,1.4,0.3,3-0.2,4.4c-1.7,5.4-3.5,10.8-5.2,16.2c-0.6,1.9-1.1,4.1,0.4,5.5c1.3,1,3.1,1.1,4.5,0
						c2.8-2,3.1-5.5,4.7-8.2c1-1.7,3.2-3.1,4.7-1.4c0.6,0.8,0.8,1.8,0.4,2.7c-2,5.3-4.4,10.4-7.3,15.2c-1.1,1.9-2.4,3.9-1.9,6.2
						c0.3,1.5,1.6,2.5,3.1,2.5c1.5-0.2,2.4-1.6,3.1-2.9c1.1-2,2.2-4.1,3.4-6.1c1.1-2.1,2.7-4.4,5.2-4.2
						C104.3,161.5,105.6,162.5,106.2,164z"/>
				</g>
			</g>
		</g>
		<g id="Group_7725">
			<g id="Group_7724">
				<path id="Path_4480" class="st4" d="M89.6,197.7c-4.7-36.4-21.7-70.1-48.2-95.4c-0.9-0.9-2.5,0.4-1.5,1.3
					c26.3,25.1,43.1,58.5,47.8,94.5C87.8,199.4,89.8,199,89.6,197.7z"/>
			</g>
		</g>
	</g>
</g>
<g id="Group_7728" transform="translate(-32.483 -37.259)" class="st2">
	<path id="Path_4481" class="st5" d="M199.7,209.6c0.5-0.2,1.1-0.4,1.6-0.7c0.3-0.1,0.5-0.2,0.8-0.4c0.5-0.2,1-0.5,1.6-0.7
		c0.3-0.1,0.6-0.3,0.8-0.4c0.5-0.2,1-0.5,1.5-0.7c0.3-0.1,0.6-0.3,0.9-0.4c0.5-0.2,0.9-0.5,1.4-0.7c0.3-0.2,0.7-0.3,1-0.5
		c0.4-0.2,0.9-0.4,1.3-0.7c0.4-0.2,0.8-0.4,1.2-0.6s0.8-0.4,1.1-0.6c0.5-0.3,0.9-0.5,1.4-0.8l0.9-0.5c0.8-0.4,1.5-0.9,2.3-1.3
		c13.6-7.8,26.3-17.5,35.4-30.2s14.4-28.6,12.2-44.1c-1.5-11-8.7-22.6-19.3-24.3c-0.6-0.1-1.3-0.2-1.9-0.2c-2.6,0-5.3,0.3-7.9,0.7
		c-0.6,0.1-1.1,0.1-1.7,0.1c-0.2,0-0.3,0-0.5,0c-0.4,0-0.8,0-1.2,0c-0.2,0-0.4,0-0.6,0c-0.4,0-0.7,0-1.1,0c-0.2,0-0.4,0-0.6,0
		c-0.4,0-0.7,0-1.1,0c-0.2,0-0.4,0-0.6,0c-0.4,0-0.8,0-1.1-0.1c-0.2,0-0.3,0-0.5,0c-0.4,0-0.9-0.1-1.3-0.1c-0.1,0-0.2,0-0.4,0
		c-1.1-0.1-2.3-0.3-3.4-0.4c-0.1,0-0.1,0-0.2,0c-0.5-0.1-1-0.2-1.4-0.2c-0.1,0-0.3-0.1-0.4-0.1c-0.4-0.1-0.8-0.1-1.2-0.2l-0.5-0.1
		c-0.4-0.1-0.8-0.2-1.2-0.2c-0.2,0-0.3-0.1-0.5-0.1c-0.4-0.1-0.8-0.2-1.2-0.2c-0.2,0-0.3-0.1-0.5-0.1c-0.4-0.1-0.9-0.2-1.3-0.3
		c-0.1,0-0.2-0.1-0.4-0.1c-0.5-0.1-1.1-0.2-1.6-0.4h0c0,0-0.1,0-0.1,0c1-3.5,1.6-7.1,1.7-10.7c0-14.1-10.7-25.7-21.6-34.6
		c-13.3-10.8-30-20.2-46.7-16.7c-8.5,1.7-16,6.6-22.7,12.1c-1.3,1.1-2.7,2.2-3.9,3.4c-2-0.2-4-0.2-6.1-0.2c-0.1,0-0.3,0-0.4,0
		c-0.4,0-0.7,0-1.1,0c-0.2,0-0.5,0-0.7,0c-0.3,0-0.6,0-0.9,0.1c-0.3,0-0.6,0-0.8,0.1s-0.5,0-0.8,0.1c-0.4,0-0.7,0.1-1.1,0.1
		c-0.2,0-0.4,0-0.6,0.1c-1.2,0.2-2.3,0.3-3.5,0.6l-0.4,0.1c-0.5,0.1-0.9,0.2-1.4,0.3c-0.2,0-0.3,0.1-0.5,0.1
		c-0.4,0.1-0.8,0.2-1.2,0.3c-0.2,0-0.3,0.1-0.5,0.1c-0.4,0.1-0.8,0.2-1.2,0.3c-0.2,0-0.3,0.1-0.5,0.1c-0.4,0.1-0.8,0.3-1.3,0.4
		c-0.1,0-0.3,0.1-0.4,0.1c-0.6,0.2-1.1,0.4-1.7,0.6c-18.3,6.8-32.5,22.7-39,41.1s-5.8,38.9,0.1,57.5c3.3,10.8,8.5,21,15.4,30
		c16.6,21.3,43.4,33.4,70.3,35.1c1,0.1,1.9,0.1,2.9,0.1c0.3,0,0.6,0,1,0c0.7,0,1.3,0,2,0c0.4,0,0.7,0,1.1,0c0.8,0,1.5,0,2.3,0
		c0.2,0,0.4,0,0.6,0c1,0,2.1-0.1,3.1-0.1c6.4,1.2,12.9,1.5,19.3,1.1c7.6-0.5,15.5-2.2,21.3-7.1c1.5-1.3,2.9-2.7,4.1-4.3
		c0.3-0.1,0.7-0.3,1-0.4C199.2,209.8,199.5,209.7,199.7,209.6z"/>
</g>
<g id="Group_7729" transform="translate(-32.483 -37.259)">
	<path id="Path_4482" class="st6" d="M259.9,219.5c0,7-47.6,12.7-106.4,12.7s-106.4-5.7-106.4-12.7s47.6-12.7,106.4-12.7
		S259.9,212.5,259.9,219.5z"/>
</g>
<path id="Path_4483" class="st7" d="M140.4,120.3L16,119.6l9.8,50c1,5.3,5.6,9,11,9h83.9c5.4,0,10.1-3.9,11-9.2L140.4,120.3z"/>
<path id="Path_4484" class="st8" d="M126,161.9c1.4,1.1,1.8,3.1,0.9,4.6c2.2,1.2,3,3.9,1.8,6s-3.9,3-6,1.8c-0.1,0-0.1-0.1-0.2-0.1
	c-0.2,1.8-2.4,2.9-4.2,2.6c-1.8-0.4-3.4-1.3-4.7-2.6c-1.2,1.8-3.5,2.5-5.5,1.6c-1-0.5-1.9-1.4-3-1.2c-0.7,0.2-1.4,0.6-2,1.1
	c-1.2,0.7-2.7,0.6-3.8-0.2c-0.3-0.3-0.7-0.5-1.1-0.6c-0.5,0-0.8,0.5-1.2,1c-1.9,2.1-5.1,2.4-7.3,0.5c-0.3-0.3-0.7-0.7-0.9-1
	c-0.8,1.8-3,2.7-4.9,1.8c-1.2-0.5-2-1.6-2.1-2.9c-0.7,2.3-3.2,3.6-5.5,2.8c-1-0.3-1.8-1-2.4-1.9c-2.4,2.8-6.6,3-9.4,0.6
	c-0.1-0.1-0.2-0.2-0.4-0.3c-1.3,1.6-3.2,2.7-5.3,2.8c-2.1,0-4.2-1.6-4.3-3.6c-1.3,1.4-3,2.3-4.9,2.6c-1.9,0.1-4-1.2-3.9-3.1
	c-1,1.6-3.1,2.1-4.7,1.2c-0.5-0.4-1.1-0.8-1.6-1.1c-1.1-0.5-2.3-0.1-3.4-0.4c-1.5-0.5-2.3-2-1.8-3.5c0.3-0.9,1.1-1.7,2-1.9
	c-1.6-1.2-3-2.8-4-4.5c-0.9-1.8-0.8-4.3,0.6-5.7c-1.6,0.3-3.1-0.9-3.4-2.5c-0.1-0.9,0.1-1.8,0.7-2.4c-1.3-0.2-2.3-1.3-2.4-2.6
	c0-1.3,0.3-2.6,0.8-3.7c-2.1,0.4-4.5-0.1-5.5-2s0.9-4.7,2.8-3.9c-0.9-0.9-1.5-2-1.9-3.1c-0.4-1.2,0-2.5,1-3.3
	c-1.9-0.2-3.5-1.6-3.9-3.4c-0.3-1.9,0.9-3.7,2.8-4c0,0,0.1,0,0.1,0c1.8-0.1,3.5,2.1,2.7,3.7c1.7,0.1,3.1-1.1,4.6-1.7
	c1.6-0.6,3.9,0,3.8,1.7c1.4-0.6,2.9-0.9,4.4-0.8c1.6,0.1,2.9,1.2,3.2,2.7c-0.4-1.7,0.2-3.4,1.7-4.4c1.4-0.9,3.1-1.4,4.8-1.4
	c2.8-0.2,5.7,0,8.5,0.6c2.7,0.5,5.2,1.7,7.2,3.7c1.8,2,2.5,5.3,1,7.6c2.5-2.3,6.4-2.1,8.7,0.4c0.1,0.1,0.2,0.2,0.2,0.3
	c2.8-1.7,6.5-0.8,8.2,2.1c0.1,0.1,0.2,0.3,0.2,0.4c1.1-0.1,1.2-1.7,1.4-2.8c0.4-2.4,2.7-3.9,5.1-3.5c1.3,0.2,2.4,1.1,3.1,2.2
	c2.3-0.8,4.8-0.3,6.6,1.3c-0.7-2,0-4.2,1.8-5.4c1.8-1,4.5,0.1,4.7,2.2c1.8-1,4.1-0.3,5.1,1.6c0.2,0.4,0.3,0.8,0.4,1.2
	c1.1-3,4.5-4.6,7.5-3.4c0.9,0.3,1.7,0.9,2.4,1.6c-1.3-1.9-0.8-4.6,0.7-6.4c1.6-1.7,3.6-2.9,5.9-3.4c0.6-0.2,1.3-0.3,2-0.3
	c1.5,0.3,2.5,1.6,2.5,3.1c-0.1,1.5-1,2.8-2.3,3.4c1,1.1,1.7,2.4,2,3.9c0.2,1.5-0.7,2.9-2.1,3.4c0.9,0.7,1.3,1.9,1,3
	c-0.3,1.1-0.9,2.1-1.6,2.9l-2.3,3.1c2,0.6,3.9,2.5,3.7,4.6s-3.1,3.6-4.6,2.1C126.2,158.4,126.2,160.2,126,161.9z"/>
<path id="Path_4485" class="st8" d="M130.5,141.4c-0.5,0.3-1.1,0.4-1.6,0.3c0.4,2.6-1.4,5.1-4,5.5c-0.4,0.1-0.9,0.1-1.3,0
	c2,2.8,2.1,6.5,0.2,9.4c-2,2.8-5.8,3.8-8.9,2.2c0.3,2.2-1.3,4.3-3.5,4.6c-1.2,0.2-2.3-0.2-3.2-1c-2,2.2-4.8,3.9-7.7,3.6
	s-5.6-3.3-4.8-6.1c-0.5,1.8-3.4,1.6-4.4,0s-0.6-3.6-0.2-5.5c-1,2.4-5.1,2.7-6.5,0.5c-0.8,2.9-5.2,3.9-7.1,1.6
	c-1.3,1.6-3.7,1.9-5.3,0.6c-0.3-0.3-0.6-0.6-0.9-1c-1.2,0.1-1.6,1.7-1.4,2.8s0.6,2.4,0.2,3.5c-0.3,0.7-0.9,1.3-1.6,1.7
	c-4.1,2.3-9.2,1.5-12.3-2.1c-2.4,1.8-5.7,1.4-7.6-1c-0.9-1.2-1.3-2.7-1-4.2c-2.4,1.4-5.5,0.8-7.1-1.5c-1.4-2.3-0.1-5.9,2.6-6.3
	c-2.7,1.1-5.7,0.3-7.5-2c-1.9-0.1-4-0.2-5.6-1.4s-2.4-3.6-1.1-5c-0.9,0.2-1.8,0.4-2.8,0.3c0,0,0,0,0,0c0,0-0.1,0-0.1,0
	c-0.3,0-0.6,0-0.8-0.1c-1.6,0.5-2.5,2.1-2,3.7c0,0.1,0.1,0.2,0.1,0.3c1,1.9,3.5,2.4,5.5,2c-0.6,1.2-0.8,2.4-0.8,3.7
	c0.1,1.3,1,2.4,2.4,2.6c-1.1,1.2-1,3.1,0.2,4.2c0.7,0.6,1.6,0.9,2.4,0.7c-1.5,1.4-1.5,3.8-0.6,5.7c1,1.8,2.4,3.3,4,4.5
	c-1.5,0.3-2.4,1.8-2.1,3.3c0.2,1,0.9,1.7,1.9,2c1.1,0.3,2.3,0,3.4,0.4c0.6,0.3,1.1,0.7,1.6,1.1c1.6,0.9,3.7,0.4,4.7-1.2
	c0,1.9,2.1,3.3,3.9,3.1c1.9-0.3,3.6-1.2,4.9-2.6c0.1,2.1,2.2,3.7,4.3,3.6c2.1-0.2,4-1.2,5.3-2.8c2.6,2.6,6.8,2.7,9.4,0.1
	c0.1-0.1,0.2-0.2,0.3-0.4c1.3,2.1,4,2.7,6,1.4c0.9-0.5,1.5-1.4,1.9-2.4c0.3,2,2.1,3.4,4.1,3.2c1.3-0.2,2.4-1,2.9-2.1
	c1.6,2.4,4.8,3,7.2,1.5c0.4-0.3,0.7-0.6,1-0.9c0.3-0.4,0.6-0.9,1.2-1c0.4,0.1,0.8,0.2,1.1,0.6c1.1,0.8,2.6,0.8,3.8,0.2
	c0.6-0.5,1.2-0.8,2-1.1c1.1-0.2,2,0.7,3,1.2c2,0.9,4.3,0.2,5.5-1.6c1.3,1.3,2.9,2.2,4.7,2.6c1.8,0.3,3.9-0.8,4.2-2.6
	c2.1,1.3,4.8,0.6,6.1-1.5c1.3-2.1,0.6-4.8-1.5-6.1c-0.1,0-0.1-0.1-0.2-0.1c0.9-1.5,0.5-3.5-0.9-4.6c0.1-1.7,0.1-3.5,0.1-5.2
	c1.5,1.5,4.4,0,4.6-2.1s-1.7-4-3.7-4.6l2.3-3.1c0.7-0.9,1.3-1.9,1.6-2.9C131.2,143,131,142.1,130.5,141.4z"/>
<path id="Path_4486" class="st9" d="M107.4,143.1c-0.7-0.1-1.3,0.1-1.8,0.5c-0.7,0.9,0.2,2.1,1.1,2.7s2,1.4,1.9,2.4
	c-0.2,1.1-1.6,1.5-2.8,1.5c-0.9,0-2-0.7-1.6-1.5c-0.9,1.3-2.6,1.7-3.9,0.8c-0.9-0.6-1.4-1.6-1.3-2.6c-1,1.1-2.8,1.2-3.9,0.2
	c-0.5-0.5-0.9-1.2-0.9-1.9c-1.3,1.9-3.9,2.4-5.9,1.1c-0.3-0.2-0.6-0.5-0.8-0.7c-0.6,1.2-1.9,1.8-3.1,1.5c-0.9-0.2-2-0.9-2.7-0.4
	c-0.5,0.6-0.6,1.4-0.1,2c0.9,1.3,2.7,1.5,4,0.6c0.1-0.1,0.3-0.2,0.4-0.4c0,1.2,0.9,2.2,2.1,2.3c1.2,0.1,2.3-0.4,3.1-1.3
	c0.5,1.8,2.4,3,4.2,2.5c0.2,0,0.4-0.1,0.6-0.2c-0.6,0.9-0.6,2.2,0,3.1c0.6,0.9,1.5,1.6,2.6,2c2.3,0.9,5.4,0.8,6.6-1.3
	c1.6,1.5,4,1.4,5.5-0.1c0.7-0.7,1.1-1.7,1.1-2.7c2,1.5,4.8,1,6.3-1c1.1-1.5,1.2-3.4,0.2-5c1.9-0.3,3.2-2.1,2.9-4
	c1.4-0.1,2.7-0.6,3.7-1.6c0.9-1,0.7-3-0.6-3.4c-0.5-0.1-1,0-1.4,0.2c-1.3,0.6-2.2,1.6-2.6,3c-1-1.3-2.9-1.5-4.2-0.5
	c-1.2,1-1.8,2.7-1.4,4.2c-0.5-2.7-3-4.5-5.7-4C107.9,141.3,106.8,142.3,107.4,143.1z"/>
<path id="Path_4487" class="st9" d="M66.2,146.8c2.3-0.4,4.6,1.1,5,3.4c0,0.2,0.1,0.4,0.1,0.7c-2.2-1.2-4.9-1-6.9,0.5
	c0.2-2.4-1.7-4.6-4.1-4.7c-1.2-0.1-2.3,0.3-3.2,1.1c0.3-4.5-3.1-8.4-7.6-8.8c-2.3-0.2-4.5,0.6-6.2,2.2c-0.9-3.2,0.7-6.5,3.7-7.9
	c3-1.2,6.5-0.6,8.9,1.6c2.4,2.2,3.7,5.3,3.7,8.5c2.1-1.2,4.8-0.5,6.1,1.6C65.9,145.5,66.1,146.2,66.2,146.8z"/>
<path id="Path_4488" class="st10" d="M18.8,127.3l34.5,1.3c0,0,40.1,15.7,40.8,16c0.5,0.2,31.7-9.9,44.6-13.6l2.4-13.6l-124.4-0.7
	L18.8,127.3z"/>
<path id="Path_4489" class="st0" d="M120.5,106.2H37.3L9,119.3v4.9h139.8v-4.9L120.5,106.2z"/>
<path id="Path_4490" class="st11" d="M9,119.3v4.9h139.8v-4.9l-0.4-0.2H9.3L9,119.3z"/>
<path id="Path_4491" class="st12" d="M37.6,116.2l6.1-3.4h20.9c0,0,3.6-4.4,12.5-4.4s10.9,4.3,10.9,4.3h23.7l4.4,3.6
	C116.1,116.2,37.6,115.7,37.6,116.2z"/>
<path id="Path_4492" class="st13" d="M81.8,112.9H69.9c-0.4,0-0.7-0.3-0.7-0.7l0,0c0-0.4,0.3-0.7,0.7-0.7h11.9
	c0.4,0,0.7,0.3,0.7,0.7l0,0C82.5,112.6,82.2,112.9,81.8,112.9z"/>
<path id="Path_4493" class="st10" d="M131.6,169.4l1.7-9.4c-1.6,3.2-3.1,6.7-5.6,9.1c-4.3,4.1-10.8,4.4-16.7,4.5
	c-9.9,0.2-19.8,0.3-29.7,0.3c-12.9,0.1-26,0-38.4-3.3c-5.2-1.4-10.5-3.4-14.3-7.3c-2.2-2.4-4.1-5.1-5.6-8l2.8,14.2c1,5.3,5.6,9,11,9
	h83.9C126,178.7,130.7,174.8,131.6,169.4z"/>
<path id="Path_4494" class="st14" d="M194.7,17.3h-46.1l-17.1,29.2l10.2,124.4h66.5l3.6-124.4L194.7,17.3z"/>
<path id="Path_4495" class="st6" d="M131.6,46.5H212l-1.9,58.1l-23.9-28.3L161,106.1h-24.7L131.6,46.5z"/>
<g id="Group_7731" transform="translate(-32.483 -37.259)">
	<g id="Group_7730">
		<path id="Path_4496" class="st6" d="M208.1,61.1c0.9-2.3,5.5-2.6,10.3-0.6s7.9,5.3,6.9,7.6c-0.3,0.8-1.5,3.6-1.8,4.5
			c-0.9,2.3-5.5,2.6-10.3,0.6s-7.9-5.3-6.9-7.6C206.6,64.7,207.7,61.9,208.1,61.1z"/>
		<path id="Path_4497" class="st15" d="M215.1,68.6c4.7,1.9,9.3,1.6,10.2-0.6c0,0,0,0,0,0.1c-0.3,0.8-1.5,3.6-1.8,4.5
			c-0.9,2.3-5.5,2.6-10.3,0.6s-7.9-5.3-6.9-7.6c0.3-0.8,1.5-3.6,1.8-4.5c0,0,0,0,0,0C207.3,63.3,210.4,66.7,215.1,68.6z"/>
		<path id="Path_4498" class="st15" d="M217.6,62c-3.6-1.5-7.1-1.5-8.2-0.3c0-0.2,0-0.3,0.1-0.5c0.7-1.7,4.5-1.8,8.5-0.2
			s6.7,4.3,6,6c-0.1,0.2-0.2,0.3-0.3,0.4C223.7,65.8,221.2,63.5,217.6,62z"/>
	</g>
</g>
<path id="Path_4499" class="st16" d="M195.8,23.2l0.5-4.9H149l0.7,4.9H195.8z"/>
<path id="Path_4500" class="st17" d="M148.6,17.3l-17.1,29.2l10.2,124.4h20.1l-1-124.4L148.6,17.3z"/>
<path id="Path_4501" class="st18" d="M160.8,46.5l-12.5-8l-16.8,8l17.1-29.2L160.8,46.5z"/>
<path id="Path_4502" class="st18" d="M148.6,17.3l-0.3,21.2l12.5,8L148.6,17.3z"/>
<g id="Group_7742" transform="translate(-32.483 -37.259)">
	<path id="Path_4503" class="st19" d="M219.9,225.5c0,0-4-6.8-12.2-6.8s-9.7,6.6-9.7,6.6l-9.7-0.1c0,0-5.9-2.5-9.7-2.1s-4.2,2-4.2,2
		l-4.2-4.6l18-9.8l22.8-1l10.8,8.2L219.9,225.5z"/>
	<path id="Path_4504" class="st19" d="M228.2,162.6l-32.3-6.8l-68.3,24.4l5.3,23.2c0.7-0.4,1.6-0.6,2.4-0.6c2.9,0,5.2,2.3,5.2,5.2
		c0,2.9-2.3,5.2-5.2,5.2c-0.1,0-0.1,0-0.2,0l2.7,11.6l36.6,0.4c0.6-3.8,4.1-6.5,7.9-5.9c3.1,0.5,5.5,2.9,5.9,6.1l9.7,0.1
		c-0.2-0.7-0.3-1.3-0.3-2c0-5.3,5.1-9.6,11.3-9.6s11.3,4.3,11.3,9.6c0,0.8-0.1,1.5-0.4,2.2l14.7,0.2
		C234.6,225.7,249,185,228.2,162.6z"/>
	<path id="Path_4505" class="st19" d="M195.6,155.8l-68.3,24.4l0.7,3c19.3-3.8,39-4.6,58.5-2.4c13.8,1.6,28.9,5.6,36.6,17.1
		c5.4,8.1,5.9,18.2,3.3,27.6l7.9,0.1c0,0,14.4-40.7-6.4-63.1L195.6,155.8z"/>
	<path id="Path_4506" class="st19" d="M234.6,225.7c0,0,14.4-40.7-6.4-63.1l-32.3-6.8l-68.3,24.4l0.5,3.5l97.2-17.7
		c0,0,18.9,13.1,6.3,59.8L234.6,225.7z"/>
	<path id="Path_4507" class="st19" d="M227.9,162.6l-32.3-6.8l-68.3,24.4l100.8-17.3C228,162.7,228,162.7,227.9,162.6z"/>
	<g id="Group_7732">
		<path id="Path_4508" class="st19" d="M217.8,190.1c0.3,3.5,2.8,6.2,5.6,5.9s4.7-3.3,4.4-6.8s-2.8-6.2-5.6-5.9
			S217.5,186.6,217.8,190.1z"/>
		<path id="Path_4509" class="st19" d="M217.9,188.6c0.7-1.4,2-2.4,3.6-2.7c2.8-0.3,5.3,2.4,5.6,5.9c0,0.6,0,1.1,0,1.7
			c0.7-1.3,0.9-2.7,0.8-4.2c-0.3-3.5-2.8-6.2-5.6-5.9C220,183.6,218.3,185.8,217.9,188.6z"/>
	</g>
	<g id="Group_7733">
		<path id="Path_4510" class="st19" d="M177.2,200c0.5,5.5,4.5,9.7,8.8,9.3s7.5-5.2,7-10.8s-4.5-9.7-8.8-9.3S176.7,194.4,177.2,200z
			"/>
		<path id="Path_4511" class="st19" d="M177.4,197.5c1.1-2.3,3.2-3.9,5.7-4.2c4.4-0.4,8.3,3.8,8.8,9.3c0.1,0.9,0.1,1.8-0.1,2.6
			c1.1-2,1.5-4.3,1.3-6.6c-0.5-5.5-4.5-9.7-8.8-9.3C180.7,189.7,177.9,193.2,177.4,197.5z"/>
	</g>
	<g id="Group_7734">
		<path id="Path_4512" class="st19" d="M138.6,189.5c0.2,2.7,2.2,4.7,4.3,4.5s3.6-2.5,3.4-5.2s-2.2-4.7-4.3-4.5
			S138.4,186.8,138.6,189.5z"/>
		<path id="Path_4513" class="st19" d="M138.7,188.3c0.5-1.1,1.5-1.9,2.7-2c2.1-0.2,4,1.8,4.3,4.5c0,0.4,0,0.9,0,1.3
			c0.5-1,0.7-2.1,0.6-3.2c-0.2-2.7-2.2-4.7-4.3-4.5C140.3,184.6,139,186.2,138.7,188.3z"/>
	</g>
	<g id="Group_7735">
		<path id="Path_4514" class="st19" d="M221.9,212.5c0.2,2.7,2.2,4.7,4.3,4.5s3.6-2.5,3.4-5.2s-2.2-4.7-4.3-4.5
			S221.7,209.9,221.9,212.5z"/>
		<path id="Path_4515" class="st19" d="M222.1,211.3c0.5-1.1,1.5-1.9,2.8-2c2.1-0.2,4,1.8,4.3,4.5c0,0.4,0,0.9,0,1.3
			c0.5-1,0.7-2.1,0.6-3.2c-0.2-2.7-2.2-4.7-4.3-4.5C223.6,207.6,222.3,209.2,222.1,211.3z"/>
	</g>
	<g id="Group_7736">
		<path id="Path_4516" class="st19" d="M147.2,201.8c0.3,3.6,2.9,6.3,5.7,6.1s4.9-3.4,4.5-7s-2.9-6.3-5.7-6.1
			S146.9,198.2,147.2,201.8z"/>
		<path id="Path_4517" class="st19" d="M147.4,200.2c0.7-1.5,2.1-2.5,3.7-2.7c2.8-0.3,5.4,2.5,5.7,6.1c0,0.6,0,1.2,0,1.7
			c0.7-1.3,1-2.8,0.8-4.3c-0.3-3.6-2.9-6.3-5.7-6.1C149.5,195.1,147.7,197.4,147.4,200.2z"/>
	</g>
	<g id="Group_7737">
		<path id="Path_4518" class="st19" d="M153.8,212.4c0.3,0.8,1.1,1.2,1.9,0.9s1.2-1.1,0.9-1.9c-0.2-0.6-0.9-1-1.5-1
			C154.2,210.7,153.6,211.6,153.8,212.4z"/>
		<path id="Path_4519" class="st19" d="M153.8,212c0.2-0.4,0.6-0.7,1-0.8c0.9,0,1.6,0.8,1.6,1.7c0,0.2,0,0.3,0,0.5
			c0.2-0.4,0.3-0.8,0.2-1.2c0-0.9-0.7-1.6-1.6-1.7C154.4,210.7,153.8,211.3,153.8,212z"/>
	</g>
	<g id="Group_7738">
		<path id="Path_4520" class="st19" d="M191.4,218.6c0.3,0.8,1.1,1.2,1.9,0.9c0.8-0.3,1.2-1.1,0.9-1.9c-0.2-0.6-0.9-1-1.5-1
			C191.8,216.9,191.2,217.7,191.4,218.6z"/>
		<path id="Path_4521" class="st19" d="M191.5,218.2c0.2-0.4,0.6-0.7,1-0.8c0.9,0,1.6,0.8,1.6,1.7c0,0.2,0,0.3,0,0.5
			c0.2-0.4,0.3-0.8,0.2-1.2c0-0.9-0.7-1.6-1.6-1.7C192,216.9,191.5,217.5,191.5,218.2z"/>
	</g>
	<g id="Group_7739">
		<path id="Path_4522" class="st19" d="M139.2,219.5c0.2,1.7,1.3,2.9,2.6,2.8s2.2-1.6,2.1-3.2s-1.3-2.9-2.6-2.8
			S139.1,217.9,139.2,219.5z"/>
		<path id="Path_4523" class="st19" d="M139.3,218.8c0.3-0.7,1-1.2,1.7-1.3c1.3-0.1,2.5,1.1,2.6,2.8c0,0.3,0,0.5,0,0.8
			c0.3-0.6,0.4-1.3,0.4-2c-0.2-1.7-1.3-2.9-2.6-2.8C140.2,216.6,139.3,217.6,139.3,218.8z"/>
	</g>
	<g id="Group_7740">
		<path id="Path_4524" class="st19" d="M170.3,190.1c0.2,2.2,1.8,3.9,3.5,3.7s3-2.1,2.8-4.3s-1.8-3.9-3.5-3.8
			S170.1,187.9,170.3,190.1z"/>
		<path id="Path_4525" class="st19" d="M170.4,189.1c0.4-0.9,1.3-1.6,2.3-1.7c1.8-0.2,3.3,1.5,3.5,3.8c0,0.4,0,0.7,0,1.1
			c0.4-0.8,0.6-1.7,0.5-2.6c-0.2-2.2-1.8-3.9-3.5-3.7C171.5,186.2,170.4,187.5,170.4,189.1z"/>
	</g>
	<g id="Group_7741">
		<path id="Path_4526" class="st19" d="M214.2,207c0.2,2.2,1.8,3.9,3.5,3.8s3-2.1,2.8-4.3s-1.8-3.9-3.5-3.7S214,204.8,214.2,207z"/>
		<path id="Path_4527" class="st19" d="M214.3,206c0.4-0.9,1.3-1.6,2.3-1.7c1.8-0.2,3.3,1.5,3.5,3.7c0,0.4,0,0.7,0,1.1
			c0.4-0.8,0.6-1.7,0.5-2.6c-0.2-2.2-1.8-3.9-3.5-3.8C215.5,203.1,214.3,204.4,214.3,206z"/>
	</g>
	<path id="Path_4528" class="st19" d="M207.3,181.4c0.2,1.7,1.7,2.9,3.4,2.7c1.7-0.2,2.9-1.7,2.7-3.4c-0.2-1.7-1.7-2.9-3.3-2.7
		C208.4,178.2,207.2,179.7,207.3,181.4C207.3,181.4,207.3,181.4,207.3,181.4z"/>
	<path id="Path_4529" class="st19" d="M190.1,180c0.1,1.2,1.2,2.1,2.4,2c1.2-0.1,2.1-1.2,2-2.4c-0.1-1.2-1.2-2.1-2.4-2
		C190.8,177.7,190,178.7,190.1,180C190.1,180,190.1,180,190.1,180z"/>
	<path id="Path_4530" class="st19" d="M175.7,209.1c0.1,1.2,1.2,2.1,2.4,2c1.2-0.1,2.1-1.2,2-2.4c-0.1-1.2-1.2-2.1-2.4-2
		C176.5,206.8,175.6,207.9,175.7,209.1z"/>
</g>
</svg>
