<svg id="Component_22_1" data-name="Component 22 – 1" xmlns="http://www.w3.org/2000/svg" xmlns:xlink="http://www.w3.org/1999/xlink" width="247.279" height="196.715" viewBox="0 0 247.279 196.715">
  <defs>
    <clipPath id="clip-path">
      <path id="Path_2052" data-name="Path 2052" d="M1116.509,961.848c0,7.09-55.191,20.938-123.273,20.938s-123.274-13.848-123.274-20.938Z" fill="#f7f7f7"/>
    </clipPath>
    <clipPath id="clip-path-2">
      <path id="Path_2068" data-name="Path 2068" d="M1010.238,799.561c-1.918-6.645-7.407-11.95-13.737-13.2A17.475,17.475,0,0,0,978.98,794c-.846,1.268-1.668,2.748-3.051,3.193a5.2,5.2,0,0,1-2.923-.214c-8.713-2.359-15.94-4.379-24.575-.155-8.869,4.374-10.8,14.9-19.434,19.016-4.06,1.937-8.716,2.324-12.506,4.824a14.967,14.967,0,0,0-6.449,12.128,14.005,14.005,0,0,0,6.43,12.006c6.746,3.976,14.808,3.647,21.525,7.351,10.126,5.584,28.07,27.12,37.877,8.039,5.109-9.939,4.275-5.709,8.129-12.853,5.4-10,18.522-15.067,23.334-26.212,2.821-6.531,4.818-13.958,3.072-20.918C1010.357,799.986,1010.3,799.772,1010.238,799.561Z" fill="none"/>
    </clipPath>
    <clipPath id="clip-path-3">
      <rect id="Rectangle_3122" data-name="Rectangle 3122" width="1.977" height="0.363" transform="translate(969.628 868.101)" fill="none"/>
    </clipPath>
    <clipPath id="clip-path-4">
      <rect id="Rectangle_3123" data-name="Rectangle 3123" width="5.872" height="26.171" transform="translate(971.605 841.93)" fill="none"/>
    </clipPath>
    <clipPath id="clip-path-5">
      <rect id="Rectangle_3124" data-name="Rectangle 3124" width="7.539" height="35.458" transform="translate(1060.667 928.572)" fill="none"/>
    </clipPath>
    <clipPath id="clip-path-6">
      <path id="Path_2073" data-name="Path 2073" d="M1067.94,962.062l6.356,3.843,22.571-33.561-6.357-3.843Z" fill="none"/>
    </clipPath>
    <clipPath id="clip-path-7">
      <path id="Path_2082" data-name="Path 2082" d="M894.9,959.785c-.047.128-.1.27-.144.416-.031.1-.061.19-.089.283a2.215,2.215,0,0,0-.144.948c.138.437,6.91,4.017,6.91,4.017l7.445,4.044c1.066.612,4.912,2.638,6.657,3.555a1.09,1.09,0,0,0,1.406-.343l.209-.31c.758-1.133,1.859-2.8,2.185-3.368a10.87,10.87,0,0,0,.743-3.005s2.307-.609,1.617-1.653-1.358-.914-1.358-.914-3.1-.1-4.218-.887a4.422,4.422,0,0,1-1.487-3.713c.139-1.089-1.821-1.307-2.426-.56a1.291,1.291,0,0,1-.943.457c-.423.053-.964.047-1.691.147-.118.017-.24.037-.366.059-.177.031-.363.07-.562.118a8.5,8.5,0,0,1-1.124.183c-.083.009-.168.015-.253.02-.432.035-.883.051-1.341.053-1.6.005-3.251-.141-4.294-.148-1.331-.009-4.642.048-5.97.072a.843.843,0,0,0-.53.2.78.78,0,0,0-.232.332" fill="#144998"/>
    </clipPath>
    <clipPath id="clip-path-8">
      <path id="Path_2092" data-name="Path 2092" d="M923.01,969.865c.034.131.072.276.117.423.028.1.055.191.086.284a2.263,2.263,0,0,0,.419.87c.364.3,8.1-.158,8.1-.158l8.571-.411c1.244-.03,5.636-.3,7.626-.418a1.026,1.026,0,0,0,.988-1.009c0-.114,0-.238,0-.369-.008-1.341-.031-3.309-.08-3.952a10.976,10.976,0,0,0-1.088-2.91s1.594-1.693.418-2.219-1.663-.073-1.663-.073-2.661,1.508-4.054,1.415a4.786,4.786,0,0,1-3.368-2.363c-.5-.988-2.277-.167-2.361.77a1.185,1.185,0,0,1-.532.868c-.327.262-.785.534-1.34.992-.089.073-.181.152-.274.236-.131.116-.265.245-.406.387a8.019,8.019,0,0,1-.842.729c-.064.05-.132.1-.2.148-.343.25-.714.494-1.1.73-1.342.822-2.817,1.547-3.7,2.075-1.126.674-3.88,2.419-4.982,3.119a.779.779,0,0,0-.335.437.749.749,0,0,0-.006.4" fill="#144998"/>
    </clipPath>
    <clipPath id="clip-path-9">
      <path id="Path_2101" data-name="Path 2101" d="M1006.239,948.863c-2.658-1.2-4.6-3.433-6.751-5.346-4.1-3.652-9.119-6.236-13.431-9.66-2.859-2.269-5.416-4.912-8.558-6.81A22.057,22.057,0,0,0,968.334,924a2.688,2.688,0,0,0-1.122.052,2.636,2.636,0,0,0-1.043.783,31.1,31.1,0,0,0-3.694,4.814c-5.467,8.8-13.232,16.2-19.665,24.376a1.053,1.053,0,0,0-.076,1.478l1.308,2.43c.733,1.362,1.906,2.946,3.484,2.675a3.852,3.852,0,0,0,1.828-1.108l5.875-5.323,6.159-5.582c3.609-3.271,7.279-6.617,9.633-10.8,1.838,3.023,5.1,5,7.338,7.769.851,1.052,1.547,2.21,2.306,3.325,1.219,1.786,2.605,3.463,3.988,5.136l7.065,8.548a13.4,13.4,0,0,0,3.271,3.147,13.106,13.106,0,0,0,5.679,1.436,79.36,79.36,0,0,0,7.984.274,14.534,14.534,0,0,0,5.949-1.015c1.822-.854,3.32-2.61,3.224-4.545a6.446,6.446,0,0,0-1.018-2.832c-2.524-4.391-5.821-8.037-10.568-10.178" fill="none"/>
    </clipPath>
    <clipPath id="clip-path-10">
      <path id="Path_2123" data-name="Path 2123" d="M1088.423,874.016c5.3-2.912,8.625-8.339,8.262-13.567-.374-5.394-4.66-10.3-10.578-12.116-1.285-.394-2.75-.724-3.45-1.714a3.885,3.885,0,0,1-.48-2.336c.053-7.33.149-13.425-5.461-19.3-5.794-6.025-15.312-5.3-20.834-11.2-2.6-2.772-3.99-6.341-7.011-8.78a14.3,14.3,0,0,0-11.934-2.483c-4.2,1-7.79,4-8.9,7.585-1.893,6.13.224,12.38-1.442,18.432-2.514,9.121-17.014,27.752,1.686,31.4,9.74,1.9,30.162,14.969,40.874,16.38,6.28.826,13.143.815,18.751-2.027C1088.081,874.2,1088.253,874.108,1088.423,874.016Z" fill="none"/>
    </clipPath>
  </defs>
  <g id="Group_5508" data-name="Group 5508" transform="translate(-869.962 -786.071)">
    <g id="Group_5507" data-name="Group 5507">
      <path id="Path_2049" data-name="Path 2049" d="M1116.509,961.848c0,7.09-55.191,20.938-123.273,20.938s-123.274-13.848-123.274-20.938Z" fill="#f7f7f7"/>
      <g id="Group_5506" data-name="Group 5506" clip-path="url(#clip-path)">
        <g id="Group_5504" data-name="Group 5504">
          <path id="Path_2050" data-name="Path 2050" d="M1116.509,972.2l-246.547.107V961.848h246.547Z" fill="#f7f7f7"/>
        </g>
        <g id="Group_5505" data-name="Group 5505">
          <path id="Path_2051" data-name="Path 2051" d="M869.962,972.309l246.547-.107v10.585H869.962Z" fill="#f7f7f7"/>
        </g>
      </g>
    </g>
  </g>
  <g id="Group_5510" data-name="Group 5510" transform="translate(-869.962 -786.071)">
    <g id="Group_5509" data-name="Group 5509">
      <path id="Path_2053" data-name="Path 2053" d="M912.024,870.911c-5.713,5.828-10.6,13.364-9.031,21.463,1.86,9.618,14.831,13.256,25.006,11.653,15.695-2.475,28.542-23.423,45.741-20.058,17.675,3.461,4.983,25.779,2.613,35.794-5.186,21.923,17.51,25.017,35.028,22.863,8.327-1.023,18.385-2.515,25.947-6.225,10.963-5.385,7.891-19.347,16.266-26.011,8.279-6.588,26.269-4.818,35.656-9.9s18.181-13.652,17.7-23.889c-.566-12.043-12.76-20.112-24.43-21.721-15.175-2.091-28.478,10.689-43.065,1.722-6.443-3.96-11.67-10.392-16.153-16.214-4.181-5.43-9.165-10.308-16.42-11.53-9.752-1.644-21.034,2.329-29.792,6.157-21.716,9.493-45.644,17.758-63.054,33.935C913.362,869.581,912.687,870.234,912.024,870.911Z" fill="#f7f7f7"/>
    </g>
  </g>
  <g id="Group_5512" data-name="Group 5512" transform="translate(-869.962 -786.071)">
    <g id="Group_5511" data-name="Group 5511">
      <path id="Path_2054" data-name="Path 2054" d="M1010.238,799.561c-1.918-6.645-7.407-11.95-13.737-13.2A17.475,17.475,0,0,0,978.98,794c-.846,1.268-1.668,2.748-3.051,3.193a5.2,5.2,0,0,1-2.923-.214c-8.713-2.359-15.94-4.379-24.575-.155-8.869,4.374-10.8,14.9-19.434,19.016-4.06,1.937-8.716,2.324-12.506,4.824a14.967,14.967,0,0,0-6.449,12.128,14.005,14.005,0,0,0,6.43,12.006c6.746,3.976,14.808,3.647,21.525,7.351,10.126,5.584,28.07,27.12,37.877,8.039,5.109-9.939,4.275-5.709,8.129-12.853,5.4-10,18.522-15.067,23.334-26.212,2.821-6.531,4.818-13.958,3.072-20.918C1010.357,799.986,1010.3,799.772,1010.238,799.561Z" fill="#fceda7"/>
    </g>
  </g>
  <g id="Group_5514" data-name="Group 5514" transform="translate(-869.962 -786.071)">
    <g id="Group_5513" data-name="Group 5513">
      <path id="Path_2055" data-name="Path 2055" d="M1088.423,874.016c5.3-2.912,8.625-8.339,8.262-13.567-.374-5.394-4.66-10.3-10.578-12.116-1.285-.394-2.75-.724-3.45-1.714a3.885,3.885,0,0,1-.48-2.336c.053-7.33.149-13.425-5.461-19.3-5.794-6.025-15.312-5.3-20.834-11.2-2.6-2.772-3.99-6.341-7.011-8.78a14.3,14.3,0,0,0-11.934-2.483c-4.2,1-7.79,4-8.9,7.585-1.893,6.13.224,12.38-1.442,18.432-2.514,9.121-17.014,27.752,1.686,31.4,9.74,1.9,5.9,2.139,12.941,3.646,9.858,2.109,17.221,11.323,27.933,12.734,6.28.826,13.143.815,18.751-2.027C1088.081,874.2,1088.253,874.108,1088.423,874.016Z" fill="#fceda7"/>
    </g>
  </g>
  <g id="Group_5548" data-name="Group 5548" transform="translate(-869.962 -786.071)">
    <g id="Group_5547" data-name="Group 5547" clip-path="url(#clip-path-2)">
      <g id="Group_5546" data-name="Group 5546">
        <g id="Group_5516" data-name="Group 5516">
          <g id="Group_5515" data-name="Group 5515">
            <path id="Path_2056" data-name="Path 2056" d="M974.363,815.86c-2.995-4.8-8.92-5.02-8.92-5.02s-5.775-.7-9.479,6.6c-3.452,6.811-8.217,13.385-.766,14.981l1.345-3.971.833,4.266a30.553,30.553,0,0,0,3.189.051c7.977-.244,15.575.072,15.331-2.642-.325-3.608,1.348-9.653-1.533-14.27" fill="#144998"/>
          </g>
        </g>
        <g id="Group_5518" data-name="Group 5518">
          <g id="Group_5517" data-name="Group 5517">
            <path id="Path_2057" data-name="Path 2057" d="M975.853,866.981c.2-.06.392-.125.585-.194l-.044-.058-.541-.029-3.5-.178h0l-.588-.028-2.787-.143-6.07-.314-3.252-.165-.164-.01h-.041l-2.289-.118-.747-.037-.709,2.466a38.5,38.5,0,0,0,4.337.612,1.716,1.716,0,0,0,.175.017c1.079.089,2.176.134,3.279.134a39.658,39.658,0,0,0,6.139-.473q1-.148,1.978-.353c.118-.023.235-.049.349-.074l.054-.009.023-.006h0q1.311-.288,2.588-.66Z" fill="#2f2e41"/>
          </g>
        </g>
        <g id="Group_5520" data-name="Group 5520">
          <g id="Group_5519" data-name="Group 5519">
            <path id="Path_2058" data-name="Path 2058" d="M960.459,826.279s1.351,8.448-1.35,9.473,5.4,5.376,5.4,5.376H969.1l2.971-5.889s-2.7-4.608-1.081-8.96-10.532,0-10.532,0" fill="#af7c57"/>
          </g>
        </g>
        <g id="Group_5522" data-name="Group 5522">
          <g id="Group_5521" data-name="Group 5521">
            <path id="Path_2059" data-name="Path 2059" d="M957.211,822.66c.694-.251,1.573.425,1.965,1.509s.149,2.166-.544,2.417-1.574-.425-1.966-1.509-.146-2.167.545-2.417" fill="#af7c57"/>
          </g>
        </g>
        <g id="Group_5524" data-name="Group 5524">
          <g id="Group_5523" data-name="Group 5523">
            <path id="Path_2060" data-name="Path 2060" d="M974.375,822.935c-.693-.251-1.573.424-1.966,1.508s-.148,2.166.545,2.418,1.574-.425,1.966-1.509.147-2.167-.545-2.417" fill="#af7c57"/>
          </g>
        </g>
        <g id="Group_5526" data-name="Group 5526">
          <g id="Group_5525" data-name="Group 5525">
            <path id="Path_2061" data-name="Path 2061" d="M971.266,833.447c-.417.307-.827,2.381-1.5,3.315-2.734,3.791-7.268.876-7.687.268a11.219,11.219,0,0,1-1.527-3.579v0c-.355-.134-13.791,1.482-14.945,9.216-.287,1.919,2.47,12.275,5.1,22.045h0a11.387,11.387,0,0,1-.608,1.923c.41.149.828.29,1.244.424.574.182,1.154.342,1.736.5,1.043.28,2.1.514,3.162.71,1.255.23,2.522.413,3.8.522h0a1.481,1.481,0,0,0,.174.017,1.254,1.254,0,0,0-.033-.128h0c.232-.189.461-.379.69-.576h0c2.34.4,5.286.608,7.155-.345a6.955,6.955,0,0,1,1.184-.468,10.632,10.632,0,0,0,.423,1.18q1-.15,1.978-.354c.118-.023.235-.049.349-.073l.054-.01.023-.006h0q1.311-.288,2.589-.66l1.228-.38c.2-.06.392-.125.585-.194q1.811-.618,3.544-1.412l0,.01a.015.015,0,0,1,0-.013c2.017-10.1,6.435-22.841,5.181-25.91C983.269,834.809,971.266,833.447,971.266,833.447Z" fill="#76bc21"/>
          </g>
        </g>
        <g id="Group_5529" data-name="Group 5529">
          <g id="Group_5528" data-name="Group 5528">
            <g id="Group_5527" data-name="Group 5527">
              <path id="Path_2062" data-name="Path 2062" d="M953.843,845.1l6.076,22.527s-2.836-19.711-6.076-22.527" fill="#6ba020"/>
            </g>
          </g>
        </g>
        <g id="Group_5534" data-name="Group 5534" opacity="0.2" style="isolation: isolate">
          <g id="Group_5533" data-name="Group 5533">
            <g id="Group_5532" data-name="Group 5532" clip-path="url(#clip-path-3)">
              <g id="Group_5531" data-name="Group 5531">
                <g id="Group_5530" data-name="Group 5530">
                  <path id="Path_2063" data-name="Path 2063" d="M969.628,868.464l1.978-.364v.009c-.654.138-1.312.256-1.978.355"/>
                </g>
              </g>
            </g>
          </g>
        </g>
        <g id="Group_5539" data-name="Group 5539" style="isolation: isolate">
          <g id="Group_5538" data-name="Group 5538">
            <g id="Group_5537" data-name="Group 5537" clip-path="url(#clip-path-4)">
              <g id="Group_5536" data-name="Group 5536">
                <g id="Group_5535" data-name="Group 5535">
                  <path id="Path_2064" data-name="Path 2064" d="M977.477,841.93l-1.624,7.787-.559,2.676-2.945,14.129h0l-.091.453h0l-.215,1.046h0l-.023.005-.054.011-.349.064c.03-.357.067-.74.106-1.146.015-.149.028-.3.045-.461.632-6.513,1.981-17.762,4.1-22.473a3.858,3.858,0,0,1,1.624-2.091" fill="#6ba020"/>
                </g>
              </g>
            </g>
          </g>
        </g>
        <g id="Group_5541" data-name="Group 5541">
          <g id="Group_5540" data-name="Group 5540">
            <path id="Path_2065" data-name="Path 2065" d="M965.559,835.113c1.99,0,5.272-2.911,5.272-2.911l-.274-1.208-6.489,1.035-3.342-1.035v1.1S963.569,835.113,965.559,835.113Z" fill="#975f35"/>
          </g>
        </g>
        <g id="Group_5543" data-name="Group 5543">
          <g id="Group_5542" data-name="Group 5542">
            <path id="Path_2066" data-name="Path 2066" d="M965.861,815.526a7.636,7.636,0,0,1,7.831,7.424c0,4.1-3.917,11.339-8.243,11.339s-7.42-7.238-7.42-11.339a7.636,7.636,0,0,1,7.832-7.424" fill="#af7c57"/>
          </g>
        </g>
        <g id="Group_5545" data-name="Group 5545">
          <g id="Group_5544" data-name="Group 5544">
            <path id="Path_2067" data-name="Path 2067" d="M973.038,815.4l-5.854-2.906-8.084,1.189-1.673,7,4.164-.152,1.163-2.572v2.53l1.921-.071,1.114-4.1.7,4.361,6.83-.133Z" fill="#144998"/>
          </g>
        </g>
      </g>
    </g>
  </g>
  <g id="Group_5567" data-name="Group 5567" transform="translate(-869.962 -786.071)">
    <g id="Group_5550" data-name="Group 5550">
      <g id="Group_5549" data-name="Group 5549">
        <path id="Path_2069" data-name="Path 2069" d="M1083.276,935.742c-14.519,10.288-18.613,28.363-18.613,28.363s19.446,1.4,33.965-8.893,18.613-28.363,18.613-28.363-19.446-1.394-33.965,8.893" fill="#d8e081"/>
      </g>
    </g>
    <g id="Group_5552" data-name="Group 5552">
      <g id="Group_5551" data-name="Group 5551">
        <path id="Path_2070" data-name="Path 2070" d="M1064.675,963.932s-.214-.113-.6-.337c-.306-.181-.729-.431-1.24-.749-4.562-2.85-16.381-11.233-21.228-24.166-6.065-16.194,1.1-33.389,1.1-33.389s15.623,8.326,22.259,23.281c.289.644.557,1.3.81,1.972,5.276,14.089.54,28.936-.779,32.556-.2.542-.318.832-.318.832" fill="#00abc4"/>
      </g>
    </g>
    <g id="Group_5557" data-name="Group 5557" opacity="0.1" style="isolation: isolate">
      <g id="Group_5556" data-name="Group 5556">
        <g id="Group_5555" data-name="Group 5555" clip-path="url(#clip-path-5)">
          <g id="Group_5554" data-name="Group 5554">
            <g id="Group_5553" data-name="Group 5553">
              <path id="Path_2071" data-name="Path 2071" d="M1064.993,963.1c-.355.2-.664.36-.918.494-.559.291-.87.435-.87.435s-.147-.418-.369-1.184c-1.229-4.191-4.749-18.8,1.142-32.21q.463-1.055.984-2.063c.289.644.557,1.3.81,1.971,5.277,14.09.54,28.937-.779,32.557"/>
            </g>
          </g>
        </g>
      </g>
    </g>
    <g id="Group_5562" data-name="Group 5562" opacity="0.1" style="isolation: isolate">
      <g id="Group_5561" data-name="Group 5561">
        <g id="Group_5560" data-name="Group 5560" clip-path="url(#clip-path-6)">
          <g id="Group_5559" data-name="Group 5559">
            <g id="Group_5558" data-name="Group 5558">
              <path id="Path_2072" data-name="Path 2072" d="M1072.18,963.386c-.424.005-.788,0-1.089,0-.656-.011-1.012-.032-1.012-.032s.144-.471.444-1.309c1.631-4.593,7.961-20.21,21.466-29.905q1.063-.761,2.143-1.451c-.166.757-.359,1.516-.572,2.279-4.519,16.024-17.965,27.664-21.38,30.417"/>
            </g>
          </g>
        </g>
      </g>
    </g>
    <g id="Group_5564" data-name="Group 5564">
      <g id="Group_5563" data-name="Group 5563">
        <path id="Path_2074" data-name="Path 2074" d="M1089.336,940.557c-6.963,15.865-24.444,24.058-24.444,24.058s-6.193-17.53.769-33.4,24.446-24.058,24.446-24.058,6.193,17.53-.771,33.4" fill="#00abc4"/>
      </g>
    </g>
    <g id="Group_5566" data-name="Group 5566" opacity="0.1">
      <g id="Group_5565" data-name="Group 5565">
        <path id="Path_2075" data-name="Path 2075" d="M1064.841,964.068l24.911-56.295.44.176-24.91,56.295Z"/>
      </g>
    </g>
  </g>
  <g id="Group_5569" data-name="Group 5569" transform="translate(-869.962 -786.071)">
    <g id="Group_5568" data-name="Group 5568">
      <path id="Path_2076" data-name="Path 2076" d="M1017.892,956.985a26.845,26.845,0,1,1,53.684,0c0,15.058-12.017,10.679-26.842,10.679s-26.842,4.379-26.842-10.679" fill="#e0ecb6"/>
    </g>
  </g>
  <g id="Group_5571" data-name="Group 5571" transform="translate(-869.962 -786.071)">
    <g id="Group_5570" data-name="Group 5570">
      <path id="Path_2077" data-name="Path 2077" d="M1016.583,876.417c6.489,0,11.749,4.986,11.749,11.139s-5.26,11.137-11.749,11.137-11.75-4.986-11.75-11.137,5.261-11.139,11.75-11.139" fill="#144998"/>
    </g>
  </g>
  <g id="Group_5573" data-name="Group 5573" transform="translate(-869.962 -786.071)">
    <g id="Group_5572" data-name="Group 5572">
      <path id="Path_2078" data-name="Path 2078" d="M972.99,912.5l2.388.455,8.116,11.377-3.58.455Z" fill="#2f2e41"/>
    </g>
  </g>
  <g id="Group_5575" data-name="Group 5575" transform="translate(-869.962 -786.071)">
    <g id="Group_5574" data-name="Group 5574">
      <path id="Path_2079" data-name="Path 2079" d="M913.856,959.943c.643,2.008,2.829,2.684,3.764,4.586a60.4,60.4,0,0,0,7.92-2.138,21.023,21.023,0,0,0-1.645-2.121,7.827,7.827,0,0,0-2.238-1.632,6.485,6.485,0,0,0-2.721-.037q-1.842.087-3.688.055" fill="#ffcc8b"/>
    </g>
  </g>
  <g id="Group_5588" data-name="Group 5588" transform="translate(-869.962 -786.071)">
    <g id="Group_5579" data-name="Group 5579">
      <path id="Path_2080" data-name="Path 2080" d="M894.9,959.785c-.047.128-.1.27-.144.416-.031.1-.061.19-.089.283a2.215,2.215,0,0,0-.144.948c.138.437,6.91,4.017,6.91,4.017l7.445,4.044c1.066.612,4.912,2.638,6.657,3.555a1.09,1.09,0,0,0,1.406-.343l.209-.31c.758-1.133,1.859-2.8,2.185-3.368a10.87,10.87,0,0,0,.743-3.005s2.307-.609,1.617-1.653-1.358-.914-1.358-.914-3.1-.1-4.218-.887a4.422,4.422,0,0,1-1.487-3.713c.139-1.089-1.821-1.307-2.426-.56a1.291,1.291,0,0,1-.943.457c-.423.053-.964.047-1.691.147-.118.017-.24.037-.366.059-.177.031-.363.07-.562.118a8.5,8.5,0,0,1-1.124.183c-.083.009-.168.015-.253.02-.432.035-.883.051-1.341.053-1.6.005-3.251-.141-4.294-.148-1.331-.009-4.642.048-5.97.072a.843.843,0,0,0-.53.2.78.78,0,0,0-.232.332" fill="#144998"/>
      <g id="Group_5578" data-name="Group 5578" clip-path="url(#clip-path-7)">
        <g id="Group_5577" data-name="Group 5577">
          <g id="Group_5576" data-name="Group 5576">
            <path id="Path_2081" data-name="Path 2081" d="M907.505,948.982,893.6,960.746,910.315,978.5,924.22,966.74Z" fill="#144998"/>
          </g>
        </g>
      </g>
    </g>
    <g id="Group_5581" data-name="Group 5581">
      <g id="Group_5580" data-name="Group 5580">
        <path id="Path_2083" data-name="Path 2083" d="M894.526,961.523a2.173,2.173,0,0,0-.143.947c.136.437,6.909,4.017,6.909,4.017l7.447,4.044c1.064.614,4.911,2.638,6.654,3.554a1.089,1.089,0,0,0,1.407-.341l.209-.312c-7.278-3.42-14.816-7.483-22.483-11.909" fill="#00b0c4"/>
      </g>
    </g>
    <g id="Group_5583" data-name="Group 5583">
      <g id="Group_5582" data-name="Group 5582">
        <path id="Path_2084" data-name="Path 2084" d="M909.221,963.356a.463.463,0,0,0,.311.16.445.445,0,0,0,.488-.387,6.243,6.243,0,0,0-.534-3.163,3.142,3.142,0,0,0-2.7-1.6.427.427,0,1,0,.031.852,2.236,2.236,0,0,1,1.879,1.157,5.534,5.534,0,0,1,.428,2.681.41.41,0,0,0,.1.3" fill="#fff"/>
      </g>
    </g>
    <g id="Group_5585" data-name="Group 5585">
      <g id="Group_5584" data-name="Group 5584">
        <path id="Path_2085" data-name="Path 2085" d="M911.043,963.094a.456.456,0,0,0,.312.159.441.441,0,0,0,.486-.387,6.227,6.227,0,0,0-.533-3.163,3.138,3.138,0,0,0-2.7-1.6.426.426,0,1,0,.029.85,2.242,2.242,0,0,1,1.879,1.157,5.5,5.5,0,0,1,.429,2.682.4.4,0,0,0,.1.3" fill="#fff"/>
      </g>
    </g>
    <g id="Group_5587" data-name="Group 5587">
      <g id="Group_5586" data-name="Group 5586">
        <path id="Path_2086" data-name="Path 2086" d="M907.144,963.177a.458.458,0,0,0,.311.159.444.444,0,0,0,.488-.387,6.253,6.253,0,0,0-.535-3.164,3.14,3.14,0,0,0-2.7-1.6.426.426,0,1,0,.029.851,2.238,2.238,0,0,1,1.88,1.157,5.48,5.48,0,0,1,.429,2.681.408.408,0,0,0,.1.3" fill="#fff"/>
      </g>
    </g>
  </g>
  <g id="Group_5590" data-name="Group 5590" transform="translate(-869.962 -786.071)">
    <g id="Group_5589" data-name="Group 5589">
      <path id="Path_2087" data-name="Path 2087" d="M1004.214,946.316c-12.759.724-25.371-2.816-38.146-3.2a19.923,19.923,0,0,0-4.746.287,24.451,24.451,0,0,0-4.7,1.726c-6.851,3.022-13.94,5.526-21.02,8.025l-8.134,2.872a13.1,13.1,0,0,1-5.039,1.057c-.776-.046-1.728-.156-2.164.456-1.322,1.858-.7,4.589.176,6.674.285.677.764,1.407,1.525,1.484a4.6,4.6,0,0,0,1.553-.372c1.48-.375,2.957.568,4.48.722,1.882.19,3.63-.826,5.406-1.448,2.948-1.033,6.168-1,9.266-1.49,5.193-.819,10.007-3.105,14.506-5.71a17.406,17.406,0,0,1,5.415-2.417,15.623,15.623,0,0,1,6.806.732,162.646,162.646,0,0,1,15.6,5.036,74.843,74.843,0,0,0,8.153,2.818,31,31,0,0,0,18.273-1.009c2.042-.765,4.261-2.119,4.378-4.208.066-1.19-.908-2.24-1.559-3.258-.417-.653-.835-1.306-1.291-1.937-2.2-3.049-4.87-7.065-8.746-6.845" fill="#2f2e41"/>
    </g>
  </g>
  <g id="Group_5592" data-name="Group 5592" transform="translate(-869.962 -786.071)">
    <g id="Group_5591" data-name="Group 5591">
      <path id="Path_2088" data-name="Path 2088" d="M1004.214,946.316c-12.759.724-25.371-2.816-38.146-3.2a19.923,19.923,0,0,0-4.746.287,24.451,24.451,0,0,0-4.7,1.726c-6.851,3.022-13.94,5.526-21.02,8.025l-8.134,2.872a13.1,13.1,0,0,1-5.039,1.057c-.776-.046-1.728-.156-2.164.456-1.322,1.858-.7,4.589.176,6.674.285.677.764,1.407,1.525,1.484a4.6,4.6,0,0,0,1.553-.372c1.48-.375,2.957.568,4.48.722,1.882.19,3.63-.826,5.406-1.448,2.948-1.033,6.168-1,9.266-1.49,5.193-.819,10.007-3.105,14.506-5.71a17.406,17.406,0,0,1,5.415-2.417,15.623,15.623,0,0,1,6.806.732,162.646,162.646,0,0,1,15.6,5.036,74.843,74.843,0,0,0,8.153,2.818,31,31,0,0,0,18.273-1.009c2.042-.765,4.261-2.119,4.378-4.208.066-1.19-.908-2.24-1.559-3.258-.417-.653-.835-1.306-1.291-1.937-2.2-3.049-4.87-7.065-8.746-6.845" fill="#909797"/>
    </g>
  </g>
  <g id="Group_5594" data-name="Group 5594" transform="translate(-869.962 -786.071)">
    <g id="Group_5593" data-name="Group 5593">
      <path id="Path_2089" data-name="Path 2089" d="M938.95,960.182c2,.646,3.928,1.574,5.959,2.115,1.139-1.77,4.148-4.272,4.632-6.3a.41.41,0,0,0,0-.27.474.474,0,0,0-.228-.2,11.74,11.74,0,0,0-4.734-1.314c-1.31-.078-1.909,1.22-2.5,2.132-.241.37-2.717,4-3.251,3.829" fill="#ffcc8b"/>
    </g>
  </g>
  <g id="Group_5607" data-name="Group 5607" transform="translate(-869.962 -786.071)">
    <g id="Group_5598" data-name="Group 5598">
      <path id="Path_2090" data-name="Path 2090" d="M923.01,969.865c.034.131.072.276.117.423.028.1.055.191.086.284a2.263,2.263,0,0,0,.419.87c.364.3,8.1-.158,8.1-.158l8.571-.411c1.244-.03,5.636-.3,7.626-.418a1.026,1.026,0,0,0,.988-1.009c0-.114,0-.238,0-.369-.008-1.341-.031-3.309-.08-3.952a10.976,10.976,0,0,0-1.088-2.91s1.594-1.693.418-2.219-1.663-.073-1.663-.073-2.661,1.508-4.054,1.415a4.786,4.786,0,0,1-3.368-2.363c-.5-.988-2.277-.167-2.361.77a1.185,1.185,0,0,1-.532.868c-.327.262-.785.534-1.34.992-.089.073-.181.152-.274.236-.131.116-.265.245-.406.387a8.019,8.019,0,0,1-.842.729c-.064.05-.132.1-.2.148-.343.25-.714.494-1.1.73-1.342.822-2.817,1.547-3.7,2.075-1.126.674-3.88,2.419-4.982,3.119a.779.779,0,0,0-.335.437.749.749,0,0,0-.006.4" fill="#144998"/>
      <g id="Group_5597" data-name="Group 5597" clip-path="url(#clip-path-8)">
        <g id="Group_5596" data-name="Group 5596">
          <g id="Group_5595" data-name="Group 5595">
            <path id="Path_2091" data-name="Path 2091" d="M927.463,954.316l-5,17.021,24.187,6.38,5-17.02Z" fill="#144998"/>
          </g>
        </g>
      </g>
    </g>
    <g id="Group_5600" data-name="Group 5600">
      <g id="Group_5599" data-name="Group 5599">
        <path id="Path_2093" data-name="Path 2093" d="M923.213,970.573a2.257,2.257,0,0,0,.419.869c.364.3,8.1-.159,8.1-.159l8.571-.41c1.245-.03,5.636-.3,7.625-.418a1.026,1.026,0,0,0,.989-1.008c0-.115,0-.239,0-.371-8.074.851-16.732,1.294-25.706,1.5" fill="#00b0c4"/>
      </g>
    </g>
    <g id="Group_5602" data-name="Group 5602">
      <g id="Group_5601" data-name="Group 5601">
        <path id="Path_2094" data-name="Path 2094" d="M937.759,964.969a.481.481,0,0,0,.35-.053.414.414,0,0,0,.139-.589,6.753,6.753,0,0,0-2.45-2.206,3.237,3.237,0,0,0-3.171.281.412.412,0,0,0-.062.6.465.465,0,0,0,.633.059,2.308,2.308,0,0,1,2.233-.162,5.972,5.972,0,0,1,2.058,1.884.459.459,0,0,0,.27.186" fill="#fff"/>
      </g>
    </g>
    <g id="Group_5604" data-name="Group 5604">
      <g id="Group_5603" data-name="Group 5603">
        <path id="Path_2095" data-name="Path 2095" d="M939.039,963.71a.459.459,0,0,0,.349-.053.413.413,0,0,0,.14-.587,6.759,6.759,0,0,0-2.451-2.207,3.233,3.233,0,0,0-3.17.282.412.412,0,0,0-.063.6.465.465,0,0,0,.632.06,2.309,2.309,0,0,1,2.233-.162,5.928,5.928,0,0,1,2.059,1.883.441.441,0,0,0,.271.185" fill="#fff"/>
      </g>
    </g>
    <g id="Group_5606" data-name="Group 5606">
      <g id="Group_5605" data-name="Group 5605">
        <path id="Path_2096" data-name="Path 2096" d="M935.994,966.022a.478.478,0,0,0,.349-.054.415.415,0,0,0,.141-.588,6.776,6.776,0,0,0-2.452-2.206,3.23,3.23,0,0,0-3.17.281.41.41,0,0,0-.062.6.464.464,0,0,0,.631.06,2.311,2.311,0,0,1,2.234-.163,5.92,5.92,0,0,1,2.058,1.885.458.458,0,0,0,.271.186" fill="#fff"/>
      </g>
    </g>
  </g>
  <g id="Group_5609" data-name="Group 5609" transform="translate(-869.962 -786.071)">
    <g id="Group_5608" data-name="Group 5608">
      <path id="Path_2097" data-name="Path 2097" d="M985.08,926.91a9.756,9.756,0,0,1-5.085-4.787c-.212-.459-.387-.938-.592-1.4a10.694,10.694,0,0,0-3.039-4,1.5,1.5,0,0,0-1.128-.452,1.176,1.176,0,0,0-.829.842,3.233,3.233,0,0,0-.084,1.291,21.869,21.869,0,0,0,.552,3.024l.618,2.672a4.948,4.948,0,0,0,.385,1.191,4.27,4.27,0,0,0,1.037,1.178q.851.738,1.724,1.44a4.935,4.935,0,0,0,2.985,1.259,16.923,16.923,0,0,1,7.25,2.654c-.023-.018-.01-1.791-.047-1.995a2.521,2.521,0,0,0-.543-1.432c-.829-.818-2.2-1.057-3.2-1.483" fill="#fabdbd"/>
    </g>
  </g>
  <g id="Group_5611" data-name="Group 5611" transform="translate(-869.962 -786.071)">
    <g id="Group_5610" data-name="Group 5610">
      <path id="Path_2098" data-name="Path 2098" d="M985.08,926.91a9.756,9.756,0,0,1-5.085-4.787c-.212-.459-.387-.938-.592-1.4a10.694,10.694,0,0,0-3.039-4,1.5,1.5,0,0,0-1.128-.452,1.176,1.176,0,0,0-.829.842,3.233,3.233,0,0,0-.084,1.291,21.869,21.869,0,0,0,.552,3.024l.618,2.672a4.948,4.948,0,0,0,.385,1.191,4.27,4.27,0,0,0,1.037,1.178q.851.738,1.724,1.44a4.935,4.935,0,0,0,2.985,1.259,16.923,16.923,0,0,1,7.25,2.654c-.023-.018-.01-1.791-.047-1.995a2.521,2.521,0,0,0-.543-1.432c-.829-.818-2.2-1.057-3.2-1.483" fill="#ffcc8b"/>
    </g>
  </g>
  <g id="Group_5613" data-name="Group 5613" transform="translate(-869.962 -786.071)">
    <g id="Group_5612" data-name="Group 5612">
      <path id="Path_2099" data-name="Path 2099" d="M1011.066,900.55a3.032,3.032,0,0,1,3.1,2.958c0,1.634.295,5.59-1.419,5.59s-4.788-3.956-4.788-5.59a3.034,3.034,0,0,1,3.1-2.958" fill="#e9ad3d"/>
    </g>
  </g>
  <g id="Group_5615" data-name="Group 5615" transform="translate(-869.962 -786.071)">
    <g id="Group_5614" data-name="Group 5614">
      <path id="Path_2100" data-name="Path 2100" d="M1009.146,901.721a3.539,3.539,0,0,0-2.453.335,3.154,3.154,0,0,0-.84,1.083,15.215,15.215,0,0,0-1.615,3.6c-.406,3.524-4.064,15.139-6.549,18.737-2.03,2.937-8.507,3.541-10.014,2.4a9.995,9.995,0,0,1,.923,4.9c.012.708.032-.265-.5.228,2.472.051,6.981.187,8.235.014,1.722-.241,7.179-3.052,8.547-6.152,2.6-5.875,6.083-19.506,6.189-22.441.036-.983-.9-2.595-1.92-2.7" fill="#004987"/>
    </g>
  </g>
  <g id="Group_5660" data-name="Group 5660" transform="translate(-869.962 -786.071)">
    <g id="Group_5659" data-name="Group 5659">
      <g id="Group_5658" data-name="Group 5658" clip-path="url(#clip-path-9)">
        <g id="Group_5616" data-name="Group 5616">
          <rect id="Rectangle_3125" data-name="Rectangle 3125" width="0.116" height="43.533" transform="translate(942.351 923.941)" fill="#909797"/>
        </g>
        <g id="Group_5617" data-name="Group 5617">
          <rect id="Rectangle_3126" data-name="Rectangle 3126" width="27.864" height="43.533" transform="translate(942.467 923.941)" fill="#909797"/>
        </g>
        <g id="Group_5618" data-name="Group 5618">
          <rect id="Rectangle_3127" data-name="Rectangle 3127" width="1.25" height="43.533" transform="translate(970.331 923.941)" fill="#909797"/>
        </g>
        <g id="Group_5619" data-name="Group 5619">
          <rect id="Rectangle_3128" data-name="Rectangle 3128" width="1.25" height="43.533" transform="translate(971.581 923.941)" fill="#919898"/>
        </g>
        <g id="Group_5620" data-name="Group 5620">
          <rect id="Rectangle_3129" data-name="Rectangle 3129" width="1.25" height="43.533" transform="translate(972.831 923.941)" fill="#929999"/>
        </g>
        <g id="Group_5621" data-name="Group 5621">
          <rect id="Rectangle_3130" data-name="Rectangle 3130" width="1.25" height="43.533" transform="translate(974.081 923.941)" fill="#949a9b"/>
        </g>
        <g id="Group_5622" data-name="Group 5622">
          <rect id="Rectangle_3131" data-name="Rectangle 3131" width="1.25" height="43.533" transform="translate(975.331 923.941)" fill="#959c9c"/>
        </g>
        <g id="Group_5623" data-name="Group 5623">
          <rect id="Rectangle_3132" data-name="Rectangle 3132" width="1.249" height="43.533" transform="translate(976.581 923.941)" fill="#969d9d"/>
        </g>
        <g id="Group_5624" data-name="Group 5624">
          <rect id="Rectangle_3133" data-name="Rectangle 3133" width="1.25" height="43.533" transform="translate(977.83 923.941)" fill="#979e9e"/>
        </g>
        <g id="Group_5625" data-name="Group 5625">
          <rect id="Rectangle_3134" data-name="Rectangle 3134" width="1.25" height="43.533" transform="translate(979.08 923.941)" fill="#999f9f"/>
        </g>
        <g id="Group_5626" data-name="Group 5626">
          <rect id="Rectangle_3135" data-name="Rectangle 3135" width="1.25" height="43.533" transform="translate(980.33 923.941)" fill="#9aa0a0"/>
        </g>
        <g id="Group_5627" data-name="Group 5627">
          <rect id="Rectangle_3136" data-name="Rectangle 3136" width="1.25" height="43.533" transform="translate(981.58 923.941)" fill="#9ba1a1"/>
        </g>
        <g id="Group_5628" data-name="Group 5628">
          <rect id="Rectangle_3137" data-name="Rectangle 3137" width="1.25" height="43.533" transform="translate(982.83 923.941)" fill="#9ca2a2"/>
        </g>
        <g id="Group_5629" data-name="Group 5629">
          <rect id="Rectangle_3138" data-name="Rectangle 3138" width="1.249" height="43.533" transform="translate(984.08 923.941)" fill="#9da3a4"/>
        </g>
        <g id="Group_5630" data-name="Group 5630">
          <rect id="Rectangle_3139" data-name="Rectangle 3139" width="1.25" height="43.533" transform="translate(985.329 923.941)" fill="#9ea4a5"/>
        </g>
        <g id="Group_5631" data-name="Group 5631">
          <rect id="Rectangle_3140" data-name="Rectangle 3140" width="1.251" height="43.533" transform="translate(986.579 923.941)" fill="#a0a5a6"/>
        </g>
        <g id="Group_5632" data-name="Group 5632">
          <rect id="Rectangle_3141" data-name="Rectangle 3141" width="1.249" height="43.533" transform="translate(987.83 923.941)" fill="#a1a6a7"/>
        </g>
        <g id="Group_5633" data-name="Group 5633">
          <rect id="Rectangle_3142" data-name="Rectangle 3142" width="1.25" height="43.533" transform="translate(989.079 923.941)" fill="#a2a7a8"/>
        </g>
        <g id="Group_5634" data-name="Group 5634">
          <rect id="Rectangle_3143" data-name="Rectangle 3143" width="1.25" height="43.533" transform="translate(990.329 923.941)" fill="#a3a8a9"/>
        </g>
        <g id="Group_5635" data-name="Group 5635">
          <rect id="Rectangle_3144" data-name="Rectangle 3144" width="1.25" height="43.533" transform="translate(991.579 923.941)" fill="#a4a9aa"/>
        </g>
        <g id="Group_5636" data-name="Group 5636">
          <rect id="Rectangle_3145" data-name="Rectangle 3145" width="1.25" height="43.533" transform="translate(992.829 923.941)" fill="#a5aaab"/>
        </g>
        <g id="Group_5637" data-name="Group 5637">
          <rect id="Rectangle_3146" data-name="Rectangle 3146" width="1.25" height="43.533" transform="translate(994.079 923.941)" fill="#a6abac"/>
        </g>
        <g id="Group_5638" data-name="Group 5638">
          <rect id="Rectangle_3147" data-name="Rectangle 3147" width="1.25" height="43.533" transform="translate(995.329 923.941)" fill="#a7acad"/>
        </g>
        <g id="Group_5639" data-name="Group 5639">
          <rect id="Rectangle_3148" data-name="Rectangle 3148" width="1.25" height="43.533" transform="translate(996.579 923.941)" fill="#a8adae"/>
        </g>
        <g id="Group_5640" data-name="Group 5640">
          <rect id="Rectangle_3149" data-name="Rectangle 3149" width="1.25" height="43.533" transform="translate(997.829 923.941)" fill="#a9aeaf"/>
        </g>
        <g id="Group_5641" data-name="Group 5641">
          <rect id="Rectangle_3150" data-name="Rectangle 3150" width="1.25" height="43.533" transform="translate(999.079 923.941)" fill="#aaafb0"/>
        </g>
        <g id="Group_5642" data-name="Group 5642">
          <rect id="Rectangle_3151" data-name="Rectangle 3151" width="1.25" height="43.533" transform="translate(1000.329 923.941)" fill="#abb0b1"/>
        </g>
        <g id="Group_5643" data-name="Group 5643">
          <rect id="Rectangle_3152" data-name="Rectangle 3152" width="1.25" height="43.533" transform="translate(1001.579 923.941)" fill="#acb1b2"/>
        </g>
        <g id="Group_5644" data-name="Group 5644">
          <rect id="Rectangle_3153" data-name="Rectangle 3153" width="1.25" height="43.533" transform="translate(1002.829 923.941)" fill="#adb2b3"/>
        </g>
        <g id="Group_5645" data-name="Group 5645">
          <rect id="Rectangle_3154" data-name="Rectangle 3154" width="1.25" height="43.533" transform="translate(1004.079 923.941)" fill="#aeb3b4"/>
        </g>
        <g id="Group_5646" data-name="Group 5646">
          <rect id="Rectangle_3155" data-name="Rectangle 3155" width="1.25" height="43.533" transform="translate(1005.329 923.941)" fill="#afb4b5"/>
        </g>
        <g id="Group_5647" data-name="Group 5647">
          <rect id="Rectangle_3156" data-name="Rectangle 3156" width="1.25" height="43.533" transform="translate(1006.579 923.941)" fill="#b0b5b5"/>
        </g>
        <g id="Group_5648" data-name="Group 5648">
          <rect id="Rectangle_3157" data-name="Rectangle 3157" width="1.25" height="43.533" transform="translate(1007.829 923.941)" fill="#b1b5b6"/>
        </g>
        <g id="Group_5649" data-name="Group 5649">
          <rect id="Rectangle_3158" data-name="Rectangle 3158" width="1.25" height="43.533" transform="translate(1009.079 923.941)" fill="#b2b6b7"/>
        </g>
        <g id="Group_5650" data-name="Group 5650">
          <rect id="Rectangle_3159" data-name="Rectangle 3159" width="1.249" height="43.533" transform="translate(1010.329 923.941)" fill="#b3b7b8"/>
        </g>
        <g id="Group_5651" data-name="Group 5651">
          <rect id="Rectangle_3160" data-name="Rectangle 3160" width="1.25" height="43.533" transform="translate(1011.578 923.941)" fill="#b3b8b9"/>
        </g>
        <g id="Group_5652" data-name="Group 5652">
          <rect id="Rectangle_3161" data-name="Rectangle 3161" width="1.25" height="43.533" transform="translate(1012.828 923.941)" fill="#b4b8b9"/>
        </g>
        <g id="Group_5653" data-name="Group 5653">
          <rect id="Rectangle_3162" data-name="Rectangle 3162" width="1.25" height="43.533" transform="translate(1014.078 923.941)" fill="#b5b9ba"/>
        </g>
        <g id="Group_5654" data-name="Group 5654">
          <rect id="Rectangle_3163" data-name="Rectangle 3163" width="1.25" height="43.533" transform="translate(1015.328 923.941)" fill="#b6babb"/>
        </g>
        <g id="Group_5655" data-name="Group 5655">
          <rect id="Rectangle_3164" data-name="Rectangle 3164" width="1.25" height="43.533" transform="translate(1016.578 923.941)" fill="#b6babb"/>
        </g>
        <g id="Group_5656" data-name="Group 5656">
          <rect id="Rectangle_3165" data-name="Rectangle 3165" width="0.001" height="43.533" transform="translate(1017.828 923.941)" fill="#b6babb"/>
        </g>
        <g id="Group_5657" data-name="Group 5657">
          <rect id="Rectangle_3166" data-name="Rectangle 3166" width="0.092" height="43.533" transform="translate(1017.829 923.941)" fill="#b6babb"/>
        </g>
      </g>
    </g>
  </g>
  <g id="Group_5662" data-name="Group 5662" transform="translate(-869.962 -786.071)">
    <g id="Group_5661" data-name="Group 5661">
      <path id="Path_2102" data-name="Path 2102" d="M1012.449,903.846a4.107,4.107,0,0,1,.261,3.265,12.433,12.433,0,0,1-1.536,3.015,15.011,15.011,0,0,1-2,2.7c3.687.168,7.258-1.2,10.51-2.863,2.616-1.335,4.775-2.566,6.171-5.062-.817.233-1.265-.416-1.989-.846a8.931,8.931,0,0,1-1.868-1.65l-1.85-1.972a7.921,7.921,0,0,1-1.137-1.415,3.812,3.812,0,0,1-.489-2.289,13.69,13.69,0,0,1-2.448,1.925c-1.321.816-2.777,1.407-4.1,2.217-.469.287-1.513.748-1.243,1.33s1.343,1.022,1.717,1.645" fill="#fabdbd"/>
    </g>
  </g>
  <g id="Group_5664" data-name="Group 5664" transform="translate(-869.962 -786.071)">
    <g id="Group_5663" data-name="Group 5663">
      <path id="Path_2103" data-name="Path 2103" d="M1012.449,903.846a4.107,4.107,0,0,1,.261,3.265,12.433,12.433,0,0,1-1.536,3.015,15.011,15.011,0,0,1-2,2.7c3.687.168,7.258-1.2,10.51-2.863,2.616-1.335,4.775-2.566,6.171-5.062-.817.233-1.265-.416-1.989-.846a8.931,8.931,0,0,1-1.868-1.65l-1.85-1.972a7.921,7.921,0,0,1-1.137-1.415,3.812,3.812,0,0,1-.489-2.289,13.69,13.69,0,0,1-2.448,1.925c-1.321.816-2.777,1.407-4.1,2.217-.469.287-1.513.748-1.243,1.33s1.343,1.022,1.717,1.645" fill="#ffcc8b"/>
    </g>
  </g>
  <g id="Group_5666" data-name="Group 5666" transform="translate(-869.962 -786.071)">
    <g id="Group_5665" data-name="Group 5665">
      <path id="Path_2104" data-name="Path 2104" d="M1010.589,902.883c.282-.205,1.646,1.8,1.534,2.119-.312.893.425,1.243.5,2.727.009.16-.006.423.777.537,1.348.2,1.751-1.719,2.538-2.6a14.244,14.244,0,0,1,3.639-2.162c8.713-4.508,7.61,6.976,7.6,9.672-.008,2.271-2.951,12.893-3.118,14.056a22.046,22.046,0,0,0-.149,3.092l0,4.323a10.6,10.6,0,0,0,.177,2.371c.217.948-.663,20.609-1.307,22.937a8.689,8.689,0,0,1-2.995,4.352,5.13,5.13,0,0,1-3.948,1.337c-1.917-.337-3.069-2.232-3.592-4.023s-4.205-7.266-5.5-8.146-8.611-10.725-8.414-10.85a6.533,6.533,0,0,0,2.524-3.451,18,18,0,0,0,.7-4.618l.328-5.2c.147-2.324.212-4.628,1.292-6.718.484-.934,1.084-1.808,1.587-2.733.664-1.3,3.484-8.871,4.252-11.342.237-.764-.11-1.72.168-2.472.658-1.77.788-2.758,1.412-3.209" fill="#003b71"/>
    </g>
  </g>
  <g id="Group_5668" data-name="Group 5668" transform="translate(-869.962 -786.071)">
    <g id="Group_5667" data-name="Group 5667">
      <path id="Path_2105" data-name="Path 2105" d="M988.224,930.814a11.223,11.223,0,0,1-3.005-2.164c-.394-.437-.719-.929-1.12-1.36a7.475,7.475,0,0,0-3.78-2.042,19.466,19.466,0,0,0-4.382-.4,8.486,8.486,0,0,0-2.912.335,2.847,2.847,0,0,0-1.93,1.964,3.184,3.184,0,0,0,1.469,2.9A7.276,7.276,0,0,0,975.5,931.4a25.141,25.141,0,0,0,2.657.293c5.224.519,9.885,3.215,14.465,5.671q6.033,3.235,12.3,6.047a21.971,21.971,0,0,0,.206-3.578c-.02-.894-.068-2.256-.958-2.781-1.037-.61-2.744-.751-3.914-1.114a64.75,64.75,0,0,1-7.871-3.019q-2.121-.975-4.16-2.1" fill="#ffcc8b"/>
    </g>
  </g>
  <g id="Group_5670" data-name="Group 5670" transform="translate(-869.962 -786.071)">
    <g id="Group_5669" data-name="Group 5669">
      <path id="Path_2106" data-name="Path 2106" d="M1012.75,904.528s5.567-3.132,6.021-5.528l-9.212,2.847S1012.5,903.789,1012.75,904.528Z" fill="#ffad5f"/>
    </g>
  </g>
  <g id="Group_5672" data-name="Group 5672" transform="translate(-869.962 -786.071)">
    <g id="Group_5671" data-name="Group 5671">
      <path id="Path_2107" data-name="Path 2107" d="M1013.7,882.6a9.1,9.1,0,0,1,9.311,8.875c0,4.9-4.094,9.753-9.236,9.753-2.377,0-6.428.9-8.073-.494-1.915-1.625-1.318-8.073-1.318-10.709,0-4.9,4.174-7.425,9.316-7.425" fill="#ffcc8b"/>
    </g>
  </g>
  <g id="Group_5674" data-name="Group 5674" transform="translate(-869.962 -786.071)">
    <g id="Group_5673" data-name="Group 5673">
      <path id="Path_2108" data-name="Path 2108" d="M1022.342,872.4a6.728,6.728,0,1,1-7.086,6.719,6.91,6.91,0,0,1,7.086-6.719" fill="#144998"/>
    </g>
  </g>
  <g id="Group_5676" data-name="Group 5676" transform="translate(-869.962 -786.071)">
    <g id="Group_5675" data-name="Group 5675">
      <path id="Path_2109" data-name="Path 2109" d="M1020.429,881.738c3.7,0,6.692,3.657,6.692,8.168s-3,8.167-6.692,8.167-6.693-3.657-6.693-8.167c0-3.031-1.31-7.033.7-8.443.98-.688,4.78.275,5.993.275" fill="#144998"/>
    </g>
  </g>
  <g id="Group_5678" data-name="Group 5678" transform="translate(-869.962 -786.071)">
    <g id="Group_5677" data-name="Group 5677">
      <path id="Path_2110" data-name="Path 2110" d="M1014.942,882.95c2.345,2.239,2.809,5.56,1.037,7.416s-5.111,1.545-7.456-.694-2.81-5.561-1.037-7.417,5.111-1.545,7.456.7" fill="#144998"/>
    </g>
  </g>
  <g id="Group_5680" data-name="Group 5680" transform="translate(-869.962 -786.071)">
    <g id="Group_5679" data-name="Group 5679">
      <path id="Path_2111" data-name="Path 2111" d="M1015.849,890.113c.98.275,1.5,1.692,1.172,3.164s-1.4,2.442-2.373,2.168-1.5-1.693-1.172-3.164,1.393-2.443,2.373-2.168" fill="#ffcc8b"/>
    </g>
  </g>
  <g id="Group_5682" data-name="Group 5682" transform="translate(-869.962 -786.071)">
    <g id="Group_5681" data-name="Group 5681">
      <path id="Path_2112" data-name="Path 2112" d="M988.46,862.713a2.546,2.546,0,0,1-.492.277,9.01,9.01,0,0,0-4.072,2.556,3.337,3.337,0,0,0-.688,2.254,3.449,3.449,0,0,0,2.57,2.8,4.748,4.748,0,0,0,3.342-.322c1.107-.578,1.344-1.635,2.84-1.136.985.326,2.364,1.3,3.456.938a2.5,2.5,0,0,0,1.377-1.569,2.759,2.759,0,0,0,.132-2.128,1.488,1.488,0,0,0-1.693-.821c.411-.114.72-1.372.692-1.745a2.146,2.146,0,0,0-1.134-1.6A6.356,6.356,0,0,0,988.46,862.713Z" fill="#fceda7"/>
    </g>
  </g>
  <g id="Group_5684" data-name="Group 5684" transform="translate(-869.962 -786.071)">
    <g id="Group_5683" data-name="Group 5683">
      <path id="Path_2113" data-name="Path 2113" d="M1001.933,873.7c-2.793-.873-4.356,1.54-4.751,1.992a1.624,1.624,0,0,0-.273,1.278,4.912,4.912,0,0,0,1.935,3.335,1.919,1.919,0,0,0,1.183.456,1.356,1.356,0,0,0,1.087-.7,2.466,2.466,0,0,0,.238-1.112,1.466,1.466,0,0,0,1.635-.284,2.351,2.351,0,0,0,.528-1.722C1003.487,875.962,1003.432,874.168,1001.933,873.7Z" fill="#fceda7"/>
    </g>
  </g>
  <g id="Group_5686" data-name="Group 5686" transform="translate(-869.962 -786.071)">
    <g id="Group_5685" data-name="Group 5685">
      <path id="Path_2114" data-name="Path 2114" d="M1006.864,858.157c-2.792-.873-4.355,1.54-4.751,1.992a1.622,1.622,0,0,0-.272,1.278,4.908,4.908,0,0,0,1.935,3.335,1.909,1.909,0,0,0,1.182.455,1.357,1.357,0,0,0,1.088-.7,2.452,2.452,0,0,0,.237-1.112,1.464,1.464,0,0,0,1.634-.284,2.344,2.344,0,0,0,.53-1.722C1008.418,860.419,1008.363,858.625,1006.864,858.157Z" fill="#fceda7"/>
    </g>
  </g>
  <g id="Group_5705" data-name="Group 5705" transform="translate(-869.962 -786.071)">
    <g id="Group_5704" data-name="Group 5704" clip-path="url(#clip-path-10)">
      <g id="Group_5703" data-name="Group 5703">
        <g id="Group_5688" data-name="Group 5688">
          <g id="Group_5687" data-name="Group 5687">
            <path id="Path_2115" data-name="Path 2115" d="M1051.042,839.171s-.068,8.746-.074,9.264-3.726,1.186-3.726,1.186l-4.625-.916-.5-2.5s3.951-5.854,3.97-7.41Z" fill="#ffcc8b"/>
          </g>
        </g>
        <g id="Group_5690" data-name="Group 5690">
          <g id="Group_5689" data-name="Group 5689">
            <path id="Path_2116" data-name="Path 2116" d="M1050.97,841.533s-3.156,4.059-7.25,2.315c-.319-.137.686-1.371.686-1.371l6.554-1.615Z" fill="#ffad5f"/>
          </g>
        </g>
        <g id="Group_5692" data-name="Group 5692">
          <g id="Group_5691" data-name="Group 5691">
            <path id="Path_2117" data-name="Path 2117" d="M1050.559,823.02a8.819,8.819,0,0,0-10.239,7.377c-.9,5.013-1.947,11.138,2.808,12.078,2.571.507,9.262-1.523,11.178-3.095a9.311,9.311,0,0,0,3.232-5.58,9.2,9.2,0,0,0-6.979-10.78" fill="#ffcc8b"/>
          </g>
        </g>
        <g id="Group_5694" data-name="Group 5694">
          <g id="Group_5693" data-name="Group 5693">
            <path id="Path_2118" data-name="Path 2118" d="M1047.314,881.708a39.573,39.573,0,0,0,8.045-.575c.162-2.533.284-5.327.284-5.327l2.75-7.256L1064.1,853.5l-12.981-7.046s-1.145,2.732-5.217,1.314c-2.323-.743-2.708-1.28-2.735-3.6l-14.7,2.561,2.1,17.994.117,1.006-1.246,11.166a39.8,39.8,0,0,0,17.881,4.815" fill="#c9cacb"/>
          </g>
        </g>
        <g id="Group_5696" data-name="Group 5696">
          <g id="Group_5695" data-name="Group 5695">
            <path id="Path_2119" data-name="Path 2119" d="M1058.314,825.424s-1.714-6.154-7.157-5.882-8.736,1.636-9.31,3.537a26.953,26.953,0,0,0-.755,4.885s1.28-3.887,4.751-2.31,9.25,2.044,9.25,2.044l-.484,7.957s2.023-1.072,1.31,1.811c-.351,1.42,7.491-5.039,2.4-12.042" fill="#144998"/>
          </g>
        </g>
        <g id="Group_5698" data-name="Group 5698">
          <g id="Group_5697" data-name="Group 5697">
            <path id="Path_2120" data-name="Path 2120" d="M1068.784,876.537l-1.514-14.646a10.511,10.511,0,0,0-3.17-8.4l-4.087-.122-3.118,9.5,1.5,5.671,1.887,7.137.537.794s-.557.76-.285,1.03a4.345,4.345,0,0,1,.528,1.312s-.063.369-.17.918a35.374,35.374,0,0,0,7.9-3.2" fill="#c9cacb"/>
          </g>
        </g>
        <g id="Group_5700" data-name="Group 5700">
          <g id="Group_5699" data-name="Group 5699">
            <path id="Path_2121" data-name="Path 2121" d="M1018.648,868.223a38.214,38.214,0,0,0,6.63,6.054,11.471,11.471,0,0,0,.958-1.941l4.326-7.615,2.921-5.138-.376-13.5-4.645.641s-2.91,1.05-3.888,5.59l-2.3,9.267-3.625,6.637Z" fill="#c9cacb"/>
          </g>
        </g>
        <g id="Group_5702" data-name="Group 5702" opacity="0.3">
          <g id="Group_5701" data-name="Group 5701">
            <path id="Path_2122" data-name="Path 2122" d="M1058.392,868.549l-1.5-5.671.943,7.139Z" fill="#55565a"/>
          </g>
        </g>
      </g>
    </g>
  </g>
  <g id="Group_5715" data-name="Group 5715" transform="translate(-869.962 -786.071)">
    <g id="Group_5708" data-name="Group 5708">
      <g id="Group_5707" data-name="Group 5707">
        <g id="Group_5706" data-name="Group 5706">
          <path id="Path_2124" data-name="Path 2124" d="M1030.421,958.508c-3.731.242-5.617,3.774-6.291,7.06-.069.34-.106.685-.174,1.024-.155.785,1.05,1.122,1.206.332a22.9,22.9,0,0,1,.54-2.449,7.828,7.828,0,0,1,2.284-3.769,4.264,4.264,0,0,1,2.435-.948c.8-.052.8-1.3,0-1.25Z" fill="#a2d45e"/>
        </g>
      </g>
    </g>
    <g id="Group_5711" data-name="Group 5711">
      <g id="Group_5710" data-name="Group 5710">
        <g id="Group_5709" data-name="Group 5709">
          <path id="Path_2125" data-name="Path 2125" d="M1025.594,957.4a2.384,2.384,0,0,0-.58,2.478,3.307,3.307,0,0,0,.458,1.019,1.4,1.4,0,0,0,.808.649.625.625,0,1,0,.331-1.205c-.153-.025.123.061.033.02-.016-.007-.03-.024-.046-.03.125.044.118.1.048.033-.037-.034-.07-.073-.1-.11-.086-.092.084.124.027.034-.015-.023-.033-.045-.047-.068a2.808,2.808,0,0,1-.2-.361c-.064-.132.046.125,0,.011-.011-.031-.024-.062-.036-.093-.026-.077-.051-.154-.071-.232s-.04-.159-.055-.239c-.008-.05-.008-.164,0,.026,0-.035-.009-.07-.01-.105a2.251,2.251,0,0,1-.008-.245c0-.036,0-.071.006-.106.012-.173-.026.105,0,0,.014-.067.027-.135.047-.2s.09-.166,0-.012c.017-.028.029-.062.044-.091s.041-.071.062-.1c.009-.015.019-.029.028-.043.039-.053.028-.038-.033.042.063-.03.127-.133.182-.178a.627.627,0,0,0,0-.884.641.641,0,0,0-.884,0Z" fill="#a2d45e"/>
        </g>
      </g>
    </g>
    <g id="Group_5714" data-name="Group 5714">
      <g id="Group_5713" data-name="Group 5713">
        <g id="Group_5712" data-name="Group 5712">
          <path id="Path_2126" data-name="Path 2126" d="M1025.4,964.676c.083,0-.219-.043-.083-.005.085.023-.178-.084-.032-.013.095.047.19.095.286.14a3.71,3.71,0,0,0,.973.323,3.943,3.943,0,0,0,3.114-1.016.624.624,0,0,0,0-.883.641.641,0,0,0-.883,0,4.458,4.458,0,0,1-.685.44c-.06.031-.122.061-.184.089.1-.044-.019.007-.054.02a3.155,3.155,0,0,1-.34.1c-.046.011-.093.021-.14.029l-.067.011.055-.008a.807.807,0,0,1-.3.016c-.079,0-.158-.008-.238-.014-.115-.009.154.032-.02,0l-.1-.021a2.827,2.827,0,0,1-.411-.126.731.731,0,0,0-.082-.033c.186.047.077.033.021.007l-.138-.066a1.591,1.591,0,0,0-.688-.238.625.625,0,0,0,0,1.25Z" fill="#a2d45e"/>
        </g>
      </g>
    </g>
  </g>
  <g id="Group_5728" data-name="Group 5728" transform="translate(-869.962 -786.071)">
    <g id="Group_5718" data-name="Group 5718">
      <g id="Group_5717" data-name="Group 5717">
        <g id="Group_5716" data-name="Group 5716">
          <path id="Path_2127" data-name="Path 2127" d="M1030.452,940.083a25.669,25.669,0,0,1,6.965,9.839,35.287,35.287,0,0,1,2.657,18.019c-.086.8,1.164.792,1.25,0a36.365,36.365,0,0,0-2.7-18.345c-1.644-3.827-3.992-7.761-7.292-10.4-.622-.5-1.512.382-.884.884Z" fill="#a2d45e"/>
        </g>
      </g>
    </g>
    <g id="Group_5721" data-name="Group 5721">
      <g id="Group_5720" data-name="Group 5720">
        <g id="Group_5719" data-name="Group 5719">
          <path id="Path_2128" data-name="Path 2128" d="M1037.5,940.725c.005.155-.005.311-.015.465-.01.129-.024.257-.039.386-.012.109-.027.024,0-.026a.38.38,0,0,0-.016.108q-.019.123-.042.246a6.235,6.235,0,0,1-.284,1.038c-.015.042-.032.082-.047.124-.043.112.045-.094-.007.014-.041.086-.081.174-.126.258a3.812,3.812,0,0,1-.3.465c.074-.1.013-.019-.027.027s-.078.086-.119.127-.074.071-.112.106c-.02.017-.14.112-.072.062s-.059.038-.081.053c-.044.028-.088.054-.134.08s-.1.045-.141.07c.119-.066-.01,0-.065.023a.638.638,0,0,0-.436.768.63.63,0,0,0,.768.437c1.744-.608,2.35-2.534,2.508-4.206a5.02,5.02,0,0,0,.029-.625.625.625,0,0,0-1.25,0Z" fill="#a2d45e"/>
        </g>
      </g>
    </g>
    <g id="Group_5724" data-name="Group 5724">
      <g id="Group_5723" data-name="Group 5723">
        <g id="Group_5722" data-name="Group 5722">
          <path id="Path_2129" data-name="Path 2129" d="M1031.689,948.8a7.822,7.822,0,0,0,2.045,1.079,3.938,3.938,0,0,0,3.39-.076.625.625,0,0,0-.631-1.079c-.05.031-.1.06-.156.088l-.1.05c.05-.021.053-.025.012-.008a2.508,2.508,0,0,1-.364.1c-.028.006-.195.023-.063.011-.059.006-.117.011-.175.014a3.478,3.478,0,0,1-.354-.006c-.058,0-.118-.01-.177-.016.128.014-.043-.008-.071-.012-.128-.022-.255-.05-.381-.083a6.128,6.128,0,0,1-.7-.229s-.182-.075-.063-.024l-.154-.068c-.1-.045-.2-.092-.292-.14q-.279-.139-.545-.3a5.721,5.721,0,0,1-.582-.382.63.63,0,0,0-.856.223.642.642,0,0,0,.225.856Z" fill="#a2d45e"/>
        </g>
      </g>
    </g>
    <g id="Group_5727" data-name="Group 5727">
      <g id="Group_5726" data-name="Group 5726">
        <g id="Group_5725" data-name="Group 5725">
          <path id="Path_2130" data-name="Path 2130" d="M1033.644,956.254c2.47,1.217,5.412,1.738,7.816.083a9.708,9.708,0,0,0,3.389-4.69,7.34,7.34,0,0,0,.446-1.6c.044-.337-.319-.621-.625-.625a.64.64,0,0,0-.625.625c.043-.33-.042.137-.067.23-.065.247-.142.492-.225.733a10.526,10.526,0,0,1-.9,1.949,5.99,5.99,0,0,1-4.2,3.158,7.723,7.723,0,0,1-4.383-.945c-.719-.355-1.353.723-.631,1.08Z" fill="#a2d45e"/>
        </g>
      </g>
    </g>
  </g>
  <g id="Group_5741" data-name="Group 5741" transform="translate(-869.962 -786.071)">
    <g id="Group_5731" data-name="Group 5731">
      <g id="Group_5730" data-name="Group 5730">
        <g id="Group_5729" data-name="Group 5729">
          <path id="Path_2131" data-name="Path 2131" d="M1065.005,948.644a18.535,18.535,0,0,1-2.718,8.577,28.617,28.617,0,0,1-9.745,10.111c-.678.428-.052,1.51.631,1.079a29.932,29.932,0,0,0,10.193-10.559,19.837,19.837,0,0,0,2.889-9.208.625.625,0,0,0-1.25,0Z" fill="#a2d45e"/>
        </g>
      </g>
    </g>
    <g id="Group_5734" data-name="Group 5734">
      <g id="Group_5733" data-name="Group 5733">
        <g id="Group_5732" data-name="Group 5732">
          <path id="Path_2132" data-name="Path 2132" d="M1068.033,952.757c-.085.071.031-.025.055-.042-.034.025-.067.052-.1.076-.091.065-.184.128-.279.188a6.705,6.705,0,0,1-.859.463c-.138.063.13-.049-.013.005l-.125.049c-.085.031-.17.06-.257.086s-.188.053-.284.072l-.133.027c-.164.032.095,0-.035,0-.088,0-.177.012-.265.011-.045,0-.089,0-.133-.005l-.066,0,.057.007c-.048.022-.208-.044-.257-.058-.019-.007-.178-.076-.092-.032s-.071-.039-.086-.047a.625.625,0,1,0-.631,1.079,3.137,3.137,0,0,0,2.721-.018,6.447,6.447,0,0,0,1.668-.978.627.627,0,0,0,0-.884.64.64,0,0,0-.884,0Z" fill="#a2d45e"/>
        </g>
      </g>
    </g>
    <g id="Group_5737" data-name="Group 5737">
      <g id="Group_5736" data-name="Group 5736">
        <g id="Group_5735" data-name="Group 5735">
          <path id="Path_2133" data-name="Path 2133" d="M1060.2,953.453a5.544,5.544,0,0,0,.177,1.241,4.17,4.17,0,0,0,.907,1.84,2.444,2.444,0,0,0,1.09.687.625.625,0,1,0,.333-1.205c-.033-.011-.065-.024-.1-.034-.1-.032.119.059.023.012a2.264,2.264,0,0,1-.2-.112c-.027-.018-.055-.037-.081-.056-.089-.058.1.088.022.018-.056-.052-.113-.1-.166-.158s-.083-.1-.129-.148c0,0,.083.115.047.062a.42.42,0,0,0-.029-.04l-.073-.11a3.2,3.2,0,0,1-.206-.378c-.014-.029-.026-.061-.04-.09-.005-.008.053.136.031.074-.006-.016-.013-.031-.019-.046-.025-.066-.049-.132-.072-.2-.044-.128-.082-.259-.115-.39s-.058-.243-.08-.366c-.011-.055-.02-.112-.029-.166,0-.025-.006-.049-.01-.074-.019-.118.009.085.007.065-.013-.143-.034-.284-.035-.427a.625.625,0,0,0-1.25,0Z" fill="#a2d45e"/>
        </g>
      </g>
    </g>
    <g id="Group_5740" data-name="Group 5740">
      <g id="Group_5739" data-name="Group 5739">
        <g id="Group_5738" data-name="Group 5738">
          <path id="Path_2134" data-name="Path 2134" d="M1056.556,958.336a5.532,5.532,0,0,0,3.835,4.468,8.115,8.115,0,0,0,4.574-.365,6.6,6.6,0,0,0,1.231-.519.626.626,0,0,0-.632-1.079,2.454,2.454,0,0,1-.262.13l-.1.045c-.146.067.085-.034-.017.007s-.213.086-.321.127a10.136,10.136,0,0,1-1.728.479,4.638,4.638,0,0,1-3.876-.772,5.191,5.191,0,0,1-1.5-2.854c-.178-.784-1.383-.452-1.2.333Z" fill="#a2d45e"/>
        </g>
      </g>
    </g>
  </g>
  <g id="Group_5743" data-name="Group 5743" transform="translate(-869.962 -786.071)">
    <g id="Group_5742" data-name="Group 5742">
      <path id="Path_2135" data-name="Path 2135" d="M1004.921,943.408s9.91-3.793,11.94-5.717,7.87-13.28,7.87-13.28l-.421,1.694s-4.746,11.459-6.418,12.8S1004.921,943.408,1004.921,943.408Z" fill="#062842"/>
    </g>
  </g>
  <g id="Group_5745" data-name="Group 5745" transform="translate(-869.962 -786.071)">
    <g id="Group_5744" data-name="Group 5744">
      <path id="Path_2136" data-name="Path 2136" d="M1006.941,901.906c-1.883-1.049-1.959,11.886-.7,17.449s4.825-10.5,4.825-10.5v-5.349l.242-.688A16.637,16.637,0,0,1,1006.941,901.906Z" fill="#003b71"/>
    </g>
  </g>
</svg>
