<svg id="Component_11_1" data-name="Component 11 – 1" xmlns="http://www.w3.org/2000/svg" width="223.607" height="198.712" viewBox="0 0 223.607 198.712">
  <g id="Group_3961" data-name="Group 3961" transform="translate(-41.893 1916.328)">
    <g id="Group_3960" data-name="Group 3960">
      <path id="Path_1258" data-name="Path 1258" d="M196.51-1736.252a158.873,158.873,0,0,0,29.138-17.32c10.056-7.416,18.858-17.12,24.161-28.548,3.946-8.505,5.467-18.495,2.3-27.32-7.455-20.769-28.595-13.054-44.6-19.577-14.706-5.994-20.067-22.481-28.382-34.61-5.683-8.288-14.042-17.869-25.066-16.123-10.8,1.711-18.917,10.959-29.226,14.2-3.494,1.1-7.207,1.206-10.84,1.675-27.378,3.533-47.813,27.3-48.749,54.481-.835,24.267,11.6,48.621,30.442,63.592a71.235,71.235,0,0,0,16.427,9.833c15.49,6.575,32.979,10.043,50.089,8.772A102.657,102.657,0,0,0,196.51-1736.252Z" fill="#f7f7f7"/>
    </g>
  </g>
  <g id="Group_3963" data-name="Group 3963" transform="translate(-41.893 1916.328)">
    <g id="Group_3962" data-name="Group 3962">
      <ellipse id="Ellipse_2" data-name="Ellipse 2" cx="111.804" cy="6.212" rx="111.804" ry="6.212" transform="translate(41.893 -1730.04)" fill="#f7f7f7"/>
    </g>
  </g>
  <g id="Group_4034" data-name="Group 4034" transform="translate(-41.893 1916.328)">
    <g id="Group_3965" data-name="Group 3965">
      <g id="Group_3964" data-name="Group 3964">
        <path id="Path_1259" data-name="Path 1259" d="M51.306-1750.318a21.191,21.191,0,0,1,6.841-3.86c9.823-3.29,21.669,1.272,26.748,10.3,2.012,3.578,4,8.384,8.1,8.4,4.033.017,4.669-3.828,7.177-5.894,2.04-1.682,4.639-1.631,7.053-1.069,4.232.987,8.284,3.424,12.676,3.627,5.21.242,8.726-3.359,13.217-5.326a19.411,19.411,0,0,1,16.726.679,19.406,19.406,0,0,1,9.772,13.591,2.383,2.383,0,0,1-.369,2.14,2.525,2.525,0,0,1-1.8.471q-55.583,0-111.169.007a3.5,3.5,0,0,1-2.533-.671,3.235,3.235,0,0,1-.741-1.924A23.29,23.29,0,0,1,51.306-1750.318Z" fill="#e0ecb6"/>
      </g>
    </g>
    <g id="Group_3978" data-name="Group 3978">
      <g id="Group_3968" data-name="Group 3968">
        <g id="Group_3967" data-name="Group 3967">
          <g id="Group_3966" data-name="Group 3966">
            <path id="Path_1260" data-name="Path 1260" d="M56.039-1748.713a20.36,20.36,0,0,1,6.1,7.232,29.538,29.538,0,0,1,3.6,13.962.625.625,0,0,0,1.25,0,30.869,30.869,0,0,0-3.775-14.593,21.673,21.673,0,0,0-6.545-7.68c-.672-.446-1.3.636-.631,1.079Z" fill="#a2d45e"/>
          </g>
        </g>
      </g>
      <g id="Group_3971" data-name="Group 3971">
        <g id="Group_3970" data-name="Group 3970">
          <g id="Group_3969" data-name="Group 3969">
            <path id="Path_1261" data-name="Path 1261" d="M61.321-1748.849c-.044-.3-.008-.048,0,.043.009.118.014.237.016.355,0,.154,0,.309-.009.464-.005.087-.012.173-.019.259,0,.042-.009.083-.014.125-.012.113.025-.161,0,.017a4.321,4.321,0,0,1-.119.553c-.025.086-.052.171-.083.254-.009.023-.019.046-.027.07-.026.062-.019.047.018-.045a.686.686,0,0,0-.064.137,2.406,2.406,0,0,1-.132.224c-.014.022-.029.041-.042.062-.039.053-.029.04.03-.038a.889.889,0,0,0-.1.111c-.025.027-.05.053-.078.078s-.036.033-.054.05c-.051.042-.038.032.039-.028a2.832,2.832,0,0,0-.259.158.629.629,0,0,0-.224.855.642.642,0,0,0,.856.225c1.281-.647,1.564-2.316,1.528-3.612a5.467,5.467,0,0,0-.057-.65.625.625,0,0,0-.768-.435.643.643,0,0,0-.437.768Z" fill="#a2d45e"/>
          </g>
        </g>
      </g>
      <g id="Group_3974" data-name="Group 3974">
        <g id="Group_3973" data-name="Group 3973">
          <g id="Group_3972" data-name="Group 3972">
            <path id="Path_1262" data-name="Path 1262" d="M57.668-1741.933a6.008,6.008,0,0,0,1.7.715,3.066,3.066,0,0,0,2.787-.429.626.626,0,0,0,0-.884.643.643,0,0,0-.883,0c.12-.1.008-.008-.022.011a1.217,1.217,0,0,1-.136.079c-.021.011-.157.06-.066.035l-.071.021c-.053.016-.226.087-.282.065l.078-.01-.089.009c-.046,0-.09.005-.136.007-.09,0-.182,0-.273-.006-.045,0-.09-.008-.135-.012-.157-.014.138.025-.016,0a5.311,5.311,0,0,1-.553-.125c-.17-.049-.338-.108-.5-.172l-.11-.044c-.112-.045.125.058.01,0l-.191-.087a4.224,4.224,0,0,1-.474-.254.631.631,0,0,0-.856.225.638.638,0,0,0,.225.854Z" fill="#a2d45e"/>
          </g>
        </g>
      </g>
      <g id="Group_3977" data-name="Group 3977">
        <g id="Group_3976" data-name="Group 3976">
          <g id="Group_3975" data-name="Group 3975">
            <path id="Path_1263" data-name="Path 1263" d="M59.98-1736.088c2.034.779,4.326.838,6.023-.692a7.741,7.741,0,0,0,2.142-4.022,6.339,6.339,0,0,0,.21-1.341.625.625,0,0,0-1.25,0,2.987,2.987,0,0,1-.028.3c.027-.259-.008.046-.019.116-.02.119-.042.237-.067.353a9.673,9.673,0,0,1-.531,1.747c.048-.114-.03.066-.047.1-.038.085-.079.17-.12.254q-.122.245-.262.478a4.166,4.166,0,0,1-.6.813,3.467,3.467,0,0,1-1.777,1.091,5.751,5.751,0,0,1-3.346-.407.631.631,0,0,0-.77.436.641.641,0,0,0,.437.77Z" fill="#a2d45e"/>
          </g>
        </g>
      </g>
    </g>
    <g id="Group_3981" data-name="Group 3981">
      <g id="Group_3980" data-name="Group 3980">
        <g id="Group_3979" data-name="Group 3979">
          <path id="Path_1264" data-name="Path 1264" d="M126.453-1727.027c2.885-3.905,8.6-4.84,13.131-4.737,4.428.1,9.877,1.2,12.787,4.864.5.628,1.379-.261.884-.885-3.167-3.987-9.153-5.178-13.967-5.235-4.962-.057-10.8,1.142-13.914,5.362-.478.647.606,1.271,1.079.631Z" fill="#a2d45e"/>
        </g>
      </g>
    </g>
    <g id="Group_3984" data-name="Group 3984">
      <g id="Group_3983" data-name="Group 3983">
        <g id="Group_3982" data-name="Group 3982">
          <path id="Path_1265" data-name="Path 1265" d="M128-1734.2a4.356,4.356,0,0,0,.615.043c.144.006.286.016.429.031l.106.013c.159.016-.113-.02-.007,0,.088.013.177.027.266.044a5.462,5.462,0,0,1,.568.138c.091.029.183.06.273.093.043.017.085.035.128.051-.171-.063,0,0,.051.025a3.847,3.847,0,0,1,.563.334c.125.088-.057-.057.024.018.042.039.087.073.129.111a3.376,3.376,0,0,1,.244.25c.019.024.038.047.057.068.1.11-.046-.072,0,0s.081.114.119.172a4.3,4.3,0,0,1,.208.384c.011.025.043.109,0-.01l.037.1c.028.075.053.151.076.228a4.142,4.142,0,0,1,.12.53.631.631,0,0,0,.77.436.639.639,0,0,0,.436-.768,3.929,3.929,0,0,0-1.88-2.786,5.785,5.785,0,0,0-2.512-.695c-.138-.009-.278-.015-.418-.019-.1,0-.371-.048-.066.01a.64.64,0,0,0-.769.436.632.632,0,0,0,.437.769Z" fill="#a2d45e"/>
        </g>
      </g>
    </g>
    <g id="Group_3987" data-name="Group 3987">
      <g id="Group_3986" data-name="Group 3986">
        <g id="Group_3985" data-name="Group 3985">
          <path id="Path_1266" data-name="Path 1266" d="M130.345-1737.063c.05.108.13.2.19.308s.107.188.154.286c.027.056.09.25.025.05.02.063.049.123.069.186.043.129.051.282.1.407-.025-.062-.015-.137-.005-.024,0,.037.006.074.007.11,0,.075,0,.148-.006.222-.007.121.03-.142,0-.014-.009.038-.015.075-.025.113a.842.842,0,0,1-.027.095l-.018.057c-.019.05-.019.051,0,0s.021-.049,0,0c-.009.019-.019.037-.028.057-.02.038-.041.076-.064.113s-.05.074-.074.113-.017.024.027-.035c-.02.026-.041.05-.063.074a.638.638,0,0,0,0,.884.633.633,0,0,0,.884,0,2.409,2.409,0,0,0,.6-1.217,2.8,2.8,0,0,0-.079-1.193,4.083,4.083,0,0,0-.369-.853c-.071-.125-.167-.243-.227-.372a.629.629,0,0,0-.856-.225.642.642,0,0,0-.223.855Z" fill="#a2d45e"/>
        </g>
      </g>
    </g>
    <g id="Group_3990" data-name="Group 3990">
      <g id="Group_3989" data-name="Group 3989">
        <g id="Group_3988" data-name="Group 3988">
          <path id="Path_1267" data-name="Path 1267" d="M131.231-1733.742c-.138.092-.259.213-.389.317-.019.015-.037.028-.055.044.158-.135.086-.065.045-.036s-.1.071-.147.1a3.615,3.615,0,0,1-.333.2c-.059.03-.123.053-.18.086.156-.089.07-.03.022-.011l-.1.034c-.073.024-.146.044-.221.061-.034.006-.07.01-.1.019-.05.009-.025.005.076-.01l-.073.007a1.781,1.781,0,0,1-.22,0c-.037,0-.075-.009-.113-.01.175.006.066.008.015,0-.079-.017-.154-.043-.23-.066-.118-.036.119.058-.026-.012-.047-.023-.092-.048-.137-.074a.632.632,0,0,0-.855.225.635.635,0,0,0,.225.854,2.379,2.379,0,0,0,1.269.335,2.945,2.945,0,0,0,1.16-.3,4.052,4.052,0,0,0,.787-.508c.073-.056.144-.114.213-.173s.2-.139,0-.008a.636.636,0,0,0,.225-.855.634.634,0,0,0-.856-.223Z" fill="#a2d45e"/>
        </g>
      </g>
    </g>
    <g id="Group_4003" data-name="Group 4003">
      <g id="Group_3993" data-name="Group 3993">
        <g id="Group_3992" data-name="Group 3992">
          <g id="Group_3991" data-name="Group 3991">
            <path id="Path_1268" data-name="Path 1268" d="M79.568-1741.575a13.758,13.758,0,0,1-1.839,6.127,20.11,20.11,0,0,1-6.623,7.263c-.667.445-.042,1.528.631,1.079a21.433,21.433,0,0,0,7.071-7.711,15.11,15.11,0,0,0,2.01-6.758.625.625,0,0,0-1.25,0Z" fill="#a2d45e"/>
          </g>
        </g>
      </g>
      <g id="Group_3996" data-name="Group 3996">
        <g id="Group_3995" data-name="Group 3995">
          <g id="Group_3994" data-name="Group 3994">
            <path id="Path_1269" data-name="Path 1269" d="M81.706-1738.717l-.044.036c-.105.087.107-.079.054-.041s-.128.1-.194.139a4.323,4.323,0,0,1-.591.337c-.028.012-.056.023-.082.036.177-.087.083-.034.038-.017-.063.024-.125.046-.188.066s-.128.037-.192.052l-.09.017-.06.01.107-.015a.509.509,0,0,1-.195.011c-.035,0-.07,0-.1,0-.107-.005.162.031.049.008a1.577,1.577,0,0,1-.172-.043l-.057-.021.094.04a.35.35,0,0,1-.109-.058.636.636,0,0,0-.856.224.637.637,0,0,0,.225.856,2.339,2.339,0,0,0,2.142-.047,4.353,4.353,0,0,0,1.11-.7.63.63,0,0,0,0-.884.64.64,0,0,0-.884,0Z" fill="#a2d45e"/>
          </g>
        </g>
      </g>
      <g id="Group_3999" data-name="Group 3999">
        <g id="Group_3998" data-name="Group 3998">
          <g id="Group_3997" data-name="Group 3997">
            <path id="Path_1270" data-name="Path 1270" d="M76.272-1738.091a4.407,4.407,0,0,0,.128.951,3.268,3.268,0,0,0,.674,1.405,1.867,1.867,0,0,0,.834.54.632.632,0,0,0,.77-.437.638.638,0,0,0-.438-.768.256.256,0,0,0-.068-.025c-.007,0,.14.064.094.04a.336.336,0,0,0-.033-.015,1,1,0,0,1-.141-.083c-.084-.056.03.015.051.042a.568.568,0,0,0-.053-.044,1.406,1.406,0,0,1-.109-.108c-.015-.017-.03-.035-.045-.054-.069-.08.06.085.04.053s-.06-.085-.087-.129a2.694,2.694,0,0,1-.144-.277c-.04-.087.06.149.026.06l-.027-.066-.051-.146c-.029-.095-.056-.191-.08-.288s-.037-.171-.052-.257c-.008-.041-.014-.082-.02-.123-.021-.136.022.182,0,.037a2.645,2.645,0,0,1-.023-.308.634.634,0,0,0-.625-.625.634.634,0,0,0-.625.625Z" fill="#a2d45e"/>
          </g>
        </g>
      </g>
      <g id="Group_4002" data-name="Group 4002">
        <g id="Group_4001" data-name="Group 4001">
          <g id="Group_4000" data-name="Group 4000">
            <path id="Path_1271" data-name="Path 1271" d="M73.772-1734.508a4.117,4.117,0,0,0,2.77,3.358,5.483,5.483,0,0,0,3.243-.264,4.552,4.552,0,0,0,.895-.394c.676-.43.05-1.513-.63-1.079a1.991,1.991,0,0,1-.183.1l-.155.071c-.129.06.044-.015.023-.009-.043.014-.085.035-.127.051a6.543,6.543,0,0,1-1.178.344c-.059.012-.118.019-.177.031-.147.028.078-.005-.037.006-.132.013-.262.027-.394.032s-.237.005-.355,0c-.064,0-.127-.008-.191-.012l-.094-.011c.045.005.1.016.023,0-.127-.023-.254-.048-.378-.083-.062-.019-.124-.04-.185-.06l-.07-.025c-.071-.027.1.047-.009,0a3.336,3.336,0,0,1-.354-.193,1.174,1.174,0,0,0-.106-.072c.032.025-.107-.09-.142-.122-.061-.056-.119-.116-.176-.178-.021-.023-.162-.2-.1-.12a3.415,3.415,0,0,1-.3-.481,4.846,4.846,0,0,1-.4-1.217.633.633,0,0,0-.77-.436.635.635,0,0,0-.437.768Z" fill="#a2d45e"/>
          </g>
        </g>
      </g>
    </g>
    <g id="Group_4013" data-name="Group 4013">
      <g id="Group_4006" data-name="Group 4006">
        <g id="Group_4005" data-name="Group 4005">
          <g id="Group_4004" data-name="Group 4004">
            <path id="Path_1272" data-name="Path 1272" d="M113.747-1737.369c-4.393.3-6.45,4.706-7.193,8.52q-.085.437-.15.876c-.019.136-.038.272-.056.407-.026.2.027-.154,0-.022-.148.786,1.057,1.123,1.206.332.013-.077.021-.156.031-.234.024-.178-.024.158.006-.037.031-.215.063-.429.1-.643a18.274,18.274,0,0,1,.491-2.09,9.8,9.8,0,0,1,2.655-4.647,4.88,4.88,0,0,1,2.906-1.212c.8-.055.805-1.3,0-1.25Z" fill="#a2d45e"/>
          </g>
        </g>
      </g>
      <g id="Group_4009" data-name="Group 4009">
        <g id="Group_4008" data-name="Group 4008">
          <g id="Group_4007" data-name="Group 4007">
            <path id="Path_1273" data-name="Path 1273" d="M108.223-1738.771a2.863,2.863,0,0,0-.647,2.894,4.038,4.038,0,0,0,.517,1.207,1.519,1.519,0,0,0,.88.736.639.639,0,0,0,.768-.436.632.632,0,0,0-.436-.769.241.241,0,0,1-.067-.017c.016.008.174.077.08.027s.049.021.054.047c0-.016-.061-.054-.074-.066-.03-.03-.074-.11-.112-.125.066.086.08.1.042.052l-.029-.039-.064-.1c-.041-.066-.079-.134-.114-.2-.027-.05-.063-.194-.109-.227.037.088.043.1.018.038-.008-.02-.015-.038-.022-.058-.017-.045-.033-.09-.049-.136-.029-.087-.054-.175-.078-.265s-.043-.182-.059-.274c0-.029-.01-.057-.014-.085,0,.026.007.052.011.08a.56.56,0,0,1-.018-.174c-.006-.086-.008-.173-.007-.26,0-.057,0-.114.009-.172,0-.014,0-.028,0-.042.008-.07.006-.056-.006.039a1.215,1.215,0,0,1,.067-.288c.005-.019.026-.114.041-.118-.036.078-.042.1-.023.053q.012-.029.027-.057a1.8,1.8,0,0,1,.154-.251c-.093.133-.012.021.013-.006.04-.043.083-.084.126-.123a.627.627,0,0,0,0-.884.64.64,0,0,0-.883,0Z" fill="#a2d45e"/>
          </g>
        </g>
      </g>
      <g id="Group_4012" data-name="Group 4012">
        <g id="Group_4011" data-name="Group 4011">
          <g id="Group_4010" data-name="Group 4010">
            <path id="Path_1274" data-name="Path 1274" d="M107.928-1730.106c.072,0-.216-.048-.065,0-.177-.057-.1-.045-.013,0,.113.056.224.118.339.173a3.945,3.945,0,0,0,1.09.374,4.334,4.334,0,0,0,3.515-1.2.63.63,0,0,0,0-.884.639.639,0,0,0-.884,0,4.8,4.8,0,0,1-.828.569,2.28,2.28,0,0,1-.65.256c-.062.015-.123.029-.186.042-.035.007-.224.026-.064.012-.1.009-.209.017-.315.017s-.195-.01-.294-.018c.181.014.019,0-.024-.005s-.094-.019-.141-.03a4.259,4.259,0,0,1-.468-.15c-.106-.038.146.068-.006,0-.029-.014-.058-.026-.086-.04-.062-.029-.123-.061-.184-.092a1.618,1.618,0,0,0-.736-.266.636.636,0,0,0-.625.625.633.633,0,0,0,.625.625Z" fill="#a2d45e"/>
          </g>
        </g>
      </g>
    </g>
    <g id="Group_4023" data-name="Group 4023">
      <g id="Group_4016" data-name="Group 4016">
        <g id="Group_4015" data-name="Group 4015">
          <g id="Group_4014" data-name="Group 4014">
            <path id="Path_1275" data-name="Path 1275" d="M52.1-1737.378c-4.4.3-6.452,4.706-7.195,8.52-.056.291-.106.584-.149.877-.02.135-.038.271-.057.407-.025.195.028-.155,0-.023-.148.786,1.057,1.123,1.2.332.014-.077.022-.156.031-.234.025-.178-.023.157.006-.038.032-.214.064-.428.1-.642a18.763,18.763,0,0,1,.49-2.091,9.818,9.818,0,0,1,2.655-4.646,4.887,4.887,0,0,1,2.908-1.212c.8-.055.8-1.3,0-1.25Z" fill="#a2d45e"/>
          </g>
        </g>
      </g>
      <g id="Group_4019" data-name="Group 4019">
        <g id="Group_4018" data-name="Group 4018">
          <g id="Group_4017" data-name="Group 4017">
            <path id="Path_1276" data-name="Path 1276" d="M46.576-1738.779a2.864,2.864,0,0,0-.646,2.894,4.016,4.016,0,0,0,.516,1.206,1.527,1.527,0,0,0,.88.737.641.641,0,0,0,.769-.437.633.633,0,0,0-.437-.769.178.178,0,0,1-.066-.018c.015.009.175.078.08.028s.049.022.054.047c0-.015-.062-.054-.074-.066-.031-.03-.075-.111-.113-.125.066.087.08.1.042.052-.009-.012-.018-.026-.027-.04-.023-.031-.044-.064-.065-.1-.042-.067-.079-.134-.115-.2-.026-.05-.062-.194-.107-.227.036.088.042.1.016.038-.008-.019-.014-.038-.021-.058-.018-.044-.033-.09-.049-.136-.029-.087-.055-.176-.078-.265s-.043-.181-.059-.274a.856.856,0,0,1-.014-.086c0,.027.006.054.01.08a.581.581,0,0,1-.017-.173c-.006-.087-.008-.173-.007-.26,0-.057,0-.114.009-.172,0-.013,0-.028,0-.042.007-.07.005-.056-.006.039a1.17,1.17,0,0,1,.066-.287c.006-.021.026-.115.041-.119-.034.078-.042.1-.022.053a.418.418,0,0,1,.026-.057,2.225,2.225,0,0,1,.154-.252c-.092.134-.011.022.013-.005a1.651,1.651,0,0,1,.128-.123.629.629,0,0,0,0-.883.641.641,0,0,0-.885,0Z" fill="#a2d45e"/>
          </g>
        </g>
      </g>
      <g id="Group_4022" data-name="Group 4022">
        <g id="Group_4021" data-name="Group 4021">
          <g id="Group_4020" data-name="Group 4020">
            <path id="Path_1277" data-name="Path 1277" d="M46.281-1730.115c.073,0-.216-.049-.064,0-.178-.058-.1-.046-.014,0,.113.056.225.118.339.173a4.026,4.026,0,0,0,1.091.375,4.335,4.335,0,0,0,3.514-1.2.629.629,0,0,0,0-.884.637.637,0,0,0-.883,0,4.821,4.821,0,0,1-.828.569,2.3,2.3,0,0,1-.651.256c-.061.015-.123.03-.185.042-.036.006-.225.026-.065.013-.1.008-.209.016-.314.016s-.2-.01-.293-.017c.179.013.017,0-.026-.006s-.093-.019-.14-.03a4.036,4.036,0,0,1-.468-.15c-.1-.038.145.068-.006,0l-.087-.04c-.061-.03-.122-.06-.183-.092a1.622,1.622,0,0,0-.737-.266.637.637,0,0,0-.625.625.632.632,0,0,0,.625.625Z" fill="#a2d45e"/>
          </g>
        </g>
      </g>
    </g>
    <g id="Group_4033" data-name="Group 4033">
      <g id="Group_4026" data-name="Group 4026">
        <g id="Group_4025" data-name="Group 4025">
          <g id="Group_4024" data-name="Group 4024">
            <path id="Path_1278" data-name="Path 1278" d="M149.594-1742.228c-4.395.3-6.45,4.706-7.195,8.521q-.084.437-.149.877c-.02.135-.037.27-.056.406-.026.195.028-.154,0-.022-.147.786,1.057,1.123,1.2.332.014-.078.022-.157.032-.235.024-.177-.024.157,0-.038.033-.214.065-.428.1-.641a18.709,18.709,0,0,1,.49-2.091,9.817,9.817,0,0,1,2.657-4.647,4.891,4.891,0,0,1,2.906-1.212c.8-.053.8-1.3,0-1.25Z" fill="#a2d45e"/>
          </g>
        </g>
      </g>
      <g id="Group_4029" data-name="Group 4029">
        <g id="Group_4028" data-name="Group 4028">
          <g id="Group_4027" data-name="Group 4027">
            <path id="Path_1279" data-name="Path 1279" d="M144.068-1743.629a2.868,2.868,0,0,0-.646,2.9,4.016,4.016,0,0,0,.517,1.206,1.53,1.53,0,0,0,.879.736.641.641,0,0,0,.77-.437.634.634,0,0,0-.438-.769.18.18,0,0,1-.066-.018c.016.009.175.078.08.029s.049.021.054.046c0-.015-.062-.053-.073-.066-.031-.029-.076-.109-.113-.125.066.087.08.1.042.053-.01-.013-.019-.027-.028-.04-.023-.031-.044-.065-.065-.1-.041-.066-.079-.134-.115-.2-.026-.05-.061-.193-.107-.227.037.088.042.1.016.039l-.021-.058c-.017-.045-.033-.091-.049-.137-.029-.087-.055-.176-.078-.264s-.043-.182-.059-.275c0-.028-.009-.056-.014-.086,0,.028.007.054.01.08a.582.582,0,0,1-.017-.173c-.006-.087-.008-.172-.006-.259,0-.058,0-.115.008-.172l.005-.042c.008-.071.006-.057-.007.039a1.15,1.15,0,0,1,.066-.287c.007-.022.027-.116.041-.119-.034.078-.042.095-.022.052l.026-.056a2.021,2.021,0,0,1,.155-.252c-.093.134-.012.021.012-.005a1.653,1.653,0,0,1,.128-.123.63.63,0,0,0,0-.884.643.643,0,0,0-.885,0Z" fill="#a2d45e"/>
          </g>
        </g>
      </g>
      <g id="Group_4032" data-name="Group 4032">
        <g id="Group_4031" data-name="Group 4031">
          <g id="Group_4030" data-name="Group 4030">
            <path id="Path_1280" data-name="Path 1280" d="M143.774-1734.965c.072,0-.216-.049-.064,0-.179-.058-.1-.046-.015,0,.114.057.225.118.34.174a4.053,4.053,0,0,0,1.09.375,4.337,4.337,0,0,0,3.516-1.2.634.634,0,0,0,0-.885.64.64,0,0,0-.885,0,4.729,4.729,0,0,1-.828.569,2.3,2.3,0,0,1-.651.256c-.061.016-.123.031-.185.042-.034.006-.225.027-.064.013-.1.009-.21.017-.314.017s-.2-.01-.294-.018c.18.014.018,0-.024-.006s-.1-.018-.142-.029a4.025,4.025,0,0,1-.467-.151c-.106-.038.145.069-.007,0l-.087-.039-.182-.092a1.62,1.62,0,0,0-.737-.267.637.637,0,0,0-.625.625.632.632,0,0,0,.625.625Z" fill="#a2d45e"/>
          </g>
        </g>
      </g>
    </g>
  </g>
  <g id="Group_4059" data-name="Group 4059" transform="translate(-41.893 1916.328)">
    <g id="Group_4037" data-name="Group 4037">
      <g id="Group_4036" data-name="Group 4036">
        <g id="Group_4035" data-name="Group 4035">
          <path id="Path_1281" data-name="Path 1281" d="M169.113-1897.087c1.458-1.008,3.956-.78,6.075.556a7.058,7.058,0,0,1,2.847,3.258,3.218,3.218,0,0,1-.084,2.94,2.548,2.548,0,0,1-.709.733c-1.459,1.008-3.957.781-6.075-.554-2.587-1.633-3.853-4.471-2.763-6.2a2.534,2.534,0,0,1,.709-.733m-.758-1.1a3.873,3.873,0,0,0-1.079,1.118c-1.5,2.384-.079,5.982,3.18,8.038,2.646,1.668,5.689,1.806,7.544.523a3.843,3.843,0,0,0,1.078-1.118c1.5-2.384.079-5.982-3.18-8.036-2.645-1.669-5.688-1.807-7.543-.525Z" fill="#079aa3"/>
        </g>
      </g>
    </g>
    <g id="Group_4040" data-name="Group 4040">
      <g id="Group_4039" data-name="Group 4039">
        <g id="Group_4038" data-name="Group 4038">
          <path id="Path_1282" data-name="Path 1282" d="M187.674-1909.918h0a2.517,2.517,0,0,1,.935-.4c2-.409,4.21,1.777,4.823,4.775.5,2.452-.167,4.87-1.626,5.879a2.551,2.551,0,0,1-.937.4,3.218,3.218,0,0,1-2.78-.96,7.048,7.048,0,0,1-2.042-3.814c-.5-2.453.167-4.871,1.627-5.88m-.759-1.1c-1.854,1.283-2.8,4.178-2.175,7.242.772,3.775,3.636,6.378,6.4,5.814a3.879,3.879,0,0,0,1.428-.614c1.855-1.283,2.8-4.178,2.174-7.243-.772-3.775-3.634-6.377-6.4-5.813a3.842,3.842,0,0,0-1.428.614Z" fill="#079aa3"/>
        </g>
      </g>
    </g>
    <g id="Group_4042" data-name="Group 4042">
      <g id="Group_4041" data-name="Group 4041">
        <path id="Path_1283" data-name="Path 1283" d="M187.522-1890.172h0c-3.706,2.562-9.254,1.241-13-3.094l-9.4-8.764,18.84-13.025,5.129,11.406C191.969-1898.575,191.292-1892.777,187.522-1890.172Z" fill="#00b0c4"/>
      </g>
    </g>
    <g id="Group_4044" data-name="Group 4044" opacity="0.57">
      <g id="Group_4043" data-name="Group 4043">
        <path id="Path_1284" data-name="Path 1284" d="M187.014-1891.247c-3.983-.138-6.28-.179-9.69-2.29-3.451-2.135-8.141-6.749-9.174-10.714l-3.027,2.093,9.4,8.764c3.743,4.335,9.291,5.656,13,3.094h0a7.108,7.108,0,0,0,1.076-.93Q187.8-1891.22,187.014-1891.247Z" fill="#54565a"/>
      </g>
    </g>
    <g id="Group_4046" data-name="Group 4046">
      <g id="Group_4045" data-name="Group 4045">
        <rect id="Rectangle_2986" data-name="Rectangle 2986" width="3.427" height="9.781" transform="matrix(0.823, -0.568, 0.568, 0.823, 185.988, -1889.544)" fill="#079aa3"/>
      </g>
    </g>
    <g id="Group_4048" data-name="Group 4048">
      <g id="Group_4047" data-name="Group 4047">
        <rect id="Rectangle_2987" data-name="Rectangle 2987" width="9.052" height="3.13" transform="matrix(0.823, -0.569, 0.569, 0.823, 187.17, -1882.636)" fill="#00b0c4"/>
      </g>
    </g>
    <g id="Group_4050" data-name="Group 4050" opacity="0.57">
      <g id="Group_4049" data-name="Group 4049">
        <rect id="Rectangle_2988" data-name="Rectangle 2988" width="9.052" height="1.285" transform="translate(187.082 -1882.575) rotate(-34.661)" fill="#54565a"/>
      </g>
    </g>
    <g id="Group_4052" data-name="Group 4052">
      <g id="Group_4051" data-name="Group 4051">
        <rect id="Rectangle_2989" data-name="Rectangle 2989" width="12.501" height="2.679" transform="translate(187.403 -1879.267) rotate(-34.655)" fill="#079aa3"/>
      </g>
    </g>
    <g id="Group_4054" data-name="Group 4054" opacity="0.57">
      <g id="Group_4053" data-name="Group 4053">
        <rect id="Rectangle_2990" data-name="Rectangle 2990" width="1.574" height="2.679" transform="matrix(0.823, -0.568, 0.568, 0.823, 187.403, -1879.267)" fill="#54565a"/>
      </g>
    </g>
    <g id="Group_4056" data-name="Group 4056">
      <g id="Group_4055" data-name="Group 4055">
        <rect id="Rectangle_2991" data-name="Rectangle 2991" width="24.599" height="2.679" transform="matrix(0.823, -0.569, 0.569, 0.823, 163.9, -1902.339)" fill="#079aa3"/>
      </g>
    </g>
    <g id="Group_4058" data-name="Group 4058">
      <g id="Group_4057" data-name="Group 4057">
        <path id="Path_1285" data-name="Path 1285" d="M184.756-1908.011l1.9.343-1.953.484-.977,3.046-.012-3.1-1.867-1.237,2.035.3.826-2.205Z" fill="#fff"/>
      </g>
    </g>
  </g>
  <g id="Group_4061" data-name="Group 4061" transform="translate(-41.893 1916.328)">
    <g id="Group_4060" data-name="Group 4060">
      <path id="Path_1286" data-name="Path 1286" d="M144.054-1775.286c-4.578.2-7.706-.439-11.673-3.891-2.654,13.357-7.734,40.927-9.01,46.28a11.765,11.765,0,0,0,6.553,0S141.127-1759.324,144.054-1775.286Z" fill="#ffcc8b"/>
    </g>
  </g>
  <g id="Group_4063" data-name="Group 4063" transform="translate(-41.893 1916.328)">
    <g id="Group_4062" data-name="Group 4062">
      <path id="Path_1287" data-name="Path 1287" d="M157.456-1775.286c4.577.2,7.706-.439,11.673-3.891,2.653,13.357,8.053,40.927,9.328,46.28,0,0-1.866,1-5.733,0C172.724-1732.9,160.382-1759.324,157.456-1775.286Z" fill="#ffcc8b"/>
    </g>
  </g>
  <g id="Group_4111" data-name="Group 4111" transform="translate(-41.893 1916.328)">
    <g id="Group_4096" data-name="Group 4096">
      <g id="Group_4065" data-name="Group 4065">
        <g id="Group_4064" data-name="Group 4064">
          <path id="Path_1288" data-name="Path 1288" d="M226.287-1743.286c.246-.1.514-.291.5-.556-.013-.3-.36-.451-.656-.51a4.964,4.964,0,0,0-4.471,1.446l-.019.1a6.944,6.944,0,0,0-4.009-2.25c-.343-.059-.761-.062-.957.22a.644.644,0,0,0,.018.694,1.613,1.613,0,0,0,.545.488,6.964,6.964,0,0,0,4.453,1l-.029-.132v0C223.174-1743.162,224.85-1742.682,226.287-1743.286Z" fill="#d8e081"/>
        </g>
      </g>
      <g id="Group_4067" data-name="Group 4067">
        <g id="Group_4066" data-name="Group 4066">
          <path id="Path_1289" data-name="Path 1289" d="M226.679-1738.628a.82.82,0,0,0,.47-.281.606.606,0,0,0-.107-.718,1.418,1.418,0,0,0-.685-.356,4.758,4.758,0,0,0-4.585,1.247l-.07.156a7.523,7.523,0,0,0-3.886-3.237c-.342-.126-.787-.2-1.015.084a.615.615,0,0,0-.053.619,1.574,1.574,0,0,0,.4.508,7.972,7.972,0,0,0,4.58,2.088l-.007-.021q1.748.015,3.493.034A5.364,5.364,0,0,0,226.679-1738.628Z" fill="#d8e081"/>
        </g>
      </g>
      <g id="Group_4069" data-name="Group 4069">
        <g id="Group_4068" data-name="Group 4068">
          <path id="Path_1290" data-name="Path 1290" d="M221.229-1730.371a11.264,11.264,0,0,0,4.864,1.132c.316,0,.7-.05.833-.339.143-.315-.127-.658-.408-.859a4.122,4.122,0,0,0-2.677-.631,12.372,12.372,0,0,0-2.736.624Z" fill="#d8e081"/>
        </g>
      </g>
      <g id="Group_4071" data-name="Group 4071">
        <g id="Group_4070" data-name="Group 4070">
          <path id="Path_1291" data-name="Path 1291" d="M225.244-1751.635c-.039-.359-.457-.54-.818-.58a3.481,3.481,0,0,0-2.263.634,5.941,5.941,0,0,0-1.615,1.74l0,.008a6.182,6.182,0,0,0-2.577-1.53,1.448,1.448,0,0,0-.82.015.69.69,0,0,0-.464.621.913.913,0,0,0,.538.686,5.986,5.986,0,0,0,3.195.476l.189-.1a13.679,13.679,0,0,0,3.953-1.171C224.9-1751,225.285-1751.265,225.244-1751.635Z" fill="#d8e081"/>
        </g>
      </g>
      <g id="Group_4073" data-name="Group 4073">
        <g id="Group_4072" data-name="Group 4072">
          <path id="Path_1292" data-name="Path 1292" d="M224.108-1754.77a.711.711,0,0,0-.373-.54,1.363,1.363,0,0,0-.657-.158,3.377,3.377,0,0,0-1.931.63,8.108,8.108,0,0,0-1.494,1.41l.184-.005a20.178,20.178,0,0,0,3.223-.417,1.952,1.952,0,0,0,.7-.279A.755.755,0,0,0,224.108-1754.77Z" fill="#d8e081"/>
        </g>
      </g>
      <g id="Group_4075" data-name="Group 4075">
        <g id="Group_4074" data-name="Group 4074">
          <path id="Path_1293" data-name="Path 1293" d="M226.084-1734.1a2.025,2.025,0,0,0,1.042-.114.7.7,0,0,0,.382-.87.942.942,0,0,0-.63-.4,5.827,5.827,0,0,0-5.117,1.106Z" fill="#d8e081"/>
        </g>
      </g>
      <g id="Group_4077" data-name="Group 4077">
        <g id="Group_4076" data-name="Group 4076">
          <path id="Path_1294" data-name="Path 1294" d="M219.73-1753.4l-.118.022a5.821,5.821,0,0,0-3.579-1.644,1.508,1.508,0,0,0-.662.057.611.611,0,0,0-.415.479c-.035.354.323.614.649.761A6.148,6.148,0,0,0,219.73-1753.4Z" fill="#d8e081"/>
        </g>
      </g>
      <g id="Group_4079" data-name="Group 4079">
        <g id="Group_4078" data-name="Group 4078">
          <path id="Path_1295" data-name="Path 1295" d="M217.852-1758.256a7.291,7.291,0,0,0-3.056-5.176,1.73,1.73,0,0,0-.589-.3.709.709,0,0,0-.625.133c-.3.273-.192.758-.024,1.122.838,1.811,2.588,3.008,4.258,4.114Z" fill="#d8e081"/>
        </g>
      </g>
      <g id="Group_4081" data-name="Group 4081">
        <g id="Group_4080" data-name="Group 4080">
          <path id="Path_1296" data-name="Path 1296" d="M221.252-1745.839l.028-.037-.034.006.014-.011a5.17,5.17,0,0,0-3.858-2.5c-.367-.023-.812.053-.955.393-.155.369.164.76.482,1a5.841,5.841,0,0,0,4.26,1.155l.029-.023Z" fill="#d8e081"/>
        </g>
      </g>
      <g id="Group_4083" data-name="Group 4083">
        <g id="Group_4082" data-name="Group 4082">
          <path id="Path_1297" data-name="Path 1297" d="M218.594-1756.032l.127-.079a10.187,10.187,0,0,0-1.871-1.311,4.648,4.648,0,0,0-2.2-.554,1.425,1.425,0,0,0-.674.147.674.674,0,0,0-.374.547c-.012.388.385.651.747.8A7.38,7.38,0,0,0,218.594-1756.032Z" fill="#d8e081"/>
        </g>
      </g>
      <g id="Group_4085" data-name="Group 4085">
        <g id="Group_4084" data-name="Group 4084">
          <path id="Path_1298" data-name="Path 1298" d="M225.878-1747.859a.764.764,0,0,0-.579-.34,3.218,3.218,0,0,0-2.349.577,6.968,6.968,0,0,0-1.67,1.746,20.539,20.539,0,0,0,3.84-.949,1.662,1.662,0,0,0,.623-.367A.612.612,0,0,0,225.878-1747.859Z" fill="#d8e081"/>
        </g>
      </g>
      <g id="Group_4087" data-name="Group 4087">
        <g id="Group_4086" data-name="Group 4086">
          <path id="Path_1299" data-name="Path 1299" d="M221.728-1734.35c.01-.006.02-.017.033-.025a.209.209,0,0,1-.044,0l-.014-.03a8.013,8.013,0,0,0-3.152-4.328,1.025,1.025,0,0,0-.927-.234.826.826,0,0,0-.363.949,3.089,3.089,0,0,0,1.193,1.627,17.386,17.386,0,0,0,3.18,2.1v0l-.025.048c.016-.015.032-.025.047-.04a1.3,1.3,0,0,0,.128.069Z" fill="#d8e081"/>
        </g>
      </g>
      <g id="Group_4089" data-name="Group 4089">
        <g id="Group_4088" data-name="Group 4088">
          <path id="Path_1300" data-name="Path 1300" d="M221.1-1730.467c-.033-.018-.064-.033-.1-.054.015.079.032.161.045.24Z" fill="#d8e081"/>
        </g>
      </g>
      <g id="Group_4091" data-name="Group 4091">
        <g id="Group_4090" data-name="Group 4090">
          <path id="Path_1301" data-name="Path 1301" d="M217.4-1735.8a1.688,1.688,0,0,0-.679-.2.741.741,0,0,0-.627.278.866.866,0,0,0-.084.693,3.418,3.418,0,0,0,1,1.548,16.09,16.09,0,0,0,4,2.954,8.972,8.972,0,0,0-1.123-2.968A6.017,6.017,0,0,0,217.4-1735.8Z" fill="#d8e081"/>
        </g>
      </g>
      <g id="Group_4093" data-name="Group 4093">
        <g id="Group_4092" data-name="Group 4092">
          <path id="Path_1302" data-name="Path 1302" d="M214.772-1730.839a.73.73,0,0,0-.083.568,1.683,1.683,0,0,0,.249.535,8.723,8.723,0,0,0,2.345,2.393,23.1,23.1,0,0,0,2.82,1.668l-.117.075a12.493,12.493,0,0,0,4.568.571,1.729,1.729,0,0,0,.741-.166.625.625,0,0,0,.34-.628c-.052-.262-.316-.425-.559-.533a4.874,4.874,0,0,0-4.894.627v-.022a7.344,7.344,0,0,0-2.92-4.692,3.243,3.243,0,0,0-1.682-.7A.9.9,0,0,0,214.772-1730.839Z" fill="#d8e081"/>
        </g>
      </g>
      <g id="Group_4095" data-name="Group 4095">
        <g id="Group_4094" data-name="Group 4094">
          <path id="Path_1303" data-name="Path 1303" d="M218.912-1723.63a43.948,43.948,0,0,0-2.01-34.444c-.329-.663.757-1.06,1.082-.4a45.067,45.067,0,0,1,1.973,35.336C219.707-1722.445,218.663-1722.938,218.912-1723.63Z" fill="#d8e081"/>
        </g>
      </g>
    </g>
    <g id="Group_4104" data-name="Group 4104">
      <g id="Group_4098" data-name="Group 4098">
        <g id="Group_4097" data-name="Group 4097">
          <path id="Path_1304" data-name="Path 1304" d="M219.062-1722.831l-.265-.1c.016.084.035.167.058.25Z" fill="#00a3a1"/>
        </g>
      </g>
      <g id="Group_4101" data-name="Group 4101" opacity="0.4">
        <g id="Group_4100" data-name="Group 4100">
          <g id="Group_4099" data-name="Group 4099">
            <path id="Path_1305" data-name="Path 1305" d="M218.8-1722.93a10.475,10.475,0,0,1,.9-5.568,29.639,29.639,0,0,0,1.966-5.848,1.271,1.271,0,0,0-.25-1.209,1.449,1.449,0,0,0-1.664.252,4.151,4.151,0,0,0-1.023,1.485,13.764,13.764,0,0,0-1.158-7.479q-1,1.211-2.006,2.419a12.38,12.38,0,0,0-1.923-5.875,1.544,1.544,0,0,0-1.611-.884c-.808.208-1.156,1.118-1.325,1.848a12.353,12.353,0,0,0-7.41-5.945,2.866,2.866,0,0,0-2.775.29,2.247,2.247,0,0,0-.288,2.526,32.131,32.131,0,0,0,3.308,6.72,4.834,4.834,0,0,0-2.18-.15c-.758.169-1.541.781-1.579,1.457-.032.609.516,1.012,1.025,1.332q2.921,1.844,6.051,3.436c-.92.113-2.11.441-2.323,1.265-.179.7.521,1.157,1.149,1.456,1.732.824,3.509,1.593,5.318,2.3a1.582,1.582,0,0,0-1.588,1.043,1.512,1.512,0,0,0,.5,1.593,5.053,5.053,0,0,0,1.616.833Z" fill="#00abc4"/>
          </g>
        </g>
      </g>
      <g id="Group_4103" data-name="Group 4103">
        <g id="Group_4102" data-name="Group 4102">
          <path id="Path_1306" data-name="Path 1306" d="M204.834-1746.775a80.133,80.133,0,0,1,6.741,9.435,21.759,21.759,0,0,0,.132-3.708c-.018-.368.555-.321.572.043a21.9,21.9,0,0,1-.225,4.439h0q1.923,3.228,3.545,6.625.393-2.817.789-5.636c.051-.365.623-.324.571.043q-.439,3.145-.88,6.293a.274.274,0,0,1-.079.158c.62,1.339,1.217,2.689,1.764,4.063.135.342-.379.6-.516.252-.576-1.447-1.208-2.867-1.866-4.274a.292.292,0,0,1-.064-.017l-4.2-2.121c-.324-.164-.136-.707.195-.54l3.684,1.86c-1.1-2.279-2.287-4.508-3.591-6.671a.291.291,0,0,1-.126-.009,30.747,30.747,0,0,1-5.446-2.074c-.326-.162-.138-.7.194-.541a30.514,30.514,0,0,0,4.944,1.923,79.919,79.919,0,0,0-6.572-9.17C204.163-1746.686,204.6-1747.061,204.834-1746.775Z" fill="#00aeb4"/>
        </g>
      </g>
    </g>
    <g id="Group_4110" data-name="Group 4110">
      <g id="Group_4107" data-name="Group 4107" opacity="0.4">
        <g id="Group_4106" data-name="Group 4106">
          <g id="Group_4105" data-name="Group 4105">
            <path id="Path_1307" data-name="Path 1307" d="M220.2-1734.909a3.078,3.078,0,0,0,.216,2.429q1.536,4.009,3.4,7.882l-.144.114,7.438-.015a3.955,3.955,0,0,0,1.553-.207,1.218,1.218,0,0,0,.286-2.228,2.693,2.693,0,0,0-.68-.382l-3.28-1.313c-.369-.148-.8-.385-.705-.827a.681.681,0,0,1,.43-.469,8.645,8.645,0,0,1,5.084-.308,3.944,3.944,0,0,0,1.455.211c.661-.092,1.324-.765.728-1.5a1.511,1.511,0,0,0-.474-.371,16.329,16.329,0,0,0-3.647-1.361c-.656-.158-1.511-.514-1.31-1.227a.882.882,0,0,1,.664-.608,11.7,11.7,0,0,1,4.55-.106,3.045,3.045,0,0,0,1.131.073c.512-.107,1-.625.591-1.219a1.192,1.192,0,0,0-.656-.445l-3.547-1.033c-.419-.123-.917-.323-.885-.827a.792.792,0,0,1,.634-.707,13.741,13.741,0,0,1,4.989-.134,2.123,2.123,0,0,0,1.553-.118.741.741,0,0,0,.353-.716c-.064-.416-.464-.567-.821-.68l-3.784-1.2a.264.264,0,0,1-.012-.5,10.213,10.213,0,0,1,4.661-.512,3.151,3.151,0,0,0,1.177.02c.537-.14,1.026-.732.492-1.321a1.266,1.266,0,0,0-.523-.334,21.318,21.318,0,0,0-3.571-.933q1.269-1.222,2.537-2.449c.621-.6,1.3-1.342,1.021-2.225a1.524,1.524,0,0,0-1.371-1.014,2.84,2.84,0,0,0-2.461,1.465,2.932,2.932,0,0,1-1.109,1.217.869.869,0,0,1-.82-.038c-.416-.275-.367-.792-.378-1.245-.01-.4-.163-.875-.552-.943a.725.725,0,0,0-.576.195,2.356,2.356,0,0,0-.525,2.163c.13.938.412,1.93-.2,2.776a1.082,1.082,0,0,1-1.445.336c-.486-.314-.481-.931-.593-1.46s-.558-1.118-1.1-.839a.815.815,0,0,0-.346.4c-.52,1.175-.175,2.486.038,3.733a5.5,5.5,0,0,1-.026,2.379.588.588,0,0,1-1.079.114l-1.328-2.382c-.148-.266-.327-.556-.687-.532a.61.61,0,0,0-.464.3,1.579,1.579,0,0,0-.036,1.249q.584,2.352,1.17,4.7c.135.543.245,1.195-.234,1.566a1.019,1.019,0,0,1-1.268-.075c-.77-.63-.779-1.624-1.184-2.436-.244-.491-.853-.957-1.3-.493a.79.79,0,0,0-.169.77,26.522,26.522,0,0,0,1.779,4.459,2.445,2.445,0,0,1,.41,1.812.858.858,0,0,1-.929.643c-.428-.072-.658-.5-.838-.886q-.42-.9-.839-1.8c-.286-.614-.675-1.314-1.409-1.3A1.189,1.189,0,0,0,220.2-1734.909Z" fill="#00abc4"/>
          </g>
        </g>
      </g>
      <g id="Group_4109" data-name="Group 4109">
        <g id="Group_4108" data-name="Group 4108">
          <path id="Path_1308" data-name="Path 1308" d="M224.26-1725.008a45.8,45.8,0,0,1,15.549-26.229c.281-.236.69.168.407.405a45.309,45.309,0,0,0-15.4,25.976C224.741-1724.493,224.189-1724.647,224.26-1725.008Z" fill="#00aeb4"/>
        </g>
      </g>
    </g>
  </g>
  <g id="Group_4113" data-name="Group 4113" transform="translate(-41.893 1916.328)">
    <g id="Group_4112" data-name="Group 4112">
      <path id="Path_1309" data-name="Path 1309" d="M163.561-1855.537c-1.762-2.472-6.66-10.465-7.848-12.071-1.656-2.237-6.789-12.27-10.888-10.049-1.7.919-1.913,3.414-1.528,6.088-1.37-.728-2.748-1.437-4.123-2.133-4.611-2.334-6.224,2.393-6.857,7.259-.4,3.066-.408,6.187-.534,7.626-.447,5.11-2.02,13.452-6.993,16.278-2.119,1.2-4.819,1.129-7.109,1.976a23.149,23.149,0,0,0-12.828,11.633c-2.163,4.592-2.685,10.127-.562,14.738a20.689,20.689,0,0,0,7.18,7.952,37.48,37.48,0,0,0,24.648,6.589c4.425-.4,10.585-1.587,13.692-5.109,3.353-3.8-.561-6.652-2.164-9.983-1.92-3.992.669-8.23,3.913-10.557,4.381-3.145,10.457.554,14.753-3.787a11.253,11.253,0,0,0,2.762-6.535C170.009-1842.614,167.654-1849.794,163.561-1855.537Z" fill="#144998"/>
    </g>
  </g>
  <g id="Group_4115" data-name="Group 4115" transform="translate(-41.893 1916.328)">
    <g id="Group_4114" data-name="Group 4114">
      <path id="Path_1310" data-name="Path 1310" d="M155.795-1773.375c5.132,2.256,12.628-.887,15.213-4.824l-7.587-29.914-27.742,4.365-5.162,25.95c2.069,3.945,7.188,6.2,16.813,6.2l3.6-17.117Z" fill="#909797"/>
    </g>
  </g>
  <g id="Group_4117" data-name="Group 4117" transform="translate(-41.893 1916.328)" opacity="0.5">
    <g id="Group_4116" data-name="Group 4116">
      <path id="Path_1311" data-name="Path 1311" d="M145.955-1773.4c-3.35-.493-7.439-1.786-9.78-4.388-2-2.218-2.234-5.106-1.928-7.946.72-6.692,5.269-13.108,8.715-18.764l-7.181.754-5.162,25.95c2.07,3.945,7.189,6.2,16.814,6.2l.34-1.621Q146.866-1773.274,145.955-1773.4Z" fill="#54565a"/>
    </g>
  </g>
  <g id="Group_4119" data-name="Group 4119" transform="translate(-41.893 1916.328)">
    <g id="Group_4118" data-name="Group 4118">
      <path id="Path_1312" data-name="Path 1312" d="M132.438-1846.522s5.6,16.8,5.882,22.634c.294,5.99-3.718,23.83-3.718,23.83s25.077,1.087,29.592-4.9c2.99-3.964-5.46-18.057-7.034-23.983-1.551-5.835-1.219-23.844-1.219-23.844s-7.6.613-7.382,1.319c.525,1.734,2.935,8.1-3.277,8.191-3.477.053-3.3-4.924-3.276-6.144C142.025-1850.372,132.438-1846.522,132.438-1846.522Z" fill="#e81f76"/>
    </g>
  </g>
  <g id="Group_4121" data-name="Group 4121" transform="translate(-41.893 1916.328)">
    <g id="Group_4120" data-name="Group 4120">
      <path id="Path_1313" data-name="Path 1313" d="M140.4-1799.852c7.708-.08,20.552-.849,23.659-4.968,2.671-3.542-3.779-15.155-6.308-21.819C169.856-1801.089,142.183-1800.655,140.4-1799.852Z" fill="#d32276"/>
    </g>
  </g>
  <g id="Group_4123" data-name="Group 4123" transform="translate(-41.893 1916.328)">
    <g id="Group_4122" data-name="Group 4122">
      <path id="Path_1314" data-name="Path 1314" d="M140.8-1812.077c.547-5.855.885-11.956-.243-17.765-.847-4.365-2.853-8.359-3.265-12.83a10.924,10.924,0,0,1,1.011-5.934c-2.63.894-5.6,2.084-5.6,2.084s5.6,16.8,5.883,22.634c.295,5.99-3.718,23.83-3.718,23.83s2.01.087,4.992.077C139.662-1804.018,140.427-1808.064,140.8-1812.077Z" fill="#d32276"/>
    </g>
  </g>
  <g id="Group_4126" data-name="Group 4126" transform="translate(-41.893 1916.328)">
    <g id="Group_4125" data-name="Group 4125">
      <g id="Group_4124" data-name="Group 4124">
        <path id="Path_1315" data-name="Path 1315" d="M123.176-1734.057l-2.207,3.394c-1.554,1.542-5.908,2.8-7.889,3.735h0a3.894,3.894,0,0,0-2.225,3.861l.133,1.549h20.933v-6.742l-1.042-5.8Z" fill="#144998"/>
      </g>
    </g>
  </g>
  <g id="Group_4129" data-name="Group 4129" transform="translate(-41.893 1916.328)">
    <g id="Group_4128" data-name="Group 4128">
      <g id="Group_4127" data-name="Group 4127">
        <path id="Path_1316" data-name="Path 1316" d="M129.218-1723.793c-1.7.158-3.412.222-5.121.243-3.543.046-9.639-.078-13.181.086-.059,0-.114-.011-.173-.013l.169,1.952h20.959v-2.533C130.984-1723.938,130.085-1723.874,129.218-1723.793Z" fill="#00b0c4"/>
      </g>
    </g>
  </g>
  <g id="Group_4131" data-name="Group 4131" transform="translate(-41.893 1916.328)">
    <g id="Group_4130" data-name="Group 4130">
      <path id="Path_1317" data-name="Path 1317" d="M131-1728.34a1.28,1.28,0,0,1-1.28,1.28,1.28,1.28,0,0,1-1.28-1.28,1.279,1.279,0,0,1,1.28-1.279A1.279,1.279,0,0,1,131-1728.34Z" fill="#00b0c4"/>
    </g>
  </g>
  <g id="Group_4134" data-name="Group 4134" transform="translate(-41.893 1916.328)">
    <g id="Group_4133" data-name="Group 4133">
      <g id="Group_4132" data-name="Group 4132">
        <path id="Path_1318" data-name="Path 1318" d="M179.294-1734.057l2.208,3.394c1.553,1.542,5.907,2.8,7.888,3.735h0a3.9,3.9,0,0,1,2.225,3.861l-.135,1.549H170.549v-6.742l1.041-5.8Z" fill="#144998"/>
      </g>
    </g>
  </g>
  <g id="Group_4137" data-name="Group 4137" transform="translate(-41.893 1916.328)">
    <g id="Group_4136" data-name="Group 4136">
      <g id="Group_4135" data-name="Group 4135">
        <path id="Path_1319" data-name="Path 1319" d="M173.287-1723.812c1.715.16,3.436.223,5.156.245,3.569.047,9.706-.078,13.272.086a1.72,1.72,0,0,0,.175-.012l-.17,1.965h-21.1v-2.55C171.508-1723.957,172.414-1723.893,173.287-1723.812Z" fill="#00b0c4"/>
      </g>
    </g>
  </g>
  <g id="Group_4139" data-name="Group 4139" transform="translate(-41.893 1916.328)">
    <g id="Group_4138" data-name="Group 4138">
      <path id="Path_1320" data-name="Path 1320" d="M171.471-1728.34a1.28,1.28,0,0,0,1.279,1.28,1.28,1.28,0,0,0,1.28-1.28,1.279,1.279,0,0,0-1.28-1.279A1.279,1.279,0,0,0,171.471-1728.34Z" fill="#00b0c4"/>
    </g>
  </g>
  <g id="Group_4141" data-name="Group 4141" transform="translate(-41.893 1916.328)">
    <g id="Group_4140" data-name="Group 4140">
      <path id="Path_1321" data-name="Path 1321" d="M145.919-1842.592h0a3.959,3.959,0,0,1-3.855-4.226l.489-10.545,5.733-1.065,1.456,11.264A3.974,3.974,0,0,1,145.919-1842.592Z" fill="#ffcc8b"/>
    </g>
  </g>
  <g id="Group_4143" data-name="Group 4143" transform="translate(-41.893 1916.328)">
    <g id="Group_4142" data-name="Group 4142">
      <path id="Path_1322" data-name="Path 1322" d="M173.7-1888.877l.134-1.349a2.723,2.723,0,0,0-3.251-2.987,2.513,2.513,0,0,0-1.329.843,2.5,2.5,0,0,0-.285,1.772,19.545,19.545,0,0,1,.092,2.136l-.857,20.939a7.3,7.3,0,0,1-1.543,4.2L159.3-1853.9l5.752,8.48L173.2-1862.3a10.934,10.934,0,0,0,1.086-5.06Z" fill="#ffcc8b"/>
    </g>
  </g>
  <g id="Group_4145" data-name="Group 4145" transform="translate(-41.893 1916.328)">
    <g id="Group_4144" data-name="Group 4144">
      <path id="Path_1323" data-name="Path 1323" d="M155.795-1852.83l3.276-2.6,8.738,10.376-11.741,6.416C154.02-1847.779,155.795-1852.83,155.795-1852.83Z" fill="#fff"/>
    </g>
  </g>
  <g id="Group_4147" data-name="Group 4147" transform="translate(-41.893 1916.328)">
    <g id="Group_4146" data-name="Group 4146">
      <path id="Path_1324" data-name="Path 1324" d="M132.723-1846.688l-3.409,3.209a8.918,8.918,0,0,0-3.484,7.339l.067,6.381,11.331-1.364Z" fill="#fff"/>
    </g>
  </g>
  <g id="Group_4149" data-name="Group 4149" transform="translate(-41.893 1916.328)">
    <g id="Group_4148" data-name="Group 4148">
      <path id="Path_1325" data-name="Path 1325" d="M148.935-1853.514l-.273-2.354-6.28.341-.144,4.472C145.453-1849.076,148.627-1852.489,148.935-1853.514Z" fill="#ffad5f"/>
    </g>
  </g>
  <g id="Group_4151" data-name="Group 4151" transform="translate(-41.893 1916.328)">
    <g id="Group_4150" data-name="Group 4150">
      <path id="Path_1326" data-name="Path 1326" d="M154.076-1867.485a1.857,1.857,0,0,0-.952-.214,12.411,12.411,0,0,0-.775-3.7,11.274,11.274,0,0,0-1.427-2.656,7.738,7.738,0,0,0-11.893-.7,9.215,9.215,0,0,0-2.536,7.052,1.881,1.881,0,0,0-.841.225,1.886,1.886,0,0,0-.959,2.031c.237,1.18.349,2.48,1.7,2.915,3.1,1,1.929,3.84,3.56,6.136,1.194,1.682,2.507,3.17,4.741,3.132a6.484,6.484,0,0,0,4.411-2.158,10.614,10.614,0,0,0,1.9-3.366c.391-.945.426-2.273,1.108-3.072.64-.748,1.875-1.01,2.47-1.836C155.344-1864.757,155.332-1866.812,154.076-1867.485Z" fill="#ffcc8b"/>
    </g>
  </g>
  <g id="Group_4153" data-name="Group 4153" transform="translate(-41.893 1916.328)">
    <g id="Group_4152" data-name="Group 4152">
      <path id="Path_1327" data-name="Path 1327" d="M156.481-1873.027a.9.9,0,0,1,.466.655,1.614,1.614,0,0,1-.267.96c-.8,1.429-1.985,3.021-3.424,3.378a3.464,3.464,0,0,1-3.923-2.528,5.328,5.328,0,0,1-3.948,2.915c-1.42.019-3.583-.378-3.993-2.65-.512,2.02-2.848,3.993-4.505,2.9-.723-.475-1.076-1.407-1.868-1.52a2.055,2.055,0,0,1-1.683-1.495c-.319-1.215.633-4.453,1.4-5.312,2.882-3.219,6.285-4.407,10.137-5.047,1.355-.224,3.99.04,5.1.872,1.746,1.316,2.1,3.468,3.219,5.334C153.751-1873.625,155.6-1873.586,156.481-1873.027Z" fill="#144998"/>
    </g>
  </g>
  <g id="Group_4155" data-name="Group 4155" transform="translate(-41.893 1916.328)">
    <g id="Group_4154" data-name="Group 4154">
      <path id="Path_1328" data-name="Path 1328" d="M169.69-1888.969c-.007-.993-1.448-1.254-1.973-2.1a1.737,1.737,0,0,1,.625-2.219,3.708,3.708,0,0,1,2.449-.475,5.9,5.9,0,0,1,3.481,1.356,3.488,3.488,0,0,1,1.124,3.428,2.5,2.5,0,0,1-2.932,1.757" fill="#ffcc8b"/>
    </g>
  </g>
  <g id="Group_4157" data-name="Group 4157" transform="translate(-41.893 1916.328)">
    <g id="Group_4156" data-name="Group 4156">
      <path id="Path_1329" data-name="Path 1329" d="M135.965-1818.9l-.718-14.667-7.473,1.869,1.617,10.546a6.532,6.532,0,0,1-.767,3.931l-8.171,16.519c-.008-.009-.017-.014-.025-.023-.541.785-1.085,1.586-1.633,2.421,0,0-3.7,6.324.463,8.841a1.117,1.117,0,0,0,1.7-.8,27.226,27.226,0,0,0,.015-4.847s.647,2.544,1.6,2.6c0,0,1.4.021-.776-4.592l12.651-17.423A9.809,9.809,0,0,0,135.965-1818.9Z" fill="#ffcc8b"/>
    </g>
  </g>
</svg>
