<svg id="Component_17_1" data-name="Component 17 – 1" xmlns="http://www.w3.org/2000/svg" xmlns:xlink="http://www.w3.org/1999/xlink" width="270.392" height="179.985" viewBox="0 0 270.392 179.985">
  <defs>
    <clipPath id="clip-path">
      <path id="Path_1705" data-name="Path 1705" d="M-127.916,1121.174c0-3.184-58.251,22.1-130.107,22.1s-130.11-14.617-130.11-22.1Z" fill="#f7f7f7"/>
    </clipPath>
    <clipPath id="clip-path-2">
      <rect id="Rectangle_3108" data-name="Rectangle 3108" width="6.028" height="28.351" transform="translate(-357.657 1095.304)" fill="none"/>
    </clipPath>
    <clipPath id="clip-path-3">
      <path id="Path_1711" data-name="Path 1711" d="M-357.444,1122.08l-5.083,3.072-18.047-26.833,5.084-3.072Z" fill="none"/>
    </clipPath>
  </defs>
  <g id="Group_5077" data-name="Group 5077" transform="translate(396.863 -963.288)" opacity="0.7">
    <g id="Group_5076" data-name="Group 5076">
      <path id="Path_1702" data-name="Path 1702" d="M-127.916,1121.174c0-3.184-58.251,22.1-130.107,22.1s-130.11-14.617-130.11-22.1Z" fill="#f7f7f7"/>
      <g id="Group_5075" data-name="Group 5075" clip-path="url(#clip-path)">
        <g id="Group_5073" data-name="Group 5073">
          <path id="Path_1703" data-name="Path 1703" d="M-127.916,1132.1l-260.217.113v-11.041h260.217Z" fill="#c8e7eb"/>
        </g>
        <g id="Group_5074" data-name="Group 5074">
          <path id="Path_1704" data-name="Path 1704" d="M-388.133,1132.215l260.217-.113v11.172H-388.133Z" fill="#c8e7eb"/>
        </g>
      </g>
    </g>
  </g>
  <path id="Path_1706" data-name="Path 1706" d="M-153.269,1041.383c-1.6-4.693-8.017-18.539-27.555-16.879a16.618,16.618,0,0,1-5.878-5.546c-2.455-3.738-4.141-8.045-5.98-12.144a115.433,115.433,0,0,0-6.312-12.573,49.575,49.575,0,0,0-16.761-16.808c-13.992-8.477-30.772-9.66-46.086-4.9a77.836,77.836,0,0,0-22.707,11.639c-6.734,4.928-13.186,10.826-17.732,18.121a39.45,39.45,0,0,0-4.858,11.54c-1.1,4.49-1.787,9.141-4.237,13.089-3.964,6.39-10.891,9.668-17.278,12.573-3.281,1.492-6.594,2.922-9.764,4.669a44.216,44.216,0,0,0-9.245,6.788A43.015,43.015,0,0,0-359.55,1070.8c-3.873,14.6,1.7,31.881,14.663,39.118a49.907,49.907,0,0,0,12.589,4.511c4.84,1.187,9.7,2.286,14.551,3.424,4.891,1.147,9.9,3.778,14.9,4.07,11.232.656,87.5-.179,87.52-.271,2.625-10.608,9.608-18.022,17.831-23.934l1.611-.891c9.337-5.174,18.822-10.493,26.953-17.474,7.328-6.291,13.586-14.329,15.93-23.851A25.286,25.286,0,0,0-153.269,1041.383Z" transform="translate(396.863 -963.288)" fill="#f7f7f7"/>
  <g id="Group_5096" data-name="Group 5096" transform="translate(396.863 -963.288)">
    <g id="Group_5079" data-name="Group 5079">
      <g id="Group_5078" data-name="Group 5078">
        <path id="Path_1707" data-name="Path 1707" d="M-369.706,1101.037c11.608,8.227,14.882,22.678,14.882,22.678s-15.549,1.115-27.157-7.112-14.882-22.677-14.882-22.677,15.548-1.115,27.157,7.111" fill="#d8e081"/>
      </g>
    </g>
    <g id="Group_5081" data-name="Group 5081">
      <g id="Group_5080" data-name="Group 5080">
        <path id="Path_1708" data-name="Path 1708" d="M-354.834,1123.576s.171-.09.48-.269c.245-.145.583-.344.991-.6,3.648-2.278,13.1-8.98,16.973-19.321,4.85-12.948-.876-26.7-.876-26.7s-12.492,6.658-17.8,18.615c-.232.514-.446,1.04-.648,1.577-4.219,11.264-.433,23.137.622,26.03.16.433.255.665.255.665" fill="#00b0c4"/>
      </g>
    </g>
    <g id="Group_5086" data-name="Group 5086" opacity="0.1" style="isolation: isolate">
      <g id="Group_5085" data-name="Group 5085">
        <g id="Group_5084" data-name="Group 5084" clip-path="url(#clip-path-2)">
          <g id="Group_5083" data-name="Group 5083">
            <g id="Group_5082" data-name="Group 5082">
              <path id="Path_1709" data-name="Path 1709" d="M-355.089,1122.911c.284.156.531.288.735.4.447.231.7.347.7.347s.118-.334.3-.947c.982-3.351,3.8-15.028-.913-25.754q-.371-.843-.787-1.649c-.232.514-.446,1.041-.648,1.576-4.22,11.265-.431,23.138.622,26.031"/>
            </g>
          </g>
        </g>
      </g>
    </g>
    <g id="Group_5091" data-name="Group 5091" opacity="0.1" style="isolation: isolate">
      <g id="Group_5090" data-name="Group 5090">
        <g id="Group_5089" data-name="Group 5089" clip-path="url(#clip-path-3)">
          <g id="Group_5088" data-name="Group 5088">
            <g id="Group_5087" data-name="Group 5087">
              <path id="Path_1710" data-name="Path 1710" d="M-360.835,1123.14c.339,0,.631,0,.871,0,.525-.008.808-.025.808-.025s-.114-.377-.354-1.047c-1.3-3.673-6.365-16.159-17.163-23.91q-.849-.609-1.714-1.16c.133.6.287,1.211.458,1.821,3.613,12.813,14.364,22.12,17.094,24.321"/>
            </g>
          </g>
        </g>
      </g>
    </g>
    <g id="Group_5093" data-name="Group 5093">
      <g id="Group_5092" data-name="Group 5092">
        <path id="Path_1712" data-name="Path 1712" d="M-374.552,1104.887c5.567,12.684,19.544,19.235,19.544,19.235s4.952-14.016-.614-26.7-19.546-19.235-19.546-19.235-4.951,14.016.616,26.7" fill="#00abc4"/>
      </g>
    </g>
    <g id="Group_5095" data-name="Group 5095" opacity="0.1">
      <g id="Group_5094" data-name="Group 5094">
        <path id="Path_1713" data-name="Path 1713" d="M-354.967,1123.686l-19.918-45.012-.353.141,19.918,45.012Z"/>
      </g>
    </g>
  </g>
  <path id="Path_1714" data-name="Path 1714" d="M-151.114,1121.191s-9.082-12.3-20.043-13.881-16.284,2.625-16.284,2.625,1.428-16.438-11.859-18.7c-15.918-2.712-26.176,12.314-27.123,14.845,0,0-3.8-21.267-21.3-22.284-22.6-1.314-39.5,22.537-38.792,37.171Z" transform="translate(396.863 -963.288)" fill="#b8e3ff"/>
  <path id="Path_1715" data-name="Path 1715" d="M-128.724,965.072a1.2,1.2,0,0,0,1.127,1.264,1.2,1.2,0,0,0,1.126-1.264,1.2,1.2,0,0,0-1.126-1.263A1.2,1.2,0,0,0-128.724,965.072Z" transform="translate(396.863 -963.288)" fill="#fff"/>
  <path id="Path_1716" data-name="Path 1716" d="M-178.448,980.13a17.8,17.8,0,0,1,1.33,2.737c.094-.026.348-.254.485-.264l.015-.018c.015-.021.034-.041.052-.064s.039-.046.058-.072l.127-.164c.022-.029.044-.058.066-.09.01-.016.022-.032.033-.049s.022-.031.034-.046l.067-.1.034-.053q.015-.026.033-.051c.021-.036.045-.07.064-.106.01-.018.022-.036.031-.054l.03-.055c.042-.072.079-.146.113-.219a.538.538,0,0,0,.025-.055c.008-.018.018-.037.026-.054.016-.038.031-.073.045-.109s.026-.072.04-.106.024-.07.036-.1.02-.066.029-.1.017-.064.026-.093l.011-.044.009-.043c.007-.026.014-.053.019-.077s.007-.048.012-.07.009-.041.012-.058c.005-.036.01-.065.013-.084l.007-.03h.009s0,.041,0,.113c0,.035,0,.08-.007.13,0,.024-.005.051-.008.081l-.006.042c0,.014-.005.03-.008.046-.006.031-.01.062-.017.1s-.015.067-.023.1-.02.069-.03.106-.024.074-.035.112-.029.074-.043.113-.032.076-.048.115c-.036.075-.073.152-.114.228l-.032.056-.033.056c-.021.037-.046.072-.068.108s-.047.07-.072.1-.047.067-.073.1l-.036.049c-.013.016-.024.032-.037.046-.024.031-.05.061-.073.089-.049.057-.1.109-.141.157s-.083.087-.121.124c.1.05.048.275.048.275l-.012.007s.226.053.224.166c.049-.016.1-.035.164-.053s.132-.035.205-.054l.111-.024.059-.012.059-.012.122-.019.125-.017c.044-.005.086-.009.127-.011.023,0,.044,0,.066,0l.064,0c.086,0,.171,0,.255,0,.043,0,.084,0,.125.007l.119.014.116.018.109.021.1.027c.033.007.064.018.093.027l.044.014a.33.33,0,0,1,.041.014l.075.028.12.052.1.051-.006.008-.029-.008-.08-.025c-.018-.007-.037-.011-.059-.017l-.066-.019-.078-.019-.043-.011c-.014-.005-.027-.006-.043-.01-.031-.005-.062-.013-.094-.019l-.1-.017-.108-.015-.113-.013-.116-.008-.061,0-.061,0c-.08,0-.163,0-.247,0l-.062,0-.063,0c-.041,0-.082.006-.123.01-.021,0-.041,0-.062.006l-.061.006c-.039,0-.08.008-.119.015l-.057.008-.058.01c-.037,0-.074.011-.11.016l-.2.039c-.032.006-.061.014-.09.02l-.082.018-.021,0c-.073.12-.39.243-.456.313a17.74,17.74,0,0,1,1.842,2.425c.79,1.663-1.94,3.5-3.5,1.8a1.157,1.157,0,0,1-.3-.662s-.177,1.1-.846,1.249c-.438.1-1.668.18-1.768-2.373l1.736-1.067-1.725,1.062c-2.233-1.243-1.6-2.3-1.319-2.65.438-.53,1.5-.191,1.5-.191a1.148,1.148,0,0,1-.453-.568C-182.45,980.278-179.576,978.674-178.448,980.13Z" transform="translate(396.863 -963.288)" fill="#e9ad3d"/>
  <path id="Path_1717" data-name="Path 1717" d="M-319.257,1004.627a51.812,51.812,0,0,0,3.885,14.533c2.6,3.839,11.643,4.934,16.711,0s5.788-12.66,20.123-18.6a45.2,45.2,0,0,0,11.922-6.864c3.285-2.876,4.083-3.177,7.922-3.717,3.587-.5,3.591-6.2,9-6.341,3.412-.091,4.079-3.039,5.122-4.768-.117.09-3.965,3.24-6.472,3.165-2.552-.073-8.929-.45-12.9,2.249s-8.949,9.021-18.5,10.3c-10.469,1.4-12.729,11.891-19.9,14.678C-310.453,1012.409-316.816,1007.139-319.257,1004.627Z" transform="translate(396.863 -963.288)" fill="#0f1258" opacity="0.3" style="mix-blend-mode: multiply;isolation: isolate"/>
  <g id="Group_5097" data-name="Group 5097" transform="translate(396.863 -963.288)">
    <path id="Path_1718" data-name="Path 1718" d="M-286.7,974.733a5.547,5.547,0,0,1-5.173.981c-2.374-.967.257-1.452,1.685-1.847,1.113-.308,2.56-.886,3.172-.576A.92.92,0,0,1-286.7,974.733Z" fill="#0f1258"/>
    <path id="Path_1719" data-name="Path 1719" d="M-285.692,971.984a.625.625,0,0,0-.035.882.625.625,0,0,0,.881-.066.626.626,0,0,0,.035-.882A.624.624,0,0,0-285.692,971.984Z" fill="#0f1258"/>
    <path id="Path_1720" data-name="Path 1720" d="M-294.751,973.995a.48.48,0,0,0-.027.675.483.483,0,0,0,.675-.051.479.479,0,0,0,.026-.675A.479.479,0,0,0-294.751,973.995Z" fill="#0f1258"/>
    <path id="Path_1721" data-name="Path 1721" d="M-293.148,971.945a.27.27,0,0,0-.015.381.27.27,0,0,0,.38-.027.27.27,0,0,0,.014-.381A.268.268,0,0,0-293.148,971.945Z" fill="#0f1258"/>
  </g>
  <g id="Group_5098" data-name="Group 5098" transform="translate(396.863 -963.288)">
    <path id="Path_1722" data-name="Path 1722" d="M-205.835,1048.1a1.125,1.125,0,0,0,1.1-.879,4.9,4.9,0,0,0-2.871-5.269c-4.473-2.273-9.616,2.406-9.832,2.608a1.122,1.122,0,0,0-.063,1.586,1.124,1.124,0,0,0,1.586.064h0c.041-.039,4.213-3.817,7.291-2.256a2.641,2.641,0,0,1,1.7,2.779,1.124,1.124,0,0,0,.854,1.34A1.084,1.084,0,0,0-205.835,1048.1Z" fill="#00bbdc"/>
  </g>
  <path id="Path_1723" data-name="Path 1723" d="M-262.37,1099.206l-1.854,12.395-5.907-.571.675-12.777Z" transform="translate(396.863 -963.288)" fill="#ffcc8b"/>
  <path id="Path_1724" data-name="Path 1724" d="M-262.95,1106.779s-6.933-.917-7.492-.5-1.617,10.531-1.481,10.893,17.569,3.964,19.922,2.872-8.72-5.209-10.2-6.41S-262.95,1106.779-262.95,1106.779Z" transform="translate(396.863 -963.288)" fill="#003b71"/>
  <g id="Group_5100" data-name="Group 5100" transform="translate(396.863 -963.288)">
    <g id="Group_5099" data-name="Group 5099">
      <rect id="Rectangle_3109" data-name="Rectangle 3109" width="1.498" height="14.237" transform="translate(-265.563 1105.641) rotate(-4.374)" fill="#00bbdc"/>
    </g>
    <rect id="Rectangle_3110" data-name="Rectangle 3110" width="1.821" height="7.443" transform="translate(-267.758 1119.609) rotate(-75.145)" fill="#00bbdc"/>
  </g>
  <path id="Path_1725" data-name="Path 1725" d="M-295.784,1036.15a31.647,31.647,0,0,1,5.293,5.928c5.42,7.448,11.193,18.769,14.119,25.591,3.924,9.15,6.111,33.886,6.111,33.886s1.365.086,2.994.153c2.354.09,5.256.135,5.377-.206.213-.577.7-6.176-.273-25.249-.63-12.347-4.87-26.073-7.772-34.2-.164-.454-.321-.887-.474-1.306-1.332-3.637-2.281-5.86-2.281-5.86S-302.237,1031-295.784,1036.15Z" transform="translate(396.863 -963.288)" fill="#87898c"/>
  <path id="Path_1726" data-name="Path 1726" d="M-290.491,1042.078c5.42,7.448,11.193,18.769,14.119,25.591,3.924,9.15,6.111,33.886,6.111,33.886s1.365.086,2.994.153c-1.984-5.606-2.082-8.636-2.864-17.29-.918-10.166-1.38-12.912-3.452-19.075-2.6-7.74-4.975-10.587-4.776-15.759.144-3.789,5.34-5.718,8.424-7.528-.164-.454-.321-.887-.474-1.306Z" transform="translate(396.863 -963.288)" fill="#4a4a4c" opacity="0.7"/>
  <g id="Group_5101" data-name="Group 5101" transform="translate(396.863 -963.288)">
    <path id="Path_1727" data-name="Path 1727" d="M-234.345,1099.16c0,18.1,15.359,32.83,34.236,32.83s34.235-14.726,34.235-32.83-15.358-32.829-34.235-32.829a35.6,35.6,0,0,0-8.365.991c-.734.176-1.455.376-2.168.6C-224.383,1072.191-234.345,1084.578-234.345,1099.16Zm3.713,6.361c-.031-.129-.061-.256-.09-.388a28.564,28.564,0,0,1-.629-5.973,28.69,28.69,0,0,1,5.176-16.425c.073-.11.152-.219.23-.328a30.224,30.224,0,0,1,5.159-5.588c.1-.092.205-.176.309-.262a31.39,31.39,0,0,1,6.461-4.106c.122-.059.244-.118.369-.176a31.153,31.153,0,0,1,3.9-1.5c.711-.222,1.436-.42,2.169-.591q.625-.15,1.264-.269c.132-.03.266-.056.4-.076a32.444,32.444,0,0,1,5.8-.519c.646,0,1.29.021,1.925.059.138.006.275.013.411.026a32.076,32.076,0,0,1,7.6,1.466c.13.041.258.081.388.127a31.674,31.674,0,0,1,6.971,3.328c.116.072.228.146.341.221a30.815,30.815,0,0,1,5.85,4.964c.1.1.185.2.275.3a29.958,29.958,0,0,1,4.311,6.264c.06.122.121.24.179.362a28.554,28.554,0,0,1,2.432,7.126c.029.131.055.265.078.4a28.475,28.475,0,0,1,.475,5.2c0,.76-.028,1.514-.088,2.261-.01.131-.022.265-.037.394a28.262,28.262,0,0,1-1.647,7.246c-.043.125-.089.25-.135.374a29.353,29.353,0,0,1-3.528,6.521c-.075.11-.156.218-.234.325a30.69,30.69,0,0,1-5.1,5.4c-.1.086-.209.17-.312.254a31.245,31.245,0,0,1-6.31,3.965c-.122.061-.244.119-.368.173a31.782,31.782,0,0,1-7.128,2.305c-.135.029-.269.055-.4.075a32.141,32.141,0,0,1-5.953.548c-.522,0-1.044-.012-1.56-.035-.136-.009-.275-.014-.412-.025a31.994,31.994,0,0,1-7.447-1.329c-.135-.038-.264-.078-.4-.121a31.861,31.861,0,0,1-6.906-3.133c-.117-.072-.236-.145-.349-.217a30.9,30.9,0,0,1-5.892-4.769c-.1-.1-.191-.2-.281-.295a29.745,29.745,0,0,1-4.456-6.122c-.063-.116-.126-.231-.19-.35A28.478,28.478,0,0,1-230.632,1105.521Z" fill="#144998"/>
  </g>
  <g id="Group_5102" data-name="Group 5102" transform="translate(396.863 -963.288)">
    <path id="Path_1728" data-name="Path 1728" d="M-342.659,1099.16c0,18.1,15.358,32.83,34.236,32.83,17.149,0,31.395-12.152,33.858-27.951q.174-1.105.263-2.233c.076-.872.114-1.756.114-2.646a32.552,32.552,0,0,0-16.02-27.783q-.961-.588-1.961-1.1a35.214,35.214,0,0,0-16.254-3.941C-327.3,1066.331-342.659,1081.057-342.659,1099.16Zm2.994,0q0-.77.041-1.53c.006-.133.014-.264.025-.4a28.39,28.39,0,0,1,1.482-7.356c.043-.124.087-.251.133-.376a28.914,28.914,0,0,1,3.446-6.691c.072-.112.148-.221.226-.332a30.231,30.231,0,0,1,5.119-5.582l.312-.264a31.492,31.492,0,0,1,6.424-4.121c.121-.062.243-.118.367-.174a31.781,31.781,0,0,1,7.31-2.388c.135-.029.269-.055.4-.079a32.483,32.483,0,0,1,5.953-.545q.885,0,1.765.047c.138.009.274.018.411.025a32.261,32.261,0,0,1,7.62,1.433c.13.04.261.08.391.127a31.2,31.2,0,0,1,4.391,1.823c.672.34,1.333.7,1.974,1.09.214.128.426.255.634.391.116.07.232.145.345.22a29.843,29.843,0,0,1,13.15,19.063c.026.131.053.262.076.392a28.617,28.617,0,0,1,.482,5.225q0,1.144-.088,2.27l0,.019c-.012.126-.023.253-.034.377-.058.624-.137,1.241-.233,1.854a28.64,28.64,0,0,1-1.429,5.427c-.046.124-.091.25-.141.373a29.166,29.166,0,0,1-3.557,6.542c-.076.111-.156.222-.235.329a30.656,30.656,0,0,1-5.136,5.4c-.1.085-.206.172-.313.252a31.3,31.3,0,0,1-6.344,3.954c-.121.061-.247.115-.37.171a31.723,31.723,0,0,1-7.152,2.275c-.133.029-.268.055-.4.075a32.4,32.4,0,0,1-5.8.519q-.867,0-1.719-.044c-.136-.009-.272-.016-.41-.026a32.172,32.172,0,0,1-7.436-1.362c-.13-.038-.261-.078-.392-.122a31.834,31.834,0,0,1-6.878-3.157c-.115-.071-.228-.143-.345-.217a30.923,30.923,0,0,1-5.854-4.775c-.1-.1-.188-.2-.278-.3a29.648,29.648,0,0,1-4.416-6.1c-.065-.117-.129-.236-.19-.355a28.594,28.594,0,0,1-2.614-7.046c-.031-.128-.062-.258-.087-.388A28.533,28.533,0,0,1-339.665,1099.16Z" fill="#144998"/>
  </g>
  <g id="Group_5103" data-name="Group 5103" transform="translate(396.863 -963.288)">
    <path id="Path_1729" data-name="Path 1729" d="M-262.808,1102.844c3.051-38.256-17.877-59.872-18.089-60.086l-1.6,1.58c.2.207,20.413,21.144,17.447,58.327Z" fill="#00bbdc"/>
  </g>
  <g id="Group_5104" data-name="Group 5104" transform="translate(396.863 -963.288)">
    <path id="Path_1730" data-name="Path 1730" d="M-308.056,1099.357l.142.008.269.019.8.055,2.264.15,26.917,1.814-24.205-2.9-1.315-.16-1.614-.192-.186-.023-.747-.09-.534-.062-.55-.067-.221-.027-.351.51-.44.64-.151.215Zm-2.823-.431a.885.885,0,0,0,.076.226.081.081,0,0,0,.011.02,1.1,1.1,0,0,0,.357.423,1.012,1.012,0,0,0,.145.087,1.08,1.08,0,0,0,.373.113l.374.043.346.044.04,0,.22.029.142.014.015,0,.121.014.053.006.06.009.067.01.049.005.068.005.081.012.031,0,.134.018.075.007.1.013.27.031.341.041.189.023,1.791.215.679.081,27.128,3.256,2.977.359,4.252.509.521.061,1.916.232.673.082,1.507.18c.047,0,.09.007.137.007a1.125,1.125,0,0,0,.8-.34l1.66-1.7.178-.182.051-.054.067-.068.136-.138,1.658-1.7,45.98-46.995,1.249-1.279a1.119,1.119,0,0,0,.238-1.2,1.126,1.126,0,0,0-1-.706l-1.5-.053-29.951-1.02-5.838-.2-.772-.026-6.262-.214-8.764-.3-8.652-.3-.8-.026a1.093,1.093,0,0,0-.971.5l-.307.461-3.939,5.9-9.871,14.79-1.676,2.507-10.533,15.78-.91,1.361-2.553,3.823-.455.684-.441.661-.307.458-.319.478-.353.531-.262.387-.219.331-.233.348-.171.258-.119.177a1.1,1.1,0,0,0-.089.166.978.978,0,0,0-.083.278A1.091,1.091,0,0,0-310.879,1098.926Zm33.767,2.544-.163-.021-.391-.046-24.205-2.9-1.315-.16-1.614-.192-.186-.023-.747-.09-.534-.062-.55-.067-.221-.027-.458-.055-.11-.014-.229-.027.5-.748.8-1.2,14.666-21.97,1.663-2.492,9.1-13.635,4.091-6.129.482-.721,1.747.06,7.85.267,7.442.252,6.223.215.783.025,5.881.2,29.44,1-38.458,39.311-1.429,1.461-4.576,4.677-.814.832-.139.142-.009.009-1.624,1.661-.373.38-.044.043-.327.339-.023.02-.995,1.018-.019,0-1.395-.167-.562-.067-1.719-.206-.554-.066-4.075-.491Z" fill="#00b0c4"/>
  </g>
  <g id="Group_5105" data-name="Group 5105" transform="translate(396.863 -963.288)">
    <path id="Path_1731" data-name="Path 1731" d="M-199.2,1101.738a1.077,1.077,0,0,0,.338-.052,1.122,1.122,0,0,0,.734-1.407l-17.477-55.687a1.129,1.129,0,0,0-1.409-.737,1.126,1.126,0,0,0-.735,1.409l17.479,55.687A1.122,1.122,0,0,0-199.2,1101.738Z" fill="#00bbdc"/>
  </g>
  <path id="Path_1732" data-name="Path 1732" d="M-222.048,1039.094a3.475,3.475,0,0,1,1.256.037c2.816.539,5.585,3.977,6.679,4.514,1,.485,4.631,2.9,5.3.693a5.667,5.667,0,0,0-.185-2.822c-1.463-5.847-13.224-7.36-13.224-7.36S-225.131,1039.58-222.048,1039.094Z" transform="translate(396.863 -963.288)" fill="#ffcc8b"/>
  <path id="Path_1733" data-name="Path 1733" d="M-313.491,1099.531a4.455,4.455,0,0,0,4.456,4.456,4.455,4.455,0,0,0,4.455-4.456,4.454,4.454,0,0,0-4.455-4.454A4.455,4.455,0,0,0-313.491,1099.531Z" transform="translate(396.863 -963.288)" fill="#0f1258"/>
  <path id="Path_1734" data-name="Path 1734" d="M-204.407,1099.531a4.456,4.456,0,0,0,4.456,4.456,4.456,4.456,0,0,0,4.456-4.456,4.456,4.456,0,0,0-4.456-4.454A4.456,4.456,0,0,0-204.407,1099.531Z" transform="translate(396.863 -963.288)" fill="#0f1258"/>
  <g id="Group_5107" data-name="Group 5107" transform="translate(396.863 -963.288)">
    <g id="Group_5106" data-name="Group 5106">
      <rect id="Rectangle_3111" data-name="Rectangle 3111" width="1.498" height="14.236" transform="matrix(0.998, -0.066, 0.066, 0.998, -266.853, 1089.831)" fill="#00bbdc"/>
    </g>
    <rect id="Rectangle_3112" data-name="Rectangle 3112" width="1.82" height="7.443" transform="translate(-269.738 1089.764) rotate(-74.538)" fill="#00bbdc"/>
  </g>
  <g id="Group_5109" data-name="Group 5109" transform="translate(396.863 -963.288)">
    <g id="Group_5108" data-name="Group 5108">
      <path id="Path_1735" data-name="Path 1735" d="M-270.4,1103.615a5.02,5.02,0,0,0,.087.933,4.917,4.917,0,0,0,.455,1.346c.047.094.1.188.153.28a5.078,5.078,0,0,0,4.377,2.521h0a5.017,5.017,0,0,0,1.48-.219.831.831,0,0,0,.093-.03,5.042,5.042,0,0,0,.675-.275,5.088,5.088,0,0,0,2.836-4.556,5.021,5.021,0,0,0-.766-2.677,4.838,4.838,0,0,0-.7-.891,4.837,4.837,0,0,0-.7-.588c-.057-.044-.115-.081-.176-.122l-.006,0c-.116-.073-.232-.143-.351-.2a4.987,4.987,0,0,0-1.834-.567l-.038,0a4.78,4.78,0,0,0-.51-.027,5.138,5.138,0,0,0-.951.09c-.055.012-.11.021-.165.035a5.075,5.075,0,0,0-3.157,2.217,5.325,5.325,0,0,0-.377.7,5.228,5.228,0,0,0-.255.722A5.073,5.073,0,0,0-270.4,1103.615Zm7.912,0a2.81,2.81,0,0,1-.843,2.012,2.833,2.833,0,0,1-.693.506,2.8,2.8,0,0,1-1.3.316c-.062,0-.122,0-.18-.006a2.837,2.837,0,0,1-2.374-1.6,2.841,2.841,0,0,1-.277-1.226,2.847,2.847,0,0,1,.2-1.046,2.787,2.787,0,0,1,.545-.867,2.815,2.815,0,0,1,1.287-.806,2.82,2.82,0,0,1,.8-.115,2.523,2.523,0,0,1,.4.029c.1.014.2.035.3.057a3.046,3.046,0,0,1,.408.14,2.8,2.8,0,0,1,1.021.741,2.791,2.791,0,0,1,.368.522c.018.038.038.073.056.111a2.35,2.35,0,0,1,.106.252A2.763,2.763,0,0,1-262.488,1103.615Z" fill="#00bbdc"/>
    </g>
    <path id="Path_1736" data-name="Path 1736" d="M-267.611,1103.615a2.289,2.289,0,0,0,2.29,2.289,2.29,2.29,0,0,0,2.289-2.289,2.29,2.29,0,0,0-2.289-2.289A2.289,2.289,0,0,0-267.611,1103.615Z" fill="#00bbdc"/>
  </g>
  <path id="Path_1737" data-name="Path 1737" d="M-273.817,1040.514s3.158,1.55,1.58,2.97-14.882,1.679-19.274,0-1.014-3.874-1.014-3.874Z" transform="translate(396.863 -963.288)" fill="#0f1258"/>
  <path id="Path_1738" data-name="Path 1738" d="M-268.23,1077.063l5.324,2.615.585-1.045.666-1.2,4.853-8.7-5.6-3.014-.193-.1-.5-.271-.284.652-1.205,2.75-3.043,6.948-.09.213Z" transform="translate(396.863 -963.288)" fill="#ffcc8b"/>
  <path id="Path_1739" data-name="Path 1739" d="M-267.632,1075.693c.828.622,2.233,1.446,2.209-.125a9.416,9.416,0,0,1,3.053-6.838c1-.7,3.672-.283,3.672-.283l-4.686-2.452-1.2,2.75Z" transform="translate(396.863 -963.288)" fill="#87898c" opacity="0.4" style="mix-blend-mode: multiply;isolation: isolate"/>
  <path id="Path_1740" data-name="Path 1740" d="M-260.92,1077.836s-6.165-3.3-6.836-3.107-5.222,9.286-5.222,9.672,15.045,9.9,17.633,9.706-6.327-7.947-7.285-9.59S-260.92,1077.836-260.92,1077.836Z" transform="translate(396.863 -963.288)" fill="#003b71"/>
  <path id="Path_1741" data-name="Path 1741" d="M-297.255,1035.412a12.9,12.9,0,0,0,3.222,3.277,16.7,16.7,0,0,0,9.843,2.777q.385,0,.783-.013c.275-.005.54-.018.806-.037,16.918-1.029,22.86,3.488,23.894,5.555s-6.589,19.24-6.589,19.24a19.015,19.015,0,0,1,4.065,1.666c2.565,1.241,5.364,2.727,5.364,2.727,3.614-2.584,12.913-23.377,10.455-30.6s-23.111-13.3-23.111-13.3-26.216-4.65-29.575-2.2C-299.933,1025.844-300.185,1031.1-297.255,1035.412Z" transform="translate(396.863 -963.288)" fill="#87898c"/>
  <path id="Path_1742" data-name="Path 1742" d="M-297.764,1034.6a16.774,16.774,0,0,0,3.731,4.087,16.7,16.7,0,0,0,9.843,2.777q.385,0,.783-.013c.275-.005.54-.018.806-.037,16.918-1.029,22.86,3.488,23.894,5.555s-6.589,19.24-6.589,19.24a19.015,19.015,0,0,1,4.065,1.666,18.763,18.763,0,0,1,1.485-9.066c1.574-4.211,3.9-6.246,4.5-10.99s-2.881-6.71-6.936-7.876a45.042,45.042,0,0,0-14.9-1.267C-284.7,1039.237-288.778,1039.237-297.764,1034.6Z" transform="translate(396.863 -963.288)" fill="#87898c"/>
  <path id="Path_1743" data-name="Path 1743" d="M-263.078,990.161l.3.156,1.383.725.16.084.246.127.108.057,4.877,2.549.358.188.276.144.4.214.349.179s.066-.159.183-.423c.057-.139.132-.307.216-.5.061-.138.13-.291.2-.454.86-1.878,2.428-5.006,3.294-4.909,1.232.136,7.618,4.519,8.228,2.433a11.983,11.983,0,0,1,.861-2.063c.313-.611.651-1.185.95-1.662.466-.752.832-1.257.832-1.257a2.871,2.871,0,0,0,1.607.122c.9-.223.5-.879.246-1.437a7.192,7.192,0,0,1-.692-3.668c0-.061-.006-.122-.006-.182a6.617,6.617,0,0,1,.143-1.444,11.592,11.592,0,0,0-.047-4.048,24.437,24.437,0,0,0-.675-2.993l-8.09-3.835-15.569,21.689Z" transform="translate(396.863 -963.288)" fill="#ffcc8b"/>
  <path id="Path_1744" data-name="Path 1744" d="M-300.767,1022.081a6.369,6.369,0,0,0,.342,1.73,5.712,5.712,0,0,0,1.369,2.168c.094.095.189.18.284.26a3.353,3.353,0,0,0,.333.253.037.037,0,0,0,.018.019c.023.021.049.035.07.053.084.054.164.108.248.157a6.5,6.5,0,0,0,2.589.738c.253.027.508.045.78.064.453.018.926.031,1.416.036.118.005.235.009.351.009.159,0,.317,0,.478,0,.238.009.477.014.733.018.491.013,1,.032,1.513.072.234.014.468.036.711.063a.456.456,0,0,1,.081.009c.238.023.472.045.7.081a.37.37,0,0,1,.1.014c.085,0,.165.023.242.026s.166.028.252.041c.117.019.23.036.346.059.559.09,1.117.193,1.68.3.08.018.3.059.607.116.7.132,1.8.338,2.5.47.112.016.212.035.3.053.009,0,.028,0,.045.008.225.041.909.154,1.625.267.216.035.423.071.631.1h0c.4.063.766.116,1.018.144.495.071,1,.125,1.516.17l.352.028a18.736,18.736,0,0,0,4.834-.234c.12-.023.238-.045.355-.072a9.631,9.631,0,0,0,4.955-2.633c.126-.131.253-.271.369-.414a8.187,8.187,0,0,0,.694-.937c.675-1.066,1.273-2.178,1.858-3.3.09-.17.176-.336.266-.5v-.005c.566-1.084,1.139-2.174,1.769-3.222.2-.333.427-.693.678-1.071.118-.176.248-.362.379-.545a15.323,15.323,0,0,1,1.481-1.791,8.118,8.118,0,0,1,1.75-1.409l.009,0a4.283,4.283,0,0,1,.874-.4,3.374,3.374,0,0,1,.665-.163.12.12,0,0,1,.06,0,.477.477,0,0,1,.081-.009.543.543,0,0,1,.09-.005,1.189,1.189,0,0,1,.148.019c.032.014.068.018.08.031a.474.474,0,0,1,.118.054.666.666,0,0,1,.225.27c.085.19.2.532.352.991a23.414,23.414,0,0,0,1.206,2.731c.05.1.1.207.152.316.6,1.183,1.392,2.628,2.381,4.212.027.05.059.09.09.14s.063.108.1.162c.073.116.149.234.226.351.755,1.175,1.62,2.412,2.587,3.664.077.1.148.189.225.283.541.684,1.112,1.372,1.719,2.057.109.126.221.252.338.374.4.454.833.905,1.275,1.349.085.091.169.176.26.266a37.548,37.548,0,0,0,3.075,2.75c.112.09.229.181.341.27.193.153.392.306.594.455.1.081.216.158.323.238a31.417,31.417,0,0,0,3.759,2.362c.112.06.225.123.343.182.171.09.346.179.521.264.135.064.27.131.41.2s.275.134.415.2c1.016.494,2.164,1.035,3.366,1.574.112.05.229.1.346.153.694.312,1.4.621,2.116.913.148.065.3.123.445.185q1.092.447,2.17.838c.117.045.228.09.346.13a30.394,30.394,0,0,0,3.911,1.144,2.741,2.741,0,0,0,.455.058c.076.005.153.005.224.005a3.235,3.235,0,0,0,.357-.036,3.081,3.081,0,0,0,1.746-1.027,6.526,6.526,0,0,0,.936-1.359,12.211,12.211,0,0,0,1.076-3.033,3.979,3.979,0,0,0-.014-1.8,2.924,2.924,0,0,0-.1-.342,3.333,3.333,0,0,0-.57-1.058,8.076,8.076,0,0,0-2.562-1.894c-.112-.06-.229-.122-.346-.177-.207-.1-.419-.2-.63-.3q-.216-.1-.433-.193c-1.232-.535-2.5-.994-3.492-1.449l-.283-.135-.063-.027c-.7-.337-1.382-.665-2.062-1-.14-.068-.274-.136-.409-.2-.757-.379-1.5-.757-2.237-1.166-.118-.059-.23-.126-.342-.189a29.99,29.99,0,0,1-2.562-1.607c-.107-.077-.219-.154-.328-.234a22.4,22.4,0,0,1-1.777-1.441c-.113-.1-.226-.206-.337-.315a19.08,19.08,0,0,1-1.694-1.809c-.076-.095-.152-.189-.224-.283a22.007,22.007,0,0,1-2.346-3.65c-.08-.163-.162-.315-.238-.472a.242.242,0,0,1-.018-.038c-.051-.093-.1-.184-.134-.274-.069-.13-.127-.256-.185-.382a41.1,41.1,0,0,1-1.692-4.064c-.041-.109-.082-.221-.118-.328-.486-1.36-.954-2.809-1.562-4.586-.035-.11-.071-.222-.111-.334-.239-.689-.5-1.432-.78-2.233v0c-.1-.279-.2-.563-.31-.859-.184-.5-.374-.977-.573-1.441v0c-.044-.108-.089-.217-.138-.321a24.664,24.664,0,0,0-2.354-4.224c-.068-.1-.136-.2-.208-.288a17.17,17.17,0,0,0-1.178-1.454c-.108-.123-.226-.24-.334-.352a9.54,9.54,0,0,0-1.444-1.238c-.108-.067-.464-.246-.95-.482-.131-.057-.271-.126-.419-.193-.58-.274-1.264-.584-1.876-.855-.122-.054-.234-.108-.347-.154-.328-.143-.626-.269-.855-.368-.266-.1-1.867-.716-3.056-1.13-.176-.062-.333-.117-.481-.166h0c-.126-.04-.238-.081-.343-.113-.045-.013-.085-.023-.121-.035-.076-.024-.148-.045-.225-.064-.234-.071-.468-.135-.7-.194a18.756,18.756,0,0,0-2.548-.508c-.008,0-.027,0-.04,0-.261-.037-.526-.058-.783-.082a6.914,6.914,0,0,0-.716,0c-.118.01-.238.015-.356.02-.477.03-.936.071-1.043.1-.2.036-.671.171-.7.18a.54.54,0,0,0-.076.022,15.757,15.757,0,0,0-1.558.6c-.17.083-.351.172-.535.266-.323.158-.652.329-.989.522-.119.063-.239.131-.362.2-.076.04-.148.08-.22.125-.167.095-.332.194-.5.3-.495.3-.99.621-1.494.958-.163.108-.323.217-.491.333-.476.32-.958.658-1.449,1.009-.156.117-.315.23-.472.345-.118.086-.238.177-.36.267s-.248.18-.364.27c-.234.171-.464.342-.7.522-.156.117-.3.234-.467.351q-.7.54-1.4,1.089c-.153.117-.306.24-.459.355-.464.37-.926.739-1.391,1.1-.153.129-.306.247-.458.369-.045.04-.1.075-.145.116-.122.095-.242.193-.365.288-.288.239-.58.473-.868.7-.154.126-.31.248-.463.373-.469.374-.923.743-1.378,1.1-.153.121-.306.247-.459.364-.09.072-.18.144-.274.216-.379.3-.748.593-1.113.882-.008,0-.012.013-.021.018l-.438.343,0,0c-.121.09-.243.189-.364.279q-.534.4-1.04.792c-.162.112-.319.23-.477.347-.5.369-.977.711-1.435,1.03-.136.09-.272.176-.4.266a.46.46,0,0,0-.084.062c-.527.343-1.009.69-1.446,1.031-.04.027-.081.059-.121.09-.117.085-.234.176-.343.267,0,0-.012.008-.016.016-.492.388-.928.775-1.324,1.149-.145.144-.284.284-.41.419a14.18,14.18,0,0,0-1.188,1.371c-.13.168-.252.33-.365.491a16.468,16.468,0,0,0-1,1.638c-.1.193-.2.388-.3.572l0,.009c-.086.167-.167.333-.247.5-.109.221-.217.432-.325.648s-.208.41-.315.617c-.028.049-.054.1-.077.148-.076.14-.148.279-.234.418a11.837,11.837,0,0,1-1.043,1.563c-.019.026-.041.058-.064.085-.108.13-.207.266-.3.4a6.669,6.669,0,0,0-.9,1.759,7.135,7.135,0,0,0-.2.72c-.036.181-.065.361-.086.536-.014.135-.024.266-.028.4v0C-300.779,1021.677-300.774,1021.879-300.767,1022.081Z" transform="translate(396.863 -963.288)" fill="#e81f76"/>
  <path id="Path_1745" data-name="Path 1745" d="M-285.522,1028.368c.7.132,1.8.338,2.5.47.112.016.212.035.3.053.009,0,.028,0,.045.008.225.041.909.154,1.625.267.216.035.423.071.631.1h0c.4.063.766.116,1.018.144.495.071,1,.125,1.516.17l.352.028a18.736,18.736,0,0,0,4.834-.234c.12-.023.238-.045.355-.072a9.631,9.631,0,0,0,4.955-2.633c.126-.131.253-.271.369-.414a8.187,8.187,0,0,0,.694-.937c.675-1.066,1.273-2.178,1.858-3.3.09-.17.176-.336.266-.5v-.005c.566-1.084,1.139-2.174,1.769-3.222.2-.333.427-.693.678-1.071.118-.176.248-.362.379-.545a15.323,15.323,0,0,1,1.481-1.791,8.118,8.118,0,0,1,1.75-1.409l.009,0a4.283,4.283,0,0,1,.874-.4,3.374,3.374,0,0,1,.665-.163.12.12,0,0,1,.06,0,.477.477,0,0,1,.081-.009.543.543,0,0,1,.09-.005,1.189,1.189,0,0,1,.148.019c.032.014.068.018.08.031a.474.474,0,0,1,.118.054.666.666,0,0,1,.225.27c.085.19.2.532.352.991a23.414,23.414,0,0,0,1.206,2.731c.05.1.1.207.152.316.6,1.183,1.392,2.628,2.381,4.212.027.05.059.09.09.14s.063.108.1.162c.073.116.149.234.226.351.755,1.175,1.62,2.412,2.587,3.664.077.1.148.189.225.283.541.684,1.112,1.372,1.719,2.057.109.126.221.252.338.374.4.454.833.905,1.275,1.349.085.091.169.176.26.266a37.548,37.548,0,0,0,3.075,2.75c.112.09.229.181.341.27.193.153.392.306.594.455.1.081.216.158.323.238a31.417,31.417,0,0,0,3.759,2.362c.112.06.225.123.343.182.171.09.346.179.521.264.135.064.27.131.41.2s.275.134.415.2c1.016.494,2.164,1.035,3.366,1.574.112.05.229.1.346.153.694.312,1.4.621,2.116.913.148.065.3.123.445.185q1.092.447,2.17.838c.117.045.228.09.346.13a30.394,30.394,0,0,0,3.911,1.144,2.741,2.741,0,0,0,.455.058c.076.005.153.005.224.005a3.235,3.235,0,0,0,.357-.036,3.081,3.081,0,0,0,1.746-1.027,6.526,6.526,0,0,0,.936-1.359c-1.936-.337-14.719-3.545-21.192-8.838-6.676-5.457-10.4-9.205-12.4-19.918-2.325-12.451-9.354-1.3-11.177.887-2.7,3.24-7.468,3.633-10.728,5.951-3.565,2.534-4.065,5.487-7.149,8.175A12.956,12.956,0,0,1-285.522,1028.368Z" transform="translate(396.863 -963.288)" fill="#965d02" opacity="0.3"/>
  <g id="Group_5110" data-name="Group 5110" transform="translate(396.863 -963.288)">
    <path id="Path_1746" data-name="Path 1746" d="M-258.857,1064.953a.377.377,0,0,0,.292-.139c2.5-3.109,8.031-16.03,7.336-20.227-.662-4-5.142-7.141-12.615-8.856a61.377,61.377,0,0,0-12.3-1.219,45.688,45.688,0,0,1-7.106-.532c-4.319-.839-4.284-4.274-4.282-4.308a.375.375,0,0,0-.366-.384.364.364,0,0,0-.383.364c0,.041-.046,4.1,4.889,5.065a47.186,47.186,0,0,0,7.227.543,60.9,60.9,0,0,1,12.158,1.2c4.146.951,11.221,3.287,12.043,8.249.616,3.723-4.535,16.348-7.18,19.634a.373.373,0,0,0,.057.526A.37.37,0,0,0-258.857,1064.953Z" fill="#fffde9"/>
  </g>
  <path id="Path_1747" data-name="Path 1747" d="M-220.792,1039.131c2.816.539,5.585,3.977,6.679,4.514,1,.485,4.631,2.9,5.3.693a6.414,6.414,0,0,1-1.351-.193c-1.053-.262-1.913-1.536-3-2.477s-2.89-1.273-3.939-1.723a27,27,0,0,1-3.149-1.914Z" transform="translate(396.863 -963.288)" fill="#ffcc8b" opacity="0.4" style="mix-blend-mode: multiply;isolation: isolate"/>
  <path id="Path_1748" data-name="Path 1748" d="M-321.244,1004.626a44.669,44.669,0,0,0,1.65,8.226,63.594,63.594,0,0,0,2.234,6.308c2.6,3.839,11.642,4.932,16.709,0s5.79-12.659,20.126-18.6A45.2,45.2,0,0,0-268.6,993.7c3.287-2.876,4.082-3.177,7.922-3.717,3.585-.5,3.591-6.2,9-6.343,3.412-.088,4.077-3.036,5.123-4.767v0l0-.007a2.122,2.122,0,0,1,1.526-1.209c2.263-.247,6.11-1.622,7.232-3.462a2.178,2.178,0,0,0,.235-.506c.779-2.5-2.65-9.426-8.817-10.215-7.021-.895-10.694,1.708-14.406,4.8-2.318,1.931-4.929,1.729-7.8.693s-12.535-1.582-16.376,5.749c-1.71,3.218-6.777,2.258-13.767,2.533C-304.572,977.471-323.369,983.07-321.244,1004.626Z" transform="translate(396.863 -963.288)" fill="#144998"/>
  <g id="Group_5111" data-name="Group 5111" transform="translate(396.863 -963.288)">
    <path id="Path_1749" data-name="Path 1749" d="M-320.155,1017.752l.31-.133a32.434,32.434,0,0,1-1.848-6.827,37.128,37.128,0,0,1,.026-13.806l.032-.142a20.536,20.536,0,0,1,6.273-11.469,20.887,20.887,0,0,1,8.551-5c.566-.209,1.164-.431,1.8-.679,2.069-.8,5.968-.763,9.738-.728,3.924.036,7.632.07,9.306-.8,1.783-.927,4-3.313,5.951-5.419,1.608-1.733,3.127-3.37,4-3.731,1.823-.756,4.639-.635,6.667-.272.3.054.59.126.9.2,1.608.4,3.431.859,7.075-1.265,6.167-3.6,9.9-3.892,9.942-3.894l-.023-.337c-.154.01-3.844.3-10.09,3.939-3.524,2.054-5.277,1.617-6.822,1.229-.315-.078-.613-.152-.923-.208-2.074-.372-4.965-.491-6.855.292-.941.391-2.413,1.978-4.119,3.815-1.934,2.084-4.128,4.448-5.859,5.348-1.6.831-5.266.8-9.147.762-3.8-.035-7.734-.071-9.862.751-.638.248-1.235.469-1.8.678a21.428,21.428,0,0,0-8.666,5.072,20.839,20.839,0,0,0-6.37,11.641l-.031.142a37.464,37.464,0,0,0-.03,13.941A32.827,32.827,0,0,0-320.155,1017.752Z" fill="#0f1258"/>
  </g>
  <g id="Group_5112" data-name="Group 5112" transform="translate(396.863 -963.288)">
    <path id="Path_1750" data-name="Path 1750" d="M-322.78,1011.8l.335-.038a14.175,14.175,0,0,0-.745-2.73c-1.148-3.372-2.718-7.992.847-15.264a26.722,26.722,0,0,1,12.7-12.552l-.123-.317a27.115,27.115,0,0,0-12.88,12.72c-3.628,7.4-1.966,12.287-.867,15.523A13.823,13.823,0,0,1-322.78,1011.8Z" fill="#0f1258"/>
  </g>
  <path id="Path_1751" data-name="Path 1751" d="M-236.31,973.031l-.154.222A1.043,1.043,0,0,0-236.31,973.031Z" transform="translate(396.863 -963.288)" fill="#0f146b" opacity="0.3" style="mix-blend-mode: multiply;isolation: isolate"/>
  <path id="Path_1752" data-name="Path 1752" d="M-319.594,1012.852a63.594,63.594,0,0,0,2.234,6.308c2.6,3.839,11.642,4.932,16.709,0s5.79-12.659,20.126-18.6A45.2,45.2,0,0,0-268.6,993.7c3.287-2.876,4.082-3.177,7.922-3.717,3.585-.5,3.591-6.2,9-6.343,3.412-.088,4.077-3.036,5.123-4.767v0l0-.007a2.122,2.122,0,0,1,1.526-1.209c2.263-.247,6.11-1.622,7.232-3.462-1.455.683-4.273,1.382-9.652,1.192-4.514-.158-4.451,2.321-5.4,3.692a8.037,8.037,0,0,1-6.533,3.219c-3.218-.045-9.055-1.161-14.815,1.656-4.946,2.417-3.928,7.783-7.719,11.538s-11.98-2.338-18.859,1.2c-7.746,3.982-2.764,14.311-11.346,15.118A61.578,61.578,0,0,0-319.594,1012.852Z" transform="translate(396.863 -963.288)" fill="#0b1238" opacity="0.3"/>
  <g id="Group_5125" data-name="Group 5125" transform="translate(396.863 -963.288)">
    <g id="Group_5113" data-name="Group 5113">
      <rect id="Rectangle_3113" data-name="Rectangle 3113" width="60.688" height="0.412" transform="translate(-310.61 1129.798) rotate(-86.258)" fill="#c7cbd1"/>
    </g>
    <g id="Group_5114" data-name="Group 5114">
      <path id="Path_1753" data-name="Path 1753" d="M-302.437,1129.363l-12.377-59.587.4-.076,12.376,59.587Z" fill="#c7cbd1"/>
    </g>
    <g id="Group_5115" data-name="Group 5115">
      <path id="Path_1754" data-name="Path 1754" d="M-294.674,1126.9l-27.87-54.555.369-.174,27.869,54.554Z" fill="#c7cbd1"/>
    </g>
    <g id="Group_5116" data-name="Group 5116">
      <path id="Path_1755" data-name="Path 1755" d="M-287.847,1122.564l-41.465-45.8.309-.262,41.465,45.8Z" fill="#c7cbd1"/>
    </g>
    <g id="Group_5117" data-name="Group 5117">
      <path id="Path_1756" data-name="Path 1756" d="M-282.421,1116.663l-52.234-33.933.228-.329,52.234,33.933Z" fill="#c7cbd1"/>
    </g>
    <g id="Group_5118" data-name="Group 5118">
      <path id="Path_1757" data-name="Path 1757" d="M-278.768,1109.594l-59.443-19.748.131-.377,59.444,19.749Z" fill="#c7cbd1"/>
    </g>
    <g id="Group_5119" data-name="Group 5119">
      <rect id="Rectangle_3114" data-name="Rectangle 3114" width="0.398" height="62.743" transform="matrix(0.067, -0.998, 0.998, 0.067, -339.738, 1097.621)" fill="#c7cbd1"/>
    </g>
    <g id="Group_5120" data-name="Group 5120">
      <path id="Path_1758" data-name="Path 1758" d="M-277.637,1093.928l-61.494,11.6-.081-.39,61.493-11.6Z" fill="#c7cbd1"/>
    </g>
    <g id="Group_5121" data-name="Group 5121">
      <path id="Path_1759" data-name="Path 1759" d="M-280.235,1086.4l-56.2,26.625-.183-.358,56.194-26.626Z" fill="#c7cbd1"/>
    </g>
    <g id="Group_5122" data-name="Group 5122">
      <path id="Path_1760" data-name="Path 1760" d="M-284.755,1079.763l-47.067,39.839-.271-.3,47.067-39.838Z" fill="#c7cbd1"/>
    </g>
    <g id="Group_5123" data-name="Group 5123">
      <path id="Path_1761" data-name="Path 1761" d="M-290.888,1074.476l-34.73,50.335-.343-.222,34.729-50.337Z" fill="#c7cbd1"/>
    </g>
    <g id="Group_5124" data-name="Group 5124">
      <path id="Path_1762" data-name="Path 1762" d="M-298.216,1070.9l-20.028,57.4-.39-.129,20.028-57.4Z" fill="#c7cbd1"/>
    </g>
  </g>
  <g id="Group_5138" data-name="Group 5138" transform="translate(396.863 -963.288)">
    <g id="Group_5126" data-name="Group 5126">
      <rect id="Rectangle_3115" data-name="Rectangle 3115" width="60.688" height="0.412" transform="translate(-202.138 1129.798) rotate(-86.257)" fill="#c7cbd1"/>
    </g>
    <g id="Group_5127" data-name="Group 5127">
      <path id="Path_1763" data-name="Path 1763" d="M-193.964,1129.363l-12.377-59.587.4-.076,12.376,59.587Z" fill="#c7cbd1"/>
    </g>
    <g id="Group_5128" data-name="Group 5128">
      <path id="Path_1764" data-name="Path 1764" d="M-186.2,1126.9l-27.87-54.555.368-.174,27.87,54.554Z" fill="#c7cbd1"/>
    </g>
    <g id="Group_5129" data-name="Group 5129">
      <path id="Path_1765" data-name="Path 1765" d="M-179.372,1122.564l-41.465-45.8.308-.262,41.465,45.8Z" fill="#c7cbd1"/>
    </g>
    <g id="Group_5130" data-name="Group 5130">
      <path id="Path_1766" data-name="Path 1766" d="M-173.948,1116.663l-52.234-33.933.229-.329,52.234,33.933Z" fill="#c7cbd1"/>
    </g>
    <g id="Group_5131" data-name="Group 5131">
      <path id="Path_1767" data-name="Path 1767" d="M-170.3,1109.594l-59.443-19.748.133-.377,59.443,19.749Z" fill="#c7cbd1"/>
    </g>
    <g id="Group_5132" data-name="Group 5132">
      <path id="Path_1768" data-name="Path 1768" d="M-168.663,1101.84l-62.6-4.219.025-.4,62.6,4.217Z" fill="#c7cbd1"/>
    </g>
    <g id="Group_5133" data-name="Group 5133">
      <path id="Path_1769" data-name="Path 1769" d="M-169.163,1093.928l-61.494,11.6-.081-.39,61.493-11.6Z" fill="#c7cbd1"/>
    </g>
    <g id="Group_5134" data-name="Group 5134">
      <path id="Path_1770" data-name="Path 1770" d="M-171.763,1086.4l-56.194,26.625-.183-.358,56.194-26.626Z" fill="#c7cbd1"/>
    </g>
    <g id="Group_5135" data-name="Group 5135">
      <path id="Path_1771" data-name="Path 1771" d="M-176.282,1079.763l-47.066,39.839-.271-.3,47.066-39.838Z" fill="#c7cbd1"/>
    </g>
    <g id="Group_5136" data-name="Group 5136">
      <path id="Path_1772" data-name="Path 1772" d="M-182.414,1074.476l-34.731,50.335-.342-.222,34.73-50.337Z" fill="#c7cbd1"/>
    </g>
    <g id="Group_5137" data-name="Group 5137">
      <path id="Path_1773" data-name="Path 1773" d="M-189.741,1070.9l-20.029,57.4-.39-.129,20.028-57.4Z" fill="#c7cbd1"/>
    </g>
  </g>
</svg>
