<?xml version="1.0" encoding="utf-8"?>
<!-- Generator: Adobe Illustrator 25.0.1, SVG Export Plug-In . SVG Version: 6.00 Build 0)  -->
<svg version="1.1" id="Component_42_1" xmlns="http://www.w3.org/2000/svg" xmlns:xlink="http://www.w3.org/1999/xlink" x="0px"
	 y="0px" viewBox="0 0 289.1 207.4" style="enable-background:new 0 0 289.1 207.4;" xml:space="preserve">
<style type="text/css">
	.st0{fill:#F7F7F7;}
	.st1{opacity:0.15;}
	.st2{fill:#C8E7EB;}
	.st3{fill:#D8E081;}
	.st4{fill:#00A3A1;}
	.st5{opacity:0.4;}
	.st6{fill:#00ABC4;}
	.st7{fill:#00AEB4;}
	.st8{opacity:0.86;fill:#D89A56;enable-background:new    ;}
	.st9{fill:#F4D2AB;}
	.st10{opacity:0.22;fill:#FFFFFF;enable-background:new    ;}
	.st11{opacity:0.64;fill:#F4D2AB;enable-background:new    ;}
	.st12{opacity:0.64;}
	.st13{fill:#CEA780;}
	.st14{fill:#BC723F;}
	.st15{fill:#CE8757;}
	.st16{fill:#AA6231;}
	.st17{fill:#D89568;}
	.st18{opacity:0.54;fill:#BC723F;enable-background:new    ;}
</style>
<g id="Group_7748" transform="translate(-10.436 -24.788)">
	<g id="Group_7745">
		<g id="Group_7744">
			<path id="Path_4531" class="st0" d="M74.5,226.4c29.8,5.7,62.4,0.1,92.7,0.4c23.2,0.3,50.1,5.7,69.1-11
				c15.8-13.9,21.1-36.7,16.5-56.7c-0.6-2.7-1.4-5.4-2.3-8c0,0-16-23.4-4.2-48c11.7-24.6-9.7-26.8-12.8-23.5s-13.4,23.6-15,5.3
				c-0.3-2.8,9.4-32.7-8.7-45.3s-45.7-17-68.9,15.9s6.4,66.3,8.2,68.3s19.1,14.7,0.5,30.4s-31.4-11.1-49.7-13.9
				c-13-2-33.3,0.1-52.3,27.8c-8.4,12.2-6.9,29.1,0.5,41.4C54,219.4,63.7,224.4,74.5,226.4z"/>
		</g>
	</g>
	<g id="Group_7746">
		<path id="Path_4533" class="st0" d="M54.7,101.6c6.6,0.7,11.9,3.7,12.9,10.9c1.1,7.9-14.1,10.2-19.1,12
			c-6.4,2.3-9.6,6.9-12.8,12.7c-3.4,6.2-6.6,14.5-15.2,11.5c-20.4-7-5.2-32,6.3-40C32.3,104.9,44.9,100.6,54.7,101.6z"/>
	</g>
	<g id="Group_7747" class="st1">
		<path id="Path_4534" class="st2" d="M256.6,202.8c0,4.8-50.4,8.7-112.5,8.7s-112.5-3.9-112.5-8.7s50.4-8.7,112.5-8.7
			S256.6,198,256.6,202.8z"/>
	</g>
</g>
<g id="Group_7796" transform="translate(-10.436 -24.788)">
	<g id="Group_7781">
		<g id="Group_7750">
			<g id="Group_7749">
				<path id="Path_4535" class="st3" d="M207.4,120.3c-0.5-0.3-1.1-0.7-1-1.3c0.1-0.7,0.9-0.9,1.5-1c3.6-0.4,7.3,1,9.6,3.8l0,0.2
					c2.5-2.5,5.7-4,9.2-4.4c0.8-0.1,1.7,0,2.1,0.6c0.3,0.5,0.2,1.1-0.1,1.5c-0.3,0.4-0.8,0.8-1.3,1c-3,1.6-6.5,2.2-9.9,1.6l0.1-0.3
					v0C214.2,121,210.5,121.8,207.4,120.3z"/>
			</g>
		</g>
		<g id="Group_7752">
			<g id="Group_7751">
				<path id="Path_4536" class="st3" d="M205.9,130.5c-0.4-0.1-0.8-0.4-1-0.7c-0.2-0.5-0.1-1.2,0.3-1.6c0.4-0.4,1-0.6,1.6-0.7
					c3.7-0.7,7.4,0.6,9.9,3.4l0.1,0.4c2.2-3.2,5.4-5.5,9-6.5c0.8-0.2,1.8-0.3,2.2,0.3c0.3,0.4,0.3,0.9,0,1.4c-0.2,0.4-0.6,0.8-1,1.1
					c-2.9,2.4-6.6,3.8-10.4,3.9l0,0c-2.6-0.1-5.1-0.3-7.7-0.4C208,130.9,206.9,130.8,205.9,130.5z"/>
			</g>
		</g>
		<g id="Group_7754">
			<g id="Group_7753">
				<path id="Path_4537" class="st3" d="M216.6,149.4c-3.4,1.4-7.2,2-10.9,1.8c-0.7,0-1.5-0.2-1.8-0.9c-0.3-0.7,0.4-1.4,1-1.8
					c1.8-1,3.9-1.4,6-1c2,0.4,4,1,5.9,1.8L216.6,149.4z"/>
			</g>
		</g>
		<g id="Group_7756">
			<g id="Group_7755">
				<path id="Path_4538" class="st3" d="M210.9,102.1c0.1-0.8,1.1-1.1,1.9-1.2c1.8,0,3.5,0.6,4.9,1.7c1.4,1.1,2.5,2.5,3.3,4.1v0
					c1.7-1.5,3.7-2.5,5.9-3c0.6-0.1,1.2-0.1,1.8,0.2c0.6,0.2,0.9,0.8,0.9,1.4c-0.2,0.7-0.6,1.2-1.3,1.4c-2.2,1-4.7,0.8-7.1,0.6
					l-0.4-0.3c-3-0.6-5.9-1.7-8.5-3.2C211.6,103.5,210.8,102.9,210.9,102.1z"/>
			</g>
		</g>
		<g id="Group_7758">
			<g id="Group_7757">
				<path id="Path_4539" class="st3" d="M213.9,95.3c0.1-0.5,0.4-0.9,0.9-1.1c0.5-0.2,1-0.3,1.5-0.2c1.5,0.1,3,0.7,4.2,1.7
					c1.2,1,2.2,2.1,3.1,3.3l-0.4,0c-2.4-0.3-4.7-0.7-7-1.4c-0.5-0.1-1.1-0.4-1.5-0.7C214.1,96.5,213.9,95.9,213.9,95.3z"/>
			</g>
		</g>
		<g id="Group_7760">
			<g id="Group_7759">
				<path id="Path_4540" class="st3" d="M206.5,140.5c-0.8,0.1-1.6-0.1-2.3-0.4c-0.7-0.4-1-1.2-0.7-2c0.4-0.4,0.9-0.7,1.4-0.8
					c4-0.8,8.1,0.4,11.1,3.2C212.9,140.6,209.7,140.5,206.5,140.5z"/>
			</g>
		</g>
		<g id="Group_7762">
			<g id="Group_7761">
				<path id="Path_4541" class="st3" d="M223.3,99l0.3,0.1c2.3-1.9,5.1-3,8.1-3.1c0.5,0,1,0,1.4,0.2c0.5,0.2,0.8,0.6,0.8,1.1
					c0,0.8-0.8,1.3-1.5,1.6C229.5,100,226.3,100,223.3,99z"/>
			</g>
		</g>
		<g id="Group_7764">
			<g id="Group_7763">
				<path id="Path_4542" class="st3" d="M228.2,88.6c0.8-4.6,3.5-8.5,7.5-10.9c0.4-0.3,0.9-0.5,1.3-0.6c0.5-0.1,1,0,1.4,0.4
					c0.6,0.6,0.3,1.7-0.1,2.5c-2.1,3.9-6.1,6.2-10,8.4L228.2,88.6z"/>
			</g>
		</g>
		<g id="Group_7766">
			<g id="Group_7765">
				<path id="Path_4543" class="st3" d="M218.9,115.4L218.9,115.4L218.9,115.4L218.9,115.4c2.1-2.9,5.3-5,8.8-5c0.8,0,1.8,0.2,2,1
					c0.3,0.8-0.5,1.6-1.2,2.1c-2.8,1.9-6.2,2.6-9.5,1.9L218.9,115.4L218.9,115.4z"/>
			</g>
		</g>
		<g id="Group_7768">
			<g id="Group_7767">
				<path id="Path_4544" class="st3" d="M226.2,93.4l-0.3-0.2c1.3-1,2.8-1.9,4.3-2.6c1.5-0.7,3.2-1,4.9-0.9c0.5,0,1,0.2,1.5,0.4
					c0.5,0.3,0.7,0.7,0.7,1.3c0,0.9-0.9,1.4-1.8,1.7C232.6,94.1,229.3,94.2,226.2,93.4z"/>
			</g>
		</g>
		<g id="Group_7770">
			<g id="Group_7769">
				<path id="Path_4545" class="st3" d="M209,110.3c0.3-0.4,0.8-0.7,1.3-0.7c1.8-0.1,3.7,0.4,5.1,1.6c1.4,1.2,2.5,2.5,3.4,4.1
					c-2.8-0.6-5.6-1.5-8.3-2.7c-0.5-0.2-0.9-0.5-1.3-0.9C208.8,111.4,208.7,110.8,209,110.3z"/>
			</g>
		</g>
		<g id="Group_7772">
			<g id="Group_7771">
				<path id="Path_4546" class="st3" d="M216.1,140.6C216.1,140.6,216.1,140.6,216.1,140.6C216.1,140.6,216.1,140.6,216.1,140.6
					l0.1-0.1c1.4-3.8,4.1-7,7.6-9.1c0.6-0.5,1.4-0.6,2.1-0.4c0.7,0.5,1,1.4,0.7,2.1c-0.5,1.4-1.6,2.6-2.9,3.4
					c-2.3,1.6-4.7,3-7.3,4.1v0l0,0.1c0,0-0.1-0.1-0.1-0.1c-0.1,0-0.2,0.1-0.3,0.1L216.1,140.6z"/>
			</g>
		</g>
		<g id="Group_7774">
			<g id="Group_7773">
				<path id="Path_4547" class="st3" d="M216.9,149.3c0.1,0,0.1-0.1,0.2-0.1c0,0.2-0.1,0.3-0.1,0.5L216.9,149.3z"/>
			</g>
		</g>
		<g id="Group_7776">
			<g id="Group_7775">
				<path id="Path_4548" class="st3" d="M225.9,138.1c0.5-0.2,1-0.3,1.5-0.3c0.5,0,1,0.3,1.3,0.7c0.2,0.5,0.3,1,0.1,1.5
					c-0.5,1.3-1.3,2.4-2.4,3.3c-2.8,2.4-5.9,4.4-9.2,5.9c0.6-2.3,1.6-4.4,2.9-6.4C221.5,140.7,223.5,139.1,225.9,138.1z"/>
			</g>
		</g>
		<g id="Group_7778">
			<g id="Group_7777">
				<path id="Path_4549" class="st3" d="M230.9,149.4c0.2,0.4,0.2,0.8,0.1,1.3c-0.1,0.4-0.4,0.8-0.6,1.1c-1.5,2-3.4,3.7-5.5,4.9
					c-2.1,1.2-4.2,2.3-6.5,3.3l0.2,0.2c-3.3,0.8-6.8,1-10.1,0.6c-0.6,0-1.1-0.2-1.6-0.5c-0.5-0.3-0.8-0.9-0.7-1.4
					c0.2-0.5,0.7-1,1.3-1.1c3.7-1.3,7.8-0.5,10.7,2.1l0-0.1c1-4.1,3.5-7.6,7.1-9.9c1.1-0.8,2.4-1.2,3.8-1.3
					C229.8,148.5,230.5,148.8,230.9,149.4z"/>
			</g>
		</g>
		<g id="Group_7780">
			<g id="Group_7779">
				<path id="Path_4550" class="st3" d="M220.7,164.6c-7.3-25.4-3.8-52.7,9.5-75.5c0.8-1.4-1.5-2.4-2.3-1
					c-13.6,23.4-17.1,51.4-9.6,77.5C218.8,167.1,221.2,166.2,220.7,164.6z"/>
			</g>
		</g>
	</g>
	<g id="Group_7789">
		<g id="Group_7783">
			<g id="Group_7782">
				<path id="Path_4551" class="st4" d="M220.3,166.4c0.2-0.1,0.4-0.1,0.6-0.2c0,0.2-0.1,0.4-0.2,0.5L220.3,166.4z"/>
			</g>
		</g>
		<g id="Group_7786" class="st5">
			<g id="Group_7785">
				<g id="Group_7784">
					<path id="Path_4552" class="st6" d="M220.9,166.2c1-3.8,0.1-8.2-1.2-12.4c-1.3-4.4-3.1-8.8-3.5-13.2c-0.1-1,0-2.1,0.7-2.6
						c0.9-0.7,2.6-0.2,3.6,0.8c0.9,1,1.6,2.1,2,3.4c-0.3-5.7,0.9-11.3,3.6-16.3c1.4,1.9,2.7,3.7,4.1,5.6c0.6-4.6,2.4-8.9,5.1-12.6
						c0.8-1.1,2.1-2.2,3.7-1.7c1.8,0.6,2.4,2.6,2.6,4.3c3.9-6.1,10.1-10.4,17.2-12c2-0.5,4.5-0.6,6.1,1c1.6,1.6,1,3.9,0.3,5.6
						c-2.2,5.1-5,9.9-8.3,14.3c1.6-0.4,3.2-0.4,4.8,0c1.6,0.5,3.3,1.9,3.3,3.4c0,1.3-1.3,2.2-2.4,2.8c-4.5,2.4-9.1,4.6-13.8,6.7
						c2,0.4,4.6,1.3,4.9,3.1c0.3,1.6-1.3,2.5-2.7,3c-3.9,1.6-7.9,3-12,4.3c1.6,0,2.9,1,3.3,2.5c0.3,1.3-0.2,2.7-1.3,3.4
						c-1.1,0.8-2.4,1.3-3.7,1.6C231.8,162.9,226.3,164.6,220.9,166.2z"/>
				</g>
			</g>
		</g>
		<g id="Group_7788">
			<g id="Group_7787">
				<path id="Path_4553" class="st7" d="M255.1,115.8c-5.9,6.2-11.3,12.8-16.2,19.8c-0.1-2.7-0.1-5.5,0.3-8.2c0.1-0.8-1.2-0.8-1.3,0
					c-0.4,3.3-0.4,6.5-0.2,9.8l0,0c-3.1,4.5-6.1,9.2-8.8,14.1c-0.3-4.2-0.6-8.3-0.9-12.5c-0.1-0.8-1.3-0.8-1.3,0
					c0.3,4.7,0.7,9.3,1,14c0,0.1,0.1,0.3,0.2,0.4c-1.6,2.9-3.1,5.7-4.5,8.7c-0.4,0.7,0.7,1.4,1.1,0.6c1.5-3.1,3.1-6.1,4.7-9.1
					c0,0,0.1,0,0.1,0c3.2-1.4,6.4-2.7,9.6-4c0.7-0.3,0.4-1.5-0.3-1.2c-2.8,1.2-5.6,2.4-8.4,3.5c2.7-4.8,5.7-9.6,8.9-14.1
					c0.1,0,0.2,0,0.3,0c4.2-0.9,8.3-2.1,12.3-3.8c0.7-0.3,0.4-1.5-0.3-1.2c-3.6,1.5-7.3,2.7-11.2,3.5c4.8-6.8,10.1-13.2,15.8-19.2
					C256.6,116.1,255.7,115.2,255.1,115.8z"/>
			</g>
		</g>
	</g>
	<g id="Group_7795">
		<g id="Group_7792" class="st5">
			<g id="Group_7791">
				<g id="Group_7790">
					<path id="Path_4554" class="st6" d="M219.6,139.6c0.7,1.8-0.1,3.6-0.8,5.3c-2.6,5.7-5.5,11.3-8.6,16.8l0.3,0.3
						c-5.4-0.4-10.9-0.8-16.4-1.1c-1.2,0-2.3-0.2-3.4-0.7c-1.7-0.8-2.9-3.1-0.3-4.9c0.5-0.3,1-0.6,1.6-0.7l7.4-2.4
						c0.8-0.3,1.8-0.7,1.7-1.7c-0.1-0.5-0.4-0.9-0.9-1.1c-3.5-1.6-7.4-2.1-11.1-1.4c-1.1,0.3-2.1,0.4-3.2,0.3
						c-1.4-0.3-2.8-1.9-1.4-3.4c0.3-0.3,0.7-0.6,1.1-0.7c2.6-1.1,5.4-2,8.2-2.5c1.5-0.3,3.4-0.9,3.1-2.5c-0.2-0.7-0.7-1.2-1.4-1.4
						c-3.2-1-6.6-1.3-10-0.9c-0.8,0.2-1.7,0.2-2.5,0c-1.1-0.3-2.1-1.5-1.1-2.8c0.4-0.5,0.9-0.8,1.5-0.9l8-1.7
						c0.9-0.2,2.1-0.6,2.1-1.7c0-0.8-0.5-1.4-1.3-1.6c-3.6-1-7.3-1.4-11-1c-1.2,0.1-2.4,0.3-3.4-0.5c-0.5-0.4-0.8-1-0.7-1.6
						c0.2-0.9,1.1-1.2,1.9-1.4l8.5-2.1c0.3-0.1,0.5-0.4,0.4-0.7c0-0.2-0.2-0.3-0.3-0.4c-3.2-1.4-6.7-2-10.2-1.8
						c-0.9,0.1-1.7,0.1-2.6-0.1c-1.2-0.4-2.1-1.8-0.9-3c0.3-0.3,0.8-0.5,1.2-0.7c2.6-0.7,5.3-1.3,8-1.5c-1.7-1.9-3.5-3.8-5.2-5.8
						c-1.3-1.4-2.7-3.1-1.9-5c0.5-1.3,1.8-2.1,3.2-2c2.3,0,4.1,1.7,5.2,3.6c0.6,1.1,1.1,2.2,2.3,2.8c0.6,0.3,1.2,0.3,1.8,0
						c1-0.5,0.9-1.7,1-2.7c0.1-0.9,0.5-1.9,1.4-2c0.5,0,0.9,0.2,1.2,0.5c1.2,1.2,1.2,3.2,0.8,4.8c-0.4,2-1.2,4.2,0,6.1
						c0.6,1.1,2,1.5,3.1,0.9c1.1-0.6,1.2-2,1.5-3.1s1.4-2.4,2.5-1.7c0.3,0.2,0.6,0.5,0.7,0.9c1,2.7,0,5.5-0.6,8.2
						c-0.5,1.7-0.6,3.5-0.3,5.2c0.2,0.7,0.9,1.1,1.6,1c0.3-0.1,0.6-0.3,0.8-0.6l3.3-5c0.4-0.6,0.8-1.2,1.6-1.1
						c0.4,0.1,0.8,0.3,1,0.7c0.3,0.9,0.3,1.9-0.1,2.8c-1.1,3.4-2.2,6.8-3.3,10.2c-0.4,1.2-0.7,2.6,0.3,3.5c0.8,0.7,2,0.7,2.8,0
						c1.8-1.3,2-3.5,3-5.2c0.6-1,2-2,2.9-0.9c0.4,0.5,0.5,1.1,0.3,1.7c-1.2,3.3-2.8,6.5-4.6,9.5c-0.7,1.2-1.5,2.5-1.2,3.9
						c0.2,0.9,1,1.6,1.9,1.6c1-0.1,1.5-1,2-1.8c0.7-1.3,1.4-2.6,2.1-3.8c0.7-1.3,1.7-2.8,3.3-2.7C218.4,138,219.2,138.7,219.6,139.6
						z"/>
				</g>
			</g>
		</g>
		<g id="Group_7794">
			<g id="Group_7793">
				<path id="Path_4555" class="st7" d="M209.2,160.8c-3-22.9-13.7-44.1-30.3-60c-0.6-0.6-1.5,0.3-1,0.8
					c16.5,15.8,27.1,36.8,30.1,59.4C208,161.9,209.3,161.6,209.2,160.8z"/>
			</g>
		</g>
	</g>
</g>
<g id="Group_7798" transform="translate(-10.436 -24.788)">
	
		<image style="overflow:visible;enable-background:new    ;" width="687" height="560" id="Rectangle_3290" xlink:href="5B10CD88.png"  transform="matrix(0.24 0 0 0.24 45.175 70.933)">
	</image>
	<path id="Path_4556" class="st8" d="M129.9,190.1c-2-5.9-1.7-12.3-1.5-18.6c-2.1,4.9-1.3,10.5-2,15.8s-3.6,11.2-8.9,11.8
		c-4,0.5-7.7-2.2-11-4.5c-7.2-4.8-15.4-7.9-23.9-9.1c-3.3-0.5-6.7-0.7-9.7-2.1c-6.4-3-9.3-10.7-9.6-17.8s1.3-14.1,1.1-21.2
		c-0.1-2.1-0.2-4.3,1-6c0.6-0.8,1.4-1.4,2.3-1.9c6.9-3.9,15.6-2.2,23.3-0.4l24.8,5.8c5.3,1.2,11.4,3.1,13.3,8.2
		c0.5-7.1-1.3-14.3-5.1-20.3c-2.3-3.5-5.3-7.4-4.1-11.5c-3.8,5-8.2,10.2-14.4,11.4c-3.7,0.8-7.5,0-11.2-0.8l-17.7-3.7
		c-7.7-1.6-16-3.5-21.1-9.5c-5.6-6.5-5.7-16.6-1.5-24.1c1.3-2.3,3-4.3,4.9-6.1c-5.4,2.8-10.1,6.6-12.3,12.4
		c-2,5.1-1.5,10.9,0.4,16.1c3.8,10.5,12.8,16.7,14.8,28c1.8,9.8,0.7,19.9,0.4,29.8c-0.2,2.5,0,5,0.5,7.5c2.6,9.8,17.3,8.2,24.8,9.6
		c16.4,2.9,30.8,17.4,47.6,16.1c2.1-0.2,4.1-0.5,6.1-1c0.5-0.7,1.1-1.4,1.6-2.1C136.7,201.4,131.9,196,129.9,190.1z"/>
	<path id="Path_4557" class="st9" d="M199.5,198c3-1.6,4.6-5,5.2-8.3c3.3-17.2-7.1-47.9-3.4-53.4c1.5-2.3,3.6-4.2,5.1-6.5
		c0.6-0.9,1.1-1.7,1.5-2.7c1-6.4,0.8-13-1.6-19c-2.8-6.9-8.9-12.7-16.2-13.8c-4.9-0.7-9.7,0.7-14.5,1.9c-20,5.1-33.7-4.3-51.3,9
		c-3.2,2.5-7.5,8.4-8.7,12.3c-4.8,15,9.6,14.7,11,27.8c1.5,14.4-1.7,33.2-1.4,47.7c-0.1,2.2,0.3,4.5,1.1,6.6c1.1,2.1,2.7,3.8,4.7,5
		c1.4,0.1,2.8,0.1,4.2,0c4.7-0.5,9.3-1.5,13.7-3c8.4-2.6,17.1-4,25.9-4.2C181.9,197.5,192.8,201.5,199.5,198z"/>
	<path id="Path_4558" class="st10" d="M97.8,119.4c-8.3,0.2-16.7-0.8-24.7-3.1c-3.6-0.9-6.9-2.3-10-4.3c-3.1-2-5.2-5.2-6-8.8
		c-1.1-6.5,4.6-13.2,11.2-13.3c4.7-0.1,8.9,2.6,13.4,4c9.8,3.1,20.3-0.7,30,2.1c8.9,2.5,3.2,11.3-0.5,16.1
		C107.8,116.3,103.2,119.2,97.8,119.4z"/>
	<path id="Path_4559" class="st10" d="M79.7,98.4c-1.3-0.5-2.5-1.1-3.8-1.6c-1.5-0.7-3.1-1.2-4.7-1.6c-1.6-0.5-3.3-0.5-4.9,0
		c-1.6,0.5-2.9,1.8-3.2,3.5c-0.1,1.6,0.6,3.1,1.8,4.1c1.3,0.9,2.7,1.6,4.3,1.8c4.1,0.9,8.3,0.9,12.3-0.1c0.4-0.1,0.8-0.2,1.1-0.4
		c1-0.9,1.2-2.4,0.3-3.5C82.1,99.6,81,98.8,79.7,98.4z"/>
	<path id="Path_4560" class="st10" d="M86.7,179.7c2.7-0.1,6-0.6,7.1-3.1c0.8-1.9,0-4.1-1.4-5.6c-1.5-1.4-3-2.7-4.7-4
		c-6-5.4-7-14.6-5.1-22.5c0.4-1.2,0.5-2.5,0.2-3.7c-0.7-1.9-3-2.7-5-2.8c-3.2-0.2-6.7,0.8-8.3,3.6c-1.1,1.9-0.9,4.3-0.7,6.5
		c0.5,5.1,0.6,10.3,0.5,15.5c-0.1,3.3-0.4,6.8,1.1,9.7c1.5,2.7,4.1,4.7,7.1,5.5C80.6,179.6,83.6,179.9,86.7,179.7z"/>
	<path id="Path_4561" class="st11" d="M148.5,194.3c-4.3,0.9-8.5,2.2-12.9,2.3c-3.9,0.1-8-1.1-10.5-4c0,0.1,0,0.3,0,0.4
		c-0.1,2.2,0.3,4.5,1.1,6.6c1.1,2.1,2.7,3.8,4.7,5c1.4,0.1,2.8,0.1,4.2,0c4.7-0.5,9.3-1.5,13.7-3c8.4-2.6,17.1-4,25.9-4.2
		c7.1-0.1,18.1,3.9,24.7,0.5c3-1.6,4.6-5,5.2-8.3c3.3-17.2-7.1-47.9-3.4-53.4c1.5-2.3,3.6-4.2,5.1-6.5c0.6-0.9,1.1-1.7,1.5-2.7
		c1-6.4,0.8-13-1.6-19c-2.3-5.8-7.1-10.9-12.9-12.9c0.5,1.3,1.2,2.6,1.9,3.8c3.7,6.8,4.7,14.8,2.9,22.3c-2.3,9-8.5,16.7-10,25.8
		c-1.8,11.2,3.6,23.7-2.1,33.6c-3.4,6-10.3,9.2-17,10.7S155.3,193,148.5,194.3z"/>
	<g id="Group_7797" class="st12">
		<path id="Path_4562" class="st13" d="M183.7,118.3c0.5,1.1,1.4,1.9,2.5,2.3c1.3,0.3,2.7,0,3.7-0.8c2.8-1.9,3.8-5.6,3.2-8.9
			c-0.1-0.7-0.4-1.4-0.9-1.9c-0.4-0.3-0.9-0.5-1.4-0.7c-0.9-0.4-1.8-0.8-2.7-1c-1.8-0.1-3.5,0.8-4.3,2.5c-0.8,1.6-1.1,3.4-0.9,5.2
			C183,116.1,183.2,117.3,183.7,118.3z"/>
		<path id="Path_4563" class="st13" d="M173.1,128c-0.2-0.5-0.6-0.9-1.1-1l0.1,0.1c-1.1,0.1-2.4,0.4-2.8,1.5c-0.1,0.3-0.1,0.6-0.1,1
			c0,1.1,0.7,2.1,1.7,2.6c1,0.4,2.1-0.1,2.5-1.1c0-0.1,0-0.1,0.1-0.2c0-0.4,0-0.9-0.1-1.3C173.3,129,173.2,128.5,173.1,128z"/>
		<path id="Path_4564" class="st13" d="M183.3,129.6c-0.3,1.1,0.3,2.2,1.3,2.5c0.1,0,0.2,0.1,0.3,0.1c0.3,0,0.5,0,0.8-0.1
			c0.5-0.3,0.7-0.8,0.7-1.3c0-0.5-0.1-1.1-0.3-1.6l0.1-0.4c-0.9-0.6-2.2-0.4-2.8,0.6C183.4,129.4,183.4,129.5,183.3,129.6z"/>
		<path id="Path_4565" class="st13" d="M144.7,167.1c-1.5-0.9-3.4-0.6-4.6,0.7c-0.3,0.4-0.5,0.8-0.6,1.3c-0.8,1.5-0.9,3.4-0.2,5
			c0.4,1.5,1.1,2.9,2,4.2c0.9,1.3,2.3,2.2,3.8,2.4c1.6,0.2,3.1-0.7,3.7-2.2c0.1-0.5,0.2-1,0.2-1.5c0-2-0.4-4.1-1.2-6
			C147.2,169.4,146.1,168,144.7,167.1z"/>
		<path id="Path_4566" class="st13" d="M150.7,158.4c-1.1,0.2-1.9,0.9-2.3,1.9c-0.4,1-0.4,2.1,0,3.1c0.2,0.5,0.5,1,0.9,1.4
			c1.1,0.9,2.7,0.9,3.8-0.1c0.5-0.5,0.8-1.1,0.9-1.8c0.3-1.1,0.1-2.3-0.5-3.2C152.9,158.8,151.8,158.3,150.7,158.4z"/>
		<path id="Path_4567" class="st13" d="M190.5,174.1c-1.9-0.7-4.1-0.1-5.4,1.6c-1.2,1.6-1.7,3.7-1.4,5.7c0.2,1.7,0.9,3.3,2,4.6
			c0.3,0.4,0.7,0.7,1.2,0.9c0.5,0.2,1,0.3,1.6,0.3c1.6,0,3-0.7,4.1-1.9c1-1.2,1.6-2.6,1.7-4.2c0.2-2.4-0.7-4.7-2.5-6.3
			C191.3,174.6,190.9,174.3,190.5,174.1z"/>
		<path id="Path_4568" class="st13" d="M185.1,170c0.2-0.6,0.2-1.1,0.2-1.7c0-0.7,0-1.3-0.2-2c-0.3-1.1-1.1-2.1-2.2-2.6
			c-0.5-0.2-1-0.3-1.5-0.3c-1.3,0.2-2.3,1.2-2.5,2.5c-0.2,1.3,0.1,2.6,0.8,3.6c0.3,0.7,0.8,1.3,1.4,1.7c1.2,0.8,2.9,0.4,3.7-0.8
			C184.9,170.3,185,170.2,185.1,170L185.1,170z"/>
		<path id="Path_4569" class="st13" d="M194.5,161.4l0.1,0.1c-0.1-0.5-0.6-0.8-1.1-0.8c-0.5,0-1,0.3-1.3,0.7
			c-0.5,0.6-0.8,1.5-0.6,2.3c0,0.3,0.1,0.5,0.3,0.7c0.3,0.3,0.7,0.4,1,0.3c1.2-0.1,2-1.1,2-2.3C195,162,194.8,161.7,194.5,161.4z"/>
		<path id="Path_4570" class="st13" d="M139,119.7c-0.2-0.4-0.5-0.8-0.9-1c-0.3-0.1-0.7-0.2-1.1-0.1c-0.6,0-1.2,0.1-1.8,0.4
			c-0.6,0.2-1,0.7-1.3,1.3c-0.1,0.3-0.1,0.5-0.1,0.8c-0.1,0.5,0,1,0.1,1.5c0.3,0.8,1.1,1.3,1.9,1.4c0.8,0.1,1.7-0.1,2.4-0.5
			c0.3-0.2,0.6-0.4,0.8-0.6C139.8,121.8,139.5,120.6,139,119.7z"/>
	</g>
</g>
<g id="Group_7799" transform="translate(-10.436 -24.788)">
	<path id="Path_4571" class="st14" d="M297.8,192.3c-4.9,2-10.2,2.4-15.3,1.3c-0.6-0.1-1.1-0.3-1.6-0.7c-0.5-0.6-0.8-1.4-0.9-2.2
		c-0.6-3.1-0.8-6.2-0.7-9.3c0.1-3.2,1.4-6.2,3.4-8.5c0.4-0.5,1-0.9,1.6-1.1c0.9-0.1,1.9,0.1,2.6,0.7c2.2,1.2,4.2,2.7,6,4.3
		c3.9,3.5,7.2,8.5,6.3,13.7c0,0.4-0.2,0.7-0.4,1C298.7,191.9,298.3,192.2,297.8,192.3z"/>
	<path id="Path_4572" class="st15" d="M267.4,153.8c2.6,2,5.1,4,7.7,6c1.5,1.4,3.4,2.4,5.4,2.9c1.7,0.3,3.5-0.1,5.1,0.5
		c2.6,0.9,4,4,3.9,6.8s-1.2,5.4-2,8.1c-1.6,6-1.3,12.3-0.9,18.6c-9.1-2.7-18.6-4-28.1-3.9c1.4-10.5-4.9-21.5-0.9-31.3
		c1.4-3.4,3.9-6.2,7.1-8c0.4-0.2,0.8-0.4,1.2-0.4C266.4,153.1,267,153.3,267.4,153.8z"/>
	<path id="Path_4573" class="st14" d="M264.5,151c0.7,0.1,1.3,0.6,1.7,1.2c0.2,0.7,0,1.5-0.5,2.1c-1.8,2.9-4.3,5.5-5.8,8.5
		c-4.2,8.6-0.2,18.8-0.5,28.4c0.1,0.8-0.2,1.6-0.7,2.3c-0.9,1-2.5,0.8-3.8,0.5c-6.4-1.3-12.9-1.5-19.3-0.6
		c2.9-15.2-1.8-30.9-12.5-42.2c3.2-3.9,8.9-4.5,12.8-1.4c0.7,0.8,1.6,1.5,2.5,2.1c2.8,1.4,5.8-1,8.6-2.3
		C252.6,147.3,258.9,149.1,264.5,151z"/>
	<path id="Path_4574" class="st16" d="M239.3,184.1c0.1,2.9-0.6,5.9-1.9,8.5c-1.5,2.5-5.6,4.9-8.5,4.7c-6.9-17.3-20-31.7-37.5-38.1
		c1.3-3.7,6-5,10-5s8.3,0.6,11.7-1.5c2.4-1.5,4.3-4.4,7.2-4.3c1.6,0.2,3.2,1,4.3,2.2C234.1,159.1,239.5,171.3,239.3,184.1z"/>
	<path id="Path_4575" class="st14" d="M184,160.6c-0.6,1-1.1,2-1.4,3.2c-1,2.3-3.3,3.8-5.1,5.4c-9,7.9-10.4,23.1-2.9,32.5
		c15.9-1.8,31.9-0.1,47.1,4.8c0.7,0.3,1.5,0.4,2.3,0.4c0.6-0.1,1.3-0.4,1.8-0.8c2.7-1.7,5.4-4.4,4.9-7.6c-0.2-0.9-0.5-1.8-0.9-2.6
		c-3.8-7.9-7.7-15.9-13.8-22.1c-4.8-4.8-10.7-8.2-16.7-11.3c-3.7-1.9-7.8-3.7-12-3.3C186,159.3,184.9,159.8,184,160.6z"/>
	<path id="Path_4576" class="st15" d="M174.4,190.9c-3.3,2.4-6.7,6-5.6,9.8c0.6,2.1,2.5,3.6,4,5.2c2.8,3.2,4.3,7.3,6.1,11.2
		c1.7,3.9,4.2,7.5,7.3,10.4c3.2,3,7.3,4.6,11.6,4.6c3.1-6.1,6.2-12.2,10.7-17.3s10.6-9.1,17.4-9.6c-1.5-6.3-6.3-11.2-11.3-15.3
		c-4.2-3.4-8.8-6.5-14.1-7.5C191.3,180.6,182,185.4,174.4,190.9z"/>
	<path id="Path_4577" class="st17" d="M202,209.4c-5.4,5.5-9.8,13.3-7.6,20.7c0.1,0.7,0.5,1.2,1.1,1.6c0.4,0.2,0.9,0.3,1.4,0.2
		l27.7-0.7c0.4-6.2,4.5-11.5,10.4-13.4c0.5-0.1,1.1-0.4,1.5-0.8c0.3-0.6,0.4-1.3,0.2-1.9c-1.1-4.4-4.7-7.8-8.8-9.5
		s-8.7-2.1-13.2-1.9c-2,0-3.9,0.3-5.8,0.9C206.2,205.6,203.9,207.3,202,209.4z"/>
	<path id="Path_4578" class="st14" d="M242.5,225.5c-0.1,0.6-0.3,1.2-0.7,1.7c-2.1,2.9-5.8,3.2-9.1,3.3l-8.3,0.3
		c-0.7,0.1-1.5-0.1-2-0.6c-0.2-0.3-0.4-0.7-0.4-1.1c-0.2-1-0.3-2-0.4-3.1c-0.2-1.3-0.2-2.7,0.1-4c0.3-1.3,0.9-2.6,1.8-3.6
		c2.6-3.1,6.8-4.4,10.7-3.2c3.7,1.2,6.8,4.5,8.2,8.6C242.4,224.3,242.5,224.9,242.5,225.5z"/>
	<path id="Path_4579" class="st18" d="M295.5,180.2c0.6,1.7,0.5,3.6-0.4,5.2c-0.9,1.3-2.4,2.1-4,2.3c-1.6,0.1-3.2,0-4.7-0.4
		c-1.4,1.6-3.7,1.8-5.8,1.9c-3,0.1-6,0.1-8.9-0.1c-2.4-0.1-4.8-0.5-7.1-1.2c-2.3-0.8-4.3-2.3-5.6-4.3c-0.1,1.5-1.8,2.4-3.3,2.8
		c-5.8,1.6-12.1,0.3-16.9-3.4c-2.5,4.4-6.9,7.5-11.9,8.3l1.4,7.6c0.4,2.2,0.5,5.1-1.5,6.2c0.2-0.1,0.4-0.1,0.7-0.2
		c2-1.7,3.5-3.8,3.2-6.3c-0.1-0.3-0.1-0.6-0.3-0.9c2.6-0.6,4.9-2.1,6.5-4.3c6-0.7,12.2-0.5,18.1,0.7c1.3,0.3,2.9,0.5,3.8-0.5
		c0.2-0.2,0.3-0.5,0.4-0.7c9.3-0.1,18.5,1.2,27.3,3.9c0-0.8-0.1-1.6-0.1-2.4c3.9,0.2,7.8-0.4,11.4-1.9c0.5-0.1,0.9-0.4,1.2-0.8
		c0.2-0.3,0.3-0.7,0.4-1c0.8-4.4-1.5-8.6-4.5-11.9C295.1,179,295.3,179.6,295.5,180.2z"/>
	<path id="Path_4580" class="st18" d="M241.8,227.1c0.4-0.5,0.6-1.1,0.7-1.7c0-0.6-0.1-1.2-0.3-1.7c-0.4-1.2-1-2.4-1.8-3.5l0,0
		c-1.2,2-2.9,3.5-5,4.4c-2.4,1.3-5.2,1.9-7.9,1.5c-2.7-0.5-5.2-2.5-5.7-5.2c-1,3-4.1,4.9-7.2,5.5s-6.3-0.1-9.4-0.7
		c-1.5-0.2-2.9-0.7-4.2-1.5c-1.7-1.3-2.7-3.3-2.8-5.4c-0.1-2.1,0.1-4.2,0.6-6.2c-1.5,1.8-4.2,2.2-6.4,1.5c-2.2-0.9-4.2-2.1-5.8-3.8
		c-3.3-2.9-6.7-5.9-8.7-9.8s-2.4-9,0.2-12.5c-3.2-0.5-6-2.2-7.9-4.9c-0.6,3.7-0.4,7.5,0.7,11.1c-1.6,1.9-2.6,4.1-1.9,6.5
		c0.6,2.1,2.5,3.6,4,5.2c2.8,3.2,4.3,7.3,6.1,11.2c1.7,3.9,4.2,7.5,7.3,10.4c3.2,3,7.3,4.6,11.6,4.6c0.1-0.1,0.1-0.2,0.2-0.3
		l26.6-0.7c0-0.1,0-0.2,0-0.3l8-0.3C235.9,230.4,239.7,230,241.8,227.1z"/>
	<path id="Path_4581" class="st10" d="M217.6,206.8c2.4-0.1,4.9-0.1,7,1.1c-2.3,2.9-4.6,5.7-6.9,8.5c-1.2,1.5-2.5,3-4.3,3.6
		c-1.1,0.3-2.1,0.3-3.2,0.2c-2.3-0.2-4.5-0.5-6.7-0.9c-1-0.1-2-0.6-2.6-1.4c-0.6-1.2,0.3-2.6,1.2-3.7c1.7-2.2,3.8-4.1,6.2-5.6
		C211.1,207.2,214.4,206.9,217.6,206.8z"/>
	<path id="Path_4582" class="st10" d="M185.4,201.7c-1.3-2.9-4.3-5.1-4.3-8.3c0.1-2.7,2.5-4.8,4.9-6c7.9-3.8,17.7-1.6,24.7,3.6
		c2.7,2,5.2,4.7,5.4,8c-6.8,0-14.1,0.1-19.4,4.3c-1.2,1.1-2.5,2.1-3.8,3.1c-1.4,0.9-3.2,1.1-4.7,0.3
		C186.6,205.8,186.3,203.5,185.4,201.7z"/>
	<path id="Path_4583" class="st10" d="M217.5,181.9c-2.7,0.6-5.4-1-8.1-1.8c-2.5-0.7-5-1.2-7.6-1.3c-4.9-0.5-9.8-0.9-14.7-0.1
		c-2.6,0.4-5.2,1.2-7.9,1.6c-0.7,0.1-1.4,0.1-2.1-0.2c-1.8-0.9-1.3-3.8,0.2-5.1s3.6-2.1,4.8-3.7c1.6-2.1,1.5-5.3,3.6-6.9
		c1.3-0.8,2.7-1.1,4.2-0.9c3,0.2,6,0.8,8.9,1.9C206.9,168.4,213.5,174.3,217.5,181.9z"/>
	<path id="Path_4584" class="st10" d="M223.6,154.5c-0.5-1.2-1.2-2.5-2.5-2.8c-1.6-0.4-3.1,1.1-4.4,2.1c-2.7,2-6.3,2.5-9.6,2.4
		c-1.2-0.1-2.5-0.1-3.7,0.2c-1.2,0.3-2.2,1.2-2.6,2.4c3.9,2.9,8.8,3.8,13.2,5.8c4.3,2,8,5,12.1,7.3c0.7,0.4,1.7,0.8,2.3,0.3
		c0.5-0.5,0.6-1.2,0.5-1.8C228.4,164.8,225.9,159.5,223.6,154.5z"/>
	<path id="Path_4585" class="st10" d="M243.4,154.7c1.6-0.2,3.1-0.5,4.7-1c3.1-0.8,6.2-1.3,9.4-1.6c1.2-0.1,2.7,0,3.2,1.1
		c0.6,1.3-0.7,2.6-1.8,3.5c-3.5,3-5.9,7-6.8,11.5c0,0.5-0.2,1-0.6,1.3c-0.3,0.2-0.6,0.4-0.9,0.4c-3.1,0.6-6.3-0.9-8.7-3.1
		s-4-4.9-5.9-7.5c-0.6-0.9-1.3-1.6-2.2-2.2c-0.8-0.4-1.9-0.7-2.3-1.6c-0.2-0.9,0.3-1.9,1.3-2.2c0.9-0.2,1.9-0.2,2.7,0.1
		C238.1,154.1,240.7,154.9,243.4,154.7z"/>
	<path id="Path_4586" class="st10" d="M267.9,157.5c-0.2-0.3-0.7-0.4-1-0.2c-0.1,0-0.1,0.1-0.2,0.1c-4.1,3.7-6.2,9.1-5.6,14.5
		c0,0.3,0.1,0.7,0.3,0.9c0.3,0.2,0.7,0.3,1,0.3c2.3,0,4.5-0.8,6.7-0.8c5.1-0.1,9.5,3.5,14.5,4.6c0.2,0.1,0.5,0.1,0.7,0
		c0.2-0.1,0.3-0.3,0.4-0.5c0.9-1.5,1.5-3.2,1.7-4.9c0.2-1.8-0.5-3.5-1.8-4.7c-1.9-1.5-4.6-1.1-6.9-1.7
		C273.7,164,271.1,160.2,267.9,157.5z"/>
	<path id="Path_4587" class="st10" d="M186.4,169.6c0-1.1,0.6-2.1,1.5-2.7c0.9-0.6,2-0.9,3-1c2-0.2,4,0,6,0.6c1,0.3,2,0.7,2.9,1.1
		c1.3,0.5,2.6,1.2,3.8,2c1.2,0.8,2,2.1,2.4,3.5c0.1,0.4,0,0.7-0.2,1c-0.1,0.1-0.3,0.1-0.4,0.1c-2.2,0.3-4.3-0.9-6.5-1.3
		c-2.3-0.5-4.7-0.2-7.1-0.2c-1.1,0.1-2.3-0.1-3.4-0.6C187.3,171.8,186.6,170.8,186.4,169.6z"/>
	<path id="Path_4588" class="st10" d="M223.8,163.9c0.4-2,0.2-4-0.4-5.9c-0.7-1.9-2.2-3.4-4.1-4.1c0.4,0.7-0.2,1.5-0.8,2
		c-1.7,1.4-3.9,2.3-6.1,2.5c-0.4,0-0.8,0.1-1.2,0.4c-0.2,0.4-0.2,0.9,0.1,1.2c0.3,0.3,0.7,0.6,1.1,0.7c1.6,0.8,3.2,1.7,4.9,2.5
		c1.6,1,3.5,1.6,5.4,1.7c0.3,0,0.5,0,0.7-0.2C223.6,164.6,223.8,164.3,223.8,163.9z"/>
	<path id="Path_4589" class="st10" d="M187.6,193.2c0.6,1.3,2.3,1.5,3.7,1.5c2.5,0,4.9,0,7.4,0c0.5-0.1,1,0,1.4,0.2
		c0.4,0.2,0.6,0.8,0.4,1.2c0,0,0,0,0,0c3.2,0.4,6.5,0.4,9.6-0.3c0.3,0,0.6-0.2,0.9-0.4c0.7-0.7,0-1.8-0.8-2.4
		c-5.5-4.4-12.8-5.9-19.5-3.9c-0.9,0.2-1.8,0.7-2.5,1.3C187.5,191.3,187.2,192.3,187.6,193.2z"/>
</g>
<g id="Group_7847" transform="translate(-10.436 -24.788)">
	<g id="Group_7832">
		<g id="Group_7801">
			<g id="Group_7800">
				<path id="Path_4590" class="st3" d="M60.3,185c-0.3-0.2-0.7-0.5-0.7-0.8c0-0.4,0.6-0.6,1-0.7c2.3-0.3,4.6,0.7,6.2,2.5l0,0.1
					c1.6-1.6,3.6-2.5,5.9-2.8c0.5-0.1,1.1,0,1.3,0.4c0.2,0.3,0.1,0.7-0.1,1c-0.2,0.3-0.5,0.5-0.8,0.6c-1.9,1-4.2,1.4-6.4,1l0.1-0.2
					l0,0C64.7,185.4,62.3,186,60.3,185z"/>
			</g>
		</g>
		<g id="Group_7803">
			<g id="Group_7802">
				<path id="Path_4591" class="st3" d="M59.3,191.5c-0.3-0.1-0.5-0.2-0.6-0.4c-0.2-0.3-0.1-0.8,0.2-1c0.3-0.2,0.6-0.4,1-0.4
					c2.3-0.5,4.8,0.4,6.3,2.2l0.1,0.2c1.4-2,3.4-3.5,5.8-4.2c0.5-0.1,1.1-0.2,1.4,0.2c0.2,0.3,0.2,0.6,0,0.9
					c-0.2,0.3-0.4,0.5-0.6,0.7c-1.9,1.5-4.2,2.4-6.6,2.5l0,0c-1.6-0.1-3.3-0.2-4.9-0.3C60.7,191.8,60,191.7,59.3,191.5z"/>
			</g>
		</g>
		<g id="Group_7805">
			<g id="Group_7804">
				<path id="Path_4592" class="st3" d="M66.2,203.6c-2.2,0.9-4.6,1.3-7,1.1c-0.4,0-1-0.1-1.1-0.6c-0.2-0.5,0.2-0.9,0.7-1.2
					c1.2-0.6,2.5-0.9,3.8-0.6c1.3,0.2,2.6,0.6,3.8,1.1L66.2,203.6z"/>
			</g>
		</g>
		<g id="Group_7807">
			<g id="Group_7806">
				<path id="Path_4593" class="st3" d="M62.6,173.3c0.1-0.5,0.7-0.7,1.2-0.7c1.1,0,2.2,0.4,3.1,1.1c0.9,0.7,1.6,1.6,2.1,2.6v0
					c1.1-0.9,2.4-1.6,3.8-1.9c0.4-0.1,0.8,0,1.1,0.1c0.4,0.2,0.6,0.5,0.6,0.9c-0.1,0.4-0.4,0.8-0.8,0.9c-1.5,0.5-3,0.7-4.5,0.4
					l-0.3-0.2c-1.9-0.4-3.7-1.1-5.4-2C63,174.3,62.5,173.9,62.6,173.3z"/>
			</g>
		</g>
		<g id="Group_7809">
			<g id="Group_7808">
				<path id="Path_4594" class="st3" d="M64.5,169c0.1-0.3,0.3-0.6,0.6-0.7c0.3-0.1,0.6-0.2,0.9-0.2c1,0.1,1.9,0.4,2.7,1.1
					c0.7,0.6,1.4,1.3,2,2.1l-0.3,0c-1.5-0.2-3-0.5-4.5-0.9c-0.3-0.1-0.7-0.2-1-0.5C64.6,169.7,64.4,169.4,64.5,169z"/>
			</g>
		</g>
		<g id="Group_7811">
			<g id="Group_7810">
				<path id="Path_4595" class="st3" d="M59.7,197.9c-0.5,0-1,0-1.5-0.3c-0.5-0.2-0.7-0.8-0.5-1.3c0.2-0.3,0.6-0.5,0.9-0.5
					c2.6-0.5,5.2,0.3,7.1,2L59.7,197.9z"/>
			</g>
		</g>
		<g id="Group_7813">
			<g id="Group_7812">
				<path id="Path_4596" class="st3" d="M70.5,171.4l0.2,0c1.4-1.2,3.3-1.9,5.2-2c0.3,0,0.6,0,0.9,0.1c0.3,0.1,0.5,0.4,0.5,0.7
					c0,0.5-0.5,0.8-1,1C74.4,172,72.4,172,70.5,171.4z"/>
			</g>
		</g>
		<g id="Group_7815">
			<g id="Group_7814">
				<path id="Path_4597" class="st3" d="M73.6,164.7c0.5-2.9,2.3-5.5,4.8-7c0.3-0.2,0.5-0.3,0.9-0.4c0.3-0.1,0.6,0,0.9,0.2
					c0.4,0.4,0.2,1.1-0.1,1.6c-1.3,2.5-3.9,4-6.4,5.4L73.6,164.7z"/>
			</g>
		</g>
		<g id="Group_7817">
			<g id="Group_7816">
				<path id="Path_4598" class="st3" d="M67.6,181.9C67.6,181.8,67.6,181.8,67.6,181.9L67.6,181.9L67.6,181.9
					c1.3-1.9,3.4-3.1,5.7-3.2c0.5,0,1.1,0.2,1.3,0.6c0.2,0.5-0.3,1.1-0.8,1.4C72,181.9,69.8,182.3,67.6,181.9L67.6,181.9L67.6,181.9
					z"/>
			</g>
		</g>
		<g id="Group_7819">
			<g id="Group_7818">
				<path id="Path_4599" class="st3" d="M72.3,167.8l-0.2-0.1c0.9-0.7,1.8-1.2,2.8-1.7c1-0.4,2.1-0.6,3.1-0.6c0.3,0,0.6,0.1,0.9,0.3
					c0.3,0.2,0.5,0.5,0.5,0.8c0,0.5-0.6,0.9-1.1,1.1C76.4,168.2,74.3,168.3,72.3,167.8z"/>
			</g>
		</g>
		<g id="Group_7821">
			<g id="Group_7820">
				<path id="Path_4600" class="st3" d="M61.3,178.6c0.2-0.3,0.5-0.4,0.8-0.4c1.2-0.1,2.3,0.3,3.2,1c0.9,0.7,1.6,1.6,2.2,2.6
					c-1.8-0.4-3.6-1-5.3-1.7c-0.3-0.1-0.6-0.3-0.8-0.6C61.2,179.3,61.2,178.9,61.3,178.6z"/>
			</g>
		</g>
		<g id="Group_7823">
			<g id="Group_7822">
				<path id="Path_4601" class="st3" d="M65.9,198C65.9,198,65.8,198,65.9,198C65.8,197.9,65.9,197.9,65.9,198L65.9,198
					c0.9-2.5,2.7-4.6,4.9-5.9c0.4-0.3,0.9-0.4,1.3-0.2c0.4,0.3,0.6,0.9,0.4,1.4c-0.4,0.9-1,1.7-1.8,2.2c-1.5,1.1-3,1.9-4.7,2.6l0,0
					l0,0.1C66,198.1,66,198.1,65.9,198c0,0.1,0,0.1-0.1,0.2L65.9,198z"/>
			</g>
		</g>
		<g id="Group_7825">
			<g id="Group_7824">
				<path id="Path_4602" class="st3" d="M66.4,203.5c0,0,0.1,0,0.1-0.1c0,0.1-0.1,0.2-0.1,0.3L66.4,203.5z"/>
			</g>
		</g>
		<g id="Group_7827">
			<g id="Group_7826">
				<path id="Path_4603" class="st3" d="M72.1,196.4c0.3-0.1,0.6-0.2,1-0.2c0.3,0,0.7,0.2,0.9,0.5c0.2,0.3,0.2,0.7,0.1,1
					c-0.3,0.8-0.9,1.5-1.6,2.1c-1.8,1.6-3.8,2.8-5.9,3.8c0.4-1.5,1-2.8,1.9-4.1C69.3,198,70.6,197,72.1,196.4z"/>
			</g>
		</g>
		<g id="Group_7829">
			<g id="Group_7828">
				<path id="Path_4604" class="st3" d="M75.3,203.6c0.1,0.2,0.2,0.5,0.1,0.8c-0.1,0.3-0.2,0.5-0.4,0.7c-1,1.3-2.2,2.3-3.5,3.1
					c-1.3,0.8-2.7,1.5-4.1,2.1l0.2,0.1c-2.1,0.5-4.3,0.7-6.5,0.4c-0.4,0-0.7-0.1-1-0.3c-0.3-0.2-0.5-0.6-0.4-0.9
					c0.2-0.4,0.5-0.6,0.8-0.7c2.4-0.8,5-0.3,6.8,1.3v0c0.6-2.6,2.3-4.9,4.6-6.3c0.7-0.5,1.6-0.8,2.4-0.8
					C74.6,203,75.1,203.2,75.3,203.6z"/>
			</g>
		</g>
		<g id="Group_7831">
			<g id="Group_7830">
				<path id="Path_4605" class="st3" d="M68.8,213.3c-4.6-16.2-2.4-33.7,6.1-48.3c0.5-0.9-1-1.6-1.5-0.7c-8.7,15-10.9,32.9-6.1,49.5
					C67.6,214.9,69.1,214.3,68.8,213.3z"/>
			</g>
		</g>
	</g>
	<g id="Group_7840">
		<g id="Group_7834">
			<g id="Group_7833">
				<path id="Path_4606" class="st4" d="M68.5,214.4c0.1,0,0.3-0.1,0.4-0.1c0,0.1-0.1,0.2-0.1,0.3L68.5,214.4z"/>
			</g>
		</g>
		<g id="Group_7837" class="st5">
			<g id="Group_7836">
				<g id="Group_7835">
					<path id="Path_4607" class="st6" d="M68.9,214.3c0.7-2.4,0.1-5.2-0.7-7.9c-0.9-2.8-2-5.6-2.2-8.4c-0.1-0.6,0-1.2,0.5-1.7
						c0.8-0.3,1.7-0.1,2.3,0.5c0.6,0.6,1,1.4,1.3,2.2c-0.2-3.6,0.6-7.2,2.3-10.4c0.9,1.2,1.7,2.4,2.6,3.6c0.4-2.9,1.5-5.7,3.3-8.1
						c0.5-0.8,1.4-1.3,2.3-1.1c1.1,0.4,1.5,1.7,1.7,2.7c2.5-3.9,6.4-6.7,11-7.7c1.2-0.3,2.9-0.4,3.9,0.7s0.6,2.5,0.2,3.6
						c-1.4,3.2-3.2,6.3-5.3,9.1c1-0.2,2.1-0.2,3.1,0c1.1,0.3,2.1,1.2,2.1,2.2c0,0.9-0.8,1.4-1.6,1.8c-2.9,1.5-5.8,3-8.8,4.3
						c1.3,0.2,2.9,0.8,3.1,2c0.2,1-0.8,1.6-1.8,1.9c-2.5,1-5.1,1.9-7.7,2.7c1,0,1.9,0.7,2.1,1.6c0.2,0.8-0.2,1.7-0.9,2.2
						c-0.7,0.5-1.5,0.8-2.3,1C75.9,212.2,72.4,213.3,68.9,214.3z"/>
				</g>
			</g>
		</g>
		<g id="Group_7839">
			<g id="Group_7838">
				<path id="Path_4608" class="st7" d="M90.8,182.1c-3.8,4-7.2,8.2-10.4,12.6c-0.1-1.7,0-3.5,0.2-5.2c0.1-0.5-0.8-0.5-0.8,0
					c-0.2,2.1-0.3,4.2-0.1,6.3l0,0c-2,2.9-3.9,5.9-5.6,9c-0.2-2.7-0.4-5.3-0.6-8c0-0.5-0.8-0.5-0.8,0c0.2,3,0.4,6,0.6,8.9
					c0,0.1,0,0.2,0.1,0.2c-1,1.8-2,3.7-2.9,5.6c-0.2,0.5,0.5,0.9,0.7,0.4c0.9-2,2-3.9,3-5.8c0,0,0.1,0,0.1,0l6.1-2.6
					c0.5-0.2,0.3-1-0.2-0.8c-1.8,0.8-3.6,1.5-5.4,2.3c1.8-3.1,3.6-6.1,5.7-9c0.1,0,0.1,0,0.2,0c2.7-0.5,5.3-1.4,7.9-2.4
					c0.5-0.2,0.3-1-0.2-0.8c-2.3,1-4.7,1.7-7.1,2.2c3.1-4.3,6.5-8.4,10.1-12.3C91.7,182.3,91.2,181.7,90.8,182.1z"/>
			</g>
		</g>
	</g>
	<g id="Group_7846">
		<g id="Group_7843" class="st5">
			<g id="Group_7842">
				<g id="Group_7841">
					<path id="Path_4609" class="st6" d="M68.1,197.3c0.3,1.2,0.1,2.4-0.5,3.4c-1.7,3.7-3.5,7.2-5.5,10.8l0.2,0.2
						c-3.5-0.2-7-0.5-10.5-0.7c-0.7,0-1.5-0.1-2.2-0.4c-0.9-0.3-1.4-1.3-1.1-2.2c0.1-0.4,0.5-0.8,0.9-1c0.3-0.2,0.6-0.4,1-0.5
						l4.7-1.5c0.5-0.2,1.2-0.5,1.1-1.1c-0.1-0.3-0.3-0.6-0.6-0.7c-2.2-1-4.7-1.3-7.1-0.9c-0.7,0.2-1.4,0.2-2.1,0.2
						c-0.9-0.2-1.8-1.2-0.9-2.2c0.2-0.2,0.4-0.4,0.7-0.5c1.7-0.7,3.4-1.3,5.3-1.6c0.9-0.2,2.2-0.6,2-1.6c-0.1-0.4-0.4-0.8-0.9-0.9
						c-2.1-0.6-4.2-0.8-6.4-0.6c-0.5,0.1-1.1,0.1-1.6,0c-0.7-0.2-1.4-1-0.7-1.8c0.2-0.3,0.6-0.5,1-0.6l5.1-1.1
						c0.6-0.1,1.3-0.4,1.3-1.1c0-0.5-0.3-0.9-0.8-1.1c-2.3-0.6-4.6-0.9-7-0.7c-0.7,0.2-1.5,0.1-2.2-0.3c-0.3-0.2-0.5-0.6-0.4-1
						c0.1-0.6,0.7-0.8,1.2-0.9l5.4-1.3c0.2,0,0.3-0.2,0.3-0.4c0-0.1-0.1-0.2-0.2-0.3c-2-0.9-4.3-1.3-6.5-1.2c-0.6,0.1-1.1,0-1.7-0.1
						c-0.7-0.2-1.4-1.1-0.6-1.9c0.2-0.2,0.5-0.3,0.8-0.4c1.7-0.5,3.4-0.8,5.1-1c-1.1-1.2-2.2-2.5-3.3-3.7c-0.8-0.9-1.7-2-1.2-3.2
						c0.3-0.8,1.1-1.3,2-1.3c1.4,0.1,2.7,1,3.3,2.3c0.3,0.7,0.8,1.4,1.4,1.8c0.4,0.2,0.8,0.2,1.2,0c0.6-0.3,0.6-1.1,0.7-1.7
						c0.1-0.6,0.3-1.2,0.9-1.3c0.3,0,0.6,0.1,0.8,0.3c0.7,0.9,0.9,2,0.5,3.1c-0.3,1.3-0.8,2.7,0,3.9c0.4,0.7,1.3,1,2,0.6
						c0.7-0.4,0.8-1.3,1-2s0.9-1.5,1.6-1.1c0.2,0.1,0.4,0.4,0.5,0.6c0.6,1.7,0,3.5-0.4,5.2c-0.3,1.1-0.4,2.2-0.2,3.4
						c0.1,0.4,0.5,0.7,1,0.6c0.2,0,0.4-0.2,0.5-0.4l2.1-3.2c0.2-0.4,0.5-0.8,1-0.7c0.3,0,0.5,0.2,0.6,0.5c0.2,0.6,0.2,1.2-0.1,1.8
						c-0.7,2.2-1.4,4.3-2.1,6.5c-0.2,0.8-0.5,1.7,0.2,2.2c0.5,0.4,1.3,0.4,1.8,0c1.1-0.8,1.2-2.2,1.9-3.3c0.4-0.7,1.3-1.3,1.9-0.6
						c0.2,0.3,0.3,0.7,0.2,1.1c-0.8,2.1-1.8,4.2-2.9,6.1c-0.6,0.7-0.8,1.6-0.7,2.5c0.1,0.6,0.6,1,1.2,1c0.6-0.1,1-0.6,1.3-1.2
						c0.5-0.8,0.9-1.6,1.4-2.5s1.1-1.8,2.1-1.7C67.3,196.3,67.9,196.7,68.1,197.3z"/>
				</g>
			</g>
		</g>
		<g id="Group_7845">
			<g id="Group_7844">
				<path id="Path_4610" class="st7" d="M61.4,210.9c-1.9-14.6-8.7-28.2-19.4-38.4c-0.4-0.4-1,0.2-0.6,0.5
					c10.6,10.1,17.3,23.5,19.2,38C60.7,211.6,61.5,211.4,61.4,210.9z"/>
			</g>
		</g>
	</g>
</g>
</svg>
