<svg id="Component_27_1" data-name="Component 27 – 1" xmlns="http://www.w3.org/2000/svg" xmlns:xlink="http://www.w3.org/1999/xlink" width="258.972" height="212.349" viewBox="0 0 258.972 212.349">
  <defs>
    <clipPath id="clip-path">
      <path id="Path_2421" data-name="Path 2421" d="M699.273,223.2c0,7.56-42.012,22.325-93.836,22.325S511.6,230.76,511.6,223.2Z" fill="#c8e7eb"/>
    </clipPath>
  </defs>
  <path id="Path_2391" data-name="Path 2391" d="M541.7,172.071c-7.636-14.106-10.231-45.4,8.61-74.129,6.038-9.208,14.784-15.793,12.533-30.134-3.56-22.667,16.687-41.579,42.569-32.153,15.288,5.569,19.894,20.969,36.314,14.852,13.291-4.951,31.266-8.957,43.256,3.915,8.6,9.229,9.106,18.994,6.933,34.849-1.389,10.133,5.309,16.6,9.842,22.435,9.572,12.311,14.321,33.577,7.8,57.09-8.517,30.717-41.457,44.547-72.7,44.635C596.218,213.54,561,207.734,541.7,172.071Z" transform="translate(-469.164 -33.176)" fill="#f7f7f7"/>
  <g id="Group_6134" data-name="Group 6134" transform="translate(-469.164 -33.176)">
    <g id="Group_6128" data-name="Group 6128">
      <path id="Path_2392" data-name="Path 2392" d="M617.406,156.7c1.642-2.076,4.752-3.326,7.55-3.591,4.1-.388,8.588.177,12-2.119,5.1-3.432,4.777-11.088,2.7-16.874s-5.386-11.619-4.319-17.673c1.559-8.839,14.107-13.334,20.923-7.5,4.314,3.7,6.262,10.271,11.628,12.145,5.215,1.819,10.585-1.823,15.079-5.035,6.881-4.914,16.975-6.315,23.819-.09,2.268,2.06,3.4,5.723,1.668,8.254-1.367,2-3.956,2.665-6.065,3.865s-3.945,3.931-2.558,5.921a4.624,4.624,0,0,0,2.1,1.473c4.712,1.983,10.034,1.689,15.05,2.676s10.366,4.069,11.076,9.129c.526,3.752-1.683,7.322-4.089,10.25-17.449,21.254-48.371,26.9-75.483,22.311-11.418-1.931-23.357-5.926-30.273-15.215a8.379,8.379,0,0,1-1.963-4.52A5.1,5.1,0,0,1,617.406,156.7Z" fill="#d2ea8e"/>
    </g>
    <g id="Group_6133" data-name="Group 6133">
      <g id="Group_6129" data-name="Group 6129">
        <path id="Path_2393" data-name="Path 2393" d="M668.95,222.931l2.169-93.846,4.751,93.846Z" fill="#a39383"/>
      </g>
      <g id="Group_6130" data-name="Group 6130">
        <path id="Path_2394" data-name="Path 2394" d="M671.119,174.06l12.218-21.043-11.99,25.311Z" fill="#a39383"/>
      </g>
      <g id="Group_6131" data-name="Group 6131">
        <path id="Path_2395" data-name="Path 2395" d="M671.119,163.45l-10.861-25.793L670.633,169.3Z" fill="#a39383"/>
      </g>
      <g id="Group_6132" data-name="Group 6132">
        <path id="Path_2396" data-name="Path 2396" d="M670.95,179.751l-14.086-12.48,14.255,15.612Z" fill="#a39383"/>
      </g>
    </g>
  </g>
  <g id="Group_6182" data-name="Group 6182" transform="translate(-469.164 -33.176)">
    <g id="Group_6167" data-name="Group 6167">
      <g id="Group_6136" data-name="Group 6136">
        <g id="Group_6135" data-name="Group 6135">
          <path id="Path_2397" data-name="Path 2397" d="M520.412,182.461c.361-.378.69-.927.457-1.388-.259-.521-1-.527-1.579-.4a9.71,9.71,0,0,0-6.866,6.1l.042.184a13.549,13.549,0,0,0-8.946-.873c-.658.164-1.412.485-1.538,1.146a1.261,1.261,0,0,0,.576,1.229,3.206,3.206,0,0,0,1.36.441,13.586,13.586,0,0,0,8.757-1.7l-.153-.214,0-.005C514.936,185.128,518.315,184.668,520.412,182.461Z" fill="#d8e081"/>
        </g>
      </g>
      <g id="Group_6138" data-name="Group 6138">
        <g id="Group_6137" data-name="Group 6137">
          <path id="Path_2398" data-name="Path 2398" d="M524.773,190.489a1.6,1.6,0,0,0,.623-.872,1.189,1.189,0,0,0-.758-1.2,2.8,2.8,0,0,0-1.506-.1,9.3,9.3,0,0,0-7.225,5.836l0,.334a14.69,14.69,0,0,0-9.5-2.736c-.711.039-1.563.262-1.75.949a1.2,1.2,0,0,0,.392,1.149,3.1,3.1,0,0,0,1.116.593,15.612,15.612,0,0,0,9.839.141l-.033-.033q3.145-1.35,6.284-2.687A10.539,10.539,0,0,0,524.773,190.489Z" fill="#d8e081"/>
        </g>
      </g>
      <g id="Group_6140" data-name="Group 6140">
        <g id="Group_6139" data-name="Group 6139">
          <path id="Path_2399" data-name="Path 2399" d="M521.506,209.553a21.986,21.986,0,0,0,9.6-1.8c.568-.24,1.216-.644,1.226-1.258.007-.678-.748-1.081-1.409-1.22a8.05,8.05,0,0,0-5.286.975,24.374,24.374,0,0,0-4.406,3.268Z" fill="#d8e081"/>
        </g>
      </g>
      <g id="Group_6142" data-name="Group 6142">
        <g id="Group_6141" data-name="Group 6141">
          <path id="Path_2400" data-name="Path 2400" d="M511.984,168.333c-.355-.615-1.246-.607-1.92-.394a6.781,6.781,0,0,0-3.553,2.914,11.661,11.661,0,0,0-1.523,4.383l.008.015a12.05,12.05,0,0,0-5.819-.715,2.815,2.815,0,0,0-1.452.67,1.347,1.347,0,0,0-.343,1.477,1.79,1.79,0,0,0,1.5.806c2.119.219,4.167-.732,6.094-1.657l.258-.335a26.826,26.826,0,0,0,6.153-5.206C511.869,169.739,512.346,168.967,511.984,168.333Z" fill="#d8e081"/>
        </g>
      </g>
      <g id="Group_6144" data-name="Group 6144">
        <g id="Group_6143" data-name="Group 6143">
          <path id="Path_2401" data-name="Path 2401" d="M507.486,163.616a1.4,1.4,0,0,0-1.092-.676,2.664,2.664,0,0,0-1.3.235,6.592,6.592,0,0,0-2.96,2.646,15.542,15.542,0,0,0-1.566,3.7l.325-.153a39.117,39.117,0,0,0,5.437-3.281,3.843,3.843,0,0,0,1.045-1.055A1.478,1.478,0,0,0,507.486,163.616Z" fill="#d8e081"/>
        </g>
      </g>
      <g id="Group_6146" data-name="Group 6146">
        <g id="Group_6145" data-name="Group 6145">
          <path id="Path_2402" data-name="Path 2402" d="M527.269,199.069a3.987,3.987,0,0,0,1.775-1.023,1.363,1.363,0,0,0,0-1.862,1.847,1.847,0,0,0-1.441-.216,11.383,11.383,0,0,0-8.289,6Q523.292,200.518,527.269,199.069Z" fill="#d8e081"/>
        </g>
      </g>
      <g id="Group_6148" data-name="Group 6148">
        <g id="Group_6147" data-name="Group 6147">
          <path id="Path_2403" data-name="Path 2403" d="M500.729,169.507l-.2.135a11.393,11.393,0,0,0-7.7-.134,3,3,0,0,0-1.14.624,1.191,1.191,0,0,0-.366,1.183c.214.663,1.06.846,1.759.856A12.055,12.055,0,0,0,500.729,169.507Z" fill="#d8e081"/>
        </g>
      </g>
      <g id="Group_6150" data-name="Group 6150">
        <g id="Group_6149" data-name="Group 6149">
          <path id="Path_2404" data-name="Path 2404" d="M493.545,162.292a14.245,14.245,0,0,0-9.537-6.863,3.417,3.417,0,0,0-1.284-.067,1.384,1.384,0,0,0-1.015.729c-.32.722.248,1.508.836,2.029,2.925,2.584,7,3.353,10.859,4.016Z" fill="#d8e081"/>
        </g>
      </g>
      <g id="Group_6152" data-name="Group 6152">
        <g id="Group_6151" data-name="Group 6151">
          <path id="Path_2405" data-name="Path 2405" d="M509.389,181.85c.01-.034.016-.066.026-.093l-.055.037.011-.027a10.114,10.114,0,0,0-8.869-1.444c-.675.252-1.412.736-1.4,1.457.013.784.892,1.231,1.652,1.416a11.409,11.409,0,0,0,8.534-1.28l.032-.063Z" fill="#d8e081"/>
        </g>
      </g>
      <g id="Group_6154" data-name="Group 6154">
        <g id="Group_6153" data-name="Group 6153">
          <path id="Path_2406" data-name="Path 2406" d="M496.621,165.689l.167-.241a20.219,20.219,0,0,0-4.383-.879,9.077,9.077,0,0,0-4.375.748,2.747,2.747,0,0,0-1.091.789,1.3,1.3,0,0,0-.24,1.272c.283.707,1.2.861,1.966.85A14.4,14.4,0,0,0,496.621,165.689Z" fill="#d8e081"/>
        </g>
      </g>
      <g id="Group_6156" data-name="Group 6156">
        <g id="Group_6155" data-name="Group 6155">
          <path id="Path_2407" data-name="Path 2407" d="M516.082,174.6a1.5,1.5,0,0,0-1.3-.154,6.307,6.307,0,0,0-3.748,2.877,13.692,13.692,0,0,0-1.616,4.439,40.124,40.124,0,0,0,6.126-4.715,3.3,3.3,0,0,0,.829-1.147A1.189,1.189,0,0,0,516.082,174.6Z" fill="#d8e081"/>
        </g>
      </g>
      <g id="Group_6158" data-name="Group 6158">
        <g id="Group_6157" data-name="Group 6157">
          <path id="Path_2408" data-name="Path 2408" d="M519.274,202.042c.014-.023.025-.051.042-.075-.029.009-.055.022-.083.03l-.049-.045a15.711,15.711,0,0,0-9.046-5.271,2.019,2.019,0,0,0-1.842.312,1.617,1.617,0,0,0,.1,1.986,6.025,6.025,0,0,0,3.412,1.972,33.847,33.847,0,0,0,7.343,1.253v0l-.006.107c.015-.042.032-.072.05-.111a1.833,1.833,0,0,0,.287.025Z" fill="#d8e081"/>
        </g>
      </g>
      <g id="Group_6160" data-name="Group 6160">
        <g id="Group_6159" data-name="Group 6159">
          <path id="Path_2409" data-name="Path 2409" d="M521.206,209.481c-.068-.008-.137-.011-.21-.021.091.129.181.262.272.391Z" fill="#d8e081"/>
        </g>
      </g>
      <g id="Group_6162" data-name="Group 6162">
        <g id="Group_6161" data-name="Group 6161">
          <path id="Path_2410" data-name="Path 2410" d="M510.381,202.855a3.293,3.293,0,0,0-1.371.178,1.448,1.448,0,0,0-.9.993,1.687,1.687,0,0,0,.393,1.3,6.725,6.725,0,0,0,3.012,1.986A31.607,31.607,0,0,0,521,209.46a17.591,17.591,0,0,0-4.343-4.432A11.8,11.8,0,0,0,510.381,202.855Z" fill="#d8e081"/>
        </g>
      </g>
      <g id="Group_6164" data-name="Group 6164">
        <g id="Group_6163" data-name="Group 6163">
          <path id="Path_2411" data-name="Path 2411" d="M509.585,213.792a1.4,1.4,0,0,0,.293,1.08,3.381,3.381,0,0,0,.866.761,17.09,17.09,0,0,0,6.083,2.442,44.872,44.872,0,0,0,6.358.77l-.151.225a24.431,24.431,0,0,0,8.624-2.565,3.44,3.44,0,0,0,1.2-.881,1.228,1.228,0,0,0,.115-1.393,1.685,1.685,0,0,0-1.422-.513,9.514,9.514,0,0,0-8.266,4.971l-.019-.04a14.346,14.346,0,0,0-8.917-6.1,6.321,6.321,0,0,0-3.556.076A1.76,1.76,0,0,0,509.585,213.792Z" fill="#d8e081"/>
        </g>
      </g>
      <g id="Group_6166" data-name="Group 6166">
        <g id="Group_6165" data-name="Group 6165">
          <path id="Path_2412" data-name="Path 2412" d="M522.662,223.442a85.94,85.94,0,0,0-30.673-60.078c-1.108-.929.525-2.494,1.624-1.573a88.126,88.126,0,0,1,31.3,61.7C525.012,224.936,522.759,224.879,522.662,223.442Z" fill="#d8e081"/>
        </g>
      </g>
    </g>
    <g id="Group_6175" data-name="Group 6175">
      <g id="Group_6169" data-name="Group 6169">
        <g id="Group_6168" data-name="Group 6168">
          <path id="Path_2413" data-name="Path 2413" d="M523.552,224.755c-.181.009-.363.023-.549.029.1.141.194.274.3.4Z" fill="#00a3a1"/>
        </g>
      </g>
      <g id="Group_6172" data-name="Group 6172" opacity="0.4">
        <g id="Group_6171" data-name="Group 6171">
          <g id="Group_6170" data-name="Group 6170">
            <path id="Path_2414" data-name="Path 2414" d="M523,224.784c-2.01-2.863-2.574-6.8-2.771-10.67-.2-4.059-.063-8.263-1.074-12.015-.23-.844-.594-1.743-1.4-1.967-.99-.278-2.22.656-2.78,1.758a8.091,8.091,0,0,0-.664,3.458,26.919,26.919,0,0,0-7.948-12.471q-.848,2.95-1.694,5.9a24.205,24.205,0,0,0-8.058-9c-1.011-.666-2.413-1.226-3.576-.318-1.287,1.008-1.192,2.913-.922,4.353a24.127,24.127,0,0,0-17.937-4.818c-1.77.2-3.938.877-4.739,2.7-.815,1.84.332,3.542,1.469,4.748a62.882,62.882,0,0,0,11.2,9.429,9.449,9.449,0,0,0-4.018,1.444c-1.227.9-2.148,2.612-1.681,3.851.417,1.113,1.718,1.4,2.876,1.576q6.684,1.007,13.536,1.4c-1.558.926-3.43,2.445-3.164,4.088.225,1.386,1.841,1.662,3.2,1.7,3.751.117,7.535.1,11.33-.057a3.086,3.086,0,0,0-2.022,3.118,2.946,2.946,0,0,0,2.142,2.46,9.9,9.9,0,0,0,3.548.221Q515.43,225.225,523,224.784Z" fill="#00abc4"/>
          </g>
        </g>
      </g>
      <g id="Group_6174" data-name="Group 6174">
        <g id="Group_6173" data-name="Group 6173">
          <path id="Path_2415" data-name="Path 2415" d="M479.267,193.072a157.344,157.344,0,0,1,19.483,11.593,43.085,43.085,0,0,0-2.678-6.738c-.323-.649.739-1.012,1.061-.373a42.876,42.876,0,0,1,3.083,8.124h0q5.979,4.265,11.552,9.071-1.509-5.352-3.019-10.709c-.2-.689.864-1.07,1.06-.372q1.683,5.978,3.369,11.956a.523.523,0,0,1-.018.344c2.164,1.91,4.292,3.859,6.351,5.89.516.5-.21,1.366-.723.86-2.169-2.141-4.417-4.188-6.7-6.188a.5.5,0,0,1-.127.02q-4.593-.249-9.19-.494c-.709-.04-.8-1.158-.077-1.118q4.029.214,8.061.43c-3.753-3.214-7.643-6.269-11.676-9.12a.563.563,0,0,1-.23.086,59.738,59.738,0,0,1-11.378.564c-.716-.032-.8-1.151-.079-1.119a59.854,59.854,0,0,0,10.36-.442,157.336,157.336,0,0,0-18.97-11.256A.56.56,0,0,1,479.267,193.072Z" fill="#00aeb4"/>
        </g>
      </g>
    </g>
    <g id="Group_6181" data-name="Group 6181">
      <g id="Group_6178" data-name="Group 6178" opacity="0.4">
        <g id="Group_6177" data-name="Group 6177">
          <g id="Group_6176" data-name="Group 6176">
            <path id="Path_2416" data-name="Path 2416" d="M514.9,209.746c-.034,1.755,1.152,3.021,2.293,4.183q5.9,5.967,12.282,11.435l-.169.313q6.645-2.927,13.3-5.867a7.792,7.792,0,0,0,2.618-1.591c1.163-1.216,1.481-3.5-1.241-4.214a5.138,5.138,0,0,0-1.513-.147l-6.9.222c-.781.026-1.746-.057-1.913-.927a1.328,1.328,0,0,1,.4-1.175,16.9,16.9,0,0,1,8.859-4.546,7.821,7.821,0,0,0,2.772-.765c1.109-.686,1.765-2.414.125-3.251a2.916,2.916,0,0,0-1.139-.294,31.733,31.733,0,0,0-7.6.43c-1.3.232-3.107.268-3.309-1.166a1.729,1.729,0,0,1,.712-1.612,22.892,22.892,0,0,1,8.058-3.765,5.891,5.891,0,0,0,2.084-.758c.832-.6,1.306-1.908.1-2.647a2.379,2.379,0,0,0-1.524-.283l-7.16.942c-.849.107-1.9.145-2.238-.785a1.549,1.549,0,0,1,.581-1.763,26.742,26.742,0,0,1,8.827-4.161,4.159,4.159,0,0,0,2.687-1.436,1.454,1.454,0,0,0,.069-1.558c-.441-.7-1.277-.651-2-.571l-7.715.828a.515.515,0,0,1-.417-.882,20,20,0,0,1,7.94-4.582,6.25,6.25,0,0,0,2.126-.885c.851-.674,1.259-2.115-.159-2.752a2.42,2.42,0,0,0-1.2-.19,41.581,41.581,0,0,0-7.125,1.138q1.311-3.185,2.618-6.374c.644-1.559,1.265-3.424.078-4.79a2.991,2.991,0,0,0-3.25-.74c-1.942.682-2.9,2.637-3.255,4.561a5.725,5.725,0,0,1-1.027,3.047,1.68,1.68,0,0,1-1.5.576c-.96-.162-1.281-1.125-1.658-1.926-.329-.7-.978-1.441-1.728-1.259a1.448,1.448,0,0,0-.879.8c-.665,1.361-.035,3,.763,4.281.972,1.577,2.252,3.133,1.823,5.131a2.111,2.111,0,0,1-2.322,1.732c-1.118-.177-1.591-1.282-2.2-2.147s-1.883-1.562-2.636-.633a1.607,1.607,0,0,0-.3.979c-.006,2.512,1.641,4.589,3,6.653a10.707,10.707,0,0,1,1.825,4.282,1.149,1.149,0,0,1-1.84,1.051l-4.25-3.22c-.471-.358-1.022-.74-1.646-.416a1.191,1.191,0,0,0-.6.9,3.09,3.09,0,0,0,.918,2.265q2.895,3.757,5.791,7.5c.669.872,1.381,1.951.816,2.99a2,2,0,0,1-2.332.861c-1.871-.523-2.671-2.293-4.033-3.432-.822-.685-2.28-1.039-2.718.143a1.544,1.544,0,0,0,.3,1.513,52.108,52.108,0,0,0,6.694,6.583c.958.787,2,1.609,2.155,2.92a1.679,1.679,0,0,1-1.155,1.883,2.592,2.592,0,0,1-2.2-.928q-1.461-1.284-2.919-2.574c-1-.871-2.245-1.821-3.547-1.223A2.313,2.313,0,0,0,514.9,209.746Z" fill="#00abc4"/>
          </g>
        </g>
      </g>
      <g id="Group_6180" data-name="Group 6180">
        <g id="Group_6179" data-name="Group 6179">
          <path id="Path_2417" data-name="Path 2417" d="M529.95,224.282a89.551,89.551,0,0,1,7.219-59.176c.321-.64,1.367-.242,1.044.408a88.6,88.6,0,0,0-7.155,58.6C531.215,224.824,530.107,224.987,529.95,224.282Z" fill="#00aeb4"/>
        </g>
      </g>
    </g>
  </g>
  <g id="Group_6187" data-name="Group 6187" transform="translate(-469.164 -33.176)" opacity="0.7">
    <g id="Group_6186" data-name="Group 6186">
      <path id="Path_2418" data-name="Path 2418" d="M699.273,223.2c0,7.56-42.012,22.325-93.836,22.325S511.6,230.76,511.6,223.2Z" fill="#c8e7eb"/>
      <g id="Group_6185" data-name="Group 6185" clip-path="url(#clip-path)">
        <g id="Group_6183" data-name="Group 6183">
          <path id="Path_2419" data-name="Path 2419" d="M699.273,234.239l-187.672.115V223.2H699.273Z" fill="#c8e7eb"/>
        </g>
        <g id="Group_6184" data-name="Group 6184">
          <path id="Path_2420" data-name="Path 2420" d="M511.6,234.355l187.672-.115v11.286H511.6Z" fill="#c8e7eb"/>
        </g>
      </g>
    </g>
  </g>
  <path id="Path_2422" data-name="Path 2422" d="M595.057,218.892l7.657,1.917c-.449-.2-1.15-.764-1.418-2.418-.408-2.522,14.214-34.363,14.819-37.99.5-2.986-1.323-15.519-1.983-19.869-.143-.935-.233-1.493-.233-1.493L598.181,160.1s.156.493.412,1.319c1.263,4.026,5,15.984,5.331,17.574.4,1.914.5,2.62-.907,5.442s-6.146,12.594-6.158,19.043A99.067,99.067,0,0,1,595.057,218.892Z" transform="translate(-469.164 -33.176)" fill="#ffcc8b"/>
  <path id="Path_2423" data-name="Path 2423" d="M614.453,175.767l-10.832,2.075.348,1.37,10.484-2.389Z" transform="translate(-469.164 -33.176)" fill="#253759"/>
  <path id="Path_2424" data-name="Path 2424" d="M613.218,183.524l-.226,1.1-9.371-1.965.246-1.039Z" transform="translate(-469.164 -33.176)" fill="#253759"/>
  <path id="Path_2425" data-name="Path 2425" d="M616.771,174.455a9.615,9.615,0,0,1,1.284,6.8c-.732,3.315-3.778,5.14-4.837,5.215s.076-4.762.379-6.348.151-4.988.6-5.669A1.651,1.651,0,0,1,616.771,174.455Z" transform="translate(-469.164 -33.176)" fill="#00aeb4"/>
  <g id="Group_6190" data-name="Group 6190" transform="translate(-469.164 -33.176)">
    <path id="Path_2426" data-name="Path 2426" d="M607.23,227.212A2.265,2.265,0,1,0,609.547,225,2.264,2.264,0,0,0,607.23,227.212Z" fill="#00aeb4"/>
    <g id="Group_6188" data-name="Group 6188">
      <path id="Path_2427" data-name="Path 2427" d="M608.158,227.235a1.335,1.335,0,0,0,1.307,1.368h.031a1.345,1.345,0,0,0,1.335-1.31,1.325,1.325,0,0,0-.574-1.127l0,0a1.335,1.335,0,0,0-.729-.236h-.031a1.317,1.317,0,0,0-.678.187A1.337,1.337,0,0,0,608.158,227.235Zm.254,0a1.083,1.083,0,1,1,1.084,1.109h-.025a1.069,1.069,0,0,1-.758-.335A1.08,1.08,0,0,1,608.412,227.239Z" fill="#00aeb4"/>
    </g>
    <path id="Path_2428" data-name="Path 2428" d="M594.769,226.925a2.265,2.265,0,1,0,2.317-2.211A2.264,2.264,0,0,0,594.769,226.925Z" fill="#00aeb4"/>
    <path id="Path_2429" data-name="Path 2429" d="M601.579,218.38l-6.441-.635s-2.086,6.26-1.724,7.03,18.1,1.542,18.869,1.406,1.9-.821.861-2.086c-.951-1.156-2.267-1.882-5.442-2.767A41.411,41.411,0,0,1,601.579,218.38Z" fill="#00aeb4"/>
    <g id="Group_6189" data-name="Group 6189">
      <path id="Path_2430" data-name="Path 2430" d="M595.7,226.978a1.342,1.342,0,0,0,1.306,1.37h.032a1.339,1.339,0,0,0,.031-2.677h-.031A1.347,1.347,0,0,0,595.7,226.978Zm.256.007a1.083,1.083,0,1,1,1.082,1.108h-.025a1.088,1.088,0,0,1-.758-.334A1.071,1.071,0,0,1,595.952,226.985Z" fill="#00aeb4"/>
    </g>
  </g>
  <path id="Path_2431" data-name="Path 2431" d="M598.181,160.1s.4,1.26.653,2.088l15.365-1.207c-.145-.936-.3-1.94-.3-1.94Z" transform="translate(-469.164 -33.176)" fill="#00aeb4"/>
  <path id="Path_2432" data-name="Path 2432" d="M554.646,200.537c-.015-.144-.029-1.156,2.017-3.106,2.219-2.116,34.967-14.41,37.586-17.635,2.015-2.482,3.613-13.184,4.243-18,.19-1.446.291-2.36.291-2.36l-15.113-1.914s.04.782.1,2.021c.2,4.577.593,15.384-.2,16.018-1.009.8-5.139,1.005-9.675,2.116s-8.161,3.93-13.2,8.463a66.089,66.089,0,0,1-7.758,6.249Z" transform="translate(-469.164 -33.176)" fill="#ffcc8b"/>
  <path id="Path_2433" data-name="Path 2433" d="M594.467,175.626l-10.608-5.818v1.738l9.914,4.879Z" transform="translate(-469.164 -33.176)" fill="#253759"/>
  <path id="Path_2434" data-name="Path 2434" d="M589.424,182.4l-.775.812-7.675-7.01,1.1-.276Z" transform="translate(-469.164 -33.176)" fill="#253759"/>
  <path id="Path_2435" data-name="Path 2435" d="M596.855,175.219a9.631,9.631,0,0,1-2.225,6.555c-2.268,2.526-5.816,2.618-6.775,2.162s2.406-4.108,3.449-5.342,2.584-4.269,3.313-4.639A1.651,1.651,0,0,1,596.855,175.219Z" transform="translate(-469.164 -33.176)" fill="#00aeb4"/>
  <g id="Group_6193" data-name="Group 6193" transform="translate(-469.164 -33.176)">
    <path id="Path_2436" data-name="Path 2436" d="M549.6,207.124a2.247,2.247,0,1,0,2.955,1.168A2.247,2.247,0,0,0,549.6,207.124Z" fill="#00aeb4"/>
    <g id="Group_6191" data-name="Group 6191">
      <path id="Path_2437" data-name="Path 2437" d="M549.275,209.714l.011.027a1.335,1.335,0,0,0,1.736.662,1.311,1.311,0,0,0,.774-.987,1.267,1.267,0,0,0-.085-.758l-.011-.028a1.268,1.268,0,0,0-.461-.537,1.324,1.324,0,0,0-1.964,1.621Zm.22-.924a1.068,1.068,0,0,1,.572-.59,1.074,1.074,0,1,1-.549,1.436l-.012-.024A1.065,1.065,0,0,1,549.495,208.79Z" fill="#00aeb4"/>
    </g>
    <path id="Path_2438" data-name="Path 2438" d="M544.683,195.775a2.248,2.248,0,1,0,2.956,1.169A2.248,2.248,0,0,0,544.683,195.775Z" fill="#00aeb4"/>
    <path id="Path_2439" data-name="Path 2439" d="M555.429,198.968l-2.32-6.673s-6.508.72-7.052,1.367,6.128,16.946,6.57,17.585,1.531,1.374,2.238-.09c.646-1.338.755-2.824.233-6.053A28.038,28.038,0,0,1,555.429,198.968Z" fill="#00aeb4"/>
    <g id="Group_6192" data-name="Group 6192">
      <path id="Path_2440" data-name="Path 2440" d="M544.33,198.378l.011.028a1.329,1.329,0,0,0,2.426-1.084l-.016-.028a1.33,1.33,0,0,0-1.731-.66,1.323,1.323,0,0,0-.69,1.744Zm.218-.921a1.064,1.064,0,0,1,.571-.592,1.074,1.074,0,1,1-.548,1.436l-.009-.024A1.06,1.06,0,0,1,544.548,197.457Z" fill="#00aeb4"/>
    </g>
  </g>
  <path id="Path_2441" data-name="Path 2441" d="M583.67,157.526s.04.782.1,2.021l14.723,2.253c.19-1.446.291-2.36.291-2.36Z" transform="translate(-469.164 -33.176)" fill="#00aeb4"/>
  <path id="Path_2442" data-name="Path 2442" d="M629.783,109.707s1.765,8.06,3.379,9.979,11.282,16.5,13.124,18.728,2.315,4.951,2.117,8.06c-.128,2.011-.863,4.2-1.657,3.607-.955-.714-1.209-5.181-2.129-6.254s.23,1.841-.461,2.205c-.44.233-1.137-2.482-1.535-3.545-.481-1.278.435-2.877-.563-4.259s-11.65-10.8-14.348-15.395c-1.516-2.582-4.631-11.055-4.631-11.055Z" transform="translate(-469.164 -33.176)" fill="#ffcc8b"/>
  <path id="Path_2443" data-name="Path 2443" d="M620.3,85.915s3.1,2.3,5.528,8.6,5.571,15.2,5.571,15.2l-9.518,3.3L618.96,94.663Z" transform="translate(-469.164 -33.176)" fill="#00afaa"/>
  <path id="Path_2444" data-name="Path 2444" d="M603.118,220.909l-.4-.1A1.144,1.144,0,0,0,603.118,220.909Z" transform="translate(-469.164 -33.176)" fill="#144998"/>
  <path id="Path_2445" data-name="Path 2445" d="M612.589,129.2a20.374,20.374,0,0,0-1.459,4.376c0,1.074-22.566-6.371-22.566-6.371s3.716-4.931,4.223-5.527S612.589,129.2,612.589,129.2Z" transform="translate(-469.164 -33.176)" fill="#ffcc8b"/>
  <path id="Path_2446" data-name="Path 2446" d="M611.236,81.817a11.974,11.974,0,0,0,2.63,1.865c2.5,1.481,5.885,3.071,6,1.745.02-.2.043-.409.069-.616a14.175,14.175,0,0,1,2.422-6.577,4.223,4.223,0,0,1,.432-.463,2.232,2.232,0,0,1,.9-.537l.013,0a1.349,1.349,0,0,1,.322-.043h0a1.305,1.305,0,0,1,.436.074c.617.216,5.473.833,6.051.341,1.033-.878-.111-1.664.063-3.329a2.885,2.885,0,0,0,.038-.558c-.066-.561-.115-1.289-.128-1.953-.024-.952.016-1.768.167-1.768.284,0,2.231-.814,1.948-1.381s-2.688-2.511-3.325-4.352a12.558,12.558,0,0,1-.53-3.168c-.055-.9-.037-1.573-.037-1.573s-3.608-.426-4.67-.355-6.3,2.05-7.861,4.67,1.276,5.027,1.487,7.149c.071.707-.646,2.068-1.627,3.592-.17.266-.347.535-.529.81-1.485,2.207-3.307,4.575-4,5.739C611.3,81.483,611.2,81.726,611.236,81.817Z" transform="translate(-469.164 -33.176)" fill="#ffcc8b"/>
  <path id="Path_2447" data-name="Path 2447" d="M620.113,84.864s-6.987-1.945-9.672-4.632-17.5,40.374-18.346,41.756,18.5,7.523,20.188,8.444,4.221-11.822,6.6-15.582,6.524-5.757,6.908-9.058-2.763-8.213-3.761-11.82S620.113,84.864,620.113,84.864Z" transform="translate(-469.164 -33.176)" fill="#00c4b3"/>
  <path id="Path_2448" data-name="Path 2448" d="M611.32,132.579s-22.022-6.467-22.252-6.467-8.64,5.241-10.713,30.954l22.951,4.375v-1.3l14.277-.076s-1.689-14.43-2.533-18.806S611.32,132.579,611.32,132.579Z" transform="translate(-469.164 -33.176)" fill="#003b71"/>
  <path id="Path_2449" data-name="Path 2449" d="M599.643,105.3s-2.968,5.869-2.968,7.2,8.8,23.029,9.825,25.074,1.74,5.937,0,8.394-3.173,2.66-3.684,2.763-.2-4.094-.2-7.37-.5-3.888-.5-3.888-11.375-19.855-11.785-23.641,2.932-12,2.932-12Z" transform="translate(-469.164 -33.176)" fill="#ffcc8b"/>
  <path id="Path_2450" data-name="Path 2450" d="M606.5,92.13l-6.141,15.045-9.108-5.117s5.424-9.622,6.856-10.645S606.5,92.13,606.5,92.13Z" transform="translate(-469.164 -33.176)" fill="#008375"/>
  <g id="Group_6194" data-name="Group 6194" transform="translate(-469.164 -33.176)">
    <path id="Path_2451" data-name="Path 2451" d="M601.447,161.441l.346-15.2-.282-.006-.345,15.2Z" fill="#b8daff"/>
  </g>
  <g id="Group_6195" data-name="Group 6195" transform="translate(-469.164 -33.176)">
    <path id="Path_2452" data-name="Path 2452" d="M587.017,141.517v1.84l.156-.019a10.956,10.956,0,0,0,9.936-9.641l.011-.116-1.774-.483-.03.145a14.094,14.094,0,0,1-2.718,5.2,9.53,9.53,0,0,1-5.462,3.057Zm.28.24a9.724,9.724,0,0,0,5.522-3.141,14.791,14.791,0,0,0,2.736-5.17l1.262.343a10.648,10.648,0,0,1-9.52,9.251Z" fill="#b8daff"/>
  </g>
  <g id="Group_6198" data-name="Group 6198" transform="translate(-469.164 -33.176)">
    <g id="Group_6196" data-name="Group 6196">
      <rect id="Rectangle_3175" data-name="Rectangle 3175" width="7.292" height="0.289" transform="translate(608.105 158.349)" fill="#b8daff"/>
    </g>
    <g id="Group_6197" data-name="Group 6197">
      <rect id="Rectangle_3176" data-name="Rectangle 3176" width="3.555" height="0.289" transform="translate(603.181 158.349)" fill="#b8daff"/>
    </g>
  </g>
  <g id="Group_6199" data-name="Group 6199" transform="translate(-469.164 -33.176)">
    <rect id="Rectangle_3177" data-name="Rectangle 3177" width="0.288" height="14.152" transform="translate(586.592 157.291) rotate(-79.459)" fill="#b8daff"/>
  </g>
  <g id="Group_6200" data-name="Group 6200" transform="translate(-469.164 -33.176)">
    <rect id="Rectangle_3178" data-name="Rectangle 3178" width="0.288" height="3.306" transform="translate(581.947 156.331) rotate(-78.604)" fill="#b8daff"/>
  </g>
  <path id="Path_2453" data-name="Path 2453" d="M628.6,53.691c1.131,1.287,3.209,4.484.9,6.795s-2.642-.755-4.388-.235-1.6,2.547-2.691,3.209-1.226.189-1.226.189-3.4-1.914-3.54,1.532a7.579,7.579,0,0,0,1.888,5.168c.567.9-1.651,1.935-3.445,5.191S613.986,88,610.629,90.829s-10.152,1.132-13.173,6.606-11.665,11.891-19.045,9.438-10.4-7.173-18.139-3.4S547.248,91.4,551.211,84.033s10.76-16.35,20.386-19.406,14.456,3.032,18.605-.554,8.575-10.806,15.937-11.184,5.757-1.745,9.2-2.855C622.678,47.672,626.194,50.954,628.6,53.691Z" transform="translate(-469.164 -33.176)" fill="#144998"/>
</svg>
