<?xml version="1.0" encoding="utf-8"?>
<!-- Generator: Adobe Illustrator 25.0.1, SVG Export Plug-In . SVG Version: 6.00 Build 0)  -->
<svg version="1.1" id="Component_38_1" xmlns="http://www.w3.org/2000/svg" xmlns:xlink="http://www.w3.org/1999/xlink" x="0px"
	 y="0px" viewBox="0 0 253.4 202.4" style="enable-background:new 0 0 253.4 202.4;" xml:space="preserve">
<style type="text/css">
	.st0{fill:#F7F7F7;}
	.st1{display:none;}
	.st2{display:inline;}
	.st3{display:inline;clip-path:url(#SVGID_2_);}
	.st4{opacity:0.15;}
	.st5{fill:#C8E7EB;}
	.st6{fill:#D8E081;}
	.st7{fill:#00A3A1;}
	.st8{opacity:0.4;}
	.st9{fill:#00ABC4;}
	.st10{fill:#00AEB4;}
	.st11{opacity:0.6;fill:#F7F7F7;enable-background:new    ;}
	.st12{fill:#00C4B3;}
	.st13{fill:#B17C58;}
	.st14{opacity:0.47;fill:#B17C58;enable-background:new    ;}
	.st15{opacity:0.29;fill:#FFF0D8;enable-background:new    ;}
	.st16{opacity:0.31;fill:#FFFFFF;enable-background:new    ;}
	.st17{fill:#FFFCF3;}
	.st18{fill:#F9F8F3;}
	.st19{fill:#C6946F;}
	.st20{opacity:0.53;fill:#E3BE9F;enable-background:new    ;}
	.st21{opacity:0.53;}
	.st22{fill:#E3BE9F;}
	.st23{fill:#6B6C6E;}
	.st24{opacity:0.49;fill:#6B6C6E;enable-background:new    ;}
	.st25{fill:#ABADB0;}
	.st26{opacity:0.18;fill:#FFFFFF;enable-background:new    ;}
	.st27{opacity:0.41;fill:#FFFFFF;enable-background:new    ;}
	.st28{fill:#C3B9B9;}
	.st29{fill:#D1D2D3;}
	.st30{fill:#9DAFC3;}
	.st31{fill:#3C3C3D;}
	.st32{opacity:0.63;fill:#FFFFFF;enable-background:new    ;}
	.st33{opacity:0.46;fill:#ABADB0;enable-background:new    ;}
	.st34{opacity:0.59;}
	.st35{opacity:0.39;fill:#ABADB0;enable-background:new    ;}
	.st36{opacity:0.6;fill:none;stroke:#87898C;stroke-width:8;stroke-miterlimit:10;enable-background:new    ;}
</style>
<g id="Group_7149" transform="translate(-409.389 -24.696)">
	<g id="Group_7146">
		<g id="Group_7145">
			<path id="Path_3345" class="st0" d="M457.5,205.7c27.5,5.3,57.6,0,85.5,0.4c21.4,0.2,46.2,5.3,63.8-10.2
				c14.6-12.8,19.5-33.8,15.2-52.3c-0.6-2.5-1.3-4.9-2.1-7.4c0,0-14.7-21.6-3.9-44.3s-8.9-24.8-11.8-21.7s-12.3,21.8-13.9,4.9
				c-0.2-2.6,8.7-30.1-8-41.8s-42.1-15.6-63.5,14.7s5.9,61.2,7.5,63.1s17.6,13.5,0.5,28s-28.9-10.3-45.9-12.8
				c-12-1.8-30.7,0.1-48.2,25.6c-7.7,11.2-6.3,26.8,0.5,38.2C438.5,199.2,447.6,203.8,457.5,205.7z"/>
			<g class="st1">
				<defs>
					<path id="SVGID_1_" d="M457.5,205.7c27.5,5.3,57.6,0,85.5,0.4c21.4,0.2,46.2,5.3,63.8-10.2c14.6-12.8,19.5-33.8,15.2-52.3
						c-0.6-2.5-1.3-4.9-2.1-7.4c0,0-14.7-21.6-3.9-44.3s-8.9-24.8-11.8-21.7s-12.3,21.8-13.9,4.9c-0.2-2.6,8.7-30.1-8-41.8
						s-42.1-15.6-63.5,14.7s5.9,61.2,7.5,63.1s17.6,13.5,0.5,28s-28.9-10.3-45.9-12.8c-12-1.8-30.7,0.1-48.2,25.6
						c-7.7,11.2-6.3,26.8,0.5,38.2C438.5,199.2,447.6,203.8,457.5,205.7z"/>
				</defs>
				<use xlink:href="#SVGID_1_"  style="display:inline;overflow:visible;fill:#F7F7F7;"/>
				<clipPath id="SVGID_2_" class="st2">
					<use xlink:href="#SVGID_1_"  style="overflow:visible;"/>
				</clipPath>
				<g id="Group_7144" class="st3">
					
						<image style="overflow:visible;enable-background:new    ;" width="825" height="765" id="Rectangle_3215" xlink:href="DE3785ED.png"  transform="matrix(0.24 0 0 0.24 427.255 24.677)">
					</image>
				</g>
			</g>
		</g>
	</g>
	<g id="Group_7147">
		<path id="Path_3347" class="st0" d="M450.2,95.6c6.1,0.6,10.9,3.4,11.9,10c1.1,7.3-13,9.4-17.6,11.1c-5.9,2.2-8.9,6.3-11.8,11.7
			c-3.1,5.7-6.1,13.4-14,10.6c-18.8-6.4-4.8-29.5,5.8-36.9C429.6,98.6,441.2,94.7,450.2,95.6z"/>
	</g>
	<g id="Group_7148" class="st4">
		<path id="Path_3348" class="st5" d="M631.7,189.4c0,4.5-46.5,8.1-103.8,8.1s-103.8-3.6-103.8-8.1s46.5-8.1,103.8-8.1
			S631.7,184.9,631.7,189.4z"/>
	</g>
</g>
<g id="Group_7197" transform="translate(-409.389 -24.696)">
	<g id="Group_7182">
		<g id="Group_7151">
			<g id="Group_7150">
				<path id="Path_3349" class="st6" d="M460.1,123.3c0.4-0.3,0.7-0.8,0.5-1.3c-0.2-0.5-0.9-0.5-1.4-0.5c-3,0.5-5.5,2.5-6.7,5.3
					l0,0.2c-2.5-1.4-5.4-1.8-8.2-1.3c-0.6,0.1-1.3,0.4-1.5,1c-0.1,0.4,0.1,0.9,0.5,1.2c0.4,0.3,0.8,0.4,1.2,0.5
					c2.8,0.6,5.7,0.2,8.2-1.1l-0.1-0.2l0,0C454.9,125.4,458.1,125.2,460.1,123.3z"/>
			</g>
		</g>
		<g id="Group_7153">
			<g id="Group_7152">
				<path id="Path_3350" class="st6" d="M463.7,131c0.3-0.2,0.5-0.5,0.6-0.8c0.1-0.5-0.2-1-0.6-1.2c-0.4-0.2-0.9-0.3-1.4-0.2
					c-3.1,0.3-5.7,2.2-7,5l0,0.3c-2.4-2-5.5-3.1-8.6-3.1c-0.7,0-1.5,0.2-1.7,0.8c-0.1,0.4,0,0.8,0.3,1.1c0.3,0.3,0.6,0.5,1,0.6
					c2.9,1.2,6.1,1.5,9.1,0.7l0,0c2-0.7,4-1.4,6-2.1C462.2,131.8,463,131.5,463.7,131z"/>
			</g>
		</g>
		<g id="Group_7155">
			<g id="Group_7154">
				<path id="Path_3351" class="st6" d="M459.6,148.4c3,0.3,6.1-0.1,9-1.1c0.5-0.2,1.2-0.5,1.2-1.1c0-0.6-0.6-1-1.2-1.2
					c-1.7-0.4-3.4-0.2-5,0.6c-1.5,0.8-3,1.7-4.3,2.8L459.6,148.4z"/>
			</g>
		</g>
		<g id="Group_7157">
			<g id="Group_7156">
				<path id="Path_3352" class="st6" d="M453.2,109.7c-0.3-0.6-1.1-0.6-1.8-0.5c-1.4,0.4-2.6,1.3-3.5,2.5c-0.8,1.2-1.4,2.6-1.7,4
					l0,0c-1.7-0.8-3.5-1.1-5.3-1c-0.5,0-1,0.2-1.4,0.5c-0.4,0.3-0.6,0.9-0.4,1.3c0.3,0.5,0.8,0.8,1.3,0.8c2,0.3,3.9-0.4,5.7-1.2
					l0.3-0.3c2.2-1.2,4.2-2.7,6-4.5C453,111,453.5,110.3,453.2,109.7z"/>
			</g>
		</g>
		<g id="Group_7159">
			<g id="Group_7158">
				<path id="Path_3353" class="st6" d="M449.3,105.1c-0.2-0.4-0.6-0.6-1-0.7c-0.4-0.1-0.8,0-1.2,0.1c-1.2,0.4-2.2,1.2-2.9,2.3
					c-0.7,1-1.3,2.2-1.7,3.3l0.3-0.1c1.8-0.8,3.6-1.7,5.2-2.7c0.4-0.2,0.7-0.5,1-0.9C449.4,106,449.4,105.5,449.3,105.1z"/>
			</g>
		</g>
		<g id="Group_7161">
			<g id="Group_7160">
				<path id="Path_3354" class="st6" d="M465.5,139.1c0.6-0.1,1.2-0.4,1.7-0.8c0.5-0.5,0.5-1.2,0.1-1.7c-0.4-0.3-0.9-0.4-1.3-0.3
					c-3.3,0.3-6.3,2.2-8,5.1L465.5,139.1z"/>
			</g>
		</g>
		<g id="Group_7163">
			<g id="Group_7162">
				<path id="Path_3355" class="st6" d="M442.7,110.2l-0.2,0.1c-2.2-1-4.8-1.2-7.1-0.6c-0.4,0.1-0.8,0.3-1.1,0.5
					c-0.3,0.3-0.5,0.7-0.4,1.1c0.2,0.6,0.9,0.8,1.6,0.9C438,112.4,440.6,111.6,442.7,110.2z"/>
			</g>
		</g>
		<g id="Group_7165">
			<g id="Group_7164">
				<path id="Path_3356" class="st6" d="M436.4,103.1c-1.7-3.4-4.8-5.9-8.4-6.9c-0.4-0.1-0.8-0.2-1.2-0.1c-0.4,0-0.8,0.3-1,0.6
					c-0.3,0.6,0.1,1.4,0.7,1.9c2.6,2.6,6.3,3.5,9.8,4.3L436.4,103.1z"/>
			</g>
		</g>
		<g id="Group_7167">
			<g id="Group_7166">
				<path id="Path_3357" class="st6" d="M450,122.1C450,122.1,450,122,450,122.1L450,122.1L450,122.1c-2.3-1.9-5.3-2.6-8.1-1.9
					c-0.6,0.2-1.4,0.6-1.4,1.3c0,0.7,0.8,1.2,1.4,1.4C444.5,123.7,447.4,123.4,450,122.1L450,122.1L450,122.1z"/>
			</g>
		</g>
		<g id="Group_7169">
			<g id="Group_7168">
				<path id="Path_3358" class="st6" d="M439.1,106.4l0.2-0.2c-1.3-0.5-2.6-0.9-4-1.1c-1.4-0.2-2.8,0-4.1,0.4
					c-0.4,0.1-0.8,0.4-1.1,0.7c-0.3,0.3-0.4,0.7-0.3,1.2c0.2,0.7,1.1,0.9,1.8,0.9C434.2,108.4,436.8,107.7,439.1,106.4z"/>
			</g>
		</g>
		<g id="Group_7171">
			<g id="Group_7170">
				<path id="Path_3359" class="st6" d="M456.6,115.8c-0.3-0.3-0.8-0.3-1.2-0.2c-1.5,0.3-2.8,1.2-3.6,2.4c-0.8,1.2-1.4,2.6-1.8,4
					c2.1-1.1,4.1-2.5,5.9-4c0.3-0.3,0.6-0.6,0.8-1C457,116.6,456.9,116.1,456.6,115.8z"/>
			</g>
		</g>
		<g id="Group_7173">
			<g id="Group_7172">
				<path id="Path_3360" class="st6" d="M458,141.4C458,141.3,458,141.3,458,141.4C458,141.3,458,141.3,458,141.4L458,141.4
					c-2.1-2.8-4.9-4.7-8.2-5.5c-0.6-0.2-1.2-0.2-1.7,0.2c-0.4,0.5-0.4,1.3,0,1.8c0.8,1,1.8,1.7,3,2c2.2,0.8,4.4,1.3,6.7,1.6v0l0,0.1
					c0,0,0-0.1,0.1-0.1c0.1,0,0.2,0,0.3,0L458,141.4z"/>
			</g>
		</g>
		<g id="Group_7175">
			<g id="Group_7174">
				<path id="Path_3361" class="st6" d="M459.3,148.4c-0.1,0-0.1,0-0.2,0c0.1,0.1,0.2,0.2,0.2,0.4L459.3,148.4z"/>
			</g>
		</g>
		<g id="Group_7177">
			<g id="Group_7176">
				<path id="Path_3362" class="st6" d="M449.7,141.6c-0.4-0.1-0.9,0-1.3,0.1c-0.4,0.1-0.8,0.4-0.9,0.9c-0.1,0.4,0,0.9,0.3,1.2
					c0.7,0.9,1.6,1.6,2.7,2c2.7,1.3,5.7,2.1,8.7,2.5c-1-1.7-2.3-3.1-3.8-4.4C453.7,142.7,451.8,141.8,449.7,141.6z"/>
			</g>
		</g>
		<g id="Group_7179">
			<g id="Group_7178">
				<path id="Path_3363" class="st6" d="M448.3,151.7c-0.1,0.4,0,0.7,0.2,1c0.2,0.3,0.5,0.5,0.8,0.8c1.6,1.2,3.5,2.1,5.5,2.6
					c1.9,0.5,3.9,0.9,5.8,1.1l-0.2,0.2c2.8-0.1,5.6-0.8,8.1-1.9c0.4-0.2,0.8-0.4,1.2-0.7c0.3-0.3,0.4-0.9,0.2-1.3
					c-0.3-0.4-0.8-0.6-1.3-0.6c-3.2-0.2-6.2,1.4-7.9,4.1l0,0c-1.7-3-4.6-5.2-7.9-6.2c-1.1-0.4-2.2-0.4-3.3-0.1
					C449,150.8,448.5,151.2,448.3,151.7z"/>
			</g>
		</g>
		<g id="Group_7181">
			<g id="Group_7180">
				<path id="Path_3364" class="st6" d="M459.9,161.4c-0.1-21.7-9.2-42.5-25-57.4c-1-0.9,0.6-2.3,1.6-1.4
					c16.2,15.4,25.4,36.7,25.4,58.9C462,162.9,459.9,162.7,459.9,161.4z"/>
			</g>
		</g>
	</g>
	<g id="Group_7190">
		<g id="Group_7184">
			<g id="Group_7183">
				<path id="Path_3365" class="st7" d="M460.6,162.6h-0.5c0.1,0.1,0.2,0.3,0.3,0.4L460.6,162.6z"/>
			</g>
		</g>
		<g id="Group_7187" class="st8">
			<g id="Group_7186">
				<g id="Group_7185">
					<path id="Path_3366" class="st9" d="M460.1,162.6c-1.7-2.8-2-6.4-2-10c0.1-3.8,0.4-7.7-0.3-11.2c-0.2-0.8-0.4-1.6-1.2-1.9
						c-0.9-0.3-2.1,0.5-2.7,1.5c-0.5,1-0.8,2.1-0.8,3.2c-1-4.5-3.3-8.7-6.6-12c-0.6,1.8-1.3,3.6-1.9,5.4c-1.5-3.5-3.9-6.5-6.9-8.8
						c-0.9-0.7-2.2-1.3-3.3-0.5c-1.2,0.9-1.3,2.6-1.1,4c-4.5-3.9-10.4-5.9-16.3-5.5c-1.7,0.1-3.7,0.6-4.5,2.2
						c-0.9,1.7,0.1,3.3,1.1,4.5c2.9,3.5,6.2,6.6,9.8,9.4c-1.3,0.1-2.6,0.5-3.8,1.1c-1.2,0.8-2.1,2.3-1.8,3.5
						c0.3,1.1,1.5,1.4,2.6,1.6c4.1,0.9,8.2,1.6,12.5,2.1c-1.5,0.8-3.3,2.1-3.2,3.6c0.1,1.3,1.6,1.6,2.9,1.8c3.5,0.3,7,0.5,10.5,0.6
						c-1.2,0.4-2.1,1.5-2,2.8c0.1,1.1,0.8,2,1.8,2.4c1.1,0.3,2.2,0.5,3.3,0.4L460.1,162.6z"/>
				</g>
			</g>
		</g>
		<g id="Group_7189">
			<g id="Group_7188">
				<path id="Path_3367" class="st10" d="M421.4,130.8c6.1,3.5,11.9,7.5,17.4,11.9c-0.5-2.2-1.2-4.3-2.1-6.4c-0.3-0.6,0.7-0.9,1-0.3
					c1.1,2.5,1.9,5.1,2.4,7.7l0,0c3.5,2.9,6.9,5.9,10.2,9.1c-0.7-3.4-1.5-6.7-2.2-10.1c-0.1-0.7,0.9-0.9,1-0.3
					c0.8,3.8,1.6,7.5,2.4,11.3c0,0.1,0,0.2,0,0.3c1.9,1.9,3.8,3.8,5.5,5.8c0.4,0.5-0.3,1.3-0.7,0.8c-1.9-2.1-3.9-4.1-5.9-6.1
					c0,0-0.1,0-0.1,0c-2.8-0.3-5.7-0.7-8.5-1c-0.7-0.1-0.7-1.1,0-1c2.5,0.3,5,0.6,7.4,0.9c-3.3-3.2-6.7-6.2-10.3-9.1
					c-0.1,0-0.1,0.1-0.2,0.1c-3.5,0.3-7.1,0.2-10.6-0.1c-0.7-0.1-0.7-1.1,0-1c3.2,0.3,6.4,0.4,9.6,0.2c-5.4-4.2-11-8.1-16.9-11.5
					c-0.3-0.1-0.3-0.5-0.2-0.7S421.2,130.6,421.4,130.8L421.4,130.8z"/>
			</g>
		</g>
	</g>
	<g id="Group_7196">
		<g id="Group_7193" class="st8">
			<g id="Group_7192">
				<g id="Group_7191">
					<path id="Path_3368" class="st9" d="M455,141.4c-0.1,1.6,0.9,2.9,1.9,4c3.4,3.9,7,7.7,10.7,11.3l-0.2,0.3
						c4.2-1.6,8.4-3.1,12.7-4.7c0.9-0.3,1.8-0.7,2.5-1.3c1.1-1.1,1.6-3.2-0.9-4c-0.5-0.1-0.9-0.2-1.4-0.2l-6.4-0.2
						c-0.7,0-1.6-0.2-1.7-1c0-0.4,0.1-0.8,0.4-1.1c2.4-2.1,5.3-3.3,8.5-3.7c0.9,0,1.8-0.2,2.6-0.5c1.1-0.6,1.8-2.1,0.3-3
						c-0.3-0.2-0.7-0.3-1-0.3c-2.3-0.3-4.7-0.3-7.1,0c-1.2,0.1-2.9,0.1-3-1.3c0-0.6,0.3-1.1,0.8-1.4c2.3-1.5,4.9-2.5,7.7-3
						c0.7-0.1,1.4-0.3,2-0.6c0.7-0.3,1-1.2,0.7-1.9c-0.1-0.2-0.3-0.4-0.5-0.6c-0.4-0.3-0.9-0.4-1.4-0.4l-6.7,0.5
						c-0.8,0.1-1.8,0-2-0.9c-0.2-0.6,0.1-1.3,0.6-1.6c2.6-1.6,5.4-2.8,8.4-3.3c1-0.1,1.9-0.5,2.6-1.2c0.3-0.4,0.4-1,0.2-1.4
						c-0.4-0.7-1.1-0.7-1.8-0.6l-7.2,0.3c-0.3,0-0.5-0.2-0.5-0.4c0-0.1,0.1-0.3,0.2-0.4c2.2-1.8,4.8-3.1,7.6-3.8
						c0.7-0.1,1.4-0.3,2-0.7c0.8-0.6,1.3-1.9,0-2.6c-0.3-0.2-0.7-0.3-1.1-0.2c-2.2,0-4.5,0.2-6.7,0.6c0.9-1.9,1.9-3.8,2.8-5.8
						c0.7-1.4,1.4-3.1,0.3-4.4c-0.7-0.9-1.9-1.2-3-0.9c-1.8,0.5-2.8,2.3-3.3,4c-0.1,1-0.5,2-1.1,2.8c-0.4,0.4-0.9,0.5-1.4,0.4
						c-0.9-0.2-1.1-1.1-1.4-1.9c-0.3-0.7-0.8-1.4-1.5-1.3c-0.4,0.1-0.7,0.3-0.9,0.7c-0.7,1.2-0.2,2.8,0.5,4c0.8,1.5,1.9,3,1.4,4.9
						c-0.2,1-1.2,1.7-2.3,1.5c-1-0.2-1.4-1.3-1.9-2.1s-1.6-1.6-2.4-0.7c-0.2,0.3-0.3,0.6-0.3,0.9c-0.1,2.3,1.3,4.3,2.4,6.3
						c0.8,1.2,1.3,2.6,1.4,4.1c0,0.6-0.4,1.1-1,1.1c-0.3,0-0.6-0.1-0.8-0.3l-3.7-3.2c-0.4-0.4-0.9-0.7-1.5-0.5
						c-0.3,0.2-0.5,0.5-0.6,0.8c-0.1,0.8,0.2,1.6,0.7,2.1c1.6,2.4,3.3,4.9,4.9,7.3c0.6,0.8,1.2,1.9,0.6,2.8c-0.5,0.7-1.4,1-2.2,0.7
						c-1.7-0.6-2.3-2.3-3.5-3.4c-0.7-0.7-2.1-1.1-2.5,0c-0.2,0.5-0.1,1,0.2,1.4c1.7,2.3,3.7,4.5,5.8,6.5c1,0.7,1.6,1.7,1.8,2.8
						c0.1,0.8-0.4,1.5-1.2,1.7c-0.8,0.1-1.4-0.4-2-1c-0.9-0.8-1.7-1.7-2.6-2.5c-0.9-0.9-2-1.8-3.2-1.3
						C455.6,139.8,455.1,140.5,455,141.4z"/>
				</g>
			</g>
		</g>
		<g id="Group_7195">
			<g id="Group_7194">
				<path id="Path_3369" class="st10" d="M468.1,155.7c-2.9-18.7,0.6-37.9,10.1-54.4c0.3-0.6,1.3-0.1,0.9,0.4
					c-9.4,16.3-12.9,35.3-10,53.9C469.3,156.3,468.2,156.3,468.1,155.7z"/>
			</g>
		</g>
	</g>
</g>
<g id="Group_7214" transform="translate(-409.389 -24.696)">
	<g id="Group_7198">
		<path id="Path_3370" class="st6" d="M615.9,118.1c-0.4-0.5-0.8-1.2-0.5-1.7c0.3-0.6,1.2-0.4,1.9-0.2c3.8,1.4,6.8,4.4,8.2,8.1
			l-0.1,0.2c3.5-1,7.3-0.9,10.7,0.5c0.8,0.3,1.7,0.8,1.8,1.6c0.1,0.5-0.2,1.1-0.7,1.3c-0.5,0.2-1.1,0.3-1.6,0.3
			c-3.8,0-7.4-1.2-10.5-3.4l0.2-0.2h0C622.4,122.1,618.4,121,615.9,118.1z"/>
	</g>
	<g id="Group_7199">
		<path id="Path_3371" class="st6" d="M610.5,126.6c-0.4-0.3-0.6-0.7-0.7-1.1c-0.1-0.6,0.3-1.1,0.9-1.2c0.6-0.1,1.2-0.1,1.8,0.1
			c3.9,1.1,7.1,4.1,8.6,7.9v0.4c3.5-1.8,7.6-2.4,11.4-1.6c0.9,0.2,1.9,0.6,2.1,1.4c0.1,0.5-0.1,1-0.5,1.3c-0.4,0.3-0.9,0.4-1.3,0.5
			c-4,0.7-8.1,0.2-11.8-1.5l0,0c-2.5-1.4-5-2.8-7.5-4.1C612.5,128.1,611.5,127.4,610.5,126.6z"/>
	</g>
	<g id="Group_7200">
		<path id="Path_3372" class="st6" d="M614.2,149c-4-0.4-8-1.7-11.5-3.7c-0.7-0.4-1.5-0.9-1.5-1.6c0-0.8,0.9-1.1,1.7-1.2
			c2.3,0,4.5,0.7,6.3,2c1.9,1.3,3.6,2.8,5.2,4.5L614.2,149z"/>
	</g>
	<g id="Group_7201">
		<path id="Path_3373" class="st6" d="M626.2,103.3c0.4-0.6,1.5-0.5,2.3-0.1c1.8,0.8,3.3,2.2,4.2,3.9c0.9,1.6,1.5,3.4,1.8,5.3l0,0
			c2.3-0.5,4.7-0.5,7,0.1c0.7,0.2,1.3,0.5,1.7,1c0.5,0.4,0.6,1.1,0.4,1.7c-0.4,0.5-1.1,0.8-1.8,0.7c-2.6-0.1-5-1.5-7.3-2.9l-0.3-0.4
			c-2.7-2-5.2-4.3-7.3-7C626.3,105,625.7,104,626.2,103.3z"/>
	</g>
	<g id="Group_7202">
		<path id="Path_3374" class="st6" d="M631.6,98.7c0.3-0.4,0.8-0.6,1.3-0.6c0.6,0,1.1,0.2,1.6,0.5c1.5,0.8,2.7,2.1,3.5,3.5
			c0.8,1.4,1.4,2.9,1.8,4.5l-0.4-0.2c-2.3-1.4-4.4-3-6.5-4.7c-0.5-0.4-0.9-0.9-1.2-1.4C631.4,99.8,631.4,99.2,631.6,98.7z"/>
	</g>
	<g id="Group_7203">
		<path id="Path_3375" class="st6" d="M607.4,136c-0.8-0.3-1.5-0.8-2.1-1.5c-0.5-0.7-0.6-1.7,0-2.1c0.6-0.2,1.2-0.2,1.7,0
			c4.3,1.3,7.9,4.3,9.9,8.2C613.8,139.1,610.6,137.6,607.4,136z"/>
	</g>
	<g id="Group_7204">
		<path id="Path_3376" class="st6" d="M639.7,106.5l0.2,0.2c3.1-0.7,6.4-0.3,9.2,1.1c0.5,0.2,1,0.5,1.4,0.9c0.4,0.4,0.5,0.9,0.4,1.4
			c-0.3,0.7-1.3,0.8-2.1,0.7C645.4,110.4,642.2,108.9,639.7,106.5z"/>
	</g>
	<g id="Group_7205">
		<path id="Path_3377" class="st6" d="M648.4,99.5c2.6-3.8,6.9-6.1,11.5-6.3c0.5,0,1,0,1.5,0.1c0.5,0.2,1,0.5,1.2,1
			c0.4,0.9-0.3,1.7-1,2.2c-3.5,2.5-8.4,2.7-13.1,2.8L648.4,99.5z"/>
	</g>
	<g id="Group_7206">
		<path id="Path_3378" class="st6" d="M629.1,119.2c0,0,0-0.1,0-0.1L629.1,119.2L629.1,119.2c3.4-1.8,7.3-1.8,10.7-0.3
			c0.8,0.4,1.7,1.1,1.7,1.9c0,0.9-1.1,1.3-2,1.4c-3.6,0.3-7.3-0.7-10.2-2.9L629.1,119.2L629.1,119.2z"/>
	</g>
	<g id="Group_7207">
		<path id="Path_3379" class="st6" d="M644.6,102.8l-0.2-0.3c1.7-0.3,3.5-0.4,5.3-0.3c1.8,0.1,3.6,0.7,5.2,1.6
			c0.5,0.3,0.9,0.6,1.3,1.1c0.3,0.4,0.5,1,0.3,1.5c-0.3,0.8-1.5,0.8-2.4,0.7C650.7,106.5,647.4,105.1,644.6,102.8z"/>
	</g>
	<g id="Group_7208">
		<path id="Path_3380" class="st6" d="M621.2,109.8c0.5-0.2,1.1-0.2,1.6,0c1.9,0.8,3.5,2.1,4.5,3.9c0.9,1.7,1.6,3.5,1.9,5.4
			c-2.6-1.9-5-4.1-7.3-6.4c-0.4-0.4-0.7-0.9-1-1.5C620.6,110.8,620.7,110.2,621.2,109.8z"/>
	</g>
	<g id="Group_7209">
		<path id="Path_3381" class="st6" d="M617,140.8C617,140.7,617,140.7,617,140.8C617,140.7,617,140.7,617,140.8l0.1-0.1
			c3-2.8,6.8-4.4,10.9-4.5c0.8-0.1,1.6,0.1,2.2,0.7c0.5,0.7,0.5,1.6-0.1,2.3c-0.9,1.1-2.6,1.5-4.1,1.7c-2.9,0.4-5.9,0.5-8.8,0.2h0
			l0,0.1c0,0,0-0.1-0.1-0.1c-0.1,0-0.2,0-0.3,0L617,140.8z"/>
	</g>
	<g id="Group_7210">
		<path id="Path_3382" class="st6" d="M614.6,149c0.1,0,0.2,0,0.3,0c-0.1,0.1-0.2,0.3-0.3,0.4L614.6,149z"/>
	</g>
	<g id="Group_7211">
		<path id="Path_3383" class="st6" d="M627.7,143.2c0.6,0,1.1,0.2,1.6,0.4c0.5,0.3,0.9,0.7,1.1,1.3c0.1,0.5-0.1,1.1-0.5,1.4
			c-1,0.9-2.3,1.6-3.6,1.8c-3.7,0.9-7.6,1.2-11.4,0.9c1.4-1.8,3.2-3.3,5.3-4.4C622.4,143.4,625.1,142.9,627.7,143.2z"/>
	</g>
	<g id="Group_7212">
		<path id="Path_3384" class="st6" d="M628.5,155.8c0.1,0.4-0.1,0.9-0.4,1.2c-0.3,0.3-0.7,0.6-1,0.7c-2.3,1.1-4.8,1.7-7.3,1.8
			c-2.5,0.1-5.1,0.1-7.6-0.2l0.2,0.3c-3.7-0.9-7.1-2.4-10.3-4.4c-0.5-0.3-1-0.7-1.4-1.2c-0.4-0.5-0.4-1.1-0.1-1.6
			c0.5-0.4,1.1-0.5,1.7-0.4c4.2,0.7,7.9,3.3,9.9,7.1l0,0c2.6-3.3,6.6-5.3,10.8-5.5c1.5-0.2,2.9,0.1,4.3,0.7
			C627.7,154.6,628.3,155.1,628.5,155.8z"/>
	</g>
	<g id="Group_7213">
		<path id="Path_3385" class="st6" d="M612.7,164.7c2.2-26.6,15.8-49.5,37.5-63.8c1.3-0.9-0.6-2.9-1.9-2.1
			c-22.3,14.6-36.1,38.3-38.3,65.5C609.8,166.1,612.5,166.4,612.7,164.7z"/>
	</g>
</g>
<path id="Path_3386" class="st11" d="M223.9,194.8c0,4.2-47.2,7.5-105.4,7.5S13,199,13,194.8s47.2-7.6,105.5-7.6
	S223.9,190.7,223.9,194.8z"/>
<path id="Path_3387" class="st12" d="M231.2,153.6c0,19.2-48.9,34.8-109.1,34.8S12.9,172.8,12.9,153.6s48.9-34.8,109.1-34.8
	S231.2,134.4,231.2,153.6z"/>
<g id="Group_7232" transform="translate(-409.389 -24.696)">
	<g id="Group_7215">
		<path id="Path_3388" class="st13" d="M493.9,151.5c-1.6-1.2-2.9-2.7-3.9-4.4c-4.2-6.4-7.4-13.4-9.7-20.7
			c-1.1-3.5-1.9-7.3-0.5-10.7c1.6-4.1,5.9-6.4,9.9-8.3c6.2-2.9,13-6.2,15.7-12.4c2-4.4,2-10.5,6.4-12.6c4.9,7.9,1.8,18.6-4,26
			c-1.4,1.8-3,3.6-3.5,5.9c-0.8,4,2.4,7.7,5.6,10.4c3.2,2.6,6.8,5.4,7.5,9.5c0.7,4.2-2.1,8.1-5,11.2c-2.4,2.6-5,5.2-8.3,6.6
			S496.9,153.5,493.9,151.5z"/>
		<path id="Path_3389" class="st14" d="M503.1,136.9c-5.4,0.4-10.8-2-15.1-5.2c-4-3-7.4-7.1-8.7-11.9c-0.1-0.3-0.1-0.6-0.2-0.9
			c-0.1,2.6,0.4,5.1,1.2,7.6c2.2,7.3,5.5,14.3,9.7,20.7c1,1.7,2.3,3.2,3.9,4.4c3,2,7,1.8,10.2,0.4s5.9-4,8.3-6.6
			c2.8-3.1,5.6-7,5-11.2c-0.4-1.8-1.2-3.5-2.4-4.8C513,133.6,508.1,136.6,503.1,136.9z"/>
		<path id="Path_3390" class="st15" d="M504.4,125.1c0.2,0.4,0.2,0.9,0.2,1.4c-0.2,0.9-1,1.7-1.9,2c-2.6,1-5.4,0.8-7.8-0.5
			c-2.4-1.3-4.5-3-6.3-5c-1.2-1.1-2.2-2.4-2.7-3.9c-0.8-2.9,1.1-5.9,3.5-7.6s5.3-2.6,7.9-4.1c1.6-1,3.1-2,4.6-3.2c1.3-1,2.5-2,3.8-3
			c0.7,2.2-0.8,4.4-2,6.3c-1.5,2.4-2.8,5.2-2.6,8C501.1,118.9,503.3,121.8,504.4,125.1z"/>
		<path id="Path_3391" class="st16" d="M494.1,114c-1.1,0.8-2.4,1.4-3.8,1.8c-0.3,0.1-0.6,0.1-1,0c-0.5-0.2-0.8-0.8-0.6-1.4
			c0.2-0.5,0.4-1,0.9-1.4c0.9-1.1,2.2-1.9,3.5-2.3c0.8-0.3,1.7-0.1,2.3,0.6c0.2,0.5,0.2,1.1-0.1,1.6
			C495,113.3,494.6,113.7,494.1,114z"/>
	</g>
	<g id="Group_7217">
		<path id="Path_3392" class="st17" d="M571.3,73.6c-1-1.4-0.3-3.4-1.2-4.8c-0.4-0.6-1.1-1-1.8-1.2c-2.7-0.6-5.3,1.1-5.9,3.8
			c-0.1,0.3-0.1,0.5-0.1,0.8c0,0.6,0.2,1.3,0.6,1.8c0.7,0.7,1.9,0.9,2.4,1.7c0.7,1.1-0.4,2.5-1.3,3.4c-1.6,1.5-3.2,3.1-4.9,4.6
			c0.9,1.4,2,2.7,3.1,3.8c1.8-2.3,3.6-4.6,5.4-6.8c0.7-0.8,1.5-1.8,2.6-1.6c1,0.1,1.6,1.1,2.3,1.8c1.8,1.5,4.5,1.2,5.9-0.6
			c0.1-0.2,0.3-0.3,0.4-0.5c0.7-1.3,0.5-2.9-0.6-4C576.3,74.2,572.8,75.6,571.3,73.6z"/>
		<path id="Path_3393" class="st18" d="M562.6,80.3c-1,0.9-1.9,1.8-2.9,2.7c0.9,1.4,2,2.7,3.1,3.8l3.1-3.9
			C564.6,82.3,563.5,81.4,562.6,80.3z"/>
		<g id="Group_7216">
			<path id="Path_3394" class="st13" d="M561.8,103.8c1.6-3.4,4.5-6.3,4.8-10.1c0.3-3.5-1.9-6.8-3.9-9.7c-1.3-1.9-2.7-3.8-4.8-4.7
				c-2.5-1.1-5.4-0.4-7.8,0.7s-4.6,2.8-7.1,4c-7.1,3.3-15.3,2.6-22.3,6.2c-23.9,12.4-18.7,51.6,9.2,53.9c15.2,1.3,28.5-10,29.8-25.1
				c0.2-1.9,0.1-3.8-0.1-5.8C559.9,110,560.6,106.8,561.8,103.8z"/>
		</g>
		<path id="Path_3395" class="st14" d="M561.9,97.6c-2.1,3.3-4.8,6.3-6.9,9.6c-2.9,4.6-4.7,9.8-8,14.1c-4.3,5.6-10.8,9.2-17.9,9.9
			c-2.3,0.3-4.7,0.1-6.9-0.5c-6.6-1.9-11.3-8.5-11.8-15.4s2.5-13.7,7.3-18.7c4.2-4.3,9.3-7.6,14.9-9.7c-4,0.7-8,1.4-11.7,3.4
			c-23.9,12.4-18.7,51.6,9.2,53.9c15.2,1.3,28.5-10,29.8-25.1c0.2-1.9,0.1-3.8-0.1-5.8c0.1-3.3,0.8-6.5,2.1-9.5
			c1.6-3.4,4.5-6.3,4.8-10.1c0.1-2.1-0.5-4.2-1.6-6C565,91.2,563.9,94.7,561.9,97.6z"/>
		<path id="Path_3396" class="st15" d="M555.4,85.6c-1.6-1.9-4.3-2.6-6.7-1.6c-4.4,1.9-8.3,4.9-12.7,7c-3.9,1.9-8,3.6-11.6,6.2
			c-3.7,2.7-7,6.3-7.8,10.9c-0.7,4.2,0.7,8.5,3.7,11.5c3.1,2.9,7.5,4.1,11.6,3c7.6-2.1,9.1-10,12-16.2c2.7-5.9,8.1-8.7,11.7-13.9
			C557.1,90.3,557,87.5,555.4,85.6z"/>
		<path id="Path_3397" class="st16" d="M531.5,94.7c1.7,0.9,2.6,2.9,2,4.8c-0.6,1.8-1.8,3.3-3.5,4.3c-1,0.7-2.1,1.2-3.3,1.4
			c-1.2,0.2-2.4-0.2-3.3-1c-1.5-1.5-1-4.2,0.3-5.9c1.1-1.5,2.6-2.7,4.3-3.3C529.1,94.4,530.4,94.3,531.5,94.7z"/>
	</g>
	<g id="Group_7228">
		<path id="Path_3398" class="st19" d="M574.5,178.4c-14,1.9-28.2,3.8-42.3,3.2s-28.5-3.9-40.4-11.6c-2.8-1.8-5.7-4-9-4.6
			c-3.2-0.6-6.8,0.4-9.6-1.2c-4.1-2.3-4.1-8.4-1.7-12.5s6.3-7,9-10.8c2.6-3.7,4-8.1,5.7-12.4c3.5-9.2,8.5-17.7,14.9-25.2
			c9-10.5,21-18.5,34.4-21.7s28.2-1.2,39.7,6.4c14.9,9.8,22.8,27.4,26.5,44.9c1.6,7.4,2.5,15.1,1.1,22.6s-5.5,14.7-12,18.5
			C585.8,176.8,580.1,177.6,574.5,178.4z"/>
		<path id="Path_3399" class="st20" d="M577.3,89.6c1.5,6.5,1.2,13.6,0.4,20.3c-0.6,5.5-1.5,11.1-3.7,16.2
			c-2.4,5.1-5.7,9.8-9.9,13.6c-13.4,12.5-31.8,18.1-49.9,15.2c-8.5-1.4-17.3-5.4-21.2-13c-3.9-7.6-2.1-16.8,0.9-24.7
			c1.5-4,3.3-7.8,5.3-11.6c-5.5,7-9.9,14.7-13.1,23c-1.7,4.3-3,8.7-5.7,12.4c-2.7,3.8-6.7,6.7-9,10.8s-2.4,10.2,1.7,12.5
			c2.8,1.6,6.4,0.7,9.6,1.2c3.3,0.6,6.2,2.7,9,4.6c11.9,7.7,26.2,10.9,40.4,11.6s28.3-1.3,42.3-3.2c5.6-0.8,11.3-1.6,16.2-4.4
			c6.5-3.9,10.6-11.1,12-18.5s0.5-15.1-1.1-22.6C598.1,116.4,590.8,99.7,577.3,89.6z"/>
		<path id="Path_3400" class="st15" d="M502.8,117.5c7-16.3,21.4-28.3,38.7-32.3c6.6-1.4,14.1-1.4,19.3,2.8
			c5.8,4.6,7.1,13.2,4.7,20.2s-7.9,12.5-13.8,16.8c-8.9,6.7-19.4,10.9-30.5,12.2c-4,0.4-8.2,0.4-12-1.1s-7.1-4.6-8-8.5
			C500.4,124.2,501.5,120.7,502.8,117.5z"/>
		<path id="Path_3401" class="st16" d="M555.6,94c-0.1,1.7-0.5,3.3-1.1,4.8c-3.2,8-11.4,9.2-18.7,7.2c-3.2-0.9-6.5-2.2-8.6-4.8
			c-3.4-4.2-1.1-8.8,2.7-11.6C537.2,84.3,556,82.8,555.6,94z"/>
		<path id="Path_3402" class="st16" d="M522.4,114.9c-2.1-0.1-4.5-0.5-5.7-2.2c-0.9-1.6-1.1-3.5-0.4-5.2c0.8-2.8,2.9-5.5,5.7-5.7
			c2.3-0.2,4.3,1.2,6,2.7c1.9,1.7,3.6,4.1,2.9,6.5c-0.5,1.6-1.8,2.9-3.5,3.4C525.8,114.9,524.1,115.1,522.4,114.9z"/>
		<g id="Group_7218" class="st21">
			<path id="Path_3403" class="st22" d="M512.2,163.3c0.2,0.7,0.8,1.1,1.5,0.9c0.7-0.2,1.1-0.8,0.9-1.5c-0.2-0.7-0.8-1.1-1.5-0.9
				C512.5,161.9,512.1,162.6,512.2,163.3C512.2,163.3,512.2,163.3,512.2,163.3z"/>
			<path id="Path_3404" class="st22" d="M508.5,160.5c0.1,0.3,0.4,0.5,0.7,0.4c0,0,0,0,0,0c0.3-0.1,0.5-0.4,0.4-0.7
				c-0.1-0.3-0.4-0.5-0.7-0.4C508.6,159.9,508.4,160.2,508.5,160.5C508.5,160.5,508.5,160.5,508.5,160.5z"/>
			<path id="Path_3405" class="st22" d="M506.8,164.5c0-0.2-0.2-0.3-0.4-0.3s-0.3,0.2-0.3,0.4s0.2,0.3,0.4,0.3c0,0,0,0,0,0
				C506.7,164.9,506.8,164.7,506.8,164.5z"/>
			<path id="Path_3406" class="st22" d="M510.7,166.7c0,0.2,0.2,0.3,0.4,0.3s0.3-0.2,0.3-0.4s-0.2-0.3-0.4-0.3c0,0,0,0,0,0
				C510.7,166.3,510.6,166.5,510.7,166.7C510.7,166.7,510.7,166.7,510.7,166.7z"/>
			<path id="Path_3407" class="st22" d="M501.1,156.4c0.1,0.6,0.7,0.9,1.3,0.8c0.6-0.1,0.9-0.7,0.8-1.3c-0.1-0.6-0.7-0.9-1.3-0.8
				C501.3,155.2,501,155.8,501.1,156.4z"/>
			<path id="Path_3408" class="st22" d="M500.6,168.7c0.1,0.4,0.5,0.7,0.9,0.6c0.4-0.1,0.7-0.5,0.6-0.9s-0.5-0.7-0.9-0.6
				C500.8,167.9,500.5,168.3,500.6,168.7z"/>
			<path id="Path_3409" class="st22" d="M494.9,161.9c0.1,0.3,0.4,0.6,0.8,0.5c0.3-0.1,0.6-0.4,0.5-0.8c-0.1-0.3-0.4-0.6-0.8-0.5
				c0,0,0,0,0,0C495,161.2,494.8,161.5,494.9,161.9z"/>
			<path id="Path_3410" class="st22" d="M501.6,162.2c-0.3,0.1-0.5,0.4-0.4,0.6s0.4,0.5,0.6,0.4c0.3-0.1,0.5-0.4,0.4-0.6
				c0,0,0,0,0,0C502.2,162.3,501.9,162.1,501.6,162.2z"/>
		</g>
		<g id="Group_7219" class="st21">
			<path id="Path_3411" class="st22" d="M507,139.9c0.2,0.7,0.8,1.1,1.5,0.9s1.1-0.8,0.9-1.5c-0.2-0.7-0.8-1.1-1.5-0.9
				C507.2,138.5,506.8,139.2,507,139.9C507,139.9,507,139.9,507,139.9z"/>
			<path id="Path_3412" class="st22" d="M503.2,137.1c0.1,0.3,0.4,0.5,0.7,0.4c0.3-0.1,0.5-0.4,0.4-0.7c-0.1-0.3-0.4-0.5-0.7-0.4
				c0,0,0,0,0,0C503.3,136.5,503.1,136.8,503.2,137.1C503.2,137.1,503.2,137.1,503.2,137.1z"/>
			<path id="Path_3413" class="st22" d="M501.5,141.1c0-0.2-0.2-0.3-0.4-0.3c0,0,0,0,0,0c-0.2,0-0.3,0.2-0.3,0.4c0,0,0,0,0,0
				c0,0.2,0.2,0.3,0.4,0.3C501.5,141.5,501.6,141.3,501.5,141.1C501.5,141.1,501.5,141.1,501.5,141.1z"/>
			<path id="Path_3414" class="st22" d="M505.4,143.3c0,0.2,0.2,0.3,0.4,0.3s0.3-0.2,0.3-0.4s-0.2-0.3-0.4-0.3
				S505.4,143.1,505.4,143.3L505.4,143.3z"/>
			<path id="Path_3415" class="st22" d="M495.8,132.9c0.1,0.6,0.7,0.9,1.3,0.8c0.6-0.1,0.9-0.7,0.8-1.3c-0.1-0.6-0.7-0.9-1.3-0.8
				C496,131.8,495.7,132.4,495.8,132.9C495.8,132.9,495.8,132.9,495.8,132.9z"/>
			<path id="Path_3416" class="st22" d="M495.4,145.3c0.1,0.4,0.5,0.7,0.9,0.6c0.4-0.1,0.7-0.5,0.6-0.9c-0.1-0.4-0.5-0.7-0.9-0.6
				C495.5,144.5,495.3,144.9,495.4,145.3C495.4,145.3,495.4,145.3,495.4,145.3z"/>
			<path id="Path_3417" class="st22" d="M489.6,138.5c0.1,0.3,0.4,0.6,0.8,0.5c0.3-0.1,0.6-0.4,0.5-0.8s-0.4-0.6-0.8-0.5
				c0,0,0,0,0,0C489.8,137.8,489.6,138.1,489.6,138.5z"/>
			<path id="Path_3418" class="st22" d="M496.4,138.8c-0.3,0.1-0.5,0.4-0.4,0.6s0.4,0.5,0.6,0.4c0.3-0.1,0.5-0.4,0.4-0.6
				C496.9,138.9,496.7,138.7,496.4,138.8C496.4,138.8,496.4,138.8,496.4,138.8z"/>
		</g>
		<g id="Group_7220" class="st21">
			<path id="Path_3419" class="st22" d="M493.5,153.9c0.2,0.7,0.8,1.1,1.5,0.9c0.7-0.2,1.1-0.8,0.9-1.5c-0.2-0.7-0.8-1.1-1.5-0.9
				c0,0,0,0,0,0C493.7,152.5,493.3,153.2,493.5,153.9z"/>
			<path id="Path_3420" class="st22" d="M489.7,151.1c0.1,0.3,0.4,0.5,0.7,0.4c0.3-0.1,0.5-0.4,0.4-0.7c-0.1-0.3-0.4-0.5-0.7-0.4
				c0,0,0,0,0,0C489.8,150.5,489.6,150.8,489.7,151.1z"/>
			<path id="Path_3421" class="st22" d="M488,155.1c0-0.2-0.2-0.3-0.4-0.3c-0.2,0-0.3,0.2-0.3,0.4c0,0.2,0.2,0.3,0.4,0.3
				C488,155.5,488.1,155.3,488,155.1z"/>
			<path id="Path_3422" class="st22" d="M491.9,157.3c0,0.2,0.2,0.3,0.4,0.3c0.2,0,0.3-0.2,0.3-0.4c0-0.2-0.2-0.3-0.4-0.3
				C492,156.9,491.9,157.1,491.9,157.3C491.9,157.3,491.9,157.3,491.9,157.3z"/>
			<path id="Path_3423" class="st22" d="M482.3,146.9c0.1,0.6,0.7,0.9,1.3,0.8s0.9-0.7,0.8-1.3s-0.7-0.9-1.3-0.8c0,0,0,0,0,0
				C482.5,145.8,482.2,146.4,482.3,146.9z"/>
			<path id="Path_3424" class="st22" d="M481.9,159.3c0.1,0.4,0.5,0.7,0.9,0.6c0.4-0.1,0.7-0.5,0.6-0.9c-0.1-0.4-0.5-0.7-0.9-0.6
				c0,0,0,0,0,0C482,158.5,481.8,158.9,481.9,159.3C481.9,159.3,481.9,159.3,481.9,159.3z"/>
			<path id="Path_3425" class="st22" d="M476.1,152.5c0.1,0.3,0.4,0.6,0.8,0.5c0.3-0.1,0.6-0.4,0.5-0.8c-0.1-0.3-0.4-0.6-0.8-0.5
				C476.3,151.8,476,152.1,476.1,152.5z"/>
			<path id="Path_3426" class="st22" d="M482.9,152.8c-0.3,0.1-0.4,0.4-0.4,0.6c0.1,0.3,0.4,0.4,0.6,0.4c0.3-0.1,0.4-0.3,0.4-0.6
				C483.4,152.9,483.1,152.7,482.9,152.8C482.9,152.8,482.9,152.8,482.9,152.8z"/>
		</g>
		<g id="Group_7221" class="st21">
			<path id="Path_3427" class="st22" d="M541.7,166.5c0.2,0.7,0.8,1.1,1.5,0.9c0.7-0.2,1.1-0.8,0.9-1.5c-0.2-0.7-0.8-1.1-1.5-0.9
				C541.9,165.2,541.5,165.8,541.7,166.5C541.7,166.5,541.7,166.5,541.7,166.5z"/>
			<path id="Path_3428" class="st22" d="M537.9,163.7c0.1,0.3,0.4,0.5,0.7,0.4s0.5-0.4,0.4-0.7c-0.1-0.3-0.4-0.5-0.7-0.4
				c0,0,0,0,0,0C538,163.1,537.8,163.4,537.9,163.7z"/>
			<path id="Path_3429" class="st22" d="M536.2,167.7c0-0.2-0.2-0.3-0.4-0.3s-0.3,0.2-0.3,0.4c0,0.2,0.2,0.3,0.4,0.3
				C536.2,168.1,536.3,167.9,536.2,167.7z"/>
			<path id="Path_3430" class="st22" d="M540.1,169.9c0,0.2,0.2,0.3,0.4,0.3c0.2,0,0.3-0.2,0.3-0.4c0-0.2-0.2-0.3-0.4-0.3
				c0,0,0,0,0,0C540.2,169.5,540.1,169.7,540.1,169.9z"/>
			<path id="Path_3431" class="st22" d="M530.5,159.6c0.1,0.6,0.7,0.9,1.3,0.8s0.9-0.7,0.8-1.3c-0.1-0.6-0.7-0.9-1.3-0.8
				c0,0,0,0,0,0C530.7,158.4,530.4,159,530.5,159.6C530.5,159.6,530.5,159.6,530.5,159.6z"/>
			<path id="Path_3432" class="st22" d="M530.1,171.9c0.1,0.4,0.5,0.7,0.9,0.6c0.4-0.1,0.7-0.5,0.6-0.9c-0.1-0.4-0.5-0.7-0.9-0.6
				C530.2,171.1,530,171.5,530.1,171.9C530.1,171.9,530.1,171.9,530.1,171.9z"/>
			<path id="Path_3433" class="st22" d="M524.3,165.1c0.1,0.3,0.4,0.6,0.8,0.5c0.3-0.1,0.6-0.4,0.5-0.8c-0.1-0.3-0.4-0.6-0.8-0.5
				c0,0,0,0,0,0C524.5,164.4,524.3,164.7,524.3,165.1z"/>
			<path id="Path_3434" class="st22" d="M531.1,165.4c-0.3,0.1-0.5,0.4-0.4,0.6c0.1,0.3,0.4,0.5,0.6,0.4c0.3-0.1,0.4-0.4,0.4-0.6
				C531.6,165.5,531.3,165.4,531.1,165.4C531.1,165.4,531.1,165.4,531.1,165.4z"/>
		</g>
		<g id="Group_7222" class="st21">
			<path id="Path_3435" class="st22" d="M564.1,169.6c0.2,0.7,0.8,1.1,1.5,0.9c0.7-0.2,1.1-0.8,0.9-1.5c-0.2-0.7-0.8-1.1-1.5-0.9
				C564.3,168.3,563.9,168.9,564.1,169.6C564.1,169.6,564.1,169.6,564.1,169.6z"/>
			<path id="Path_3436" class="st22" d="M560.3,166.9c0.1,0.3,0.4,0.5,0.7,0.4c0.3-0.1,0.5-0.4,0.4-0.7c-0.1-0.3-0.4-0.5-0.7-0.4
				c0,0,0,0,0,0C560.4,166.2,560.2,166.6,560.3,166.9z"/>
			<path id="Path_3437" class="st22" d="M558.7,170.9c-0.1-0.2-0.3-0.3-0.4-0.2c-0.2,0.1-0.3,0.2-0.2,0.4c0,0.2,0.2,0.3,0.4,0.3
				C558.6,171.3,558.7,171.1,558.7,170.9C558.7,170.9,558.7,170.9,558.7,170.9z"/>
			<path id="Path_3438" class="st22" d="M562.5,173c0,0.2,0.2,0.3,0.4,0.3c0,0,0,0,0,0c0.2,0,0.3-0.2,0.3-0.4c0-0.2-0.2-0.3-0.4-0.3
				C562.6,172.6,562.5,172.8,562.5,173C562.5,173,562.5,173,562.5,173z"/>
			<path id="Path_3439" class="st22" d="M553,162.7c0.1,0.6,0.7,0.9,1.3,0.8s0.9-0.7,0.8-1.3s-0.7-0.9-1.3-0.8c0,0,0,0,0,0
				C553.2,161.6,552.8,162.1,553,162.7C553,162.7,553,162.7,553,162.7z"/>
			<path id="Path_3440" class="st22" d="M552.5,175.1c0.1,0.4,0.5,0.7,0.9,0.6c0.4-0.1,0.7-0.5,0.6-0.9c-0.1-0.4-0.5-0.7-0.9-0.6
				C552.7,174.2,552.4,174.7,552.5,175.1z"/>
			<path id="Path_3441" class="st22" d="M546.8,168.2c0.1,0.3,0.4,0.6,0.8,0.5s0.6-0.4,0.5-0.8c-0.1-0.3-0.4-0.6-0.8-0.5
				c0,0,0,0,0,0C546.9,167.5,546.7,167.9,546.8,168.2C546.8,168.2,546.8,168.2,546.8,168.2z"/>
			<path id="Path_3442" class="st22" d="M553.5,168.5c-0.3,0.1-0.5,0.4-0.4,0.6c0.1,0.3,0.4,0.5,0.6,0.4c0.3-0.1,0.5-0.4,0.4-0.6
				C554,168.6,553.8,168.5,553.5,168.5z"/>
		</g>
		<g id="Group_7223" class="st21">
			<path id="Path_3443" class="st22" d="M593.5,156.1c0.2,0.7,0.8,1.1,1.5,0.9c0.7-0.2,1.1-0.8,0.9-1.5c-0.2-0.7-0.8-1.1-1.5-0.9
				C593.8,154.7,593.4,155.4,593.5,156.1C593.5,156.1,593.5,156.1,593.5,156.1z"/>
			<path id="Path_3444" class="st22" d="M589.7,153.3c0.1,0.3,0.4,0.5,0.7,0.4c0.3-0.1,0.5-0.4,0.4-0.7c-0.1-0.3-0.4-0.5-0.7-0.4
				c0,0,0,0,0,0C589.9,152.7,589.7,153,589.7,153.3z"/>
			<path id="Path_3445" class="st22" d="M588.1,157.3c0-0.2-0.2-0.3-0.4-0.3c-0.2,0-0.3,0.2-0.3,0.4c0,0.2,0.2,0.3,0.4,0.3
				C588,157.7,588.1,157.5,588.1,157.3C588.1,157.3,588.1,157.3,588.1,157.3z"/>
			<path id="Path_3446" class="st22" d="M592,159.5c0,0.2,0.2,0.3,0.4,0.3c0,0,0,0,0,0c0.2,0,0.3-0.2,0.3-0.4c0,0,0,0,0,0
				c0-0.2-0.2-0.3-0.4-0.3c0,0,0,0,0,0C592,159.1,591.9,159.3,592,159.5z"/>
			<path id="Path_3447" class="st22" d="M582.4,149.1c0.1,0.6,0.7,0.9,1.3,0.8c0.6-0.1,0.9-0.7,0.8-1.3c-0.1-0.6-0.7-0.9-1.3-0.8
				c0,0,0,0,0,0C582.6,148,582.2,148.6,582.4,149.1z"/>
			<path id="Path_3448" class="st22" d="M581.9,161.5c0.1,0.4,0.5,0.7,0.9,0.6c0.4-0.1,0.7-0.5,0.6-0.9c-0.1-0.4-0.5-0.7-0.9-0.6
				c0,0,0,0,0,0C582.1,160.7,581.8,161.1,581.9,161.5z"/>
			<path id="Path_3449" class="st22" d="M576.2,154.7c0.1,0.3,0.4,0.6,0.8,0.5c0.3-0.1,0.6-0.4,0.5-0.8c-0.1-0.3-0.4-0.5-0.8-0.5
				C576.3,154,576.1,154.3,576.2,154.7C576.2,154.7,576.2,154.7,576.2,154.7z"/>
			<path id="Path_3450" class="st22" d="M582.9,155c-0.3,0.1-0.5,0.4-0.4,0.6c0.1,0.3,0.4,0.5,0.6,0.4s0.5-0.4,0.4-0.6c0,0,0,0,0,0
				C583.5,155.1,583.2,154.9,582.9,155z"/>
		</g>
		<g id="Group_7224" class="st21">
			<path id="Path_3451" class="st22" d="M585.7,167.3c0.2,0.7,0.8,1.1,1.5,0.9s1.1-0.8,0.9-1.5c-0.2-0.7-0.8-1.1-1.5-0.9
				c0,0,0,0,0,0C585.9,166,585.5,166.7,585.7,167.3C585.7,167.3,585.7,167.3,585.7,167.3z"/>
			<path id="Path_3452" class="st22" d="M581.9,164.6c0.1,0.3,0.4,0.5,0.7,0.4c0.3-0.1,0.5-0.4,0.4-0.7c-0.1-0.3-0.4-0.5-0.7-0.4
				C582,163.9,581.8,164.3,581.9,164.6C581.9,164.6,581.9,164.6,581.9,164.6z"/>
			<path id="Path_3453" class="st22" d="M580.3,168.6c0-0.2-0.2-0.3-0.4-0.3c-0.2,0-0.3,0.2-0.3,0.4s0.2,0.3,0.4,0.3c0,0,0,0,0,0
				C580.2,168.9,580.3,168.8,580.3,168.6z"/>
			<path id="Path_3454" class="st22" d="M584.1,170.7c0,0.2,0.2,0.3,0.4,0.3c0.2,0,0.3-0.2,0.3-0.4c0-0.2-0.2-0.3-0.4-0.3
				C584.2,170.4,584.1,170.5,584.1,170.7z"/>
			<path id="Path_3455" class="st22" d="M574.6,160.4c0.1,0.6,0.7,0.9,1.3,0.8s0.9-0.7,0.8-1.3c-0.1-0.6-0.7-0.9-1.3-0.8
				c0,0,0,0,0,0C574.8,159.3,574.4,159.8,574.6,160.4C574.6,160.4,574.6,160.4,574.6,160.4z"/>
			<path id="Path_3456" class="st22" d="M574.1,172.8c0.1,0.4,0.5,0.7,0.9,0.6c0.4-0.1,0.7-0.5,0.6-0.9c0,0,0,0,0-0.1
				c-0.1-0.4-0.5-0.7-0.9-0.6C574.3,171.9,574,172.3,574.1,172.8C574.1,172.7,574.1,172.8,574.1,172.8z"/>
			<path id="Path_3457" class="st22" d="M568.4,165.9c0.1,0.3,0.4,0.6,0.8,0.5c0.3-0.1,0.6-0.4,0.5-0.8c-0.1-0.3-0.4-0.6-0.8-0.5
				C568.5,165.2,568.3,165.6,568.4,165.9C568.4,165.9,568.4,165.9,568.4,165.9z"/>
			<path id="Path_3458" class="st22" d="M575.1,166.2c-0.3,0.1-0.5,0.4-0.4,0.6c0.1,0.3,0.4,0.5,0.6,0.4s0.5-0.4,0.4-0.6
				c0,0,0,0,0,0C575.7,166.3,575.4,166.2,575.1,166.2z"/>
		</g>
		<g id="Group_7225" class="st21">
			<path id="Path_3459" class="st22" d="M539.4,141.6c0.2,0.7,0.8,1.1,1.5,0.9c0.7-0.2,1.1-0.8,0.9-1.5c-0.2-0.7-0.8-1.1-1.5-0.9
				C539.7,140.3,539.3,141,539.4,141.6C539.4,141.6,539.4,141.6,539.4,141.6z"/>
			<path id="Path_3460" class="st22" d="M535.6,138.9c0.1,0.3,0.4,0.5,0.7,0.4c0.3-0.1,0.5-0.4,0.4-0.7c-0.1-0.3-0.4-0.5-0.7-0.4
				c0,0,0,0,0,0C535.7,138.3,535.6,138.6,535.6,138.9z"/>
			<path id="Path_3461" class="st22" d="M534,142.9c0-0.2-0.2-0.3-0.4-0.3c-0.2,0-0.3,0.2-0.3,0.4c0,0,0,0,0,0
				c0.1,0.2,0.3,0.3,0.4,0.2C533.9,143.2,534,143.1,534,142.9z"/>
			<path id="Path_3462" class="st22" d="M537.9,145.1c0,0.2,0.2,0.3,0.4,0.3c0.2,0,0.3-0.2,0.3-0.4l0,0c0-0.2-0.2-0.3-0.4-0.3
				C537.9,144.7,537.8,144.9,537.9,145.1z"/>
			<path id="Path_3463" class="st22" d="M528.3,134.7c0.1,0.6,0.7,0.9,1.3,0.8c0.6-0.1,0.9-0.7,0.8-1.3c-0.1-0.6-0.7-0.9-1.3-0.8
				c0,0,0,0,0,0C528.5,133.6,528.1,134.1,528.3,134.7C528.3,134.7,528.3,134.7,528.3,134.7z"/>
			<path id="Path_3464" class="st22" d="M527.8,147.1c0.1,0.4,0.5,0.7,0.9,0.6c0.4-0.1,0.7-0.5,0.6-0.9c-0.1-0.4-0.5-0.7-0.9-0.6
				C528,146.3,527.7,146.7,527.8,147.1C527.8,147.1,527.8,147.1,527.8,147.1z"/>
			<path id="Path_3465" class="st22" d="M522.1,140.2c0.1,0.3,0.4,0.6,0.8,0.5c0.3-0.1,0.6-0.4,0.5-0.8c-0.1-0.3-0.4-0.6-0.8-0.5
				c0,0,0,0,0,0C522.2,139.5,522,139.9,522.1,140.2z"/>
			<path id="Path_3466" class="st22" d="M528.8,140.6c-0.3,0.1-0.5,0.3-0.4,0.6c0.1,0.3,0.3,0.5,0.6,0.4c0.3-0.1,0.5-0.3,0.4-0.6
				c0,0,0,0,0,0C529.4,140.7,529.1,140.5,528.8,140.6z"/>
		</g>
		<g id="Group_7226" class="st21">
			<path id="Path_3467" class="st22" d="M579.5,101.4c0.2,0.7,0.8,1.1,1.5,0.9c0.7-0.2,1.1-0.8,0.9-1.5c-0.2-0.7-0.8-1-1.5-0.9
				C579.8,100.1,579.4,100.7,579.5,101.4C579.5,101.4,579.5,101.4,579.5,101.4z"/>
			<path id="Path_3468" class="st22" d="M575.8,98.7c0.1,0.3,0.4,0.5,0.7,0.4c0.3-0.1,0.5-0.4,0.4-0.7c-0.1-0.3-0.4-0.5-0.7-0.4
				c0,0,0,0,0,0C575.9,98,575.7,98.3,575.8,98.7C575.8,98.7,575.8,98.7,575.8,98.7z"/>
			<path id="Path_3469" class="st22" d="M574.1,102.7c0-0.2-0.2-0.3-0.4-0.3s-0.3,0.2-0.3,0.4c0,0,0,0,0,0c0.1,0.2,0.2,0.3,0.4,0.2
				C574,103,574.1,102.8,574.1,102.7z"/>
			<path id="Path_3470" class="st22" d="M578,104.8c0,0.2,0.2,0.3,0.4,0.3c0.2,0,0.3-0.2,0.3-0.4c0-0.2-0.2-0.3-0.4-0.3c0,0,0,0,0,0
				C578,104.4,577.9,104.6,578,104.8C578,104.8,578,104.8,578,104.8z"/>
			<path id="Path_3471" class="st22" d="M568.4,94.5c0.1,0.6,0.7,0.9,1.3,0.8c0.6-0.1,0.9-0.7,0.8-1.3c-0.1-0.6-0.7-0.9-1.3-0.8
				c0,0,0,0,0,0C568.6,93.4,568.3,93.9,568.4,94.5z"/>
			<path id="Path_3472" class="st22" d="M567.9,106.9c0.1,0.4,0.5,0.7,0.9,0.6c0.4-0.1,0.7-0.5,0.6-0.9s-0.5-0.7-0.9-0.6
				c0,0,0,0,0,0C568.1,106,567.8,106.4,567.9,106.9C567.9,106.9,567.9,106.9,567.9,106.9z"/>
			<path id="Path_3473" class="st22" d="M562.2,100c0.1,0.3,0.4,0.6,0.8,0.5c0.3-0.1,0.6-0.4,0.5-0.8c0,0,0,0,0-0.1
				c-0.1-0.3-0.5-0.5-0.8-0.4C562.3,99.4,562.1,99.7,562.2,100z"/>
			<path id="Path_3474" class="st22" d="M568.9,100.3c-0.3,0.1-0.5,0.3-0.4,0.6c0.1,0.3,0.3,0.5,0.6,0.4c0,0,0,0,0,0
				c0.3-0.1,0.5-0.3,0.4-0.6C569.5,100.5,569.2,100.3,568.9,100.3C568.9,100.3,568.9,100.3,568.9,100.3z"/>
		</g>
		<g id="Group_7227" class="st21">
			<path id="Path_3475" class="st22" d="M527.3,154.4c0.2,0.7,0.8,1.1,1.5,0.9c0.7-0.2,1.1-0.8,0.9-1.5c-0.2-0.7-0.8-1.1-1.5-0.9
				c0,0,0,0,0,0C527.5,153.1,527.1,153.7,527.3,154.4z"/>
			<path id="Path_3476" class="st22" d="M523.5,151.7c0.1,0.3,0.4,0.5,0.7,0.4s0.5-0.4,0.4-0.7c-0.1-0.3-0.4-0.5-0.7-0.4
				c0,0,0,0,0,0C523.6,151,523.4,151.4,523.5,151.7z"/>
			<path id="Path_3477" class="st22" d="M521.8,155.7c0-0.2-0.2-0.3-0.4-0.3c-0.2,0-0.3,0.2-0.3,0.4c0,0.2,0.2,0.3,0.4,0.3
				C521.8,156,521.9,155.9,521.8,155.7z"/>
			<path id="Path_3478" class="st22" d="M525.7,157.8c0,0.2,0.2,0.3,0.4,0.3c0.2,0,0.3-0.2,0.3-0.4c0-0.2-0.2-0.3-0.4-0.3
				C525.8,157.5,525.7,157.6,525.7,157.8z"/>
			<path id="Path_3479" class="st22" d="M516.1,147.5c0.1,0.6,0.7,0.9,1.3,0.8c0.6-0.1,0.9-0.7,0.8-1.3c-0.1-0.6-0.7-0.9-1.3-0.8
				c0,0,0,0,0,0C516.3,146.4,516,146.9,516.1,147.5z"/>
			<path id="Path_3480" class="st22" d="M515.7,159.9c0.1,0.4,0.5,0.6,0.9,0.5c0.4-0.1,0.6-0.5,0.5-0.9c-0.1-0.4-0.5-0.7-0.9-0.6
				C515.8,159,515.6,159.4,515.7,159.9C515.7,159.8,515.7,159.8,515.7,159.9z"/>
			<path id="Path_3481" class="st22" d="M509.9,153c0.1,0.3,0.4,0.6,0.8,0.5c0.3-0.1,0.6-0.4,0.5-0.8c-0.1-0.3-0.4-0.6-0.8-0.5
				c0,0,0,0,0,0C510.1,152.3,509.8,152.7,509.9,153z"/>
			<path id="Path_3482" class="st22" d="M516.7,153.3c-0.3,0.1-0.5,0.4-0.4,0.6c0.1,0.3,0.4,0.5,0.6,0.4c0.3-0.1,0.5-0.3,0.4-0.6
				C517.2,153.4,516.9,153.3,516.7,153.3C516.7,153.3,516.7,153.3,516.7,153.3z"/>
		</g>
	</g>
	<g id="Group_7230">
		<path id="Path_3483" class="st17" d="M609.3,94.9c-1-1.4-0.3-3.4-1.2-4.8c-0.4-0.6-1.1-1-1.8-1.2c-2.7-0.6-5.3,1.1-5.9,3.8
			c-0.1,0.3-0.1,0.5-0.1,0.8c0,0.6,0.2,1.3,0.6,1.8c0.7,0.7,1.9,0.9,2.4,1.7c0.7,1.1-0.4,2.5-1.3,3.4c-1.6,1.5-3.2,3.1-4.9,4.6
			c0.9,1.4,2,2.7,3.1,3.8c1.8-2.3,3.6-4.6,5.4-6.8c0.7-0.8,1.5-1.8,2.6-1.6c1,0.1,1.6,1.1,2.3,1.8c1.8,1.5,4.5,1.2,5.9-0.6
			c0.1-0.2,0.3-0.3,0.4-0.5c0.7-1.3,0.5-2.9-0.6-4C614.3,95.5,610.8,96.9,609.3,94.9z"/>
		<path id="Path_3484" class="st18" d="M600.6,101.6c-1,0.9-1.9,1.8-2.9,2.7c0.9,1.4,2,2.7,3.1,3.8c1-1.3,2-2.6,3.1-3.9
			C602.6,103.6,601.5,102.7,600.6,101.6z"/>
		<g id="Group_7229">
			<path id="Path_3485" class="st13" d="M599.9,125c1.6-3.4,4.5-6.3,4.8-10.1c0.3-3.5-1.9-6.8-3.9-9.7c-1.3-1.9-2.7-3.8-4.8-4.7
				c-2.5-1.1-5.4-0.4-7.8,0.7s-4.6,2.8-7.1,4c-7.1,3.3-15.3,2.6-22.3,6.2c-23.9,12.4-18.7,51.6,9.2,53.9c15.2,1.3,28.5-10,29.8-25.1
				c0.2-1.9,0.1-3.8-0.1-5.8C597.9,131.3,598.6,128.1,599.9,125z"/>
		</g>
		<path id="Path_3486" class="st14" d="M599.9,118.9c-2.1,3.3-4.8,6.3-6.9,9.6c-2.9,4.6-4.7,9.8-8,14.1c-4.3,5.6-10.8,9.2-17.9,9.9
			c-2.3,0.3-4.7,0.1-6.9-0.5c-6.6-1.9-11.3-8.5-11.8-15.4s2.5-13.7,7.3-18.7c4.2-4.3,9.3-7.6,14.9-9.7c-4,0.7-8,1.4-11.7,3.4
			c-23.9,12.4-18.7,51.6,9.2,53.9c15.2,1.3,28.5-10,29.8-25.1c0.2-1.9,0.1-3.8-0.1-5.8c0.1-3.3,0.8-6.5,2.1-9.5
			c1.6-3.4,4.5-6.3,4.8-10.1c0.1-2.1-0.5-4.2-1.6-6C603,112.5,601.9,115.9,599.9,118.9z"/>
		<path id="Path_3487" class="st15" d="M593.4,106.8c-1.6-1.9-4.3-2.6-6.7-1.6c-4.4,1.9-8.3,4.9-12.7,7c-3.9,1.9-8,3.6-11.6,6.2
			c-3.7,2.7-7,6.3-7.8,10.9c-0.7,4.2,0.7,8.5,3.7,11.5c3.1,2.9,7.5,4.1,11.6,3c7.6-2.1,9.1-10,12-16.2c2.7-5.9,8.1-8.7,11.7-13.9
			C595.1,111.6,595,108.8,593.4,106.8z"/>
		<path id="Path_3488" class="st16" d="M569.5,115.9c1.7,0.9,2.6,2.9,2,4.8c-0.6,1.8-1.8,3.3-3.5,4.3c-1,0.7-2.1,1.2-3.3,1.4
			c-1.2,0.2-2.4-0.2-3.3-1c-1.5-1.5-1-4.2,0.3-5.9c1.1-1.5,2.6-2.7,4.3-3.3C567.2,115.6,568.4,115.6,569.5,115.9z"/>
	</g>
	<g id="Group_7231">
		<path id="Path_3489" class="st13" d="M511.6,165.9c-1.4-1.4-2.5-3.1-3.3-5c-3.2-6.9-5.5-14.3-6.6-21.9c-0.6-3.6-0.8-7.5,1-10.7
			c2.2-3.9,6.8-5.5,11-6.8c6.5-2,13.7-4.2,17.3-10c2.6-4.1,3.5-10.1,8.2-11.6c3.7,8.6-0.9,18.7-7.7,25.2c-1.7,1.6-3.5,3.2-4.3,5.3
			c-1.4,3.9,1.3,8,4,11.1s6,6.3,6.1,10.5c0.1,4.2-3.2,7.7-6.5,10.4c-2.8,2.3-5.7,4.4-9.2,5.4S514.2,168.3,511.6,165.9z"/>
		<path id="Path_3490" class="st14" d="M522.8,152.8c-5.4-0.4-10.4-3.5-14.2-7.3c-3.5-3.6-6.3-8.1-6.9-13c0-0.3,0-0.6-0.1-1
			c-0.4,2.5-0.4,5.1,0.1,7.7c1.2,7.6,3.4,14.9,6.6,21.9c0.7,1.9,1.9,3.5,3.3,5c2.6,2.4,6.7,2.8,10.1,1.8s6.4-3.1,9.2-5.4
			c3.3-2.7,6.6-6.2,6.5-10.4c-0.1-1.8-0.7-3.6-1.7-5.1C533,151,527.7,153.2,522.8,152.8z"/>
		<path id="Path_3491" class="st15" d="M525.7,141.3c0.1,0.5,0.1,0.9,0,1.4c-0.4,0.9-1.2,1.5-2.2,1.7c-2.7,0.6-5.5,0-7.7-1.7
			c-2.2-1.6-4-3.6-5.6-5.8c-1.1-1.2-1.8-2.7-2.1-4.3c-0.4-2.9,1.9-5.7,4.5-7c2.6-1.4,5.7-1.8,8.4-2.9c1.7-0.7,3.4-1.6,5-2.5l4.2-2.4
			c0.4,2.3-1.4,4.2-2.9,6c-1.9,2.2-3.5,4.7-3.8,7.6C523.3,134.7,525.1,137.9,525.7,141.3z"/>
		<path id="Path_3492" class="st16" d="M517.1,128.8c-1.2,0.6-2.6,1-4,1.2c-0.3,0.1-0.7,0-1-0.1c-0.5-0.3-0.6-0.9-0.4-1.4
			c0.2-0.5,0.6-0.9,1-1.2c1.1-0.9,2.4-1.6,3.8-1.8c0.8-0.2,1.7,0.2,2.2,0.9c0.2,0.5,0,1.1-0.3,1.5
			C518.1,128.3,517.6,128.6,517.1,128.8z"/>
	</g>
</g>
<g id="Group_7237" transform="translate(-409.389 -24.696)">
	<path id="Path_3493" class="st23" d="M577.3,166.6c-3.1-1.4-6-3.4-8.4-5.8c-2.3-2.4-3.6-5.7-3.4-9c-8.1,2.1-16.5,3.6-24.6,5.8
		s-16.1,5.2-22.8,9.9c-1.9,1.3-3.6,2.8-5.5,4.1c-5,3.7-10.5,6.6-16.4,8.7c8.7,0.4,16.9-2.7,25.6-3.2c1.7,0,3.4-0.2,5-0.5
		c1.5-0.3,2.8-1,4.3-1.4c2.4-0.7,4.9-1.1,7.4-1.2c10.7-0.8,21.5-0.5,32.2-1.5c0.5,0,1-0.1,1.4-0.3c0.4-0.2,0.7-0.4,1-0.8
		c1.5-1.3,2.9-2.7,4.4-4c0.3-0.2,0.5-0.7,0.2-0.9c0.6,0.1,1.1,0.1,1.7,0.2"/>
	<path id="Path_3494" class="st24" d="M568.8,164.7c-2.2-1.6-3.6-4.1-4.1-6.8c-0.3-2-0.2-4.1,0.4-6c0,0-0.1,0-0.1,0
		c-1.5,4.5-1.3,9.4,0.7,13.7c-3-3.6-4.3-8.1-5.4-12.6l-0.1,0c0.7,3.7,1.3,7.4,2,11.1l-6.3-10.1c-0.1,0-0.2,0.1-0.4,0.1
		c1.5,3.5,2.7,7.1,3.6,10.9c-1.4-3.9-4.7-6.9-7.7-9.9c-0.4,0.1-0.8,0.2-1.2,0.3c1.3,3,2.3,6.1,3,9.2c-2.4-3-5-6.1-8.3-7.9
		c-0.3,0.1-0.7,0.2-1,0.3c2.1,2.4,4.1,5,4.5,8c-3.3-2.4-6.8-4.5-10.3-6.4c-0.6,0.2-1.1,0.4-1.7,0.5c1.9,2,3.6,4,5.2,6.2
		c-2.9-1.9-6.1-3.6-9.3-4.8c-0.5,0.2-0.9,0.4-1.4,0.5c1.5,1.3,3,2.6,4.4,4.1c-2.9-0.9-5.9-1.7-8.9-2.2c-0.7,0.3-1.3,0.7-2,1
		c2.4,0.9,4.7,2,6.9,3.3c-3.8-1-7.8-0.6-11.8-0.5c-0.5,0.3-0.9,0.6-1.4,0.9c-0.1,0.1-0.3,0.2-0.4,0.3c2.7,0.9,5.5,1.5,8.3,1.7
		c-4,0.6-7.9,0.9-12,1c-0.5,0.3-0.9,0.7-1.3,1c2.4,0.5,4.8,0.9,7.2,1.1c2.4,0.3,4.8,0.3,7.2-0.1c2-0.5,3.9-1.1,5.9-1.9
		c6.6-2.1,13.7-1.7,20.6-2.2c5.9-0.5,11.9-1.6,17.8-0.5C571.6,166.6,570,165.5,568.8,164.7z"/>
	<path id="Path_3495" class="st25" d="M606.4,186c0,0,5.3-1.7,5.3-3s-11-8.3-20.8-11.5s-19-10.2-42.5-10.2s-40.5,19.8-62.7,19.8
		s-14.9-23.2-39.1-21.5c-0.5,0-0.9,0.1-1.4,0.2c0,0,4.1,2.3,4.3,3.6s4.6,20,18.1,21.1c0,0-14.6,1.5-24.7,27c0,0,15.6-0.6,22.2-6.8
		s5.5-17,19.9-17s27.7,18.6,62.9,18.3c45.3-0.4,62.4-17.2,62.4-17.2S608,186,606.4,186z"/>
	<path id="Path_3496" class="st26" d="M570.1,175.9c-7.4-4.7-19.4-3.6-27.9-3.2c-11.5,0.6-24,2.9-34.2,8.1c-1.5,0.7-3,1.7-3.4,3.2
		c-0.2,1.2,0.2,2.4,1.1,3.2c0.9,0.8,2,1.5,3.1,2c9.5,4.6,19.7,7.4,30.2,8.2c10.9,0.9,24.1-0.2,31.5-8.6c1.6-1.6,2.6-3.7,3-5.9
		C574.1,180.1,572.7,177.3,570.1,175.9z"/>
	<path id="Path_3497" class="st27" d="M563,179.5c0.2,0.9,0,1.8-0.5,2.6c-1,1.1-2.4,1.8-3.9,2c-3.3,0.7-8.2,1.1-11.3-0.5
		c-0.5-0.2-0.9-0.7-1-1.3c0-0.4,0.1-0.7,0.3-1c1.3-2.3,3.3-4,5.8-4.8c3.2-1.1,9.1-0.9,10.5,2.8C563,179.3,563,179.4,563,179.5z"/>
	<path id="Path_3498" class="st27" d="M545.5,177.8c0.2,0.2,0.4,0.4,0.5,0.6c0.1,0.4,0,0.8-0.2,1.1c-0.7,1.3-2,2.1-3.4,2.4
		c-0.6,0.1-1.2,0.1-1.8-0.1c-0.6-0.2-1-0.6-1.2-1.2c-0.1-0.5,0.1-1,0.4-1.5c0.6-0.9,1.5-1.6,2.5-2
		C543.5,176.9,544.6,177.1,545.5,177.8z"/>
	<path id="Path_3499" class="st28" d="M576.8,183.1c1.8-1.4,3.9-2.6,6-3.4c-2,1.7-3.5,4-4.2,6.6c-0.7,2.6-0.2,5.3,1.4,7.4
		c1.3,1.5,2.9,2.8,4.7,3.8c1.1,0.7,2.3,1.4,3.4,2.2c-0.1,0.6-1,0.8-1.6,0.8c-0.7,0-1.5,0-2.2,0c-2.4,0.1-4.8-0.1-7.1-0.6
		c-2.3-0.5-4.3-2-5.4-4c-1.3-2.8,0.1-6.1,1.8-8.7C574.3,185.7,575.4,184.3,576.8,183.1z"/>
	<path id="Path_3500" class="st29" d="M610.3,188.8c0,0-2.3-2.8-3.9-2.8c0,0,5.3-1.7,5.3-3s-11-8.3-20.8-11.5
		c-0.2-0.1-0.3-0.1-0.5-0.2c-1.9,1.1-3.3,3-4.7,4.6c-2.6,2.9-6.1,5.2-8.6,8.2s-4.3,7.1-2.7,10.6c1.2,2.2,3.2,3.9,5.6,4.7
		c2.5,0.8,5,1.1,7.6,1C603.6,195.4,610.3,188.8,610.3,188.8z"/>
	<g id="Group_7233">
		<path id="Path_3501" class="st30" d="M592.7,180.2c0.1-1.8-1.2-3.4-3.1-3.6c-1.8-0.1-3.4,1.2-3.6,3.1c-0.1,1.8,1.2,3.4,3.1,3.6
			c0.1,0,0.2,0,0.2,0C591.2,183.3,592.7,181.9,592.7,180.2z"/>
		<path id="Path_3502" class="st31" d="M591.6,180c0.1-1.4-1-2.7-2.4-2.8c-1.4-0.1-2.7,1-2.8,2.4c-0.1,1.4,1,2.7,2.4,2.8
			c0.1,0,0.1,0,0.2,0C590.4,182.5,591.6,181.4,591.6,180z"/>
		<path id="Path_3503" class="st32" d="M592.2,179.1c0.1-0.8-0.5-1.4-1.3-1.5c-0.8-0.1-1.4,0.5-1.5,1.3s0.5,1.4,1.3,1.5
			c0,0,0.1,0,0.1,0C591.5,180.4,592.1,179.8,592.2,179.1z"/>
		<path id="Path_3504" class="st32" d="M590.3,181c0-0.3-0.2-0.7-0.6-0.7c-0.3,0-0.7,0.2-0.7,0.6c0,0.3,0.2,0.7,0.6,0.7c0,0,0,0,0,0
			C590,181.6,590.3,181.3,590.3,181z"/>
	</g>
	<path id="Path_3505" class="st33" d="M577.6,195.8c-1.1-1.6-1.6-3.6-1.4-5.6c0.3-2,0.8-3.9,1.6-5.7c-1.3,1.7-2.2,3.7-2.8,5.8
		c-0.5,2.1-0.1,4.3,1.1,6.1c1.2,1.4,2.9,2.4,4.8,2.8c1.9,0.4,3.8,0.5,5.7,0.5C583.2,199.2,579.5,198.4,577.6,195.8z"/>
	<g id="Group_7234" class="st34">
		<path id="Path_3506" class="st25" d="M548.3,161.3c-18.9,0-33.5,12.7-50.1,17.8c3.7-0.7,7.4-1.6,11-2.9c13-4,26.4-6.7,40-8.2
			c-1.1-0.5-2.1-1-3.2-1.5c11,0.6,22.2,1.1,32.9,3.7c3.7,0.9,7.3,2,10.9,3.2c5.3,1.7,10.5,3.3,15.8,5c-4.7-2.8-9.6-5.1-14.8-6.9
			C581,168.4,571.8,161.3,548.3,161.3z"/>
		<path id="Path_3507" class="st25" d="M484.9,187.7c14.4,0,27.7,18.6,62.9,18.3c41.9-0.4,59.7-14.8,62.1-17c-0.5,0.2-1,0.5-1.5,0.8
			c-11.6,6.5-25.6,7.9-39.1,9.2c-9,0.8-18.4,1.9-27.4,1.1c-8.6-0.7-17.1-2.2-25.5-4.3c-3.9-1-7.8-2.2-11.7-3.6
			c-3.5-1.3-6.9-3.1-10.5-4.2c-4.4-1.4-9.6-1.7-13.7,0.2C482,187.9,483.5,187.7,484.9,187.7z"/>
	</g>
	<path id="Path_3508" class="st33" d="M596.6,188.9c-0.4,0.2-0.7,0.4-1,0.7c-0.3,0.3-0.6,0.5-1,0.7c-0.4,0.2-0.8,0.2-1.2,0
		c-0.3-0.2-0.5-0.6-0.3-1c0,0,0,0,0-0.1c0.2-0.2,0.4-0.3,0.6-0.3c0.8-0.3,1.7-0.4,2.6-0.5c0.1,0,0.3,0,0.4,0
		c0.1,0.1,0.2,0.2,0.1,0.3c0,0,0,0,0,0C596.8,188.8,596.7,188.9,596.6,188.9z"/>
	<path id="Path_3509" class="st31" d="M602.2,187.2c-1.3,0.4-2.5,0.8-3.8,1.1c-1.1,0.3-2.3,0.7-3.4,0.9c-0.1-0.3,0-0.6,0.3-0.8
		c0.3-0.2,0.6-0.3,0.9-0.3c3.3-0.6,6.6-1.3,9.8-2.2C604.7,186.5,603.5,186.9,602.2,187.2z"/>
	<path id="Path_3510" class="st27" d="M596.7,180c-0.6-0.1-1.1-0.3-1.6-0.6c-0.5-0.3-0.8-0.8-0.7-1.4c0.2-0.5,0.6-0.8,1.1-0.9
		c0.5-0.1,1-0.1,1.5,0c2.7,0.5,5.2,1.3,7.7,2.4c0.4,0.2,0.8,0.3,1.2,0.6c0.6,0.4,1,0.9,1.3,1.5c0.1,0.1,0.1,0.3,0,0.4
		c-0.1,0.1-0.2,0.1-0.4,0.1c-1.6,0-3.2-0.3-4.8-0.8C600.4,180.9,598.6,180.4,596.7,180z"/>
	<g id="Group_7235" class="st8">
		<path id="Path_3511" class="st25" d="M460.3,202.8c3-4.9,6.6-9.3,10.7-13.2c-7.6,5.4-12.8,13.9-21.7,17.3
			c6.6-7.4,13.4-15.1,22.6-19.5c-8.5,2-14,9.4-20.6,14.8c1.6-3.8,4.4-7,7.9-9.2c-2.8,1.5-5.5,3.3-8,5.3c5.4-6.4,12.5-11,20.5-13.3
			c-8.3-2.9-15.3-8.7-19.7-16.4c-0.8-1.5-1.6-3-2.5-4.4c0.8,3.4,5.5,19.5,17.9,20.5c0,0-14.6,1.5-24.7,27c0,0,15.6-0.6,22.2-6.8
			c5.2-4.8,5.6-12.6,12.5-15.7c0.5-0.4,1-0.8,1.5-1.1C470.8,189.5,468.3,200.4,460.3,202.8z"/>
		<path id="Path_3512" class="st25" d="M465.9,179.9c-1.3-0.8-2.5-1.7-3.6-2.7C463.3,178.3,464.5,179.2,465.9,179.9z"/>
		<path id="Path_3513" class="st25" d="M446.5,159.6c-0.5,0-0.9,0.1-1.4,0.2c0,0,0.5,0.3,1.3,0.8c1.5,0.4,2.8,1.2,3.9,2.3
			c1.6,1.7,3,3.7,4.1,5.7c2.2,3.3,4.8,6.2,7.8,8.7c-4.4-4.5-6-11.8-11.3-15.8c3.3-0.1,6,2.5,7.9,5c3.9,5.2,7.2,11.7,13.7,13.7
			c-5.4-3-9.5-7.9-11.5-13.7c2.5,3.7,5.4,7.3,9.3,9.6c1,0.6,2.1,1.1,3.2,1.4C465.1,171.1,464.7,158.3,446.5,159.6z"/>
	</g>
	<path id="Path_3514" class="st35" d="M569.4,195.4c-1,0.1-2-0.4-2.4-1.3c-0.4-0.9-0.1-1.9,0.7-2.5c-1-0.6-1.6-1.8-1.6-2.9
		c0.1-1.2,0.8-2.2,1.9-2.8c-0.6-0.8-0.9-1.8-0.8-2.9c0.2-1,1.2-1.7,2.3-1.5c0,0,0.1,0,0.1,0c-0.6-0.6-0.8-1.4-0.5-2.2
		c0.3-0.8,1.1-1.3,1.9-1.4c-0.9-0.4-1.4-1.4-1-2.4c0.1-0.2,0.2-0.4,0.4-0.6c1-0.9,2.4-1,3.5-0.4c-0.9-0.3-1.9,0.1-2.3,1
		c-0.3,0.9,0.2,1.8,1,2.2c-0.8,0.1-1.5,0.6-1.8,1.3c-0.3,0.7-0.1,1.5,0.5,2.1c-0.9,0.3-1.7,1-2.2,1.8c-0.5,0.9-0.2,2,0.6,2.5
		c-1,0.5-1.6,1.5-1.9,2.5c-0.2,1.1,0.4,2.2,1.4,2.7c-0.6,0.7-1,1.6-1.2,2.6C567.8,194.2,568.4,195.1,569.4,195.4z"/>
	<path id="Path_3515" class="st35" d="M560.1,188.5c-1.1-0.3-2-1-2.6-1.9c-0.4-0.8-0.2-1.8,0.6-2.2c0.2-0.1,0.3-0.2,0.5-0.2
		c-1-0.4-1.6-1.4-1.5-2.4c0.2-1.1,1-1.9,2.1-2c-0.2-0.1-0.4-0.2-0.6-0.3c-0.8,0.4-1.5,0.9-2.1,1.5c-0.3,0.2-0.5,0.5-0.5,0.9
		c-0.1,0.9,1.2,1.2,1.8,1.8c-1.1,0.5-1.9,1.5-2.1,2.7c-0.1,0.2-0.1,0.5,0,0.7c0.2,0.3,0.5,0.5,0.8,0.5c0.7,0.2,1.4,0.4,2.1,0.6
		c-1.5,0.4-2.4,1.9-2.1,3.4c0.5,1.5,2.1,2.3,3.7,2c0.2,0.8-0.5,1.8,0.1,2.3c0.2,0.2,0.4,0.3,0.7,0.3c1.2,0.2,2.4-0.1,3.4-0.9
		c-0.9,0.2-1.8,0.1-2.7-0.2c-0.8-0.4-1.2-1.6-0.5-2.1c-1.1,0-2.2-0.7-2.5-1.8C558.5,190,559.1,188.9,560.1,188.5z"/>
	<path id="Path_3516" class="st35" d="M533.8,181.4c-1.5,0.8-2.2,2.7-1.4,4.2c0.2,0.3,0.4,0.6,0.7,0.9c-1.7,1.7-1.7,4.5,0.1,6.3
		c0.3,0.3,0.7,0.6,1.1,0.8c-2.8-0.6-4.4-4.1-2.9-6.4c-0.9-0.5-1.4-1.5-1.2-2.5c0.2-1,0.8-1.9,1.5-2.5c-1.1-1.1-1.2-2.9-0.1-4
		c0.2-0.3,0.5-0.5,0.9-0.6c-0.7-0.9-0.9-2.2-0.4-3.2c0.6-1.1,1.6-1.8,2.9-1.8c-1.2-1.9,0.4-4.7,2.8-4.8c0-2.3,3-4,5.1-3
		c-1.1-0.2-2.2,0.2-2.8,1.1c-0.6,0.8-0.7,2-0.2,2.9c-1.9-0.3-3.7,2-2.7,3.6c-1.1,0.3-2.2,0.9-3,1.8c-0.7,0.8-0.5,2.1,0.3,2.7
		c0.1,0.1,0.1,0.1,0.2,0.2c-1,0.5-1.7,1.2-2.1,2.2C532.2,179.9,532.7,181,533.8,181.4C533.7,181.3,533.8,181.3,533.8,181.4z"/>
	<path id="Path_3517" class="st35" d="M524.5,179.7c-1.6,1-2.2,3.1-1.2,4.8c0.1,0.2,0.3,0.4,0.5,0.6c-1,1.1-1,2.9,0.1,3.9
		c0.3,0.3,0.7,0.5,1.1,0.6c-1.3,1.4-1.1,3.6,0.3,4.8c0.1,0.1,0.3,0.2,0.4,0.3c-1.1,1-0.8,2.8,0.2,3.9c1.2,1,2.5,1.7,4,2
		c-1.7,0.1-3.4-0.2-4.9-0.9c-1.4-0.9-2.1-2.9-0.9-4.1c-1.6-0.7-2.4-2.5-1.8-4.1c0.1-0.3,0.3-0.6,0.5-0.8c-1.5-0.7-2.2-2.4-1.5-3.9
		c0.1-0.3,0.3-0.5,0.5-0.8c-1.4-1.9-1.1-4.5,0.7-6c-0.7-2.4,1.5-5.2,4.2-5.3c-0.8,0.6-1.6,1.3-2.2,2.1
		C523.9,177.7,523.9,178.8,524.5,179.7z"/>
	<path id="Path_3518" class="st35" d="M519.5,193.4c-1,0.5-2.2,0.3-2.8-0.6c-0.6-0.9-0.6-2-0.1-2.9c-1.2-0.4-1.9-1.6-1.6-2.9
		c0.2-0.7,0.7-1.3,1.4-1.5c-0.8-0.6-1.3-1.6-1.2-2.7c0.1-1,0.7-2,1.7-2.5c-1.2-0.4-1.8-1.7-1.5-2.9c0-0.1,0-0.1,0.1-0.2
		c0.6-1.2,1.7-2,3-2.3c-1.1,0.5-1.7,1.6-1.6,2.7c0.2,1.2,1.2,2,2.4,2.2c-0.8,0.4-1.5,1.1-2,1.9c-0.4,0.8,0,1.8,0.9,2.2
		c0,0,0.1,0,0.1,0c-0.6,0.6-1.1,1.3-1.4,2.1c-0.3,0.8,0,1.7,0.6,2.3c0.1,0.1,0.3,0.2,0.3,0.3c0.2,0.3-0.1,0.7-0.3,1
		c-0.5,0.7-0.5,1.6-0.1,2.3C517.9,192.9,518.7,193.3,519.5,193.4z"/>
	<path id="Path_3519" class="st23" d="M538.8,188.8c0.9-0.3,1.9-0.4,2.8-0.4c1,0.1,1.9,0.2,2.9,0.5c6,1.3,12.1,1.4,18.2,0.6
		c-2.3,4.2-7,6.8-11.4,9.1c-7.8,4.1-15.5,8.2-23.3,12.2c0.9-3.4,1.8-6.8,2.6-10.2c0.5-2.4,1.4-4.8,2.5-7
		C534.3,191.4,536.3,189.6,538.8,188.8z"/>
	<g id="Group_7236">
		<path id="Path_3520" class="st24" d="M553.4,192.1c-0.2,0.2-0.5,0.5-0.8,0.7C552.9,192.6,553.2,192.3,553.4,192.1z"/>
		<path id="Path_3521" class="st24" d="M541.6,201.7c1.2-1.4,2.6-2.6,4.3-3.6c2.4-1.6,4.7-3.4,6.8-5.4c-1.6,1.1-3.3,2-5,2.8
			c-6.7,3.3-11.4,9.1-16.9,13.9c6.9-3.6,13.7-7.2,20.6-10.8c3.8-2,7.8-4.2,10.3-7.5C555.9,195.9,548.4,198.3,541.6,201.7z"/>
		<path id="Path_3522" class="st24" d="M528,210.9l0.9-0.5c5.2-5.7,10.4-11.5,15.1-17.6c-5.8,5.1-11,10.7-15.6,16.8
			c1.8-2.5,2.7-5.4,3.9-8.1c1.7-3.9,4.1-7.4,7-10.5c-2.7,1.4-4.6,3.8-6.3,6.1c-0.7,0.9-1.4,1.9-2.1,2.8c-0.1,0.2-0.1,0.5-0.2,0.7
			C529.7,204.1,528.8,207.5,528,210.9z"/>
	</g>
	<path id="Path_3523" class="st26" d="M496,186.8c1.5,0,2.7-1.2,2.7-2.7c0-0.1,0-0.2,0-0.3c-0.5-1.5-2-2.4-3.5-1.9c0,0-0.1,0-0.1,0
		c-2.8,0.8-5.6,1.2-8.5,1.3c-2.8,0.1-5.6-0.1-8.3-0.6c-0.6-0.2-1.2-0.1-1.8,0.1c-0.7,0.4-1,1.4-0.5,2.1c0,0,0,0.1,0.1,0.1
		c0.6,0.7,1.4,1.1,2.3,1.1c0.9,0,1.8-0.1,2.7-0.3c4.4-0.8,8.9-0.6,13.2,0.8C494.7,186.7,495.3,186.8,496,186.8z"/>
	<path id="Path_3524" class="st27" d="M529.6,176.7c0.5,0.6,0.5,1.4-0.6,2.2c-3.7,2.6-10.2,3.1-14.7,3c-2.7,0,0.1-2.5,1.1-3
		c3.7-1.7,7.8-2.7,11.9-3C528.1,175.8,529,176.1,529.6,176.7z"/>
</g>
<path id="Path_3525" class="st36" d="M16.2,158.4l2.8,4.9c0,0,25.7,26.8,88.7,29.3c0,0,86-0.9,110.4-20.9
	c18-14.7,14.5-18.4,14.5-18.4"/>
</svg>
