<?xml version="1.0" encoding="utf-8"?>
<!-- Generator: Adobe Illustrator 25.0.1, SVG Export Plug-In . SVG Version: 6.00 Build 0)  -->
<svg version="1.1" id="Component_36_1" xmlns="http://www.w3.org/2000/svg" xmlns:xlink="http://www.w3.org/1999/xlink" x="0px"
	 y="0px" viewBox="0 0 214.1 189.4" style="enable-background:new 0 0 214.1 189.4;" xml:space="preserve">
<style type="text/css">
	.st0{fill:#F7F7F7;}
	.st1{fill:#E9AD3D;}
	.st2{fill:#D8E081;}
	.st3{fill:#00A3A1;}
	.st4{opacity:0.4;}
	.st5{fill:#00ABC4;}
	.st6{fill:#00AEB4;}
	.st7{fill:url(#Path_3232_1_);}
	.st8{opacity:0.3;fill:#FCFCF7;enable-background:new    ;}
	.st9{fill:#87898C;}
	.st10{fill:#EA9F26;}
	.st11{fill:#B07C57;}
	.st12{fill:#F4595E;}
	.st13{opacity:0.9;fill:#A35521;enable-background:new    ;}
	.st14{fill:#D7DD58;}
	.st15{fill:#F4EDDF;}
	.st16{opacity:0.5;fill:#FFFFFF;enable-background:new    ;}
	.st17{opacity:0.5;}
</style>
<path id="Path_3209" class="st0" d="M17.4,146c-8-14.8-10.8-47.7,9-77.9c6.3-9.7,15.5-16.6,13.2-31.7C35.9,12.6,57.1-7.3,84.3,2.6
	c16.1,5.8,20.9,22,38.2,15.6c14-5.2,32.9-9.4,45.5,4.1c9,9.7,9.6,20,7.3,36.6c-1.5,10.7,5.6,17.5,10.3,23.6
	c10.1,12.9,15.1,35.3,8.2,60c-9,32.3-43.6,46.8-76.4,46.9C74.7,189.6,37.7,183.5,17.4,146z"/>
<image style="overflow:visible;enable-background:new    ;" width="90" height="89" id="Rectangle_3208" xlink:href="4F5A7292.png"  transform="matrix(0.24 0 0 0.24 29.429 103.748)">
</image>
<path id="Path_3210" class="st1" d="M57.4,70.4l7.3,3.8c-4.7,25.4-11.7,49.3-16,72.1c-5.3-3.4-8.6-7-8.6-10.4L57.4,70.4z"/>
<g id="Group_7067" transform="translate(-53.563 -44.323)">
	<g id="Group_7052">
		<g id="Group_7021">
			<g id="Group_7020">
				<path id="Path_3211" class="st2" d="M230.2,160.4c-0.3-0.3-0.5-0.7-0.3-1c0.2-0.4,0.7-0.4,1.1-0.3c2.3,0.5,4.2,2.2,5.1,4.4
					l0,0.1c2-1,4.3-1.2,6.5-0.7c0.5,0.1,1,0.3,1.1,0.8c0,0.4-0.1,0.7-0.4,0.9c-0.3,0.2-0.6,0.3-1,0.3c-2.2,0.3-4.5-0.1-6.4-1.2
					l0.1-0.2l0,0C234.2,162.3,231.7,162,230.2,160.4z"/>
			</g>
		</g>
		<g id="Group_7023">
			<g id="Group_7022">
				<path id="Path_3212" class="st2" d="M227,166.3c-0.2-0.2-0.4-0.4-0.5-0.6c0-0.4,0.2-0.7,0.5-0.9c0.4-0.1,0.7-0.2,1.1-0.1
					c2.4,0.3,4.4,1.9,5.3,4.2v0.2c2-1.5,4.4-2.2,6.9-2.1c0.5,0,1.1,0.2,1.3,0.7c0.1,0.3,0,0.6-0.3,0.8c-0.2,0.2-0.5,0.4-0.8,0.4
					c-2.3,0.8-4.8,0.9-7.2,0.2l0,0c-1.5-0.6-3.1-1.3-4.6-1.9C228.2,167,227.6,166.7,227,166.3z"/>
			</g>
		</g>
		<g id="Group_7025">
			<g id="Group_7024">
				<path id="Path_3213" class="st2" d="M229.6,180.2c-2.4,0.1-4.8-0.3-7-1.2c-0.4-0.2-0.9-0.5-0.9-0.9c0-0.5,0.5-0.8,1-0.9
					c1.3-0.2,2.7,0,3.9,0.7c1.2,0.7,2.3,1.4,3.2,2.3L229.6,180.2z"/>
			</g>
		</g>
		<g id="Group_7027">
			<g id="Group_7026">
				<path id="Path_3214" class="st2" d="M236.2,150c0.3-0.5,0.9-0.5,1.4-0.3c1.1,0.4,2,1.1,2.6,2.1c0.6,1,1,2.1,1.1,3.2v0
					c1.3-0.5,2.8-0.7,4.2-0.6c0.4,0.1,0.8,0.2,1.1,0.5c0.3,0.3,0.4,0.7,0.3,1.1c-0.2,0.4-0.6,0.6-1.1,0.6c-1.6,0-3.1-0.4-4.5-1.2
					l-0.2-0.2c-1.7-1-3.2-2.3-4.5-3.7C236.3,151,235.9,150.5,236.2,150z"/>
			</g>
		</g>
		<g id="Group_7029">
			<g id="Group_7028">
				<path id="Path_3215" class="st2" d="M239.4,146.5c0.2-0.3,0.5-0.5,0.8-0.5c0.3,0,0.7,0,0.9,0.2c0.9,0.4,1.7,1.1,2.2,1.9
					c0.5,0.8,0.9,1.7,1.2,2.7l-0.2-0.1c-1.4-0.7-2.7-1.5-4-2.3c-0.3-0.2-0.6-0.5-0.8-0.8C239.3,147.2,239.3,146.9,239.4,146.5z"/>
			</g>
		</g>
		<g id="Group_7031">
			<g id="Group_7030">
				<path id="Path_3216" class="st2" d="M225.3,172.6c-0.5-0.1-0.9-0.4-1.3-0.7c-0.4-0.4-0.4-1,0-1.4c0.3-0.2,0.7-0.3,1-0.2
					c2.6,0.4,4.9,2,6.1,4.3L225.3,172.6z"/>
			</g>
		</g>
		<g id="Group_7033">
			<g id="Group_7032">
				<path id="Path_3217" class="st2" d="M244.4,150.8l0.1,0.1c1.8-0.7,3.8-0.8,5.6-0.2c0.3,0.1,0.6,0.2,0.8,0.4
					c0.2,0.2,0.4,0.5,0.3,0.9c-0.1,0.5-0.8,0.6-1.3,0.6C248,152.7,246,152,244.4,150.8z"/>
			</g>
		</g>
		<g id="Group_7035">
			<g id="Group_7034">
				<path id="Path_3218" class="st2" d="M249.6,145.4c1.5-2.6,4-4.5,6.9-5.1c0.3-0.1,0.6-0.1,0.9-0.1c0.3,0,0.6,0.2,0.7,0.5
					c0.2,0.5-0.2,1.1-0.6,1.5c-2.1,1.9-5.1,2.5-7.9,3L249.6,145.4z"/>
			</g>
		</g>
		<g id="Group_7037">
			<g id="Group_7036">
				<path id="Path_3219" class="st2" d="M238.2,159.8C238.2,159.8,238.2,159.8,238.2,159.8L238.2,159.8L238.2,159.8
					c1.9-1.4,4.3-1.8,6.5-1.2c0.5,0.2,1,0.5,1,1.1c0,0.6-0.6,0.9-1.2,1C242.4,161.3,240.1,161,238.2,159.8L238.2,159.8L238.2,159.8z
					"/>
			</g>
		</g>
		<g id="Group_7039">
			<g id="Group_7038">
				<path id="Path_3220" class="st2" d="M247.4,147.9l-0.1-0.2c1-0.3,2.1-0.6,3.2-0.7c1.1-0.1,2.2,0.1,3.2,0.5
					c0.3,0.1,0.6,0.3,0.8,0.6c0.2,0.3,0.3,0.6,0.2,0.9c-0.2,0.5-0.9,0.6-1.4,0.6C251.1,149.7,249.1,149.1,247.4,147.9z"/>
			</g>
		</g>
		<g id="Group_7041">
			<g id="Group_7040">
				<path id="Path_3221" class="st2" d="M233.2,154.6c0.3-0.2,0.6-0.2,0.9-0.1c1.2,0.3,2.1,1,2.8,2.1c0.6,1,1,2.1,1.2,3.2
					c-1.6-1-3.1-2.1-4.5-3.4c-0.3-0.2-0.5-0.5-0.6-0.8C232.9,155.2,233,154.8,233.2,154.6z"/>
			</g>
		</g>
		<g id="Group_7043">
			<g id="Group_7042">
				<path id="Path_3222" class="st2" d="M231.2,174.7C231.1,174.6,231.1,174.6,231.2,174.7C231.1,174.6,231.2,174.6,231.2,174.7
					L231.2,174.7c1.7-2.1,4-3.5,6.6-4c0.5-0.2,1-0.1,1.3,0.2c0.3,0.4,0.3,1-0.1,1.4c-0.6,0.8-1.5,1.3-2.5,1.5
					c-1.7,0.5-3.5,0.8-5.3,1l0,0l0,0.1c0,0,0-0.1,0-0.1c-0.1,0-0.1,0-0.2,0L231.2,174.7z"/>
			</g>
		</g>
		<g id="Group_7045">
			<g id="Group_7044">
				<path id="Path_3223" class="st2" d="M229.8,180.1c0.1,0,0.1,0,0.2,0c-0.1,0.1-0.1,0.2-0.2,0.3L229.8,180.1z"/>
			</g>
		</g>
		<g id="Group_7047">
			<g id="Group_7046">
				<path id="Path_3224" class="st2" d="M237.6,175.2c0.3,0,0.7,0,1,0.1c0.3,0.1,0.6,0.4,0.7,0.7c0,0.3-0.1,0.7-0.3,1
					c-0.6,0.7-1.3,1.2-2.2,1.5c-2.2,0.9-4.5,1.5-6.9,1.6c0.8-1.3,1.9-2.4,3.1-3.3C234.4,175.8,236,175.3,237.6,175.2z"/>
			</g>
		</g>
		<g id="Group_7049">
			<g id="Group_7048">
				<path id="Path_3225" class="st2" d="M238.3,183.1c0,0.3,0,0.6-0.2,0.8c-0.2,0.2-0.4,0.4-0.6,0.6c-1.3,0.9-2.8,1.5-4.4,1.8
					c-1.5,0.3-3.1,0.5-4.6,0.6l0.1,0.2c-2.2-0.2-4.3-0.8-6.3-1.8c-0.3-0.1-0.6-0.4-0.9-0.6c-0.2-0.3-0.3-0.7-0.1-1
					c0.3-0.3,0.6-0.4,1-0.4c2.5,0,4.8,1.4,6.1,3.6l0,0c1.5-2.3,3.8-3.9,6.4-4.5c0.9-0.2,1.8-0.2,2.6,0
					C237.9,182.4,238.2,182.7,238.3,183.1z"/>
			</g>
		</g>
		<g id="Group_7051">
			<g id="Group_7050">
				<path id="Path_3226" class="st2" d="M228.9,190.3c1-17.1,8.9-33,21.8-44.1c0.8-0.7-0.4-1.8-1.2-1.1
					c-13.3,11.4-21.3,27.8-22.3,45.3C227.2,191.4,228.8,191.3,228.9,190.3z"/>
			</g>
		</g>
	</g>
	<g id="Group_7060">
		<g id="Group_7054">
			<g id="Group_7053">
				<path id="Path_3227" class="st3" d="M228.2,191.3l0.4,0c-0.1,0.1-0.1,0.2-0.2,0.3L228.2,191.3z"/>
			</g>
		</g>
		<g id="Group_7057" class="st4">
			<g id="Group_7056">
				<g id="Group_7055">
					<path id="Path_3228" class="st5" d="M228.6,191.3c1.4-2.1,1.8-5,1.9-7.8c0.1-3,0-6,0.7-8.8c0.2-0.6,0.4-1.3,1-1.4
						c0.7-0.2,1.6,0.5,2,1.3c0.4,0.8,0.5,1.7,0.5,2.5c1-3.5,3-6.7,5.7-9.2c0.4,1.4,0.9,2.9,1.3,4.3c1.3-2.7,3.3-5,5.8-6.6
						c0.7-0.7,1.8-0.8,2.6-0.3c0.9,0.7,0.9,2.1,0.7,3.2c3.7-2.9,8.4-4.2,13-3.7c1.3,0.1,2.9,0.6,3.5,1.9s-0.2,2.6-1,3.5
						c-2.4,2.6-5.1,5-8.1,7c1,0.1,2.1,0.5,2.9,1c0.9,0.6,1.4,1.7,1.3,2.8c-0.3,0.8-1.2,1-2.1,1.2c-3.2,0.5-6.5,0.9-9.9,1.1
						c1.1,0.7,2.5,1.8,2.3,3c-0.2,1-1.3,1.2-2.3,1.3c-2.7,0.1-5.5,0.1-8.3,0.1c0.9,0.3,1.6,1.3,1.5,2.3c-0.1,0.9-0.7,1.6-1.5,1.8
						c-0.8,0.2-1.7,0.3-2.6,0.2C236,191.6,232.3,191.4,228.6,191.3z"/>
				</g>
			</g>
		</g>
		<g id="Group_7059">
			<g id="Group_7058">
				<path id="Path_3229" class="st6" d="M260.3,167.8c-4.9,2.5-9.6,5.4-14.1,8.6c0.5-1.7,1.1-3.3,1.9-4.9c0.2-0.5-0.5-0.7-0.8-0.3
					c-0.9,1.9-1.7,3.9-2.2,6l0,0c-2.9,2.1-5.7,4.3-8.3,6.7c0.7-2.6,1.4-5.2,2.1-7.8c0.1-0.5-0.6-0.8-0.8-0.3
					c-0.8,2.9-1.6,5.8-2.4,8.8c0,0.1,0,0.2,0,0.2c-1.6,1.4-3.1,2.9-4.6,4.4c-0.4,0.4,0.2,1,0.5,0.6c1.6-1.6,3.2-3.1,4.8-4.6
					c0,0,0.1,0,0.1,0c2.2-0.1,4.5-0.3,6.7-0.4c0.5,0,0.6-0.9,0-0.8c-2,0.1-3.9,0.3-5.9,0.4c2.7-2.4,5.5-4.6,8.4-6.8
					c0.1,0,0.1,0.1,0.2,0.1c2.8,0.4,5.5,0.5,8.3,0.3c0.5,0,0.6-0.8,0-0.8c-2.5,0.1-5.1,0.1-7.6-0.2c4.4-3.1,9-5.9,13.7-8.4
					c0.2-0.1,0.3-0.4,0.1-0.6C260.7,167.8,260.4,167.7,260.3,167.8z"/>
			</g>
		</g>
	</g>
	<g id="Group_7066">
		<g id="Group_7063" class="st4">
			<g id="Group_7062">
				<g id="Group_7061">
					<path id="Path_3230" class="st5" d="M233.5,174.8c-0.1,1.2-0.7,2.3-1.6,3.1c-2.8,2.9-5.8,5.7-8.9,8.4l0.1,0.2
						c-3.2-1.4-6.5-2.8-9.8-4.2c-0.7-0.2-1.4-0.6-1.9-1.1c-0.8-0.6-0.9-1.7-0.3-2.4c0.3-0.4,0.7-0.6,1.2-0.6
						c0.4-0.1,0.7-0.1,1.1-0.1l5,0.1c0.6,0,1.3-0.1,1.4-0.7c0-0.3-0.1-0.6-0.3-0.9c-1.8-1.7-4.1-2.8-6.5-3.2c-0.7,0-1.4-0.2-2-0.5
						c-0.8-0.5-1.3-1.7-0.1-2.4c0.3-0.1,0.5-0.2,0.8-0.2c1.9-0.1,3.7-0.1,5.5,0.2c1,0.2,2.3,0.2,2.4-0.9c0.1-0.5-0.2-0.9-0.5-1.2
						c-1.8-1.3-3.8-2.2-5.9-2.7c-0.5-0.1-1.1-0.3-1.5-0.5c-0.5-0.3-0.8-1-0.5-1.5c0.1-0.2,0.2-0.3,0.4-0.4c0.3-0.2,0.7-0.3,1.1-0.2
						l5.2,0.6c0.6,0.1,1.4,0.1,1.6-0.6c0.2-0.5,0-1-0.4-1.3c-2-1.4-4.2-2.4-6.5-3c-0.8-0.1-1.5-0.4-2-1c-0.2-0.3-0.3-0.8-0.1-1.1
						c0.3-0.5,0.9-0.5,1.5-0.4l5.6,0.5c0.2,0,0.4-0.1,0.4-0.3c0-0.1,0-0.2-0.1-0.3c-1.7-1.5-3.7-2.6-5.8-3.3
						c-0.6-0.1-1.1-0.3-1.6-0.6c-0.6-0.5-0.9-1.5,0.1-2c0.3-0.1,0.6-0.2,0.9-0.1c1.8,0.1,3.5,0.4,5.2,0.8c-0.7-1.5-1.3-3.1-2-4.6
						c-0.5-1.1-1-2.5-0.1-3.5c0.6-0.7,1.5-0.9,2.4-0.6c1.3,0.6,2.3,1.8,2.4,3.3c0,0.8,0.3,1.6,0.8,2.2c0.3,0.3,0.7,0.5,1.1,0.4
						c0.7-0.1,0.9-0.8,1.2-1.4c0.2-0.5,0.7-1.1,1.3-0.9c0.3,0.1,0.5,0.3,0.6,0.6c0.4,1.1,0.2,2.2-0.5,3.1c-0.7,1.2-1.6,2.3-1.3,3.8
						c0.2,0.8,0.9,1.3,1.7,1.2c0.8-0.1,1.2-0.9,1.6-1.6s1.4-1.2,1.9-0.5c0.2,0.2,0.2,0.5,0.2,0.7c0,1.8-1.2,3.4-2.1,4.9
						c-0.7,0.9-1.1,2-1.3,3.1c-0.1,0.5,0.3,0.9,0.7,0.9c0.2,0,0.4,0,0.6-0.2l3.1-2.4c0.3-0.3,0.7-0.5,1.2-0.3
						c0.2,0.1,0.4,0.4,0.4,0.7c0,0.6-0.2,1.2-0.7,1.7c-1.4,1.8-2.8,3.7-4.2,5.5c-0.5,0.6-1,1.4-0.6,2.2c0.4,0.6,1.1,0.8,1.7,0.6
						c1.4-0.4,1.9-1.7,2.9-2.5c0.6-0.5,1.7-0.8,2,0.1c0.1,0.4,0.1,0.8-0.2,1.1c-1.5,1.8-3.1,3.4-4.8,4.9c-0.8,0.5-1.3,1.3-1.5,2.1
						c-0.1,0.6,0.3,1.2,0.9,1.4c0.6,0,1.2-0.2,1.6-0.7l2.1-1.9c0.7-0.6,1.6-1.3,2.6-0.9C233.1,173.5,233.5,174.1,233.5,174.8z"/>
				</g>
			</g>
		</g>
		<g id="Group_7065">
			<g id="Group_7064">
				<path id="Path_3231" class="st6" d="M222.6,185.5c3.1-14.6,1-29.8-5.8-43.1c-0.2-0.5-1-0.2-0.8,0.3c6.7,13.2,8.8,28.2,5.7,42.7
					C221.7,185.9,222.5,186,222.6,185.5z"/>
			</g>
		</g>
	</g>
</g>
<linearGradient id="Path_3232_1_" gradientUnits="userSpaceOnUse" x1="-840.9061" y1="579.9324" x2="-839.8322" y2="580.1425" gradientTransform="matrix(76.4 0 0 -8.006 64306.3047 4802.394)">
	<stop  offset="0" style="stop-color:#359AB5"/>
	<stop  offset="1.400000e-02" style="stop-color:#369BB6"/>
	<stop  offset="0.294" style="stop-color:#59B6D0"/>
	<stop  offset="0.559" style="stop-color:#71CAE2"/>
	<stop  offset="0.801" style="stop-color:#80D5EE"/>
	<stop  offset="1" style="stop-color:#86DAF2"/>
</linearGradient>
<path id="Path_3232" class="st7" d="M65.5,158.6c0,2.2,17.1,4,38.2,4s38.2-1.8,38.2-4s-17.1-4-38.2-4S65.5,156.4,65.5,158.6z"/>
<image style="overflow:visible;enable-background:new    ;" width="98" height="98" id="Rectangle_3209" xlink:href="4F5A7296.png"  transform="matrix(0.24 0 0 0.24 123.509 19.028)">
</image>
<path id="Path_3233" class="st8" d="M116.9,49.5c-0.1-4.4,0.1-8.8,0.5-13.1c-1.6,4.9-2.3,10-2,15.1c-3.2,4.3-5,7.2-5,7.2l1.1,2.2
	c5.4-8.2,22.3-29.8,22.3-29.8C127.6,36.8,121.9,42.9,116.9,49.5z"/>
<path id="Path_3234" class="st8" d="M100.8,64.3c0,0-13.3-8.3-26.9-27.2c0,0,7.3,13.2,17.9,22.7c-2.4,0.1-7.9,0.1-11.9-1.6
	c0,0,6.3,4.3,13.7,3.1c1.8,1.5,3.7,3,5.7,4.3L100.8,64.3z"/>
<image style="overflow:visible;enable-background:new    ;" width="47" height="46" id="Rectangle_3210" xlink:href="4F5A7291.png"  transform="matrix(0.24 0 0 0.24 127.829 62.228)">
</image>
<image style="overflow:visible;enable-background:new    ;" width="70" height="70" id="Rectangle_3211" xlink:href="4F5A7293.png"  transform="matrix(0.24 0 0 0.24 116.549 61.028)">
</image>
<image style="overflow:visible;enable-background:new    ;" width="78" height="78" id="Rectangle_3212" xlink:href="4F5A7290.png"  transform="matrix(0.24 0 0 0.24 86.069 87.428)">
</image>
<path id="Path_3235" class="st9" d="M50.7,118.4l-5.8,21.5c0,10.8,33.1,24.1,62.6,24.1c50,0,64.3-26.1,64.3-26.1l-7.1-14.1
	c-13.5-8.5-36.4-14-62.4-14C82.3,109.8,64.2,113.1,50.7,118.4z"/>
<path id="Path_3236" class="st1" d="M147.9,71.4l15.8,63.5c0,0-10.9,25.1-60.9,25.1c-29.5,0-62.6-13.2-62.6-24l17.2-64.2L147.9,71.4
	z"/>
<path id="Path_3237" class="st10" d="M71.2,76.9l76.7-5.5l15.8,63.5c-1.3,2.6-3.1,5-5.2,7c-5.8-19-11.2-44.3-15.7-63.7
	c-1.6-6.8-8.5,1.3-6.9,8.1c4.9,20.8,10.4,44,13.5,62.8c-5.4,3.3-11.3,5.7-17.4,7.3c-1.1-9.8-6.6-53-9.3-70.8c0.1-7-6.8-3.6-6.2,3.4
	c1.6,18.4,3.8,59.2,4.9,69.6c-5.8,0.8-11.6,1.3-17.5,1.3c-0.1-11.6,0.4-60.6,0.8-75.7c0.2-7-5.6-6.7-6.3,0.2
	c-1.4,15.9-4.8,63-5.4,75c-5-0.5-9.9-1.2-14.8-2.3c3.3-25.8,4-53.7,7.6-76c1.1-6.9-8.4-3.7-9.1,3.3c-2.3,24-5.7,45.1-9,69.9
	c-3.1-0.9-6-2-8.7-3.1C62.5,124.8,68,103.6,71.2,76.9z"/>
<path id="Path_3238" class="st1" d="M68.7,71.7l-1.3,0c-0.9,4.3-3.8,9-0.3,13c2.1,2.4,5.9,2.4,9.1,2.2c14.3-1.2,28.5-4.5,42.8-5.2
	c3.4-0.2,11-2.2,11.7,1.1c4.1,17.9,8.9,50.4,12.3,69.7c16.2-7.4,20.7-17.6,20.7-17.6l-15.8-63.5l-29.6,0.1
	C101.8,71.6,85.2,71.7,68.7,71.7z"/>
<path id="Path_3239" class="st11" d="M151.7,69.2c-0.9-5.5-13-16.3-49.4-16.1c0,0-32.7,0-45.8,11c-9.9,8.3,6.3,16.8,6.3,16.8
	s-6.7,7.9-8.4,15.8c-2.8,12.8,0.4,22.7,3.2,22.3c5.2-0.7,9-28.8,13.1-30.9c7.1-3.6,10.1,13.3,4.6,31.6c-4.2,14.2,2,24.6,5.5,24.6
	c4.7,0,6.1-5.7,8.2-29.3c1.2-13.3,6.1-17.6,11.7-18c10.6-0.8,4.1,21.4,12.7,21c13.1-0.7,2.1-25.3,10.3-28.9c9-4,10.3,13.8,17.2,11.7
	s3.3-21.4,3.3-21.4S152.8,76.1,151.7,69.2z"/>
<path id="Path_3240" class="st11" d="M151.7,69.2c-0.5-3.2-4.8-8.2-15.6-11.8c-10.5-1.1-21.1-1.4-31.7-0.9
	c-36.5,1.4-46.8,13.6-46.8,13.6l-1.6,5.7c1.9,2,4.2,3.7,6.6,5.1l42.5,5.5l38.8-6.9C144.1,79.5,152.8,76.1,151.7,69.2z"/>
<path id="Path_3241" class="st12" d="M147.9,71.4c0,0-11.7,11.4-44.3,10.7c-35.3-0.7-45.9-12-45.9-12l-1.6,5.7c2,2,4.2,3.7,6.7,5.1
	c0,0-6.7,7.9-8.4,15.8c-2.8,12.8,0.4,22.7,3.2,22.3c5.2-0.7,9-28.8,13.1-30.9c7.1-3.6,10.1,13.3,4.6,31.6c-4.2,14.2,2,24.6,5.5,24.6
	c4.7,0,6.1-5.7,8.2-29.3c1.2-13.3,6.1-17.6,11.7-18c10.6-0.8,2.9,19.9,12.7,21c13,1.4,2.1-25.3,10.3-28.9c9-4,10.3,13.8,17.2,11.7
	s3.3-21.4,3.3-21.4c1.8-0.8,3.5-1.9,5-3.3C148.7,74.7,147.9,71.4,147.9,71.4z"/>
<path id="Path_3242" class="st11" d="M147.9,71.4c0,0-11.7,11.4-44.3,10.7c-35.3-0.7-45.9-12-45.9-12l-1.6,5.7c2,2,4.2,3.7,6.7,5.1
	c0,0-6.7,7.9-8.4,15.8c-2.8,12.8,0.4,22.7,3.2,22.3c5.2-0.7,9-28.8,13.1-30.9c7.1-3.6,10.1,13.3,4.6,31.6c-4.2,14.2,2,24.6,5.5,24.6
	c4.7,0,6.1-5.7,8.2-29.3c1.2-13.3,6.1-17.6,11.7-18c10.6-0.8,2.9,19.9,12.7,21c13,1.4,2.1-25.3,10.3-28.9c9-4,10.3,13.8,17.2,11.7
	s3.3-21.4,3.3-21.4c1.8-0.8,3.5-1.9,5-3.3C148.7,74.7,147.9,71.4,147.9,71.4z"/>
<path id="Path_3243" class="st13" d="M152.2,68.8c-0.7-4.2-7.7-11.3-26.7-14.5c-0.4,0.4-0.7,0.7-1.1,1.1l-1.6-0.9L109,66.9l-6-6.1
	l-17.5,7.9c0,0,2.9,14.8,19.4,4.4c5.5,3.2,11.9,4.4,18.2,3.5c6.1-0.9,11.8-3.6,16.3-7.7c0.6,0.5,1,1,1.4,1.7
	c2.6,6,2.2,24.3-0.8,25.6c-1.6,0.7-3.8,0-5.4-0.8c2,3.2,3.9,6,6.9,5.1c6.9-2.1,3.3-21.4,3.3-21.4S153.3,75.7,152.2,68.8z"/>
<g id="Group_7068" transform="translate(-53.563 -44.323)">
	<path id="Path_3244" class="st14" d="M179.4,110.9c1.5-0.3,3.1-0.5,4.6-0.5c1.3,0,2.1,0.4,0.9,1.6c-2.9,3.2-8,5.1-12.1,5.8
		c-6.5,1.1-15.8-2.4-19-8.1c-0.4-0.7-0.7-1.5-1.1-2.2c-2.3-5.6-1.7-11.9,0.3-17.6c0-0.2,0.1-0.3,0.3-0.4c0.3-0.1,0.5,0.2,0.7,0.5
		c0.7,1.4,1.1,2.8,1.7,4.2c-0.5-1.1,1.1-4.6,1.4-5.8c0.7-2.6,1.9-5.1,3.6-7.3c1,1.6,1.5,3.5,1.4,5.4c1.3-4.4,3.8-8.3,7.2-11.3
		c0.9,1.9,1.2,4,0.9,6.1c0.3-1.6,3.1-4,4.3-5.2c1.5-1.8,3.3-3.4,5.3-4.7c1.3,1.8,0.5,5.3,0.2,7.3c0.7-4.2,6.5-8,9.6-10.2
		c0.4-0.3,0.9-0.5,1.2-0.2c0.1,0.2,0.2,0.4,0.2,0.6c0.3,4.8-2.1,9-4.1,13.2c1.7-1.4,3.6-2.6,5.7-3.5c0.3-0.2,0.7-0.2,1.1-0.1
		c1.4,0.7-0.5,3.3-0.9,4c-1.5,2.1-3.1,4.2-4.8,6.2c1.5-1,3.3-1.6,5.2-1.6c0.3,0,0.7,0,0.8,0.3c0,0.1,0,0.3,0,0.4
		c-0.9,3.1-3.8,5.3-6,7.5c1.8-1,3.7-1.6,5.8-1.7c-1.7,3.9-3.3,5.4-6.8,7.8c1.6-0.7,3.4-1,5.2-1.1c0.1,0,0.2,0,0.3,0.1
		c0.3,0.2,0.1,0.6-0.1,0.9C190.7,103.4,183.5,108.5,179.4,110.9z"/>
</g>
<path id="Path_3245" class="st8" d="M131.3,67.7c1.2-1.3,0.4-1.6-0.9-1.6c-1.6,0-3.1,0.1-4.6,0.5c4.1-2.4,11.4-7.5,12.7-9.8
	c0.2-0.3,0.4-0.7,0.1-0.9c-0.1-0.1-0.2-0.1-0.3-0.1c-1.8,0-3.5,0.4-5.2,1.1c-25.4,13-30.3-6.5-30.3-6.5l-3.7,12.4
	c0,0.1,0.1,0.2,0.1,0.4c0.3,0.8,0.7,1.5,1.1,2.2c3.2,5.7,12.5,9.1,19,8.1C123.3,72.8,128.4,70.9,131.3,67.7z"/>
<path id="Path_3246" class="st14" d="M99.3,41.1c0.3,0.5,0.6,1.1,0.9,1.6c1.8,3.9,3.3,8,4.3,12.2c1,3.8,1.2,8-1.1,11.3
	c-7.5,11.2-24.6,5.1-31.2-3.7c3.4-0.2,6.8,0.7,9.6,2.6c-5-3.2-9.8-6.7-13-11.9c3.1-0.1,6.2,0.7,9,2.2c-5.6-3.1-10-8.1-12.4-14
	c3.3-0.3,6.6,0.6,9.3,2.5c-5.5-5.2-6.8-9.7-7.7-17.1c5.8,5,9.2,7.5,14.7,12.8c-1.6-2.3-1.9-5.3-0.6-7.9c0.1-0.2,3.3,4.2,3.7,4.8
	c1.3,2.1,2.8,3.7,3.6,6.1c-1-2.6-1-5.4-0.2-8c3.8,3.2,6.7,7.4,8.2,12.2c-0.6-2.9-0.6-6,0.1-8.9C97.6,38.8,98.6,39.9,99.3,41.1z"/>
<path id="Path_3247" class="st15" d="M76.5,73.9"/>
<path id="Path_3248" class="st16" d="M74.9,78.4c0.4-1.6,3.1-2.3,5-1.7c1.4,0.5,2.9,1.8,2.8,3.1c-0.2,1.6-2.9,2.9-5,2.2
	C76,81.6,74.5,79.8,74.9,78.4z"/>
<path id="Path_3249" class="st16" d="M59.1,91.1c-1.2-0.9-5.2,13.5-2.9,15.6C58.3,108.7,61.5,92.9,59.1,91.1z"/>
<path id="Path_3250" class="st8" d="M78.2,68c8,5.2,19.4,6.8,25.2-1.8c2.3-3.4,2.1-7.6,1.1-11.3C103.3,71.1,82.6,68.4,78.2,68z"/>
<path id="Path_3251" class="st16" d="M71.1,77.3c0.1-0.1,0.1-0.1,0.2-0.2c1.4-1.2-0.8-2.6-2.9-3.4c-1.8-0.8-4.3-1.8-5.5-4
	c-1.7-3.3,7.5-10.5,4.8-9.2c-2.5,1-4.9,2.2-7.2,3.7c-1.7,1.3-4.1,3.4-4.2,5.8c-0.1,4.3,6.2,6.7,9.3,7.7
	C67.5,78.3,69.5,78.7,71.1,77.3z"/>
<path id="Path_3252" class="st13" d="M88.1,104.1c-4.8,8.1-0.8,32.3-7.8,35.5c-2,0.9-4-0.9-5.3-2.4c1.5,4.5,3.9,7.1,5.7,7.1
	c4.7,0,6.1-5.7,8.2-29.3c1.2-13.3,6.1-17.6,11.7-18c0.3,0,0.5,0,0.8,0l0-0.1C95.9,96.6,90.8,99.4,88.1,104.1z"/>
<path id="Path_3253" class="st13" d="M114.4,114.5c-2.7,0.4-5-1.2-6.5-2.9c0.7,3.4,2,6.1,5.4,6.5c12,1.3,3.6-21.4,8.8-27.7
	C116.7,94.8,119.3,113.7,114.4,114.5z"/>
<g id="Group_7085" transform="translate(-53.563 -44.323)">
	<g id="Group_7069">
		<path id="Path_3254" class="st2" d="M89.5,143.7c0.4-0.4,0.7-0.9,0.5-1.3c-0.2-0.4-0.9-0.4-1.5-0.2c-3,0.9-5.5,3.2-6.7,6.1l0,0.2
			c-2.7-0.9-5.7-1-8.5,0c-0.6,0.2-1.4,0.6-1.5,1.2c-0.1,0.4,0.1,0.9,0.5,1.1c0.4,0.2,0.8,0.3,1.3,0.3c3,0.1,5.9-0.7,8.4-2.3
			l-0.1-0.2l0,0C84.2,146.6,87.4,145.9,89.5,143.7z"/>
	</g>
	<g id="Group_7070">
		<path id="Path_3255" class="st2" d="M93.3,150.6c0.3-0.2,0.5-0.5,0.6-0.8c0.1-0.5-0.2-0.9-0.7-1c-0.5-0.1-1-0.1-1.4,0
			c-3.1,0.7-5.7,2.9-7.1,5.9l0,0.3c-2.7-1.6-5.8-2.2-8.9-1.7c-0.7,0.1-1.5,0.4-1.7,1c-0.1,0.4,0,0.8,0.3,1c0.3,0.2,0.7,0.4,1,0.4
			c3.1,0.7,6.4,0.5,9.3-0.7l0,0c2-1,4-2,6.1-2.9C91.7,151.7,92.6,151.2,93.3,150.6z"/>
	</g>
	<g id="Group_7071">
		<path id="Path_3256" class="st2" d="M89.5,168.1c3.2-0.2,6.3-1,9.2-2.4c0.5-0.3,1.2-0.7,1.2-1.2c0-0.6-0.7-0.9-1.3-1
			c-1.8-0.1-3.5,0.4-5.1,1.3c-1.5,1-3,2.1-4.3,3.3L89.5,168.1z"/>
	</g>
	<g id="Group_7072">
		<path id="Path_3257" class="st2" d="M82,131.7c-0.3-0.5-1.2-0.4-1.8-0.2c-1.4,0.6-2.6,1.6-3.5,2.9c-0.8,1.2-1.3,2.6-1.6,4.1l0,0
			c-1.8-0.5-3.7-0.5-5.5-0.2c-0.5,0.1-1,0.4-1.4,0.7c-0.4,0.3-0.5,0.9-0.4,1.4c0.3,0.4,0.9,0.7,1.4,0.6c2,0,4-1,5.8-2l0.3-0.3
			c2.2-1.5,4.3-3.2,6-5.2C81.8,133,82.3,132.3,82,131.7z"/>
	</g>
	<g id="Group_7073">
		<path id="Path_3258" class="st2" d="M77.9,127.9c-0.2-0.3-0.6-0.5-1-0.5c-0.4,0-0.9,0.1-1.2,0.3c-1.2,0.6-2.2,1.5-2.9,2.6
			c-0.7,1.1-1.2,2.2-1.6,3.5l0.3-0.2c1.8-1,3.6-2.1,5.3-3.4c0.4-0.3,0.7-0.6,1-1C78,128.8,78,128.3,77.9,127.9z"/>
	</g>
	<g id="Group_7074">
		<path id="Path_3259" class="st2" d="M95.4,158.1c0.6-0.2,1.2-0.6,1.7-1.1c0.4-0.5,0.6-1.3,0.1-1.7c-0.4-0.2-0.9-0.2-1.4-0.1
			c-3.4,0.8-6.3,3-8.1,6.1L95.4,158.1z"/>
	</g>
	<g id="Group_7075">
		<path id="Path_3260" class="st2" d="M71.2,133.7l-0.2,0.1c-2.4-0.6-5-0.5-7.3,0.5c-0.4,0.1-0.8,0.4-1.1,0.7
			c-0.3,0.3-0.5,0.7-0.4,1.1c0.2,0.6,1,0.7,1.6,0.6C66.6,136.5,69.2,135.5,71.2,133.7z"/>
	</g>
	<g id="Group_7076">
		<path id="Path_3261" class="st2" d="M64.7,127.8c-1.9-3.1-5.2-5.1-8.8-5.4c-0.4-0.1-0.8,0-1.2,0c-0.4,0.1-0.8,0.4-1,0.7
			c-0.3,0.7,0.2,1.3,0.7,1.8c2.7,2.1,6.5,2.4,10.2,2.7L64.7,127.8z"/>
	</g>
	<g id="Group_7077">
		<path id="Path_3262" class="st2" d="M79,144.1C79,144.1,79,144.1,79,144.1L79,144.1L79,144.1c-2.6-1.5-5.7-1.7-8.4-0.6
			c-0.6,0.3-1.4,0.8-1.4,1.4c0,0.7,0.8,1,1.5,1.1C73.6,146.4,76.5,145.7,79,144.1L79,144.1L79,144.1z"/>
	</g>
	<g id="Group_7078">
		<path id="Path_3263" class="st2" d="M67.5,130.6l0.2-0.2c-1.4-0.3-2.7-0.4-4.1-0.4c-1.5,0-2.9,0.4-4.2,1c-0.4,0.2-0.8,0.5-1.1,0.8
			c-0.3,0.3-0.4,0.8-0.3,1.2c0.2,0.6,1.1,0.7,1.8,0.6C62.6,133.3,65.2,132.2,67.5,130.6z"/>
	</g>
	<g id="Group_7079">
		<path id="Path_3264" class="st2" d="M85.6,137c-0.4-0.2-0.8-0.2-1.2,0c-1.5,0.5-2.8,1.5-3.7,2.9c-0.8,1.3-1.4,2.7-1.7,4.1
			c2.1-1.4,4.1-3,6-4.8c0.3-0.3,0.6-0.7,0.8-1.1C86,137.8,86,137.3,85.6,137z"/>
	</g>
	<g id="Group_7080">
		<path id="Path_3265" class="st2" d="M87.7,161.5C87.7,161.4,87.7,161.4,87.7,161.5C87.7,161.4,87.7,161.4,87.7,161.5L87.7,161.5
			c-2.3-2.4-5.3-3.8-8.5-4.1c-0.6-0.1-1.3,0-1.8,0.4c-0.4,0.5-0.4,1.3,0,1.8c0.8,0.9,2,1.4,3.2,1.5c2.3,0.4,4.6,0.6,6.9,0.5l0,0
			l0,0.1c0,0,0-0.1,0.1-0.1c0.1,0,0.2,0,0.3,0L87.7,161.5z"/>
	</g>
	<g id="Group_7081">
		<path id="Path_3266" class="st2" d="M89.3,168c-0.1,0-0.1,0-0.2,0c0.1,0.1,0.2,0.2,0.2,0.3L89.3,168z"/>
	</g>
	<g id="Group_7082">
		<path id="Path_3267" class="st2" d="M79.2,162.9c-0.4,0-0.9,0.1-1.3,0.3c-0.4,0.2-0.7,0.5-0.9,1c-0.1,0.4,0,0.8,0.3,1.1
			c0.8,0.8,1.7,1.3,2.8,1.5c2.9,0.8,5.9,1.2,8.9,1.1c-1.1-1.5-2.4-2.7-4-3.6C83.3,163.3,81.3,162.8,79.2,162.9z"/>
	</g>
	<g id="Group_7083">
		<path id="Path_3268" class="st2" d="M78.1,172.9c-0.1,0.3,0,0.7,0.2,1c0.2,0.3,0.5,0.5,0.8,0.6c1.8,0.9,3.7,1.5,5.7,1.7
			c2,0.2,4,0.3,6,0.2l-0.2,0.2c2.9-0.5,5.7-1.6,8.3-3c0.4-0.2,0.8-0.5,1.2-0.9c0.3-0.3,0.4-0.9,0.2-1.3c-0.4-0.3-0.9-0.5-1.3-0.3
			c-3.3,0.4-6.3,2.3-8,5.2l0,0c-1.9-2.7-4.9-4.4-8.2-4.8c-1.1-0.2-2.3-0.1-3.4,0.4C78.7,171.9,78.3,172.3,78.1,172.9z"/>
	</g>
	<g id="Group_7084">
		<path id="Path_3269" class="st2" d="M90.1,180.5c-0.5-20.5-10.4-39.5-27-51.6c-1-0.7,0.6-2.3,1.6-1.6c17,12.4,26.8,31.5,27.5,53
			C92.3,181.6,90.2,181.7,90.1,180.5z"/>
	</g>
</g>
<g id="Group_7102" transform="translate(-53.563 -44.323)" class="st17">
	<g id="Group_7086">
		<path id="Path_3270" class="st2" d="M105.6,149.9c0.3-0.1,0.7-0.3,0.7-0.6c0-0.3-0.4-0.6-0.8-0.6c-2.1-0.5-4.4,0-6.1,1.3l0,0.1
			c-1.3-1.5-3.1-2.5-5-2.9c-0.4-0.2-0.9-0.1-1.3,0.2c-0.2,0.2-0.2,0.6-0.1,0.8c0.2,0.3,0.4,0.5,0.7,0.6c1.7,1.1,3.7,1.6,5.8,1.5
			l0-0.2l0,0C101.5,149.7,103.7,150.4,105.6,149.9z"/>
	</g>
	<g id="Group_7087">
		<path id="Path_3271" class="st2" d="M105.6,155.3c0.2,0,0.5-0.1,0.7-0.3c0.2-0.3,0.2-0.6-0.1-0.8c-0.2-0.2-0.5-0.4-0.9-0.5
			c-2.1-0.6-4.4-0.2-6.2,1.1l-0.1,0.2c-1.1-1.9-2.7-3.3-4.8-4.1c-0.4-0.2-0.9-0.2-1.4,0c-0.2,0.2-0.2,0.5-0.1,0.7
			c0.1,0.2,0.3,0.5,0.5,0.6c1.6,1.5,3.6,2.5,5.8,2.8v0l4.6,0.3C104.3,155.4,104.9,155.4,105.6,155.3z"/>
	</g>
	<g id="Group_7088">
		<path id="Path_3272" class="st2" d="M97.3,164.4c2,1,4.1,1.6,6.3,1.7c0.4,0,0.9,0,1.1-0.3c0.2-0.4-0.1-0.8-0.4-1
			c-1-0.7-2.2-1-3.5-1c-1.2,0-2.5,0.2-3.7,0.5L97.3,164.4z"/>
	</g>
	<g id="Group_7089">
		<path id="Path_3273" class="st2" d="M105.3,140.1c0-0.4-0.5-0.7-1-0.7c-1.1-0.1-2.1,0.1-3.1,0.5c-0.9,0.5-1.7,1.1-2.4,1.9v0
			c-0.9-0.9-2-1.6-3.2-2c-0.4-0.1-0.7-0.1-1.1-0.1c-0.3,0.1-0.6,0.3-0.7,0.7c0,0.4,0.3,0.6,0.6,0.8c1.3,0.6,2.7,0.9,4.2,0.8l0.3-0.1
			c1.8-0.1,3.6-0.4,5.4-1C104.8,140.8,105.3,140.5,105.3,140.1z"/>
	</g>
	<g id="Group_7090">
		<path id="Path_3274" class="st2" d="M104.2,136.4c0-0.3-0.2-0.5-0.4-0.7c-0.3-0.1-0.6-0.2-0.9-0.2c-0.9-0.1-1.8,0.1-2.6,0.6
			c-0.8,0.4-1.5,0.9-2.2,1.5l0.2,0c1.4,0,2.9,0,4.3-0.2c0.3,0,0.7-0.1,1-0.3C103.9,136.9,104.1,136.7,104.2,136.4z"/>
	</g>
	<g id="Group_7091">
		<path id="Path_3275" class="st2" d="M104.2,160.5c0.5,0.1,0.9,0.1,1.4,0c0.4-0.2,0.8-0.6,0.6-1c-0.2-0.3-0.5-0.5-0.8-0.5
			c-2.3-0.7-4.8-0.4-6.9,0.9L104.2,160.5z"/>
	</g>
	<g id="Group_7092">
		<path id="Path_3276" class="st2" d="M98.2,137.6l-0.2,0c-1.2-1.2-2.8-2-4.5-2.2c-0.3-0.1-0.6-0.1-0.9,0c-0.3,0.1-0.5,0.3-0.6,0.5
			c-0.1,0.4,0.4,0.7,0.8,0.9C94.5,137.6,96.4,137.9,98.2,137.6z"/>
	</g>
	<g id="Group_7093">
		<path id="Path_3277" class="st2" d="M96.3,131.8c-0.1-2.5-1.3-4.8-3.4-6.3c-0.2-0.2-0.5-0.3-0.7-0.4c-0.3-0.1-0.6,0-0.8,0.1
			c-0.4,0.3-0.4,0.9-0.2,1.3c0.9,2.2,3.1,3.7,5.1,5.1L96.3,131.8z"/>
	</g>
	<g id="Group_7094">
		<path id="Path_3278" class="st2" d="M99.3,146.5C99.3,146.5,99.3,146.5,99.3,146.5L99.3,146.5L99.3,146.5c-1-1.8-2.8-3-4.8-3.3
			c-0.5-0.1-1.1,0-1.3,0.4c-0.3,0.4,0.1,0.9,0.5,1.2C95.3,146,97.2,146.6,99.3,146.5L99.3,146.5L99.3,146.5z"/>
	</g>
	<g id="Group_7095">
		<path id="Path_3279" class="st2" d="M97,134.4l0.2-0.1c-0.7-0.6-1.5-1.2-2.3-1.7c-0.9-0.5-1.9-0.8-2.9-0.8c-0.3,0-0.6,0-0.9,0.1
			c-0.3,0.1-0.5,0.3-0.6,0.6c-0.1,0.4,0.4,0.8,0.9,1C93.2,134.3,95.1,134.6,97,134.4z"/>
	</g>
	<g id="Group_7096">
		<path id="Path_3280" class="st2" d="M105.7,144.5c-0.2-0.2-0.4-0.4-0.7-0.4c-1.1-0.2-2.2,0-3.2,0.5c-0.9,0.5-1.7,1.1-2.4,1.9
			c1.8-0.1,3.5-0.4,5.2-0.8c0.3-0.1,0.6-0.2,0.9-0.4C105.7,145.1,105.8,144.8,105.7,144.5z"/>
	</g>
	<g id="Group_7097">
		<path id="Path_3281" class="st2" d="M98.5,159.8C98.5,159.8,98.5,159.8,98.5,159.8C98.5,159.8,98.5,159.8,98.5,159.8L98.5,159.8
			c-0.5-2.2-1.8-4.1-3.7-5.4c-0.3-0.3-0.8-0.4-1.2-0.3c-0.4,0.2-0.7,0.6-0.6,1.1c0.2,0.8,0.7,1.5,1.4,2c1.2,1,2.5,1.9,4,2.7l0,0
			l0,0.1l0.1,0c0.1,0,0.1,0.1,0.2,0.1L98.5,159.8z"/>
	</g>
	<g id="Group_7098">
		<path id="Path_3282" class="st2" d="M97.1,164.3c0,0-0.1,0-0.1-0.1c0,0.1,0,0.2,0,0.3L97.1,164.3z"/>
	</g>
	<g id="Group_7099">
		<path id="Path_3283" class="st2" d="M92.9,157.8c-0.3-0.2-0.6-0.2-0.9-0.3c-0.3,0-0.6,0.1-0.9,0.3c-0.2,0.2-0.3,0.5-0.2,0.8
			c0.2,0.7,0.6,1.4,1.1,1.9c1.4,1.5,3.1,2.8,4.9,3.8c-0.1-1.2-0.5-2.4-1.1-3.5C95.2,159.5,94.2,158.5,92.9,157.8z"/>
	</g>
	<g id="Group_7100">
		<path id="Path_3284" class="st2" d="M88.8,163.3c-0.2,0.2-0.2,0.4-0.2,0.7c0,0.2,0.1,0.4,0.3,0.6c0.7,1.2,1.7,2.2,2.8,3
			c1.1,0.8,2.3,1.5,3.5,2.2l-0.2,0.1c1.9,0.7,3.9,1,6,1c0.3,0,0.7,0,1-0.1c0.3-0.1,0.5-0.4,0.5-0.7c0-0.3-0.4-0.5-0.7-0.7
			c-2.1-0.9-4.6-0.8-6.6,0.3v0c-0.2-2.3-1.4-4.4-3.3-5.7c-0.6-0.5-1.4-0.8-2.1-0.9C89.5,163,89.1,163.1,88.8,163.3z"/>
	</g>
	<g id="Group_7101">
		<path id="Path_3285" class="st2" d="M93.4,172c6.8-12.4,7.4-27.2,1.7-40.1c-0.4-0.8,1.1-1.2,1.5-0.4c5.8,13.3,5.2,28.5-1.8,41.2
			C94.3,173.5,93,172.8,93.4,172z"/>
	</g>
</g>
<g id="Group_7119" transform="translate(-53.563 -44.323)">
	<g id="Group_7103">
		<path id="Path_3286" class="st2" d="M89.5,143.7c0.4-0.4,0.7-0.9,0.5-1.3c-0.2-0.4-0.9-0.4-1.5-0.2c-3,0.9-5.5,3.2-6.7,6.1l0,0.2
			c-2.7-0.9-5.7-1-8.5,0c-0.6,0.2-1.4,0.6-1.5,1.2c-0.1,0.4,0.1,0.9,0.5,1.1c0.4,0.2,0.8,0.3,1.3,0.3c3,0.1,5.9-0.7,8.4-2.3
			l-0.1-0.2l0,0C84.2,146.6,87.4,145.9,89.5,143.7z"/>
	</g>
	<g id="Group_7104">
		<path id="Path_3287" class="st2" d="M93.3,150.6c0.3-0.2,0.5-0.5,0.6-0.8c0.1-0.5-0.2-0.9-0.7-1c-0.5-0.1-1-0.1-1.4,0
			c-3.1,0.7-5.7,2.9-7.1,5.9l0,0.3c-2.7-1.6-5.8-2.2-8.9-1.7c-0.7,0.1-1.5,0.4-1.7,1c-0.1,0.4,0,0.8,0.3,1c0.3,0.2,0.7,0.4,1,0.4
			c3.1,0.7,6.4,0.5,9.3-0.7l0,0c2-1,4-2,6.1-2.9C91.7,151.7,92.6,151.2,93.3,150.6z"/>
	</g>
	<g id="Group_7105">
		<path id="Path_3288" class="st2" d="M89.5,168.1c3.2-0.2,6.3-1,9.2-2.4c0.5-0.3,1.2-0.7,1.2-1.2c0-0.6-0.7-0.9-1.3-1
			c-1.8-0.1-3.5,0.4-5.1,1.3c-1.5,1-3,2.1-4.3,3.3L89.5,168.1z"/>
	</g>
	<g id="Group_7106">
		<path id="Path_3289" class="st2" d="M82,131.7c-0.3-0.5-1.2-0.4-1.8-0.2c-1.4,0.6-2.6,1.6-3.5,2.9c-0.8,1.2-1.3,2.6-1.6,4.1l0,0
			c-1.8-0.5-3.7-0.5-5.5-0.2c-0.5,0.1-1,0.4-1.4,0.7c-0.4,0.3-0.5,0.9-0.4,1.4c0.3,0.4,0.9,0.7,1.4,0.6c2,0,4-1,5.8-2l0.3-0.3
			c2.2-1.5,4.3-3.2,6-5.2C81.8,133,82.3,132.3,82,131.7z"/>
	</g>
	<g id="Group_7107">
		<path id="Path_3290" class="st2" d="M77.9,127.9c-0.2-0.3-0.6-0.5-1-0.5c-0.4,0-0.9,0.1-1.2,0.3c-1.2,0.6-2.2,1.5-2.9,2.6
			c-0.7,1.1-1.2,2.2-1.6,3.5l0.3-0.2c1.8-1,3.6-2.1,5.3-3.4c0.4-0.3,0.7-0.6,1-1C78,128.8,78,128.3,77.9,127.9z"/>
	</g>
	<g id="Group_7108">
		<path id="Path_3291" class="st2" d="M95.4,158.1c0.6-0.2,1.2-0.6,1.7-1.1c0.4-0.5,0.6-1.3,0.1-1.7c-0.4-0.2-0.9-0.2-1.4-0.1
			c-3.4,0.8-6.3,3-8.1,6.1L95.4,158.1z"/>
	</g>
	<g id="Group_7109">
		<path id="Path_3292" class="st2" d="M71.2,133.7l-0.2,0.1c-2.4-0.6-5-0.5-7.3,0.5c-0.4,0.1-0.8,0.4-1.1,0.7
			c-0.3,0.3-0.5,0.7-0.4,1.1c0.2,0.6,1,0.7,1.6,0.6C66.6,136.5,69.2,135.5,71.2,133.7z"/>
	</g>
	<g id="Group_7110">
		<path id="Path_3293" class="st2" d="M64.7,127.8c-1.9-3.1-5.2-5.1-8.8-5.4c-0.4-0.1-0.8,0-1.2,0c-0.4,0.1-0.8,0.4-1,0.7
			c-0.3,0.7,0.2,1.3,0.7,1.8c2.7,2.1,6.5,2.4,10.2,2.7L64.7,127.8z"/>
	</g>
	<g id="Group_7111">
		<path id="Path_3294" class="st2" d="M79,144.1C79,144.1,79,144.1,79,144.1L79,144.1L79,144.1c-2.6-1.5-5.7-1.7-8.4-0.6
			c-0.6,0.3-1.4,0.8-1.4,1.4c0,0.7,0.8,1,1.5,1.1C73.6,146.4,76.5,145.7,79,144.1L79,144.1L79,144.1z"/>
	</g>
	<g id="Group_7112">
		<path id="Path_3295" class="st2" d="M67.5,130.6l0.2-0.2c-1.4-0.3-2.7-0.4-4.1-0.4c-1.5,0-2.9,0.4-4.2,1c-0.4,0.2-0.8,0.5-1.1,0.8
			c-0.3,0.3-0.4,0.8-0.3,1.2c0.2,0.6,1.1,0.7,1.8,0.6C62.6,133.3,65.2,132.2,67.5,130.6z"/>
	</g>
	<g id="Group_7113">
		<path id="Path_3296" class="st2" d="M85.6,137c-0.4-0.2-0.8-0.2-1.2,0c-1.5,0.5-2.8,1.5-3.7,2.9c-0.8,1.3-1.4,2.7-1.7,4.1
			c2.1-1.4,4.1-3,6-4.8c0.3-0.3,0.6-0.7,0.8-1.1C86,137.8,86,137.3,85.6,137z"/>
	</g>
	<g id="Group_7114">
		<path id="Path_3297" class="st2" d="M87.7,161.5C87.7,161.4,87.7,161.4,87.7,161.5C87.7,161.4,87.7,161.4,87.7,161.5L87.7,161.5
			c-2.3-2.4-5.3-3.8-8.5-4.1c-0.6-0.1-1.3,0-1.8,0.4c-0.4,0.5-0.4,1.3,0,1.8c0.8,0.9,2,1.4,3.2,1.5c2.3,0.4,4.6,0.6,6.9,0.5l0,0
			l0,0.1c0,0,0-0.1,0.1-0.1c0.1,0,0.2,0,0.3,0L87.7,161.5z"/>
	</g>
	<g id="Group_7115">
		<path id="Path_3298" class="st2" d="M89.3,168c-0.1,0-0.1,0-0.2,0c0.1,0.1,0.2,0.2,0.2,0.3L89.3,168z"/>
	</g>
	<g id="Group_7116">
		<path id="Path_3299" class="st2" d="M79.2,162.9c-0.4,0-0.9,0.1-1.3,0.3c-0.4,0.2-0.7,0.5-0.9,1c-0.1,0.4,0,0.8,0.3,1.1
			c0.8,0.8,1.7,1.3,2.8,1.5c2.9,0.8,5.9,1.2,8.9,1.1c-1.1-1.5-2.4-2.7-4-3.6C83.3,163.3,81.3,162.8,79.2,162.9z"/>
	</g>
	<g id="Group_7117">
		<path id="Path_3300" class="st2" d="M78.1,172.9c-0.1,0.3,0,0.7,0.2,1c0.2,0.3,0.5,0.5,0.8,0.6c1.8,0.9,3.7,1.5,5.7,1.7
			c2,0.2,4,0.3,6,0.2l-0.2,0.2c2.9-0.5,5.7-1.6,8.3-3c0.4-0.2,0.8-0.5,1.2-0.9c0.3-0.3,0.4-0.9,0.2-1.3c-0.4-0.3-0.9-0.5-1.3-0.3
			c-3.3,0.4-6.3,2.3-8,5.2l0,0c-1.9-2.7-4.9-4.4-8.2-4.8c-1.1-0.2-2.3-0.1-3.4,0.4C78.7,171.9,78.3,172.3,78.1,172.9z"/>
	</g>
	<g id="Group_7118">
		<path id="Path_3301" class="st2" d="M90.1,180.5c-0.5-20.5-10.4-39.5-27-51.6c-1-0.7,0.6-2.3,1.6-1.6c17,12.4,26.8,31.5,27.5,53
			C92.3,181.6,90.2,181.7,90.1,180.5z"/>
	</g>
</g>
</svg>
