<svg id="Component_43_1" data-name="Component 43 – 1" xmlns="http://www.w3.org/2000/svg" xmlns:xlink="http://www.w3.org/1999/xlink" width="256.124" height="177.328" viewBox="0 0 256.124 177.328">
  <defs>
    <clipPath id="clip-path">
      <path id="Path_4614" data-name="Path 4614" d="M640.54,192.8c0,7.482-45.414,22.1-101.436,22.1s-101.438-14.617-101.438-22.1Z" fill="#c8e7eb"/>
    </clipPath>
    <clipPath id="clip-path-2">
      <rect id="Rectangle_3291" data-name="Rectangle 3291" width="6.865" height="32.289" transform="translate(452.476 163.406)" fill="none"/>
    </clipPath>
    <clipPath id="clip-path-3">
      <path id="Path_4633" data-name="Path 4633" d="M452.719,193.9l-5.789,3.5L426.375,166.84l5.791-3.5Z" fill="none"/>
    </clipPath>
    <clipPath id="clip-path-4">
      <rect id="Rectangle_3292" data-name="Rectangle 3292" width="4.555" height="21.419" transform="translate(461.097 182.539)" fill="none"/>
    </clipPath>
    <clipPath id="clip-path-5">
      <path id="Path_4640" data-name="Path 4640" d="M465.49,202.768l3.84,2.321,13.634-20.271-3.841-2.321Z" fill="none"/>
    </clipPath>
  </defs>
  <g id="Group_7852" data-name="Group 7852" transform="translate(-407.823 -37.574)" opacity="0.6">
    <g id="Group_7851" data-name="Group 7851">
      <path id="Path_4611" data-name="Path 4611" d="M640.54,192.8c0,7.482-45.414,22.1-101.436,22.1s-101.438-14.617-101.438-22.1Z" fill="#c8e7eb"/>
      <g id="Group_7850" data-name="Group 7850" clip-path="url(#clip-path)">
        <g id="Group_7848" data-name="Group 7848">
          <path id="Path_4612" data-name="Path 4612" d="M640.54,203.73l-202.874.113V192.8H640.54Z" fill="#c8e7eb"/>
        </g>
        <g id="Group_7849" data-name="Group 7849">
          <path id="Path_4613" data-name="Path 4613" d="M437.666,203.844l202.874-.113V214.9H437.666Z" fill="#c8e7eb"/>
        </g>
      </g>
    </g>
  </g>
  <g id="Group_7853" data-name="Group 7853" transform="translate(-407.823 -37.574)" opacity="0.4">
    <path id="Path_4615" data-name="Path 4615" d="M571.992,49.082q.825.309,1.647.633c.285.11.567.22.849.331q.812.323,1.617.651c.3.118.587.238.881.36.522.216,1.042.432,1.561.652q.476.2.95.408c.491.212.983.424,1.472.642.353.154.7.313,1.052.469.453.2.906.406,1.358.616.4.183.808.373,1.212.563s.792.369,1.182.555c.493.233.983.473,1.472.712.307.15.616.3.924.448q1.2.591,2.382,1.2c14.1,7.226,27.341,16.268,36.836,28.08s14.982,26.639,12.723,41.056c-1.6,10.216-9,21.04-20.089,22.58-.635.087-1.291.142-1.955.173a65.666,65.666,0,0,1-8.181-.607c-.577-.051-1.153-.089-1.731-.121-.167-.01-.337-.014-.506-.021-.409-.018-.817-.034-1.226-.044-.2,0-.4-.005-.6-.007-.381,0-.762-.007-1.143,0-.206,0-.411,0-.617.008-.38.008-.76.018-1.141.032-.2.009-.4.016-.594.023-.4.021-.8.042-1.193.068-.179.012-.356.02-.534.033q-.669.048-1.341.11c-.125.011-.251.019-.377.032q-1.759.165-3.515.406c-.077.009-.153.021-.231.033q-.747.1-1.494.216c-.152.022-.3.048-.457.071q-.637.1-1.274.2l-.519.09q-.613.1-1.224.215-.264.045-.527.1-.62.111-1.241.231l-.482.093c-.446.086-.893.175-1.337.262l-.376.076c-.56.111-1.117.226-1.676.342l-.023,0-.073.016a33.974,33.974,0,0,1,1.776,9.95c.015,13.1-11.091,23.955-22.454,32.2-13.825,10.029-31.153,18.773-48.583,15.588-8.814-1.62-16.623-6.153-23.6-11.256q-2.088-1.524-4.105-3.127c-2.092.141-4.194.187-6.293.138-.148,0-.3,0-.446-.007-.377-.013-.755-.029-1.132-.046-.236-.013-.472-.023-.709-.036-.329-.02-.657-.039-.986-.064l-.883-.068c-.284-.024-.568-.048-.853-.077-.369-.035-.738-.075-1.107-.116-.216-.026-.431-.046-.647-.073q-1.8-.221-3.59-.535l-.375-.072c-.473-.085-.943-.175-1.414-.271l-.492-.1q-.648-.137-1.289-.285l-.53-.127c-.423-.1-.841-.207-1.26-.318-.171-.045-.343-.089-.514-.136-.441-.119-.88-.244-1.316-.372-.145-.042-.289-.081-.432-.125-.577-.174-1.151-.353-1.723-.542a66.666,66.666,0,0,1-40.518-38.245c-6.763-17.106-6-36.189.06-53.5a85.387,85.387,0,0,1,16-27.942c17.25-19.828,45.1-31.12,73.111-32.667q1.517-.084,3.034-.128c.339-.012.674-.018,1.01-.025q1.035-.025,2.067-.034c.37,0,.739,0,1.107,0,.793,0,1.586,0,2.379.017.2.005.406.005.611.011q1.621.036,3.241.106a91.821,91.821,0,0,1,20.094-1.039c7.9.473,16.079,2.067,22.165,6.6a25.446,25.446,0,0,1,4.271,4.042c.344.127.684.257,1.026.383C571.423,48.868,571.707,48.973,571.992,49.082Z" fill="#d8e081"/>
  </g>
  <g id="Group_7854" data-name="Group 7854" transform="translate(-407.823 -37.574)" opacity="0.4">
    <path id="Path_4616" data-name="Path 4616" d="M610.493,159.588a19.6,19.6,0,0,0,10.769,1.824c10.675-1.148,12.285,14.063,1.752,16.007-5.73,1.059-11.644-2.53-15.024-6.939-4.391-5.73-5.443-12.627-6.985-19.478.734,3.267,5.925,6.715,8.634,8.154Q610.067,159.383,610.493,159.588Z" fill="#d8e081"/>
  </g>
  <path id="Path_4617" data-name="Path 4617" d="M475.7,190.148c0-1.166,17.553-2.111,39.2-2.111s39.206.945,39.206,2.111-17.553,2.11-39.206,2.11S475.7,191.313,475.7,190.148Z" transform="translate(-407.823 -37.574)" fill="#00b0c4"/>
  <path id="Path_4618" data-name="Path 4618" d="M533.7,201.481c0-1.165,17.553-2.11,39.205-2.11s39.206.945,39.206,2.11-17.553,2.111-39.206,2.111S533.7,202.646,533.7,201.481Z" transform="translate(-407.823 -37.574)" fill="#00b0c4"/>
  <g id="Group_7855" data-name="Group 7855" transform="translate(-407.823 -37.574)">
    <path id="Path_4619" data-name="Path 4619" d="M463.741,51.953a49.143,49.143,0,0,0-.634,8.207c0,24.881,6.408,117.992,6.408,117.992,0,5.621,17.469,10.178,39.017,10.178s39.017-4.557,39.017-10.178c0,0,6.408-93.111,6.408-117.992a29.125,29.125,0,0,0-.852-6.941C541.148,46.15,512.97,35.9,463.741,51.953Z" fill="#a7e5ea"/>
    <path id="Path_4620" data-name="Path 4620" d="M465.1,59.03c-.029.562-.112,1.077-.112,1.665,0,24.364,6.17,115.543,6.17,115.543,0,5.5,16.814,9.967,37.558,9.967s37.56-4.462,37.56-9.967c0,0,6.169-91.179,6.169-115.543,0-.588.029-2.658,0-3.22Z" fill="#a0ddf2"/>
    <ellipse id="Ellipse_6" data-name="Ellipse 6" cx="43.729" cy="11.246" rx="43.729" ry="11.246" transform="translate(465.055 46.59)" fill="#6db2b2" opacity="0.4"/>
    <path id="Path_4621" data-name="Path 4621" d="M543.635,72.063c4.962,9.867,3.116,21.943-1.445,32-4.739,10.457-12.553,19.838-22.942,24.719s-23.473,4.65-32.756-2.1c-9.182-6.681-13.387-18.446-14.23-29.769-.929-12.486,1.619-26.754,10.891-36.135,11.56-11.693,28.972-9.387,42.961-3.8C533.431,59.9,540.093,65.024,543.635,72.063Z" fill="#fff" opacity="0.37"/>
    <path id="Path_4622" data-name="Path 4622" d="M512.968,89.669c-.077-3.773-2.167-7.308-6.28-8.1-4.989-.961-10.424,2.563-13.719,5.987-3.73,3.877-8.909,11.893-3.161,16.452,4.6,3.643,11.828.013,15.961-2.679a16,16,0,0,0,6.62-7.945A10.851,10.851,0,0,0,512.968,89.669Z" fill="#fff" opacity="0.85"/>
    <path id="Path_4623" data-name="Path 4623" d="M478.306,70.724a6.215,6.215,0,0,0,.3,4.1,5.081,5.081,0,0,0,5.168,2.586,6.587,6.587,0,0,0,4.778-3.531,9.452,9.452,0,0,0,.77-6.012c-.228-1.273-.8-2.659-2.017-3.1a8.261,8.261,0,0,0-1.457-.258,4.814,4.814,0,0,1-1.859-.738A10.265,10.265,0,0,0,478.306,70.724Z" fill="#fff" opacity="0.85"/>
  </g>
  <g id="Group_7856" data-name="Group 7856" transform="translate(-407.823 -37.574)">
    <path id="Path_4624" data-name="Path 4624" d="M527.741,64.707a49.14,49.14,0,0,0-.634,8.207c0,24.881,6.408,117.992,6.408,117.992,0,5.621,17.469,10.178,39.017,10.178s39.017-4.557,39.017-10.178c0,0,6.408-93.111,6.408-117.992a29.125,29.125,0,0,0-.852-6.941C605.148,58.9,576.97,48.651,527.741,64.707Z" fill="#a7e5ea"/>
    <path id="Path_4625" data-name="Path 4625" d="M529.1,71.784c-.029.562-.112,1.077-.112,1.665,0,24.364,6.17,115.543,6.17,115.543,0,5.5,16.814,9.967,37.558,9.967s37.56-4.462,37.56-9.967c0,0,6.169-91.179,6.169-115.543,0-.588.029-2.658,0-3.221Z" fill="#a0ddf2"/>
    <ellipse id="Ellipse_7" data-name="Ellipse 7" cx="43.729" cy="11.246" rx="43.729" ry="11.246" transform="translate(529.055 59.344)" fill="#6db2b2" opacity="0.4"/>
    <path id="Path_4626" data-name="Path 4626" d="M607.635,84.816c4.962,9.867,3.116,21.944-1.445,32-4.739,10.457-12.553,19.838-22.942,24.719s-23.473,4.65-32.756-2.1c-9.182-6.68-13.387-18.445-14.23-29.768-.929-12.486,1.619-26.754,10.891-36.135,11.56-11.693,28.972-9.388,42.961-3.8C597.431,72.652,604.093,77.778,607.635,84.816Z" fill="#fff" opacity="0.37"/>
    <path id="Path_4627" data-name="Path 4627" d="M576.968,102.423c-.077-3.773-2.167-7.308-6.28-8.1-4.989-.961-10.424,2.563-13.719,5.986-3.73,3.877-8.909,11.894-3.161,16.453,4.6,3.643,11.828.013,15.961-2.679a16,16,0,0,0,6.62-7.945A10.851,10.851,0,0,0,576.968,102.423Z" fill="#fff" opacity="0.85"/>
    <path id="Path_4628" data-name="Path 4628" d="M542.306,83.478a6.214,6.214,0,0,0,.295,4.1,5.081,5.081,0,0,0,5.168,2.586,6.587,6.587,0,0,0,4.778-3.531,9.452,9.452,0,0,0,.77-6.012c-.228-1.273-.8-2.659-2.017-3.1a8.169,8.169,0,0,0-1.457-.258,4.815,4.815,0,0,1-1.859-.738A10.264,10.264,0,0,0,542.306,83.478Z" fill="#fff" opacity="0.85"/>
  </g>
  <g id="Group_7875" data-name="Group 7875" transform="translate(-407.823 -37.574)" opacity="0.7">
    <g id="Group_7858" data-name="Group 7858">
      <g id="Group_7857" data-name="Group 7857">
        <path id="Path_4629" data-name="Path 4629" d="M438.754,169.935c13.22,9.37,16.949,25.829,16.949,25.829s-17.709,1.27-30.931-8.1-16.949-25.828-16.949-25.828,17.708-1.269,30.931,8.1" fill="#d8e081"/>
      </g>
    </g>
    <g id="Group_7860" data-name="Group 7860">
      <g id="Group_7859" data-name="Group 7859">
        <path id="Path_4630" data-name="Path 4630" d="M455.691,195.6s.195-.1.547-.306c.279-.164.664-.391,1.129-.683,4.155-2.6,14.917-10.227,19.331-22.006,5.523-14.747-1-30.4-1-30.4s-14.229,7.582-20.271,21.2c-.263.586-.507,1.184-.737,1.8-4.8,12.829-.493,26.351.708,29.647.183.493.29.756.29.756" fill="#00b0c4"/>
      </g>
    </g>
    <g id="Group_7865" data-name="Group 7865" opacity="0.1" style="isolation: isolate">
      <g id="Group_7864" data-name="Group 7864">
        <g id="Group_7863" data-name="Group 7863" clip-path="url(#clip-path-2)">
          <g id="Group_7862" data-name="Group 7862">
            <g id="Group_7861" data-name="Group 7861">
              <path id="Path_4631" data-name="Path 4631" d="M455.4,194.849c.323.177.605.328.837.45.509.264.791.4.791.4s.135-.381.338-1.079c1.118-3.816,4.322-17.116-1.04-29.332q-.423-.961-.9-1.878c-.263.586-.507,1.186-.737,1.795-4.807,12.829-.492,26.352.708,29.648"/>
            </g>
          </g>
        </g>
      </g>
    </g>
    <g id="Group_7870" data-name="Group 7870" opacity="0.1" style="isolation: isolate">
      <g id="Group_7869" data-name="Group 7869">
        <g id="Group_7868" data-name="Group 7868" clip-path="url(#clip-path-3)">
          <g id="Group_7867" data-name="Group 7867">
            <g id="Group_7866" data-name="Group 7866">
              <path id="Path_4632" data-name="Path 4632" d="M448.857,195.109c.386,0,.719,0,.992,0,.6-.009.92-.028.92-.028s-.13-.429-.4-1.192c-1.484-4.184-7.249-18.405-19.548-27.233q-.966-.695-1.951-1.32c.15.687.326,1.379.521,2.074,4.115,14.592,16.359,25.192,19.469,27.7"/>
            </g>
          </g>
        </g>
      </g>
    </g>
    <g id="Group_7872" data-name="Group 7872">
      <g id="Group_7871" data-name="Group 7871">
        <path id="Path_4634" data-name="Path 4634" d="M433.234,174.32c6.34,14.447,22.26,21.908,22.26,21.908s5.64-15.962-.7-30.412-22.261-21.908-22.261-21.908-5.64,15.964.7,30.412" fill="#00abc4"/>
      </g>
    </g>
    <g id="Group_7874" data-name="Group 7874" opacity="0.1">
      <g id="Group_7873" data-name="Group 7873">
        <path id="Path_4635" data-name="Path 4635" d="M455.541,195.73l-22.686-51.266-.4.16,22.685,51.266Z"/>
      </g>
    </g>
  </g>
  <g id="Group_7894" data-name="Group 7894" transform="translate(-407.823 -37.574)">
    <g id="Group_7877" data-name="Group 7877">
      <g id="Group_7876" data-name="Group 7876">
        <path id="Path_4636" data-name="Path 4636" d="M474.753,186.871C465.983,193.086,463.51,204,463.51,204s11.747.844,20.517-5.371S495.269,181.5,495.269,181.5s-11.746-.842-20.516,5.373" fill="#d8e081"/>
      </g>
    </g>
    <g id="Group_7879" data-name="Group 7879">
      <g id="Group_7878" data-name="Group 7878">
        <path id="Path_4637" data-name="Path 4637" d="M463.518,203.9s-.129-.068-.362-.2c-.185-.109-.44-.259-.749-.452-2.756-1.723-9.9-6.785-12.823-14.6-3.663-9.781.662-20.166.662-20.166s9.437,5.029,13.446,14.061c.175.389.336.787.489,1.191,3.187,8.512.327,17.479-.47,19.666-.121.327-.193.5-.193.5" fill="#00b0c4"/>
      </g>
    </g>
    <g id="Group_7884" data-name="Group 7884" opacity="0.1" style="isolation: isolate">
      <g id="Group_7883" data-name="Group 7883">
        <g id="Group_7882" data-name="Group 7882" clip-path="url(#clip-path-4)">
          <g id="Group_7881" data-name="Group 7881">
            <g id="Group_7880" data-name="Group 7880">
              <path id="Path_4638" data-name="Path 4638" d="M463.711,203.4c-.215.118-.4.217-.555.3-.338.175-.525.264-.525.264s-.089-.254-.224-.716c-.741-2.532-2.868-11.354.689-19.456q.282-.639.6-1.247c.175.389.336.787.489,1.191,3.188,8.51.325,17.479-.47,19.666"/>
            </g>
          </g>
        </g>
      </g>
    </g>
    <g id="Group_7889" data-name="Group 7889" opacity="0.1" style="isolation: isolate">
      <g id="Group_7888" data-name="Group 7888">
        <g id="Group_7887" data-name="Group 7887" clip-path="url(#clip-path-5)">
          <g id="Group_7886" data-name="Group 7886">
            <g id="Group_7885" data-name="Group 7885">
              <path id="Path_4639" data-name="Path 4639" d="M468.051,203.568c-.255,0-.476,0-.658,0-.4,0-.609-.018-.609-.018s.085-.285.267-.791c.984-2.775,4.808-12.208,12.965-18.063q.642-.46,1.3-.876c-.1.455-.219.914-.347,1.375-2.73,9.68-10.851,16.711-12.914,18.373"/>
            </g>
          </g>
        </g>
      </g>
    </g>
    <g id="Group_7891" data-name="Group 7891">
      <g id="Group_7890" data-name="Group 7890">
        <path id="Path_4641" data-name="Path 4641" d="M478.414,189.779c-4.2,9.582-14.764,14.531-14.764,14.531s-3.742-10.587.463-20.172,14.767-14.532,14.767-14.532,3.74,10.589-.466,20.173" fill="#00abc4"/>
      </g>
    </g>
    <g id="Group_7893" data-name="Group 7893" opacity="0.1">
      <g id="Group_7892" data-name="Group 7892">
        <path id="Path_4642" data-name="Path 4642" d="M463.619,203.98l15.047-34,.266.105-15.046,34Z"/>
      </g>
    </g>
  </g>
  <g id="Group_7942" data-name="Group 7942" transform="translate(-407.823 -37.574)">
    <g id="Group_7927" data-name="Group 7927">
      <g id="Group_7896" data-name="Group 7896">
        <g id="Group_7895" data-name="Group 7895">
          <path id="Path_4643" data-name="Path 4643" d="M615.41,164.295c-.347-.352-.663-.865-.448-1.306.239-.495.941-.509,1.486-.391a9.167,9.167,0,0,1,6.557,5.686l-.038.175a12.8,12.8,0,0,1,8.442-.926c.625.147,1.34.442,1.469,1.064a1.2,1.2,0,0,1-.535,1.167,3.013,3.013,0,0,1-1.278.434,12.857,12.857,0,0,1-8.293-1.509l.141-.205,0-.006C620.612,166.752,617.416,166.359,615.41,164.295Z" fill="#d8e081"/>
        </g>
      </g>
      <g id="Group_7898" data-name="Group 7898">
        <g id="Group_7897" data-name="Group 7897">
          <path id="Path_4644" data-name="Path 4644" d="M611.38,171.932a1.511,1.511,0,0,1-.6-.817,1.121,1.121,0,0,1,.7-1.143,2.617,2.617,0,0,1,1.422-.115,8.8,8.8,0,0,1,6.895,5.434l0,.316a13.886,13.886,0,0,1,8.946-2.695c.673.029,1.481.23,1.666.875a1.132,1.132,0,0,1-.36,1.09,2.9,2.9,0,0,1-1.046.574,14.74,14.74,0,0,1-9.294.244l.03-.031q-2.983-1.236-5.966-2.465A10.016,10.016,0,0,1,611.38,171.932Z" fill="#d8e081"/>
        </g>
      </g>
      <g id="Group_7900" data-name="Group 7900">
        <g id="Group_7899" data-name="Group 7899">
          <path id="Path_4645" data-name="Path 4645" d="M614.683,189.9a20.8,20.8,0,0,1-9.089-1.588c-.538-.222-1.157-.593-1.171-1.175-.017-.64.693-1.03,1.315-1.168a7.6,7.6,0,0,1,5.007.861,22.929,22.929,0,0,1,4.2,3.035Z" fill="#d8e081"/>
        </g>
      </g>
      <g id="Group_7902" data-name="Group 7902">
        <g id="Group_7901" data-name="Group 7901">
          <path id="Path_4646" data-name="Path 4646" d="M623.212,150.853c.328-.584,1.169-.587,1.808-.394a6.417,6.417,0,0,1,3.391,2.711,11,11,0,0,1,1.487,4.125l-.006.014a11.407,11.407,0,0,1,5.488-.743,2.689,2.689,0,0,1,1.38.619,1.271,1.271,0,0,1,.341,1.391,1.688,1.688,0,0,1-1.409.777c-2,.231-3.947-.642-5.778-1.5l-.247-.314A25.317,25.317,0,0,1,623.8,152.7C623.336,152.18,622.874,151.455,623.212,150.853Z" fill="#d8e081"/>
        </g>
      </g>
      <g id="Group_7904" data-name="Group 7904">
        <g id="Group_7903" data-name="Group 7903">
          <path id="Path_4647" data-name="Path 4647" d="M627.407,146.345a1.315,1.315,0,0,1,1.024-.65,2.508,2.508,0,0,1,1.231.207,6.206,6.206,0,0,1,2.827,2.465,14.739,14.739,0,0,1,1.521,3.475l-.308-.139a37.507,37.507,0,0,1-5.175-3.037,3.625,3.625,0,0,1-1-.984A1.4,1.4,0,0,1,627.407,146.345Z" fill="#d8e081"/>
        </g>
      </g>
      <g id="Group_7906" data-name="Group 7906">
        <g id="Group_7905" data-name="Group 7905">
          <path id="Path_4648" data-name="Path 4648" d="M609.119,180.063a3.747,3.747,0,0,1-1.689-.946,1.288,1.288,0,0,1-.022-1.757,1.733,1.733,0,0,1,1.359-.221,10.76,10.76,0,0,1,7.9,5.574Z" fill="#d8e081"/>
        </g>
      </g>
      <g id="Group_7908" data-name="Group 7908">
        <g id="Group_7907" data-name="Group 7907">
          <path id="Path_4649" data-name="Path 4649" d="M633.86,151.834l.185.125a10.766,10.766,0,0,1,7.273-.213,2.835,2.835,0,0,1,1.086.577,1.125,1.125,0,0,1,.356,1.112c-.193.628-.992.813-1.65.827A11.353,11.353,0,0,1,633.86,151.834Z" fill="#d8e081"/>
        </g>
      </g>
      <g id="Group_7910" data-name="Group 7910">
        <g id="Group_7909" data-name="Group 7909">
          <path id="Path_4650" data-name="Path 4650" d="M640.562,144.935a13.469,13.469,0,0,1,8.932-6.591,3.154,3.154,0,0,1,1.213-.077,1.3,1.3,0,0,1,.967.676c.309.678-.217,1.428-.767,1.927-2.732,2.474-6.573,3.245-10.212,3.917Z" fill="#d8e081"/>
        </g>
      </g>
      <g id="Group_7912" data-name="Group 7912">
        <g id="Group_7911" data-name="Group 7911">
          <path id="Path_4651" data-name="Path 4651" d="M625.815,163.592l-.023-.086.051.035-.012-.027a9.548,9.548,0,0,1,8.363-1.462c.641.226,1.342.678,1.338,1.36,0,.738-.828,1.174-1.544,1.355a10.761,10.761,0,0,1-8.077-1.113l-.031-.058Z" fill="#d8e081"/>
        </g>
      </g>
      <g id="Group_7914" data-name="Group 7914">
        <g id="Group_7913" data-name="Group 7913">
          <path id="Path_4652" data-name="Path 4652" d="M637.694,148.18l-.159-.226a18.992,18.992,0,0,1,4.13-.878,8.582,8.582,0,0,1,4.141.652,2.627,2.627,0,0,1,1.041.737,1.237,1.237,0,0,1,.242,1.2c-.26.67-1.124.827-1.849.824A13.619,13.619,0,0,1,637.694,148.18Z" fill="#d8e081"/>
        </g>
      </g>
      <g id="Group_7916" data-name="Group 7916">
        <g id="Group_7915" data-name="Group 7915">
          <path id="Path_4653" data-name="Path 4653" d="M619.408,156.814a1.419,1.419,0,0,1,1.231-.16,5.971,5.971,0,0,1,3.575,2.678,12.9,12.9,0,0,1,1.578,4.174,38,38,0,0,1-5.844-4.385,3.076,3.076,0,0,1-.794-1.074A1.128,1.128,0,0,1,619.408,156.814Z" fill="#d8e081"/>
        </g>
      </g>
      <g id="Group_7918" data-name="Group 7918">
        <g id="Group_7917" data-name="Group 7917">
          <path id="Path_4654" data-name="Path 4654" d="M616.706,182.781c-.012-.021-.023-.045-.039-.068a.531.531,0,0,0,.08.025l.044-.043a14.839,14.839,0,0,1,8.485-5.082,1.907,1.907,0,0,1,1.746.276,1.53,1.53,0,0,1-.068,1.877,5.723,5.723,0,0,1-3.2,1.9,32.124,32.124,0,0,1-6.922,1.267l0,0,.006.1c-.014-.037-.032-.066-.048-.1-.09.012-.177.021-.269.025Z" fill="#d8e081"/>
        </g>
      </g>
      <g id="Group_7920" data-name="Group 7920">
        <g id="Group_7919" data-name="Group 7919">
          <path id="Path_4655" data-name="Path 4655" d="M614.964,189.832c.066-.008.132-.011.2-.022-.085.123-.171.248-.252.373Z" fill="#d8e081"/>
        </g>
      </g>
      <g id="Group_7922" data-name="Group 7922">
        <g id="Group_7921" data-name="Group 7921">
          <path id="Path_4656" data-name="Path 4656" d="M625.117,183.451a3.109,3.109,0,0,1,1.3.152,1.367,1.367,0,0,1,.864.926,1.608,1.608,0,0,1-.355,1.239,6.354,6.354,0,0,1-2.823,1.91,29.852,29.852,0,0,1-8.934,2.132,16.541,16.541,0,0,1,4.052-4.236A11.133,11.133,0,0,1,625.117,183.451Z" fill="#d8e081"/>
        </g>
      </g>
      <g id="Group_7924" data-name="Group 7924">
        <g id="Group_7923" data-name="Group 7923">
          <path id="Path_4657" data-name="Path 4657" d="M626,193.773a1.333,1.333,0,0,1-.267,1.026,3.268,3.268,0,0,1-.808.727A16.175,16.175,0,0,1,619.2,197.9a43.045,43.045,0,0,1-6,.8l.145.211a23.054,23.054,0,0,1-8.179-2.328,3.207,3.207,0,0,1-1.14-.817,1.162,1.162,0,0,1-.125-1.316,1.6,1.6,0,0,1,1.336-.5,8.988,8.988,0,0,1,7.866,4.6l.019-.039a13.56,13.56,0,0,1,8.353-5.869,5.978,5.978,0,0,1,3.362.032A1.664,1.664,0,0,1,626,193.773Z" fill="#d8e081"/>
        </g>
      </g>
      <g id="Group_7926" data-name="Group 7926">
        <g id="Group_7925" data-name="Group 7925">
          <path id="Path_4658" data-name="Path 4658" d="M613.75,203.04a81.2,81.2,0,0,1,28.295-57.11c1.037-.889-.522-2.348-1.55-1.467a83.266,83.266,0,0,0-28.874,58.652C611.547,204.478,613.676,204.4,613.75,203.04Z" fill="#d8e081"/>
        </g>
      </g>
    </g>
    <g id="Group_7935" data-name="Group 7935">
      <g id="Group_7929" data-name="Group 7929">
        <g id="Group_7928" data-name="Group 7928">
          <path id="Path_4659" data-name="Path 4659" d="M612.922,204.29c.171.007.346.017.519.023-.087.132-.18.259-.276.382Z" fill="#00a3a1"/>
        </g>
      </g>
      <g id="Group_7932" data-name="Group 7932" opacity="0.4">
        <g id="Group_7931" data-name="Group 7931">
          <g id="Group_7930" data-name="Group 7930">
            <path id="Path_4660" data-name="Path 4660" d="M613.441,204.313c1.868-2.727,2.356-6.456,2.5-10.116.141-3.837-.034-7.805.879-11.361.207-.8.541-1.654,1.3-1.875.933-.273,2.106.6,2.648,1.63a7.679,7.679,0,0,1,.668,3.261,25.381,25.381,0,0,1,7.367-11.874q.831,2.775,1.666,5.558a22.859,22.859,0,0,1,7.51-8.6c.949-.643,2.267-1.185,3.375-.341,1.228.936,1.159,2.737.921,4.1a22.8,22.8,0,0,1,16.891-4.756c1.676.171,3.73.785,4.51,2.5.789,1.732-.274,3.351-1.336,4.5a59.357,59.357,0,0,1-10.477,9.037,8.9,8.9,0,0,1,3.813,1.32c1.17.836,2.058,2.441,1.632,3.616-.383,1.06-1.607,1.35-2.7,1.522q-6.3,1.029-12.769,1.475c1.482.856,3.267,2.272,3.034,3.826-.2,1.312-1.72,1.592-3,1.645q-5.313.228-10.7.073a2.918,2.918,0,0,1,1.945,2.923,2.784,2.784,0,0,1-2,2.348,9.372,9.372,0,0,1-3.348.251Q620.6,204.642,613.441,204.313Z" fill="#00abc4"/>
          </g>
        </g>
      </g>
      <g id="Group_7934" data-name="Group 7934">
        <g id="Group_7933" data-name="Group 7933">
          <path id="Path_4661" data-name="Path 4661" d="M654.4,173.853a148.687,148.687,0,0,0-18.274,11.175,40.368,40.368,0,0,1,2.452-6.4c.3-.614-.71-.948-1.006-.341A40.577,40.577,0,0,0,634.753,186h0q-5.6,4.1-10.813,8.7,1.363-5.074,2.73-10.152c.178-.655-.827-1-1-.341q-1.524,5.67-3.049,11.337a.5.5,0,0,0,.021.323c-2.022,1.829-4.012,3.7-5.932,5.637-.481.483.214,1.288.692.8,2.025-2.046,4.126-4,6.26-5.92a.522.522,0,0,0,.119.018q4.339-.287,8.675-.571c.672-.046.743-1.105.061-1.058q-3.8.246-7.609.5c3.509-3.08,7.146-6.012,10.926-8.75a.519.519,0,0,0,.219.078,56.223,56.223,0,0,0,10.756.4c.673-.037.743-1.1.062-1.057a56.584,56.584,0,0,1-9.793-.3A148.368,148.368,0,0,1,654.871,174.8.531.531,0,0,0,654.4,173.853Z" fill="#00aeb4"/>
        </g>
      </g>
    </g>
    <g id="Group_7941" data-name="Group 7941">
      <g id="Group_7938" data-name="Group 7938" opacity="0.4">
        <g id="Group_7937" data-name="Group 7937">
          <g id="Group_7936" data-name="Group 7936">
            <path id="Path_4662" data-name="Path 4662" d="M619.708,182.933c.052,1.654-1.055,2.866-2.12,3.976q-5.507,5.706-11.474,10.944l.164.294q-6.314-2.692-12.636-5.393a7.343,7.343,0,0,1-2.491-1.475c-1.112-1.135-1.437-3.292,1.125-3.994a4.857,4.857,0,0,1,1.43-.156l6.524.133c.737.015,1.649-.074,1.8-.9a1.244,1.244,0,0,0-.391-1.1,15.965,15.965,0,0,0-8.421-4.2,7.324,7.324,0,0,1-2.627-.691c-1.056-.635-1.7-2.261-.157-3.069a2.763,2.763,0,0,1,1.075-.291,29.951,29.951,0,0,1,7.183.319c1.233.205,2.94.219,3.113-1.138a1.624,1.624,0,0,0-.688-1.514,21.615,21.615,0,0,0-7.658-3.468,5.56,5.56,0,0,1-1.977-.691,1.445,1.445,0,0,1-.126-2.5,2.256,2.256,0,0,1,1.439-.284l6.774.808c.8.093,1.792.113,2.1-.768a1.46,1.46,0,0,0-.569-1.658,25.325,25.325,0,0,0-8.383-3.832,3.924,3.924,0,0,1-2.557-1.325,1.372,1.372,0,0,1-.082-1.471c.408-.659,1.2-.628,1.884-.561l7.3.694a.488.488,0,0,0,.382-.841,18.922,18.922,0,0,0-7.551-4.236,5.811,5.811,0,0,1-2.019-.813c-.813-.627-1.213-1.984.119-2.6a2.292,2.292,0,0,1,1.129-.192,39.513,39.513,0,0,1,6.745.994q-1.272-2.992-2.544-5.995c-.625-1.463-1.234-3.217-.129-4.522a2.822,2.822,0,0,1,3.063-.735c1.843.624,2.773,2.456,3.128,4.27a5.379,5.379,0,0,0,1.005,2.867,1.6,1.6,0,0,0,1.421.53c.9-.165,1.2-1.08,1.541-1.841.3-.667.911-1.37,1.622-1.208a1.345,1.345,0,0,1,.837.749c.646,1.278.071,2.831-.669,4.055-.9,1.5-2.1,2.985-1.665,4.866a2,2,0,0,0,2.212,1.612c1.055-.181,1.493-1.231,2.062-2.054s1.759-1.5,2.479-.631a1.514,1.514,0,0,1,.3.926c.034,2.371-1.5,4.354-2.76,6.318a10.2,10.2,0,0,0-1.674,4.065,1.087,1.087,0,0,0,1.753.972l3.977-3.089c.442-.346.956-.711,1.551-.411a1.129,1.129,0,0,1,.576.843,2.918,2.918,0,0,1-.842,2.148q-2.692,3.584-5.386,7.154c-.623.83-1.282,1.858-.737,2.833a1.888,1.888,0,0,0,2.214.788c1.761-.515,2.5-2.2,3.771-3.287.768-.657,2.142-1.01,2.569.1a1.46,1.46,0,0,1-.269,1.434,49,49,0,0,1-6.246,6.294,4.506,4.506,0,0,0-2,2.783,1.583,1.583,0,0,0,1.113,1.766,2.445,2.445,0,0,0,2.064-.9q1.365-1.229,2.732-2.463c.93-.836,2.1-1.745,3.335-1.2A2.191,2.191,0,0,1,619.708,182.933Z" fill="#00abc4"/>
          </g>
        </g>
      </g>
      <g id="Group_7940" data-name="Group 7940">
        <g id="Group_7939" data-name="Group 7939">
          <path id="Path_4663" data-name="Path 4663" d="M605.654,196.836a84.616,84.616,0,0,0-7.489-55.825c-.312-.6-1.3-.212-.985.4a83.717,83.717,0,0,1,7.426,55.286C604.466,197.361,605.515,197.5,605.654,196.836Z" fill="#00aeb4"/>
        </g>
      </g>
    </g>
  </g>
  <g id="Group_7943" data-name="Group 7943" transform="translate(-407.823 -37.574)" opacity="0.4">
    <path id="Path_4664" data-name="Path 4664" d="M633.25,104.088a19.589,19.589,0,0,1,10.77-1.824C654.7,103.411,656.3,88.2,645.771,86.256c-5.73-1.059-11.645,2.531-15.023,6.939-4.391,5.731-5.445,12.627-6.987,19.479.736-3.268,5.926-6.716,8.635-8.155Q632.822,104.292,633.25,104.088Z" fill="#d8e081"/>
  </g>
</svg>
