<?xml version="1.0" encoding="utf-8"?>
<!-- Generator: Adobe Illustrator 25.0.1, SVG Export Plug-In . SVG Version: 6.00 Build 0)  -->
<svg version="1.1" id="Component_33_1" xmlns="http://www.w3.org/2000/svg" xmlns:xlink="http://www.w3.org/1999/xlink" x="0px"
	 y="0px" viewBox="0 0 242.4 211.6" style="enable-background:new 0 0 242.4 211.6;" xml:space="preserve">
<style type="text/css">
	.st0{fill:#F7F7F7;}
	.st1{fill:#405933;}
	.st2{fill:#FBCA12;}
	.st3{fill:#71831F;}
	.st4{fill:#F6AA16;}
	.st5{fill:#2D4124;}
	.st6{fill:#EFEDDB;}
	.st7{fill:#E1D6AA;}
	.st8{fill:#869B2A;}
	.st9{fill:#E29817;}
</style>
<g id="Group_6796" transform="translate(-76.111 -356.311)">
	<path id="Path_2790" class="st0" d="M248.5,555.8c0.5-0.2,1-0.4,1.6-0.7c0.3-0.1,0.5-0.2,0.8-0.3c0.5-0.2,1-0.5,1.5-0.7
		c0.3-0.1,0.6-0.3,0.8-0.4c0.5-0.2,1-0.5,1.5-0.7c0.3-0.1,0.6-0.3,0.9-0.4c0.5-0.2,0.9-0.4,1.4-0.7c0.3-0.2,0.7-0.3,1-0.5
		c0.4-0.2,0.9-0.4,1.3-0.6c0.4-0.2,0.8-0.4,1.1-0.6s0.7-0.4,1.1-0.6c0.5-0.2,0.9-0.5,1.4-0.8l0.9-0.5c0.8-0.4,1.5-0.8,2.2-1.3
		c13.3-7.6,25.8-17.1,34.7-29.5s14.1-28,12-43.2c-1.5-10.8-8.5-22.1-18.9-23.8c-0.6-0.1-1.2-0.2-1.8-0.2c-2.6,0-5.2,0.2-7.7,0.6
		c-0.5,0.1-1.1,0.1-1.6,0.1c-0.2,0-0.3,0-0.5,0c-0.4,0-0.8,0-1.2,0c-0.2,0-0.4,0-0.6,0c-0.4,0-0.7,0-1.1,0c-0.2,0-0.4,0-0.6,0
		c-0.4,0-0.7,0-1.1,0l-0.6,0c-0.4,0-0.7,0-1.1-0.1c-0.2,0-0.3,0-0.5,0c-0.4,0-0.8-0.1-1.3-0.1c-0.1,0-0.2,0-0.4,0
		c-1.1-0.1-2.2-0.3-3.3-0.4l-0.2,0c-0.5-0.1-0.9-0.1-1.4-0.2c-0.1,0-0.3,0-0.4-0.1c-0.4-0.1-0.8-0.1-1.2-0.2l-0.5-0.1
		c-0.4-0.1-0.8-0.1-1.2-0.2c-0.2,0-0.3-0.1-0.5-0.1c-0.4-0.1-0.8-0.2-1.2-0.2c-0.2,0-0.3-0.1-0.5-0.1c-0.4-0.1-0.8-0.2-1.3-0.3
		l-0.4-0.1c-0.5-0.1-1.1-0.2-1.6-0.4c0,0,0,0,0,0s0,0-0.1,0c1-3.4,1.6-6.9,1.7-10.5c0-13.8-10.5-25.2-21.2-33.9
		c-13-10.6-29.4-19.8-45.8-16.4c-8.3,1.7-15.7,6.5-22.2,11.8c-1.3,1.1-2.6,2.2-3.9,3.3c-2-0.1-4-0.2-5.9-0.1c-0.1,0-0.3,0-0.4,0
		c-0.4,0-0.7,0-1.1,0c-0.2,0-0.4,0-0.7,0c-0.3,0-0.6,0-0.9,0.1c-0.3,0-0.6,0-0.8,0.1s-0.5,0-0.8,0.1c-0.4,0-0.7,0.1-1,0.1
		c-0.2,0-0.4,0-0.6,0.1c-1.1,0.2-2.3,0.3-3.4,0.6l-0.4,0.1c-0.4,0.1-0.9,0.2-1.3,0.3c-0.2,0-0.3,0.1-0.5,0.1
		c-0.4,0.1-0.8,0.2-1.2,0.3c-0.2,0-0.3,0.1-0.5,0.1c-0.4,0.1-0.8,0.2-1.2,0.3c-0.2,0-0.3,0.1-0.5,0.1c-0.4,0.1-0.8,0.3-1.2,0.4
		c-0.1,0-0.3,0.1-0.4,0.1c-0.5,0.2-1.1,0.4-1.6,0.6c-17.9,6.6-31.8,22.2-38.2,40.2s-5.7,38.1,0.1,56.3c3.2,10.6,8.3,20.6,15.1,29.4
		c16.3,20.9,42.5,32.8,68.9,34.4c1,0.1,1.9,0.1,2.9,0.1c0.3,0,0.6,0,1,0c0.6,0,1.3,0,1.9,0c0.3,0,0.7,0,1,0c0.7,0,1.5,0,2.2,0
		c0.2,0,0.4,0,0.6,0c1,0,2-0.1,3.1-0.1c6.2,1.1,12.6,1.5,18.9,1.1c7.4-0.5,15.2-2.2,20.9-6.9c1.5-1.3,2.9-2.7,4-4.3
		c0.3-0.1,0.6-0.3,1-0.4C248,556,248.3,555.9,248.5,555.8z"/>
</g>
<g id="Group_6806" transform="translate(-76.111 -356.311)">
	<g id="Group_6797">
		<path id="Path_2791" class="st1" d="M247.9,411.7c-0.8,2.7-1.1,2.6-0.8-0.2c0.5-6.7-1.8-14.2-6.5-20.6c-2-2.7-2.4-4.4-1-4.6
			c0.1,0,0.1,0,0.1,0c1.3-0.2,3.9,1.5,5.5,4.5C248.7,397.2,249.6,404.6,247.9,411.7z"/>
	</g>
	<g id="Group_6798">
		<path id="Path_2792" class="st2" d="M267.2,484.9c0.3-11.4-1.5-15.3-5.2-28.9c-4.2-15.7,0-26.9-2.2-35.5c-1.4-5.4-6.3-8.4-10.3-10
			c-0.7-0.3-1.4-0.6-2.1-0.8c-0.7-0.2-1.5-0.3-2.2-0.4c-4.3-0.7-10.1-0.6-14,3.3c-6.3,6.3-8.5,18.1-20.1,29.3
			c-10.2,9.8-13.7,12.2-19.3,22.1c-7.8,13.9-5.7,28.8,6.1,36c12,7.4,18.3,7,23,5.6c3.4,3.7,8.6,7.2,22.6,7
			C257.3,512.5,266.8,500.8,267.2,484.9z"/>
	</g>
	<g id="Group_6801">
		<g id="Group_6799">
			<path id="Path_2793" class="st3" d="M244.9,399.6c-2.8-1.4-3.8-7.9-10.3-9.3c-14.1-3-20.6,8.8-20.6,8.8c7.6-4.1,8.8,5.9,17,7.8
				C238.5,408.7,242.8,403.2,244.9,399.6z"/>
		</g>
		<g id="Group_6800">
			<path id="Path_2794" class="st1" d="M244.9,399.7c-4.8,0.9-9.9,0.1-14.1-2.4c-7.4-4.1-13.1-1.3-16.4,1.7c7.3-3.7,8.6,6,16.8,7.9
				C238.5,408.7,242.8,403.2,244.9,399.7z"/>
		</g>
	</g>
	<g id="Group_6804">
		<g id="Group_6802">
			<path id="Path_2795" class="st3" d="M293.1,386.7c-9.7,3.9-15.5-2.7-30,1.3c-16.2,4.4-14.8,20.1-14.8,20.1c0.2-0.7,4-3.1,7.5-2.8
				c10.8,1,17.1,6.5,27.9,1.7C291.6,403.5,293.1,386.7,293.1,386.7z"/>
		</g>
		<g id="Group_6803">
			<path id="Path_2796" class="st1" d="M255.8,405.3c10.8,1,17.1,6.5,27.9,1.7c7.7-3.4,9.3-19.4,9.4-20.2c-4.2,5-1.6,13.4-30.8,10.5
				c-10.2-1-13.2,5.5-14,10.2c0,0.4,0,0.6,0,0.6C248.6,407.3,252.3,404.9,255.8,405.3z"/>
		</g>
	</g>
	<g id="Group_6805">
		<path id="Path_2797" class="st4" d="M267.2,484.9c0.3-11.4-1.5-15.3-5.2-28.9c-4.2-15.7,0-26.9-2.2-35.5c-1.4-5.4-6.3-8.4-10.3-10
			c-0.7-0.3-1.4-0.6-2.1-0.8c-0.1,0-0.1,0-0.2,0l-26.6,96.1c0.1,0,0.1,0,0.2-0.1c3.4,3.7,8.6,7.2,22.6,7
			C257.3,512.5,266.8,500.8,267.2,484.9z"/>
	</g>
</g>
<g id="Group_6813" transform="translate(-76.111 -356.311)">
	<g id="Group_6807">
		<path id="Path_2798" class="st5" d="M279.7,456c-22.7,33.6-42.3,60-43.6,59.1s16-28.9,38.7-62.4s42.3-60,43.6-59.1
			C319.8,394.5,302.4,422.4,279.7,456z"/>
	</g>
	<g id="Group_6808">
		<path id="Path_2799" class="st1" d="M273.4,458.8c-20.2,32.3-37.7,57.9-39.1,57.2s13.9-27.5,34.1-59.8s37.7-58,39.1-57.2
			C308.8,399.7,293.6,426.5,273.4,458.8z"/>
	</g>
	<g id="Group_6809">
		<path id="Path_2800" class="st1" d="M279.1,460.4c-22.5,30.8-41.6,54.9-42.8,53.9s16.1-26.8,38.6-57.6s41.7-54.9,42.8-53.9
			S301.6,429.6,279.1,460.4z"/>
	</g>
	<g id="Group_6810">
		<path id="Path_2801" class="st6" d="M270.1,500.8c-3.7-10.7-2.1-22.5,4.1-32c-3,1.4-5.9,3.1-8.6,5c1.6-5.8,2.1-11.9,1.7-17.9
			c-5.6,12.6-17.8,21-31.6,21.7c-20.2,0.1-36.5,16.7-36.4,36.9s16.7,36.5,36.9,36.4s36.5-16.7,36.4-36.9
			C272.6,509.5,271.8,505,270.1,500.8L270.1,500.8z"/>
	</g>
	<g id="Group_6812">
		<g id="Group_6811">
			<path id="Path_2802" class="st7" d="M270.1,500.8c-3.7-10.7-2.1-22.5,4.1-32c-3,1.4-5.9,3.1-8.6,5c0.2-0.8,0.4-1.6,0.5-2.4
				c-3.5,8.3-3.9,17.6-1,26.1c7.4,18.8-1.9,40.1-20.7,47.5c-10.3,4-21.8,3.2-31.4-2.2c0.8,0.6,1.6,1.2,2.4,1.8
				c16.8,11.4,39.6,7,50.9-9.8C273.1,524.8,274.5,512.1,270.1,500.8L270.1,500.8z"/>
		</g>
	</g>
</g>
<g id="Group_6827" transform="translate(-76.111 -356.311)">
	<g id="Group_6814">
		<path id="Path_2803" class="st8" d="M182.2,484.2c1,2.2-0.8,6.4-4.3,7.7c-3.2,1.2-6.7,1.2-9.9,0c-3.5-1.3-5.3-5.5-4.3-7.7
			c2.6-6.4,4.2-13.2,4.8-20.1c0.2-2.3,1.2-5.1,2.6-5.6c1.2-0.4,2.6-0.4,3.9,0c1.3,0.5,2.4,3.3,2.6,5.6
			C178,471,179.6,477.8,182.2,484.2z"/>
	</g>
	<g id="Group_6815">
		<path id="Path_2804" class="st3" d="M177.5,464.1c-0.2-2.3-1.3-5.1-2.6-5.6c-0.4-0.1-0.9-0.2-1.3-0.3c-0.2,0.6-0.3,1.3-0.3,1.9
			c-0.6,6.9-2.2,13.7-4.8,20.1c-1,2.2,0.8,6.4,4.3,7.7c2.9,1,6.1,1.1,9.1,0.2c0.7-1.2,0.8-2.6,0.4-3.9
			C179.6,477.8,178,471,177.5,464.1z"/>
	</g>
	<g id="Group_6826">
		<g id="Group_6816">
			<path id="Path_2805" class="st4" d="M172.3,518.9c0,24.8,12.5,44.8,28,44.8s28-20.1,28-44.8s-12.5-44.8-28-44.8
				S172.3,494.1,172.3,518.9z"/>
		</g>
		<g id="Group_6817">
			<path id="Path_2806" class="st9" d="M198.8,563.6c13.2-1.3,23.7-20.8,23.7-44.7s-10.5-43.4-23.7-44.7
				c-14.7,1.3-26.5,20.8-26.5,44.7C172.3,542.8,184.1,562.3,198.8,563.6z"/>
		</g>
		<g id="Group_6818">
			<path id="Path_2807" class="st4" d="M162.1,518.9c0,26.2,11.9,47.3,26.7,47.3s26.7-21.2,26.7-47.3s-11.9-47.3-26.7-47.3
				S162.1,492.7,162.1,518.9z"/>
		</g>
		<g id="Group_6819">
			<path id="Path_2808" class="st9" d="M186.4,566c11.3-2.2,20.2-22.4,20.2-47.1s-8.9-45-20.2-47.1c-13.6,2.2-24.3,22.4-24.3,47.1
				C162.1,543.6,172.8,563.8,186.4,566z"/>
		</g>
		<g id="Group_6824">
			<g id="Group_6820">
				<path id="Path_2809" class="st4" d="M173.6,518.9c0,24.8-12.5,44.8-28,44.8s-28-20.1-28-44.8s12.5-44.8,28-44.8
					S173.6,494.1,173.6,518.9z"/>
			</g>
			<g id="Group_6821">
				<path id="Path_2810" class="st9" d="M147.1,563.6c-13.2-1.3-23.7-20.8-23.7-44.7s10.5-43.4,23.7-44.7
					c14.7,1.3,26.5,20.8,26.5,44.7C173.6,542.8,161.9,562.3,147.1,563.6z"/>
			</g>
			<g id="Group_6822">
				<path id="Path_2811" class="st4" d="M183.8,518.9c0,26.2-11.9,47.3-26.7,47.3s-26.7-21.2-26.7-47.3s12-47.3,26.7-47.3
					S183.8,492.7,183.8,518.9z"/>
			</g>
			<g id="Group_6823">
				<path id="Path_2812" class="st9" d="M159.6,566c-11.3-2.2-20.2-22.4-20.2-47.1s8.9-45,20.2-47.1c13.6,2.2,24.3,22.4,24.3,47.1
					C183.8,543.6,173.2,563.8,159.6,566z"/>
			</g>
		</g>
		<g id="Group_6825">
			<path id="Path_2813" class="st4" d="M195.4,518.9c0,26.2-10,47.3-22.4,47.3s-22.4-21.2-22.4-47.3s10.1-47.3,22.4-47.3
				S195.4,492.7,195.4,518.9z"/>
		</g>
	</g>
</g>
<g id="Group_6828" transform="translate(-76.111 -356.311)">
	<path id="Path_2814" class="st0" d="M262.2,376.4c3.7-1.8,7.9-2.5,12-2c11.9,1.3,13.7-15.7,2-17.9c-6.4-1.2-13,2.8-16.8,7.8
		c-4.9,6.4-6.1,14.1-7.8,21.8c0.8-3.7,6.6-7.5,9.6-9.1C261.5,376.8,261.8,376.6,262.2,376.4z"/>
</g>
<g id="Group_6829" transform="translate(-76.111 -356.311)">
	<path id="Path_2815" class="st0" d="M123.2,404.7c2.6-3.6,4.5-8.4,2.5-12.4c-2.2-4.2-7.7-5.3-12.5-5.6c-7.4-0.4-15.1,0-21.9,2.8
		s-12.9,8.5-14.6,15.7c-1,4.2-0.6,8.5-0.1,12.8c0.8,7.2,5.3,51.6,14.8,28c3.4-8.4,3.3-14.6,10.1-21.8
		C108.3,417.2,117.3,412.7,123.2,404.7z"/>
</g>
</svg>
