<svg id="Component_20_1" data-name="Component 20 – 1" xmlns="http://www.w3.org/2000/svg" width="234.952" height="174.511" viewBox="0 0 234.952 174.511">
  <g id="Group_5300" data-name="Group 5300" transform="translate(-40.654 -48.346)">
    <g id="Group_5299" data-name="Group 5299">
      <path id="Path_1893" data-name="Path 1893" d="M92.052,191.346c-7.908-3.5-15.766-9.051-17.751-17.782-2.359-10.366,8.37-19.27,18.7-21.8,15.928-3.9,37.073,11.815,51.925,1.467,15.262-10.638-6.325-27.786-12.86-36.832-14.305-19.8,5.869-32.111,23.387-37.074,8.326-2.358,18.494-4.953,27.246-4.316,12.694.928,15.766,16.128,26.554,19.385,10.666,3.22,26.95-5.853,38.02-4.589s23.072,6.257,27,16.682c4.625,12.264-3.47,25.281-13.837,31.628-13.479,8.253-31.556.886-41.533,15.771-4.407,6.574-6.6,15.125-8.356,22.762-1.634,7.125-4.265,14.024-10.614,18.193-8.535,5.6-20.924,6.215-30.862,5.946-24.638-.666-50.847.794-74.271-8.3C93.89,192.132,92.97,191.753,92.052,191.346Z" fill="#f7f7f7"/>
    </g>
  </g>
  <g id="Group_5307" data-name="Group 5307" transform="translate(-40.654 -48.346)">
    <g id="Group_5301" data-name="Group 5301">
      <path id="Path_1894" data-name="Path 1894" d="M41.655,143.36a9.773,9.773,0,0,1,6.521-3.1c3.538-.335,7.415.153,10.364-1.83,4.4-2.963,4.124-9.575,2.328-14.57s-4.65-10.033-3.728-15.26c1.345-7.632,12.179-11.514,18.065-6.473,3.727,3.191,5.408,8.868,10.041,10.485,4.5,1.573,9.14-1.573,13.022-4.345,5.942-4.245,14.657-5.453,20.567-.079,1.958,1.779,2.933,4.942,1.44,7.126-1.181,1.73-3.417,2.3-5.238,3.338s-3.406,3.395-2.208,5.114a4.005,4.005,0,0,0,1.813,1.272c4.068,1.711,8.664,1.458,12.994,2.31s8.951,3.513,9.564,7.883c.454,3.241-1.453,6.323-3.53,8.851C118.6,162.433,91.9,167.306,68.491,163.347c-9.859-1.667-20.168-5.117-26.139-13.138a7.239,7.239,0,0,1-1.695-3.9A4.395,4.395,0,0,1,41.655,143.36Z" fill="#d2ea8e"/>
    </g>
    <g id="Group_5306" data-name="Group 5306">
      <g id="Group_5302" data-name="Group 5302">
        <path id="Path_1895" data-name="Path 1895" d="M86.163,200.547l1.872-81.034,4.1,81.034Z" fill="#a39383"/>
      </g>
      <g id="Group_5303" data-name="Group 5303">
        <path id="Path_1896" data-name="Path 1896" d="M88.035,158.348l10.55-18.17L88.231,162.033Z" fill="#a39383"/>
      </g>
      <g id="Group_5304" data-name="Group 5304">
        <path id="Path_1897" data-name="Path 1897" d="M88.035,149.186l-9.378-22.271,8.959,27.325Z" fill="#a39383"/>
      </g>
      <g id="Group_5305" data-name="Group 5305">
        <path id="Path_1898" data-name="Path 1898" d="M87.89,163.263,75.727,152.486l12.309,13.48Z" fill="#a39383"/>
      </g>
    </g>
  </g>
  <g id="Group_5314" data-name="Group 5314" transform="translate(-40.654 -48.346)">
    <g id="Group_5308" data-name="Group 5308">
      <path id="Path_1899" data-name="Path 1899" d="M135.79,180.345a4.1,4.1,0,0,0-2.731-1.3c-1.483-.141-3.108.063-4.343-.768-1.846-1.241-1.729-4.01-.976-6.1s1.949-4.2,1.563-6.394c-.565-3.2-5.1-4.824-7.57-2.712-1.562,1.337-2.266,3.715-4.207,4.393-1.886.659-3.83-.659-5.457-1.82-2.489-1.779-6.14-2.285-8.617-.034a2.4,2.4,0,0,0-.6,2.987c.5.724,1.431.964,2.194,1.4s1.427,1.422.926,2.143a1.686,1.686,0,0,1-.76.533c-1.705.717-3.63.61-5.444.967s-3.751,1.472-4.008,3.3a5.056,5.056,0,0,0,1.478,3.708c6.314,7.689,17.5,9.731,27.311,8.072,4.131-.7,8.45-2.144,10.953-5.5a3.043,3.043,0,0,0,.71-1.636A1.831,1.831,0,0,0,135.79,180.345Z" fill="#d2ea8e"/>
    </g>
    <g id="Group_5313" data-name="Group 5313">
      <g id="Group_5309" data-name="Group 5309">
        <path id="Path_1900" data-name="Path 1900" d="M117.142,204.306l-.785-33.953-1.719,33.953Z" fill="#a39383"/>
      </g>
      <g id="Group_5310" data-name="Group 5310">
        <path id="Path_1901" data-name="Path 1901" d="M116.357,186.624l-4.421-7.612,4.339,9.156Z" fill="#a39383"/>
      </g>
      <g id="Group_5311" data-name="Group 5311">
        <path id="Path_1902" data-name="Path 1902" d="M116.357,182.786l3.929-9.332L116.533,184.9Z" fill="#a39383"/>
      </g>
      <g id="Group_5312" data-name="Group 5312">
        <path id="Path_1903" data-name="Path 1903" d="M116.418,188.684l5.1-4.515-5.157,5.648Z" fill="#a39383"/>
      </g>
    </g>
  </g>
  <g id="Group_5358" data-name="Group 5358" transform="translate(-40.654 -48.346)">
    <g id="Group_5318" data-name="Group 5318">
      <g id="Group_5316" data-name="Group 5316" opacity="0.4">
        <g id="Group_5315" data-name="Group 5315">
          <path id="Path_1904" data-name="Path 1904" d="M232.48,183.732a3.2,3.2,0,0,0,.222,2.526q1.6,4.167,3.535,8.192l-.15.117,7.731-.014a4.119,4.119,0,0,0,1.614-.215,1.266,1.266,0,0,0,.3-2.316,2.866,2.866,0,0,0-.708-.4l-3.409-1.365c-.383-.154-.836-.4-.731-.86a.7.7,0,0,1,.445-.487,8.97,8.97,0,0,1,5.284-.319,4.169,4.169,0,0,0,1.513.22c.687-.1,1.376-.8.756-1.557a1.585,1.585,0,0,0-.492-.386,16.846,16.846,0,0,0-3.79-1.415c-.683-.164-1.572-.533-1.363-1.274a.919.919,0,0,1,.691-.633,12.151,12.151,0,0,1,4.727-.11,3.142,3.142,0,0,0,1.176.075c.533-.111,1.045-.649.615-1.266a1.246,1.246,0,0,0-.681-.463l-3.687-1.073c-.434-.128-.952-.335-.92-.859a.824.824,0,0,1,.659-.735,14.253,14.253,0,0,1,5.184-.14,2.209,2.209,0,0,0,1.616-.123.773.773,0,0,0,.366-.744c-.066-.433-.482-.589-.852-.706l-3.933-1.246a.273.273,0,0,1-.013-.518,10.617,10.617,0,0,1,4.843-.533,3.3,3.3,0,0,0,1.225.022c.558-.147,1.065-.762.511-1.373a1.294,1.294,0,0,0-.544-.347,22.235,22.235,0,0,0-3.711-.971q1.318-1.269,2.637-2.544c.644-.621,1.346-1.4,1.06-2.313a1.586,1.586,0,0,0-1.423-1.055,2.956,2.956,0,0,0-2.559,1.523,3.035,3.035,0,0,1-1.152,1.264.9.9,0,0,1-.853-.039c-.432-.285-.382-.822-.394-1.293-.009-.411-.169-.909-.572-.98a.746.746,0,0,0-.6.2,2.446,2.446,0,0,0-.546,2.247c.136.976.427,2.007-.208,2.887a1.125,1.125,0,0,1-1.5.349c-.506-.327-.5-.968-.618-1.518s-.58-1.163-1.143-.872a.846.846,0,0,0-.36.413c-.54,1.221-.181,2.583.04,3.879a5.74,5.74,0,0,1-.027,2.473.612.612,0,0,1-1.122.118l-1.38-2.475c-.153-.276-.34-.579-.714-.554a.631.631,0,0,0-.482.311,1.637,1.637,0,0,0-.038,1.3q.607,2.447,1.216,4.89c.14.565.255,1.243-.242,1.628a1.061,1.061,0,0,1-1.319-.078c-.8-.654-.81-1.688-1.23-2.532-.253-.51-.887-.995-1.353-.512a.82.82,0,0,0-.176.8,27.623,27.623,0,0,0,1.849,4.634,2.538,2.538,0,0,1,.427,1.883.894.894,0,0,1-.966.668c-.446-.075-.684-.522-.87-.92q-.438-.936-.873-1.876c-.3-.639-.7-1.366-1.464-1.354A1.234,1.234,0,0,0,232.48,183.732Z" fill="#00abc4"/>
        </g>
      </g>
      <g id="Group_5317" data-name="Group 5317">
        <path id="Path_1905" data-name="Path 1905" d="M236.7,194.024a47.611,47.611,0,0,1,16.161-27.261c.292-.244.718.175.423.421a47.1,47.1,0,0,0-16.008,27C237.2,194.559,236.624,194.4,236.7,194.024Z" fill="#00aeb4"/>
      </g>
    </g>
    <g id="Group_5335" data-name="Group 5335">
      <g id="Group_5319" data-name="Group 5319">
        <path id="Path_1906" data-name="Path 1906" d="M238.342,179.742c.194-.2.375-.486.263-.7-.124-.244-.51-.213-.811-.123a5.892,5.892,0,0,0-3.682,3.315l.018.09a7.233,7.233,0,0,0-4.625-.026c-.346.11-.742.3-.822.634a.534.534,0,0,0,.277.578,1.553,1.553,0,0,0,.7.158,7.973,7.973,0,0,0,4.577-1.236l-.075-.1,0,0C235.448,181.3,237.21,180.926,238.342,179.742Z" fill="#d8e081"/>
      </g>
      <g id="Group_5320" data-name="Group 5320">
        <path id="Path_1907" data-name="Path 1907" d="M240.449,183.5a.934.934,0,0,0,.34-.458.5.5,0,0,0-.369-.557,1.491,1.491,0,0,0-.78.019,5.67,5.67,0,0,0-3.864,3.2l-.007.166a7.3,7.3,0,0,0-4.877-.919c-.371.053-.818.2-.928.546a.514.514,0,0,0,.182.548,1.4,1.4,0,0,0,.567.243,8.574,8.574,0,0,0,5.1-.377l-.013-.015q1.654-.806,3.31-1.606A6.481,6.481,0,0,0,240.449,183.5Z" fill="#d8e081"/>
      </g>
      <g id="Group_5321" data-name="Group 5321">
        <path id="Path_1908" data-name="Path 1908" d="M238.385,193.034a12.9,12.9,0,0,0,5.015-1.319c.3-.146.645-.37.661-.676.018-.333-.366-.5-.706-.535a4.709,4.709,0,0,0-2.764.719,15.037,15.037,0,0,0-2.35,1.808Z" fill="#d8e081"/>
      </g>
      <g id="Group_5322" data-name="Group 5322">
        <path id="Path_1909" data-name="Path 1909" d="M234.24,173.168c-.171-.286-.634-.243-.988-.107a4.162,4.162,0,0,0-1.9,1.594,6.266,6.266,0,0,0-.876,2.228l.005.007a6.393,6.393,0,0,0-3.005-.089,1.736,1.736,0,0,0-.768.4.692.692,0,0,0-.207.742.822.822,0,0,0,.764.33,7.029,7.029,0,0,0,3.2-1.093L230.6,177a16.556,16.556,0,0,0,3.293-2.84C234.154,173.864,234.417,173.462,234.24,173.168Z" fill="#d8e081"/>
      </g>
      <g id="Group_5323" data-name="Group 5323">
        <path id="Path_1910" data-name="Path 1910" d="M232,171.047a.626.626,0,0,0-.554-.281,1.558,1.558,0,0,0-.679.173,4.021,4.021,0,0,0-1.588,1.437,8.724,8.724,0,0,0-.885,1.892l.172-.089a24.66,24.66,0,0,0,2.887-1.863,2.319,2.319,0,0,0,.561-.566A.721.721,0,0,0,232,171.047Z" fill="#d8e081"/>
      </g>
      <g id="Group_5324" data-name="Group 5324">
        <path id="Path_1911" data-name="Path 1911" d="M241.579,187.61a2.474,2.474,0,0,0,.942-.585c.239-.28.3-.725.035-.915a.97.97,0,0,0-.743-.042,6.974,6.974,0,0,0-4.419,3.33Z" fill="#d8e081"/>
      </g>
      <g id="Group_5325" data-name="Group 5325">
        <path id="Path_1912" data-name="Path 1912" d="M228.376,174.255l-.1.075a6.253,6.253,0,0,0-3.993.284,1.8,1.8,0,0,0-.6.359.629.629,0,0,0-.213.6c.1.317.535.368.9.34A7.253,7.253,0,0,0,228.376,174.255Z" fill="#d8e081"/>
      </g>
      <g id="Group_5326" data-name="Group 5326">
        <path id="Path_1913" data-name="Path 1913" d="M224.788,171.027a6.266,6.266,0,0,0-4.816-2.948,1.847,1.847,0,0,0-.666.026.844.844,0,0,0-.54.4c-.179.37.1.732.395.961,1.467,1.139,3.567,1.333,5.557,1.486Z" fill="#d8e081"/>
      </g>
      <g id="Group_5327" data-name="Group 5327">
        <path id="Path_1914" data-name="Path 1914" d="M232.634,179.939a.283.283,0,0,1,.014-.044l-.031.021.009-.016a5.258,5.258,0,0,0-4.575-.307c-.355.151-.747.425-.755.779-.009.385.438.567.83.624a6.608,6.608,0,0,0,4.453-1.018l.018-.033Z" fill="#d8e081"/>
      </g>
      <g id="Group_5328" data-name="Group 5328">
        <path id="Path_1915" data-name="Path 1915" d="M226.319,172.561l.091-.126a10.257,10.257,0,0,0-2.257-.234,5.307,5.307,0,0,0-2.285.564,1.726,1.726,0,0,0-.582.439.667.667,0,0,0-.149.638c.134.334.606.37,1.005.33A8.7,8.7,0,0,0,226.319,172.561Z" fill="#d8e081"/>
      </g>
      <g id="Group_5329" data-name="Group 5329">
        <path id="Path_1916" data-name="Path 1916" d="M236.248,176.064a.8.8,0,0,0-.675-.015,3.871,3.871,0,0,0-2,1.588,7.325,7.325,0,0,0-.924,2.258,25.065,25.065,0,0,0,3.27-2.6,1.919,1.919,0,0,0,.451-.6A.528.528,0,0,0,236.248,176.064Z" fill="#d8e081"/>
      </g>
      <g id="Group_5330" data-name="Group 5330">
        <path id="Path_1917" data-name="Path 1917" d="M237.371,189.436c.008-.011.013-.025.023-.038a.338.338,0,0,1-.044.018l-.024-.019a7.084,7.084,0,0,0-4.592-2.186,1.162,1.162,0,0,0-.961.236.756.756,0,0,0,.01.974,2.738,2.738,0,0,0,1.734.817,17.6,17.6,0,0,0,3.785.284v0l0,.051.029-.054c.049,0,.1,0,.147,0Z" fill="#d8e081"/>
      </g>
      <g id="Group_5331" data-name="Group 5331">
        <path id="Path_1918" data-name="Path 1918" d="M238.231,193.012c-.036,0-.072,0-.111,0,.045.058.091.12.133.18Z" fill="#d8e081"/>
      </g>
      <g id="Group_5332" data-name="Group 5332">
        <path id="Path_1919" data-name="Path 1919" d="M232.741,190.24a1.9,1.9,0,0,0-.715.151.862.862,0,0,0-.488.527.734.734,0,0,0,.18.627,2.962,2.962,0,0,0,1.523.84,16.031,16.031,0,0,0,4.879.627,7.342,7.342,0,0,0-2.167-1.986A5.719,5.719,0,0,0,232.741,190.24Z" fill="#d8e081"/>
      </g>
      <g id="Group_5333" data-name="Group 5333">
        <path id="Path_1920" data-name="Path 1920" d="M232.114,195.661a.623.623,0,0,0,.133.521,1.482,1.482,0,0,0,.435.335,8.163,8.163,0,0,0,3.108.926,23.9,23.9,0,0,0,3.285.092l-.082.117A14.675,14.675,0,0,0,243.519,196a2.109,2.109,0,0,0,.638-.488.6.6,0,0,0,.086-.692.81.81,0,0,0-.725-.187,5.812,5.812,0,0,0-4.388,2.821l-.01-.018a6.346,6.346,0,0,0-4.508-2.6,3.545,3.545,0,0,0-1.847.2A1.064,1.064,0,0,0,232.114,195.661Z" fill="#d8e081"/>
      </g>
      <g id="Group_5334" data-name="Group 5334">
        <path id="Path_1921" data-name="Path 1921" d="M238.714,199.821a35.864,35.864,0,0,0-14.754-28.2c-.558-.406.32-1.251.872-.848a36.794,36.794,0,0,1,15.052,28.968C239.906,200.451,238.737,200.523,238.714,199.821Z" fill="#d8e081"/>
      </g>
    </g>
    <g id="Group_5352" data-name="Group 5352" opacity="0.4">
      <g id="Group_5336" data-name="Group 5336">
        <path id="Path_1922" data-name="Path 1922" d="M239.286,166.338c-.158-.164-.3-.4-.214-.572.1-.2.415-.174.66-.1a4.8,4.8,0,0,1,3,2.7l-.015.075a5.888,5.888,0,0,1,3.765-.022c.282.09.6.247.669.516a.433.433,0,0,1-.225.47,1.249,1.249,0,0,1-.568.129,6.491,6.491,0,0,1-3.726-1.006l.061-.081h0C241.643,167.609,240.208,167.3,239.286,166.338Z" fill="#00abc4"/>
      </g>
      <g id="Group_5337" data-name="Group 5337">
        <path id="Path_1923" data-name="Path 1923" d="M237.57,169.4a.767.767,0,0,1-.276-.374.409.409,0,0,1,.3-.453,1.227,1.227,0,0,1,.635.016,4.61,4.61,0,0,1,3.144,2.6l.007.135a5.947,5.947,0,0,1,3.971-.748c.3.043.665.163.754.444a.418.418,0,0,1-.147.447,1.141,1.141,0,0,1-.462.2,6.983,6.983,0,0,1-4.154-.306l.012-.012q-1.35-.657-2.7-1.308A5.3,5.3,0,0,1,237.57,169.4Z" fill="#00abc4"/>
      </g>
      <g id="Group_5338" data-name="Group 5338">
        <path id="Path_1924" data-name="Path 1924" d="M239.251,177.16a10.507,10.507,0,0,1-4.083-1.074c-.244-.119-.524-.3-.537-.551-.016-.271.3-.4.575-.435a3.827,3.827,0,0,1,2.249.585,12.3,12.3,0,0,1,1.913,1.471Z" fill="#00abc4"/>
      </g>
      <g id="Group_5339" data-name="Group 5339">
        <path id="Path_1925" data-name="Path 1925" d="M242.625,160.986c.14-.233.517-.2.8-.088a3.417,3.417,0,0,1,1.548,1.3,5.115,5.115,0,0,1,.712,1.814l0,.006a5.194,5.194,0,0,1,2.446-.073,1.416,1.416,0,0,1,.625.324.561.561,0,0,1,.169.6.668.668,0,0,1-.622.269,5.731,5.731,0,0,1-2.6-.89l-.114-.145a13.414,13.414,0,0,1-2.682-2.312C242.7,161.554,242.481,161.226,242.625,160.986Z" fill="#00abc4"/>
      </g>
      <g id="Group_5340" data-name="Group 5340">
        <path id="Path_1926" data-name="Path 1926" d="M244.451,159.26a.51.51,0,0,1,.45-.23,1.276,1.276,0,0,1,.554.142,3.274,3.274,0,0,1,1.292,1.17,7.1,7.1,0,0,1,.721,1.54l-.14-.073a20.022,20.022,0,0,1-2.35-1.515,1.909,1.909,0,0,1-.457-.462A.585.585,0,0,1,244.451,159.26Z" fill="#00abc4"/>
      </g>
      <g id="Group_5341" data-name="Group 5341">
        <path id="Path_1927" data-name="Path 1927" d="M236.651,172.743a2.006,2.006,0,0,1-.766-.475c-.2-.229-.248-.59-.029-.746a.785.785,0,0,1,.6-.034,5.688,5.688,0,0,1,3.6,2.711Q238.353,173.472,236.651,172.743Z" fill="#00abc4"/>
      </g>
      <g id="Group_5342" data-name="Group 5342">
        <path id="Path_1928" data-name="Path 1928" d="M247.4,161.871l.085.061a5.088,5.088,0,0,1,3.25.232,1.439,1.439,0,0,1,.493.292.513.513,0,0,1,.172.487c-.08.257-.435.3-.729.277A5.9,5.9,0,0,1,247.4,161.871Z" fill="#00abc4"/>
      </g>
      <g id="Group_5343" data-name="Group 5343">
        <path id="Path_1929" data-name="Path 1929" d="M250.319,159.243a5.105,5.105,0,0,1,3.922-2.4,1.457,1.457,0,0,1,.542.021.69.69,0,0,1,.441.329c.144.3-.082.6-.323.783-1.194.927-2.9,1.084-4.524,1.209Z" fill="#00abc4"/>
      </g>
      <g id="Group_5344" data-name="Group 5344">
        <path id="Path_1930" data-name="Path 1930" d="M243.933,166.5a.19.19,0,0,0-.011-.036l.024.017-.006-.013a4.282,4.282,0,0,1,3.724-.25c.289.123.609.346.614.635.008.312-.357.461-.675.506a5.373,5.373,0,0,1-3.625-.828l-.015-.026Z" fill="#00abc4"/>
      </g>
      <g id="Group_5345" data-name="Group 5345">
        <path id="Path_1931" data-name="Path 1931" d="M249.073,160.492l-.073-.1a8.374,8.374,0,0,1,1.837-.19,4.323,4.323,0,0,1,1.86.459,1.392,1.392,0,0,1,.474.358.544.544,0,0,1,.122.519c-.109.272-.494.3-.818.268A7.072,7.072,0,0,1,249.073,160.492Z" fill="#00abc4"/>
      </g>
      <g id="Group_5346" data-name="Group 5346">
        <path id="Path_1932" data-name="Path 1932" d="M240.991,163.345a.645.645,0,0,1,.549-.014,3.155,3.155,0,0,1,1.629,1.293,5.967,5.967,0,0,1,.753,1.839,20.319,20.319,0,0,1-2.663-2.117,1.561,1.561,0,0,1-.367-.491A.429.429,0,0,1,240.991,163.345Z" fill="#00abc4"/>
      </g>
      <g id="Group_5347" data-name="Group 5347">
        <path id="Path_1933" data-name="Path 1933" d="M240.076,174.23c-.006-.009-.011-.02-.018-.031a.194.194,0,0,0,.036.015l.019-.016a5.77,5.77,0,0,1,3.738-1.78.953.953,0,0,1,.784.193.615.615,0,0,1-.009.792,2.223,2.223,0,0,1-1.412.665,14.37,14.37,0,0,1-3.081.233v0l0,.042c-.007-.016-.016-.03-.024-.045-.039,0-.078,0-.119,0Z" fill="#00abc4"/>
      </g>
      <g id="Group_5348" data-name="Group 5348">
        <path id="Path_1934" data-name="Path 1934" d="M239.376,177.141c.029,0,.059,0,.09,0-.036.048-.073.1-.108.147Z" fill="#00abc4"/>
      </g>
      <g id="Group_5349" data-name="Group 5349">
        <path id="Path_1935" data-name="Path 1935" d="M243.846,174.885a1.557,1.557,0,0,1,.582.122.71.71,0,0,1,.4.429.6.6,0,0,1-.146.51,2.4,2.4,0,0,1-1.24.685,13.069,13.069,0,0,1-3.973.51,5.99,5.99,0,0,1,1.765-1.617A4.665,4.665,0,0,1,243.846,174.885Z" fill="#00abc4"/>
      </g>
      <g id="Group_5350" data-name="Group 5350">
        <path id="Path_1936" data-name="Path 1936" d="M244.356,179.3a.5.5,0,0,1-.108.424,1.186,1.186,0,0,1-.354.272,6.615,6.615,0,0,1-2.531.755,19.628,19.628,0,0,1-2.674.074l.067.1a11.954,11.954,0,0,1-3.685-1.347,1.725,1.725,0,0,1-.519-.4.488.488,0,0,1-.071-.563.664.664,0,0,1,.592-.153,4.733,4.733,0,0,1,3.572,2.3l.007-.016a5.175,5.175,0,0,1,3.671-2.119,2.879,2.879,0,0,1,1.5.163A.863.863,0,0,1,244.356,179.3Z" fill="#00abc4"/>
      </g>
      <g id="Group_5351" data-name="Group 5351">
        <path id="Path_1937" data-name="Path 1937" d="M238.983,182.685a29.2,29.2,0,0,1,12.011-22.955c.454-.331-.261-1.018-.71-.69a29.949,29.949,0,0,0-12.253,23.583C238.013,183.2,238.964,183.257,238.983,182.685Z" fill="#00abc4"/>
      </g>
    </g>
    <g id="Group_5357" data-name="Group 5357">
      <g id="Group_5353" data-name="Group 5353">
        <path id="Path_1938" data-name="Path 1938" d="M235.756,197.89c-.058-.023-.118-.043-.176-.066.011.056.024.111.038.165Z" fill="#00a3a1"/>
      </g>
      <g id="Group_5355" data-name="Group 5355" opacity="0.4">
        <g id="Group_5354" data-name="Group 5354">
          <path id="Path_1939" data-name="Path 1939" d="M235.58,197.824a6.953,6.953,0,0,1,.6-3.688,19.766,19.766,0,0,0,1.3-3.872.848.848,0,0,0-.167-.8.957.957,0,0,0-1.1.167,2.751,2.751,0,0,0-.679.983,9.116,9.116,0,0,0-.766-4.953q-.666.8-1.329,1.6a8.2,8.2,0,0,0-1.274-3.891,1.02,1.02,0,0,0-1.066-.585c-.536.137-.766.74-.878,1.224a8.188,8.188,0,0,0-4.908-3.939,1.9,1.9,0,0,0-1.838.193,1.492,1.492,0,0,0-.191,1.673,21.307,21.307,0,0,0,2.191,4.451,3.209,3.209,0,0,0-1.444-.1c-.5.112-1.021.517-1.045.965-.021.4.341.67.679.882q1.934,1.221,4.007,2.275c-.609.075-1.4.292-1.538.838-.119.461.345.767.761.965q1.721.817,3.522,1.524a1.048,1.048,0,0,0-1.052.692,1,1,0,0,0,.33,1.054,3.306,3.306,0,0,0,1.071.552Q233.17,196.929,235.58,197.824Z" fill="#00abc4"/>
        </g>
      </g>
      <g id="Group_5356" data-name="Group 5356">
        <path id="Path_1940" data-name="Path 1940" d="M226.333,182.03a53.2,53.2,0,0,1,4.465,6.25,14.488,14.488,0,0,0,.087-2.456c-.012-.244.367-.213.379.029a14.392,14.392,0,0,1-.15,2.94h0q1.275,2.139,2.348,4.389.262-1.869.523-3.735c.034-.24.413-.214.379.03q-.292,2.082-.584,4.168a.183.183,0,0,1-.051.1c.41.887.8,1.781,1.168,2.691.089.227-.251.4-.342.167-.382-.959-.8-1.9-1.236-2.831a.233.233,0,0,1-.042-.01l-2.783-1.406c-.215-.108-.09-.467.128-.357l2.442,1.231c-.727-1.508-1.516-2.985-2.379-4.418a.215.215,0,0,1-.083,0,20.227,20.227,0,0,1-3.608-1.375c-.216-.107-.091-.466.128-.358a20.257,20.257,0,0,0,3.276,1.275,53.064,53.064,0,0,0-4.353-6.075C225.888,182.09,226.177,181.842,226.333,182.03Z" fill="#00aeb4"/>
      </g>
    </g>
  </g>
  <g id="Group_5359" data-name="Group 5359" transform="translate(-40.654 -48.346)">
    <path id="Path_1941" data-name="Path 1941" d="M129.429,206.143h61.715l24.428,16.715H104.144Z" fill="#00afaa"/>
  </g>
  <g id="Group_5360" data-name="Group 5360" transform="translate(-40.654 -48.346)">
    <path id="Path_1942" data-name="Path 1942" d="M124.215,218.96c-.736-2.11.28-4.2,1.651-5.788,3.227-3.731,8.22-5.8,12.875-7.136h-9.205L104.25,222.75h24.13A6.844,6.844,0,0,1,124.215,218.96Z" fill="#079aa3"/>
  </g>
  <g id="Group_5361" data-name="Group 5361" transform="translate(-40.654 -48.346)">
    <path id="Path_1943" data-name="Path 1943" d="M192.961,207.945c4.616,2.93,9.141,7.253,10.387,12.782a13.073,13.073,0,0,1,.284,2.023h11.939l-24.427-16.714h-1.657A34.8,34.8,0,0,1,192.961,207.945Z" fill="#079aa3"/>
  </g>
  <g id="Group_5362" data-name="Group 5362" transform="translate(-40.654 -48.346)">
    <path id="Path_1944" data-name="Path 1944" d="M175.607,216.75c0,1.953-7.7,3.536-17.2,3.536s-17.2-1.583-17.2-3.536,7.7-3.535,17.2-3.535S175.607,214.8,175.607,216.75Z" fill="#079aa3"/>
  </g>
  <g id="Group_5363" data-name="Group 5363" transform="translate(-40.654 -48.346)">
    <path id="Path_1945" data-name="Path 1945" d="M169.88,167.661c6.9-3.83,15-12.261,18.446-14.509,1.778-1.157-1.4-2.125-1.4-2.125l-19.292-6.817,9.148-11.263s21.762,8.8,24.687,19.086c.41,1.442-1,3.267-1.84,4.3a20.113,20.113,0,0,1-6.727,4.825q-3.819,1.947-7.675,3.831-5.8,2.843-11.757,5.369c-.107.044-1.1.573-1.191.5C172.283,170.855,168.813,168.252,169.88,167.661Z" fill="#909797"/>
  </g>
  <g id="Group_5364" data-name="Group 5364" transform="translate(-40.654 -48.346)" opacity="0.5">
    <path id="Path_1946" data-name="Path 1946" d="M187.564,151.256c.822.352,2.048,1.076.789,1.9-3.446,2.248-11.55,10.679-18.446,14.509-.234.13-.245.359-.126.634,3.9-1.661,22.115-15.539,21.569-16.232-.146-.186-.308-.359-.468-.534C189.773,151.484,188.665,151.393,187.564,151.256Z" fill="#54565a"/>
  </g>
  <g id="Group_5366" data-name="Group 5366" transform="translate(-40.654 -48.346)">
    <g id="Group_5365" data-name="Group 5365">
      <path id="Path_1947" data-name="Path 1947" d="M162.747,182.167c-.258,3.857,2.816-.215,3.4-1.509.85-1.881,1.73-3.752,2.592-5.628a6.574,6.574,0,0,1,1.65-2.717,89.152,89.152,0,0,1,9.143-4.637l-2.477-5.143s-3.931,3.174-6.269,4.637a5.169,5.169,0,0,1-2.776.6c-2.118-.218-4.143-.447-4.586,2.314C162.871,173.527,162.794,181.45,162.747,182.167Z" fill="#ffcc8b"/>
    </g>
  </g>
  <g id="Group_5367" data-name="Group 5367" transform="translate(-40.654 -48.346)">
    <path id="Path_1948" data-name="Path 1948" d="M157.59,206.045c.194-6.147-2.628-61.146-2.628-61.146l9.526.652L160.569,168.7l1.958,10.654-.76,25.775S159.585,208.8,157.59,206.045Z" fill="#ffcc8b"/>
  </g>
  <g id="Group_5368" data-name="Group 5368" transform="translate(-40.654 -48.346)">
    <path id="Path_1949" data-name="Path 1949" d="M162.016,196.284l3.309-53.113s-13.109-13.856-14.1-4.069,5.149,44.628,6.112,57.182Z" fill="#909797"/>
  </g>
  <g id="Group_5369" data-name="Group 5369" transform="translate(-40.654 -48.346)" opacity="0.5">
    <path id="Path_1950" data-name="Path 1950" d="M151.731,150.424c1.479,14.464,4.824,34.879,5.514,43.869h4.469C155.8,181.866,152,150.929,151.731,150.424Z" fill="#54565a"/>
  </g>
  <g id="Group_5371" data-name="Group 5371" transform="translate(-40.654 -48.346)">
    <g id="Group_5370" data-name="Group 5370">
      <path id="Path_1951" data-name="Path 1951" d="M153.528,217.521a1.742,1.742,0,0,1,.275-1.37c1.681-2.819,3.5-5.286,3.72-8.706.185-2.838.105-7.218.105-7.218l4.268-.98s-.187,4.323-.114,7.079a15.66,15.66,0,0,1,.676,3.286,16.355,16.355,0,0,1-.543,3.168c-.229,1.146-.137,2.338-.339,3.488-.558,3.191-5.7,3.7-7.794,1.654A.98.98,0,0,1,153.528,217.521Z" fill="#ffcc8b"/>
    </g>
  </g>
  <g id="Group_5372" data-name="Group 5372" transform="translate(-40.654 -48.346)">
    <path id="Path_1952" data-name="Path 1952" d="M176.306,133.861c-.549-6.2-2.513-7.733-2.513-7.733-.421-.015-12.482-7.662-12.482-7.662s-7.465,10.116-8.976,11.763l-1.113,8.873,11.216,5.108h5.2S176.855,140.061,176.306,133.861Z" fill="#909797"/>
  </g>
  <g id="Group_5373" data-name="Group 5373" transform="translate(-40.654 -48.346)">
    <path id="Path_1953" data-name="Path 1953" d="M178.5,133.643a115.832,115.832,0,0,0-1.588-12.358s-1.82-10.224-2.518-13.052-.02-9.945-2.178-10.778c-.84-.323-1.987-.794-1.987-.794l-4.994,8.6-5.3-8.92s-1.09.313-2.193.663c-.742.233-1.177,7.451-1.891,10.661s-2.175,14.2-2.175,14.2-2.094,9.366-2.815,15C150.583,139,159.857,146.286,178.5,133.643Z" fill="#76bc21"/>
  </g>
  <g id="Group_5374" data-name="Group 5374" transform="translate(-40.654 -48.346)">
    <path id="Path_1954" data-name="Path 1954" d="M154.317,130.78c.038-2.153,2.873-22.425,3.325-24.12.777-2.918,1.417-6.021,3.54-8.2L160.02,96.51s-1.09.313-2.193.662c-.743.234-1.178,7.452-1.891,10.662s-2.175,14.2-2.175,14.2-2.094,9.366-2.815,15c-.2,1.578,4.783,5.937,14.869,3.077C165.492,139.857,154.173,138.974,154.317,130.78Z" fill="#74ad23"/>
  </g>
  <g id="Group_5375" data-name="Group 5375" transform="translate(-40.654 -48.346)">
    <path id="Path_1955" data-name="Path 1955" d="M159.931,96.337c-.547,2.75,2.522,9.352,5.533,9.035,2.036-.216,4.113-6.206,4.765-8.711-.578-.12-3.177-1.056-2.626-.682,0,0-.946-4.549.263-7.55.516-.808-7.312.822-6.582,2.637a14.948,14.948,0,0,1,.6,4.925S160.426,96.266,159.931,96.337Z" fill="#ffcc8b"/>
  </g>
  <g id="Group_5376" data-name="Group 5376" transform="translate(-40.654 -48.346)">
    <path id="Path_1956" data-name="Path 1956" d="M167.625,88.83l-5.946,2.894.2,3.084C166.745,94.053,167.625,88.83,167.625,88.83Z" fill="#ffad5f"/>
  </g>
  <g id="Group_5377" data-name="Group 5377" transform="translate(-40.654 -48.346)">
    <path id="Path_1957" data-name="Path 1957" d="M170.733,73.284l2.066,8.035c-.357,4.853-8.344,10.352-10.909,10.362-1.83.008-4.451-4.5-4.586-7.3-.131-2.712-.326-9.506,1.045-10.625Z" fill="#ffcc8b"/>
  </g>
  <g id="Group_5383" data-name="Group 5383" transform="translate(-40.654 -48.346)">
    <g id="Group_5379" data-name="Group 5379">
      <g id="Group_5378" data-name="Group 5378">
        <path id="Path_1958" data-name="Path 1958" d="M153.694,57.18s-10.915,19.293-10.672,23.045,9.764,26.009,12.7,27.84c2.234-1.779,1.759-10.436,1.759-10.436s-7.607-14.252-9.1-16.5c2.755-7.237,6.47-21.483,6.47-21.483Z" fill="#ffcc8b"/>
      </g>
    </g>
    <g id="Group_5380" data-name="Group 5380">
      <path id="Path_1959" data-name="Path 1959" d="M175.958,55.875a13.2,13.2,0,0,0,.135,1.652,7.165,7.165,0,0,1,.33,1.736c-.1.567-.123,2.483-1.152,2.162a1.316,1.316,0,0,1-.695-.675c-.336-.608-.63-1.236-.966-1.844-.829-1.5-.7-3.122-1.052-4.765-.362-1.666-.8-3.424.455-4.842a1.038,1.038,0,0,1,.42-.319c.422-.141.841.211,1.11.566a8.745,8.745,0,0,1,1.4,5.322C175.946,55.211,175.948,55.544,175.958,55.875Z" fill="#ffcc8b"/>
    </g>
    <g id="Group_5381" data-name="Group 5381">
      <path id="Path_1960" data-name="Path 1960" d="M153.5,55.3a13.756,13.756,0,0,1-.114,1.654,7.062,7.062,0,0,0-.309,1.739c.1.567.152,2.482,1.178,2.148a1.324,1.324,0,0,0,.686-.684c.328-.612.615-1.243.943-1.854.81-1.512.658-3.131.994-4.78.342-1.669.756-3.432-.514-4.835a1.043,1.043,0,0,0-.424-.313c-.423-.137-.839.222-1.1.579a8.738,8.738,0,0,0-1.337,5.339C153.507,54.637,153.509,54.97,153.5,55.3Z" fill="#ffcc8b"/>
    </g>
    <g id="Group_5382" data-name="Group 5382">
      <path id="Path_1961" data-name="Path 1961" d="M175.892,57.76s11.15,19.157,10.954,22.911-9.446,26.128-12.359,28c-2.256-1.752-1.887-10.415-1.887-10.415s7.433-14.344,8.9-16.609c-2.843-7.2-6.731-21.4-6.731-21.4Z" fill="#ffcc8b"/>
    </g>
  </g>
  <g id="Group_5385" data-name="Group 5385" transform="translate(-40.654 -48.346)">
    <g id="Group_5384" data-name="Group 5384">
      <path id="Path_1962" data-name="Path 1962" d="M143.919,76.62a10.454,10.454,0,0,0-.9,3.524c.241,3.752,9.764,26.01,12.7,27.841.345-.275.211-.053.439-.6C144,88.447,143.794,78.458,143.919,76.62Z" fill="#ffad5f"/>
    </g>
  </g>
  <g id="Group_5386" data-name="Group 5386" transform="translate(-40.654 -48.346)">
    <path id="Path_1963" data-name="Path 1963" d="M182.946,82.072a18.234,18.234,0,0,0-.674-1.719c-1.527-3.451-3.4-7.966-4.951-11.406,1.232,4.055,2.935,9.651,4.179,12.8-1.467,2.266-8.9,16.609-8.9,16.609a9.4,9.4,0,0,0,.007,1.607C176.581,95.388,183.031,82.291,182.946,82.072Z" fill="#ffad5f"/>
  </g>
  <g id="Group_5387" data-name="Group 5387" transform="translate(-40.654 -48.346)">
    <path id="Path_1964" data-name="Path 1964" d="M157.428,75.99a10.456,10.456,0,0,0,2.937.965c2.73.552,4.8-.209,7.346-.348.07.924.022,1.855.156,2.782a.763.763,0,0,0,1.2.51c1.552-1.1,3.274-.02,2.821,1.476-.32,1.059-1.5,2.906-2.577,2.641a2.394,2.394,0,0,0,2.514,2.431,3.087,3.087,0,0,0,2.422-1.564,16.62,16.62,0,0,0,.26-14.048c-.886-2.021-3.215-2.913-5.457-2.922-2.483-.01-3.6,1.247-6.079,1.327-1.565.05-4.554-1.024-5.865-.17a3.783,3.783,0,0,0-.019,6.718C157.2,75.859,157.311,75.927,157.428,75.99Z" fill="#144998"/>
  </g>
  <g id="Group_5388" data-name="Group 5388" transform="translate(-40.654 -48.346)">
    <rect id="Rectangle_3116" data-name="Rectangle 3116" width="2.201" height="6.846" transform="translate(175.503 163.089) rotate(-34.389)" fill="#feaa61"/>
  </g>
  <g id="Group_5389" data-name="Group 5389" transform="translate(-40.654 -48.346)">
    <rect id="Rectangle_3117" data-name="Rectangle 3117" width="2.201" height="5.937" transform="translate(156.697 196.607) rotate(-90)" fill="#feaa61"/>
  </g>
</svg>
